<?xml version="1.0" encoding="UTF-8" standalone="no"?>
<!DOCTYPE svg PUBLIC "-//W3C//DTD SVG 1.1//EN"
 "http://www.w3.org/Graphics/SVG/1.1/DTD/svg11.dtd">
<!-- Generated by graphviz version 3.0.0 (20220226.1711)
 -->
<!-- Title: NFA to DFA Pages: 1 -->
<svg width="2536pt" height="515pt"
 viewBox="0.00 0.00 2535.76 515.35" xmlns="http://www.w3.org/2000/svg" xmlns:xlink="http://www.w3.org/1999/xlink">
<g id="graph0" class="graph" transform="scale(1 1) rotate(0) translate(4 511.35)">
<title>NFA to DFA</title>
<polygon fill="white" stroke="transparent" points="-4,4 -4,-511.35 2531.76,-511.35 2531.76,4 -4,4"/>
<!-- 0 -->
<g id="node1" class="node">
<title>0</title>
<ellipse fill="black" stroke="black" cx="1.8" cy="-296" rx="1.8" ry="1.8"/>
</g>
<!-- 1 -->
<g id="node2" class="node">
<title>1</title>
<ellipse fill="none" stroke="black" cx="58.6" cy="-296" rx="18" ry="18"/>
<text text-anchor="middle" x="58.6" y="-292.3" font-family="Times New Roman,serif" font-size="14.00">1</text>
</g>
<!-- 0&#45;&gt;1 -->
<g id="edge1" class="edge">
<title>0&#45;&gt;1</title>
<path fill="none" stroke="black" d="M3.75,-296C7.11,-296 18.87,-296 30.55,-296"/>
<polygon fill="black" stroke="black" points="30.58,-299.5 40.58,-296 30.58,-292.5 30.58,-299.5"/>
</g>
<!-- 2 -->
<g id="node3" class="node">
<title>2</title>
<ellipse fill="none" stroke="black" cx="152.6" cy="-296" rx="18" ry="18"/>
<text text-anchor="middle" x="152.6" y="-292.3" font-family="Times New Roman,serif" font-size="14.00">2</text>
</g>
<!-- 1&#45;&gt;2 -->
<g id="edge2" class="edge">
<title>1&#45;&gt;2</title>
<path fill="none" stroke="black" d="M76.9,-296C90.14,-296 108.65,-296 123.94,-296"/>
<polygon fill="black" stroke="black" points="124.37,-299.5 134.37,-296 124.37,-292.5 124.37,-299.5"/>
<text text-anchor="middle" x="105.6" y="-299.8" font-family="Times New Roman,serif" font-size="14.00">b, a</text>
</g>
<!-- 2,8 -->
<g id="node4" class="node">
<title>2,8</title>
<ellipse fill="none" stroke="black" cx="236.7" cy="-359" rx="22.2" ry="22.2"/>
<text text-anchor="middle" x="236.7" y="-355.3" font-family="Times New Roman,serif" font-size="14.00">2,8</text>
</g>
<!-- 2&#45;&gt;2,8 -->
<g id="edge3" class="edge">
<title>2&#45;&gt;2,8</title>
<path fill="none" stroke="black" d="M167.53,-306.69C179.2,-315.64 196.16,-328.66 210.24,-339.46"/>
<polygon fill="black" stroke="black" points="208.5,-342.54 218.57,-345.85 212.76,-336.99 208.5,-342.54"/>
<text text-anchor="middle" x="192.6" y="-331.8" font-family="Times New Roman,serif" font-size="14.00">b</text>
</g>
<!-- 2,3 -->
<g id="node5" class="node">
<title>2,3</title>
<ellipse fill="none" stroke="black" cx="236.7" cy="-256" rx="22.2" ry="22.2"/>
<text text-anchor="middle" x="236.7" y="-252.3" font-family="Times New Roman,serif" font-size="14.00">2,3</text>
</g>
<!-- 2&#45;&gt;2,3 -->
<g id="edge4" class="edge">
<title>2&#45;&gt;2,3</title>
<path fill="none" stroke="black" d="M169.04,-288.48C179.78,-283.25 194.4,-276.12 207.21,-269.88"/>
<polygon fill="black" stroke="black" points="209.11,-272.85 216.57,-265.32 206.05,-266.55 209.11,-272.85"/>
<text text-anchor="middle" x="192.6" y="-282.8" font-family="Times New Roman,serif" font-size="14.00">a</text>
</g>
<!-- 2,8,9 -->
<g id="node6" class="node">
<title>2,8,9</title>
<ellipse fill="none" stroke="black" cx="584.48" cy="-399" rx="28.7" ry="28.7"/>
<text text-anchor="middle" x="584.48" y="-395.3" font-family="Times New Roman,serif" font-size="14.00">2,8,9</text>
</g>
<!-- 2,8&#45;&gt;2,8,9 -->
<g id="edge5" class="edge">
<title>2,8&#45;&gt;2,8,9</title>
<path fill="none" stroke="black" d="M254.79,-372.6C284.73,-395.4 349.51,-440.27 413.09,-455 447.99,-463.08 459.25,-464.86 493.68,-455 515.64,-448.71 537.45,-435.32 554.08,-423.22"/>
<polygon fill="black" stroke="black" points="556.39,-425.86 562.27,-417.04 552.18,-420.26 556.39,-425.86"/>
<text text-anchor="middle" x="391.09" y="-453.8" font-family="Times New Roman,serif" font-size="14.00">b</text>
</g>
<!-- 10,2,3 -->
<g id="node7" class="node">
<title>10,2,3</title>
<ellipse fill="none" stroke="black" cx="335.94" cy="-359" rx="33.29" ry="33.29"/>
<text text-anchor="middle" x="335.94" y="-355.3" font-family="Times New Roman,serif" font-size="14.00">10,2,3</text>
</g>
<!-- 2,8&#45;&gt;10,2,3 -->
<g id="edge6" class="edge">
<title>2,8&#45;&gt;10,2,3</title>
<path fill="none" stroke="black" d="M258.8,-359C268.74,-359 280.96,-359 292.68,-359"/>
<polygon fill="black" stroke="black" points="292.78,-362.5 302.78,-359 292.78,-355.5 292.78,-362.5"/>
<text text-anchor="middle" x="280.8" y="-362.8" font-family="Times New Roman,serif" font-size="14.00">a</text>
</g>
<!-- 2,5,8 -->
<g id="node8" class="node">
<title>2,5,8</title>
<ellipse fill="none" stroke="black" cx="335.94" cy="-256" rx="28.7" ry="28.7"/>
<text text-anchor="middle" x="335.94" y="-252.3" font-family="Times New Roman,serif" font-size="14.00">2,5,8</text>
</g>
<!-- 2,3&#45;&gt;2,5,8 -->
<g id="edge7" class="edge">
<title>2,3&#45;&gt;2,5,8</title>
<path fill="none" stroke="black" d="M258.8,-256C269.99,-256 284.09,-256 297.11,-256"/>
<polygon fill="black" stroke="black" points="297.23,-259.5 307.23,-256 297.23,-252.5 297.23,-259.5"/>
<text text-anchor="middle" x="280.8" y="-259.8" font-family="Times New Roman,serif" font-size="14.00">b</text>
</g>
<!-- 2,3,4 -->
<g id="node9" class="node">
<title>2,3,4</title>
<ellipse fill="none" stroke="black" cx="584.48" cy="-125" rx="28.7" ry="28.7"/>
<text text-anchor="middle" x="584.48" y="-121.3" font-family="Times New Roman,serif" font-size="14.00">2,3,4</text>
</g>
<!-- 2,3&#45;&gt;2,3,4 -->
<g id="edge8" class="edge">
<title>2,3&#45;&gt;2,3,4</title>
<path fill="none" stroke="black" d="M256.15,-245.08C269.15,-237.42 286.98,-226.99 302.8,-218 351.5,-190.32 360.38,-175.97 413.09,-157 457.11,-141.16 510.48,-132.76 545.63,-128.6"/>
<polygon fill="black" stroke="black" points="546.37,-132.04 555.92,-127.45 545.59,-125.08 546.37,-132.04"/>
<text text-anchor="middle" x="391.09" y="-171.8" font-family="Times New Roman,serif" font-size="14.00">a</text>
</g>
<!-- 13,2,8,9 -->
<g id="node10" class="node">
<title>13,2,8,9</title>
<ellipse fill="none" stroke="black" cx="719.57" cy="-283" rx="40.11" ry="40.11"/>
<ellipse fill="none" stroke="black" cx="719.57" cy="-283" rx="44.09" ry="44.09"/>
<text text-anchor="middle" x="719.57" y="-279.3" font-family="Times New Roman,serif" font-size="14.00">13,2,8,9</text>
</g>
<!-- 2,8,9&#45;&gt;13,2,8,9 -->
<g id="edge9" class="edge">
<title>2,8,9&#45;&gt;13,2,8,9</title>
<path fill="none" stroke="black" d="M606.57,-380.62C625.67,-363.97 654.33,-338.99 677.88,-318.47"/>
<polygon fill="black" stroke="black" points="680.41,-320.9 685.65,-311.69 675.81,-315.63 680.41,-320.9"/>
<text text-anchor="middle" x="653.27" y="-344.8" font-family="Times New Roman,serif" font-size="14.00">b</text>
</g>
<!-- 10,13,2,3 -->
<g id="node11" class="node">
<title>10,13,2,3</title>
<ellipse fill="none" stroke="black" cx="855.06" cy="-329" rx="44.38" ry="44.38"/>
<ellipse fill="none" stroke="black" cx="855.06" cy="-329" rx="48.39" ry="48.39"/>
<text text-anchor="middle" x="855.06" y="-325.3" font-family="Times New Roman,serif" font-size="14.00">10,13,2,3</text>
</g>
<!-- 2,8,9&#45;&gt;10,13,2,3 -->
<g id="edge10" class="edge">
<title>2,8,9&#45;&gt;10,13,2,3</title>
<path fill="none" stroke="black" d="M613.17,-396.52C648.66,-392.84 711.84,-384.64 763.87,-369 776.68,-365.15 790.07,-359.93 802.49,-354.52"/>
<polygon fill="black" stroke="black" points="804.07,-357.65 811.77,-350.38 801.21,-351.26 804.07,-357.65"/>
<text text-anchor="middle" x="719.57" y="-392.8" font-family="Times New Roman,serif" font-size="14.00">a</text>
</g>
<!-- 10,2,3&#45;&gt;2,3,4 -->
<g id="edge12" class="edge">
<title>10,2,3&#45;&gt;2,3,4</title>
<path fill="none" stroke="black" d="M368.49,-351.01C411.59,-339.84 484.6,-319.93 493.68,-311 542.92,-262.59 500.24,-220.01 537.68,-162 541.48,-156.11 546.53,-150.73 551.88,-146"/>
<polygon fill="black" stroke="black" points="554.27,-148.57 559.84,-139.55 549.87,-143.13 554.27,-148.57"/>
<text text-anchor="middle" x="453.39" y="-342.8" font-family="Times New Roman,serif" font-size="14.00">a</text>
</g>
<!-- 11,2,5,8 -->
<g id="node12" class="node">
<title>11,2,5,8</title>
<ellipse fill="none" stroke="black" cx="453.39" cy="-406" rx="40.09" ry="40.09"/>
<text text-anchor="middle" x="453.39" y="-402.3" font-family="Times New Roman,serif" font-size="14.00">11,2,5,8</text>
</g>
<!-- 10,2,3&#45;&gt;11,2,5,8 -->
<g id="edge11" class="edge">
<title>10,2,3&#45;&gt;11,2,5,8</title>
<path fill="none" stroke="black" d="M366.97,-371.23C379.02,-376.13 393.16,-381.89 406.44,-387.3"/>
<polygon fill="black" stroke="black" points="405.34,-390.62 415.92,-391.15 407.98,-384.14 405.34,-390.62"/>
<text text-anchor="middle" x="391.09" y="-386.8" font-family="Times New Roman,serif" font-size="14.00">b</text>
</g>
<!-- 2,5,8&#45;&gt;2,8,9 -->
<g id="edge13" class="edge">
<title>2,5,8&#45;&gt;2,8,9</title>
<path fill="none" stroke="black" d="M364.65,-258.07C397.58,-261.6 453.15,-271.04 493.68,-296 522.34,-313.64 546.82,-343.37 562.94,-366.36"/>
<polygon fill="black" stroke="black" points="560.18,-368.52 568.7,-374.8 565.96,-364.57 560.18,-368.52"/>
<text text-anchor="middle" x="453.39" y="-299.8" font-family="Times New Roman,serif" font-size="14.00">b</text>
</g>
<!-- 10,2,3,6 -->
<g id="node13" class="node">
<title>10,2,3,6</title>
<ellipse fill="none" stroke="black" cx="453.39" cy="-206" rx="40.09" ry="40.09"/>
<text text-anchor="middle" x="453.39" y="-202.3" font-family="Times New Roman,serif" font-size="14.00">10,2,3,6</text>
</g>
<!-- 2,5,8&#45;&gt;10,2,3,6 -->
<g id="edge14" class="edge">
<title>2,5,8&#45;&gt;10,2,3,6</title>
<path fill="none" stroke="black" d="M362.56,-244.9C375.42,-239.33 391.4,-232.41 406.3,-225.96"/>
<polygon fill="black" stroke="black" points="408.1,-228.99 415.89,-221.81 405.32,-222.57 408.1,-228.99"/>
<text text-anchor="middle" x="391.09" y="-237.8" font-family="Times New Roman,serif" font-size="14.00">a</text>
</g>
<!-- 13,2,5,8 -->
<g id="node14" class="node">
<title>13,2,5,8</title>
<ellipse fill="none" stroke="black" cx="1146.25" cy="-176" rx="40.11" ry="40.11"/>
<ellipse fill="none" stroke="black" cx="1146.25" cy="-176" rx="44.09" ry="44.09"/>
<text text-anchor="middle" x="1146.25" y="-172.3" font-family="Times New Roman,serif" font-size="14.00">13,2,5,8</text>
</g>
<!-- 2,3,4&#45;&gt;13,2,5,8 -->
<g id="edge15" class="edge">
<title>2,3,4&#45;&gt;13,2,5,8</title>
<path fill="none" stroke="black" d="M597.95,-99.7C617.95,-63.18 660.88,0 718.57,0 718.57,0 718.57,0 926.26,0 990.04,0 1009.55,-15.47 1057.95,-57 1085.84,-80.93 1079.93,-97.58 1101.95,-127 1104.19,-129.99 1106.57,-133.03 1109.02,-136.04"/>
<polygon fill="black" stroke="black" points="1106.51,-138.5 1115.6,-143.94 1111.89,-134.02 1106.51,-138.5"/>
<text text-anchor="middle" x="855.06" y="-3.8" font-family="Times New Roman,serif" font-size="14.00">b</text>
</g>
<!-- 13,2,3,4 -->
<g id="node15" class="node">
<title>13,2,3,4</title>
<ellipse fill="none" stroke="black" cx="1002.61" cy="-110" rx="40.11" ry="40.11"/>
<ellipse fill="none" stroke="black" cx="1002.61" cy="-110" rx="44.09" ry="44.09"/>
<text text-anchor="middle" x="1002.61" y="-106.3" font-family="Times New Roman,serif" font-size="14.00">13,2,3,4</text>
</g>
<!-- 2,3,4&#45;&gt;13,2,3,4 -->
<g id="edge16" class="edge">
<title>2,3,4&#45;&gt;13,2,3,4</title>
<path fill="none" stroke="black" d="M603.21,-103.1C614.88,-90.32 631.28,-75.15 649.27,-67 703.3,-42.53 722.66,-55.34 781.87,-52 842.06,-48.61 908.67,-69.92 952.6,-87.66"/>
<polygon fill="black" stroke="black" points="951.32,-90.92 961.9,-91.5 953.99,-84.45 951.32,-90.92"/>
<text text-anchor="middle" x="785.37" y="-55.8" font-family="Times New Roman,serif" font-size="14.00">a</text>
</g>
<!-- 13,2,8,9&#45;&gt;13,2,8,9 -->
<g id="edge17" class="edge">
<title>13,2,8,9&#45;&gt;13,2,8,9</title>
<path fill="none" stroke="black" d="M707.69,-325.8C708.42,-336.92 712.38,-345.3 719.57,-345.3 724.4,-345.3 727.77,-341.51 729.69,-335.66"/>
<polygon fill="black" stroke="black" points="733.13,-336.26 731.45,-325.8 726.24,-335.03 733.13,-336.26"/>
<text text-anchor="middle" x="719.57" y="-349.1" font-family="Times New Roman,serif" font-size="14.00">b</text>
</g>
<!-- 13,2,8,9&#45;&gt;10,13,2,3 -->
<g id="edge18" class="edge">
<title>13,2,8,9&#45;&gt;10,13,2,3</title>
<path fill="none" stroke="black" d="M761.71,-297.18C773.68,-301.3 786.94,-305.87 799.59,-310.23"/>
<polygon fill="black" stroke="black" points="798.52,-313.56 809.11,-313.51 800.8,-306.94 798.52,-313.56"/>
<text text-anchor="middle" x="785.37" y="-309.8" font-family="Times New Roman,serif" font-size="14.00">a</text>
</g>
<!-- 10,13,2,3&#45;&gt;13,2,3,4 -->
<g id="edge20" class="edge">
<title>10,13,2,3&#45;&gt;13,2,3,4</title>
<path fill="none" stroke="black" d="M886.41,-291.91C900.04,-274.68 916.01,-253.69 929.26,-234 945.79,-209.43 962.56,-180.96 975.79,-157.49"/>
<polygon fill="black" stroke="black" points="978.85,-159.2 980.68,-148.76 972.74,-155.78 978.85,-159.2"/>
<text text-anchor="middle" x="925.26" y="-248.8" font-family="Times New Roman,serif" font-size="14.00">a</text>
</g>
<!-- 11,13,2,5,8 -->
<g id="node16" class="node">
<title>11,13,2,5,8</title>
<ellipse fill="none" stroke="black" cx="1002.61" cy="-336" rx="51.2" ry="51.2"/>
<ellipse fill="none" stroke="black" cx="1002.61" cy="-336" rx="55.19" ry="55.19"/>
<text text-anchor="middle" x="1002.61" y="-332.3" font-family="Times New Roman,serif" font-size="14.00">11,13,2,5,8</text>
</g>
<!-- 10,13,2,3&#45;&gt;11,13,2,5,8 -->
<g id="edge19" class="edge">
<title>10,13,2,3&#45;&gt;11,13,2,5,8</title>
<path fill="none" stroke="black" d="M903.32,-331.27C914.06,-331.79 925.65,-332.35 936.97,-332.89"/>
<polygon fill="black" stroke="black" points="937.1,-336.4 947.26,-333.39 937.44,-329.41 937.1,-336.4"/>
<text text-anchor="middle" x="925.26" y="-336.8" font-family="Times New Roman,serif" font-size="14.00">b</text>
</g>
<!-- 11,2,5,8&#45;&gt;2,8,9 -->
<g id="edge21" class="edge">
<title>11,2,5,8&#45;&gt;2,8,9</title>
<path fill="none" stroke="black" d="M493.82,-403.86C510.24,-402.97 529.23,-401.94 545.5,-401.06"/>
<polygon fill="black" stroke="black" points="545.94,-404.54 555.74,-400.5 545.57,-397.55 545.94,-404.54"/>
<text text-anchor="middle" x="515.68" y="-406.8" font-family="Times New Roman,serif" font-size="14.00">b</text>
</g>
<!-- 10,12,2,3,6 -->
<g id="node17" class="node">
<title>10,12,2,3,6</title>
<ellipse fill="none" stroke="black" cx="1621.32" cy="-456" rx="51.19" ry="51.19"/>
<text text-anchor="middle" x="1621.32" y="-452.3" font-family="Times New Roman,serif" font-size="14.00">10,12,2,3,6</text>
</g>
<!-- 11,2,5,8&#45;&gt;10,12,2,3,6 -->
<g id="edge22" class="edge">
<title>11,2,5,8&#45;&gt;10,12,2,3,6</title>
<path fill="none" stroke="black" d="M488.08,-426.91C513.36,-440.62 549.35,-456 583.48,-456 583.48,-456 583.48,-456 1451.08,-456 1487.14,-456 1527.51,-456 1559.79,-456"/>
<polygon fill="black" stroke="black" points="1559.96,-459.5 1569.96,-456 1559.96,-452.5 1559.96,-459.5"/>
<text text-anchor="middle" x="1002.61" y="-459.8" font-family="Times New Roman,serif" font-size="14.00">a</text>
</g>
<!-- 10,2,3,6&#45;&gt;2,3,4 -->
<g id="edge24" class="edge">
<title>10,2,3,6&#45;&gt;2,3,4</title>
<path fill="none" stroke="black" d="M487.97,-184.93C507.44,-172.71 531.85,-157.39 551.12,-145.31"/>
<polygon fill="black" stroke="black" points="553.23,-148.11 559.84,-139.83 549.51,-142.18 553.23,-148.11"/>
<text text-anchor="middle" x="515.68" y="-171.8" font-family="Times New Roman,serif" font-size="14.00">a</text>
</g>
<!-- 11,2,5,7,8 -->
<g id="node18" class="node">
<title>11,2,5,7,8</title>
<ellipse fill="none" stroke="black" cx="584.48" cy="-218" rx="46.59" ry="46.59"/>
<text text-anchor="middle" x="584.48" y="-214.3" font-family="Times New Roman,serif" font-size="14.00">11,2,5,7,8</text>
</g>
<!-- 10,2,3,6&#45;&gt;11,2,5,7,8 -->
<g id="edge23" class="edge">
<title>10,2,3,6&#45;&gt;11,2,5,7,8</title>
<path fill="none" stroke="black" d="M493.82,-209.67C504.38,-210.65 516,-211.73 527.28,-212.78"/>
<polygon fill="black" stroke="black" points="527.21,-216.28 537.49,-213.73 527.86,-209.31 527.21,-216.28"/>
<text text-anchor="middle" x="515.68" y="-215.8" font-family="Times New Roman,serif" font-size="14.00">b</text>
</g>
<!-- 13,2,5,8&#45;&gt;13,2,8,9 -->
<g id="edge25" class="edge">
<title>13,2,5,8&#45;&gt;13,2,8,9</title>
<path fill="none" stroke="black" d="M1102.75,-186.37C1088.55,-189.67 1072.61,-193.18 1057.95,-196 936,-219.44 896.79,-191.95 781.87,-239 775.2,-241.73 768.57,-245.32 762.26,-249.27"/>
<polygon fill="black" stroke="black" points="760.28,-246.38 753.9,-254.83 764.16,-252.21 760.28,-246.38"/>
<text text-anchor="middle" x="925.26" y="-212.8" font-family="Times New Roman,serif" font-size="14.00">b</text>
</g>
<!-- 10,13,2,3,6 -->
<g id="node19" class="node">
<title>10,13,2,3,6</title>
<ellipse fill="none" stroke="black" cx="1288.89" cy="-170" rx="51.2" ry="51.2"/>
<ellipse fill="none" stroke="black" cx="1288.89" cy="-170" rx="55.19" ry="55.19"/>
<text text-anchor="middle" x="1288.89" y="-166.3" font-family="Times New Roman,serif" font-size="14.00">10,13,2,3,6</text>
</g>
<!-- 13,2,5,8&#45;&gt;10,13,2,3,6 -->
<g id="edge26" class="edge">
<title>13,2,5,8&#45;&gt;10,13,2,3,6</title>
<path fill="none" stroke="black" d="M1190.59,-174.15C1200.97,-173.71 1212.28,-173.23 1223.39,-172.75"/>
<polygon fill="black" stroke="black" points="1223.67,-176.24 1233.51,-172.32 1223.37,-169.25 1223.67,-176.24"/>
<text text-anchor="middle" x="1212.04" y="-177.8" font-family="Times New Roman,serif" font-size="14.00">a</text>
</g>
<!-- 13,2,3,4&#45;&gt;13,2,5,8 -->
<g id="edge27" class="edge">
<title>13,2,3,4&#45;&gt;13,2,5,8</title>
<path fill="none" stroke="black" d="M1043.06,-128.38C1059.5,-136.04 1078.76,-145.02 1096.1,-153.1"/>
<polygon fill="black" stroke="black" points="1094.97,-156.43 1105.51,-157.49 1097.93,-150.09 1094.97,-156.43"/>
<text text-anchor="middle" x="1079.95" y="-150.8" font-family="Times New Roman,serif" font-size="14.00">b</text>
</g>
<!-- 13,2,3,4&#45;&gt;13,2,3,4 -->
<g id="edge28" class="edge">
<title>13,2,3,4&#45;&gt;13,2,3,4</title>
<path fill="none" stroke="black" d="M988.46,-152.22C989.21,-163.62 993.92,-172.3 1002.61,-172.3 1008.44,-172.3 1012.48,-168.38 1014.73,-162.35"/>
<polygon fill="black" stroke="black" points="1018.23,-162.71 1016.75,-152.22 1011.37,-161.34 1018.23,-162.71"/>
<text text-anchor="middle" x="1002.61" y="-176.1" font-family="Times New Roman,serif" font-size="14.00">a</text>
</g>
<!-- 11,13,2,5,8&#45;&gt;13,2,8,9 -->
<g id="edge29" class="edge">
<title>11,13,2,5,8&#45;&gt;13,2,8,9</title>
<path fill="none" stroke="black" d="M955.1,-365.16C914.58,-386.61 854.94,-408.44 806.87,-386 781.86,-374.33 761.54,-351.45 746.91,-330.21"/>
<polygon fill="black" stroke="black" points="749.83,-328.28 741.39,-321.87 743.99,-332.14 749.83,-328.28"/>
<text text-anchor="middle" x="855.06" y="-399.8" font-family="Times New Roman,serif" font-size="14.00">b</text>
</g>
<!-- 10,12,13,2,3,6 -->
<g id="node20" class="node">
<title>10,12,13,2,3,6</title>
<ellipse fill="none" stroke="black" cx="1621.32" cy="-208" rx="62.3" ry="62.3"/>
<ellipse fill="none" stroke="black" cx="1621.32" cy="-208" rx="66.29" ry="66.29"/>
<text text-anchor="middle" x="1621.32" y="-204.3" font-family="Times New Roman,serif" font-size="14.00">10,12,13,2,3,6</text>
</g>
<!-- 11,13,2,5,8&#45;&gt;10,12,13,2,3,6 -->
<g id="edge30" class="edge">
<title>11,13,2,5,8&#45;&gt;10,12,13,2,3,6</title>
<path fill="none" stroke="black" d="M1056.35,-322.18C1082.84,-316.4 1115.53,-311 1145.25,-311 1145.25,-311 1145.25,-311 1451.08,-311 1493.86,-311 1535.02,-286.68 1566.04,-261.68"/>
<polygon fill="black" stroke="black" points="1568.65,-264.06 1574.11,-254.98 1564.18,-258.68 1568.65,-264.06"/>
<text text-anchor="middle" x="1288.89" y="-314.8" font-family="Times New Roman,serif" font-size="14.00">a</text>
</g>
<!-- 11,12,13,2,5,7,8 -->
<g id="node21" class="node">
<title>11,12,13,2,5,7,8</title>
<ellipse fill="none" stroke="black" cx="1805.26" cy="-246" rx="69.59" ry="69.59"/>
<ellipse fill="none" stroke="black" cx="1805.26" cy="-246" rx="73.59" ry="73.59"/>
<text text-anchor="middle" x="1805.26" y="-242.3" font-family="Times New Roman,serif" font-size="14.00">11,12,13,2,5,7,8</text>
</g>
<!-- 10,12,2,3,6&#45;&gt;11,12,13,2,5,7,8 -->
<g id="edge31" class="edge">
<title>10,12,2,3,6&#45;&gt;11,12,13,2,5,7,8</title>
<path fill="none" stroke="black" d="M1655.69,-417.48C1681.92,-387.21 1719,-344.41 1749.55,-309.15"/>
<polygon fill="black" stroke="black" points="1752.46,-311.13 1756.36,-301.28 1747.17,-306.55 1752.46,-311.13"/>
<text text-anchor="middle" x="1709.71" y="-361.8" font-family="Times New Roman,serif" font-size="14.00">b</text>
</g>
<!-- 12,13,2,3,4 -->
<g id="node22" class="node">
<title>12,13,2,3,4</title>
<ellipse fill="none" stroke="black" cx="2306.68" cy="-392" rx="51.2" ry="51.2"/>
<ellipse fill="none" stroke="black" cx="2306.68" cy="-392" rx="55.19" ry="55.19"/>
<text text-anchor="middle" x="2306.68" y="-388.3" font-family="Times New Roman,serif" font-size="14.00">12,13,2,3,4</text>
</g>
<!-- 10,12,2,3,6&#45;&gt;12,13,2,3,4 -->
<g id="edge32" class="edge">
<title>10,12,2,3,6&#45;&gt;12,13,2,3,4</title>
<path fill="none" stroke="black" d="M1672.37,-464.06C1708.83,-469.24 1759.48,-475 1804.26,-475 1804.26,-475 1804.26,-475 2137.39,-475 2180,-475 2223.01,-453.33 2254.87,-432.13"/>
<polygon fill="black" stroke="black" points="2256.87,-435.01 2263.14,-426.48 2252.91,-429.23 2256.87,-435.01"/>
<text text-anchor="middle" x="1978.15" y="-478.8" font-family="Times New Roman,serif" font-size="14.00">a</text>
</g>
<!-- 11,2,5,7,8&#45;&gt;13,2,8,9 -->
<g id="edge33" class="edge">
<title>11,2,5,7,8&#45;&gt;13,2,8,9</title>
<path fill="none" stroke="black" d="M626.86,-238.21C640.63,-244.94 656.09,-252.48 670.33,-259.44"/>
<polygon fill="black" stroke="black" points="668.97,-262.67 679.49,-263.91 672.04,-256.38 668.97,-262.67"/>
<text text-anchor="middle" x="653.27" y="-256.8" font-family="Times New Roman,serif" font-size="14.00">b</text>
</g>
<!-- 11,2,5,7,8&#45;&gt;10,12,13,2,3,6 -->
<g id="edge34" class="edge">
<title>11,2,5,7,8&#45;&gt;10,12,13,2,3,6</title>
<path fill="none" stroke="black" d="M624.33,-193.16C705.41,-143.78 899.98,-38 1078.95,-38 1078.95,-38 1078.95,-38 1451.08,-38 1511.46,-38 1557.73,-92.52 1586.5,-139.81"/>
<polygon fill="black" stroke="black" points="1583.57,-141.72 1591.67,-148.54 1589.59,-138.15 1583.57,-141.72"/>
<text text-anchor="middle" x="1079.95" y="-41.8" font-family="Times New Roman,serif" font-size="14.00">a</text>
</g>
<!-- 10,13,2,3,6&#45;&gt;13,2,3,4 -->
<g id="edge36" class="edge">
<title>10,13,2,3,6&#45;&gt;13,2,3,4</title>
<path fill="none" stroke="black" d="M1245.41,-135.56C1229.22,-124.51 1209.97,-113.66 1190.54,-108 1146.82,-95.26 1094.87,-97.09 1056.85,-101.34"/>
<polygon fill="black" stroke="black" points="1056.01,-97.91 1046.51,-102.59 1056.86,-104.86 1056.01,-97.91"/>
<text text-anchor="middle" x="1146.25" y="-111.8" font-family="Times New Roman,serif" font-size="14.00">a</text>
</g>
<!-- 11,13,2,5,7,8 -->
<g id="node23" class="node">
<title>11,13,2,5,7,8</title>
<ellipse fill="none" stroke="black" cx="1450.08" cy="-208" rx="57.7" ry="57.7"/>
<ellipse fill="none" stroke="black" cx="1450.08" cy="-208" rx="61.69" ry="61.69"/>
<text text-anchor="middle" x="1450.08" y="-204.3" font-family="Times New Roman,serif" font-size="14.00">11,13,2,5,7,8</text>
</g>
<!-- 10,13,2,3,6&#45;&gt;11,13,2,5,7,8 -->
<g id="edge35" class="edge">
<title>10,13,2,3,6&#45;&gt;11,13,2,5,7,8</title>
<path fill="none" stroke="black" d="M1342.9,-182.65C1354.74,-185.48 1367.48,-188.52 1379.87,-191.48"/>
<polygon fill="black" stroke="black" points="1379.17,-194.91 1389.71,-193.83 1380.8,-188.1 1379.17,-194.91"/>
<text text-anchor="middle" x="1366.23" y="-192.8" font-family="Times New Roman,serif" font-size="14.00">b</text>
</g>
<!-- 10,12,13,2,3,6&#45;&gt;11,12,13,2,5,7,8 -->
<g id="edge37" class="edge">
<title>10,12,13,2,3,6&#45;&gt;11,12,13,2,5,7,8</title>
<path fill="none" stroke="black" d="M1686.46,-221.4C1698.21,-223.85 1710.62,-226.44 1722.79,-228.99"/>
<polygon fill="black" stroke="black" points="1722.44,-232.49 1732.95,-231.11 1723.87,-225.64 1722.44,-232.49"/>
<text text-anchor="middle" x="1709.71" y="-230.8" font-family="Times New Roman,serif" font-size="14.00">b</text>
</g>
<!-- 10,12,13,2,3,6&#45;&gt;12,13,2,3,4 -->
<g id="edge38" class="edge">
<title>10,12,13,2,3,6&#45;&gt;12,13,2,3,4</title>
<path fill="none" stroke="black" d="M1646.41,-269.48C1674.46,-329.55 1727.02,-412 1804.26,-412 1804.26,-412 1804.26,-412 2137.39,-412 2172.17,-412 2210.71,-407.74 2242.12,-403.15"/>
<polygon fill="black" stroke="black" points="2242.69,-406.6 2252.06,-401.65 2241.65,-399.68 2242.69,-406.6"/>
<text text-anchor="middle" x="1978.15" y="-415.8" font-family="Times New Roman,serif" font-size="14.00">a</text>
</g>
<!-- 11,12,13,2,5,7,8&#45;&gt;10,12,13,2,3,6 -->
<g id="edge40" class="edge">
<title>11,12,13,2,5,7,8&#45;&gt;10,12,13,2,3,6</title>
<path fill="none" stroke="black" d="M1738.76,-214.15C1730.48,-211.22 1722.01,-208.71 1713.71,-207 1708.69,-205.96 1703.49,-205.21 1698.22,-204.67"/>
<polygon fill="black" stroke="black" points="1698.28,-201.17 1688.05,-203.91 1697.75,-208.15 1698.28,-201.17"/>
<text text-anchor="middle" x="1709.71" y="-210.8" font-family="Times New Roman,serif" font-size="14.00">a</text>
</g>
<!-- 12,13,2,8,9 -->
<g id="node24" class="node">
<title>12,13,2,8,9</title>
<ellipse fill="none" stroke="black" cx="1978.15" cy="-239" rx="51.2" ry="51.2"/>
<ellipse fill="none" stroke="black" cx="1978.15" cy="-239" rx="55.19" ry="55.19"/>
<text text-anchor="middle" x="1978.15" y="-235.3" font-family="Times New Roman,serif" font-size="14.00">12,13,2,8,9</text>
</g>
<!-- 11,12,13,2,5,7,8&#45;&gt;12,13,2,8,9 -->
<g id="edge39" class="edge">
<title>11,12,13,2,5,7,8&#45;&gt;12,13,2,8,9</title>
<path fill="none" stroke="black" d="M1879.22,-243.01C1890.29,-242.56 1901.65,-242.09 1912.52,-241.65"/>
<polygon fill="black" stroke="black" points="1912.93,-245.13 1922.78,-241.23 1912.64,-238.14 1912.93,-245.13"/>
<text text-anchor="middle" x="1900.8" y="-246.8" font-family="Times New Roman,serif" font-size="14.00">b</text>
</g>
<!-- 12,13,2,3,4&#45;&gt;12,13,2,3,4 -->
<g id="edge42" class="edge">
<title>12,13,2,3,4&#45;&gt;12,13,2,3,4</title>
<path fill="none" stroke="black" d="M2290.62,-445.07C2292.13,-456.8 2297.48,-465.35 2306.68,-465.35 2313,-465.35 2317.5,-461.31 2320.19,-454.97"/>
<polygon fill="black" stroke="black" points="2323.64,-455.63 2322.73,-445.07 2316.86,-453.89 2323.64,-455.63"/>
<text text-anchor="middle" x="2306.68" y="-469.15" font-family="Times New Roman,serif" font-size="14.00">a</text>
</g>
<!-- 12,13,2,5,8 -->
<g id="node25" class="node">
<title>12,13,2,5,8</title>
<ellipse fill="none" stroke="black" cx="2472.42" cy="-238" rx="51.2" ry="51.2"/>
<ellipse fill="none" stroke="black" cx="2472.42" cy="-238" rx="55.19" ry="55.19"/>
<text text-anchor="middle" x="2472.42" y="-234.3" font-family="Times New Roman,serif" font-size="14.00">12,13,2,5,8</text>
</g>
<!-- 12,13,2,3,4&#45;&gt;12,13,2,5,8 -->
<g id="edge41" class="edge">
<title>12,13,2,3,4&#45;&gt;12,13,2,5,8</title>
<path fill="none" stroke="black" d="M2347.73,-354.33C2370.81,-332.62 2399.95,-305.21 2424.15,-282.45"/>
<polygon fill="black" stroke="black" points="2426.6,-284.95 2431.49,-275.55 2421.81,-279.85 2426.6,-284.95"/>
<text text-anchor="middle" x="2395.07" y="-314.8" font-family="Times New Roman,serif" font-size="14.00">b</text>
</g>
<!-- 11,13,2,5,7,8&#45;&gt;13,2,8,9 -->
<g id="edge43" class="edge">
<title>11,13,2,5,7,8&#45;&gt;13,2,8,9</title>
<path fill="none" stroke="black" d="M1392.69,-232.08C1362.72,-242.78 1324.93,-253 1289.89,-253 854.06,-253 854.06,-253 854.06,-253 826.4,-253 796.28,-259.21 771.66,-265.98"/>
<polygon fill="black" stroke="black" points="770.48,-262.68 761.82,-268.79 772.4,-269.41 770.48,-262.68"/>
<text text-anchor="middle" x="1079.95" y="-256.8" font-family="Times New Roman,serif" font-size="14.00">b</text>
</g>
<!-- 11,13,2,5,7,8&#45;&gt;10,12,13,2,3,6 -->
<g id="edge44" class="edge">
<title>11,13,2,5,7,8&#45;&gt;10,12,13,2,3,6</title>
<path fill="none" stroke="black" d="M1512.18,-208C1522.65,-208 1533.65,-208 1544.46,-208"/>
<polygon fill="black" stroke="black" points="1544.73,-211.5 1554.73,-208 1544.73,-204.5 1544.73,-211.5"/>
<text text-anchor="middle" x="1533.42" y="-211.8" font-family="Times New Roman,serif" font-size="14.00">a</text>
</g>
<!-- 12,13,2,8,9&#45;&gt;12,13,2,8,9 -->
<g id="edge45" class="edge">
<title>12,13,2,8,9&#45;&gt;12,13,2,8,9</title>
<path fill="none" stroke="black" d="M1964.36,-292.73C1965.76,-304.12 1970.35,-312.35 1978.15,-312.35 1983.38,-312.35 1987.18,-308.63 1989.53,-302.74"/>
<polygon fill="black" stroke="black" points="1993,-303.27 1991.94,-292.73 1986.19,-301.63 1993,-303.27"/>
<text text-anchor="middle" x="1978.15" y="-316.15" font-family="Times New Roman,serif" font-size="14.00">b</text>
</g>
<!-- 10,12,13,2,3 -->
<g id="node26" class="node">
<title>10,12,13,2,3</title>
<ellipse fill="none" stroke="black" cx="2136.39" cy="-324" rx="55.8" ry="55.8"/>
<ellipse fill="none" stroke="black" cx="2136.39" cy="-324" rx="59.79" ry="59.79"/>
<text text-anchor="middle" x="2136.39" y="-320.3" font-family="Times New Roman,serif" font-size="14.00">10,12,13,2,3</text>
</g>
<!-- 12,13,2,8,9&#45;&gt;10,12,13,2,3 -->
<g id="edge46" class="edge">
<title>12,13,2,8,9&#45;&gt;10,12,13,2,3</title>
<path fill="none" stroke="black" d="M2027.3,-265.2C2042.14,-273.27 2058.68,-282.27 2074.27,-290.75"/>
<polygon fill="black" stroke="black" points="2072.86,-293.97 2083.32,-295.68 2076.21,-287.82 2072.86,-293.97"/>
<text text-anchor="middle" x="2054.99" y="-285.8" font-family="Times New Roman,serif" font-size="14.00">a</text>
</g>
<!-- 12,13,2,5,8&#45;&gt;10,12,13,2,3,6 -->
<g id="edge48" class="edge">
<title>12,13,2,5,8&#45;&gt;10,12,13,2,3,6</title>
<path fill="none" stroke="black" d="M2453.21,-185.76C2437.53,-148.12 2411.32,-98.89 2373.07,-69 2349.22,-50.37 2337.94,-50 2307.68,-50 1804.26,-50 1804.26,-50 1804.26,-50 1744.32,-50 1694.49,-99.48 1662.22,-143.07"/>
<polygon fill="black" stroke="black" points="1659.22,-141.25 1656.2,-151.4 1664.89,-145.34 1659.22,-141.25"/>
<text text-anchor="middle" x="2054.99" y="-53.8" font-family="Times New Roman,serif" font-size="14.00">a</text>
</g>
<!-- 12,13,2,5,8&#45;&gt;12,13,2,8,9 -->
<g id="edge47" class="edge">
<title>12,13,2,5,8&#45;&gt;12,13,2,8,9</title>
<path fill="none" stroke="black" d="M2416.74,-237.53C2364.69,-237.14 2284.15,-236.7 2214.28,-237 2156.66,-237.25 2091.1,-237.83 2043.87,-238.3"/>
<polygon fill="black" stroke="black" points="2043.75,-234.8 2033.78,-238.4 2043.82,-241.8 2043.75,-234.8"/>
<text text-anchor="middle" x="2218.28" y="-240.8" font-family="Times New Roman,serif" font-size="14.00">b</text>
</g>
<!-- 10,12,13,2,3&#45;&gt;12,13,2,3,4 -->
<g id="edge50" class="edge">
<title>10,12,13,2,3&#45;&gt;12,13,2,3,4</title>
<path fill="none" stroke="black" d="M2192.49,-346.27C2209.48,-353.13 2228.26,-360.72 2245.57,-367.71"/>
<polygon fill="black" stroke="black" points="2244.42,-371.02 2255.01,-371.53 2247.04,-364.53 2244.42,-371.02"/>
<text text-anchor="middle" x="2218.28" y="-361.8" font-family="Times New Roman,serif" font-size="14.00">a</text>
</g>
<!-- 11,12,13,2,5,8 -->
<g id="node27" class="node">
<title>11,12,13,2,5,8</title>
<ellipse fill="none" stroke="black" cx="2306.68" cy="-144" rx="62.3" ry="62.3"/>
<ellipse fill="none" stroke="black" cx="2306.68" cy="-144" rx="66.29" ry="66.29"/>
<text text-anchor="middle" x="2306.68" y="-140.3" font-family="Times New Roman,serif" font-size="14.00">11,12,13,2,5,8</text>
</g>
<!-- 10,12,13,2,3&#45;&gt;11,12,13,2,5,8 -->
<g id="edge49" class="edge">
<title>10,12,13,2,3&#45;&gt;11,12,13,2,5,8</title>
<path fill="none" stroke="black" d="M2185.5,-288.97C2198.03,-278.92 2211.13,-267.55 2222.28,-256 2236.68,-241.09 2250.76,-223.64 2263.13,-207.02"/>
<polygon fill="black" stroke="black" points="2265.97,-209.07 2269.07,-198.94 2260.33,-204.93 2265.97,-209.07"/>
<text text-anchor="middle" x="2218.28" y="-266.8" font-family="Times New Roman,serif" font-size="14.00">b</text>
</g>
<!-- 11,12,13,2,5,8&#45;&gt;10,12,13,2,3,6 -->
<g id="edge52" class="edge">
<title>11,12,13,2,5,8&#45;&gt;10,12,13,2,3,6</title>
<path fill="none" stroke="black" d="M2240.14,-144C2209.01,-144 2171.28,-144 2137.39,-144 1804.26,-144 1804.26,-144 1804.26,-144 1764.62,-144 1722.74,-157.68 1689.17,-172.4"/>
<polygon fill="black" stroke="black" points="1687.6,-169.26 1679.93,-176.56 1690.48,-175.64 1687.6,-169.26"/>
<text text-anchor="middle" x="1978.15" y="-147.8" font-family="Times New Roman,serif" font-size="14.00">a</text>
</g>
<!-- 11,12,13,2,5,8&#45;&gt;12,13,2,8,9 -->
<g id="edge51" class="edge">
<title>11,12,13,2,5,8&#45;&gt;12,13,2,8,9</title>
<path fill="none" stroke="black" d="M2242.2,-160.55C2196.06,-172.79 2132.2,-190.2 2076.49,-207 2064.85,-210.51 2052.48,-214.43 2040.61,-218.29"/>
<polygon fill="black" stroke="black" points="2039.2,-215.07 2030.78,-221.5 2041.37,-221.72 2039.2,-215.07"/>
<text text-anchor="middle" x="2136.39" y="-210.8" font-family="Times New Roman,serif" font-size="14.00">b</text>
</g>
</g>
</svg>
