<?xml version="1.0" encoding="UTF-8" standalone="no"?>
<!DOCTYPE svg PUBLIC "-//W3C//DTD SVG 1.1//EN"
 "http://www.w3.org/Graphics/SVG/1.1/DTD/svg11.dtd">
<!-- Generated by graphviz version 3.0.0 (20220226.1711)
 -->
<!-- Title: NFA to DFA Pages: 1 -->
<svg width="267pt" height="114pt"
 viewBox="0.00 0.00 266.80 114.20" xmlns="http://www.w3.org/2000/svg" xmlns:xlink="http://www.w3.org/1999/xlink">
<g id="graph0" class="graph" transform="scale(1 1) rotate(0) translate(4 110.2)">
<title>NFA to DFA</title>
<polygon fill="white" stroke="transparent" points="-4,4 -4,-110.2 262.8,-110.2 262.8,4 -4,4"/>
<!-- 0 -->
<g id="node1" class="node">
<title>0</title>
<ellipse fill="black" stroke="black" cx="1.8" cy="-53.1" rx="1.8" ry="1.8"/>
</g>
<!-- 1 -->
<g id="node2" class="node">
<title>1</title>
<ellipse fill="none" stroke="black" cx="58.6" cy="-53.1" rx="18" ry="18"/>
<text text-anchor="middle" x="58.6" y="-49.4" font-family="Times New Roman,serif" font-size="14.00">1</text>
</g>
<!-- 0&#45;&gt;1 -->
<g id="edge1" class="edge">
<title>0&#45;&gt;1</title>
<path fill="none" stroke="black" d="M3.75,-53.1C7.11,-53.1 18.87,-53.1 30.55,-53.1"/>
<polygon fill="black" stroke="black" points="30.58,-56.6 40.58,-53.1 30.58,-49.6 30.58,-56.6"/>
</g>
<!-- 2 -->
<g id="node3" class="node">
<title>2</title>
<ellipse fill="none" stroke="black" cx="152.6" cy="-53.1" rx="18" ry="18"/>
<text text-anchor="middle" x="152.6" y="-49.4" font-family="Times New Roman,serif" font-size="14.00">2</text>
</g>
<!-- 1&#45;&gt;2 -->
<g id="edge2" class="edge">
<title>1&#45;&gt;2</title>
<path fill="none" stroke="black" d="M76.9,-53.1C90.14,-53.1 108.65,-53.1 123.94,-53.1"/>
<polygon fill="black" stroke="black" points="124.37,-56.6 134.37,-53.1 124.37,-49.6 124.37,-56.6"/>
<text text-anchor="middle" x="105.6" y="-56.9" font-family="Times New Roman,serif" font-size="14.00">b, a</text>
</g>
<!-- 2,8 -->
<g id="node4" class="node">
<title>2,8</title>
<ellipse fill="none" stroke="black" cx="236.7" cy="-84.1" rx="22.2" ry="22.2"/>
<text text-anchor="middle" x="236.7" y="-80.4" font-family="Times New Roman,serif" font-size="14.00">2,8</text>
</g>
<!-- 2&#45;&gt;2,8 -->
<g id="edge3" class="edge">
<title>2&#45;&gt;2,8</title>
<path fill="none" stroke="black" d="M169.82,-59.22C180.22,-63.15 194.02,-68.36 206.31,-73"/>
<polygon fill="black" stroke="black" points="205.15,-76.3 215.74,-76.56 207.62,-69.75 205.15,-76.3"/>
<text text-anchor="middle" x="192.6" y="-71.9" font-family="Times New Roman,serif" font-size="14.00">b</text>
</g>
<!-- 2,3 -->
<g id="node5" class="node">
<title>2,3</title>
<ellipse fill="none" stroke="black" cx="236.7" cy="-22.1" rx="22.2" ry="22.2"/>
<text text-anchor="middle" x="236.7" y="-18.4" font-family="Times New Roman,serif" font-size="14.00">2,3</text>
</g>
<!-- 2&#45;&gt;2,3 -->
<g id="edge4" class="edge">
<title>2&#45;&gt;2,3</title>
<path fill="none" stroke="black" d="M169.82,-46.97C180.22,-43.05 194.02,-37.84 206.31,-33.2"/>
<polygon fill="black" stroke="black" points="207.62,-36.44 215.74,-29.64 205.15,-29.89 207.62,-36.44"/>
<text text-anchor="middle" x="192.6" y="-42.9" font-family="Times New Roman,serif" font-size="14.00">a</text>
</g>
</g>
</svg>
