<?xml version="1.0" encoding="UTF-8" standalone="no"?>
<!DOCTYPE svg PUBLIC "-//W3C//DTD SVG 1.1//EN"
 "http://www.w3.org/Graphics/SVG/1.1/DTD/svg11.dtd">
<!-- Generated by graphviz version 3.0.0 (20220226.1711)
 -->
<!-- Title: NFA to DFA Pages: 1 -->
<svg width="509pt" height="363pt"
 viewBox="0.00 0.00 509.48 362.89" xmlns="http://www.w3.org/2000/svg" xmlns:xlink="http://www.w3.org/1999/xlink">
<g id="graph0" class="graph" transform="scale(1 1) rotate(0) translate(4 358.89)">
<title>NFA to DFA</title>
<polygon fill="white" stroke="transparent" points="-4,4 -4,-358.89 505.48,-358.89 505.48,4 -4,4"/>
<!-- 0 -->
<g id="node1" class="node">
<title>0</title>
<ellipse fill="black" stroke="black" cx="1.8" cy="-143.6" rx="1.8" ry="1.8"/>
</g>
<!-- 1 -->
<g id="node2" class="node">
<title>1</title>
<ellipse fill="none" stroke="black" cx="58.6" cy="-143.6" rx="18" ry="18"/>
<text text-anchor="middle" x="58.6" y="-139.9" font-family="Times New Roman,serif" font-size="14.00">1</text>
</g>
<!-- 0&#45;&gt;1 -->
<g id="edge1" class="edge">
<title>0&#45;&gt;1</title>
<path fill="none" stroke="black" d="M3.75,-143.6C7.11,-143.6 18.87,-143.6 30.55,-143.6"/>
<polygon fill="black" stroke="black" points="30.58,-147.1 40.58,-143.6 30.58,-140.1 30.58,-147.1"/>
</g>
<!-- 2 -->
<g id="node3" class="node">
<title>2</title>
<ellipse fill="none" stroke="black" cx="152.6" cy="-143.6" rx="18" ry="18"/>
<text text-anchor="middle" x="152.6" y="-139.9" font-family="Times New Roman,serif" font-size="14.00">2</text>
</g>
<!-- 1&#45;&gt;2 -->
<g id="edge2" class="edge">
<title>1&#45;&gt;2</title>
<path fill="none" stroke="black" d="M76.9,-143.6C90.14,-143.6 108.65,-143.6 123.94,-143.6"/>
<polygon fill="black" stroke="black" points="124.37,-147.1 134.37,-143.6 124.37,-140.1 124.37,-147.1"/>
<text text-anchor="middle" x="105.6" y="-147.4" font-family="Times New Roman,serif" font-size="14.00">b, a</text>
</g>
<!-- 2,8 -->
<g id="node4" class="node">
<title>2,8</title>
<ellipse fill="none" stroke="black" cx="236.7" cy="-183.6" rx="22.2" ry="22.2"/>
<text text-anchor="middle" x="236.7" y="-179.9" font-family="Times New Roman,serif" font-size="14.00">2,8</text>
</g>
<!-- 2&#45;&gt;2,8 -->
<g id="edge3" class="edge">
<title>2&#45;&gt;2,8</title>
<path fill="none" stroke="black" d="M169.04,-151.12C179.78,-156.35 194.4,-163.48 207.21,-169.72"/>
<polygon fill="black" stroke="black" points="206.05,-173.04 216.57,-174.28 209.11,-166.75 206.05,-173.04"/>
<text text-anchor="middle" x="192.6" y="-167.4" font-family="Times New Roman,serif" font-size="14.00">b</text>
</g>
<!-- 2,3 -->
<g id="node5" class="node">
<title>2,3</title>
<ellipse fill="none" stroke="black" cx="236.7" cy="-103.6" rx="22.2" ry="22.2"/>
<text text-anchor="middle" x="236.7" y="-99.9" font-family="Times New Roman,serif" font-size="14.00">2,3</text>
</g>
<!-- 2&#45;&gt;2,3 -->
<g id="edge4" class="edge">
<title>2&#45;&gt;2,3</title>
<path fill="none" stroke="black" d="M169.04,-136.07C179.78,-130.84 194.4,-123.72 207.21,-117.48"/>
<polygon fill="black" stroke="black" points="209.11,-120.44 216.57,-112.92 206.05,-114.15 209.11,-120.44"/>
<text text-anchor="middle" x="192.6" y="-130.4" font-family="Times New Roman,serif" font-size="14.00">a</text>
</g>
<!-- 2,8,9 -->
<g id="node6" class="node">
<title>2,8,9</title>
<ellipse fill="none" stroke="black" cx="335.94" cy="-263.6" rx="28.7" ry="28.7"/>
<text text-anchor="middle" x="335.94" y="-259.9" font-family="Times New Roman,serif" font-size="14.00">2,8,9</text>
</g>
<!-- 2,8&#45;&gt;2,8,9 -->
<g id="edge5" class="edge">
<title>2,8&#45;&gt;2,8,9</title>
<path fill="none" stroke="black" d="M254.19,-197.17C268.16,-208.66 288.54,-225.42 305.33,-239.23"/>
<polygon fill="black" stroke="black" points="303.29,-242.09 313.24,-245.74 307.74,-236.68 303.29,-242.09"/>
<text text-anchor="middle" x="280.8" y="-225.4" font-family="Times New Roman,serif" font-size="14.00">b</text>
</g>
<!-- 10,2,3 -->
<g id="node7" class="node">
<title>10,2,3</title>
<ellipse fill="none" stroke="black" cx="335.94" cy="-183.6" rx="33.29" ry="33.29"/>
<text text-anchor="middle" x="335.94" y="-179.9" font-family="Times New Roman,serif" font-size="14.00">10,2,3</text>
</g>
<!-- 2,8&#45;&gt;10,2,3 -->
<g id="edge6" class="edge">
<title>2,8&#45;&gt;10,2,3</title>
<path fill="none" stroke="black" d="M258.8,-183.6C268.74,-183.6 280.96,-183.6 292.68,-183.6"/>
<polygon fill="black" stroke="black" points="292.78,-187.1 302.78,-183.6 292.78,-180.1 292.78,-187.1"/>
<text text-anchor="middle" x="280.8" y="-187.4" font-family="Times New Roman,serif" font-size="14.00">a</text>
</g>
<!-- 2,5,8 -->
<g id="node8" class="node">
<title>2,5,8</title>
<ellipse fill="none" stroke="black" cx="335.94" cy="-103.6" rx="28.7" ry="28.7"/>
<text text-anchor="middle" x="335.94" y="-99.9" font-family="Times New Roman,serif" font-size="14.00">2,5,8</text>
</g>
<!-- 2,3&#45;&gt;2,5,8 -->
<g id="edge7" class="edge">
<title>2,3&#45;&gt;2,5,8</title>
<path fill="none" stroke="black" d="M258.8,-103.6C269.99,-103.6 284.09,-103.6 297.11,-103.6"/>
<polygon fill="black" stroke="black" points="297.23,-107.1 307.23,-103.6 297.23,-100.1 297.23,-107.1"/>
<text text-anchor="middle" x="280.8" y="-107.4" font-family="Times New Roman,serif" font-size="14.00">b</text>
</g>
<!-- 2,3,4 -->
<g id="node9" class="node">
<title>2,3,4</title>
<ellipse fill="none" stroke="black" cx="335.94" cy="-28.6" rx="28.7" ry="28.7"/>
<text text-anchor="middle" x="335.94" y="-24.9" font-family="Times New Roman,serif" font-size="14.00">2,3,4</text>
</g>
<!-- 2,3&#45;&gt;2,3,4 -->
<g id="edge8" class="edge">
<title>2,3&#45;&gt;2,3,4</title>
<path fill="none" stroke="black" d="M254.64,-90.53C268.35,-79.95 288.03,-64.78 304.47,-52.1"/>
<polygon fill="black" stroke="black" points="306.94,-54.61 312.72,-45.73 302.67,-49.07 306.94,-54.61"/>
<text text-anchor="middle" x="280.8" y="-77.4" font-family="Times New Roman,serif" font-size="14.00">a</text>
</g>
<!-- 13,2,8,9 -->
<g id="node10" class="node">
<title>13,2,8,9</title>
<ellipse fill="none" stroke="black" cx="457.29" cy="-314.6" rx="40.09" ry="40.09"/>
<text text-anchor="middle" x="457.29" y="-310.9" font-family="Times New Roman,serif" font-size="14.00">13,2,8,9</text>
</g>
<!-- 2,8,9&#45;&gt;13,2,8,9 -->
<g id="edge9" class="edge">
<title>2,8,9&#45;&gt;13,2,8,9</title>
<path fill="none" stroke="black" d="M362.55,-274.54C376.52,-280.51 394.23,-288.08 410.49,-295.03"/>
<polygon fill="black" stroke="black" points="409.29,-298.32 419.86,-299.03 412.04,-291.88 409.29,-298.32"/>
<text text-anchor="middle" x="391.09" y="-290.4" font-family="Times New Roman,serif" font-size="14.00">b</text>
</g>
<!-- 10,13,2,3 -->
<g id="node11" class="node">
<title>10,13,2,3</title>
<ellipse fill="none" stroke="black" cx="457.29" cy="-212.6" rx="44.39" ry="44.39"/>
<text text-anchor="middle" x="457.29" y="-208.9" font-family="Times New Roman,serif" font-size="14.00">10,13,2,3</text>
</g>
<!-- 2,8,9&#45;&gt;10,13,2,3 -->
<g id="edge10" class="edge">
<title>2,8,9&#45;&gt;10,13,2,3</title>
<path fill="none" stroke="black" d="M362.55,-252.66C375.48,-247.13 391.62,-240.23 406.85,-233.73"/>
<polygon fill="black" stroke="black" points="408.35,-236.89 416.17,-229.74 405.6,-230.45 408.35,-236.89"/>
<text text-anchor="middle" x="391.09" y="-245.4" font-family="Times New Roman,serif" font-size="14.00">a</text>
</g>
</g>
</svg>
