<?xml version="1.0" encoding="UTF-8" standalone="no"?>
<!DOCTYPE svg PUBLIC "-//W3C//DTD SVG 1.1//EN"
 "http://www.w3.org/Graphics/SVG/1.1/DTD/svg11.dtd">
<!-- Generated by graphviz version 3.0.0 (20220226.1711)
 -->
<!-- Title: NFA to DFA Pages: 1 -->
<svg width="509pt" height="387pt"
 viewBox="0.00 0.00 509.48 386.79" xmlns="http://www.w3.org/2000/svg" xmlns:xlink="http://www.w3.org/1999/xlink">
<g id="graph0" class="graph" transform="scale(1 1) rotate(0) translate(4 382.79)">
<title>NFA to DFA</title>
<polygon fill="white" stroke="transparent" points="-4,4 -4,-382.79 505.48,-382.79 505.48,4 -4,4"/>
<!-- 0 -->
<g id="node1" class="node">
<title>0</title>
<ellipse fill="black" stroke="black" cx="1.8" cy="-103.6" rx="1.8" ry="1.8"/>
</g>
<!-- 1 -->
<g id="node2" class="node">
<title>1</title>
<ellipse fill="none" stroke="black" cx="58.6" cy="-103.6" rx="18" ry="18"/>
<text text-anchor="middle" x="58.6" y="-99.9" font-family="Times New Roman,serif" font-size="14.00">1</text>
</g>
<!-- 0&#45;&gt;1 -->
<g id="edge1" class="edge">
<title>0&#45;&gt;1</title>
<path fill="none" stroke="black" d="M3.75,-103.6C7.11,-103.6 18.87,-103.6 30.55,-103.6"/>
<polygon fill="black" stroke="black" points="30.58,-107.1 40.58,-103.6 30.58,-100.1 30.58,-107.1"/>
</g>
<!-- 2 -->
<g id="node3" class="node">
<title>2</title>
<ellipse fill="none" stroke="black" cx="152.6" cy="-103.6" rx="18" ry="18"/>
<text text-anchor="middle" x="152.6" y="-99.9" font-family="Times New Roman,serif" font-size="14.00">2</text>
</g>
<!-- 1&#45;&gt;2 -->
<g id="edge2" class="edge">
<title>1&#45;&gt;2</title>
<path fill="none" stroke="black" d="M76.9,-103.6C90.14,-103.6 108.65,-103.6 123.94,-103.6"/>
<polygon fill="black" stroke="black" points="124.37,-107.1 134.37,-103.6 124.37,-100.1 124.37,-107.1"/>
<text text-anchor="middle" x="105.6" y="-107.4" font-family="Times New Roman,serif" font-size="14.00">b, a</text>
</g>
<!-- 2,8 -->
<g id="node4" class="node">
<title>2,8</title>
<ellipse fill="none" stroke="black" cx="236.7" cy="-143.6" rx="22.2" ry="22.2"/>
<text text-anchor="middle" x="236.7" y="-139.9" font-family="Times New Roman,serif" font-size="14.00">2,8</text>
</g>
<!-- 2&#45;&gt;2,8 -->
<g id="edge3" class="edge">
<title>2&#45;&gt;2,8</title>
<path fill="none" stroke="black" d="M169.04,-111.12C179.78,-116.35 194.4,-123.48 207.21,-129.72"/>
<polygon fill="black" stroke="black" points="206.05,-133.04 216.57,-134.28 209.11,-126.75 206.05,-133.04"/>
<text text-anchor="middle" x="192.6" y="-127.4" font-family="Times New Roman,serif" font-size="14.00">b</text>
</g>
<!-- 2,3 -->
<g id="node5" class="node">
<title>2,3</title>
<ellipse fill="none" stroke="black" cx="236.7" cy="-63.6" rx="22.2" ry="22.2"/>
<text text-anchor="middle" x="236.7" y="-59.9" font-family="Times New Roman,serif" font-size="14.00">2,3</text>
</g>
<!-- 2&#45;&gt;2,3 -->
<g id="edge4" class="edge">
<title>2&#45;&gt;2,3</title>
<path fill="none" stroke="black" d="M169.04,-96.07C179.78,-90.84 194.4,-83.72 207.21,-77.48"/>
<polygon fill="black" stroke="black" points="209.11,-80.44 216.57,-72.92 206.05,-74.15 209.11,-80.44"/>
<text text-anchor="middle" x="192.6" y="-89.4" font-family="Times New Roman,serif" font-size="14.00">a</text>
</g>
<!-- 2,8,9 -->
<g id="node6" class="node">
<title>2,8,9</title>
<ellipse fill="none" stroke="black" cx="335.94" cy="-232.6" rx="28.7" ry="28.7"/>
<text text-anchor="middle" x="335.94" y="-228.9" font-family="Times New Roman,serif" font-size="14.00">2,8,9</text>
</g>
<!-- 2,8&#45;&gt;2,8,9 -->
<g id="edge5" class="edge">
<title>2,8&#45;&gt;2,8,9</title>
<path fill="none" stroke="black" d="M253.76,-158.29C268.07,-171.4 289.36,-190.88 306.54,-206.6"/>
<polygon fill="black" stroke="black" points="304.37,-209.36 314.11,-213.53 309.09,-204.2 304.37,-209.36"/>
<text text-anchor="middle" x="280.8" y="-188.4" font-family="Times New Roman,serif" font-size="14.00">b</text>
</g>
<!-- 10,2,3 -->
<g id="node7" class="node">
<title>10,2,3</title>
<ellipse fill="none" stroke="black" cx="335.94" cy="-143.6" rx="33.29" ry="33.29"/>
<text text-anchor="middle" x="335.94" y="-139.9" font-family="Times New Roman,serif" font-size="14.00">10,2,3</text>
</g>
<!-- 2,8&#45;&gt;10,2,3 -->
<g id="edge6" class="edge">
<title>2,8&#45;&gt;10,2,3</title>
<path fill="none" stroke="black" d="M258.8,-143.6C268.74,-143.6 280.96,-143.6 292.68,-143.6"/>
<polygon fill="black" stroke="black" points="292.78,-147.1 302.78,-143.6 292.78,-140.1 292.78,-147.1"/>
<text text-anchor="middle" x="280.8" y="-147.4" font-family="Times New Roman,serif" font-size="14.00">a</text>
</g>
<!-- 2,5,8 -->
<g id="node8" class="node">
<title>2,5,8</title>
<ellipse fill="none" stroke="black" cx="335.94" cy="-63.6" rx="28.7" ry="28.7"/>
<text text-anchor="middle" x="335.94" y="-59.9" font-family="Times New Roman,serif" font-size="14.00">2,5,8</text>
</g>
<!-- 2,3&#45;&gt;2,5,8 -->
<g id="edge7" class="edge">
<title>2,3&#45;&gt;2,5,8</title>
<path fill="none" stroke="black" d="M258.8,-63.6C269.99,-63.6 284.09,-63.6 297.11,-63.6"/>
<polygon fill="black" stroke="black" points="297.23,-67.1 307.23,-63.6 297.23,-60.1 297.23,-67.1"/>
<text text-anchor="middle" x="280.8" y="-67.4" font-family="Times New Roman,serif" font-size="14.00">b</text>
</g>
<!-- 2,3,4 -->
<g id="node9" class="node">
<title>2,3,4</title>
<ellipse fill="none" stroke="black" cx="457.29" cy="-28.6" rx="28.7" ry="28.7"/>
<text text-anchor="middle" x="457.29" y="-24.9" font-family="Times New Roman,serif" font-size="14.00">2,3,4</text>
</g>
<!-- 2,3&#45;&gt;2,3,4 -->
<g id="edge8" class="edge">
<title>2,3&#45;&gt;2,3,4</title>
<path fill="none" stroke="black" d="M251.83,-47.12C263.89,-34.41 282.47,-17.82 302.8,-10.6 341.46,3.15 388.71,-5.95 420.49,-15.51"/>
<polygon fill="black" stroke="black" points="419.64,-18.91 430.23,-18.6 421.76,-12.24 419.64,-18.91"/>
<text text-anchor="middle" x="335.94" y="-14.4" font-family="Times New Roman,serif" font-size="14.00">a</text>
</g>
<!-- 13,2,8,9 -->
<g id="node10" class="node">
<title>13,2,8,9</title>
<ellipse fill="none" stroke="black" cx="457.29" cy="-232.6" rx="40.09" ry="40.09"/>
<text text-anchor="middle" x="457.29" y="-228.9" font-family="Times New Roman,serif" font-size="14.00">13,2,8,9</text>
</g>
<!-- 2,8,9&#45;&gt;13,2,8,9 -->
<g id="edge9" class="edge">
<title>2,8,9&#45;&gt;13,2,8,9</title>
<path fill="none" stroke="black" d="M364.62,-232.6C377.03,-232.6 392.07,-232.6 406.34,-232.6"/>
<polygon fill="black" stroke="black" points="406.55,-236.1 416.55,-232.6 406.55,-229.1 406.55,-236.1"/>
<text text-anchor="middle" x="391.09" y="-236.4" font-family="Times New Roman,serif" font-size="14.00">b</text>
</g>
<!-- 10,13,2,3 -->
<g id="node11" class="node">
<title>10,13,2,3</title>
<ellipse fill="none" stroke="black" cx="457.29" cy="-334.6" rx="44.39" ry="44.39"/>
<text text-anchor="middle" x="457.29" y="-330.9" font-family="Times New Roman,serif" font-size="14.00">10,13,2,3</text>
</g>
<!-- 2,8,9&#45;&gt;10,13,2,3 -->
<g id="edge10" class="edge">
<title>2,8,9&#45;&gt;10,13,2,3</title>
<path fill="none" stroke="black" d="M358.28,-250.83C374.07,-264.33 396.08,-283.14 415.24,-299.51"/>
<polygon fill="black" stroke="black" points="413.09,-302.28 422.97,-306.12 417.64,-296.96 413.09,-302.28"/>
<text text-anchor="middle" x="391.09" y="-283.4" font-family="Times New Roman,serif" font-size="14.00">a</text>
</g>
<!-- 10,2,3&#45;&gt;2,3,4 -->
<g id="edge12" class="edge">
<title>10,2,3&#45;&gt;2,3,4</title>
<path fill="none" stroke="black" d="M360.52,-120.88C380.12,-101.99 408.05,-75.08 428.69,-55.19"/>
<polygon fill="black" stroke="black" points="431.16,-57.67 435.94,-48.21 426.31,-52.63 431.16,-57.67"/>
<text text-anchor="middle" x="391.09" y="-96.4" font-family="Times New Roman,serif" font-size="14.00">a</text>
</g>
<!-- 11,2,5,8 -->
<g id="node12" class="node">
<title>11,2,5,8</title>
<ellipse fill="none" stroke="black" cx="457.29" cy="-133.6" rx="40.09" ry="40.09"/>
<text text-anchor="middle" x="457.29" y="-129.9" font-family="Times New Roman,serif" font-size="14.00">11,2,5,8</text>
</g>
<!-- 10,2,3&#45;&gt;11,2,5,8 -->
<g id="edge11" class="edge">
<title>10,2,3&#45;&gt;11,2,5,8</title>
<path fill="none" stroke="black" d="M369.24,-140.89C380.79,-139.92 394.08,-138.81 406.75,-137.75"/>
<polygon fill="black" stroke="black" points="407.05,-141.24 416.73,-136.91 406.47,-134.26 407.05,-141.24"/>
<text text-anchor="middle" x="391.09" y="-142.4" font-family="Times New Roman,serif" font-size="14.00">b</text>
</g>
</g>
</svg>
