<?xml version="1.0" encoding="UTF-8" standalone="no"?>
<!DOCTYPE svg PUBLIC "-//W3C//DTD SVG 1.1//EN"
 "http://www.w3.org/Graphics/SVG/1.1/DTD/svg11.dtd">
<!-- Generated by graphviz version 3.0.0 (20220226.1711)
 -->
<!-- Title: NFA to DFA Pages: 1 -->
<svg width="634pt" height="392pt"
 viewBox="0.00 0.00 634.08 392.49" xmlns="http://www.w3.org/2000/svg" xmlns:xlink="http://www.w3.org/1999/xlink">
<g id="graph0" class="graph" transform="scale(1 1) rotate(0) translate(4 388.49)">
<title>NFA to DFA</title>
<polygon fill="white" stroke="transparent" points="-4,4 -4,-388.49 630.08,-388.49 630.08,4 -4,4"/>
<!-- 0 -->
<g id="node1" class="node">
<title>0</title>
<ellipse fill="black" stroke="black" cx="1.8" cy="-198.2" rx="1.8" ry="1.8"/>
</g>
<!-- 1 -->
<g id="node2" class="node">
<title>1</title>
<ellipse fill="none" stroke="black" cx="58.6" cy="-198.2" rx="18" ry="18"/>
<text text-anchor="middle" x="58.6" y="-194.5" font-family="Times New Roman,serif" font-size="14.00">1</text>
</g>
<!-- 0&#45;&gt;1 -->
<g id="edge1" class="edge">
<title>0&#45;&gt;1</title>
<path fill="none" stroke="black" d="M3.75,-198.2C7.11,-198.2 18.87,-198.2 30.55,-198.2"/>
<polygon fill="black" stroke="black" points="30.58,-201.7 40.58,-198.2 30.58,-194.7 30.58,-201.7"/>
</g>
<!-- 2 -->
<g id="node3" class="node">
<title>2</title>
<ellipse fill="none" stroke="black" cx="152.6" cy="-198.2" rx="18" ry="18"/>
<text text-anchor="middle" x="152.6" y="-194.5" font-family="Times New Roman,serif" font-size="14.00">2</text>
</g>
<!-- 1&#45;&gt;2 -->
<g id="edge2" class="edge">
<title>1&#45;&gt;2</title>
<path fill="none" stroke="black" d="M76.9,-198.2C90.14,-198.2 108.65,-198.2 123.94,-198.2"/>
<polygon fill="black" stroke="black" points="124.37,-201.7 134.37,-198.2 124.37,-194.7 124.37,-201.7"/>
<text text-anchor="middle" x="105.6" y="-202" font-family="Times New Roman,serif" font-size="14.00">b, a</text>
</g>
<!-- 2,8 -->
<g id="node4" class="node">
<title>2,8</title>
<ellipse fill="none" stroke="black" cx="236.7" cy="-229.2" rx="22.2" ry="22.2"/>
<text text-anchor="middle" x="236.7" y="-225.5" font-family="Times New Roman,serif" font-size="14.00">2,8</text>
</g>
<!-- 2&#45;&gt;2,8 -->
<g id="edge3" class="edge">
<title>2&#45;&gt;2,8</title>
<path fill="none" stroke="black" d="M169.82,-204.32C180.22,-208.25 194.02,-213.46 206.31,-218.1"/>
<polygon fill="black" stroke="black" points="205.15,-221.4 215.74,-221.66 207.62,-214.85 205.15,-221.4"/>
<text text-anchor="middle" x="192.6" y="-218" font-family="Times New Roman,serif" font-size="14.00">b</text>
</g>
<!-- 2,3 -->
<g id="node5" class="node">
<title>2,3</title>
<ellipse fill="none" stroke="black" cx="236.7" cy="-167.2" rx="22.2" ry="22.2"/>
<text text-anchor="middle" x="236.7" y="-163.5" font-family="Times New Roman,serif" font-size="14.00">2,3</text>
</g>
<!-- 2&#45;&gt;2,3 -->
<g id="edge4" class="edge">
<title>2&#45;&gt;2,3</title>
<path fill="none" stroke="black" d="M169.82,-192.07C180.22,-188.15 194.02,-182.93 206.31,-178.29"/>
<polygon fill="black" stroke="black" points="207.62,-181.54 215.74,-174.73 205.15,-174.99 207.62,-181.54"/>
<text text-anchor="middle" x="192.6" y="-189" font-family="Times New Roman,serif" font-size="14.00">a</text>
</g>
<!-- 2,8,9 -->
<g id="node6" class="node">
<title>2,8,9</title>
<ellipse fill="none" stroke="black" cx="453.39" cy="-146.2" rx="28.7" ry="28.7"/>
<text text-anchor="middle" x="453.39" y="-142.5" font-family="Times New Roman,serif" font-size="14.00">2,8,9</text>
</g>
<!-- 2,8&#45;&gt;2,8,9 -->
<g id="edge5" class="edge">
<title>2,8&#45;&gt;2,8,9</title>
<path fill="none" stroke="black" d="M258.92,-227.39C285.54,-224.55 332.15,-217.69 369.09,-202.2 388.21,-194.18 407.54,-181.52 422.77,-170.26"/>
<polygon fill="black" stroke="black" points="424.92,-173.02 430.78,-164.19 420.69,-167.44 424.92,-173.02"/>
<text text-anchor="middle" x="335.94" y="-225" font-family="Times New Roman,serif" font-size="14.00">b</text>
</g>
<!-- 10,2,3 -->
<g id="node7" class="node">
<title>10,2,3</title>
<ellipse fill="none" stroke="black" cx="335.94" cy="-290.2" rx="33.29" ry="33.29"/>
<text text-anchor="middle" x="335.94" y="-286.5" font-family="Times New Roman,serif" font-size="14.00">10,2,3</text>
</g>
<!-- 2,8&#45;&gt;10,2,3 -->
<g id="edge6" class="edge">
<title>2,8&#45;&gt;10,2,3</title>
<path fill="none" stroke="black" d="M255.99,-240.67C268.02,-248.21 284.17,-258.35 298.73,-267.48"/>
<polygon fill="black" stroke="black" points="297.21,-270.66 307.54,-273.01 300.93,-264.73 297.21,-270.66"/>
<text text-anchor="middle" x="280.8" y="-261" font-family="Times New Roman,serif" font-size="14.00">a</text>
</g>
<!-- 2,5,8 -->
<g id="node8" class="node">
<title>2,5,8</title>
<ellipse fill="none" stroke="black" cx="335.94" cy="-108.2" rx="28.7" ry="28.7"/>
<text text-anchor="middle" x="335.94" y="-104.5" font-family="Times New Roman,serif" font-size="14.00">2,5,8</text>
</g>
<!-- 2,3&#45;&gt;2,5,8 -->
<g id="edge7" class="edge">
<title>2,3&#45;&gt;2,5,8</title>
<path fill="none" stroke="black" d="M255.99,-156.1C269.05,-148.17 286.97,-137.3 302.44,-127.91"/>
<polygon fill="black" stroke="black" points="304.48,-130.77 311.21,-122.59 300.85,-124.79 304.48,-130.77"/>
<text text-anchor="middle" x="280.8" y="-147" font-family="Times New Roman,serif" font-size="14.00">b</text>
</g>
<!-- 2,3,4 -->
<g id="node9" class="node">
<title>2,3,4</title>
<ellipse fill="none" stroke="black" cx="453.39" cy="-245.2" rx="28.7" ry="28.7"/>
<text text-anchor="middle" x="453.39" y="-241.5" font-family="Times New Roman,serif" font-size="14.00">2,3,4</text>
</g>
<!-- 2,3&#45;&gt;2,3,4 -->
<g id="edge8" class="edge">
<title>2,3&#45;&gt;2,3,4</title>
<path fill="none" stroke="black" d="M258.95,-167.49C285.59,-168.52 332.23,-172.49 369.09,-187.2 388.7,-195.02 408.2,-208.23 423.4,-220.06"/>
<polygon fill="black" stroke="black" points="421.38,-222.93 431.37,-226.45 425.76,-217.47 421.38,-222.93"/>
<text text-anchor="middle" x="335.94" y="-191" font-family="Times New Roman,serif" font-size="14.00">a</text>
</g>
<!-- 13,2,8,9 -->
<g id="node10" class="node">
<title>13,2,8,9</title>
<ellipse fill="none" stroke="black" cx="581.88" cy="-146.2" rx="40.09" ry="40.09"/>
<text text-anchor="middle" x="581.88" y="-142.5" font-family="Times New Roman,serif" font-size="14.00">13,2,8,9</text>
</g>
<!-- 2,8,9&#45;&gt;13,2,8,9 -->
<g id="edge9" class="edge">
<title>2,8,9&#45;&gt;13,2,8,9</title>
<path fill="none" stroke="black" d="M482.15,-146.2C496.48,-146.2 514.41,-146.2 531.04,-146.2"/>
<polygon fill="black" stroke="black" points="531.19,-149.7 541.19,-146.2 531.19,-142.7 531.19,-149.7"/>
<text text-anchor="middle" x="515.68" y="-150" font-family="Times New Roman,serif" font-size="14.00">b</text>
</g>
<!-- 10,13,2,3 -->
<g id="node11" class="node">
<title>10,13,2,3</title>
<ellipse fill="none" stroke="black" cx="581.88" cy="-44.2" rx="44.39" ry="44.39"/>
<text text-anchor="middle" x="581.88" y="-40.5" font-family="Times New Roman,serif" font-size="14.00">10,13,2,3</text>
</g>
<!-- 2,8,9&#45;&gt;10,13,2,3 -->
<g id="edge10" class="edge">
<title>2,8,9&#45;&gt;10,13,2,3</title>
<path fill="none" stroke="black" d="M476.13,-128.66C493.42,-114.72 518.11,-94.81 539.18,-77.82"/>
<polygon fill="black" stroke="black" points="541.47,-80.47 547.06,-71.47 537.08,-75.02 541.47,-80.47"/>
<text text-anchor="middle" x="515.68" y="-103" font-family="Times New Roman,serif" font-size="14.00">a</text>
</g>
<!-- 10,2,3&#45;&gt;2,3,4 -->
<g id="edge12" class="edge">
<title>10,2,3&#45;&gt;2,3,4</title>
<path fill="none" stroke="black" d="M366.97,-278.49C382.24,-272.54 400.9,-265.27 416.88,-259.04"/>
<polygon fill="black" stroke="black" points="418.38,-262.21 426.43,-255.32 415.84,-255.69 418.38,-262.21"/>
<text text-anchor="middle" x="391.09" y="-274" font-family="Times New Roman,serif" font-size="14.00">a</text>
</g>
<!-- 11,2,5,8 -->
<g id="node12" class="node">
<title>11,2,5,8</title>
<ellipse fill="none" stroke="black" cx="453.39" cy="-332.2" rx="40.09" ry="40.09"/>
<text text-anchor="middle" x="453.39" y="-328.5" font-family="Times New Roman,serif" font-size="14.00">11,2,5,8</text>
</g>
<!-- 10,2,3&#45;&gt;11,2,5,8 -->
<g id="edge11" class="edge">
<title>10,2,3&#45;&gt;11,2,5,8</title>
<path fill="none" stroke="black" d="M367.27,-301.23C378.99,-305.49 392.66,-310.47 405.57,-315.16"/>
<polygon fill="black" stroke="black" points="404.66,-318.56 415.25,-318.69 407.05,-311.98 404.66,-318.56"/>
<text text-anchor="middle" x="391.09" y="-315" font-family="Times New Roman,serif" font-size="14.00">b</text>
</g>
<!-- 2,5,8&#45;&gt;2,8,9 -->
<g id="edge13" class="edge">
<title>2,5,8&#45;&gt;2,8,9</title>
<path fill="none" stroke="black" d="M363.43,-116.91C379.12,-122.08 399.22,-128.7 416.34,-134.33"/>
<polygon fill="black" stroke="black" points="415.43,-137.72 426.02,-137.52 417.62,-131.07 415.43,-137.72"/>
<text text-anchor="middle" x="391.09" y="-131" font-family="Times New Roman,serif" font-size="14.00">b</text>
</g>
<!-- 10,2,3,6 -->
<g id="node13" class="node">
<title>10,2,3,6</title>
<ellipse fill="none" stroke="black" cx="453.39" cy="-59.2" rx="40.09" ry="40.09"/>
<text text-anchor="middle" x="453.39" y="-55.5" font-family="Times New Roman,serif" font-size="14.00">10,2,3,6</text>
</g>
<!-- 2,5,8&#45;&gt;10,2,3,6 -->
<g id="edge14" class="edge">
<title>2,5,8&#45;&gt;10,2,3,6</title>
<path fill="none" stroke="black" d="M362.56,-97.32C375.42,-91.86 391.4,-85.08 406.3,-78.76"/>
<polygon fill="black" stroke="black" points="408.05,-81.82 415.89,-74.69 405.32,-75.37 408.05,-81.82"/>
<text text-anchor="middle" x="391.09" y="-91" font-family="Times New Roman,serif" font-size="14.00">a</text>
</g>
<!-- 13,2,5,8 -->
<g id="node14" class="node">
<title>13,2,5,8</title>
<ellipse fill="none" stroke="black" cx="581.88" cy="-344.2" rx="40.09" ry="40.09"/>
<text text-anchor="middle" x="581.88" y="-340.5" font-family="Times New Roman,serif" font-size="14.00">13,2,5,8</text>
</g>
<!-- 2,3,4&#45;&gt;13,2,5,8 -->
<g id="edge15" class="edge">
<title>2,3,4&#45;&gt;13,2,5,8</title>
<path fill="none" stroke="black" d="M476.42,-262.44C494.37,-276.49 520.17,-296.68 541.63,-313.48"/>
<polygon fill="black" stroke="black" points="539.59,-316.32 549.62,-319.73 543.9,-310.81 539.59,-316.32"/>
<text text-anchor="middle" x="515.68" y="-298" font-family="Times New Roman,serif" font-size="14.00">b</text>
</g>
<!-- 13,2,3,4 -->
<g id="node15" class="node">
<title>13,2,3,4</title>
<ellipse fill="none" stroke="black" cx="581.88" cy="-245.2" rx="40.09" ry="40.09"/>
<text text-anchor="middle" x="581.88" y="-241.5" font-family="Times New Roman,serif" font-size="14.00">13,2,3,4</text>
</g>
<!-- 2,3,4&#45;&gt;13,2,3,4 -->
<g id="edge16" class="edge">
<title>2,3,4&#45;&gt;13,2,3,4</title>
<path fill="none" stroke="black" d="M482.15,-245.2C496.48,-245.2 514.41,-245.2 531.04,-245.2"/>
<polygon fill="black" stroke="black" points="531.19,-248.7 541.19,-245.2 531.19,-241.7 531.19,-248.7"/>
<text text-anchor="middle" x="515.68" y="-249" font-family="Times New Roman,serif" font-size="14.00">a</text>
</g>
</g>
</svg>
