<?xml version="1.0" encoding="UTF-8" standalone="no"?>
<!DOCTYPE svg PUBLIC "-//W3C//DTD SVG 1.1//EN"
 "http://www.w3.org/Graphics/SVG/1.1/DTD/svg11.dtd">
<!-- Generated by graphviz version 3.0.0 (20220226.1711)
 -->
<!-- Title: NFA to DFA Pages: 1 -->
<svg width="2440pt" height="509pt"
 viewBox="0.00 0.00 2439.76 509.00" xmlns="http://www.w3.org/2000/svg" xmlns:xlink="http://www.w3.org/1999/xlink">
<g id="graph0" class="graph" transform="scale(1 1) rotate(0) translate(4 505)">
<title>NFA to DFA</title>
<polygon fill="white" stroke="transparent" points="-4,4 -4,-505 2435.76,-505 2435.76,4 -4,4"/>
<!-- 0 -->
<g id="node1" class="node">
<title>0</title>
<ellipse fill="black" stroke="black" cx="1.8" cy="-224" rx="1.8" ry="1.8"/>
</g>
<!-- 1 -->
<g id="node2" class="node">
<title>1</title>
<ellipse fill="none" stroke="black" cx="58.6" cy="-224" rx="18" ry="18"/>
<text text-anchor="middle" x="58.6" y="-220.3" font-family="Times New Roman,serif" font-size="14.00">1</text>
</g>
<!-- 0&#45;&gt;1 -->
<g id="edge1" class="edge">
<title>0&#45;&gt;1</title>
<path fill="none" stroke="black" d="M3.75,-224C7.11,-224 18.87,-224 30.55,-224"/>
<polygon fill="black" stroke="black" points="30.58,-227.5 40.58,-224 30.58,-220.5 30.58,-227.5"/>
</g>
<!-- 2 -->
<g id="node3" class="node">
<title>2</title>
<ellipse fill="none" stroke="black" cx="152.6" cy="-224" rx="18" ry="18"/>
<text text-anchor="middle" x="152.6" y="-220.3" font-family="Times New Roman,serif" font-size="14.00">2</text>
</g>
<!-- 1&#45;&gt;2 -->
<g id="edge2" class="edge">
<title>1&#45;&gt;2</title>
<path fill="none" stroke="black" d="M76.9,-224C90.14,-224 108.65,-224 123.94,-224"/>
<polygon fill="black" stroke="black" points="124.37,-227.5 134.37,-224 124.37,-220.5 124.37,-227.5"/>
<text text-anchor="middle" x="105.6" y="-227.8" font-family="Times New Roman,serif" font-size="14.00">b, a</text>
</g>
<!-- 2,8 -->
<g id="node4" class="node">
<title>2,8</title>
<ellipse fill="none" stroke="black" cx="236.7" cy="-286" rx="22.2" ry="22.2"/>
<text text-anchor="middle" x="236.7" y="-282.3" font-family="Times New Roman,serif" font-size="14.00">2,8</text>
</g>
<!-- 2&#45;&gt;2,8 -->
<g id="edge3" class="edge">
<title>2&#45;&gt;2,8</title>
<path fill="none" stroke="black" d="M167.53,-234.52C179.2,-243.33 196.16,-256.14 210.24,-266.77"/>
<polygon fill="black" stroke="black" points="208.48,-269.83 218.57,-273.06 212.69,-264.24 208.48,-269.83"/>
<text text-anchor="middle" x="192.6" y="-258.8" font-family="Times New Roman,serif" font-size="14.00">b</text>
</g>
<!-- 2,3 -->
<g id="node5" class="node">
<title>2,3</title>
<ellipse fill="none" stroke="black" cx="236.7" cy="-184" rx="22.2" ry="22.2"/>
<text text-anchor="middle" x="236.7" y="-180.3" font-family="Times New Roman,serif" font-size="14.00">2,3</text>
</g>
<!-- 2&#45;&gt;2,3 -->
<g id="edge4" class="edge">
<title>2&#45;&gt;2,3</title>
<path fill="none" stroke="black" d="M169.04,-216.48C179.78,-211.25 194.4,-204.12 207.21,-197.88"/>
<polygon fill="black" stroke="black" points="209.11,-200.85 216.57,-193.32 206.05,-194.55 209.11,-200.85"/>
<text text-anchor="middle" x="192.6" y="-210.8" font-family="Times New Roman,serif" font-size="14.00">a</text>
</g>
<!-- 2,8,9 -->
<g id="node6" class="node">
<title>2,8,9</title>
<ellipse fill="none" stroke="black" cx="584.48" cy="-354" rx="28.7" ry="28.7"/>
<text text-anchor="middle" x="584.48" y="-350.3" font-family="Times New Roman,serif" font-size="14.00">2,8,9</text>
</g>
<!-- 2,8&#45;&gt;2,8,9 -->
<g id="edge5" class="edge">
<title>2,8&#45;&gt;2,8,9</title>
<path fill="none" stroke="black" d="M252.8,-301.5C281.13,-329.32 345.49,-386.8 413.09,-408 447.27,-418.72 459.17,-417.58 493.68,-408 515.33,-401.99 536.98,-389.22 553.6,-377.6"/>
<polygon fill="black" stroke="black" points="555.75,-380.37 561.81,-371.67 551.65,-374.69 555.75,-380.37"/>
<text text-anchor="middle" x="391.09" y="-405.8" font-family="Times New Roman,serif" font-size="14.00">b</text>
</g>
<!-- 10,2,3 -->
<g id="node7" class="node">
<title>10,2,3</title>
<ellipse fill="none" stroke="black" cx="335.94" cy="-286" rx="33.29" ry="33.29"/>
<text text-anchor="middle" x="335.94" y="-282.3" font-family="Times New Roman,serif" font-size="14.00">10,2,3</text>
</g>
<!-- 2,8&#45;&gt;10,2,3 -->
<g id="edge6" class="edge">
<title>2,8&#45;&gt;10,2,3</title>
<path fill="none" stroke="black" d="M258.8,-286C268.74,-286 280.96,-286 292.68,-286"/>
<polygon fill="black" stroke="black" points="292.78,-289.5 302.78,-286 292.78,-282.5 292.78,-289.5"/>
<text text-anchor="middle" x="280.8" y="-289.8" font-family="Times New Roman,serif" font-size="14.00">a</text>
</g>
<!-- 2,5,8 -->
<g id="node8" class="node">
<title>2,5,8</title>
<ellipse fill="none" stroke="black" cx="335.94" cy="-184" rx="28.7" ry="28.7"/>
<text text-anchor="middle" x="335.94" y="-180.3" font-family="Times New Roman,serif" font-size="14.00">2,5,8</text>
</g>
<!-- 2,3&#45;&gt;2,5,8 -->
<g id="edge7" class="edge">
<title>2,3&#45;&gt;2,5,8</title>
<path fill="none" stroke="black" d="M258.8,-184C269.99,-184 284.09,-184 297.11,-184"/>
<polygon fill="black" stroke="black" points="297.23,-187.5 307.23,-184 297.23,-180.5 297.23,-187.5"/>
<text text-anchor="middle" x="280.8" y="-187.8" font-family="Times New Roman,serif" font-size="14.00">b</text>
</g>
<!-- 2,3,4 -->
<g id="node9" class="node">
<title>2,3,4</title>
<ellipse fill="none" stroke="black" cx="584.48" cy="-91" rx="28.7" ry="28.7"/>
<text text-anchor="middle" x="584.48" y="-87.3" font-family="Times New Roman,serif" font-size="14.00">2,3,4</text>
</g>
<!-- 2,3&#45;&gt;2,3,4 -->
<g id="edge8" class="edge">
<title>2,3&#45;&gt;2,3,4</title>
<path fill="none" stroke="black" d="M255.66,-172.11C268.44,-164.01 286.2,-153.45 302.8,-146 349.84,-124.88 362.69,-120.91 413.09,-110 458.04,-100.27 510.8,-95.36 545.57,-93"/>
<polygon fill="black" stroke="black" points="546,-96.48 555.75,-92.35 545.55,-89.5 546,-96.48"/>
<text text-anchor="middle" x="391.09" y="-119.8" font-family="Times New Roman,serif" font-size="14.00">a</text>
</g>
<!-- 13,2,8,9 -->
<g id="node10" class="node">
<title>13,2,8,9</title>
<ellipse fill="none" stroke="black" cx="715.57" cy="-258" rx="40.09" ry="40.09"/>
<text text-anchor="middle" x="715.57" y="-254.3" font-family="Times New Roman,serif" font-size="14.00">13,2,8,9</text>
</g>
<!-- 2,8,9&#45;&gt;13,2,8,9 -->
<g id="edge9" class="edge">
<title>2,8,9&#45;&gt;13,2,8,9</title>
<path fill="none" stroke="black" d="M607.97,-337.28C626.28,-323.65 652.61,-304.08 674.52,-287.79"/>
<polygon fill="black" stroke="black" points="676.74,-290.5 682.67,-281.72 672.56,-284.88 676.74,-290.5"/>
<text text-anchor="middle" x="653.27" y="-309.8" font-family="Times New Roman,serif" font-size="14.00">b</text>
</g>
<!-- 10,13,2,3 -->
<g id="node11" class="node">
<title>10,13,2,3</title>
<ellipse fill="none" stroke="black" cx="843.06" cy="-275" rx="44.39" ry="44.39"/>
<text text-anchor="middle" x="843.06" y="-271.3" font-family="Times New Roman,serif" font-size="14.00">10,13,2,3</text>
</g>
<!-- 2,8,9&#45;&gt;10,13,2,3 -->
<g id="edge10" class="edge">
<title>2,8,9&#45;&gt;10,13,2,3</title>
<path fill="none" stroke="black" d="M613.07,-356.34C647.64,-358.25 708.16,-358.18 755.87,-340 772.7,-333.58 789.05,-322.82 802.9,-311.88"/>
<polygon fill="black" stroke="black" points="805.23,-314.49 810.75,-305.45 800.8,-309.08 805.23,-314.49"/>
<text text-anchor="middle" x="715.57" y="-359.8" font-family="Times New Roman,serif" font-size="14.00">a</text>
</g>
<!-- 10,2,3&#45;&gt;2,3,4 -->
<g id="edge12" class="edge">
<title>10,2,3&#45;&gt;2,3,4</title>
<path fill="none" stroke="black" d="M362.68,-266.24C376.96,-255.94 395.38,-243.7 413.09,-235 446.99,-218.34 462.93,-229.94 493.68,-208 524.26,-186.18 549.28,-150.95 565.07,-124.84"/>
<polygon fill="black" stroke="black" points="568.21,-126.41 570.27,-116.02 562.18,-122.86 568.21,-126.41"/>
<text text-anchor="middle" x="453.39" y="-238.8" font-family="Times New Roman,serif" font-size="14.00">a</text>
</g>
<!-- 11,2,5,8 -->
<g id="node12" class="node">
<title>11,2,5,8</title>
<ellipse fill="none" stroke="black" cx="453.39" cy="-359" rx="40.09" ry="40.09"/>
<text text-anchor="middle" x="453.39" y="-355.3" font-family="Times New Roman,serif" font-size="14.00">11,2,5,8</text>
</g>
<!-- 10,2,3&#45;&gt;11,2,5,8 -->
<g id="edge11" class="edge">
<title>10,2,3&#45;&gt;11,2,5,8</title>
<path fill="none" stroke="black" d="M364.3,-303.3C377.9,-311.9 394.65,-322.49 409.87,-332.11"/>
<polygon fill="black" stroke="black" points="408.3,-335.26 418.62,-337.65 412.04,-329.35 408.3,-335.26"/>
<text text-anchor="middle" x="391.09" y="-326.8" font-family="Times New Roman,serif" font-size="14.00">b</text>
</g>
<!-- 2,5,8&#45;&gt;2,8,9 -->
<g id="edge13" class="edge">
<title>2,5,8&#45;&gt;2,8,9</title>
<path fill="none" stroke="black" d="M356.34,-204.63C371.01,-219.51 392.15,-239.46 413.09,-254 446.1,-276.92 458.93,-274.82 493.68,-295 513.6,-306.56 535.2,-320.7 552.22,-332.23"/>
<polygon fill="black" stroke="black" points="550.43,-335.25 560.67,-338 554.38,-329.47 550.43,-335.25"/>
<text text-anchor="middle" x="453.39" y="-298.8" font-family="Times New Roman,serif" font-size="14.00">b</text>
</g>
<!-- 10,2,3,6 -->
<g id="node13" class="node">
<title>10,2,3,6</title>
<ellipse fill="none" stroke="black" cx="453.39" cy="-159" rx="40.09" ry="40.09"/>
<text text-anchor="middle" x="453.39" y="-155.3" font-family="Times New Roman,serif" font-size="14.00">10,2,3,6</text>
</g>
<!-- 2,5,8&#45;&gt;10,2,3,6 -->
<g id="edge14" class="edge">
<title>2,5,8&#45;&gt;10,2,3,6</title>
<path fill="none" stroke="black" d="M364.01,-178.14C375.8,-175.59 389.99,-172.51 403.52,-169.58"/>
<polygon fill="black" stroke="black" points="404.65,-172.92 413.69,-167.38 403.17,-166.08 404.65,-172.92"/>
<text text-anchor="middle" x="391.09" y="-176.8" font-family="Times New Roman,serif" font-size="14.00">a</text>
</g>
<!-- 13,2,5,8 -->
<g id="node14" class="node">
<title>13,2,5,8</title>
<ellipse fill="none" stroke="black" cx="1118.25" cy="-76" rx="40.09" ry="40.09"/>
<text text-anchor="middle" x="1118.25" y="-72.3" font-family="Times New Roman,serif" font-size="14.00">13,2,5,8</text>
</g>
<!-- 2,3,4&#45;&gt;13,2,5,8 -->
<g id="edge15" class="edge">
<title>2,3,4&#45;&gt;13,2,5,8</title>
<path fill="none" stroke="black" d="M613.06,-87C624.27,-85.51 637.37,-83.96 649.27,-83 827.73,-68.68 872.92,-72.74 1051.95,-72 1055.51,-71.99 1056.4,-71.88 1059.95,-72 1062.48,-72.09 1065.07,-72.2 1067.68,-72.32"/>
<polygon fill="black" stroke="black" points="1067.64,-75.83 1077.81,-72.88 1068.02,-68.84 1067.64,-75.83"/>
<text text-anchor="middle" x="843.06" y="-77.8" font-family="Times New Roman,serif" font-size="14.00">b</text>
</g>
<!-- 13,2,3,4 -->
<g id="node15" class="node">
<title>13,2,3,4</title>
<ellipse fill="none" stroke="black" cx="982.61" cy="-144" rx="40.09" ry="40.09"/>
<text text-anchor="middle" x="982.61" y="-140.3" font-family="Times New Roman,serif" font-size="14.00">13,2,3,4</text>
</g>
<!-- 2,3,4&#45;&gt;13,2,3,4 -->
<g id="edge16" class="edge">
<title>2,3,4&#45;&gt;13,2,3,4</title>
<path fill="none" stroke="black" d="M613.12,-87.62C626.48,-86.46 642.72,-85.73 657.27,-87 756,-95.61 869.74,-118.7 932.89,-132.7"/>
<polygon fill="black" stroke="black" points="932.43,-136.19 942.95,-134.96 933.96,-129.36 932.43,-136.19"/>
<text text-anchor="middle" x="777.37" y="-106.8" font-family="Times New Roman,serif" font-size="14.00">a</text>
</g>
<!-- 13,2,8,9&#45;&gt;13,2,8,9 -->
<g id="edge17" class="edge">
<title>13,2,8,9&#45;&gt;13,2,8,9</title>
<path fill="none" stroke="black" d="M704.38,-296.96C704.87,-307.9 708.6,-316.3 715.57,-316.3 720.15,-316.3 723.33,-312.68 725.11,-307.1"/>
<polygon fill="black" stroke="black" points="728.61,-307.39 726.77,-296.96 721.7,-306.26 728.61,-307.39"/>
<text text-anchor="middle" x="715.57" y="-320.1" font-family="Times New Roman,serif" font-size="14.00">b</text>
</g>
<!-- 13,2,8,9&#45;&gt;10,13,2,3 -->
<g id="edge18" class="edge">
<title>13,2,8,9&#45;&gt;10,13,2,3</title>
<path fill="none" stroke="black" d="M755.59,-263.29C766.17,-264.72 777.8,-266.29 789.01,-267.81"/>
<polygon fill="black" stroke="black" points="788.76,-271.31 799.14,-269.19 789.7,-264.37 788.76,-271.31"/>
<text text-anchor="middle" x="777.37" y="-270.8" font-family="Times New Roman,serif" font-size="14.00">a</text>
</g>
<!-- 10,13,2,3&#45;&gt;13,2,3,4 -->
<g id="edge20" class="edge">
<title>10,13,2,3&#45;&gt;13,2,3,4</title>
<path fill="none" stroke="black" d="M875.62,-244.95C896.33,-225.22 923.5,-199.34 945.14,-178.73"/>
<polygon fill="black" stroke="black" points="947.72,-181.11 952.54,-171.68 942.89,-176.04 947.72,-181.11"/>
<text text-anchor="middle" x="909.26" y="-217.8" font-family="Times New Roman,serif" font-size="14.00">a</text>
</g>
<!-- 11,13,2,5,8 -->
<g id="node16" class="node">
<title>11,13,2,5,8</title>
<ellipse fill="none" stroke="black" cx="982.61" cy="-324" rx="51.19" ry="51.19"/>
<text text-anchor="middle" x="982.61" y="-320.3" font-family="Times New Roman,serif" font-size="14.00">11,13,2,5,8</text>
</g>
<!-- 10,13,2,3&#45;&gt;11,13,2,5,8 -->
<g id="edge19" class="edge">
<title>10,13,2,3&#45;&gt;11,13,2,5,8</title>
<path fill="none" stroke="black" d="M884.96,-289.57C897.32,-293.97 911.13,-298.89 924.35,-303.6"/>
<polygon fill="black" stroke="black" points="923.25,-306.93 933.85,-306.99 925.6,-300.33 923.25,-306.93"/>
<text text-anchor="middle" x="909.26" y="-303.8" font-family="Times New Roman,serif" font-size="14.00">b</text>
</g>
<!-- 11,2,5,8&#45;&gt;2,8,9 -->
<g id="edge21" class="edge">
<title>11,2,5,8&#45;&gt;2,8,9</title>
<path fill="none" stroke="black" d="M493.82,-357.47C510.24,-356.84 529.23,-356.1 545.5,-355.47"/>
<polygon fill="black" stroke="black" points="545.88,-358.96 555.74,-355.07 545.61,-351.96 545.88,-358.96"/>
<text text-anchor="middle" x="515.68" y="-360.8" font-family="Times New Roman,serif" font-size="14.00">b</text>
</g>
<!-- 10,12,2,3,6 -->
<g id="node17" class="node">
<title>10,12,2,3,6</title>
<ellipse fill="none" stroke="black" cx="1569.32" cy="-411" rx="51.19" ry="51.19"/>
<text text-anchor="middle" x="1569.32" y="-407.3" font-family="Times New Roman,serif" font-size="14.00">10,12,2,3,6</text>
</g>
<!-- 11,2,5,8&#45;&gt;10,12,2,3,6 -->
<g id="edge22" class="edge">
<title>11,2,5,8&#45;&gt;10,12,2,3,6</title>
<path fill="none" stroke="black" d="M487.71,-380.6C512.95,-394.89 549.05,-411 583.48,-411 583.48,-411 583.48,-411 1407.08,-411 1440.26,-411 1477.28,-411 1507.47,-411"/>
<polygon fill="black" stroke="black" points="1507.85,-414.5 1517.84,-411 1507.84,-407.5 1507.85,-414.5"/>
<text text-anchor="middle" x="982.61" y="-414.8" font-family="Times New Roman,serif" font-size="14.00">a</text>
</g>
<!-- 10,2,3,6&#45;&gt;2,3,4 -->
<g id="edge24" class="edge">
<title>10,2,3,6&#45;&gt;2,3,4</title>
<path fill="none" stroke="black" d="M489.32,-140.6C508.1,-130.71 531.15,-118.56 549.74,-108.77"/>
<polygon fill="black" stroke="black" points="551.53,-111.79 558.74,-104.03 548.27,-105.59 551.53,-111.79"/>
<text text-anchor="middle" x="515.68" y="-131.8" font-family="Times New Roman,serif" font-size="14.00">a</text>
</g>
<!-- 11,2,5,7,8 -->
<g id="node18" class="node">
<title>11,2,5,7,8</title>
<ellipse fill="none" stroke="black" cx="584.48" cy="-256" rx="46.59" ry="46.59"/>
<text text-anchor="middle" x="584.48" y="-252.3" font-family="Times New Roman,serif" font-size="14.00">11,2,5,7,8</text>
</g>
<!-- 10,2,3,6&#45;&gt;11,2,5,7,8 -->
<g id="edge23" class="edge">
<title>10,2,3,6&#45;&gt;11,2,5,7,8</title>
<path fill="none" stroke="black" d="M485.97,-182.73C501.62,-194.49 520.81,-208.91 538.01,-221.83"/>
<polygon fill="black" stroke="black" points="536.17,-224.83 546.27,-228.04 540.38,-219.23 536.17,-224.83"/>
<text text-anchor="middle" x="515.68" y="-211.8" font-family="Times New Roman,serif" font-size="14.00">b</text>
</g>
<!-- 13,2,5,8&#45;&gt;13,2,8,9 -->
<g id="edge25" class="edge">
<title>13,2,5,8&#45;&gt;13,2,8,9</title>
<path fill="none" stroke="black" d="M1077.75,-75.13C1039.38,-75.41 979.94,-78.86 931.26,-95 853.92,-120.64 835.76,-136.01 773.87,-189 764.07,-197.39 754.61,-207.58 746.3,-217.52"/>
<polygon fill="black" stroke="black" points="743.49,-215.43 739.9,-225.4 748.92,-219.85 743.49,-215.43"/>
<text text-anchor="middle" x="909.26" y="-107.8" font-family="Times New Roman,serif" font-size="14.00">b</text>
</g>
<!-- 10,13,2,3,6 -->
<g id="node19" class="node">
<title>10,13,2,3,6</title>
<ellipse fill="none" stroke="black" cx="1252.89" cy="-152" rx="51.19" ry="51.19"/>
<text text-anchor="middle" x="1252.89" y="-148.3" font-family="Times New Roman,serif" font-size="14.00">10,13,2,3,6</text>
</g>
<!-- 13,2,5,8&#45;&gt;10,13,2,3,6 -->
<g id="edge26" class="edge">
<title>13,2,5,8&#45;&gt;10,13,2,3,6</title>
<path fill="none" stroke="black" d="M1153.75,-95.77C1167.61,-103.71 1183.9,-113.04 1199.18,-121.8"/>
<polygon fill="black" stroke="black" points="1197.62,-124.94 1208.04,-126.87 1201.1,-118.87 1197.62,-124.94"/>
<text text-anchor="middle" x="1180.04" y="-115.8" font-family="Times New Roman,serif" font-size="14.00">a</text>
</g>
<!-- 13,2,3,4&#45;&gt;13,2,5,8 -->
<g id="edge27" class="edge">
<title>13,2,3,4&#45;&gt;13,2,5,8</title>
<path fill="none" stroke="black" d="M1019.07,-125.96C1035.66,-117.51 1055.59,-107.37 1073.15,-98.44"/>
<polygon fill="black" stroke="black" points="1074.76,-101.55 1082.08,-93.89 1071.58,-95.31 1074.76,-101.55"/>
<text text-anchor="middle" x="1055.95" y="-111.8" font-family="Times New Roman,serif" font-size="14.00">b</text>
</g>
<!-- 13,2,3,4&#45;&gt;13,2,3,4 -->
<g id="edge28" class="edge">
<title>13,2,3,4&#45;&gt;13,2,3,4</title>
<path fill="none" stroke="black" d="M969.13,-182.13C969.54,-193.47 974.03,-202.3 982.61,-202.3 988.37,-202.3 992.29,-198.31 994.36,-192.26"/>
<polygon fill="black" stroke="black" points="997.86,-192.57 996.08,-182.13 990.95,-191.4 997.86,-192.57"/>
<text text-anchor="middle" x="982.61" y="-206.1" font-family="Times New Roman,serif" font-size="14.00">a</text>
</g>
<!-- 11,13,2,5,8&#45;&gt;13,2,8,9 -->
<g id="edge29" class="edge">
<title>11,13,2,5,8&#45;&gt;13,2,8,9</title>
<path fill="none" stroke="black" d="M932.3,-334.62C894.58,-340.51 841.9,-343.83 798.87,-328 780.45,-321.23 763.34,-308.3 749.55,-295.38"/>
<polygon fill="black" stroke="black" points="751.84,-292.72 742.24,-288.24 746.95,-297.73 751.84,-292.72"/>
<text text-anchor="middle" x="843.06" y="-343.8" font-family="Times New Roman,serif" font-size="14.00">b</text>
</g>
<!-- 10,12,13,2,3,6 -->
<g id="node20" class="node">
<title>10,12,13,2,3,6</title>
<ellipse fill="none" stroke="black" cx="1569.32" cy="-220" rx="62.29" ry="62.29"/>
<text text-anchor="middle" x="1569.32" y="-216.3" font-family="Times New Roman,serif" font-size="14.00">10,12,13,2,3,6</text>
</g>
<!-- 11,13,2,5,8&#45;&gt;10,12,13,2,3,6 -->
<g id="edge30" class="edge">
<title>11,13,2,5,8&#45;&gt;10,12,13,2,3,6</title>
<path fill="none" stroke="black" d="M1033.61,-316.26C1058.66,-313.03 1089.49,-310 1117.25,-310 1117.25,-310 1117.25,-310 1407.08,-310 1446.35,-310 1484.95,-289.4 1514.53,-267.91"/>
<polygon fill="black" stroke="black" points="1516.73,-270.64 1522.63,-261.84 1512.53,-265.03 1516.73,-270.64"/>
<text text-anchor="middle" x="1252.89" y="-313.8" font-family="Times New Roman,serif" font-size="14.00">a</text>
</g>
<!-- 11,12,13,2,5,7,8 -->
<g id="node21" class="node">
<title>11,12,13,2,5,7,8</title>
<ellipse fill="none" stroke="black" cx="1745.26" cy="-307" rx="69.59" ry="69.59"/>
<text text-anchor="middle" x="1745.26" y="-303.3" font-family="Times New Roman,serif" font-size="14.00">11,12,13,2,5,7,8</text>
</g>
<!-- 10,12,2,3,6&#45;&gt;11,12,13,2,5,7,8 -->
<g id="edge31" class="edge">
<title>10,12,2,3,6&#45;&gt;11,12,13,2,5,7,8</title>
<path fill="none" stroke="black" d="M1613.76,-385.02C1632.69,-373.71 1655.32,-360.18 1676.38,-347.59"/>
<polygon fill="black" stroke="black" points="1678.19,-350.58 1684.98,-342.44 1674.6,-344.57 1678.19,-350.58"/>
<text text-anchor="middle" x="1653.71" y="-366.8" font-family="Times New Roman,serif" font-size="14.00">b</text>
</g>
<!-- 12,13,2,3,4 -->
<g id="node22" class="node">
<title>12,13,2,3,4</title>
<ellipse fill="none" stroke="black" cx="2222.68" cy="-242" rx="51.19" ry="51.19"/>
<text text-anchor="middle" x="2222.68" y="-238.3" font-family="Times New Roman,serif" font-size="14.00">12,13,2,3,4</text>
</g>
<!-- 10,12,2,3,6&#45;&gt;12,13,2,3,4 -->
<g id="edge32" class="edge">
<title>10,12,2,3,6&#45;&gt;12,13,2,3,4</title>
<path fill="none" stroke="black" d="M1620.28,-419.62C1721.43,-434.42 1954.54,-454.88 2116.28,-363 2145.55,-346.37 2170.67,-318.48 2189.04,-293.67"/>
<polygon fill="black" stroke="black" points="2192,-295.55 2195.01,-285.39 2186.32,-291.46 2192,-295.55"/>
<text text-anchor="middle" x="1910.15" y="-433.8" font-family="Times New Roman,serif" font-size="14.00">a</text>
</g>
<!-- 11,2,5,7,8&#45;&gt;13,2,8,9 -->
<g id="edge33" class="edge">
<title>11,2,5,7,8&#45;&gt;13,2,8,9</title>
<path fill="none" stroke="black" d="M631.36,-256.71C642.34,-256.88 654.12,-257.06 665.25,-257.24"/>
<polygon fill="black" stroke="black" points="665.2,-260.74 675.26,-257.39 665.31,-253.74 665.2,-260.74"/>
<text text-anchor="middle" x="653.27" y="-261.8" font-family="Times New Roman,serif" font-size="14.00">b</text>
</g>
<!-- 11,2,5,7,8&#45;&gt;10,12,13,2,3,6 -->
<g id="edge34" class="edge">
<title>11,2,5,7,8&#45;&gt;10,12,13,2,3,6</title>
<path fill="none" stroke="black" d="M621.74,-227.36C663.03,-195.59 733.29,-144.06 798.87,-108 852.99,-78.24 993.19,0 1054.95,0 1054.95,0 1054.95,0 1407.08,0 1482.75,0 1526.78,-85.72 1549.18,-150.15"/>
<polygon fill="black" stroke="black" points="1545.95,-151.52 1552.46,-159.88 1552.59,-149.29 1545.95,-151.52"/>
<text text-anchor="middle" x="1055.95" y="-4.8" font-family="Times New Roman,serif" font-size="14.00">a</text>
</g>
<!-- 10,13,2,3,6&#45;&gt;13,2,3,4 -->
<g id="edge36" class="edge">
<title>10,13,2,3,6&#45;&gt;13,2,3,4</title>
<path fill="none" stroke="black" d="M1201.49,-150.5C1153.26,-149.06 1080.95,-146.9 1033.04,-145.47"/>
<polygon fill="black" stroke="black" points="1033,-141.97 1022.9,-145.17 1032.79,-148.97 1033,-141.97"/>
<text text-anchor="middle" x="1118.25" y="-153.8" font-family="Times New Roman,serif" font-size="14.00">a</text>
</g>
<!-- 11,13,2,5,7,8 -->
<g id="node23" class="node">
<title>11,13,2,5,7,8</title>
<ellipse fill="none" stroke="black" cx="1406.08" cy="-220" rx="57.69" ry="57.69"/>
<text text-anchor="middle" x="1406.08" y="-216.3" font-family="Times New Roman,serif" font-size="14.00">11,13,2,5,7,8</text>
</g>
<!-- 10,13,2,3,6&#45;&gt;11,13,2,5,7,8 -->
<g id="edge35" class="edge">
<title>10,13,2,3,6&#45;&gt;11,13,2,5,7,8</title>
<path fill="none" stroke="black" d="M1300.07,-172.77C1313.82,-178.96 1329.11,-185.83 1343.67,-192.38"/>
<polygon fill="black" stroke="black" points="1342.55,-195.71 1353.1,-196.62 1345.42,-189.33 1342.55,-195.71"/>
<text text-anchor="middle" x="1326.23" y="-189.8" font-family="Times New Roman,serif" font-size="14.00">b</text>
</g>
<!-- 10,12,13,2,3,6&#45;&gt;11,12,13,2,5,7,8 -->
<g id="edge37" class="edge">
<title>10,12,13,2,3,6&#45;&gt;11,12,13,2,5,7,8</title>
<path fill="none" stroke="black" d="M1622.64,-253.16C1631.54,-258.36 1640.8,-263.5 1649.71,-268 1656.51,-271.43 1663.69,-274.81 1670.92,-278.05"/>
<polygon fill="black" stroke="black" points="1669.53,-281.26 1680.09,-282.08 1672.34,-274.86 1669.53,-281.26"/>
<text text-anchor="middle" x="1653.71" y="-275.8" font-family="Times New Roman,serif" font-size="14.00">b</text>
</g>
<!-- 10,12,13,2,3,6&#45;&gt;12,13,2,3,4 -->
<g id="edge38" class="edge">
<title>10,12,13,2,3,6&#45;&gt;12,13,2,3,4</title>
<path fill="none" stroke="black" d="M1631.84,-214.21C1665.09,-211.56 1706.89,-209 1744.26,-209 1744.26,-209 1744.26,-209 2061.39,-209 2095.72,-209 2133.35,-216.35 2163.52,-224.12"/>
<polygon fill="black" stroke="black" points="2162.89,-227.57 2173.45,-226.76 2164.69,-220.8 2162.89,-227.57"/>
<text text-anchor="middle" x="1910.15" y="-212.8" font-family="Times New Roman,serif" font-size="14.00">a</text>
</g>
<!-- 11,12,13,2,5,7,8&#45;&gt;10,12,13,2,3,6 -->
<g id="edge40" class="edge">
<title>11,12,13,2,5,7,8&#45;&gt;10,12,13,2,3,6</title>
<path fill="none" stroke="black" d="M1688.31,-266.35C1678.38,-260.07 1667.95,-254.01 1657.71,-249 1651.73,-246.07 1645.38,-243.33 1638.95,-240.79"/>
<polygon fill="black" stroke="black" points="1640.07,-237.47 1629.48,-237.21 1637.6,-244.02 1640.07,-237.47"/>
<text text-anchor="middle" x="1653.71" y="-252.8" font-family="Times New Roman,serif" font-size="14.00">a</text>
</g>
<!-- 12,13,2,8,9 -->
<g id="node24" class="node">
<title>12,13,2,8,9</title>
<ellipse fill="none" stroke="black" cx="1910.15" cy="-298" rx="51.19" ry="51.19"/>
<text text-anchor="middle" x="1910.15" y="-294.3" font-family="Times New Roman,serif" font-size="14.00">12,13,2,8,9</text>
</g>
<!-- 11,12,13,2,5,7,8&#45;&gt;12,13,2,8,9 -->
<g id="edge39" class="edge">
<title>11,12,13,2,5,7,8&#45;&gt;12,13,2,8,9</title>
<path fill="none" stroke="black" d="M1814.86,-303.21C1825.93,-302.6 1837.33,-301.97 1848.2,-301.37"/>
<polygon fill="black" stroke="black" points="1848.65,-304.85 1858.44,-300.8 1848.26,-297.86 1848.65,-304.85"/>
<text text-anchor="middle" x="1836.8" y="-305.8" font-family="Times New Roman,serif" font-size="14.00">b</text>
</g>
<!-- 12,13,2,3,4&#45;&gt;12,13,2,3,4 -->
<g id="edge42" class="edge">
<title>12,13,2,3,4&#45;&gt;12,13,2,3,4</title>
<path fill="none" stroke="black" d="M2207.24,-291.24C2208.51,-302.81 2213.65,-311.35 2222.68,-311.35 2228.88,-311.35 2233.25,-307.31 2235.79,-301.03"/>
<polygon fill="black" stroke="black" points="2239.21,-301.78 2238.11,-291.24 2232.4,-300.16 2239.21,-301.78"/>
<text text-anchor="middle" x="2222.68" y="-315.15" font-family="Times New Roman,serif" font-size="14.00">a</text>
</g>
<!-- 12,13,2,5,8 -->
<g id="node25" class="node">
<title>12,13,2,5,8</title>
<ellipse fill="none" stroke="black" cx="2380.42" cy="-242" rx="51.19" ry="51.19"/>
<text text-anchor="middle" x="2380.42" y="-238.3" font-family="Times New Roman,serif" font-size="14.00">12,13,2,5,8</text>
</g>
<!-- 12,13,2,3,4&#45;&gt;12,13,2,5,8 -->
<g id="edge41" class="edge">
<title>12,13,2,3,4&#45;&gt;12,13,2,5,8</title>
<path fill="none" stroke="black" d="M2274.24,-242C2288.46,-242 2304.06,-242 2318.8,-242"/>
<polygon fill="black" stroke="black" points="2318.84,-245.5 2328.84,-242 2318.84,-238.5 2318.84,-245.5"/>
<text text-anchor="middle" x="2307.07" y="-245.8" font-family="Times New Roman,serif" font-size="14.00">b</text>
</g>
<!-- 11,13,2,5,7,8&#45;&gt;13,2,8,9 -->
<g id="edge43" class="edge">
<title>11,13,2,5,7,8&#45;&gt;13,2,8,9</title>
<path fill="none" stroke="black" d="M1349.79,-233.6C1321.32,-239.46 1285.95,-245 1253.89,-245 1054.95,-245 1054.95,-245 1054.95,-245 940.68,-245 910.72,-198.61 798.87,-222 785.98,-224.7 772.64,-229.53 760.55,-234.8"/>
<polygon fill="black" stroke="black" points="758.8,-231.75 751.16,-239.08 761.71,-238.12 758.8,-231.75"/>
<text text-anchor="middle" x="1055.95" y="-248.8" font-family="Times New Roman,serif" font-size="14.00">b</text>
</g>
<!-- 11,13,2,5,7,8&#45;&gt;10,12,13,2,3,6 -->
<g id="edge44" class="edge">
<title>11,13,2,5,7,8&#45;&gt;10,12,13,2,3,6</title>
<path fill="none" stroke="black" d="M1463.93,-220C1474.55,-220 1485.77,-220 1496.77,-220"/>
<polygon fill="black" stroke="black" points="1496.78,-223.5 1506.78,-220 1496.78,-216.5 1496.78,-223.5"/>
<text text-anchor="middle" x="1485.42" y="-223.8" font-family="Times New Roman,serif" font-size="14.00">a</text>
</g>
<!-- 12,13,2,8,9&#45;&gt;12,13,2,8,9 -->
<g id="edge45" class="edge">
<title>12,13,2,8,9&#45;&gt;12,13,2,8,9</title>
<path fill="none" stroke="black" d="M1896.98,-347.87C1898.16,-359.12 1902.55,-367.35 1910.15,-367.35 1915.25,-367.35 1918.9,-363.63 1921.11,-357.78"/>
<polygon fill="black" stroke="black" points="1924.56,-358.39 1923.32,-347.87 1917.73,-356.87 1924.56,-358.39"/>
<text text-anchor="middle" x="1910.15" y="-371.15" font-family="Times New Roman,serif" font-size="14.00">b</text>
</g>
<!-- 10,12,13,2,3 -->
<g id="node26" class="node">
<title>10,12,13,2,3</title>
<ellipse fill="none" stroke="black" cx="2060.39" cy="-298" rx="55.79" ry="55.79"/>
<text text-anchor="middle" x="2060.39" y="-294.3" font-family="Times New Roman,serif" font-size="14.00">10,12,13,2,3</text>
</g>
<!-- 12,13,2,8,9&#45;&gt;10,12,13,2,3 -->
<g id="edge46" class="edge">
<title>12,13,2,8,9&#45;&gt;10,12,13,2,3</title>
<path fill="none" stroke="black" d="M1961.75,-298C1972.17,-298 1983.29,-298 1994.15,-298"/>
<polygon fill="black" stroke="black" points="1994.45,-301.5 2004.45,-298 1994.45,-294.5 1994.45,-301.5"/>
<text text-anchor="middle" x="1982.99" y="-301.8" font-family="Times New Roman,serif" font-size="14.00">a</text>
</g>
<!-- 12,13,2,5,8&#45;&gt;10,12,13,2,3,6 -->
<g id="edge48" class="edge">
<title>12,13,2,5,8&#45;&gt;10,12,13,2,3,6</title>
<path fill="none" stroke="black" d="M2340.51,-209.41C2310.55,-187.65 2267.03,-163 2223.68,-163 1744.26,-163 1744.26,-163 1744.26,-163 1706.66,-163 1666.66,-175.18 1634.51,-188.27"/>
<polygon fill="black" stroke="black" points="1633.09,-185.07 1625.23,-192.17 1635.8,-191.53 1633.09,-185.07"/>
<text text-anchor="middle" x="1982.99" y="-166.8" font-family="Times New Roman,serif" font-size="14.00">a</text>
</g>
<!-- 12,13,2,5,8&#45;&gt;12,13,2,8,9 -->
<g id="edge47" class="edge">
<title>12,13,2,5,8&#45;&gt;12,13,2,8,9</title>
<path fill="none" stroke="black" d="M2375.19,-293.26C2367.51,-349.37 2345.9,-436.81 2285.07,-478 2172.32,-554.36 2022.23,-419.84 1951.4,-344.21"/>
<polygon fill="black" stroke="black" points="1953.75,-341.6 1944.39,-336.64 1948.61,-346.36 1953.75,-341.6"/>
<text text-anchor="middle" x="2138.28" y="-489.8" font-family="Times New Roman,serif" font-size="14.00">b</text>
</g>
<!-- 10,12,13,2,3&#45;&gt;12,13,2,3,4 -->
<g id="edge50" class="edge">
<title>10,12,13,2,3&#45;&gt;12,13,2,3,4</title>
<path fill="none" stroke="black" d="M2113.43,-279.82C2129.7,-274.13 2147.75,-267.83 2164.37,-262.02"/>
<polygon fill="black" stroke="black" points="2165.68,-265.27 2173.96,-258.67 2163.37,-258.66 2165.68,-265.27"/>
<text text-anchor="middle" x="2138.28" y="-275.8" font-family="Times New Roman,serif" font-size="14.00">a</text>
</g>
<!-- 11,12,13,2,5,8 -->
<g id="node27" class="node">
<title>11,12,13,2,5,8</title>
<ellipse fill="none" stroke="black" cx="2222.68" cy="-407" rx="62.29" ry="62.29"/>
<text text-anchor="middle" x="2222.68" y="-403.3" font-family="Times New Roman,serif" font-size="14.00">11,12,13,2,5,8</text>
</g>
<!-- 10,12,13,2,3&#45;&gt;11,12,13,2,5,8 -->
<g id="edge49" class="edge">
<title>10,12,13,2,3&#45;&gt;11,12,13,2,5,8</title>
<path fill="none" stroke="black" d="M2107.32,-329.24C2124.33,-340.8 2143.88,-354.1 2161.94,-366.38"/>
<polygon fill="black" stroke="black" points="2160.43,-369.59 2170.67,-372.32 2164.37,-363.8 2160.43,-369.59"/>
<text text-anchor="middle" x="2138.28" y="-356.8" font-family="Times New Roman,serif" font-size="14.00">b</text>
</g>
</g>
</svg>
