<?xml version="1.0" encoding="UTF-8" standalone="no"?>
<!DOCTYPE svg PUBLIC "-//W3C//DTD SVG 1.1//EN"
 "http://www.w3.org/Graphics/SVG/1.1/DTD/svg11.dtd">
<!-- Generated by graphviz version 3.0.0 (20220226.1711)
 -->
<!-- Title: NFA to DFA Pages: 1 -->
<svg width="1378pt" height="437pt"
 viewBox="0.00 0.00 1377.53 437.14" xmlns="http://www.w3.org/2000/svg" xmlns:xlink="http://www.w3.org/1999/xlink">
<g id="graph0" class="graph" transform="scale(1 1) rotate(0) translate(4 433.14)">
<title>NFA to DFA</title>
<polygon fill="white" stroke="transparent" points="-4,4 -4,-433.14 1373.53,-433.14 1373.53,4 -4,4"/>
<!-- 0 -->
<g id="node1" class="node">
<title>0</title>
<ellipse fill="black" stroke="black" cx="1.8" cy="-243.35" rx="1.8" ry="1.8"/>
</g>
<!-- 1 -->
<g id="node2" class="node">
<title>1</title>
<ellipse fill="none" stroke="black" cx="58.6" cy="-243.35" rx="18" ry="18"/>
<text text-anchor="middle" x="58.6" y="-239.65" font-family="Times New Roman,serif" font-size="14.00">1</text>
</g>
<!-- 0&#45;&gt;1 -->
<g id="edge1" class="edge">
<title>0&#45;&gt;1</title>
<path fill="none" stroke="black" d="M3.75,-243.35C7.11,-243.35 18.87,-243.35 30.55,-243.35"/>
<polygon fill="black" stroke="black" points="30.58,-246.85 40.58,-243.35 30.58,-239.85 30.58,-246.85"/>
</g>
<!-- 2 -->
<g id="node3" class="node">
<title>2</title>
<ellipse fill="none" stroke="black" cx="152.6" cy="-243.35" rx="18" ry="18"/>
<text text-anchor="middle" x="152.6" y="-239.65" font-family="Times New Roman,serif" font-size="14.00">2</text>
</g>
<!-- 1&#45;&gt;2 -->
<g id="edge2" class="edge">
<title>1&#45;&gt;2</title>
<path fill="none" stroke="black" d="M76.9,-243.35C90.14,-243.35 108.65,-243.35 123.94,-243.35"/>
<polygon fill="black" stroke="black" points="124.37,-246.85 134.37,-243.35 124.37,-239.85 124.37,-246.85"/>
<text text-anchor="middle" x="105.6" y="-247.15" font-family="Times New Roman,serif" font-size="14.00">b, a</text>
</g>
<!-- 2,8 -->
<g id="node4" class="node">
<title>2,8</title>
<ellipse fill="none" stroke="black" cx="236.7" cy="-171.35" rx="22.2" ry="22.2"/>
<text text-anchor="middle" x="236.7" y="-167.65" font-family="Times New Roman,serif" font-size="14.00">2,8</text>
</g>
<!-- 2&#45;&gt;2,8 -->
<g id="edge3" class="edge">
<title>2&#45;&gt;2,8</title>
<path fill="none" stroke="black" d="M166.79,-231.78C178.88,-221.18 197.06,-205.23 211.72,-192.38"/>
<polygon fill="black" stroke="black" points="214.22,-194.84 219.43,-185.61 209.61,-189.57 214.22,-194.84"/>
<text text-anchor="middle" x="192.6" y="-215.15" font-family="Times New Roman,serif" font-size="14.00">b</text>
</g>
<!-- 2,3 -->
<g id="node5" class="node">
<title>2,3</title>
<ellipse fill="none" stroke="black" cx="334.94" cy="-281.35" rx="22.2" ry="22.2"/>
<text text-anchor="middle" x="334.94" y="-277.65" font-family="Times New Roman,serif" font-size="14.00">2,3</text>
</g>
<!-- 2&#45;&gt;2,3 -->
<g id="edge4" class="edge">
<title>2&#45;&gt;2,3</title>
<path fill="none" stroke="black" d="M170.57,-246.92C200.86,-253.3 264.67,-266.75 302.96,-274.82"/>
<polygon fill="black" stroke="black" points="302.53,-278.3 313.04,-276.94 303.98,-271.45 302.53,-278.3"/>
<text text-anchor="middle" x="236.7" y="-269.15" font-family="Times New Roman,serif" font-size="14.00">a</text>
</g>
<!-- 2,8,9 -->
<g id="node6" class="node">
<title>2,8,9</title>
<ellipse fill="none" stroke="black" cx="588.03" cy="-149.35" rx="28.7" ry="28.7"/>
<text text-anchor="middle" x="588.03" y="-145.65" font-family="Times New Roman,serif" font-size="14.00">2,8,9</text>
</g>
<!-- 2,8&#45;&gt;2,8,9 -->
<g id="edge5" class="edge">
<title>2,8&#45;&gt;2,8,9</title>
<path fill="none" stroke="black" d="M254.56,-158.28C267.04,-149.13 284.75,-137.19 301.8,-129.35 348.16,-108.01 361.56,-104.53 412.09,-97.35 458.99,-90.68 473.87,-81.97 518.68,-97.35 528.27,-100.63 528.64,-105.18 536.68,-111.35 543.04,-116.22 549.87,-121.4 556.39,-126.33"/>
<polygon fill="black" stroke="black" points="554.33,-129.16 564.42,-132.39 558.55,-123.57 554.33,-129.16"/>
<text text-anchor="middle" x="390.09" y="-104.15" font-family="Times New Roman,serif" font-size="14.00">b</text>
</g>
<!-- 10,2,3 -->
<g id="node7" class="node">
<title>10,2,3</title>
<ellipse fill="none" stroke="black" cx="334.94" cy="-171.35" rx="33.29" ry="33.29"/>
<text text-anchor="middle" x="334.94" y="-167.65" font-family="Times New Roman,serif" font-size="14.00">10,2,3</text>
</g>
<!-- 2,8&#45;&gt;10,2,3 -->
<g id="edge6" class="edge">
<title>2,8&#45;&gt;10,2,3</title>
<path fill="none" stroke="black" d="M259.06,-171.35C268.64,-171.35 280.3,-171.35 291.54,-171.35"/>
<polygon fill="black" stroke="black" points="291.66,-174.85 301.66,-171.35 291.66,-167.85 291.66,-174.85"/>
<text text-anchor="middle" x="280.3" y="-175.15" font-family="Times New Roman,serif" font-size="14.00">a</text>
</g>
<!-- 2,5,8 -->
<g id="node8" class="node">
<title>2,5,8</title>
<ellipse fill="none" stroke="black" cx="452.39" cy="-281.35" rx="28.7" ry="28.7"/>
<text text-anchor="middle" x="452.39" y="-277.65" font-family="Times New Roman,serif" font-size="14.00">2,5,8</text>
</g>
<!-- 2,3&#45;&gt;2,5,8 -->
<g id="edge7" class="edge">
<title>2,3&#45;&gt;2,5,8</title>
<path fill="none" stroke="black" d="M357.12,-281.35C372.82,-281.35 394.67,-281.35 413.37,-281.35"/>
<polygon fill="black" stroke="black" points="413.38,-284.85 423.38,-281.35 413.38,-277.85 413.38,-284.85"/>
<text text-anchor="middle" x="390.09" y="-285.15" font-family="Times New Roman,serif" font-size="14.00">b</text>
</g>
<!-- 2,3,4 -->
<g id="node9" class="node">
<title>2,3,4</title>
<ellipse fill="none" stroke="black" cx="730.17" cy="-289.35" rx="28.7" ry="28.7"/>
<text text-anchor="middle" x="730.17" y="-285.65" font-family="Times New Roman,serif" font-size="14.00">2,3,4</text>
</g>
<!-- 2,3&#45;&gt;2,3,4 -->
<g id="edge8" class="edge">
<title>2,3&#45;&gt;2,3,4</title>
<path fill="none" stroke="black" d="M354.34,-292.58C369.35,-301.22 391.39,-312.78 412.09,-319.35 516.5,-352.46 547.86,-341.08 657.37,-343.35 660.93,-343.42 662.07,-344.66 665.37,-343.35 675.6,-339.28 675.09,-333.59 683.37,-326.35 688.32,-322.02 693.68,-317.53 698.92,-313.24"/>
<polygon fill="black" stroke="black" points="701.42,-315.71 706.99,-306.7 697.02,-310.27 701.42,-315.71"/>
<text text-anchor="middle" x="514.68" y="-345.15" font-family="Times New Roman,serif" font-size="14.00">a</text>
</g>
<!-- 13,2,8,9 -->
<g id="node10" class="node">
<title>13,2,8,9</title>
<ellipse fill="none" stroke="black" cx="730.17" cy="-149.35" rx="40.09" ry="40.09"/>
<text text-anchor="middle" x="730.17" y="-145.65" font-family="Times New Roman,serif" font-size="14.00">13,2,8,9</text>
</g>
<!-- 2,8,9&#45;&gt;13,2,8,9 -->
<g id="edge9" class="edge">
<title>2,8,9&#45;&gt;13,2,8,9</title>
<path fill="none" stroke="black" d="M616.72,-149.35C634.68,-149.35 658.59,-149.35 679.74,-149.35"/>
<polygon fill="black" stroke="black" points="679.87,-152.85 689.87,-149.35 679.87,-145.85 679.87,-152.85"/>
<text text-anchor="middle" x="661.37" y="-153.15" font-family="Times New Roman,serif" font-size="14.00">b</text>
</g>
<!-- 10,13,2,3 -->
<g id="node11" class="node">
<title>10,13,2,3</title>
<ellipse fill="none" stroke="black" cx="864.16" cy="-149.35" rx="44.39" ry="44.39"/>
<text text-anchor="middle" x="864.16" y="-145.65" font-family="Times New Roman,serif" font-size="14.00">10,13,2,3</text>
</g>
<!-- 2,8,9&#45;&gt;10,13,2,3 -->
<g id="edge10" class="edge">
<title>2,8,9&#45;&gt;10,13,2,3</title>
<path fill="none" stroke="black" d="M611.54,-133.05C636.82,-114.91 675.38,-87.8 683.37,-85.35 723.14,-73.13 737.47,-72.29 776.97,-85.35 793.98,-90.97 810.37,-101.4 824.2,-112.22"/>
<polygon fill="black" stroke="black" points="822.08,-115.01 832.04,-118.61 826.5,-109.58 822.08,-115.01"/>
<text text-anchor="middle" x="730.17" y="-89.15" font-family="Times New Roman,serif" font-size="14.00">a</text>
</g>
<!-- 10,2,3&#45;&gt;2,3,4 -->
<g id="edge12" class="edge">
<title>10,2,3&#45;&gt;2,3,4</title>
<path fill="none" stroke="black" d="M366.39,-182.14C380.2,-186.73 396.83,-191.82 412.09,-195.35 458.76,-206.13 471.66,-202.19 518.68,-211.35 572.83,-221.89 587.89,-220.52 639.37,-240.35 659.23,-247.99 680.17,-259.22 696.83,-268.99"/>
<polygon fill="black" stroke="black" points="695.23,-272.11 705.61,-274.24 698.82,-266.11 695.23,-272.11"/>
<text text-anchor="middle" x="514.68" y="-215.15" font-family="Times New Roman,serif" font-size="14.00">a</text>
</g>
<!-- 11,2,5,8 -->
<g id="node12" class="node">
<title>11,2,5,8</title>
<ellipse fill="none" stroke="black" cx="452.39" cy="-146.35" rx="40.09" ry="40.09"/>
<text text-anchor="middle" x="452.39" y="-142.65" font-family="Times New Roman,serif" font-size="14.00">11,2,5,8</text>
</g>
<!-- 10,2,3&#45;&gt;11,2,5,8 -->
<g id="edge11" class="edge">
<title>10,2,3&#45;&gt;11,2,5,8</title>
<path fill="none" stroke="black" d="M367.49,-164.51C378.44,-162.14 390.99,-159.42 402.99,-156.83"/>
<polygon fill="black" stroke="black" points="403.85,-160.22 412.89,-154.68 402.37,-153.38 403.85,-160.22"/>
<text text-anchor="middle" x="390.09" y="-163.15" font-family="Times New Roman,serif" font-size="14.00">b</text>
</g>
<!-- 2,5,8&#45;&gt;2,8,9 -->
<g id="edge13" class="edge">
<title>2,5,8&#45;&gt;2,8,9</title>
<path fill="none" stroke="black" d="M476.39,-265.2C489.35,-255.67 505.52,-243.02 518.68,-230.35 534.94,-214.7 551.3,-195.45 563.94,-179.65"/>
<polygon fill="black" stroke="black" points="566.74,-181.76 570.19,-171.74 561.24,-177.42 566.74,-181.76"/>
<text text-anchor="middle" x="514.68" y="-240.15" font-family="Times New Roman,serif" font-size="14.00">b</text>
</g>
<!-- 10,2,3,6 -->
<g id="node13" class="node">
<title>10,2,3,6</title>
<ellipse fill="none" stroke="black" cx="588.03" cy="-289.35" rx="40.09" ry="40.09"/>
<text text-anchor="middle" x="588.03" y="-285.65" font-family="Times New Roman,serif" font-size="14.00">10,2,3,6</text>
</g>
<!-- 2,5,8&#45;&gt;10,2,3,6 -->
<g id="edge14" class="edge">
<title>2,5,8&#45;&gt;10,2,3,6</title>
<path fill="none" stroke="black" d="M481.08,-283C497.41,-283.98 518.55,-285.25 537.66,-286.39"/>
<polygon fill="black" stroke="black" points="537.52,-289.89 547.72,-286.99 537.94,-282.9 537.52,-289.89"/>
<text text-anchor="middle" x="514.68" y="-288.15" font-family="Times New Roman,serif" font-size="14.00">a</text>
</g>
<!-- 13,2,5,8 -->
<g id="node14" class="node">
<title>13,2,5,8</title>
<ellipse fill="none" stroke="black" cx="1161.44" cy="-289.35" rx="40.09" ry="40.09"/>
<text text-anchor="middle" x="1161.44" y="-285.65" font-family="Times New Roman,serif" font-size="14.00">13,2,5,8</text>
</g>
<!-- 2,3,4&#45;&gt;13,2,5,8 -->
<g id="edge15" class="edge">
<title>2,3,4&#45;&gt;13,2,5,8</title>
<path fill="none" stroke="black" d="M754.73,-304.56C808.68,-337.41 945.05,-409.1 1055.05,-371.35 1081.84,-362.15 1107.06,-343.06 1126.11,-325.61"/>
<polygon fill="black" stroke="black" points="1128.75,-327.93 1133.62,-318.52 1123.95,-322.84 1128.75,-327.93"/>
<text text-anchor="middle" x="930.36" y="-380.15" font-family="Times New Roman,serif" font-size="14.00">b</text>
</g>
<!-- 13,2,3,4 -->
<g id="node15" class="node">
<title>13,2,3,4</title>
<ellipse fill="none" stroke="black" cx="1003.7" cy="-289.35" rx="40.09" ry="40.09"/>
<text text-anchor="middle" x="1003.7" y="-285.65" font-family="Times New Roman,serif" font-size="14.00">13,2,3,4</text>
</g>
<!-- 2,3,4&#45;&gt;13,2,3,4 -->
<g id="edge16" class="edge">
<title>2,3,4&#45;&gt;13,2,3,4</title>
<path fill="none" stroke="black" d="M758.95,-289.35C804.51,-289.35 895.7,-289.35 952.72,-289.35"/>
<polygon fill="black" stroke="black" points="952.95,-292.85 962.95,-289.35 952.95,-285.85 952.95,-292.85"/>
<text text-anchor="middle" x="864.16" y="-293.15" font-family="Times New Roman,serif" font-size="14.00">a</text>
</g>
<!-- 13,2,8,9&#45;&gt;13,2,8,9 -->
<g id="edge17" class="edge">
<title>13,2,8,9&#45;&gt;13,2,8,9</title>
<path fill="none" stroke="black" d="M717.46,-187.75C717.9,-198.96 722.13,-207.64 730.17,-207.64 735.57,-207.64 739.25,-203.72 741.22,-197.75"/>
<polygon fill="black" stroke="black" points="744.7,-198.19 742.88,-187.75 737.79,-197.04 744.7,-198.19"/>
<text text-anchor="middle" x="730.17" y="-211.44" font-family="Times New Roman,serif" font-size="14.00">b</text>
</g>
<!-- 13,2,8,9&#45;&gt;10,13,2,3 -->
<g id="edge18" class="edge">
<title>13,2,8,9&#45;&gt;10,13,2,3</title>
<path fill="none" stroke="black" d="M770.77,-149.35C782.99,-149.35 796.66,-149.35 809.66,-149.35"/>
<polygon fill="black" stroke="black" points="809.9,-152.85 819.9,-149.35 809.9,-145.85 809.9,-152.85"/>
<text text-anchor="middle" x="798.47" y="-153.15" font-family="Times New Roman,serif" font-size="14.00">a</text>
</g>
<!-- 10,13,2,3&#45;&gt;13,2,3,4 -->
<g id="edge20" class="edge">
<title>10,13,2,3&#45;&gt;13,2,3,4</title>
<path fill="none" stroke="black" d="M905.5,-165.29C915.59,-170.43 925.94,-176.8 934.36,-184.35 953.12,-201.17 968.9,-224.27 980.55,-244.52"/>
<polygon fill="black" stroke="black" points="977.52,-246.27 985.45,-253.3 983.63,-242.86 977.52,-246.27"/>
<text text-anchor="middle" x="930.36" y="-188.15" font-family="Times New Roman,serif" font-size="14.00">a</text>
</g>
<!-- 11,13,2,5,8 -->
<g id="node16" class="node">
<title>11,13,2,5,8</title>
<ellipse fill="none" stroke="black" cx="1003.7" cy="-107.35" rx="51.19" ry="51.19"/>
<text text-anchor="middle" x="1003.7" y="-103.65" font-family="Times New Roman,serif" font-size="14.00">11,13,2,5,8</text>
</g>
<!-- 10,13,2,3&#45;&gt;11,13,2,5,8 -->
<g id="edge19" class="edge">
<title>10,13,2,3&#45;&gt;11,13,2,5,8</title>
<path fill="none" stroke="black" d="M906.8,-136.63C918.77,-132.97 932.05,-128.92 944.81,-125.02"/>
<polygon fill="black" stroke="black" points="945.9,-128.35 954.45,-122.08 943.86,-121.65 945.9,-128.35"/>
<text text-anchor="middle" x="930.36" y="-133.15" font-family="Times New Roman,serif" font-size="14.00">b</text>
</g>
<!-- 11,2,5,8&#45;&gt;2,8,9 -->
<g id="edge21" class="edge">
<title>11,2,5,8&#45;&gt;2,8,9</title>
<path fill="none" stroke="black" d="M492.76,-147.23C510.49,-147.63 531.33,-148.1 548.91,-148.49"/>
<polygon fill="black" stroke="black" points="549.29,-152 559.37,-148.72 549.45,-145 549.29,-152"/>
<text text-anchor="middle" x="514.68" y="-151.15" font-family="Times New Roman,serif" font-size="14.00">b</text>
</g>
<!-- 10,12,2,3,6 -->
<g id="node17" class="node">
<title>10,12,2,3,6</title>
<ellipse fill="none" stroke="black" cx="588.03" cy="-51.35" rx="51.19" ry="51.19"/>
<text text-anchor="middle" x="588.03" y="-47.65" font-family="Times New Roman,serif" font-size="14.00">10,12,2,3,6</text>
</g>
<!-- 11,2,5,8&#45;&gt;10,12,2,3,6 -->
<g id="edge22" class="edge">
<title>11,2,5,8&#45;&gt;10,12,2,3,6</title>
<path fill="none" stroke="black" d="M485.74,-123.35C501.14,-112.4 519.91,-99.06 537.08,-86.85"/>
<polygon fill="black" stroke="black" points="539.24,-89.61 545.36,-80.96 535.18,-83.91 539.24,-89.61"/>
<text text-anchor="middle" x="514.68" y="-108.15" font-family="Times New Roman,serif" font-size="14.00">a</text>
</g>
<!-- 10,2,3,6&#45;&gt;2,3,4 -->
<g id="edge24" class="edge">
<title>10,2,3,6&#45;&gt;2,3,4</title>
<path fill="none" stroke="black" d="M628.44,-289.35C648.07,-289.35 671.69,-289.35 691.13,-289.35"/>
<polygon fill="black" stroke="black" points="691.15,-292.85 701.15,-289.35 691.15,-285.85 691.15,-292.85"/>
<text text-anchor="middle" x="661.37" y="-293.15" font-family="Times New Roman,serif" font-size="14.00">a</text>
</g>
<!-- 11,2,5,7,8 -->
<g id="node18" class="node">
<title>11,2,5,7,8</title>
<ellipse fill="none" stroke="black" cx="730.17" cy="-382.35" rx="46.59" ry="46.59"/>
<text text-anchor="middle" x="730.17" y="-378.65" font-family="Times New Roman,serif" font-size="14.00">11,2,5,7,8</text>
</g>
<!-- 10,2,3,6&#45;&gt;11,2,5,7,8 -->
<g id="edge23" class="edge">
<title>10,2,3,6&#45;&gt;11,2,5,7,8</title>
<path fill="none" stroke="black" d="M622.24,-311.39C640.15,-323.27 662.55,-338.13 682.21,-351.18"/>
<polygon fill="black" stroke="black" points="680.47,-354.23 690.74,-356.84 684.34,-348.4 680.47,-354.23"/>
<text text-anchor="middle" x="661.37" y="-342.15" font-family="Times New Roman,serif" font-size="14.00">b</text>
</g>
<!-- 13,2,5,8&#45;&gt;13,2,8,9 -->
<g id="edge25" class="edge">
<title>13,2,5,8&#45;&gt;13,2,8,9</title>
<path fill="none" stroke="black" d="M1125.79,-270.28C1105.68,-259.98 1079.55,-247.86 1055.05,-240.35 953.87,-209.3 919.42,-238.56 819.97,-202.35 803.48,-196.34 786.64,-187.2 772.12,-178.19"/>
<polygon fill="black" stroke="black" points="773.72,-175.06 763.41,-172.63 769.95,-180.96 773.72,-175.06"/>
<text text-anchor="middle" x="930.36" y="-226.15" font-family="Times New Roman,serif" font-size="14.00">b</text>
</g>
<!-- 10,13,2,3,6 -->
<g id="node19" class="node">
<title>10,13,2,3,6</title>
<ellipse fill="none" stroke="black" cx="1318.18" cy="-289.35" rx="51.19" ry="51.19"/>
<text text-anchor="middle" x="1318.18" y="-285.65" font-family="Times New Roman,serif" font-size="14.00">10,13,2,3,6</text>
</g>
<!-- 13,2,5,8&#45;&gt;10,13,2,3,6 -->
<g id="edge26" class="edge">
<title>13,2,5,8&#45;&gt;10,13,2,3,6</title>
<path fill="none" stroke="black" d="M1201.89,-289.35C1218.51,-289.35 1238.24,-289.35 1256.63,-289.35"/>
<polygon fill="black" stroke="black" points="1256.68,-292.85 1266.68,-289.35 1256.68,-285.85 1256.68,-292.85"/>
<text text-anchor="middle" x="1245.34" y="-293.15" font-family="Times New Roman,serif" font-size="14.00">a</text>
</g>
<!-- 13,2,3,4&#45;&gt;13,2,5,8 -->
<g id="edge27" class="edge">
<title>13,2,3,4&#45;&gt;13,2,5,8</title>
<path fill="none" stroke="black" d="M1044,-289.35C1064.21,-289.35 1089.06,-289.35 1110.61,-289.35"/>
<polygon fill="black" stroke="black" points="1110.89,-292.85 1120.89,-289.35 1110.89,-285.85 1110.89,-292.85"/>
<text text-anchor="middle" x="1077.05" y="-293.15" font-family="Times New Roman,serif" font-size="14.00">b</text>
</g>
<!-- 13,2,3,4&#45;&gt;13,2,3,4 -->
<g id="edge28" class="edge">
<title>13,2,3,4&#45;&gt;13,2,3,4</title>
<path fill="none" stroke="black" d="M990.23,-327.47C990.63,-338.82 995.13,-347.64 1003.7,-347.64 1009.47,-347.64 1013.38,-343.66 1015.46,-337.6"/>
<polygon fill="black" stroke="black" points="1018.95,-337.92 1017.17,-327.47 1012.05,-336.75 1018.95,-337.92"/>
<text text-anchor="middle" x="1003.7" y="-351.44" font-family="Times New Roman,serif" font-size="14.00">a</text>
</g>
<!-- 11,13,2,5,8&#45;&gt;13,2,8,9 -->
<g id="edge29" class="edge">
<title>11,13,2,5,8&#45;&gt;13,2,8,9</title>
<path fill="none" stroke="black" d="M955.41,-88.87C917.85,-76.97 864.43,-66.28 819.97,-81.35 800.23,-88.03 781.44,-101.06 766.27,-113.94"/>
<polygon fill="black" stroke="black" points="763.87,-111.39 758.68,-120.62 768.5,-116.64 763.87,-111.39"/>
<text text-anchor="middle" x="864.16" y="-85.15" font-family="Times New Roman,serif" font-size="14.00">b</text>
</g>
<!-- 10,12,13,2,3,6 -->
<g id="node20" class="node">
<title>10,12,13,2,3,6</title>
<ellipse fill="none" stroke="black" cx="1161.44" cy="-107.35" rx="62.29" ry="62.29"/>
<text text-anchor="middle" x="1161.44" y="-103.65" font-family="Times New Roman,serif" font-size="14.00">10,12,13,2,3,6</text>
</g>
<!-- 11,13,2,5,8&#45;&gt;10,12,13,2,3,6 -->
<g id="edge30" class="edge">
<title>11,13,2,5,8&#45;&gt;10,12,13,2,3,6</title>
<path fill="none" stroke="black" d="M1055.27,-107.35C1065.94,-107.35 1077.4,-107.35 1088.69,-107.35"/>
<polygon fill="black" stroke="black" points="1088.98,-110.85 1098.98,-107.35 1088.98,-103.85 1088.98,-110.85"/>
<text text-anchor="middle" x="1077.05" y="-111.15" font-family="Times New Roman,serif" font-size="14.00">a</text>
</g>
</g>
</svg>
