<?xml version="1.0" encoding="UTF-8" standalone="no"?>
<!DOCTYPE svg PUBLIC "-//W3C//DTD SVG 1.1//EN"
 "http://www.w3.org/Graphics/SVG/1.1/DTD/svg11.dtd">
<!-- Generated by graphviz version 3.0.0 (20220226.1711)
 -->
<!-- Title: NFA to DFA Pages: 1 -->
<svg width="179pt" height="44pt"
 viewBox="0.00 0.00 178.60 44.00" xmlns="http://www.w3.org/2000/svg" xmlns:xlink="http://www.w3.org/1999/xlink">
<g id="graph0" class="graph" transform="scale(1 1) rotate(0) translate(4 40)">
<title>NFA to DFA</title>
<polygon fill="white" stroke="transparent" points="-4,4 -4,-40 174.6,-40 174.6,4 -4,4"/>
<!-- 0 -->
<g id="node1" class="node">
<title>0</title>
<ellipse fill="black" stroke="black" cx="1.8" cy="-18" rx="1.8" ry="1.8"/>
</g>
<!-- 1 -->
<g id="node2" class="node">
<title>1</title>
<ellipse fill="none" stroke="black" cx="58.6" cy="-18" rx="18" ry="18"/>
<text text-anchor="middle" x="58.6" y="-14.3" font-family="Times New Roman,serif" font-size="14.00">1</text>
</g>
<!-- 0&#45;&gt;1 -->
<g id="edge1" class="edge">
<title>0&#45;&gt;1</title>
<path fill="none" stroke="black" d="M3.75,-18C7.11,-18 18.87,-18 30.55,-18"/>
<polygon fill="black" stroke="black" points="30.58,-21.5 40.58,-18 30.58,-14.5 30.58,-21.5"/>
</g>
<!-- 2 -->
<g id="node3" class="node">
<title>2</title>
<ellipse fill="none" stroke="black" cx="152.6" cy="-18" rx="18" ry="18"/>
<text text-anchor="middle" x="152.6" y="-14.3" font-family="Times New Roman,serif" font-size="14.00">2</text>
</g>
<!-- 1&#45;&gt;2 -->
<g id="edge2" class="edge">
<title>1&#45;&gt;2</title>
<path fill="none" stroke="black" d="M76.9,-18C90.14,-18 108.65,-18 123.94,-18"/>
<polygon fill="black" stroke="black" points="124.37,-21.5 134.37,-18 124.37,-14.5 124.37,-21.5"/>
<text text-anchor="middle" x="105.6" y="-21.8" font-family="Times New Roman,serif" font-size="14.00">b, a</text>
</g>
</g>
</svg>
