<?xml version="1.0" encoding="UTF-8" standalone="no"?>
<!DOCTYPE svg PUBLIC "-//W3C//DTD SVG 1.1//EN"
 "http://www.w3.org/Graphics/SVG/1.1/DTD/svg11.dtd">
<!-- Generated by graphviz version 3.0.0 (20220226.1711)
 -->
<!-- Title: NFA to DFA Pages: 1 -->
<svg width="634pt" height="338pt"
 viewBox="0.00 0.00 634.08 337.59" xmlns="http://www.w3.org/2000/svg" xmlns:xlink="http://www.w3.org/1999/xlink">
<g id="graph0" class="graph" transform="scale(1 1) rotate(0) translate(4 333.59)">
<title>NFA to DFA</title>
<polygon fill="white" stroke="transparent" points="-4,4 -4,-333.59 630.08,-333.59 630.08,4 -4,4"/>
<!-- 0 -->
<g id="node1" class="node">
<title>0</title>
<ellipse fill="black" stroke="black" cx="1.8" cy="-164.3" rx="1.8" ry="1.8"/>
</g>
<!-- 1 -->
<g id="node2" class="node">
<title>1</title>
<ellipse fill="none" stroke="black" cx="58.6" cy="-164.3" rx="18" ry="18"/>
<text text-anchor="middle" x="58.6" y="-160.6" font-family="Times New Roman,serif" font-size="14.00">1</text>
</g>
<!-- 0&#45;&gt;1 -->
<g id="edge1" class="edge">
<title>0&#45;&gt;1</title>
<path fill="none" stroke="black" d="M3.75,-164.3C7.11,-164.3 18.87,-164.3 30.55,-164.3"/>
<polygon fill="black" stroke="black" points="30.58,-167.8 40.58,-164.3 30.58,-160.8 30.58,-167.8"/>
</g>
<!-- 2 -->
<g id="node3" class="node">
<title>2</title>
<ellipse fill="none" stroke="black" cx="152.6" cy="-164.3" rx="18" ry="18"/>
<text text-anchor="middle" x="152.6" y="-160.6" font-family="Times New Roman,serif" font-size="14.00">2</text>
</g>
<!-- 1&#45;&gt;2 -->
<g id="edge2" class="edge">
<title>1&#45;&gt;2</title>
<path fill="none" stroke="black" d="M76.9,-164.3C90.14,-164.3 108.65,-164.3 123.94,-164.3"/>
<polygon fill="black" stroke="black" points="124.37,-167.8 134.37,-164.3 124.37,-160.8 124.37,-167.8"/>
<text text-anchor="middle" x="105.6" y="-168.1" font-family="Times New Roman,serif" font-size="14.00">b, a</text>
</g>
<!-- 2,8 -->
<g id="node4" class="node">
<title>2,8</title>
<ellipse fill="none" stroke="black" cx="236.7" cy="-195.3" rx="22.2" ry="22.2"/>
<text text-anchor="middle" x="236.7" y="-191.6" font-family="Times New Roman,serif" font-size="14.00">2,8</text>
</g>
<!-- 2&#45;&gt;2,8 -->
<g id="edge3" class="edge">
<title>2&#45;&gt;2,8</title>
<path fill="none" stroke="black" d="M169.82,-170.42C180.22,-174.35 194.02,-179.56 206.31,-184.2"/>
<polygon fill="black" stroke="black" points="205.15,-187.5 215.74,-187.76 207.62,-180.95 205.15,-187.5"/>
<text text-anchor="middle" x="192.6" y="-184.1" font-family="Times New Roman,serif" font-size="14.00">b</text>
</g>
<!-- 2,3 -->
<g id="node5" class="node">
<title>2,3</title>
<ellipse fill="none" stroke="black" cx="236.7" cy="-133.3" rx="22.2" ry="22.2"/>
<text text-anchor="middle" x="236.7" y="-129.6" font-family="Times New Roman,serif" font-size="14.00">2,3</text>
</g>
<!-- 2&#45;&gt;2,3 -->
<g id="edge4" class="edge">
<title>2&#45;&gt;2,3</title>
<path fill="none" stroke="black" d="M169.82,-158.17C180.22,-154.25 194.02,-149.03 206.31,-144.39"/>
<polygon fill="black" stroke="black" points="207.62,-147.64 215.74,-140.83 205.15,-141.09 207.62,-147.64"/>
<text text-anchor="middle" x="192.6" y="-155.1" font-family="Times New Roman,serif" font-size="14.00">a</text>
</g>
<!-- 2,8,9 -->
<g id="node6" class="node">
<title>2,8,9</title>
<ellipse fill="none" stroke="black" cx="453.39" cy="-127.3" rx="28.7" ry="28.7"/>
<text text-anchor="middle" x="453.39" y="-123.6" font-family="Times New Roman,serif" font-size="14.00">2,8,9</text>
</g>
<!-- 2,8&#45;&gt;2,8,9 -->
<g id="edge5" class="edge">
<title>2,8&#45;&gt;2,8,9</title>
<path fill="none" stroke="black" d="M258.34,-190.04C284.35,-183.3 330.34,-170.94 369.09,-158.3 384.82,-153.16 401.99,-146.89 416.63,-141.33"/>
<polygon fill="black" stroke="black" points="418.23,-144.47 426.32,-137.62 415.73,-137.93 418.23,-144.47"/>
<text text-anchor="middle" x="335.94" y="-182.1" font-family="Times New Roman,serif" font-size="14.00">b</text>
</g>
<!-- 10,2,3 -->
<g id="node7" class="node">
<title>10,2,3</title>
<ellipse fill="none" stroke="black" cx="335.94" cy="-256.3" rx="33.29" ry="33.29"/>
<text text-anchor="middle" x="335.94" y="-252.6" font-family="Times New Roman,serif" font-size="14.00">10,2,3</text>
</g>
<!-- 2,8&#45;&gt;10,2,3 -->
<g id="edge6" class="edge">
<title>2,8&#45;&gt;10,2,3</title>
<path fill="none" stroke="black" d="M255.99,-206.77C268.02,-214.32 284.17,-224.45 298.73,-233.58"/>
<polygon fill="black" stroke="black" points="297.21,-236.76 307.54,-239.11 300.93,-230.83 297.21,-236.76"/>
<text text-anchor="middle" x="280.8" y="-227.1" font-family="Times New Roman,serif" font-size="14.00">a</text>
</g>
<!-- 2,5,8 -->
<g id="node8" class="node">
<title>2,5,8</title>
<ellipse fill="none" stroke="black" cx="335.94" cy="-74.3" rx="28.7" ry="28.7"/>
<text text-anchor="middle" x="335.94" y="-70.6" font-family="Times New Roman,serif" font-size="14.00">2,5,8</text>
</g>
<!-- 2,3&#45;&gt;2,5,8 -->
<g id="edge7" class="edge">
<title>2,3&#45;&gt;2,5,8</title>
<path fill="none" stroke="black" d="M255.99,-122.2C269.05,-114.27 286.97,-103.4 302.44,-94.01"/>
<polygon fill="black" stroke="black" points="304.48,-96.87 311.21,-88.69 300.85,-90.89 304.48,-96.87"/>
<text text-anchor="middle" x="280.8" y="-113.1" font-family="Times New Roman,serif" font-size="14.00">b</text>
</g>
<!-- 2,3,4 -->
<g id="node9" class="node">
<title>2,3,4</title>
<ellipse fill="none" stroke="black" cx="453.39" cy="-202.3" rx="28.7" ry="28.7"/>
<text text-anchor="middle" x="453.39" y="-198.6" font-family="Times New Roman,serif" font-size="14.00">2,3,4</text>
</g>
<!-- 2,3&#45;&gt;2,3,4 -->
<g id="edge8" class="edge">
<title>2,3&#45;&gt;2,3,4</title>
<path fill="none" stroke="black" d="M258.92,-130.5C285.54,-127.83 332.15,-125.95 369.09,-139.3 380.88,-143.55 404.23,-161.59 423.21,-177.27"/>
<polygon fill="black" stroke="black" points="421.12,-180.08 431.04,-183.81 425.6,-174.71 421.12,-180.08"/>
<text text-anchor="middle" x="335.94" y="-143.1" font-family="Times New Roman,serif" font-size="14.00">a</text>
</g>
<!-- 13,2,8,9 -->
<g id="node10" class="node">
<title>13,2,8,9</title>
<ellipse fill="none" stroke="black" cx="581.88" cy="-178.3" rx="40.09" ry="40.09"/>
<text text-anchor="middle" x="581.88" y="-174.6" font-family="Times New Roman,serif" font-size="14.00">13,2,8,9</text>
</g>
<!-- 2,8,9&#45;&gt;13,2,8,9 -->
<g id="edge9" class="edge">
<title>2,8,9&#45;&gt;13,2,8,9</title>
<path fill="none" stroke="black" d="M480.29,-137.74C495.92,-144.04 516.3,-152.26 534.62,-159.65"/>
<polygon fill="black" stroke="black" points="533.4,-162.93 543.98,-163.42 536.01,-156.43 533.4,-162.93"/>
<text text-anchor="middle" x="515.68" y="-157.1" font-family="Times New Roman,serif" font-size="14.00">b</text>
</g>
<!-- 10,13,2,3 -->
<g id="node11" class="node">
<title>10,13,2,3</title>
<ellipse fill="none" stroke="black" cx="581.88" cy="-76.3" rx="44.39" ry="44.39"/>
<text text-anchor="middle" x="581.88" y="-72.6" font-family="Times New Roman,serif" font-size="14.00">10,13,2,3</text>
</g>
<!-- 2,8,9&#45;&gt;10,13,2,3 -->
<g id="edge10" class="edge">
<title>2,8,9&#45;&gt;10,13,2,3</title>
<path fill="none" stroke="black" d="M480.29,-116.85C494.93,-110.95 513.72,-103.37 531.09,-96.37"/>
<polygon fill="black" stroke="black" points="532.6,-99.54 540.56,-92.55 529.98,-93.04 532.6,-99.54"/>
<text text-anchor="middle" x="515.68" y="-108.1" font-family="Times New Roman,serif" font-size="14.00">a</text>
</g>
<!-- 10,2,3&#45;&gt;2,3,4 -->
<g id="edge12" class="edge">
<title>10,2,3&#45;&gt;2,3,4</title>
<path fill="none" stroke="black" d="M366.37,-242.53C382.01,-235.22 401.32,-226.18 417.69,-218.53"/>
<polygon fill="black" stroke="black" points="419.36,-221.61 426.93,-214.2 416.39,-215.27 419.36,-221.61"/>
<text text-anchor="middle" x="391.09" y="-236.1" font-family="Times New Roman,serif" font-size="14.00">a</text>
</g>
<!-- 11,2,5,8 -->
<g id="node12" class="node">
<title>11,2,5,8</title>
<ellipse fill="none" stroke="black" cx="453.39" cy="-289.3" rx="40.09" ry="40.09"/>
<text text-anchor="middle" x="453.39" y="-285.6" font-family="Times New Roman,serif" font-size="14.00">11,2,5,8</text>
</g>
<!-- 10,2,3&#45;&gt;11,2,5,8 -->
<g id="edge11" class="edge">
<title>10,2,3&#45;&gt;11,2,5,8</title>
<path fill="none" stroke="black" d="M368.18,-265.23C379.46,-268.45 392.46,-272.17 404.81,-275.7"/>
<polygon fill="black" stroke="black" points="403.96,-279.09 414.54,-278.48 405.89,-272.36 403.96,-279.09"/>
<text text-anchor="middle" x="391.09" y="-276.1" font-family="Times New Roman,serif" font-size="14.00">b</text>
</g>
<!-- 2,5,8&#45;&gt;2,8,9 -->
<g id="edge13" class="edge">
<title>2,5,8&#45;&gt;2,8,9</title>
<path fill="none" stroke="black" d="M362.28,-85.93C378.52,-93.38 399.82,-103.16 417.63,-111.34"/>
<polygon fill="black" stroke="black" points="416.56,-114.7 427.11,-115.69 419.48,-108.34 416.56,-114.7"/>
<text text-anchor="middle" x="391.09" y="-105.1" font-family="Times New Roman,serif" font-size="14.00">b</text>
</g>
<!-- 10,2,3,6 -->
<g id="node13" class="node">
<title>10,2,3,6</title>
<ellipse fill="none" stroke="black" cx="453.39" cy="-40.3" rx="40.09" ry="40.09"/>
<text text-anchor="middle" x="453.39" y="-36.6" font-family="Times New Roman,serif" font-size="14.00">10,2,3,6</text>
</g>
<!-- 2,5,8&#45;&gt;10,2,3,6 -->
<g id="edge14" class="edge">
<title>2,5,8&#45;&gt;10,2,3,6</title>
<path fill="none" stroke="black" d="M363.72,-66.41C375.83,-62.84 390.53,-58.52 404.44,-54.42"/>
<polygon fill="black" stroke="black" points="405.78,-57.67 414.39,-51.49 403.8,-50.96 405.78,-57.67"/>
<text text-anchor="middle" x="391.09" y="-64.1" font-family="Times New Roman,serif" font-size="14.00">a</text>
</g>
</g>
</svg>
