<?xml version="1.0" encoding="UTF-8" standalone="no"?>
<!DOCTYPE svg PUBLIC "-//W3C//DTD SVG 1.1//EN"
 "http://www.w3.org/Graphics/SVG/1.1/DTD/svg11.dtd">
<!-- Generated by graphviz version 3.0.0 (20220226.1711)
 -->
<!-- Title: NFA to DFA Pages: 1 -->
<svg width="1554pt" height="482pt"
 viewBox="0.00 0.00 1553.52 482.35" xmlns="http://www.w3.org/2000/svg" xmlns:xlink="http://www.w3.org/1999/xlink">
<g id="graph0" class="graph" transform="scale(1 1) rotate(0) translate(4 478.35)">
<title>NFA to DFA</title>
<polygon fill="white" stroke="transparent" points="-4,4 -4,-478.35 1549.52,-478.35 1549.52,4 -4,4"/>
<!-- 0 -->
<g id="node1" class="node">
<title>0</title>
<ellipse fill="black" stroke="black" cx="1.8" cy="-185.35" rx="1.8" ry="1.8"/>
</g>
<!-- 1 -->
<g id="node2" class="node">
<title>1</title>
<ellipse fill="none" stroke="black" cx="58.6" cy="-185.35" rx="18" ry="18"/>
<text text-anchor="middle" x="58.6" y="-181.65" font-family="Times New Roman,serif" font-size="14.00">1</text>
</g>
<!-- 0&#45;&gt;1 -->
<g id="edge1" class="edge">
<title>0&#45;&gt;1</title>
<path fill="none" stroke="black" d="M3.75,-185.35C7.11,-185.35 18.87,-185.35 30.55,-185.35"/>
<polygon fill="black" stroke="black" points="30.58,-188.85 40.58,-185.35 30.58,-181.85 30.58,-188.85"/>
</g>
<!-- 2 -->
<g id="node3" class="node">
<title>2</title>
<ellipse fill="none" stroke="black" cx="152.6" cy="-185.35" rx="18" ry="18"/>
<text text-anchor="middle" x="152.6" y="-181.65" font-family="Times New Roman,serif" font-size="14.00">2</text>
</g>
<!-- 1&#45;&gt;2 -->
<g id="edge2" class="edge">
<title>1&#45;&gt;2</title>
<path fill="none" stroke="black" d="M76.9,-185.35C90.14,-185.35 108.65,-185.35 123.94,-185.35"/>
<polygon fill="black" stroke="black" points="124.37,-188.85 134.37,-185.35 124.37,-181.85 124.37,-188.85"/>
<text text-anchor="middle" x="105.6" y="-189.15" font-family="Times New Roman,serif" font-size="14.00">b, a</text>
</g>
<!-- 2,8 -->
<g id="node4" class="node">
<title>2,8</title>
<ellipse fill="none" stroke="black" cx="236.7" cy="-145.35" rx="22.2" ry="22.2"/>
<text text-anchor="middle" x="236.7" y="-141.65" font-family="Times New Roman,serif" font-size="14.00">2,8</text>
</g>
<!-- 2&#45;&gt;2,8 -->
<g id="edge3" class="edge">
<title>2&#45;&gt;2,8</title>
<path fill="none" stroke="black" d="M169.04,-177.82C179.78,-172.59 194.4,-165.47 207.21,-159.22"/>
<polygon fill="black" stroke="black" points="209.11,-162.19 216.57,-154.67 206.05,-155.9 209.11,-162.19"/>
<text text-anchor="middle" x="192.6" y="-171.15" font-family="Times New Roman,serif" font-size="14.00">b</text>
</g>
<!-- 2,3 -->
<g id="node5" class="node">
<title>2,3</title>
<ellipse fill="none" stroke="black" cx="236.7" cy="-248.35" rx="22.2" ry="22.2"/>
<text text-anchor="middle" x="236.7" y="-244.65" font-family="Times New Roman,serif" font-size="14.00">2,3</text>
</g>
<!-- 2&#45;&gt;2,3 -->
<g id="edge4" class="edge">
<title>2&#45;&gt;2,3</title>
<path fill="none" stroke="black" d="M167.53,-196.03C179.2,-204.99 196.16,-218 210.24,-228.81"/>
<polygon fill="black" stroke="black" points="208.5,-231.89 218.57,-235.2 212.76,-226.33 208.5,-231.89"/>
<text text-anchor="middle" x="192.6" y="-220.15" font-family="Times New Roman,serif" font-size="14.00">a</text>
</g>
<!-- 2,8,9 -->
<g id="node6" class="node">
<title>2,8,9</title>
<ellipse fill="none" stroke="black" cx="584.48" cy="-109.35" rx="28.7" ry="28.7"/>
<text text-anchor="middle" x="584.48" y="-105.65" font-family="Times New Roman,serif" font-size="14.00">2,8,9</text>
</g>
<!-- 2,8&#45;&gt;2,8,9 -->
<g id="edge5" class="edge">
<title>2,8&#45;&gt;2,8,9</title>
<path fill="none" stroke="black" d="M254.26,-131.76C283.88,-108.48 348.88,-61.96 413.09,-46.35 447.9,-37.88 459.53,-35.56 493.68,-46.35 516.78,-53.64 539.09,-69.24 555.7,-83.09"/>
<polygon fill="black" stroke="black" points="553.51,-85.82 563.37,-89.7 558.08,-80.52 553.51,-85.82"/>
<text text-anchor="middle" x="391.09" y="-58.15" font-family="Times New Roman,serif" font-size="14.00">b</text>
</g>
<!-- 10,2,3 -->
<g id="node7" class="node">
<title>10,2,3</title>
<ellipse fill="none" stroke="black" cx="335.94" cy="-145.35" rx="33.29" ry="33.29"/>
<text text-anchor="middle" x="335.94" y="-141.65" font-family="Times New Roman,serif" font-size="14.00">10,2,3</text>
</g>
<!-- 2,8&#45;&gt;10,2,3 -->
<g id="edge6" class="edge">
<title>2,8&#45;&gt;10,2,3</title>
<path fill="none" stroke="black" d="M258.8,-145.35C268.74,-145.35 280.96,-145.35 292.68,-145.35"/>
<polygon fill="black" stroke="black" points="292.78,-148.85 302.78,-145.35 292.78,-141.85 292.78,-148.85"/>
<text text-anchor="middle" x="280.8" y="-149.15" font-family="Times New Roman,serif" font-size="14.00">a</text>
</g>
<!-- 2,5,8 -->
<g id="node8" class="node">
<title>2,5,8</title>
<ellipse fill="none" stroke="black" cx="335.94" cy="-248.35" rx="28.7" ry="28.7"/>
<text text-anchor="middle" x="335.94" y="-244.65" font-family="Times New Roman,serif" font-size="14.00">2,5,8</text>
</g>
<!-- 2,3&#45;&gt;2,5,8 -->
<g id="edge7" class="edge">
<title>2,3&#45;&gt;2,5,8</title>
<path fill="none" stroke="black" d="M258.8,-248.35C269.99,-248.35 284.09,-248.35 297.11,-248.35"/>
<polygon fill="black" stroke="black" points="297.23,-251.85 307.23,-248.35 297.23,-244.85 297.23,-251.85"/>
<text text-anchor="middle" x="280.8" y="-252.15" font-family="Times New Roman,serif" font-size="14.00">b</text>
</g>
<!-- 2,3,4 -->
<g id="node9" class="node">
<title>2,3,4</title>
<ellipse fill="none" stroke="black" cx="584.48" cy="-363.35" rx="28.7" ry="28.7"/>
<text text-anchor="middle" x="584.48" y="-359.65" font-family="Times New Roman,serif" font-size="14.00">2,3,4</text>
</g>
<!-- 2,3&#45;&gt;2,3,4 -->
<g id="edge8" class="edge">
<title>2,3&#45;&gt;2,3,4</title>
<path fill="none" stroke="black" d="M256.09,-259.38C269.06,-267.08 286.89,-277.53 302.8,-286.35 351.23,-313.2 360.14,-328.11 413.09,-344.35 457.19,-357.87 510.34,-361.98 545.42,-363.12"/>
<polygon fill="black" stroke="black" points="545.61,-366.63 555.69,-363.39 545.79,-359.63 545.61,-366.63"/>
<text text-anchor="middle" x="391.09" y="-341.15" font-family="Times New Roman,serif" font-size="14.00">a</text>
</g>
<!-- 13,2,8,9 -->
<g id="node10" class="node">
<title>13,2,8,9</title>
<ellipse fill="none" stroke="black" cx="715.57" cy="-235.35" rx="40.09" ry="40.09"/>
<text text-anchor="middle" x="715.57" y="-231.65" font-family="Times New Roman,serif" font-size="14.00">13,2,8,9</text>
</g>
<!-- 2,8,9&#45;&gt;13,2,8,9 -->
<g id="edge9" class="edge">
<title>2,8,9&#45;&gt;13,2,8,9</title>
<path fill="none" stroke="black" d="M605.65,-129.03C625.1,-148.02 654.98,-177.18 678.52,-200.16"/>
<polygon fill="black" stroke="black" points="676.32,-202.9 685.92,-207.38 681.21,-197.89 676.32,-202.9"/>
<text text-anchor="middle" x="653.27" y="-179.15" font-family="Times New Roman,serif" font-size="14.00">b</text>
</g>
<!-- 10,13,2,3 -->
<g id="node11" class="node">
<title>10,13,2,3</title>
<ellipse fill="none" stroke="black" cx="843.06" cy="-209.35" rx="44.39" ry="44.39"/>
<text text-anchor="middle" x="843.06" y="-205.65" font-family="Times New Roman,serif" font-size="14.00">10,13,2,3</text>
</g>
<!-- 2,8,9&#45;&gt;10,13,2,3 -->
<g id="edge10" class="edge">
<title>2,8,9&#45;&gt;10,13,2,3</title>
<path fill="none" stroke="black" d="M611.66,-118.27C645.29,-129.86 705.34,-151.04 755.87,-171.35 767.96,-176.21 780.88,-181.72 792.94,-187.02"/>
<polygon fill="black" stroke="black" points="791.83,-190.35 802.39,-191.2 794.66,-183.95 791.83,-190.35"/>
<text text-anchor="middle" x="715.57" y="-175.15" font-family="Times New Roman,serif" font-size="14.00">a</text>
</g>
<!-- 10,2,3&#45;&gt;2,3,4 -->
<g id="edge12" class="edge">
<title>10,2,3&#45;&gt;2,3,4</title>
<path fill="none" stroke="black" d="M369.2,-146.93C409.43,-149.53 475.2,-156.04 493.68,-171.35 537.43,-207.59 512.52,-240.42 537.68,-291.35 544.5,-305.13 553.31,-319.58 561.39,-331.88"/>
<polygon fill="black" stroke="black" points="558.63,-334.05 567.1,-340.42 564.45,-330.16 558.63,-334.05"/>
<text text-anchor="middle" x="453.39" y="-175.15" font-family="Times New Roman,serif" font-size="14.00">a</text>
</g>
<!-- 11,2,5,8 -->
<g id="node12" class="node">
<title>11,2,5,8</title>
<ellipse fill="none" stroke="black" cx="453.39" cy="-95.35" rx="40.09" ry="40.09"/>
<text text-anchor="middle" x="453.39" y="-91.65" font-family="Times New Roman,serif" font-size="14.00">11,2,5,8</text>
</g>
<!-- 10,2,3&#45;&gt;11,2,5,8 -->
<g id="edge11" class="edge">
<title>10,2,3&#45;&gt;11,2,5,8</title>
<path fill="none" stroke="black" d="M366.67,-132.47C378.94,-127.16 393.43,-120.88 406.98,-115.01"/>
<polygon fill="black" stroke="black" points="408.38,-118.22 416.16,-111.03 405.6,-111.8 408.38,-118.22"/>
<text text-anchor="middle" x="391.09" y="-126.15" font-family="Times New Roman,serif" font-size="14.00">b</text>
</g>
<!-- 2,5,8&#45;&gt;2,8,9 -->
<g id="edge13" class="edge">
<title>2,5,8&#45;&gt;2,8,9</title>
<path fill="none" stroke="black" d="M363.84,-241.75C396.21,-233.08 451.48,-215.88 493.68,-190.35 517.36,-176.02 540.46,-154.97 557.3,-137.92"/>
<polygon fill="black" stroke="black" points="560.14,-140.03 564.58,-130.41 555.11,-135.16 560.14,-140.03"/>
<text text-anchor="middle" x="453.39" y="-230.15" font-family="Times New Roman,serif" font-size="14.00">b</text>
</g>
<!-- 10,2,3,6 -->
<g id="node13" class="node">
<title>10,2,3,6</title>
<ellipse fill="none" stroke="black" cx="453.39" cy="-295.35" rx="40.09" ry="40.09"/>
<text text-anchor="middle" x="453.39" y="-291.65" font-family="Times New Roman,serif" font-size="14.00">10,2,3,6</text>
</g>
<!-- 2,5,8&#45;&gt;10,2,3,6 -->
<g id="edge14" class="edge">
<title>2,5,8&#45;&gt;10,2,3,6</title>
<path fill="none" stroke="black" d="M362.85,-258.89C375.61,-264.09 391.39,-270.51 406.13,-276.51"/>
<polygon fill="black" stroke="black" points="405.04,-279.85 415.62,-280.38 407.68,-273.36 405.04,-279.85"/>
<text text-anchor="middle" x="391.09" y="-275.15" font-family="Times New Roman,serif" font-size="14.00">a</text>
</g>
<!-- 13,2,5,8 -->
<g id="node14" class="node">
<title>13,2,5,8</title>
<ellipse fill="none" stroke="black" cx="1140.35" cy="-414.35" rx="40.09" ry="40.09"/>
<text text-anchor="middle" x="1140.35" y="-410.65" font-family="Times New Roman,serif" font-size="14.00">13,2,5,8</text>
</g>
<!-- 2,3,4&#45;&gt;13,2,5,8 -->
<g id="edge15" class="edge">
<title>2,3,4&#45;&gt;13,2,5,8</title>
<path fill="none" stroke="black" d="M601.77,-386.58C623.8,-415 665.97,-459.35 714.57,-459.35 714.57,-459.35 714.57,-459.35 983.61,-459.35 1021.83,-459.35 1063.32,-446.68 1093.86,-434.79"/>
<polygon fill="black" stroke="black" points="1095.4,-437.95 1103.38,-430.97 1092.79,-431.45 1095.4,-437.95"/>
<text text-anchor="middle" x="843.06" y="-463.15" font-family="Times New Roman,serif" font-size="14.00">b</text>
</g>
<!-- 13,2,3,4 -->
<g id="node15" class="node">
<title>13,2,3,4</title>
<ellipse fill="none" stroke="black" cx="982.61" cy="-320.35" rx="40.09" ry="40.09"/>
<text text-anchor="middle" x="982.61" y="-316.65" font-family="Times New Roman,serif" font-size="14.00">13,2,3,4</text>
</g>
<!-- 2,3,4&#45;&gt;13,2,3,4 -->
<g id="edge16" class="edge">
<title>2,3,4&#45;&gt;13,2,3,4</title>
<path fill="none" stroke="black" d="M611.13,-374.6C668.3,-397.9 809.27,-445.49 913.26,-398.35 929.85,-390.83 944,-377.07 955.04,-363.18"/>
<polygon fill="black" stroke="black" points="957.96,-365.13 961.19,-355.04 952.37,-360.91 957.96,-365.13"/>
<text text-anchor="middle" x="777.37" y="-420.15" font-family="Times New Roman,serif" font-size="14.00">a</text>
</g>
<!-- 13,2,8,9&#45;&gt;13,2,8,9 -->
<g id="edge17" class="edge">
<title>13,2,8,9&#45;&gt;13,2,8,9</title>
<path fill="none" stroke="black" d="M704.38,-274.3C704.87,-285.24 708.6,-293.64 715.57,-293.64 720.15,-293.64 723.33,-290.03 725.11,-284.45"/>
<polygon fill="black" stroke="black" points="728.61,-284.74 726.77,-274.3 721.7,-283.61 728.61,-284.74"/>
<text text-anchor="middle" x="715.57" y="-297.44" font-family="Times New Roman,serif" font-size="14.00">b</text>
</g>
<!-- 13,2,8,9&#45;&gt;10,13,2,3 -->
<g id="edge18" class="edge">
<title>13,2,8,9&#45;&gt;10,13,2,3</title>
<path fill="none" stroke="black" d="M755.25,-227.33C766.05,-225.09 777.98,-222.62 789.45,-220.25"/>
<polygon fill="black" stroke="black" points="790.28,-223.65 799.36,-218.19 788.86,-216.79 790.28,-223.65"/>
<text text-anchor="middle" x="777.37" y="-226.15" font-family="Times New Roman,serif" font-size="14.00">a</text>
</g>
<!-- 10,13,2,3&#45;&gt;13,2,3,4 -->
<g id="edge20" class="edge">
<title>10,13,2,3&#45;&gt;13,2,3,4</title>
<path fill="none" stroke="black" d="M878.06,-236.78C897.73,-252.65 922.54,-272.68 942.94,-289.14"/>
<polygon fill="black" stroke="black" points="940.83,-291.94 950.81,-295.5 945.23,-286.49 940.83,-291.94"/>
<text text-anchor="middle" x="909.26" y="-268.15" font-family="Times New Roman,serif" font-size="14.00">a</text>
</g>
<!-- 11,13,2,5,8 -->
<g id="node16" class="node">
<title>11,13,2,5,8</title>
<ellipse fill="none" stroke="black" cx="982.61" cy="-210.35" rx="51.19" ry="51.19"/>
<text text-anchor="middle" x="982.61" y="-206.65" font-family="Times New Roman,serif" font-size="14.00">11,13,2,5,8</text>
</g>
<!-- 10,13,2,3&#45;&gt;11,13,2,5,8 -->
<g id="edge19" class="edge">
<title>10,13,2,3&#45;&gt;11,13,2,5,8</title>
<path fill="none" stroke="black" d="M887.58,-209.66C898.19,-209.74 909.72,-209.82 920.96,-209.9"/>
<polygon fill="black" stroke="black" points="921.15,-213.41 931.17,-209.98 921.2,-206.41 921.15,-213.41"/>
<text text-anchor="middle" x="909.26" y="-213.15" font-family="Times New Roman,serif" font-size="14.00">b</text>
</g>
<!-- 11,2,5,8&#45;&gt;2,8,9 -->
<g id="edge21" class="edge">
<title>11,2,5,8&#45;&gt;2,8,9</title>
<path fill="none" stroke="black" d="M493.47,-99.58C510.03,-101.38 529.25,-103.46 545.67,-105.24"/>
<polygon fill="black" stroke="black" points="545.67,-108.77 555.99,-106.36 546.43,-101.81 545.67,-108.77"/>
<text text-anchor="middle" x="515.68" y="-106.15" font-family="Times New Roman,serif" font-size="14.00">b</text>
</g>
<!-- 10,12,2,3,6 -->
<g id="node17" class="node">
<title>10,12,2,3,6</title>
<ellipse fill="none" stroke="black" cx="1140.35" cy="-52.35" rx="51.19" ry="51.19"/>
<text text-anchor="middle" x="1140.35" y="-48.65" font-family="Times New Roman,serif" font-size="14.00">10,12,2,3,6</text>
</g>
<!-- 11,2,5,8&#45;&gt;10,12,2,3,6 -->
<g id="edge22" class="edge">
<title>11,2,5,8&#45;&gt;10,12,2,3,6</title>
<path fill="none" stroke="black" d="M489.51,-76.86C514.9,-65.21 550.41,-52.35 583.48,-52.35 583.48,-52.35 583.48,-52.35 983.61,-52.35 1014.91,-52.35 1049.76,-52.35 1078.53,-52.35"/>
<polygon fill="black" stroke="black" points="1078.84,-55.85 1088.84,-52.35 1078.84,-48.85 1078.84,-55.85"/>
<text text-anchor="middle" x="777.37" y="-56.15" font-family="Times New Roman,serif" font-size="14.00">a</text>
</g>
<!-- 10,2,3,6&#45;&gt;2,3,4 -->
<g id="edge24" class="edge">
<title>10,2,3,6&#45;&gt;2,3,4</title>
<path fill="none" stroke="black" d="M489.32,-313.75C508.1,-323.64 531.15,-335.78 549.74,-345.58"/>
<polygon fill="black" stroke="black" points="548.27,-348.75 558.74,-350.32 551.53,-342.56 548.27,-348.75"/>
<text text-anchor="middle" x="515.68" y="-333.15" font-family="Times New Roman,serif" font-size="14.00">a</text>
</g>
<!-- 11,2,5,7,8 -->
<g id="node18" class="node">
<title>11,2,5,7,8</title>
<ellipse fill="none" stroke="black" cx="584.48" cy="-235.35" rx="46.59" ry="46.59"/>
<text text-anchor="middle" x="584.48" y="-231.65" font-family="Times New Roman,serif" font-size="14.00">11,2,5,7,8</text>
</g>
<!-- 10,2,3,6&#45;&gt;11,2,5,7,8 -->
<g id="edge23" class="edge">
<title>10,2,3,6&#45;&gt;11,2,5,7,8</title>
<path fill="none" stroke="black" d="M490.35,-278.63C503.44,-272.55 518.51,-265.54 532.65,-258.97"/>
<polygon fill="black" stroke="black" points="534.19,-262.11 541.78,-254.73 531.24,-255.77 534.19,-262.11"/>
<text text-anchor="middle" x="515.68" y="-270.15" font-family="Times New Roman,serif" font-size="14.00">b</text>
</g>
<!-- 13,2,5,8&#45;&gt;13,2,8,9 -->
<g id="edge25" class="edge">
<title>13,2,5,8&#45;&gt;13,2,8,9</title>
<path fill="none" stroke="black" d="M1100.01,-418.71C1057.12,-421.98 987.13,-422.88 931.26,-402.35 857.41,-375.2 788.74,-312.64 749.8,-272.27"/>
<polygon fill="black" stroke="black" points="752.31,-269.83 742.88,-265 747.24,-274.66 752.31,-269.83"/>
<text text-anchor="middle" x="909.26" y="-398.15" font-family="Times New Roman,serif" font-size="14.00">b</text>
</g>
<!-- 10,13,2,3,6 -->
<g id="node19" class="node">
<title>10,13,2,3,6</title>
<ellipse fill="none" stroke="black" cx="1316.28" cy="-379.35" rx="51.19" ry="51.19"/>
<text text-anchor="middle" x="1316.28" y="-375.65" font-family="Times New Roman,serif" font-size="14.00">10,13,2,3,6</text>
</g>
<!-- 13,2,5,8&#45;&gt;10,13,2,3,6 -->
<g id="edge26" class="edge">
<title>13,2,5,8&#45;&gt;10,13,2,3,6</title>
<path fill="none" stroke="black" d="M1179.95,-406.58C1202.3,-402.08 1230.91,-396.32 1256.06,-391.26"/>
<polygon fill="black" stroke="black" points="1256.75,-394.69 1265.86,-389.29 1255.37,-387.83 1256.75,-394.69"/>
<text text-anchor="middle" x="1224.74" y="-401.15" font-family="Times New Roman,serif" font-size="14.00">a</text>
</g>
<!-- 13,2,3,4&#45;&gt;13,2,5,8 -->
<g id="edge27" class="edge">
<title>13,2,3,4&#45;&gt;13,2,5,8</title>
<path fill="none" stroke="black" d="M1017.4,-340.74C1040.58,-354.74 1071.54,-373.42 1096.47,-388.46"/>
<polygon fill="black" stroke="black" points="1094.98,-391.66 1105.35,-393.83 1098.6,-385.66 1094.98,-391.66"/>
<text text-anchor="middle" x="1055.95" y="-368.15" font-family="Times New Roman,serif" font-size="14.00">b</text>
</g>
<!-- 13,2,3,4&#45;&gt;13,2,3,4 -->
<g id="edge28" class="edge">
<title>13,2,3,4&#45;&gt;13,2,3,4</title>
<path fill="none" stroke="black" d="M969.13,-358.47C969.54,-369.82 974.03,-378.64 982.61,-378.64 988.37,-378.64 992.29,-374.66 994.36,-368.6"/>
<polygon fill="black" stroke="black" points="997.86,-368.92 996.08,-358.47 990.95,-367.75 997.86,-368.92"/>
<text text-anchor="middle" x="982.61" y="-382.44" font-family="Times New Roman,serif" font-size="14.00">a</text>
</g>
<!-- 11,13,2,5,8&#45;&gt;13,2,8,9 -->
<g id="edge29" class="edge">
<title>11,13,2,5,8&#45;&gt;13,2,8,9</title>
<path fill="none" stroke="black" d="M949.92,-249.99C939.45,-260.22 926.94,-269.88 913.26,-275.35 862.98,-295.44 801.27,-276.4 760.53,-258.33"/>
<polygon fill="black" stroke="black" points="761.95,-255.14 751.41,-254.15 759.03,-261.5 761.95,-255.14"/>
<text text-anchor="middle" x="843.06" y="-287.15" font-family="Times New Roman,serif" font-size="14.00">b</text>
</g>
<!-- 10,12,13,2,3,6 -->
<g id="node20" class="node">
<title>10,12,13,2,3,6</title>
<ellipse fill="none" stroke="black" cx="1140.35" cy="-185.35" rx="62.29" ry="62.29"/>
<text text-anchor="middle" x="1140.35" y="-181.65" font-family="Times New Roman,serif" font-size="14.00">10,12,13,2,3,6</text>
</g>
<!-- 11,13,2,5,8&#45;&gt;10,12,13,2,3,6 -->
<g id="edge30" class="edge">
<title>11,13,2,5,8&#45;&gt;10,12,13,2,3,6</title>
<path fill="none" stroke="black" d="M1033.74,-202.3C1044.81,-200.52 1056.75,-198.6 1068.47,-196.72"/>
<polygon fill="black" stroke="black" points="1069.37,-200.12 1078.68,-195.08 1068.26,-193.21 1069.37,-200.12"/>
<text text-anchor="middle" x="1055.95" y="-202.15" font-family="Times New Roman,serif" font-size="14.00">a</text>
</g>
<!-- 11,12,13,2,5,7,8 -->
<g id="node21" class="node">
<title>11,12,13,2,5,7,8</title>
<ellipse fill="none" stroke="black" cx="1316.28" cy="-223.35" rx="69.59" ry="69.59"/>
<text text-anchor="middle" x="1316.28" y="-219.65" font-family="Times New Roman,serif" font-size="14.00">11,12,13,2,5,7,8</text>
</g>
<!-- 10,12,2,3,6&#45;&gt;11,12,13,2,5,7,8 -->
<g id="edge31" class="edge">
<title>10,12,2,3,6&#45;&gt;11,12,13,2,5,7,8</title>
<path fill="none" stroke="black" d="M1188.63,-70.25C1202.99,-77.52 1217.84,-87.14 1228.74,-99.35 1243.09,-115.41 1235.53,-125.95 1246.74,-144.35 1251.09,-151.48 1256.09,-158.6 1261.36,-165.48"/>
<polygon fill="black" stroke="black" points="1258.71,-167.76 1267.66,-173.43 1264.2,-163.42 1258.71,-167.76"/>
<text text-anchor="middle" x="1224.74" y="-103.15" font-family="Times New Roman,serif" font-size="14.00">b</text>
</g>
<!-- 12,13,2,3,4 -->
<g id="node22" class="node">
<title>12,13,2,3,4</title>
<ellipse fill="none" stroke="black" cx="1316.28" cy="-51.35" rx="51.19" ry="51.19"/>
<text text-anchor="middle" x="1316.28" y="-47.65" font-family="Times New Roman,serif" font-size="14.00">12,13,2,3,4</text>
</g>
<!-- 10,12,2,3,6&#45;&gt;12,13,2,3,4 -->
<g id="edge32" class="edge">
<title>10,12,2,3,6&#45;&gt;12,13,2,3,4</title>
<path fill="none" stroke="black" d="M1192.12,-52.05C1211.68,-51.94 1234.21,-51.81 1254.61,-51.69"/>
<polygon fill="black" stroke="black" points="1254.76,-55.19 1264.74,-51.64 1254.72,-48.19 1254.76,-55.19"/>
<text text-anchor="middle" x="1224.74" y="-56.15" font-family="Times New Roman,serif" font-size="14.00">a</text>
</g>
<!-- 11,2,5,7,8&#45;&gt;13,2,8,9 -->
<g id="edge33" class="edge">
<title>11,2,5,7,8&#45;&gt;13,2,8,9</title>
<path fill="none" stroke="black" d="M631.36,-235.35C642.34,-235.35 654.12,-235.35 665.25,-235.35"/>
<polygon fill="black" stroke="black" points="665.26,-238.85 675.26,-235.35 665.26,-231.85 665.26,-238.85"/>
<text text-anchor="middle" x="653.27" y="-239.15" font-family="Times New Roman,serif" font-size="14.00">b</text>
</g>
<!-- 11,2,5,7,8&#45;&gt;10,12,13,2,3,6 -->
<g id="edge34" class="edge">
<title>11,2,5,7,8&#45;&gt;10,12,13,2,3,6</title>
<path fill="none" stroke="black" d="M624.92,-211.02C666.41,-187.14 734.48,-152.7 798.87,-141.35 901.84,-123.18 931.29,-130.5 1033.95,-150.35 1046.42,-152.76 1059.46,-156.24 1071.94,-160.1"/>
<polygon fill="black" stroke="black" points="1071.21,-163.54 1081.8,-163.25 1073.34,-156.87 1071.21,-163.54"/>
<text text-anchor="middle" x="843.06" y="-145.15" font-family="Times New Roman,serif" font-size="14.00">a</text>
</g>
<!-- 10,13,2,3,6&#45;&gt;13,2,3,4 -->
<g id="edge36" class="edge">
<title>10,13,2,3,6&#45;&gt;13,2,3,4</title>
<path fill="none" stroke="black" d="M1266.82,-365.54C1247.06,-360.26 1223.92,-354.51 1202.74,-350.35 1144.89,-338.97 1077.61,-330.45 1033.01,-325.45"/>
<polygon fill="black" stroke="black" points="1033.35,-321.97 1023.02,-324.35 1032.58,-328.92 1033.35,-321.97"/>
<text text-anchor="middle" x="1140.35" y="-354.15" font-family="Times New Roman,serif" font-size="14.00">a</text>
</g>
<!-- 11,13,2,5,7,8 -->
<g id="node23" class="node">
<title>11,13,2,5,7,8</title>
<ellipse fill="none" stroke="black" cx="1487.67" cy="-379.35" rx="57.69" ry="57.69"/>
<text text-anchor="middle" x="1487.67" y="-375.65" font-family="Times New Roman,serif" font-size="14.00">11,13,2,5,7,8</text>
</g>
<!-- 10,13,2,3,6&#45;&gt;11,13,2,5,7,8 -->
<g id="edge35" class="edge">
<title>10,13,2,3,6&#45;&gt;11,13,2,5,7,8</title>
<path fill="none" stroke="black" d="M1367.65,-379.35C1383.95,-379.35 1402.3,-379.35 1419.62,-379.35"/>
<polygon fill="black" stroke="black" points="1419.67,-382.85 1429.67,-379.35 1419.67,-375.85 1419.67,-382.85"/>
<text text-anchor="middle" x="1407.83" y="-383.15" font-family="Times New Roman,serif" font-size="14.00">b</text>
</g>
<!-- 10,12,13,2,3,6&#45;&gt;11,12,13,2,5,7,8 -->
<g id="edge37" class="edge">
<title>10,12,13,2,3,6&#45;&gt;11,12,13,2,5,7,8</title>
<path fill="none" stroke="black" d="M1201.69,-198.53C1213.54,-201.12 1226.11,-203.86 1238.41,-206.55"/>
<polygon fill="black" stroke="black" points="1237.69,-209.98 1248.2,-208.69 1239.18,-203.14 1237.69,-209.98"/>
<text text-anchor="middle" x="1224.74" y="-208.15" font-family="Times New Roman,serif" font-size="14.00">b</text>
</g>
<!-- 10,12,13,2,3,6&#45;&gt;12,13,2,3,4 -->
<g id="edge38" class="edge">
<title>10,12,13,2,3,6&#45;&gt;12,13,2,3,4</title>
<path fill="none" stroke="black" d="M1190.26,-147.66C1214.36,-129.09 1243.33,-106.78 1267.3,-88.31"/>
<polygon fill="black" stroke="black" points="1269.44,-91.08 1275.23,-82.2 1265.17,-85.53 1269.44,-91.08"/>
<text text-anchor="middle" x="1224.74" y="-126.15" font-family="Times New Roman,serif" font-size="14.00">a</text>
</g>
<!-- 11,12,13,2,5,7,8&#45;&gt;10,12,13,2,3,6 -->
<g id="edge40" class="edge">
<title>11,12,13,2,5,7,8&#45;&gt;10,12,13,2,3,6</title>
<path fill="none" stroke="black" d="M1254.49,-191.33C1246.04,-188.05 1237.31,-185.23 1228.74,-183.35 1223.68,-182.23 1218.42,-181.45 1213.1,-180.94"/>
<polygon fill="black" stroke="black" points="1213.04,-177.42 1202.82,-180.25 1212.57,-184.41 1213.04,-177.42"/>
<text text-anchor="middle" x="1224.74" y="-187.15" font-family="Times New Roman,serif" font-size="14.00">a</text>
</g>
<!-- 12,13,2,8,9 -->
<g id="node24" class="node">
<title>12,13,2,8,9</title>
<ellipse fill="none" stroke="black" cx="1487.67" cy="-223.35" rx="51.19" ry="51.19"/>
<text text-anchor="middle" x="1487.67" y="-219.65" font-family="Times New Roman,serif" font-size="14.00">12,13,2,8,9</text>
</g>
<!-- 11,12,13,2,5,7,8&#45;&gt;12,13,2,8,9 -->
<g id="edge39" class="edge">
<title>11,12,13,2,5,7,8&#45;&gt;12,13,2,8,9</title>
<path fill="none" stroke="black" d="M1386.18,-223.35C1399.41,-223.35 1413.17,-223.35 1426.1,-223.35"/>
<polygon fill="black" stroke="black" points="1426.28,-226.85 1436.28,-223.35 1426.28,-219.85 1426.28,-226.85"/>
<text text-anchor="middle" x="1407.83" y="-227.15" font-family="Times New Roman,serif" font-size="14.00">b</text>
</g>
<!-- 12,13,2,3,4&#45;&gt;12,13,2,3,4 -->
<g id="edge42" class="edge">
<title>12,13,2,3,4&#45;&gt;12,13,2,3,4</title>
<path fill="none" stroke="black" d="M1299.67,-99.95C1300.9,-111.84 1306.44,-120.69 1316.28,-120.69 1323.05,-120.69 1327.78,-116.51 1330.48,-110.03"/>
<polygon fill="black" stroke="black" points="1333.97,-110.49 1332.89,-99.95 1327.16,-108.86 1333.97,-110.49"/>
<text text-anchor="middle" x="1316.28" y="-124.49" font-family="Times New Roman,serif" font-size="14.00">a</text>
</g>
<!-- 12,13,2,5,8 -->
<g id="node25" class="node">
<title>12,13,2,5,8</title>
<ellipse fill="none" stroke="black" cx="1487.67" cy="-51.35" rx="51.19" ry="51.19"/>
<text text-anchor="middle" x="1487.67" y="-47.65" font-family="Times New Roman,serif" font-size="14.00">12,13,2,5,8</text>
</g>
<!-- 12,13,2,3,4&#45;&gt;12,13,2,5,8 -->
<g id="edge41" class="edge">
<title>12,13,2,3,4&#45;&gt;12,13,2,5,8</title>
<path fill="none" stroke="black" d="M1367.65,-51.35C1386,-51.35 1406.94,-51.35 1426.09,-51.35"/>
<polygon fill="black" stroke="black" points="1426.21,-54.85 1436.21,-51.35 1426.21,-47.85 1426.21,-54.85"/>
<text text-anchor="middle" x="1407.83" y="-55.15" font-family="Times New Roman,serif" font-size="14.00">b</text>
</g>
</g>
</svg>
