<?xml version="1.0" encoding="UTF-8" standalone="no"?>
<!DOCTYPE svg PUBLIC "-//W3C//DTD SVG 1.1//EN"
 "http://www.w3.org/Graphics/SVG/1.1/DTD/svg11.dtd">
<!-- Generated by graphviz version 3.0.0 (20220226.1711)
 -->
<!-- Title: NFA to DFA Pages: 1 -->
<svg width="1424pt" height="596pt"
 viewBox="0.00 0.00 1424.02 595.94" xmlns="http://www.w3.org/2000/svg" xmlns:xlink="http://www.w3.org/1999/xlink">
<g id="graph0" class="graph" transform="scale(1 1) rotate(0) translate(4 591.94)">
<title>NFA to DFA</title>
<polygon fill="white" stroke="transparent" points="-4,4 -4,-591.94 1420.02,-591.94 1420.02,4 -4,4"/>
<!-- 0 -->
<g id="node1" class="node">
<title>0</title>
<ellipse fill="black" stroke="black" cx="1.8" cy="-209.39" rx="1.8" ry="1.8"/>
</g>
<!-- 1 -->
<g id="node2" class="node">
<title>1</title>
<ellipse fill="none" stroke="black" cx="58.6" cy="-209.39" rx="18" ry="18"/>
<text text-anchor="middle" x="58.6" y="-205.69" font-family="Times New Roman,serif" font-size="14.00">1</text>
</g>
<!-- 0&#45;&gt;1 -->
<g id="edge1" class="edge">
<title>0&#45;&gt;1</title>
<path fill="none" stroke="black" d="M3.75,-209.39C7.11,-209.39 18.87,-209.39 30.55,-209.39"/>
<polygon fill="black" stroke="black" points="30.58,-212.89 40.58,-209.39 30.58,-205.89 30.58,-212.89"/>
</g>
<!-- 2 -->
<g id="node3" class="node">
<title>2</title>
<ellipse fill="none" stroke="black" cx="152.6" cy="-209.39" rx="18" ry="18"/>
<text text-anchor="middle" x="152.6" y="-205.69" font-family="Times New Roman,serif" font-size="14.00">2</text>
</g>
<!-- 1&#45;&gt;2 -->
<g id="edge2" class="edge">
<title>1&#45;&gt;2</title>
<path fill="none" stroke="black" d="M76.9,-209.39C90.14,-209.39 108.65,-209.39 123.94,-209.39"/>
<polygon fill="black" stroke="black" points="124.37,-212.89 134.37,-209.39 124.37,-205.89 124.37,-212.89"/>
<text text-anchor="middle" x="105.6" y="-213.19" font-family="Times New Roman,serif" font-size="14.00">b, a</text>
</g>
<!-- 2,8 -->
<g id="node4" class="node">
<title>2,8</title>
<ellipse fill="none" stroke="black" cx="236.7" cy="-248.39" rx="22.2" ry="22.2"/>
<text text-anchor="middle" x="236.7" y="-244.69" font-family="Times New Roman,serif" font-size="14.00">2,8</text>
</g>
<!-- 2&#45;&gt;2,8 -->
<g id="edge3" class="edge">
<title>2&#45;&gt;2,8</title>
<path fill="none" stroke="black" d="M169.04,-216.73C179.7,-221.79 194.2,-228.68 206.95,-234.74"/>
<polygon fill="black" stroke="black" points="205.73,-238.03 216.27,-239.16 208.74,-231.71 205.73,-238.03"/>
<text text-anchor="middle" x="192.6" y="-233.19" font-family="Times New Roman,serif" font-size="14.00">b</text>
</g>
<!-- 2,3 -->
<g id="node5" class="node">
<title>2,3</title>
<ellipse fill="none" stroke="black" cx="236.7" cy="-178.39" rx="22.2" ry="22.2"/>
<text text-anchor="middle" x="236.7" y="-174.69" font-family="Times New Roman,serif" font-size="14.00">2,3</text>
</g>
<!-- 2&#45;&gt;2,3 -->
<g id="edge4" class="edge">
<title>2&#45;&gt;2,3</title>
<path fill="none" stroke="black" d="M169.82,-203.27C180.22,-199.34 194.02,-194.13 206.31,-189.49"/>
<polygon fill="black" stroke="black" points="207.62,-192.74 215.74,-185.93 205.15,-186.19 207.62,-192.74"/>
<text text-anchor="middle" x="192.6" y="-200.19" font-family="Times New Roman,serif" font-size="14.00">a</text>
</g>
<!-- 2,8,9 -->
<g id="node6" class="node">
<title>2,8,9</title>
<ellipse fill="none" stroke="black" cx="589.03" cy="-248.39" rx="28.7" ry="28.7"/>
<text text-anchor="middle" x="589.03" y="-244.69" font-family="Times New Roman,serif" font-size="14.00">2,8,9</text>
</g>
<!-- 2,8&#45;&gt;2,8,9 -->
<g id="edge5" class="edge">
<title>2,8&#45;&gt;2,8,9</title>
<path fill="none" stroke="black" d="M258.82,-248.39C316.35,-248.39 476.4,-248.39 550.05,-248.39"/>
<polygon fill="black" stroke="black" points="550.27,-251.89 560.27,-248.39 550.27,-244.89 550.27,-251.89"/>
<text text-anchor="middle" x="391.09" y="-252.19" font-family="Times New Roman,serif" font-size="14.00">b</text>
</g>
<!-- 10,2,3 -->
<g id="node7" class="node">
<title>10,2,3</title>
<ellipse fill="none" stroke="black" cx="335.94" cy="-309.39" rx="33.29" ry="33.29"/>
<text text-anchor="middle" x="335.94" y="-305.69" font-family="Times New Roman,serif" font-size="14.00">10,2,3</text>
</g>
<!-- 2,8&#45;&gt;10,2,3 -->
<g id="edge6" class="edge">
<title>2,8&#45;&gt;10,2,3</title>
<path fill="none" stroke="black" d="M255.99,-259.87C268.02,-267.41 284.17,-277.55 298.73,-286.68"/>
<polygon fill="black" stroke="black" points="297.21,-289.86 307.54,-292.2 300.93,-283.93 297.21,-289.86"/>
<text text-anchor="middle" x="280.8" y="-281.19" font-family="Times New Roman,serif" font-size="14.00">a</text>
</g>
<!-- 2,5,8 -->
<g id="node8" class="node">
<title>2,5,8</title>
<ellipse fill="none" stroke="black" cx="335.94" cy="-121.39" rx="28.7" ry="28.7"/>
<text text-anchor="middle" x="335.94" y="-117.69" font-family="Times New Roman,serif" font-size="14.00">2,5,8</text>
</g>
<!-- 2,3&#45;&gt;2,5,8 -->
<g id="edge7" class="edge">
<title>2,3&#45;&gt;2,5,8</title>
<path fill="none" stroke="black" d="M254.34,-164.96C261.11,-159.8 269.13,-154.03 276.8,-149.39 284.24,-144.9 292.52,-140.55 300.44,-136.68"/>
<polygon fill="black" stroke="black" points="301.97,-139.83 309.5,-132.37 298.96,-133.51 301.97,-139.83"/>
<text text-anchor="middle" x="280.8" y="-153.19" font-family="Times New Roman,serif" font-size="14.00">b</text>
</g>
<!-- 2,3,4 -->
<g id="node9" class="node">
<title>2,3,4</title>
<ellipse fill="none" stroke="black" cx="589.03" cy="-159.39" rx="28.7" ry="28.7"/>
<text text-anchor="middle" x="589.03" y="-155.69" font-family="Times New Roman,serif" font-size="14.00">2,3,4</text>
</g>
<!-- 2,3&#45;&gt;2,3,4 -->
<g id="edge8" class="edge">
<title>2,3&#45;&gt;2,3,4</title>
<path fill="none" stroke="black" d="M258.82,-177.25C316.35,-174.13 476.4,-165.45 550.05,-161.45"/>
<polygon fill="black" stroke="black" points="550.47,-164.94 560.27,-160.9 550.09,-157.95 550.47,-164.94"/>
<text text-anchor="middle" x="391.09" y="-174.19" font-family="Times New Roman,serif" font-size="14.00">a</text>
</g>
<!-- 13,2,8,9 -->
<g id="node10" class="node">
<title>13,2,8,9</title>
<ellipse fill="none" stroke="black" cx="753.92" cy="-148.39" rx="40.09" ry="40.09"/>
<text text-anchor="middle" x="753.92" y="-144.69" font-family="Times New Roman,serif" font-size="14.00">13,2,8,9</text>
</g>
<!-- 2,8,9&#45;&gt;13,2,8,9 -->
<g id="edge9" class="edge">
<title>2,8,9&#45;&gt;13,2,8,9</title>
<path fill="none" stroke="black" d="M613.71,-233.85C639.01,-218.32 679.63,-193.39 710.47,-174.45"/>
<polygon fill="black" stroke="black" points="712.6,-177.25 719.3,-169.04 708.94,-171.28 712.6,-177.25"/>
<text text-anchor="middle" x="662.37" y="-208.19" font-family="Times New Roman,serif" font-size="14.00">b</text>
</g>
<!-- 10,13,2,3 -->
<g id="node11" class="node">
<title>10,13,2,3</title>
<ellipse fill="none" stroke="black" cx="910.66" cy="-256.39" rx="44.39" ry="44.39"/>
<text text-anchor="middle" x="910.66" y="-252.69" font-family="Times New Roman,serif" font-size="14.00">10,13,2,3</text>
</g>
<!-- 2,8,9&#45;&gt;10,13,2,3 -->
<g id="edge10" class="edge">
<title>2,8,9&#45;&gt;10,13,2,3</title>
<path fill="none" stroke="black" d="M617.83,-249.09C670.93,-250.42 787.55,-253.34 856.2,-255.06"/>
<polygon fill="black" stroke="black" points="856.3,-258.56 866.38,-255.31 856.47,-251.56 856.3,-258.56"/>
<text text-anchor="middle" x="753.92" y="-258.19" font-family="Times New Roman,serif" font-size="14.00">a</text>
</g>
<!-- 10,2,3&#45;&gt;2,3,4 -->
<g id="edge12" class="edge">
<title>10,2,3&#45;&gt;2,3,4</title>
<path fill="none" stroke="black" d="M365.2,-293.68C396.75,-276.01 449.24,-246.27 493.68,-219.39 514.67,-206.71 537.92,-191.93 556.08,-180.22"/>
<polygon fill="black" stroke="black" points="558.06,-183.1 564.56,-174.73 554.26,-177.22 558.06,-183.1"/>
<text text-anchor="middle" x="453.39" y="-271.19" font-family="Times New Roman,serif" font-size="14.00">a</text>
</g>
<!-- 11,2,5,8 -->
<g id="node12" class="node">
<title>11,2,5,8</title>
<ellipse fill="none" stroke="black" cx="453.39" cy="-367.39" rx="40.09" ry="40.09"/>
<text text-anchor="middle" x="453.39" y="-363.69" font-family="Times New Roman,serif" font-size="14.00">11,2,5,8</text>
</g>
<!-- 10,2,3&#45;&gt;11,2,5,8 -->
<g id="edge11" class="edge">
<title>10,2,3&#45;&gt;11,2,5,8</title>
<path fill="none" stroke="black" d="M365.78,-323.88C378.49,-330.27 393.71,-337.92 407.83,-345.01"/>
<polygon fill="black" stroke="black" points="406.4,-348.21 416.91,-349.57 409.55,-341.95 406.4,-348.21"/>
<text text-anchor="middle" x="391.09" y="-342.19" font-family="Times New Roman,serif" font-size="14.00">b</text>
</g>
<!-- 2,5,8&#45;&gt;2,8,9 -->
<g id="edge13" class="edge">
<title>2,5,8&#45;&gt;2,8,9</title>
<path fill="none" stroke="black" d="M361.94,-134.04C407.24,-156.95 502.98,-205.37 554.13,-231.25"/>
<polygon fill="black" stroke="black" points="552.63,-234.41 563.14,-235.8 555.79,-228.17 552.63,-234.41"/>
<text text-anchor="middle" x="453.39" y="-204.19" font-family="Times New Roman,serif" font-size="14.00">b</text>
</g>
<!-- 10,2,3,6 -->
<g id="node13" class="node">
<title>10,2,3,6</title>
<ellipse fill="none" stroke="black" cx="453.39" cy="-91.39" rx="40.09" ry="40.09"/>
<text text-anchor="middle" x="453.39" y="-87.69" font-family="Times New Roman,serif" font-size="14.00">10,2,3,6</text>
</g>
<!-- 2,5,8&#45;&gt;10,2,3,6 -->
<g id="edge14" class="edge">
<title>2,5,8&#45;&gt;10,2,3,6</title>
<path fill="none" stroke="black" d="M363.72,-114.44C375.72,-111.32 390.27,-107.54 404.07,-103.95"/>
<polygon fill="black" stroke="black" points="405.15,-107.29 413.95,-101.38 403.39,-100.51 405.15,-107.29"/>
<text text-anchor="middle" x="391.09" y="-112.19" font-family="Times New Roman,serif" font-size="14.00">a</text>
</g>
<!-- 13,2,5,8 -->
<g id="node14" class="node">
<title>13,2,5,8</title>
<ellipse fill="none" stroke="black" cx="1207.94" cy="-220.39" rx="40.09" ry="40.09"/>
<text text-anchor="middle" x="1207.94" y="-216.69" font-family="Times New Roman,serif" font-size="14.00">13,2,5,8</text>
</g>
<!-- 2,3,4&#45;&gt;13,2,5,8 -->
<g id="edge15" class="edge">
<title>2,3,4&#45;&gt;13,2,5,8</title>
<path fill="none" stroke="black" d="M611.27,-141.36C629.4,-127.14 656.85,-108.27 684.37,-99.39 861.01,-42.46 925.13,-23.8 1101.54,-81.39 1115.15,-85.84 1118.11,-89.63 1127.54,-100.39 1138.55,-112.96 1136.71,-119.21 1145.54,-133.39 1155.27,-149 1166.7,-165.62 1177.05,-180.1"/>
<polygon fill="black" stroke="black" points="1174.32,-182.29 1183,-188.36 1180,-178.2 1174.32,-182.29"/>
<text text-anchor="middle" x="910.66" y="-54.19" font-family="Times New Roman,serif" font-size="14.00">b</text>
</g>
<!-- 13,2,3,4 -->
<g id="node15" class="node">
<title>13,2,3,4</title>
<ellipse fill="none" stroke="black" cx="1050.2" cy="-288.39" rx="40.09" ry="40.09"/>
<text text-anchor="middle" x="1050.2" y="-284.69" font-family="Times New Roman,serif" font-size="14.00">13,2,3,4</text>
</g>
<!-- 2,3,4&#45;&gt;13,2,3,4 -->
<g id="edge16" class="edge">
<title>2,3,4&#45;&gt;13,2,3,4</title>
<path fill="none" stroke="black" d="M609.36,-179.53C625.51,-195.95 647.58,-217.39 658.37,-223.39 724.34,-260.1 758.17,-225.49 823.46,-263.39 847.66,-277.45 840.79,-298.25 866.46,-309.39 910.02,-328.3 964.64,-318.16 1002.77,-306.33"/>
<polygon fill="black" stroke="black" points="1004.15,-309.56 1012.57,-303.14 1001.98,-302.91 1004.15,-309.56"/>
<text text-anchor="middle" x="844.96" y="-297.19" font-family="Times New Roman,serif" font-size="14.00">a</text>
</g>
<!-- 13,2,8,9&#45;&gt;13,2,8,9 -->
<g id="edge17" class="edge">
<title>13,2,8,9&#45;&gt;13,2,8,9</title>
<path fill="none" stroke="black" d="M737.04,-185.11C737.13,-197.13 742.76,-206.69 753.92,-206.69 761.59,-206.69 766.65,-202.17 769.09,-195.44"/>
<polygon fill="black" stroke="black" points="772.62,-195.55 770.79,-185.11 765.71,-194.41 772.62,-195.55"/>
<text text-anchor="middle" x="753.92" y="-210.49" font-family="Times New Roman,serif" font-size="14.00">b</text>
</g>
<!-- 13,2,8,9&#45;&gt;10,13,2,3 -->
<g id="edge18" class="edge">
<title>13,2,8,9&#45;&gt;10,13,2,3</title>
<path fill="none" stroke="black" d="M787.36,-171.03C810.13,-186.93 840.85,-208.37 865.8,-225.78"/>
<polygon fill="black" stroke="black" points="863.82,-228.67 874.02,-231.52 867.83,-222.93 863.82,-228.67"/>
<text text-anchor="middle" x="844.96" y="-216.19" font-family="Times New Roman,serif" font-size="14.00">a</text>
</g>
<!-- 10,13,2,3&#45;&gt;13,2,3,4 -->
<g id="edge20" class="edge">
<title>10,13,2,3&#45;&gt;13,2,3,4</title>
<path fill="none" stroke="black" d="M954.05,-266.26C968.81,-269.69 985.48,-273.57 1000.7,-277.11"/>
<polygon fill="black" stroke="black" points="999.93,-280.52 1010.46,-279.38 1001.51,-273.71 999.93,-280.52"/>
<text text-anchor="middle" x="976.85" y="-276.19" font-family="Times New Roman,serif" font-size="14.00">a</text>
</g>
<!-- 11,13,2,5,8 -->
<g id="node16" class="node">
<title>11,13,2,5,8</title>
<ellipse fill="none" stroke="black" cx="1050.2" cy="-141.39" rx="51.19" ry="51.19"/>
<text text-anchor="middle" x="1050.2" y="-137.69" font-family="Times New Roman,serif" font-size="14.00">11,13,2,5,8</text>
</g>
<!-- 10,13,2,3&#45;&gt;11,13,2,5,8 -->
<g id="edge19" class="edge">
<title>10,13,2,3&#45;&gt;11,13,2,5,8</title>
<path fill="none" stroke="black" d="M947.99,-232.22C958.82,-224.6 970.54,-215.94 980.85,-207.39 989.31,-200.38 998,-192.55 1006.22,-184.8"/>
<polygon fill="black" stroke="black" points="1008.8,-187.17 1013.61,-177.74 1003.97,-182.11 1008.8,-187.17"/>
<text text-anchor="middle" x="976.85" y="-217.19" font-family="Times New Roman,serif" font-size="14.00">b</text>
</g>
<!-- 11,2,5,8&#45;&gt;2,8,9 -->
<g id="edge21" class="edge">
<title>11,2,5,8&#45;&gt;2,8,9</title>
<path fill="none" stroke="black" d="M484.05,-340.98C506.61,-320.89 537.46,-293.42 559.69,-273.63"/>
<polygon fill="black" stroke="black" points="562.02,-276.24 567.17,-266.97 557.37,-271.01 562.02,-276.24"/>
<text text-anchor="middle" x="515.68" y="-318.19" font-family="Times New Roman,serif" font-size="14.00">b</text>
</g>
<!-- 10,12,2,3,6 -->
<g id="node17" class="node">
<title>10,12,2,3,6</title>
<ellipse fill="none" stroke="black" cx="589.03" cy="-379.39" rx="51.19" ry="51.19"/>
<text text-anchor="middle" x="589.03" y="-375.69" font-family="Times New Roman,serif" font-size="14.00">10,12,2,3,6</text>
</g>
<!-- 11,2,5,8&#45;&gt;10,12,2,3,6 -->
<g id="edge22" class="edge">
<title>11,2,5,8&#45;&gt;10,12,2,3,6</title>
<path fill="none" stroke="black" d="M493.76,-370.93C504.36,-371.88 516.08,-372.93 527.54,-373.96"/>
<polygon fill="black" stroke="black" points="527.24,-377.45 537.52,-374.86 527.87,-370.48 527.24,-377.45"/>
<text text-anchor="middle" x="515.68" y="-376.19" font-family="Times New Roman,serif" font-size="14.00">a</text>
</g>
<!-- 10,2,3,6&#45;&gt;2,3,4 -->
<g id="edge24" class="edge">
<title>10,2,3,6&#45;&gt;2,3,4</title>
<path fill="none" stroke="black" d="M489.85,-109.44C509.74,-119.56 534.43,-132.12 554.07,-142.12"/>
<polygon fill="black" stroke="black" points="552.49,-145.24 562.99,-146.65 555.66,-139 552.49,-145.24"/>
<text text-anchor="middle" x="515.68" y="-127.19" font-family="Times New Roman,serif" font-size="14.00">a</text>
</g>
<!-- 11,2,5,7,8 -->
<g id="node18" class="node">
<title>11,2,5,7,8</title>
<ellipse fill="none" stroke="black" cx="589.03" cy="-54.39" rx="46.59" ry="46.59"/>
<text text-anchor="middle" x="589.03" y="-50.69" font-family="Times New Roman,serif" font-size="14.00">11,2,5,7,8</text>
</g>
<!-- 10,2,3,6&#45;&gt;11,2,5,7,8 -->
<g id="edge23" class="edge">
<title>10,2,3,6&#45;&gt;11,2,5,7,8</title>
<path fill="none" stroke="black" d="M492.33,-80.89C505.24,-77.31 519.94,-73.25 533.88,-69.39"/>
<polygon fill="black" stroke="black" points="535.15,-72.67 543.85,-66.63 533.28,-65.92 535.15,-72.67"/>
<text text-anchor="middle" x="515.68" y="-79.19" font-family="Times New Roman,serif" font-size="14.00">b</text>
</g>
<!-- 13,2,5,8&#45;&gt;13,2,8,9 -->
<g id="edge25" class="edge">
<title>13,2,5,8&#45;&gt;13,2,8,9</title>
<path fill="none" stroke="black" d="M1167.61,-222.87C1124.72,-224.2 1054.74,-222.32 998.85,-201.39 989.61,-197.93 989.94,-192.24 980.85,-188.39 964.83,-181.61 865.38,-165.45 803.88,-155.87"/>
<polygon fill="black" stroke="black" points="804.4,-152.41 793.99,-154.34 803.33,-159.33 804.4,-152.41"/>
<text text-anchor="middle" x="976.85" y="-192.19" font-family="Times New Roman,serif" font-size="14.00">b</text>
</g>
<!-- 10,13,2,3,6 -->
<g id="node19" class="node">
<title>10,13,2,3,6</title>
<ellipse fill="none" stroke="black" cx="1364.68" cy="-220.39" rx="51.19" ry="51.19"/>
<text text-anchor="middle" x="1364.68" y="-216.69" font-family="Times New Roman,serif" font-size="14.00">10,13,2,3,6</text>
</g>
<!-- 13,2,5,8&#45;&gt;10,13,2,3,6 -->
<g id="edge26" class="edge">
<title>13,2,5,8&#45;&gt;10,13,2,3,6</title>
<path fill="none" stroke="black" d="M1248.39,-220.39C1265.01,-220.39 1284.73,-220.39 1303.12,-220.39"/>
<polygon fill="black" stroke="black" points="1303.18,-223.89 1313.18,-220.39 1303.18,-216.89 1303.18,-223.89"/>
<text text-anchor="middle" x="1291.83" y="-224.19" font-family="Times New Roman,serif" font-size="14.00">a</text>
</g>
<!-- 13,2,3,4&#45;&gt;13,2,5,8 -->
<g id="edge27" class="edge">
<title>13,2,3,4&#45;&gt;13,2,5,8</title>
<path fill="none" stroke="black" d="M1087.32,-272.62C1109.35,-263 1137.72,-250.62 1161.3,-240.32"/>
<polygon fill="black" stroke="black" points="1162.98,-243.41 1170.74,-236.2 1160.18,-236.99 1162.98,-243.41"/>
<text text-anchor="middle" x="1123.54" y="-263.19" font-family="Times New Roman,serif" font-size="14.00">b</text>
</g>
<!-- 13,2,3,4&#45;&gt;13,2,3,4 -->
<g id="edge28" class="edge">
<title>13,2,3,4&#45;&gt;13,2,3,4</title>
<path fill="none" stroke="black" d="M1036.73,-326.52C1037.13,-337.86 1041.62,-346.69 1050.2,-346.69 1055.96,-346.69 1059.88,-342.71 1061.95,-336.65"/>
<polygon fill="black" stroke="black" points="1065.45,-336.97 1063.67,-326.52 1058.55,-335.8 1065.45,-336.97"/>
<text text-anchor="middle" x="1050.2" y="-350.49" font-family="Times New Roman,serif" font-size="14.00">a</text>
</g>
<!-- 11,13,2,5,8&#45;&gt;13,2,8,9 -->
<g id="edge29" class="edge">
<title>11,13,2,5,8&#45;&gt;13,2,8,9</title>
<path fill="none" stroke="black" d="M998.72,-142.6C944.32,-143.89 858.3,-145.94 804.32,-147.22"/>
<polygon fill="black" stroke="black" points="804.21,-143.72 794.3,-147.46 804.38,-150.72 804.21,-143.72"/>
<text text-anchor="middle" x="910.66" y="-150.19" font-family="Times New Roman,serif" font-size="14.00">b</text>
</g>
<!-- 10,12,13,2,3,6 -->
<g id="node20" class="node">
<title>10,12,13,2,3,6</title>
<ellipse fill="none" stroke="black" cx="1207.94" cy="-62.39" rx="62.29" ry="62.29"/>
<text text-anchor="middle" x="1207.94" y="-58.69" font-family="Times New Roman,serif" font-size="14.00">10,12,13,2,3,6</text>
</g>
<!-- 11,13,2,5,8&#45;&gt;10,12,13,2,3,6 -->
<g id="edge30" class="edge">
<title>11,13,2,5,8&#45;&gt;10,12,13,2,3,6</title>
<path fill="none" stroke="black" d="M1096.25,-118.54C1110.81,-111.15 1127.26,-102.81 1142.93,-94.86"/>
<polygon fill="black" stroke="black" points="1144.71,-97.88 1152.05,-90.24 1141.55,-91.64 1144.71,-97.88"/>
<text text-anchor="middle" x="1123.54" y="-111.19" font-family="Times New Roman,serif" font-size="14.00">a</text>
</g>
<!-- 11,12,13,2,5,7,8 -->
<g id="node21" class="node">
<title>11,12,13,2,5,7,8</title>
<ellipse fill="none" stroke="black" cx="753.92" cy="-518.39" rx="69.59" ry="69.59"/>
<text text-anchor="middle" x="753.92" y="-514.69" font-family="Times New Roman,serif" font-size="14.00">11,12,13,2,5,7,8</text>
</g>
<!-- 10,12,2,3,6&#45;&gt;11,12,13,2,5,7,8 -->
<g id="edge31" class="edge">
<title>10,12,2,3,6&#45;&gt;11,12,13,2,5,7,8</title>
<path fill="none" stroke="black" d="M628.63,-412.34C647.73,-428.64 671.24,-448.69 692.64,-466.96"/>
<polygon fill="black" stroke="black" points="690.54,-469.77 700.42,-473.59 695.08,-464.44 690.54,-469.77"/>
<text text-anchor="middle" x="662.37" y="-444.19" font-family="Times New Roman,serif" font-size="14.00">b</text>
</g>
<!-- 12,13,2,3,4 -->
<g id="node22" class="node">
<title>12,13,2,3,4</title>
<ellipse fill="none" stroke="black" cx="753.92" cy="-379.39" rx="51.19" ry="51.19"/>
<text text-anchor="middle" x="753.92" y="-375.69" font-family="Times New Roman,serif" font-size="14.00">12,13,2,3,4</text>
</g>
<!-- 10,12,2,3,6&#45;&gt;12,13,2,3,4 -->
<g id="edge32" class="edge">
<title>10,12,2,3,6&#45;&gt;12,13,2,3,4</title>
<path fill="none" stroke="black" d="M640.67,-379.39C656.92,-379.39 675.07,-379.39 691.97,-379.39"/>
<polygon fill="black" stroke="black" points="692.3,-382.89 702.3,-379.39 692.3,-375.89 692.3,-382.89"/>
<text text-anchor="middle" x="662.37" y="-383.19" font-family="Times New Roman,serif" font-size="14.00">a</text>
</g>
<!-- 11,2,5,7,8&#45;&gt;13,2,8,9 -->
<g id="edge33" class="edge">
<title>11,2,5,7,8&#45;&gt;13,2,8,9</title>
<path fill="none" stroke="black" d="M629.88,-77.39C654.12,-91.38 685.08,-109.25 709.88,-123.56"/>
<polygon fill="black" stroke="black" points="708.31,-126.69 718.72,-128.66 711.81,-120.63 708.31,-126.69"/>
<text text-anchor="middle" x="662.37" y="-100.19" font-family="Times New Roman,serif" font-size="14.00">b</text>
</g>
<!-- 11,2,5,7,8&#45;&gt;10,12,13,2,3,6 -->
<g id="edge34" class="edge">
<title>11,2,5,7,8&#45;&gt;10,12,13,2,3,6</title>
<path fill="none" stroke="black" d="M633.79,-40.59C666.31,-31.55 711.95,-21.39 752.92,-21.39 752.92,-21.39 752.92,-21.39 1051.2,-21.39 1080.83,-21.39 1112.62,-28.42 1139.7,-36.66"/>
<polygon fill="black" stroke="black" points="1138.87,-40.06 1149.46,-39.74 1140.97,-33.39 1138.87,-40.06"/>
<text text-anchor="middle" x="910.66" y="-25.19" font-family="Times New Roman,serif" font-size="14.00">a</text>
</g>
</g>
</svg>
