<?xml version="1.0" encoding="UTF-8" standalone="no"?>
<!DOCTYPE svg PUBLIC "-//W3C//DTD SVG 1.1//EN"
 "http://www.w3.org/Graphics/SVG/1.1/DTD/svg11.dtd">
<!-- Generated by graphviz version 3.0.0 (20220226.1711)
 -->
<!-- Title: NFA to DFA Pages: 1 -->
<svg width="1333pt" height="372pt"
 viewBox="0.00 0.00 1333.33 372.14" xmlns="http://www.w3.org/2000/svg" xmlns:xlink="http://www.w3.org/1999/xlink">
<g id="graph0" class="graph" transform="scale(1 1) rotate(0) translate(4 368.14)">
<title>NFA to DFA</title>
<polygon fill="white" stroke="transparent" points="-4,4 -4,-368.14 1329.33,-368.14 1329.33,4 -4,4"/>
<!-- 0 -->
<g id="node1" class="node">
<title>0</title>
<ellipse fill="black" stroke="black" cx="1.8" cy="-239.35" rx="1.8" ry="1.8"/>
</g>
<!-- 1 -->
<g id="node2" class="node">
<title>1</title>
<ellipse fill="none" stroke="black" cx="58.6" cy="-239.35" rx="18" ry="18"/>
<text text-anchor="middle" x="58.6" y="-235.65" font-family="Times New Roman,serif" font-size="14.00">1</text>
</g>
<!-- 0&#45;&gt;1 -->
<g id="edge1" class="edge">
<title>0&#45;&gt;1</title>
<path fill="none" stroke="black" d="M3.75,-239.35C7.11,-239.35 18.87,-239.35 30.55,-239.35"/>
<polygon fill="black" stroke="black" points="30.58,-242.85 40.58,-239.35 30.58,-235.85 30.58,-242.85"/>
</g>
<!-- 2 -->
<g id="node3" class="node">
<title>2</title>
<ellipse fill="none" stroke="black" cx="152.6" cy="-239.35" rx="18" ry="18"/>
<text text-anchor="middle" x="152.6" y="-235.65" font-family="Times New Roman,serif" font-size="14.00">2</text>
</g>
<!-- 1&#45;&gt;2 -->
<g id="edge2" class="edge">
<title>1&#45;&gt;2</title>
<path fill="none" stroke="black" d="M76.9,-239.35C90.14,-239.35 108.65,-239.35 123.94,-239.35"/>
<polygon fill="black" stroke="black" points="124.37,-242.85 134.37,-239.35 124.37,-235.85 124.37,-242.85"/>
<text text-anchor="middle" x="105.6" y="-243.15" font-family="Times New Roman,serif" font-size="14.00">b, a</text>
</g>
<!-- 2,8 -->
<g id="node4" class="node">
<title>2,8</title>
<ellipse fill="none" stroke="black" cx="236.7" cy="-167.35" rx="22.2" ry="22.2"/>
<text text-anchor="middle" x="236.7" y="-163.65" font-family="Times New Roman,serif" font-size="14.00">2,8</text>
</g>
<!-- 2&#45;&gt;2,8 -->
<g id="edge3" class="edge">
<title>2&#45;&gt;2,8</title>
<path fill="none" stroke="black" d="M166.79,-227.78C178.88,-217.18 197.06,-201.23 211.72,-188.38"/>
<polygon fill="black" stroke="black" points="214.22,-190.84 219.43,-181.61 209.61,-185.57 214.22,-190.84"/>
<text text-anchor="middle" x="192.6" y="-211.15" font-family="Times New Roman,serif" font-size="14.00">b</text>
</g>
<!-- 2,3 -->
<g id="node5" class="node">
<title>2,3</title>
<ellipse fill="none" stroke="black" cx="334.94" cy="-275.35" rx="22.2" ry="22.2"/>
<text text-anchor="middle" x="334.94" y="-271.65" font-family="Times New Roman,serif" font-size="14.00">2,3</text>
</g>
<!-- 2&#45;&gt;2,3 -->
<g id="edge4" class="edge">
<title>2&#45;&gt;2,3</title>
<path fill="none" stroke="black" d="M170.57,-242.73C200.86,-248.78 264.67,-261.52 302.96,-269.16"/>
<polygon fill="black" stroke="black" points="302.55,-272.65 313.04,-271.17 303.92,-265.78 302.55,-272.65"/>
<text text-anchor="middle" x="236.7" y="-263.15" font-family="Times New Roman,serif" font-size="14.00">a</text>
</g>
<!-- 2,8,9 -->
<g id="node6" class="node">
<title>2,8,9</title>
<ellipse fill="none" stroke="black" cx="588.03" cy="-149.35" rx="28.7" ry="28.7"/>
<text text-anchor="middle" x="588.03" y="-145.65" font-family="Times New Roman,serif" font-size="14.00">2,8,9</text>
</g>
<!-- 2,8&#45;&gt;2,8,9 -->
<g id="edge5" class="edge">
<title>2,8&#45;&gt;2,8,9</title>
<path fill="none" stroke="black" d="M254.6,-154.37C267.1,-145.26 284.82,-133.33 301.8,-125.35 348.22,-103.52 361.37,-98.99 412.09,-91.35 458.97,-84.28 475.78,-75.17 518.68,-95.35 528.37,-99.9 528.4,-104.56 536.68,-111.35 542.88,-116.42 549.64,-121.7 556.14,-126.65"/>
<polygon fill="black" stroke="black" points="554.08,-129.48 564.17,-132.7 558.29,-123.89 554.08,-129.48"/>
<text text-anchor="middle" x="390.09" y="-100.15" font-family="Times New Roman,serif" font-size="14.00">b</text>
</g>
<!-- 10,2,3 -->
<g id="node7" class="node">
<title>10,2,3</title>
<ellipse fill="none" stroke="black" cx="334.94" cy="-167.35" rx="33.29" ry="33.29"/>
<text text-anchor="middle" x="334.94" y="-163.65" font-family="Times New Roman,serif" font-size="14.00">10,2,3</text>
</g>
<!-- 2,8&#45;&gt;10,2,3 -->
<g id="edge6" class="edge">
<title>2,8&#45;&gt;10,2,3</title>
<path fill="none" stroke="black" d="M259.06,-167.35C268.64,-167.35 280.3,-167.35 291.54,-167.35"/>
<polygon fill="black" stroke="black" points="291.66,-170.85 301.66,-167.35 291.66,-163.85 291.66,-170.85"/>
<text text-anchor="middle" x="280.3" y="-171.15" font-family="Times New Roman,serif" font-size="14.00">a</text>
</g>
<!-- 2,5,8 -->
<g id="node8" class="node">
<title>2,5,8</title>
<ellipse fill="none" stroke="black" cx="452.39" cy="-275.35" rx="28.7" ry="28.7"/>
<text text-anchor="middle" x="452.39" y="-271.65" font-family="Times New Roman,serif" font-size="14.00">2,5,8</text>
</g>
<!-- 2,3&#45;&gt;2,5,8 -->
<g id="edge7" class="edge">
<title>2,3&#45;&gt;2,5,8</title>
<path fill="none" stroke="black" d="M357.12,-275.35C372.82,-275.35 394.67,-275.35 413.37,-275.35"/>
<polygon fill="black" stroke="black" points="413.38,-278.85 423.38,-275.35 413.38,-271.85 413.38,-278.85"/>
<text text-anchor="middle" x="390.09" y="-279.15" font-family="Times New Roman,serif" font-size="14.00">b</text>
</g>
<!-- 2,3,4 -->
<g id="node9" class="node">
<title>2,3,4</title>
<ellipse fill="none" stroke="black" cx="730.17" cy="-224.35" rx="28.7" ry="28.7"/>
<text text-anchor="middle" x="730.17" y="-220.65" font-family="Times New Roman,serif" font-size="14.00">2,3,4</text>
</g>
<!-- 2,3&#45;&gt;2,3,4 -->
<g id="edge8" class="edge">
<title>2,3&#45;&gt;2,3,4</title>
<path fill="none" stroke="black" d="M353.96,-286.66C368.93,-295.49 391.1,-307.23 412.09,-313.35 509.23,-341.64 539.6,-343.13 639.37,-326.35 651.43,-324.32 656.82,-326.09 665.37,-317.35 683.65,-298.66 668.59,-282.91 683.37,-261.35 687.26,-255.68 692.26,-250.44 697.52,-245.79"/>
<polygon fill="black" stroke="black" points="699.79,-248.46 705.32,-239.43 695.36,-243.04 699.79,-248.46"/>
<text text-anchor="middle" x="514.68" y="-339.15" font-family="Times New Roman,serif" font-size="14.00">a</text>
</g>
<!-- 13,2,8,9 -->
<g id="node10" class="node">
<title>13,2,8,9</title>
<ellipse fill="none" stroke="black" cx="730.17" cy="-40.35" rx="40.09" ry="40.09"/>
<text text-anchor="middle" x="730.17" y="-36.65" font-family="Times New Roman,serif" font-size="14.00">13,2,8,9</text>
</g>
<!-- 2,8,9&#45;&gt;13,2,8,9 -->
<g id="edge9" class="edge">
<title>2,8,9&#45;&gt;13,2,8,9</title>
<path fill="none" stroke="black" d="M611.67,-132.43C620.36,-125.89 630.36,-118.31 639.37,-111.35 656.11,-98.41 674.46,-83.96 690.18,-71.49"/>
<polygon fill="black" stroke="black" points="692.48,-74.12 698.14,-65.16 688.13,-68.64 692.48,-74.12"/>
<text text-anchor="middle" x="661.37" y="-100.15" font-family="Times New Roman,serif" font-size="14.00">b</text>
</g>
<!-- 10,13,2,3 -->
<g id="node11" class="node">
<title>10,13,2,3</title>
<ellipse fill="none" stroke="black" cx="864.16" cy="-132.35" rx="44.39" ry="44.39"/>
<text text-anchor="middle" x="864.16" y="-128.65" font-family="Times New Roman,serif" font-size="14.00">10,13,2,3</text>
</g>
<!-- 2,8,9&#45;&gt;10,13,2,3 -->
<g id="edge10" class="edge">
<title>2,8,9&#45;&gt;10,13,2,3</title>
<path fill="none" stroke="black" d="M616.82,-147.62C661.89,-144.83 751.7,-139.26 809.53,-135.67"/>
<polygon fill="black" stroke="black" points="809.81,-139.16 819.58,-135.05 809.38,-132.17 809.81,-139.16"/>
<text text-anchor="middle" x="730.17" y="-148.15" font-family="Times New Roman,serif" font-size="14.00">a</text>
</g>
<!-- 10,2,3&#45;&gt;2,3,4 -->
<g id="edge12" class="edge">
<title>10,2,3&#45;&gt;2,3,4</title>
<path fill="none" stroke="black" d="M366.77,-177.55C380.51,-181.76 396.97,-186.35 412.09,-189.35 464.78,-199.78 619.65,-214.5 691.61,-221.01"/>
<polygon fill="black" stroke="black" points="691.33,-224.5 701.61,-221.92 691.96,-217.53 691.33,-224.5"/>
<text text-anchor="middle" x="514.68" y="-207.15" font-family="Times New Roman,serif" font-size="14.00">a</text>
</g>
<!-- 11,2,5,8 -->
<g id="node12" class="node">
<title>11,2,5,8</title>
<ellipse fill="none" stroke="black" cx="452.39" cy="-140.35" rx="40.09" ry="40.09"/>
<text text-anchor="middle" x="452.39" y="-136.65" font-family="Times New Roman,serif" font-size="14.00">11,2,5,8</text>
</g>
<!-- 10,2,3&#45;&gt;11,2,5,8 -->
<g id="edge11" class="edge">
<title>10,2,3&#45;&gt;11,2,5,8</title>
<path fill="none" stroke="black" d="M367.49,-159.97C378.44,-157.41 390.99,-154.47 402.99,-151.67"/>
<polygon fill="black" stroke="black" points="403.95,-155.04 412.89,-149.35 402.35,-148.22 403.95,-155.04"/>
<text text-anchor="middle" x="390.09" y="-160.15" font-family="Times New Roman,serif" font-size="14.00">b</text>
</g>
<!-- 2,5,8&#45;&gt;2,8,9 -->
<g id="edge13" class="edge">
<title>2,5,8&#45;&gt;2,8,9</title>
<path fill="none" stroke="black" d="M476.21,-259.01C489.11,-249.41 505.28,-236.76 518.68,-224.35 534.05,-210.1 549.9,-192.9 562.46,-178.56"/>
<polygon fill="black" stroke="black" points="565.17,-180.78 569.07,-170.93 559.88,-176.19 565.17,-180.78"/>
<text text-anchor="middle" x="514.68" y="-234.15" font-family="Times New Roman,serif" font-size="14.00">b</text>
</g>
<!-- 10,2,3,6 -->
<g id="node13" class="node">
<title>10,2,3,6</title>
<ellipse fill="none" stroke="black" cx="588.03" cy="-277.35" rx="40.09" ry="40.09"/>
<text text-anchor="middle" x="588.03" y="-273.65" font-family="Times New Roman,serif" font-size="14.00">10,2,3,6</text>
</g>
<!-- 2,5,8&#45;&gt;10,2,3,6 -->
<g id="edge14" class="edge">
<title>2,5,8&#45;&gt;10,2,3,6</title>
<path fill="none" stroke="black" d="M481.08,-275.76C497.41,-276 518.55,-276.32 537.66,-276.61"/>
<polygon fill="black" stroke="black" points="537.67,-280.11 547.72,-276.76 537.77,-273.11 537.67,-280.11"/>
<text text-anchor="middle" x="514.68" y="-279.15" font-family="Times New Roman,serif" font-size="14.00">a</text>
</g>
<!-- 13,2,5,8 -->
<g id="node14" class="node">
<title>13,2,5,8</title>
<ellipse fill="none" stroke="black" cx="1139.35" cy="-224.35" rx="40.09" ry="40.09"/>
<text text-anchor="middle" x="1139.35" y="-220.65" font-family="Times New Roman,serif" font-size="14.00">13,2,5,8</text>
</g>
<!-- 2,3,4&#45;&gt;13,2,5,8 -->
<g id="edge15" class="edge">
<title>2,3,4&#45;&gt;13,2,5,8</title>
<path fill="none" stroke="black" d="M754.25,-239.94C808.34,-274.41 946.89,-350.65 1055.05,-306.35 1076.03,-297.75 1094.56,-281.04 1108.78,-264.94"/>
<polygon fill="black" stroke="black" points="1111.62,-267.01 1115.41,-257.12 1106.28,-262.48 1111.62,-267.01"/>
<text text-anchor="middle" x="930.36" y="-318.15" font-family="Times New Roman,serif" font-size="14.00">b</text>
</g>
<!-- 13,2,3,4 -->
<g id="node15" class="node">
<title>13,2,3,4</title>
<ellipse fill="none" stroke="black" cx="1003.7" cy="-224.35" rx="40.09" ry="40.09"/>
<text text-anchor="middle" x="1003.7" y="-220.65" font-family="Times New Roman,serif" font-size="14.00">13,2,3,4</text>
</g>
<!-- 2,3,4&#45;&gt;13,2,3,4 -->
<g id="edge16" class="edge">
<title>2,3,4&#45;&gt;13,2,3,4</title>
<path fill="none" stroke="black" d="M758.95,-224.35C804.51,-224.35 895.7,-224.35 952.72,-224.35"/>
<polygon fill="black" stroke="black" points="952.95,-227.85 962.95,-224.35 952.95,-220.85 952.95,-227.85"/>
<text text-anchor="middle" x="864.16" y="-228.15" font-family="Times New Roman,serif" font-size="14.00">a</text>
</g>
<!-- 13,2,8,9&#45;&gt;13,2,8,9 -->
<g id="edge17" class="edge">
<title>13,2,8,9&#45;&gt;13,2,8,9</title>
<path fill="none" stroke="black" d="M717.46,-78.75C717.9,-89.96 722.13,-98.64 730.17,-98.64 735.57,-98.64 739.25,-94.72 741.22,-88.75"/>
<polygon fill="black" stroke="black" points="744.7,-89.19 742.88,-78.75 737.79,-88.04 744.7,-89.19"/>
<text text-anchor="middle" x="730.17" y="-102.44" font-family="Times New Roman,serif" font-size="14.00">b</text>
</g>
<!-- 13,2,8,9&#45;&gt;10,13,2,3 -->
<g id="edge18" class="edge">
<title>13,2,8,9&#45;&gt;10,13,2,3</title>
<path fill="none" stroke="black" d="M763.8,-63.09C780.33,-74.61 800.65,-88.78 818.6,-101.29"/>
<polygon fill="black" stroke="black" points="816.99,-104.43 827.2,-107.28 821,-98.69 816.99,-104.43"/>
<text text-anchor="middle" x="798.47" y="-93.15" font-family="Times New Roman,serif" font-size="14.00">a</text>
</g>
<!-- 10,13,2,3&#45;&gt;13,2,3,4 -->
<g id="edge20" class="edge">
<title>10,13,2,3&#45;&gt;13,2,3,4</title>
<path fill="none" stroke="black" d="M901.3,-156.52C919.66,-168.8 942.06,-183.78 961.13,-196.54"/>
<polygon fill="black" stroke="black" points="959.37,-199.57 969.63,-202.23 963.27,-193.76 959.37,-199.57"/>
<text text-anchor="middle" x="930.36" y="-182.15" font-family="Times New Roman,serif" font-size="14.00">a</text>
</g>
<!-- 11,13,2,5,8 -->
<g id="node16" class="node">
<title>11,13,2,5,8</title>
<ellipse fill="none" stroke="black" cx="1003.7" cy="-114.35" rx="51.19" ry="51.19"/>
<text text-anchor="middle" x="1003.7" y="-110.65" font-family="Times New Roman,serif" font-size="14.00">11,13,2,5,8</text>
</g>
<!-- 10,13,2,3&#45;&gt;11,13,2,5,8 -->
<g id="edge19" class="edge">
<title>10,13,2,3&#45;&gt;11,13,2,5,8</title>
<path fill="none" stroke="black" d="M908.3,-126.7C919.15,-125.28 930.99,-123.73 942.5,-122.22"/>
<polygon fill="black" stroke="black" points="943.04,-125.68 952.5,-120.92 942.13,-118.74 943.04,-125.68"/>
<text text-anchor="middle" x="930.36" y="-128.15" font-family="Times New Roman,serif" font-size="14.00">b</text>
</g>
<!-- 11,2,5,8&#45;&gt;2,8,9 -->
<g id="edge21" class="edge">
<title>11,2,5,8&#45;&gt;2,8,9</title>
<path fill="none" stroke="black" d="M492.76,-143C510.49,-144.19 531.33,-145.59 548.91,-146.78"/>
<polygon fill="black" stroke="black" points="549.16,-150.3 559.37,-147.48 549.63,-143.32 549.16,-150.3"/>
<text text-anchor="middle" x="514.68" y="-149.15" font-family="Times New Roman,serif" font-size="14.00">b</text>
</g>
<!-- 10,12,2,3,6 -->
<g id="node17" class="node">
<title>10,12,2,3,6</title>
<ellipse fill="none" stroke="black" cx="588.03" cy="-51.35" rx="51.19" ry="51.19"/>
<text text-anchor="middle" x="588.03" y="-47.65" font-family="Times New Roman,serif" font-size="14.00">10,12,2,3,6</text>
</g>
<!-- 11,2,5,8&#45;&gt;10,12,2,3,6 -->
<g id="edge22" class="edge">
<title>11,2,5,8&#45;&gt;10,12,2,3,6</title>
<path fill="none" stroke="black" d="M486.42,-118.35C501.43,-108.35 519.52,-96.3 536.2,-85.19"/>
<polygon fill="black" stroke="black" points="538.39,-87.94 544.77,-79.49 534.51,-82.12 538.39,-87.94"/>
<text text-anchor="middle" x="514.68" y="-105.15" font-family="Times New Roman,serif" font-size="14.00">a</text>
</g>
<!-- 10,2,3,6&#45;&gt;2,3,4 -->
<g id="edge24" class="edge">
<title>10,2,3,6&#45;&gt;2,3,4</title>
<path fill="none" stroke="black" d="M625.85,-263.42C646.85,-255.48 673.04,-245.57 693.8,-237.72"/>
<polygon fill="black" stroke="black" points="695.1,-240.97 703.21,-234.16 692.62,-234.43 695.1,-240.97"/>
<text text-anchor="middle" x="661.37" y="-254.15" font-family="Times New Roman,serif" font-size="14.00">a</text>
</g>
<!-- 11,2,5,7,8 -->
<g id="node18" class="node">
<title>11,2,5,7,8</title>
<ellipse fill="none" stroke="black" cx="730.17" cy="-317.35" rx="46.59" ry="46.59"/>
<text text-anchor="middle" x="730.17" y="-313.65" font-family="Times New Roman,serif" font-size="14.00">11,2,5,7,8</text>
</g>
<!-- 10,2,3,6&#45;&gt;11,2,5,7,8 -->
<g id="edge23" class="edge">
<title>10,2,3,6&#45;&gt;11,2,5,7,8</title>
<path fill="none" stroke="black" d="M626.95,-288.17C641.79,-292.4 659.08,-297.34 675.17,-301.93"/>
<polygon fill="black" stroke="black" points="674.43,-305.36 685.01,-304.74 676.35,-298.63 674.43,-305.36"/>
<text text-anchor="middle" x="661.37" y="-302.15" font-family="Times New Roman,serif" font-size="14.00">b</text>
</g>
<!-- 13,2,5,8&#45;&gt;13,2,8,9 -->
<g id="edge25" class="edge">
<title>13,2,5,8&#45;&gt;13,2,8,9</title>
<path fill="none" stroke="black" d="M1131.01,-184.58C1121.26,-144.2 1099.75,-83.58 1055.05,-54.35 971.04,0.6 846.9,-14.22 779.31,-28.26"/>
<polygon fill="black" stroke="black" points="778.39,-24.88 769.36,-30.41 779.87,-31.72 778.39,-24.88"/>
<text text-anchor="middle" x="930.36" y="-21.15" font-family="Times New Roman,serif" font-size="14.00">b</text>
</g>
<!-- 10,13,2,3,6 -->
<g id="node19" class="node">
<title>10,13,2,3,6</title>
<ellipse fill="none" stroke="black" cx="1273.99" cy="-224.35" rx="51.19" ry="51.19"/>
<text text-anchor="middle" x="1273.99" y="-220.65" font-family="Times New Roman,serif" font-size="14.00">10,13,2,3,6</text>
</g>
<!-- 13,2,5,8&#45;&gt;10,13,2,3,6 -->
<g id="edge26" class="edge">
<title>13,2,5,8&#45;&gt;10,13,2,3,6</title>
<path fill="none" stroke="black" d="M1179.78,-224.35C1190.07,-224.35 1201.4,-224.35 1212.51,-224.35"/>
<polygon fill="black" stroke="black" points="1212.62,-227.85 1222.62,-224.35 1212.62,-220.85 1212.62,-227.85"/>
<text text-anchor="middle" x="1201.14" y="-228.15" font-family="Times New Roman,serif" font-size="14.00">a</text>
</g>
<!-- 13,2,3,4&#45;&gt;13,2,5,8 -->
<g id="edge27" class="edge">
<title>13,2,3,4&#45;&gt;13,2,5,8</title>
<path fill="none" stroke="black" d="M1044.08,-224.35C1057.96,-224.35 1073.75,-224.35 1088.38,-224.35"/>
<polygon fill="black" stroke="black" points="1088.79,-227.85 1098.79,-224.35 1088.79,-220.85 1088.79,-227.85"/>
<text text-anchor="middle" x="1077.05" y="-228.15" font-family="Times New Roman,serif" font-size="14.00">b</text>
</g>
<!-- 13,2,3,4&#45;&gt;13,2,3,4 -->
<g id="edge28" class="edge">
<title>13,2,3,4&#45;&gt;13,2,3,4</title>
<path fill="none" stroke="black" d="M990.23,-262.47C990.63,-273.82 995.13,-282.64 1003.7,-282.64 1009.47,-282.64 1013.38,-278.66 1015.46,-272.6"/>
<polygon fill="black" stroke="black" points="1018.95,-272.92 1017.17,-262.47 1012.05,-271.75 1018.95,-272.92"/>
<text text-anchor="middle" x="1003.7" y="-286.44" font-family="Times New Roman,serif" font-size="14.00">a</text>
</g>
</g>
</svg>
