<?xml version="1.0" encoding="UTF-8" standalone="no"?>
<!DOCTYPE svg PUBLIC "-//W3C//DTD SVG 1.1//EN"
 "http://www.w3.org/Graphics/SVG/1.1/DTD/svg11.dtd">
<!-- Generated by graphviz version 3.0.0 (20220226.1711)
 -->
<!-- Title: NFA to DFA Pages: 1 -->
<svg width="1051pt" height="387pt"
 viewBox="0.00 0.00 1051.05 386.64" xmlns="http://www.w3.org/2000/svg" xmlns:xlink="http://www.w3.org/1999/xlink">
<g id="graph0" class="graph" transform="scale(1 1) rotate(0) translate(4 382.64)">
<title>NFA to DFA</title>
<polygon fill="white" stroke="transparent" points="-4,4 -4,-382.64 1047.05,-382.64 1047.05,4 -4,4"/>
<!-- 0 -->
<g id="node1" class="node">
<title>0</title>
<ellipse fill="black" stroke="black" cx="1.8" cy="-167.35" rx="1.8" ry="1.8"/>
</g>
<!-- 1 -->
<g id="node2" class="node">
<title>1</title>
<ellipse fill="none" stroke="black" cx="58.6" cy="-167.35" rx="18" ry="18"/>
<text text-anchor="middle" x="58.6" y="-163.65" font-family="Times New Roman,serif" font-size="14.00">1</text>
</g>
<!-- 0&#45;&gt;1 -->
<g id="edge1" class="edge">
<title>0&#45;&gt;1</title>
<path fill="none" stroke="black" d="M3.75,-167.35C7.11,-167.35 18.87,-167.35 30.55,-167.35"/>
<polygon fill="black" stroke="black" points="30.58,-170.85 40.58,-167.35 30.58,-163.85 30.58,-170.85"/>
</g>
<!-- 2 -->
<g id="node3" class="node">
<title>2</title>
<ellipse fill="none" stroke="black" cx="152.6" cy="-167.35" rx="18" ry="18"/>
<text text-anchor="middle" x="152.6" y="-163.65" font-family="Times New Roman,serif" font-size="14.00">2</text>
</g>
<!-- 1&#45;&gt;2 -->
<g id="edge2" class="edge">
<title>1&#45;&gt;2</title>
<path fill="none" stroke="black" d="M76.9,-167.35C90.14,-167.35 108.65,-167.35 123.94,-167.35"/>
<polygon fill="black" stroke="black" points="124.37,-170.85 134.37,-167.35 124.37,-163.85 124.37,-170.85"/>
<text text-anchor="middle" x="105.6" y="-171.15" font-family="Times New Roman,serif" font-size="14.00">b, a</text>
</g>
<!-- 2,8 -->
<g id="node4" class="node">
<title>2,8</title>
<ellipse fill="none" stroke="black" cx="236.7" cy="-127.35" rx="22.2" ry="22.2"/>
<text text-anchor="middle" x="236.7" y="-123.65" font-family="Times New Roman,serif" font-size="14.00">2,8</text>
</g>
<!-- 2&#45;&gt;2,8 -->
<g id="edge3" class="edge">
<title>2&#45;&gt;2,8</title>
<path fill="none" stroke="black" d="M169.04,-159.82C179.78,-154.59 194.4,-147.47 207.21,-141.22"/>
<polygon fill="black" stroke="black" points="209.11,-144.19 216.57,-136.67 206.05,-137.9 209.11,-144.19"/>
<text text-anchor="middle" x="192.6" y="-154.15" font-family="Times New Roman,serif" font-size="14.00">b</text>
</g>
<!-- 2,3 -->
<g id="node5" class="node">
<title>2,3</title>
<ellipse fill="none" stroke="black" cx="236.7" cy="-230.35" rx="22.2" ry="22.2"/>
<text text-anchor="middle" x="236.7" y="-226.65" font-family="Times New Roman,serif" font-size="14.00">2,3</text>
</g>
<!-- 2&#45;&gt;2,3 -->
<g id="edge4" class="edge">
<title>2&#45;&gt;2,3</title>
<path fill="none" stroke="black" d="M167.53,-178.03C179.2,-186.99 196.16,-200 210.24,-210.81"/>
<polygon fill="black" stroke="black" points="208.5,-213.89 218.57,-217.2 212.76,-208.33 208.5,-213.89"/>
<text text-anchor="middle" x="192.6" y="-203.15" font-family="Times New Roman,serif" font-size="14.00">a</text>
</g>
<!-- 2,8,9 -->
<g id="node6" class="node">
<title>2,8,9</title>
<ellipse fill="none" stroke="black" cx="589.03" cy="-149.35" rx="28.7" ry="28.7"/>
<text text-anchor="middle" x="589.03" y="-145.65" font-family="Times New Roman,serif" font-size="14.00">2,8,9</text>
</g>
<!-- 2,8&#45;&gt;2,8,9 -->
<g id="edge5" class="edge">
<title>2,8&#45;&gt;2,8,9</title>
<path fill="none" stroke="black" d="M253.37,-112.32C293.97,-75.27 405.59,14.4 493.68,-28.35 531.25,-46.57 512.92,-77.73 537.68,-111.35 542.57,-117.98 548.93,-124 555.48,-129.18"/>
<polygon fill="black" stroke="black" points="553.65,-132.18 563.78,-135.3 557.81,-126.55 553.65,-132.18"/>
<text text-anchor="middle" x="391.09" y="-31.15" font-family="Times New Roman,serif" font-size="14.00">b</text>
</g>
<!-- 10,2,3 -->
<g id="node7" class="node">
<title>10,2,3</title>
<ellipse fill="none" stroke="black" cx="335.94" cy="-127.35" rx="33.29" ry="33.29"/>
<text text-anchor="middle" x="335.94" y="-123.65" font-family="Times New Roman,serif" font-size="14.00">10,2,3</text>
</g>
<!-- 2,8&#45;&gt;10,2,3 -->
<g id="edge6" class="edge">
<title>2,8&#45;&gt;10,2,3</title>
<path fill="none" stroke="black" d="M258.8,-127.35C268.74,-127.35 280.96,-127.35 292.68,-127.35"/>
<polygon fill="black" stroke="black" points="292.78,-130.85 302.78,-127.35 292.78,-123.85 292.78,-130.85"/>
<text text-anchor="middle" x="280.8" y="-131.15" font-family="Times New Roman,serif" font-size="14.00">a</text>
</g>
<!-- 2,5,8 -->
<g id="node8" class="node">
<title>2,5,8</title>
<ellipse fill="none" stroke="black" cx="335.94" cy="-230.35" rx="28.7" ry="28.7"/>
<text text-anchor="middle" x="335.94" y="-226.65" font-family="Times New Roman,serif" font-size="14.00">2,5,8</text>
</g>
<!-- 2,3&#45;&gt;2,5,8 -->
<g id="edge7" class="edge">
<title>2,3&#45;&gt;2,5,8</title>
<path fill="none" stroke="black" d="M258.8,-230.35C269.99,-230.35 284.09,-230.35 297.11,-230.35"/>
<polygon fill="black" stroke="black" points="297.23,-233.85 307.23,-230.35 297.23,-226.85 297.23,-233.85"/>
<text text-anchor="middle" x="280.8" y="-234.15" font-family="Times New Roman,serif" font-size="14.00">b</text>
</g>
<!-- 2,3,4 -->
<g id="node9" class="node">
<title>2,3,4</title>
<ellipse fill="none" stroke="black" cx="589.03" cy="-338.35" rx="28.7" ry="28.7"/>
<text text-anchor="middle" x="589.03" y="-334.65" font-family="Times New Roman,serif" font-size="14.00">2,3,4</text>
</g>
<!-- 2,3&#45;&gt;2,3,4 -->
<g id="edge8" class="edge">
<title>2,3&#45;&gt;2,3,4</title>
<path fill="none" stroke="black" d="M254.96,-243.3C285.15,-265.11 350.31,-308.54 413.09,-326.35 459.07,-339.38 514.45,-340.94 550.41,-340.2"/>
<polygon fill="black" stroke="black" points="550.56,-343.7 560.46,-339.92 550.37,-336.7 550.56,-343.7"/>
<text text-anchor="middle" x="391.09" y="-323.15" font-family="Times New Roman,serif" font-size="14.00">a</text>
</g>
<!-- 13,2,8,9 -->
<g id="node10" class="node">
<title>13,2,8,9</title>
<ellipse fill="none" stroke="black" cx="724.67" cy="-103.35" rx="40.09" ry="40.09"/>
<text text-anchor="middle" x="724.67" y="-99.65" font-family="Times New Roman,serif" font-size="14.00">13,2,8,9</text>
</g>
<!-- 2,8,9&#45;&gt;13,2,8,9 -->
<g id="edge9" class="edge">
<title>2,8,9&#45;&gt;13,2,8,9</title>
<path fill="none" stroke="black" d="M616.43,-140.26C633.62,-134.34 656.54,-126.45 676.77,-119.49"/>
<polygon fill="black" stroke="black" points="678.13,-122.72 686.45,-116.16 675.85,-116.1 678.13,-122.72"/>
<text text-anchor="middle" x="662.37" y="-129.15" font-family="Times New Roman,serif" font-size="14.00">b</text>
</g>
<!-- 10,13,2,3 -->
<g id="node11" class="node">
<title>10,13,2,3</title>
<ellipse fill="none" stroke="black" cx="852.16" cy="-212.35" rx="44.39" ry="44.39"/>
<text text-anchor="middle" x="852.16" y="-208.65" font-family="Times New Roman,serif" font-size="14.00">10,13,2,3</text>
</g>
<!-- 2,8,9&#45;&gt;10,13,2,3 -->
<g id="edge10" class="edge">
<title>2,8,9&#45;&gt;10,13,2,3</title>
<path fill="none" stroke="black" d="M615.59,-160.73C634.31,-168.66 660.5,-178.93 684.37,-185.35 721.86,-195.42 765.15,-202.29 798.23,-206.58"/>
<polygon fill="black" stroke="black" points="797.79,-210.05 808.15,-207.83 798.67,-203.11 797.79,-210.05"/>
<text text-anchor="middle" x="724.67" y="-206.15" font-family="Times New Roman,serif" font-size="14.00">a</text>
</g>
<!-- 10,2,3&#45;&gt;2,3,4 -->
<g id="edge12" class="edge">
<title>10,2,3&#45;&gt;2,3,4</title>
<path fill="none" stroke="black" d="M369.36,-125.76C404.34,-125.84 459.59,-131.45 493.68,-162.35 541.7,-205.86 500.34,-248.39 537.68,-301.35 542.39,-308.01 548.67,-313.96 555.21,-319.03"/>
<polygon fill="black" stroke="black" points="553.35,-322 563.51,-324.97 557.42,-316.31 553.35,-322"/>
<text text-anchor="middle" x="453.39" y="-166.15" font-family="Times New Roman,serif" font-size="14.00">a</text>
</g>
<!-- 11,2,5,8 -->
<g id="node12" class="node">
<title>11,2,5,8</title>
<ellipse fill="none" stroke="black" cx="453.39" cy="-77.35" rx="40.09" ry="40.09"/>
<text text-anchor="middle" x="453.39" y="-73.65" font-family="Times New Roman,serif" font-size="14.00">11,2,5,8</text>
</g>
<!-- 10,2,3&#45;&gt;11,2,5,8 -->
<g id="edge11" class="edge">
<title>10,2,3&#45;&gt;11,2,5,8</title>
<path fill="none" stroke="black" d="M366.67,-114.47C378.94,-109.16 393.43,-102.88 406.98,-97.01"/>
<polygon fill="black" stroke="black" points="408.38,-100.22 416.16,-93.03 405.6,-93.8 408.38,-100.22"/>
<text text-anchor="middle" x="391.09" y="-109.15" font-family="Times New Roman,serif" font-size="14.00">b</text>
</g>
<!-- 2,5,8&#45;&gt;2,8,9 -->
<g id="edge13" class="edge">
<title>2,5,8&#45;&gt;2,8,9</title>
<path fill="none" stroke="black" d="M363.34,-221.83C408.55,-207.25 500.85,-177.47 551.96,-160.98"/>
<polygon fill="black" stroke="black" points="553.17,-164.27 561.61,-157.87 551.02,-157.61 553.17,-164.27"/>
<text text-anchor="middle" x="453.39" y="-210.15" font-family="Times New Roman,serif" font-size="14.00">b</text>
</g>
<!-- 10,2,3,6 -->
<g id="node13" class="node">
<title>10,2,3,6</title>
<ellipse fill="none" stroke="black" cx="453.39" cy="-277.35" rx="40.09" ry="40.09"/>
<text text-anchor="middle" x="453.39" y="-273.65" font-family="Times New Roman,serif" font-size="14.00">10,2,3,6</text>
</g>
<!-- 2,5,8&#45;&gt;10,2,3,6 -->
<g id="edge14" class="edge">
<title>2,5,8&#45;&gt;10,2,3,6</title>
<path fill="none" stroke="black" d="M362.85,-240.89C375.61,-246.09 391.39,-252.51 406.13,-258.51"/>
<polygon fill="black" stroke="black" points="405.04,-261.85 415.62,-262.38 407.68,-255.36 405.04,-261.85"/>
<text text-anchor="middle" x="391.09" y="-257.15" font-family="Times New Roman,serif" font-size="14.00">a</text>
</g>
<!-- 13,2,5,8 -->
<g id="node14" class="node">
<title>13,2,5,8</title>
<ellipse fill="none" stroke="black" cx="724.67" cy="-285.35" rx="40.09" ry="40.09"/>
<text text-anchor="middle" x="724.67" y="-281.65" font-family="Times New Roman,serif" font-size="14.00">13,2,5,8</text>
</g>
<!-- 2,3,4&#45;&gt;13,2,5,8 -->
<g id="edge15" class="edge">
<title>2,3,4&#45;&gt;13,2,5,8</title>
<path fill="none" stroke="black" d="M615.8,-328.13C633.21,-321.22 656.71,-311.9 677.32,-303.73"/>
<polygon fill="black" stroke="black" points="678.86,-306.88 686.86,-299.94 676.28,-300.37 678.86,-306.88"/>
<text text-anchor="middle" x="662.37" y="-313.15" font-family="Times New Roman,serif" font-size="14.00">b</text>
</g>
<!-- 13,2,3,4 -->
<g id="node15" class="node">
<title>13,2,3,4</title>
<ellipse fill="none" stroke="black" cx="991.7" cy="-338.35" rx="40.09" ry="40.09"/>
<text text-anchor="middle" x="991.7" y="-334.65" font-family="Times New Roman,serif" font-size="14.00">13,2,3,4</text>
</g>
<!-- 2,3,4&#45;&gt;13,2,3,4 -->
<g id="edge16" class="edge">
<title>2,3,4&#45;&gt;13,2,3,4</title>
<path fill="none" stroke="black" d="M617.89,-338.35C684.92,-338.35 855.98,-338.35 941.07,-338.35"/>
<polygon fill="black" stroke="black" points="941.26,-341.85 951.26,-338.35 941.26,-334.85 941.26,-341.85"/>
<text text-anchor="middle" x="786.47" y="-342.15" font-family="Times New Roman,serif" font-size="14.00">a</text>
</g>
<!-- 13,2,8,9&#45;&gt;13,2,8,9 -->
<g id="edge17" class="edge">
<title>13,2,8,9&#45;&gt;13,2,8,9</title>
<path fill="none" stroke="black" d="M713.48,-142.3C713.97,-153.24 717.7,-161.64 724.67,-161.64 729.25,-161.64 732.43,-158.03 734.21,-152.45"/>
<polygon fill="black" stroke="black" points="737.71,-152.74 735.86,-142.3 730.8,-151.61 737.71,-152.74"/>
<text text-anchor="middle" x="724.67" y="-165.44" font-family="Times New Roman,serif" font-size="14.00">b</text>
</g>
<!-- 13,2,8,9&#45;&gt;10,13,2,3 -->
<g id="edge18" class="edge">
<title>13,2,8,9&#45;&gt;10,13,2,3</title>
<path fill="none" stroke="black" d="M755.73,-129.45C772.08,-143.65 792.53,-161.42 810.31,-176.86"/>
<polygon fill="black" stroke="black" points="808.42,-179.86 818.27,-183.77 813.01,-174.57 808.42,-179.86"/>
<text text-anchor="middle" x="786.47" y="-162.15" font-family="Times New Roman,serif" font-size="14.00">a</text>
</g>
<!-- 10,13,2,3&#45;&gt;13,2,3,4 -->
<g id="edge20" class="edge">
<title>10,13,2,3&#45;&gt;13,2,3,4</title>
<path fill="none" stroke="black" d="M885.41,-241.89C905.92,-260.67 932.53,-285.05 953.87,-304.6"/>
<polygon fill="black" stroke="black" points="951.73,-307.39 961.47,-311.57 956.46,-302.23 951.73,-307.39"/>
<text text-anchor="middle" x="918.36" y="-279.15" font-family="Times New Roman,serif" font-size="14.00">a</text>
</g>
<!-- 11,13,2,5,8 -->
<g id="node16" class="node">
<title>11,13,2,5,8</title>
<ellipse fill="none" stroke="black" cx="991.7" cy="-212.35" rx="51.19" ry="51.19"/>
<text text-anchor="middle" x="991.7" y="-208.65" font-family="Times New Roman,serif" font-size="14.00">11,13,2,5,8</text>
</g>
<!-- 10,13,2,3&#45;&gt;11,13,2,5,8 -->
<g id="edge19" class="edge">
<title>10,13,2,3&#45;&gt;11,13,2,5,8</title>
<path fill="none" stroke="black" d="M896.68,-212.35C907.29,-212.35 918.82,-212.35 930.06,-212.35"/>
<polygon fill="black" stroke="black" points="930.27,-215.85 940.27,-212.35 930.27,-208.85 930.27,-215.85"/>
<text text-anchor="middle" x="918.36" y="-216.15" font-family="Times New Roman,serif" font-size="14.00">b</text>
</g>
<!-- 11,2,5,8&#45;&gt;2,8,9 -->
<g id="edge21" class="edge">
<title>11,2,5,8&#45;&gt;2,8,9</title>
<path fill="none" stroke="black" d="M489.15,-96.07C509.31,-106.94 534.58,-120.55 554.52,-131.3"/>
<polygon fill="black" stroke="black" points="553.1,-134.5 563.56,-136.16 556.42,-128.34 553.1,-134.5"/>
<text text-anchor="middle" x="515.68" y="-115.15" font-family="Times New Roman,serif" font-size="14.00">b</text>
</g>
<!-- 10,12,2,3,6 -->
<g id="node17" class="node">
<title>10,12,2,3,6</title>
<ellipse fill="none" stroke="black" cx="589.03" cy="-51.35" rx="51.19" ry="51.19"/>
<text text-anchor="middle" x="589.03" y="-47.65" font-family="Times New Roman,serif" font-size="14.00">10,12,2,3,6</text>
</g>
<!-- 11,2,5,8&#45;&gt;10,12,2,3,6 -->
<g id="edge22" class="edge">
<title>11,2,5,8&#45;&gt;10,12,2,3,6</title>
<path fill="none" stroke="black" d="M493.04,-69.83C504.12,-67.67 516.47,-65.27 528.5,-62.93"/>
<polygon fill="black" stroke="black" points="529.34,-66.33 538.49,-60.98 528.01,-59.46 529.34,-66.33"/>
<text text-anchor="middle" x="515.68" y="-70.15" font-family="Times New Roman,serif" font-size="14.00">a</text>
</g>
<!-- 10,2,3,6&#45;&gt;2,3,4 -->
<g id="edge24" class="edge">
<title>10,2,3,6&#45;&gt;2,3,4</title>
<path fill="none" stroke="black" d="M490.55,-293.85C510.13,-302.79 534.18,-313.77 553.5,-322.58"/>
<polygon fill="black" stroke="black" points="552.29,-325.88 562.84,-326.85 555.19,-319.51 552.29,-325.88"/>
<text text-anchor="middle" x="515.68" y="-309.15" font-family="Times New Roman,serif" font-size="14.00">a</text>
</g>
<!-- 11,2,5,7,8 -->
<g id="node18" class="node">
<title>11,2,5,7,8</title>
<ellipse fill="none" stroke="black" cx="589.03" cy="-245.35" rx="46.59" ry="46.59"/>
<text text-anchor="middle" x="589.03" y="-241.65" font-family="Times New Roman,serif" font-size="14.00">11,2,5,7,8</text>
</g>
<!-- 10,2,3,6&#45;&gt;11,2,5,7,8 -->
<g id="edge23" class="edge">
<title>10,2,3,6&#45;&gt;11,2,5,7,8</title>
<path fill="none" stroke="black" d="M488.2,-256.43C495.68,-252.73 503.75,-249.41 511.68,-247.35 518.15,-245.66 525.03,-244.57 531.91,-243.89"/>
<polygon fill="black" stroke="black" points="532.21,-247.38 541.94,-243.18 531.71,-240.4 532.21,-247.38"/>
<text text-anchor="middle" x="515.68" y="-251.15" font-family="Times New Roman,serif" font-size="14.00">b</text>
</g>
</g>
</svg>
