<?xml version="1.0" encoding="UTF-8" standalone="no"?>
<!DOCTYPE svg PUBLIC "-//W3C//DTD SVG 1.1//EN"
 "http://www.w3.org/Graphics/SVG/1.1/DTD/svg11.dtd">
<!-- Generated by graphviz version 3.0.0 (20220226.1711)
 -->
<!-- Title: NFA to DFA Pages: 1 -->
<svg width="1200pt" height="432pt"
 viewBox="0.00 0.00 1199.64 432.35" xmlns="http://www.w3.org/2000/svg" xmlns:xlink="http://www.w3.org/1999/xlink">
<g id="graph0" class="graph" transform="scale(1 1) rotate(0) translate(4 428.35)">
<title>NFA to DFA</title>
<polygon fill="white" stroke="transparent" points="-4,4 -4,-428.35 1195.64,-428.35 1195.64,4 -4,4"/>
<!-- 0 -->
<g id="node1" class="node">
<title>0</title>
<ellipse fill="black" stroke="black" cx="1.8" cy="-196.35" rx="1.8" ry="1.8"/>
</g>
<!-- 1 -->
<g id="node2" class="node">
<title>1</title>
<ellipse fill="none" stroke="black" cx="58.6" cy="-196.35" rx="18" ry="18"/>
<text text-anchor="middle" x="58.6" y="-192.65" font-family="Times New Roman,serif" font-size="14.00">1</text>
</g>
<!-- 0&#45;&gt;1 -->
<g id="edge1" class="edge">
<title>0&#45;&gt;1</title>
<path fill="none" stroke="black" d="M3.75,-196.35C7.11,-196.35 18.87,-196.35 30.55,-196.35"/>
<polygon fill="black" stroke="black" points="30.58,-199.85 40.58,-196.35 30.58,-192.85 30.58,-199.85"/>
</g>
<!-- 2 -->
<g id="node3" class="node">
<title>2</title>
<ellipse fill="none" stroke="black" cx="152.6" cy="-196.35" rx="18" ry="18"/>
<text text-anchor="middle" x="152.6" y="-192.65" font-family="Times New Roman,serif" font-size="14.00">2</text>
</g>
<!-- 1&#45;&gt;2 -->
<g id="edge2" class="edge">
<title>1&#45;&gt;2</title>
<path fill="none" stroke="black" d="M76.9,-196.35C90.14,-196.35 108.65,-196.35 123.94,-196.35"/>
<polygon fill="black" stroke="black" points="124.37,-199.85 134.37,-196.35 124.37,-192.85 124.37,-199.85"/>
<text text-anchor="middle" x="105.6" y="-200.15" font-family="Times New Roman,serif" font-size="14.00">b, a</text>
</g>
<!-- 2,8 -->
<g id="node4" class="node">
<title>2,8</title>
<ellipse fill="none" stroke="black" cx="330.39" cy="-179.35" rx="22.2" ry="22.2"/>
<text text-anchor="middle" x="330.39" y="-175.65" font-family="Times New Roman,serif" font-size="14.00">2,8</text>
</g>
<!-- 2&#45;&gt;2,8 -->
<g id="edge3" class="edge">
<title>2&#45;&gt;2,8</title>
<path fill="none" stroke="black" d="M170.67,-194.62C182.67,-193.41 199.12,-191.76 213.6,-190.35 242.18,-187.56 274.75,-184.47 298.04,-182.28"/>
<polygon fill="black" stroke="black" points="298.42,-185.76 308.05,-181.34 297.77,-178.79 298.42,-185.76"/>
<text text-anchor="middle" x="235.7" y="-194.15" font-family="Times New Roman,serif" font-size="14.00">b</text>
</g>
<!-- 2,3 -->
<g id="node5" class="node">
<title>2,3</title>
<ellipse fill="none" stroke="black" cx="235.7" cy="-236.35" rx="22.2" ry="22.2"/>
<text text-anchor="middle" x="235.7" y="-232.65" font-family="Times New Roman,serif" font-size="14.00">2,3</text>
</g>
<!-- 2&#45;&gt;2,3 -->
<g id="edge4" class="edge">
<title>2&#45;&gt;2,3</title>
<path fill="none" stroke="black" d="M169.24,-204.06C179.8,-209.27 194.05,-216.29 206.55,-222.46"/>
<polygon fill="black" stroke="black" points="205.17,-225.68 215.68,-226.97 208.26,-219.4 205.17,-225.68"/>
<text text-anchor="middle" x="192.1" y="-220.15" font-family="Times New Roman,serif" font-size="14.00">a</text>
</g>
<!-- 2,8,9 -->
<g id="node6" class="node">
<title>2,8,9</title>
<ellipse fill="none" stroke="black" cx="715.52" cy="-149.35" rx="28.7" ry="28.7"/>
<text text-anchor="middle" x="715.52" y="-145.65" font-family="Times New Roman,serif" font-size="14.00">2,8,9</text>
</g>
<!-- 2,8&#45;&gt;2,8,9 -->
<g id="edge5" class="edge">
<title>2,8&#45;&gt;2,8,9</title>
<path fill="none" stroke="black" d="M352.54,-177.69C414.69,-172.82 597.42,-158.51 676.89,-152.29"/>
<polygon fill="black" stroke="black" points="677.25,-155.77 686.95,-151.5 676.71,-148.8 677.25,-155.77"/>
<text text-anchor="middle" x="504.58" y="-169.15" font-family="Times New Roman,serif" font-size="14.00">b</text>
</g>
<!-- 10,2,3 -->
<g id="node7" class="node">
<title>10,2,3</title>
<ellipse fill="none" stroke="black" cx="442.29" cy="-118.35" rx="33.29" ry="33.29"/>
<text text-anchor="middle" x="442.29" y="-114.65" font-family="Times New Roman,serif" font-size="14.00">10,2,3</text>
</g>
<!-- 2,8&#45;&gt;10,2,3 -->
<g id="edge6" class="edge">
<title>2,8&#45;&gt;10,2,3</title>
<path fill="none" stroke="black" d="M349.32,-167.33C357.62,-161.93 367.68,-155.61 376.99,-150.35 385.2,-145.71 394.18,-141.02 402.74,-136.71"/>
<polygon fill="black" stroke="black" points="404.42,-139.78 411.82,-132.21 401.31,-133.51 404.42,-139.78"/>
<text text-anchor="middle" x="380.49" y="-154.15" font-family="Times New Roman,serif" font-size="14.00">a</text>
</g>
<!-- 2,5,8 -->
<g id="node8" class="node">
<title>2,5,8</title>
<ellipse fill="none" stroke="black" cx="330.39" cy="-317.35" rx="28.7" ry="28.7"/>
<text text-anchor="middle" x="330.39" y="-313.65" font-family="Times New Roman,serif" font-size="14.00">2,5,8</text>
</g>
<!-- 2,3&#45;&gt;2,5,8 -->
<g id="edge7" class="edge">
<title>2,3&#45;&gt;2,5,8</title>
<path fill="none" stroke="black" d="M252.84,-250.45C265.92,-261.88 284.67,-278.27 300.35,-291.96"/>
<polygon fill="black" stroke="black" points="298.38,-294.89 308.21,-298.84 302.99,-289.62 298.38,-294.89"/>
<text text-anchor="middle" x="279.8" y="-280.15" font-family="Times New Roman,serif" font-size="14.00">b</text>
</g>
<!-- 2,3,4 -->
<g id="node9" class="node">
<title>2,3,4</title>
<ellipse fill="none" stroke="black" cx="573.38" cy="-236.35" rx="28.7" ry="28.7"/>
<text text-anchor="middle" x="573.38" y="-232.65" font-family="Times New Roman,serif" font-size="14.00">2,3,4</text>
</g>
<!-- 2,3&#45;&gt;2,3,4 -->
<g id="edge8" class="edge">
<title>2,3&#45;&gt;2,3,4</title>
<path fill="none" stroke="black" d="M257.95,-236.35C313.47,-236.35 463.44,-236.35 534.31,-236.35"/>
<polygon fill="black" stroke="black" points="534.57,-239.85 544.57,-236.35 534.57,-232.85 534.57,-239.85"/>
<text text-anchor="middle" x="380.49" y="-240.15" font-family="Times New Roman,serif" font-size="14.00">a</text>
</g>
<!-- 13,2,8,9 -->
<g id="node10" class="node">
<title>13,2,8,9</title>
<ellipse fill="none" stroke="black" cx="862.21" cy="-149.35" rx="40.09" ry="40.09"/>
<text text-anchor="middle" x="862.21" y="-145.65" font-family="Times New Roman,serif" font-size="14.00">13,2,8,9</text>
</g>
<!-- 2,8,9&#45;&gt;13,2,8,9 -->
<g id="edge9" class="edge">
<title>2,8,9&#45;&gt;13,2,8,9</title>
<path fill="none" stroke="black" d="M744.42,-149.35C763.5,-149.35 789.33,-149.35 811.84,-149.35"/>
<polygon fill="black" stroke="black" points="811.91,-152.85 821.91,-149.35 811.91,-145.85 811.91,-152.85"/>
<text text-anchor="middle" x="788.87" y="-153.15" font-family="Times New Roman,serif" font-size="14.00">b</text>
</g>
<!-- 10,13,2,3 -->
<g id="node11" class="node">
<title>10,13,2,3</title>
<ellipse fill="none" stroke="black" cx="1000.75" cy="-149.35" rx="44.39" ry="44.39"/>
<text text-anchor="middle" x="1000.75" y="-145.65" font-family="Times New Roman,serif" font-size="14.00">10,13,2,3</text>
</g>
<!-- 2,8,9&#45;&gt;10,13,2,3 -->
<g id="edge10" class="edge">
<title>2,8,9&#45;&gt;10,13,2,3</title>
<path fill="none" stroke="black" d="M739.03,-133.05C764.32,-114.91 802.87,-87.8 810.87,-85.35 854.49,-71.94 870.22,-71.02 913.56,-85.35 930.57,-90.97 946.96,-101.4 960.8,-112.22"/>
<polygon fill="black" stroke="black" points="958.67,-115.01 968.63,-118.61 963.09,-109.58 958.67,-115.01"/>
<text text-anchor="middle" x="862.21" y="-89.15" font-family="Times New Roman,serif" font-size="14.00">a</text>
</g>
<!-- 10,2,3&#45;&gt;2,3,4 -->
<g id="edge12" class="edge">
<title>10,2,3&#45;&gt;2,3,4</title>
<path fill="none" stroke="black" d="M474.88,-125.61C486.3,-129.3 498.78,-134.69 508.58,-142.35 528.71,-158.07 544.8,-181.94 555.78,-201.69"/>
<polygon fill="black" stroke="black" points="552.81,-203.55 560.61,-210.71 558.98,-200.25 552.81,-203.55"/>
<text text-anchor="middle" x="504.58" y="-146.15" font-family="Times New Roman,serif" font-size="14.00">a</text>
</g>
<!-- 11,2,5,8 -->
<g id="node12" class="node">
<title>11,2,5,8</title>
<ellipse fill="none" stroke="black" cx="573.38" cy="-103.35" rx="40.09" ry="40.09"/>
<text text-anchor="middle" x="573.38" y="-99.65" font-family="Times New Roman,serif" font-size="14.00">11,2,5,8</text>
</g>
<!-- 10,2,3&#45;&gt;11,2,5,8 -->
<g id="edge11" class="edge">
<title>10,2,3&#45;&gt;11,2,5,8</title>
<path fill="none" stroke="black" d="M474.27,-109.42C482.73,-107.36 491.95,-105.45 500.58,-104.35 507.73,-103.44 515.3,-102.88 522.74,-102.58"/>
<polygon fill="black" stroke="black" points="522.87,-106.08 532.77,-102.3 522.67,-99.08 522.87,-106.08"/>
<text text-anchor="middle" x="504.58" y="-108.15" font-family="Times New Roman,serif" font-size="14.00">b</text>
</g>
<!-- 2,5,8&#45;&gt;2,8,9 -->
<g id="edge13" class="edge">
<title>2,5,8&#45;&gt;2,8,9</title>
<path fill="none" stroke="black" d="M352.46,-335.81C365.77,-346.45 383.83,-359.11 401.99,-366.35 492.42,-402.36 544.25,-446.25 620.18,-385.35 690.49,-328.94 615.42,-263.17 664.18,-187.35 668.71,-180.29 675.05,-174.05 681.7,-168.77"/>
<polygon fill="black" stroke="black" points="684.14,-171.32 690.17,-162.61 680.02,-165.66 684.14,-171.32"/>
<text text-anchor="middle" x="504.58" y="-413.15" font-family="Times New Roman,serif" font-size="14.00">b</text>
</g>
<!-- 10,2,3,6 -->
<g id="node13" class="node">
<title>10,2,3,6</title>
<ellipse fill="none" stroke="black" cx="442.29" cy="-317.35" rx="40.09" ry="40.09"/>
<text text-anchor="middle" x="442.29" y="-313.65" font-family="Times New Roman,serif" font-size="14.00">10,2,3,6</text>
</g>
<!-- 2,5,8&#45;&gt;10,2,3,6 -->
<g id="edge14" class="edge">
<title>2,5,8&#45;&gt;10,2,3,6</title>
<path fill="none" stroke="black" d="M359.12,-317.35C369.06,-317.35 380.57,-317.35 391.79,-317.35"/>
<polygon fill="black" stroke="black" points="391.94,-320.85 401.94,-317.35 391.94,-313.85 391.94,-320.85"/>
<text text-anchor="middle" x="380.49" y="-321.15" font-family="Times New Roman,serif" font-size="14.00">a</text>
</g>
<!-- 13,2,5,8 -->
<g id="node14" class="node">
<title>13,2,5,8</title>
<ellipse fill="none" stroke="black" cx="715.52" cy="-236.35" rx="40.09" ry="40.09"/>
<text text-anchor="middle" x="715.52" y="-232.65" font-family="Times New Roman,serif" font-size="14.00">13,2,5,8</text>
</g>
<!-- 2,3,4&#45;&gt;13,2,5,8 -->
<g id="edge15" class="edge">
<title>2,3,4&#45;&gt;13,2,5,8</title>
<path fill="none" stroke="black" d="M602.07,-236.35C620.03,-236.35 643.94,-236.35 665.09,-236.35"/>
<polygon fill="black" stroke="black" points="665.22,-239.85 675.22,-236.35 665.22,-232.85 665.22,-239.85"/>
<text text-anchor="middle" x="642.18" y="-240.15" font-family="Times New Roman,serif" font-size="14.00">b</text>
</g>
<!-- 13,2,3,4 -->
<g id="node15" class="node">
<title>13,2,3,4</title>
<ellipse fill="none" stroke="black" cx="1140.29" cy="-304.35" rx="40.09" ry="40.09"/>
<text text-anchor="middle" x="1140.29" y="-300.65" font-family="Times New Roman,serif" font-size="14.00">13,2,3,4</text>
</g>
<!-- 2,3,4&#45;&gt;13,2,3,4 -->
<g id="edge16" class="edge">
<title>2,3,4&#45;&gt;13,2,3,4</title>
<path fill="none" stroke="black" d="M596.9,-253.33C604.52,-259.39 612.93,-266.43 620.18,-273.35 665.82,-316.86 651.45,-379.35 714.52,-379.35 714.52,-379.35 714.52,-379.35 1001.75,-379.35 1039.06,-379.35 1075.87,-357.82 1102.01,-337.83"/>
<polygon fill="black" stroke="black" points="1104.44,-340.37 1110.11,-331.42 1100.09,-334.88 1104.44,-340.37"/>
<text text-anchor="middle" x="862.21" y="-383.15" font-family="Times New Roman,serif" font-size="14.00">a</text>
</g>
<!-- 13,2,8,9&#45;&gt;13,2,8,9 -->
<g id="edge17" class="edge">
<title>13,2,8,9&#45;&gt;13,2,8,9</title>
<path fill="none" stroke="black" d="M848.74,-187.47C849.14,-198.82 853.63,-207.64 862.21,-207.64 867.98,-207.64 871.89,-203.66 873.97,-197.6"/>
<polygon fill="black" stroke="black" points="877.46,-197.92 875.68,-187.47 870.56,-196.75 877.46,-197.92"/>
<text text-anchor="middle" x="862.21" y="-211.44" font-family="Times New Roman,serif" font-size="14.00">b</text>
</g>
<!-- 13,2,8,9&#45;&gt;10,13,2,3 -->
<g id="edge18" class="edge">
<title>13,2,8,9&#45;&gt;10,13,2,3</title>
<path fill="none" stroke="black" d="M902.71,-149.35C916.27,-149.35 931.69,-149.35 946.18,-149.35"/>
<polygon fill="black" stroke="black" points="946.52,-152.85 956.52,-149.35 946.52,-145.85 946.52,-152.85"/>
<text text-anchor="middle" x="935.06" y="-153.15" font-family="Times New Roman,serif" font-size="14.00">a</text>
</g>
<!-- 10,13,2,3&#45;&gt;13,2,3,4 -->
<g id="edge20" class="edge">
<title>10,13,2,3&#45;&gt;13,2,3,4</title>
<path fill="none" stroke="black" d="M1030.92,-182.22C1052.93,-207.02 1083.15,-241.08 1106.09,-266.93"/>
<polygon fill="black" stroke="black" points="1103.7,-269.51 1112.96,-274.67 1108.94,-264.86 1103.7,-269.51"/>
<text text-anchor="middle" x="1066.95" y="-230.15" font-family="Times New Roman,serif" font-size="14.00">a</text>
</g>
<!-- 11,13,2,5,8 -->
<g id="node16" class="node">
<title>11,13,2,5,8</title>
<ellipse fill="none" stroke="black" cx="1140.29" cy="-149.35" rx="51.19" ry="51.19"/>
<text text-anchor="middle" x="1140.29" y="-145.65" font-family="Times New Roman,serif" font-size="14.00">11,13,2,5,8</text>
</g>
<!-- 10,13,2,3&#45;&gt;11,13,2,5,8 -->
<g id="edge19" class="edge">
<title>10,13,2,3&#45;&gt;11,13,2,5,8</title>
<path fill="none" stroke="black" d="M1045.27,-149.35C1055.88,-149.35 1067.41,-149.35 1078.65,-149.35"/>
<polygon fill="black" stroke="black" points="1078.86,-152.85 1088.86,-149.35 1078.86,-145.85 1078.86,-152.85"/>
<text text-anchor="middle" x="1066.95" y="-153.15" font-family="Times New Roman,serif" font-size="14.00">b</text>
</g>
<!-- 11,2,5,8&#45;&gt;2,8,9 -->
<g id="edge21" class="edge">
<title>11,2,5,8&#45;&gt;2,8,9</title>
<path fill="none" stroke="black" d="M611.93,-115.67C632.56,-122.44 658.01,-130.8 678.4,-137.49"/>
<polygon fill="black" stroke="black" points="677.37,-140.84 687.97,-140.63 679.56,-134.18 677.37,-140.84"/>
<text text-anchor="middle" x="642.18" y="-130.15" font-family="Times New Roman,serif" font-size="14.00">b</text>
</g>
<!-- 10,12,2,3,6 -->
<g id="node17" class="node">
<title>10,12,2,3,6</title>
<ellipse fill="none" stroke="black" cx="715.52" cy="-51.35" rx="51.19" ry="51.19"/>
<text text-anchor="middle" x="715.52" y="-47.65" font-family="Times New Roman,serif" font-size="14.00">10,12,2,3,6</text>
</g>
<!-- 11,2,5,8&#45;&gt;10,12,2,3,6 -->
<g id="edge22" class="edge">
<title>11,2,5,8&#45;&gt;10,12,2,3,6</title>
<path fill="none" stroke="black" d="M611.57,-89.55C625.67,-84.31 642.07,-78.23 657.58,-72.47"/>
<polygon fill="black" stroke="black" points="658.93,-75.7 667.09,-68.94 656.5,-69.14 658.93,-75.7"/>
<text text-anchor="middle" x="642.18" y="-82.15" font-family="Times New Roman,serif" font-size="14.00">a</text>
</g>
<!-- 10,2,3,6&#45;&gt;2,3,4 -->
<g id="edge24" class="edge">
<title>10,2,3,6&#45;&gt;2,3,4</title>
<path fill="none" stroke="black" d="M476.87,-296.28C496.34,-284.05 520.75,-268.74 540.02,-256.65"/>
<polygon fill="black" stroke="black" points="542.13,-259.46 548.74,-251.18 538.41,-253.53 542.13,-259.46"/>
<text text-anchor="middle" x="504.58" y="-282.15" font-family="Times New Roman,serif" font-size="14.00">a</text>
</g>
<!-- 11,2,5,7,8 -->
<g id="node18" class="node">
<title>11,2,5,7,8</title>
<ellipse fill="none" stroke="black" cx="573.38" cy="-329.35" rx="46.59" ry="46.59"/>
<text text-anchor="middle" x="573.38" y="-325.65" font-family="Times New Roman,serif" font-size="14.00">11,2,5,7,8</text>
</g>
<!-- 10,2,3,6&#45;&gt;11,2,5,7,8 -->
<g id="edge23" class="edge">
<title>10,2,3,6&#45;&gt;11,2,5,7,8</title>
<path fill="none" stroke="black" d="M482.72,-321.01C493.28,-321.99 504.9,-323.07 516.18,-324.12"/>
<polygon fill="black" stroke="black" points="516.11,-327.63 526.4,-325.07 516.76,-320.66 516.11,-327.63"/>
<text text-anchor="middle" x="504.58" y="-327.15" font-family="Times New Roman,serif" font-size="14.00">b</text>
</g>
<!-- 13,2,5,8&#45;&gt;13,2,8,9 -->
<g id="edge25" class="edge">
<title>13,2,5,8&#45;&gt;13,2,8,9</title>
<path fill="none" stroke="black" d="M750.44,-215.95C770.78,-203.72 796.82,-188.06 818.54,-175"/>
<polygon fill="black" stroke="black" points="820.48,-177.92 827.25,-169.77 816.88,-171.92 820.48,-177.92"/>
<text text-anchor="middle" x="788.87" y="-196.15" font-family="Times New Roman,serif" font-size="14.00">b</text>
</g>
<!-- 10,13,2,3,6 -->
<g id="node19" class="node">
<title>10,13,2,3,6</title>
<ellipse fill="none" stroke="black" cx="862.21" cy="-292.35" rx="51.19" ry="51.19"/>
<text text-anchor="middle" x="862.21" y="-288.65" font-family="Times New Roman,serif" font-size="14.00">10,13,2,3,6</text>
</g>
<!-- 13,2,5,8&#45;&gt;10,13,2,3,6 -->
<g id="edge26" class="edge">
<title>13,2,5,8&#45;&gt;10,13,2,3,6</title>
<path fill="none" stroke="black" d="M753.41,-250.62C768.95,-256.64 787.39,-263.77 804.59,-270.43"/>
<polygon fill="black" stroke="black" points="803.4,-273.72 813.99,-274.07 805.93,-267.19 803.4,-273.72"/>
<text text-anchor="middle" x="788.87" y="-268.15" font-family="Times New Roman,serif" font-size="14.00">a</text>
</g>
</g>
</svg>
