<?xml version="1.0" encoding="UTF-8" standalone="no"?>
<!DOCTYPE svg PUBLIC "-//W3C//DTD SVG 1.1//EN"
 "http://www.w3.org/Graphics/SVG/1.1/DTD/svg11.dtd">
<!-- Generated by graphviz version 3.0.0 (20220226.1711)
 -->
<!-- Title: NFA to DFA Pages: 1 -->
<svg width="1969pt" height="522pt"
 viewBox="0.00 0.00 1969.49 522.35" xmlns="http://www.w3.org/2000/svg" xmlns:xlink="http://www.w3.org/1999/xlink">
<g id="graph0" class="graph" transform="scale(1 1) rotate(0) translate(4 518.35)">
<title>NFA to DFA</title>
<polygon fill="white" stroke="transparent" points="-4,4 -4,-518.35 1965.49,-518.35 1965.49,4 -4,4"/>
<!-- 0 -->
<g id="node1" class="node">
<title>0</title>
<ellipse fill="black" stroke="black" cx="1.8" cy="-180" rx="1.8" ry="1.8"/>
</g>
<!-- 1 -->
<g id="node2" class="node">
<title>1</title>
<ellipse fill="none" stroke="black" cx="58.6" cy="-180" rx="18" ry="18"/>
<text text-anchor="middle" x="58.6" y="-176.3" font-family="Times New Roman,serif" font-size="14.00">1</text>
</g>
<!-- 0&#45;&gt;1 -->
<g id="edge1" class="edge">
<title>0&#45;&gt;1</title>
<path fill="none" stroke="black" d="M3.75,-180C7.11,-180 18.87,-180 30.55,-180"/>
<polygon fill="black" stroke="black" points="30.58,-183.5 40.58,-180 30.58,-176.5 30.58,-183.5"/>
</g>
<!-- 2 -->
<g id="node3" class="node">
<title>2</title>
<ellipse fill="none" stroke="black" cx="152.6" cy="-180" rx="18" ry="18"/>
<text text-anchor="middle" x="152.6" y="-176.3" font-family="Times New Roman,serif" font-size="14.00">2</text>
</g>
<!-- 1&#45;&gt;2 -->
<g id="edge2" class="edge">
<title>1&#45;&gt;2</title>
<path fill="none" stroke="black" d="M76.9,-180C90.14,-180 108.65,-180 123.94,-180"/>
<polygon fill="black" stroke="black" points="124.37,-183.5 134.37,-180 124.37,-176.5 124.37,-183.5"/>
<text text-anchor="middle" x="105.6" y="-183.8" font-family="Times New Roman,serif" font-size="14.00">b, a</text>
</g>
<!-- 2,8 -->
<g id="node4" class="node">
<title>2,8</title>
<ellipse fill="none" stroke="black" cx="236.7" cy="-243" rx="22.2" ry="22.2"/>
<text text-anchor="middle" x="236.7" y="-239.3" font-family="Times New Roman,serif" font-size="14.00">2,8</text>
</g>
<!-- 2&#45;&gt;2,8 -->
<g id="edge3" class="edge">
<title>2&#45;&gt;2,8</title>
<path fill="none" stroke="black" d="M167.53,-190.69C179.2,-199.64 196.16,-212.66 210.24,-223.46"/>
<polygon fill="black" stroke="black" points="208.5,-226.54 218.57,-229.85 212.76,-220.99 208.5,-226.54"/>
<text text-anchor="middle" x="192.6" y="-215.8" font-family="Times New Roman,serif" font-size="14.00">b</text>
</g>
<!-- 2,3 -->
<g id="node5" class="node">
<title>2,3</title>
<ellipse fill="none" stroke="black" cx="236.7" cy="-140" rx="22.2" ry="22.2"/>
<text text-anchor="middle" x="236.7" y="-136.3" font-family="Times New Roman,serif" font-size="14.00">2,3</text>
</g>
<!-- 2&#45;&gt;2,3 -->
<g id="edge4" class="edge">
<title>2&#45;&gt;2,3</title>
<path fill="none" stroke="black" d="M169.04,-172.48C179.78,-167.25 194.4,-160.12 207.21,-153.88"/>
<polygon fill="black" stroke="black" points="209.11,-156.85 216.57,-149.32 206.05,-150.55 209.11,-156.85"/>
<text text-anchor="middle" x="192.6" y="-166.8" font-family="Times New Roman,serif" font-size="14.00">a</text>
</g>
<!-- 2,8,9 -->
<g id="node6" class="node">
<title>2,8,9</title>
<ellipse fill="none" stroke="black" cx="584.48" cy="-309" rx="28.7" ry="28.7"/>
<text text-anchor="middle" x="584.48" y="-305.3" font-family="Times New Roman,serif" font-size="14.00">2,8,9</text>
</g>
<!-- 2,8&#45;&gt;2,8,9 -->
<g id="edge5" class="edge">
<title>2,8&#45;&gt;2,8,9</title>
<path fill="none" stroke="black" d="M254.18,-256.9C266.67,-266.58 284.72,-278.83 302.8,-285 386.06,-313.44 490.92,-313.76 545.89,-311.44"/>
<polygon fill="black" stroke="black" points="546.06,-314.93 555.88,-310.96 545.73,-307.94 546.06,-314.93"/>
<text text-anchor="middle" x="391.09" y="-309.8" font-family="Times New Roman,serif" font-size="14.00">b</text>
</g>
<!-- 10,2,3 -->
<g id="node7" class="node">
<title>10,2,3</title>
<ellipse fill="none" stroke="black" cx="335.94" cy="-243" rx="33.29" ry="33.29"/>
<text text-anchor="middle" x="335.94" y="-239.3" font-family="Times New Roman,serif" font-size="14.00">10,2,3</text>
</g>
<!-- 2,8&#45;&gt;10,2,3 -->
<g id="edge6" class="edge">
<title>2,8&#45;&gt;10,2,3</title>
<path fill="none" stroke="black" d="M258.8,-243C268.74,-243 280.96,-243 292.68,-243"/>
<polygon fill="black" stroke="black" points="292.78,-246.5 302.78,-243 292.78,-239.5 292.78,-246.5"/>
<text text-anchor="middle" x="280.8" y="-246.8" font-family="Times New Roman,serif" font-size="14.00">a</text>
</g>
<!-- 2,5,8 -->
<g id="node8" class="node">
<title>2,5,8</title>
<ellipse fill="none" stroke="black" cx="335.94" cy="-140" rx="28.7" ry="28.7"/>
<text text-anchor="middle" x="335.94" y="-136.3" font-family="Times New Roman,serif" font-size="14.00">2,5,8</text>
</g>
<!-- 2,3&#45;&gt;2,5,8 -->
<g id="edge7" class="edge">
<title>2,3&#45;&gt;2,5,8</title>
<path fill="none" stroke="black" d="M258.8,-140C269.99,-140 284.09,-140 297.11,-140"/>
<polygon fill="black" stroke="black" points="297.23,-143.5 307.23,-140 297.23,-136.5 297.23,-143.5"/>
<text text-anchor="middle" x="280.8" y="-143.8" font-family="Times New Roman,serif" font-size="14.00">b</text>
</g>
<!-- 2,3,4 -->
<g id="node9" class="node">
<title>2,3,4</title>
<ellipse fill="none" stroke="black" cx="584.48" cy="-43" rx="28.7" ry="28.7"/>
<text text-anchor="middle" x="584.48" y="-39.3" font-family="Times New Roman,serif" font-size="14.00">2,3,4</text>
</g>
<!-- 2,3&#45;&gt;2,3,4 -->
<g id="edge8" class="edge">
<title>2,3&#45;&gt;2,3,4</title>
<path fill="none" stroke="black" d="M255.74,-128.28C268.55,-120.26 286.32,-109.72 302.8,-102 350.01,-79.88 362.31,-73.86 413.09,-62 457.88,-51.54 510.67,-46.78 545.49,-44.66"/>
<polygon fill="black" stroke="black" points="545.91,-48.14 555.69,-44.08 545.51,-41.15 545.91,-48.14"/>
<text text-anchor="middle" x="391.09" y="-72.8" font-family="Times New Roman,serif" font-size="14.00">a</text>
</g>
<!-- 13,2,8,9 -->
<g id="node10" class="node">
<title>13,2,8,9</title>
<ellipse fill="none" stroke="black" cx="715.57" cy="-267" rx="40.09" ry="40.09"/>
<text text-anchor="middle" x="715.57" y="-263.3" font-family="Times New Roman,serif" font-size="14.00">13,2,8,9</text>
</g>
<!-- 2,8,9&#45;&gt;13,2,8,9 -->
<g id="edge9" class="edge">
<title>2,8,9&#45;&gt;13,2,8,9</title>
<path fill="none" stroke="black" d="M611.91,-300.4C627.87,-295.21 648.66,-288.44 667.36,-282.36"/>
<polygon fill="black" stroke="black" points="668.49,-285.67 676.91,-279.25 666.32,-279.02 668.49,-285.67"/>
<text text-anchor="middle" x="653.27" y="-291.8" font-family="Times New Roman,serif" font-size="14.00">b</text>
</g>
<!-- 10,13,2,3 -->
<g id="node11" class="node">
<title>10,13,2,3</title>
<ellipse fill="none" stroke="black" cx="843.06" cy="-317" rx="44.39" ry="44.39"/>
<text text-anchor="middle" x="843.06" y="-313.3" font-family="Times New Roman,serif" font-size="14.00">10,13,2,3</text>
</g>
<!-- 2,8,9&#45;&gt;10,13,2,3 -->
<g id="edge10" class="edge">
<title>2,8,9&#45;&gt;10,13,2,3</title>
<path fill="none" stroke="black" d="M609.69,-323.13C627.24,-332.53 651.9,-344.03 675.27,-349 710.31,-356.45 720.61,-355.33 755.87,-349 768.26,-346.77 781.21,-342.88 793.18,-338.56"/>
<polygon fill="black" stroke="black" points="794.43,-341.83 802.55,-335.02 791.96,-335.28 794.43,-341.83"/>
<text text-anchor="middle" x="715.57" y="-358.8" font-family="Times New Roman,serif" font-size="14.00">a</text>
</g>
<!-- 10,2,3&#45;&gt;2,3,4 -->
<g id="edge12" class="edge">
<title>10,2,3&#45;&gt;2,3,4</title>
<path fill="none" stroke="black" d="M369.06,-246.31C403.79,-248.07 458.82,-245.34 493.68,-216 542.29,-175.09 502.61,-132.97 537.68,-80 541.47,-74.27 546.43,-69 551.68,-64.35"/>
<polygon fill="black" stroke="black" points="553.94,-67.02 559.47,-57.98 549.51,-61.59 553.94,-67.02"/>
<text text-anchor="middle" x="453.39" y="-249.8" font-family="Times New Roman,serif" font-size="14.00">a</text>
</g>
<!-- 11,2,5,8 -->
<g id="node12" class="node">
<title>11,2,5,8</title>
<ellipse fill="none" stroke="black" cx="453.39" cy="-377" rx="40.09" ry="40.09"/>
<text text-anchor="middle" x="453.39" y="-373.3" font-family="Times New Roman,serif" font-size="14.00">11,2,5,8</text>
</g>
<!-- 10,2,3&#45;&gt;11,2,5,8 -->
<g id="edge11" class="edge">
<title>10,2,3&#45;&gt;11,2,5,8</title>
<path fill="none" stroke="black" d="M367.55,-254.02C377.17,-258.53 387.29,-264.48 395.09,-272 411.87,-288.17 424.95,-310.34 434.35,-330.15"/>
<polygon fill="black" stroke="black" points="431.21,-331.7 438.54,-339.35 437.58,-328.79 431.21,-331.7"/>
<text text-anchor="middle" x="391.09" y="-275.8" font-family="Times New Roman,serif" font-size="14.00">b</text>
</g>
<!-- 2,5,8&#45;&gt;2,8,9 -->
<g id="edge13" class="edge">
<title>2,5,8&#45;&gt;2,8,9</title>
<path fill="none" stroke="black" d="M363.91,-146.06C396.84,-154.4 453.17,-171.82 493.68,-201 522.06,-221.43 546.82,-252.86 563.11,-276.55"/>
<polygon fill="black" stroke="black" points="560.24,-278.55 568.72,-284.9 566.04,-274.65 560.24,-278.55"/>
<text text-anchor="middle" x="453.39" y="-204.8" font-family="Times New Roman,serif" font-size="14.00">b</text>
</g>
<!-- 10,2,3,6 -->
<g id="node13" class="node">
<title>10,2,3,6</title>
<ellipse fill="none" stroke="black" cx="453.39" cy="-111" rx="40.09" ry="40.09"/>
<text text-anchor="middle" x="453.39" y="-107.3" font-family="Times New Roman,serif" font-size="14.00">10,2,3,6</text>
</g>
<!-- 2,5,8&#45;&gt;10,2,3,6 -->
<g id="edge14" class="edge">
<title>2,5,8&#45;&gt;10,2,3,6</title>
<path fill="none" stroke="black" d="M364.01,-133.2C376.02,-130.18 390.53,-126.54 404.29,-123.08"/>
<polygon fill="black" stroke="black" points="405.28,-126.44 414.13,-120.61 403.57,-119.65 405.28,-126.44"/>
<text text-anchor="middle" x="391.09" y="-131.8" font-family="Times New Roman,serif" font-size="14.00">a</text>
</g>
<!-- 13,2,5,8 -->
<g id="node14" class="node">
<title>13,2,5,8</title>
<ellipse fill="none" stroke="black" cx="1118.25" cy="-172" rx="40.09" ry="40.09"/>
<text text-anchor="middle" x="1118.25" y="-168.3" font-family="Times New Roman,serif" font-size="14.00">13,2,5,8</text>
</g>
<!-- 2,3,4&#45;&gt;13,2,5,8 -->
<g id="edge15" class="edge">
<title>2,3,4&#45;&gt;13,2,5,8</title>
<path fill="none" stroke="black" d="M609.9,-29.63C635.29,-17.01 676.54,0 714.57,0 714.57,0 714.57,0 910.26,0 970.79,0 988.47,-17.05 1033.95,-57 1061.56,-81.25 1056.02,-97.51 1077.95,-127 1079.87,-129.58 1081.9,-132.19 1083.99,-134.8"/>
<polygon fill="black" stroke="black" points="1081.3,-137.04 1090.36,-142.53 1086.7,-132.59 1081.3,-137.04"/>
<text text-anchor="middle" x="843.06" y="-3.8" font-family="Times New Roman,serif" font-size="14.00">b</text>
</g>
<!-- 13,2,3,4 -->
<g id="node15" class="node">
<title>13,2,3,4</title>
<ellipse fill="none" stroke="black" cx="982.61" cy="-106" rx="40.09" ry="40.09"/>
<text text-anchor="middle" x="982.61" y="-102.3" font-family="Times New Roman,serif" font-size="14.00">13,2,3,4</text>
</g>
<!-- 2,3,4&#45;&gt;13,2,3,4 -->
<g id="edge16" class="edge">
<title>2,3,4&#45;&gt;13,2,3,4</title>
<path fill="none" stroke="black" d="M613.17,-42.4C651.21,-42 721.65,-42.78 780.87,-52 834.4,-60.33 894.18,-77.46 934.47,-90.21"/>
<polygon fill="black" stroke="black" points="933.43,-93.55 944.02,-93.26 935.56,-86.88 933.43,-93.55"/>
<text text-anchor="middle" x="777.37" y="-55.8" font-family="Times New Roman,serif" font-size="14.00">a</text>
</g>
<!-- 13,2,8,9&#45;&gt;13,2,8,9 -->
<g id="edge17" class="edge">
<title>13,2,8,9&#45;&gt;13,2,8,9</title>
<path fill="none" stroke="black" d="M704.38,-305.96C704.87,-316.9 708.6,-325.3 715.57,-325.3 720.15,-325.3 723.33,-321.68 725.11,-316.1"/>
<polygon fill="black" stroke="black" points="728.61,-316.39 726.77,-305.96 721.7,-315.26 728.61,-316.39"/>
<text text-anchor="middle" x="715.57" y="-329.1" font-family="Times New Roman,serif" font-size="14.00">b</text>
</g>
<!-- 13,2,8,9&#45;&gt;10,13,2,3 -->
<g id="edge18" class="edge">
<title>13,2,8,9&#45;&gt;10,13,2,3</title>
<path fill="none" stroke="black" d="M753.21,-281.6C765.43,-286.47 779.27,-291.98 792.32,-297.18"/>
<polygon fill="black" stroke="black" points="791.06,-300.45 801.65,-300.9 793.65,-293.94 791.06,-300.45"/>
<text text-anchor="middle" x="777.37" y="-295.8" font-family="Times New Roman,serif" font-size="14.00">a</text>
</g>
<!-- 10,13,2,3&#45;&gt;13,2,3,4 -->
<g id="edge20" class="edge">
<title>10,13,2,3&#45;&gt;13,2,3,4</title>
<path fill="none" stroke="black" d="M871.79,-282.78C884.9,-266.05 900.46,-245.37 913.26,-226 929.36,-201.63 945.62,-173.28 958.23,-150.25"/>
<polygon fill="black" stroke="black" points="961.35,-151.85 963.06,-141.39 955.2,-148.5 961.35,-151.85"/>
<text text-anchor="middle" x="909.26" y="-240.8" font-family="Times New Roman,serif" font-size="14.00">a</text>
</g>
<!-- 11,13,2,5,8 -->
<g id="node16" class="node">
<title>11,13,2,5,8</title>
<ellipse fill="none" stroke="black" cx="982.61" cy="-327" rx="51.19" ry="51.19"/>
<text text-anchor="middle" x="982.61" y="-323.3" font-family="Times New Roman,serif" font-size="14.00">11,13,2,5,8</text>
</g>
<!-- 10,13,2,3&#45;&gt;11,13,2,5,8 -->
<g id="edge19" class="edge">
<title>10,13,2,3&#45;&gt;11,13,2,5,8</title>
<path fill="none" stroke="black" d="M887.21,-320.14C897.82,-320.91 909.39,-321.75 920.67,-322.57"/>
<polygon fill="black" stroke="black" points="920.69,-326.08 930.91,-323.31 921.19,-319.1 920.69,-326.08"/>
<text text-anchor="middle" x="909.26" y="-325.8" font-family="Times New Roman,serif" font-size="14.00">b</text>
</g>
<!-- 11,2,5,8&#45;&gt;2,8,9 -->
<g id="edge21" class="edge">
<title>11,2,5,8&#45;&gt;2,8,9</title>
<path fill="none" stroke="black" d="M489.32,-358.6C508.1,-348.71 531.15,-336.56 549.74,-326.77"/>
<polygon fill="black" stroke="black" points="551.53,-329.79 558.74,-322.03 548.27,-323.59 551.53,-329.79"/>
<text text-anchor="middle" x="515.68" y="-349.8" font-family="Times New Roman,serif" font-size="14.00">b</text>
</g>
<!-- 10,12,2,3,6 -->
<g id="node17" class="node">
<title>10,12,2,3,6</title>
<ellipse fill="none" stroke="black" cx="1569.32" cy="-430" rx="51.19" ry="51.19"/>
<text text-anchor="middle" x="1569.32" y="-426.3" font-family="Times New Roman,serif" font-size="14.00">10,12,2,3,6</text>
</g>
<!-- 11,2,5,8&#45;&gt;10,12,2,3,6 -->
<g id="edge22" class="edge">
<title>11,2,5,8&#45;&gt;10,12,2,3,6</title>
<path fill="none" stroke="black" d="M485.24,-401.9C510.2,-419.51 547.07,-440 583.48,-440 583.48,-440 583.48,-440 1407.08,-440 1440.47,-440 1477.67,-437.84 1507.92,-435.52"/>
<polygon fill="black" stroke="black" points="1508.2,-439.01 1517.89,-434.74 1507.65,-432.03 1508.2,-439.01"/>
<text text-anchor="middle" x="982.61" y="-443.8" font-family="Times New Roman,serif" font-size="14.00">a</text>
</g>
<!-- 10,2,3,6&#45;&gt;2,3,4 -->
<g id="edge24" class="edge">
<title>10,2,3,6&#45;&gt;2,3,4</title>
<path fill="none" stroke="black" d="M489.32,-92.6C508.1,-82.71 531.15,-70.56 549.74,-60.77"/>
<polygon fill="black" stroke="black" points="551.53,-63.79 558.74,-56.03 548.27,-57.59 551.53,-63.79"/>
<text text-anchor="middle" x="515.68" y="-83.8" font-family="Times New Roman,serif" font-size="14.00">a</text>
</g>
<!-- 11,2,5,7,8 -->
<g id="node18" class="node">
<title>11,2,5,7,8</title>
<ellipse fill="none" stroke="black" cx="584.48" cy="-136" rx="46.59" ry="46.59"/>
<text text-anchor="middle" x="584.48" y="-132.3" font-family="Times New Roman,serif" font-size="14.00">11,2,5,7,8</text>
</g>
<!-- 10,2,3,6&#45;&gt;11,2,5,7,8 -->
<g id="edge23" class="edge">
<title>10,2,3,6&#45;&gt;11,2,5,7,8</title>
<path fill="none" stroke="black" d="M493.12,-118.5C504.26,-120.66 516.63,-123.05 528.55,-125.36"/>
<polygon fill="black" stroke="black" points="527.94,-128.81 538.42,-127.27 529.27,-121.94 527.94,-128.81"/>
<text text-anchor="middle" x="515.68" y="-127.8" font-family="Times New Roman,serif" font-size="14.00">b</text>
</g>
<!-- 13,2,5,8&#45;&gt;13,2,8,9 -->
<g id="edge25" class="edge">
<title>13,2,5,8&#45;&gt;13,2,8,9</title>
<path fill="none" stroke="black" d="M1078.3,-179.7C1064.33,-182.4 1048.45,-185.41 1033.95,-188 918.62,-208.61 883.42,-189.46 773.87,-231 768.38,-233.08 762.85,-235.72 757.51,-238.62"/>
<polygon fill="black" stroke="black" points="755.63,-235.67 748.72,-243.7 759.13,-241.72 755.63,-235.67"/>
<text text-anchor="middle" x="909.26" y="-205.8" font-family="Times New Roman,serif" font-size="14.00">b</text>
</g>
<!-- 10,13,2,3,6 -->
<g id="node19" class="node">
<title>10,13,2,3,6</title>
<ellipse fill="none" stroke="black" cx="1252.89" cy="-166" rx="51.19" ry="51.19"/>
<text text-anchor="middle" x="1252.89" y="-162.3" font-family="Times New Roman,serif" font-size="14.00">10,13,2,3,6</text>
</g>
<!-- 13,2,5,8&#45;&gt;10,13,2,3,6 -->
<g id="edge26" class="edge">
<title>13,2,5,8&#45;&gt;10,13,2,3,6</title>
<path fill="none" stroke="black" d="M1158.68,-170.22C1168.98,-169.75 1180.3,-169.24 1191.41,-168.74"/>
<polygon fill="black" stroke="black" points="1191.69,-172.23 1201.52,-168.28 1191.37,-165.23 1191.69,-172.23"/>
<text text-anchor="middle" x="1180.04" y="-173.8" font-family="Times New Roman,serif" font-size="14.00">a</text>
</g>
<!-- 13,2,3,4&#45;&gt;13,2,5,8 -->
<g id="edge27" class="edge">
<title>13,2,3,4&#45;&gt;13,2,5,8</title>
<path fill="none" stroke="black" d="M1019.07,-123.51C1035.38,-131.57 1054.91,-141.22 1072.25,-149.78"/>
<polygon fill="black" stroke="black" points="1071.1,-153.11 1081.62,-154.4 1074.2,-146.84 1071.1,-153.11"/>
<text text-anchor="middle" x="1055.95" y="-146.8" font-family="Times New Roman,serif" font-size="14.00">b</text>
</g>
<!-- 13,2,3,4&#45;&gt;13,2,3,4 -->
<g id="edge28" class="edge">
<title>13,2,3,4&#45;&gt;13,2,3,4</title>
<path fill="none" stroke="black" d="M969.13,-144.13C969.54,-155.47 974.03,-164.3 982.61,-164.3 988.37,-164.3 992.29,-160.31 994.36,-154.26"/>
<polygon fill="black" stroke="black" points="997.86,-154.57 996.08,-144.13 990.95,-153.4 997.86,-154.57"/>
<text text-anchor="middle" x="982.61" y="-168.1" font-family="Times New Roman,serif" font-size="14.00">a</text>
</g>
<!-- 11,13,2,5,8&#45;&gt;13,2,8,9 -->
<g id="edge29" class="edge">
<title>11,13,2,5,8&#45;&gt;13,2,8,9</title>
<path fill="none" stroke="black" d="M938.11,-352.97C899.93,-372.16 843.66,-391.54 798.87,-370 773.47,-357.78 753.46,-333.48 739.53,-311.55"/>
<polygon fill="black" stroke="black" points="742.5,-309.7 734.31,-302.98 736.52,-313.34 742.5,-309.7"/>
<text text-anchor="middle" x="843.06" y="-383.8" font-family="Times New Roman,serif" font-size="14.00">b</text>
</g>
<!-- 10,12,13,2,3,6 -->
<g id="node20" class="node">
<title>10,12,13,2,3,6</title>
<ellipse fill="none" stroke="black" cx="1569.32" cy="-267" rx="62.29" ry="62.29"/>
<text text-anchor="middle" x="1569.32" y="-263.3" font-family="Times New Roman,serif" font-size="14.00">10,12,13,2,3,6</text>
</g>
<!-- 11,13,2,5,8&#45;&gt;10,12,13,2,3,6 -->
<g id="edge30" class="edge">
<title>11,13,2,5,8&#45;&gt;10,12,13,2,3,6</title>
<path fill="none" stroke="black" d="M1034.06,-327C1059.08,-327 1089.75,-327 1117.25,-327 1117.25,-327 1117.25,-327 1407.08,-327 1441.04,-327 1476.64,-315.17 1505.72,-302.01"/>
<polygon fill="black" stroke="black" points="1507.35,-305.11 1514.92,-297.7 1504.38,-298.77 1507.35,-305.11"/>
<text text-anchor="middle" x="1252.89" y="-330.8" font-family="Times New Roman,serif" font-size="14.00">a</text>
</g>
<!-- 11,12,13,2,5,7,8 -->
<g id="node21" class="node">
<title>11,12,13,2,5,7,8</title>
<ellipse fill="none" stroke="black" cx="1745.26" cy="-291" rx="69.59" ry="69.59"/>
<text text-anchor="middle" x="1745.26" y="-287.3" font-family="Times New Roman,serif" font-size="14.00">11,12,13,2,5,7,8</text>
</g>
<!-- 10,12,2,3,6&#45;&gt;11,12,13,2,5,7,8 -->
<g id="edge31" class="edge">
<title>10,12,2,3,6&#45;&gt;11,12,13,2,5,7,8</title>
<path fill="none" stroke="black" d="M1611.13,-399.89C1625.94,-388.78 1642.71,-375.98 1657.71,-364 1666.39,-357.08 1675.44,-349.65 1684.29,-342.29"/>
<polygon fill="black" stroke="black" points="1686.57,-344.95 1692,-335.85 1682.08,-339.58 1686.57,-344.95"/>
<text text-anchor="middle" x="1653.71" y="-373.8" font-family="Times New Roman,serif" font-size="14.00">b</text>
</g>
<!-- 12,13,2,3,4 -->
<g id="node22" class="node">
<title>12,13,2,3,4</title>
<ellipse fill="none" stroke="black" cx="1745.26" cy="-430" rx="51.19" ry="51.19"/>
<text text-anchor="middle" x="1745.26" y="-426.3" font-family="Times New Roman,serif" font-size="14.00">12,13,2,3,4</text>
</g>
<!-- 10,12,2,3,6&#45;&gt;12,13,2,3,4 -->
<g id="edge32" class="edge">
<title>10,12,2,3,6&#45;&gt;12,13,2,3,4</title>
<path fill="none" stroke="black" d="M1621.1,-430C1640.65,-430 1663.18,-430 1683.58,-430"/>
<polygon fill="black" stroke="black" points="1683.72,-433.5 1693.72,-430 1683.72,-426.5 1683.72,-433.5"/>
<text text-anchor="middle" x="1653.71" y="-433.8" font-family="Times New Roman,serif" font-size="14.00">a</text>
</g>
<!-- 11,2,5,7,8&#45;&gt;13,2,8,9 -->
<g id="edge33" class="edge">
<title>11,2,5,7,8&#45;&gt;13,2,8,9</title>
<path fill="none" stroke="black" d="M618.05,-169.06C636.73,-188.01 660.19,-211.81 679.3,-231.21"/>
<polygon fill="black" stroke="black" points="676.88,-233.74 686.39,-238.4 681.86,-228.82 676.88,-233.74"/>
<text text-anchor="middle" x="653.27" y="-209.8" font-family="Times New Roman,serif" font-size="14.00">b</text>
</g>
<!-- 11,2,5,7,8&#45;&gt;10,12,13,2,3,6 -->
<g id="edge34" class="edge">
<title>11,2,5,7,8&#45;&gt;10,12,13,2,3,6</title>
<path fill="none" stroke="black" d="M628.86,-120.69C710.94,-93.12 895.09,-38 1054.95,-38 1054.95,-38 1054.95,-38 1407.08,-38 1485.75,-38 1529.38,-129.47 1550.84,-196.79"/>
<polygon fill="black" stroke="black" points="1547.56,-198.01 1553.85,-206.53 1554.25,-195.95 1547.56,-198.01"/>
<text text-anchor="middle" x="1055.95" y="-41.8" font-family="Times New Roman,serif" font-size="14.00">a</text>
</g>
<!-- 10,13,2,3,6&#45;&gt;13,2,3,4 -->
<g id="edge36" class="edge">
<title>10,13,2,3,6&#45;&gt;13,2,3,4</title>
<path fill="none" stroke="black" d="M1211.93,-134.51C1196.21,-123.96 1177.41,-113.5 1158.54,-108 1117.41,-96.01 1068.48,-96.62 1032.85,-99.6"/>
<polygon fill="black" stroke="black" points="1032.34,-96.13 1022.7,-100.53 1032.98,-103.1 1032.34,-96.13"/>
<text text-anchor="middle" x="1118.25" y="-111.8" font-family="Times New Roman,serif" font-size="14.00">a</text>
</g>
<!-- 11,13,2,5,7,8 -->
<g id="node23" class="node">
<title>11,13,2,5,7,8</title>
<ellipse fill="none" stroke="black" cx="1406.08" cy="-241" rx="57.69" ry="57.69"/>
<text text-anchor="middle" x="1406.08" y="-237.3" font-family="Times New Roman,serif" font-size="14.00">11,13,2,5,7,8</text>
</g>
<!-- 10,13,2,3,6&#45;&gt;11,13,2,5,7,8 -->
<g id="edge35" class="edge">
<title>10,13,2,3,6&#45;&gt;11,13,2,5,7,8</title>
<path fill="none" stroke="black" d="M1299.25,-188.5C1313.51,-195.58 1329.49,-203.5 1344.63,-211.01"/>
<polygon fill="black" stroke="black" points="1343.41,-214.31 1353.92,-215.62 1346.52,-208.04 1343.41,-214.31"/>
<text text-anchor="middle" x="1326.23" y="-207.8" font-family="Times New Roman,serif" font-size="14.00">b</text>
</g>
<!-- 10,12,13,2,3,6&#45;&gt;11,12,13,2,5,7,8 -->
<g id="edge37" class="edge">
<title>10,12,13,2,3,6&#45;&gt;11,12,13,2,5,7,8</title>
<path fill="none" stroke="black" d="M1631.15,-275.39C1642.44,-276.95 1654.38,-278.6 1666.1,-280.22"/>
<polygon fill="black" stroke="black" points="1665.94,-283.73 1676.33,-281.63 1666.9,-276.79 1665.94,-283.73"/>
<text text-anchor="middle" x="1653.71" y="-282.8" font-family="Times New Roman,serif" font-size="14.00">b</text>
</g>
<!-- 10,12,13,2,3,6&#45;&gt;12,13,2,3,4 -->
<g id="edge38" class="edge">
<title>10,12,13,2,3,6&#45;&gt;12,13,2,3,4</title>
<path fill="none" stroke="black" d="M1618.36,-306.5C1631.67,-318.33 1645.74,-331.7 1657.71,-345 1666.87,-355.17 1666.5,-359.87 1675.71,-370 1682.34,-377.28 1689.79,-384.57 1697.28,-391.43"/>
<polygon fill="black" stroke="black" points="1694.97,-394.07 1704.75,-398.14 1699.65,-388.85 1694.97,-394.07"/>
<text text-anchor="middle" x="1653.71" y="-348.8" font-family="Times New Roman,serif" font-size="14.00">a</text>
</g>
<!-- 11,12,13,2,5,7,8&#45;&gt;10,12,13,2,3,6 -->
<g id="edge40" class="edge">
<title>11,12,13,2,5,7,8&#45;&gt;10,12,13,2,3,6</title>
<path fill="none" stroke="black" d="M1680.17,-265.32C1672.7,-263.14 1665.1,-261.28 1657.71,-260 1652.37,-259.07 1646.82,-258.54 1641.23,-258.31"/>
<polygon fill="black" stroke="black" points="1641.19,-254.81 1631.15,-258.19 1641.11,-261.8 1641.19,-254.81"/>
<text text-anchor="middle" x="1653.71" y="-263.8" font-family="Times New Roman,serif" font-size="14.00">a</text>
</g>
<!-- 12,13,2,8,9 -->
<g id="node24" class="node">
<title>12,13,2,8,9</title>
<ellipse fill="none" stroke="black" cx="1910.15" cy="-291" rx="51.19" ry="51.19"/>
<text text-anchor="middle" x="1910.15" y="-287.3" font-family="Times New Roman,serif" font-size="14.00">12,13,2,8,9</text>
</g>
<!-- 11,12,13,2,5,7,8&#45;&gt;12,13,2,8,9 -->
<g id="edge39" class="edge">
<title>11,12,13,2,5,7,8&#45;&gt;12,13,2,8,9</title>
<path fill="none" stroke="black" d="M1814.86,-291C1825.93,-291 1837.33,-291 1848.2,-291"/>
<polygon fill="black" stroke="black" points="1848.44,-294.5 1858.44,-291 1848.44,-287.5 1848.44,-294.5"/>
<text text-anchor="middle" x="1836.8" y="-294.8" font-family="Times New Roman,serif" font-size="14.00">b</text>
</g>
<!-- 12,13,2,3,4&#45;&gt;12,13,2,3,4 -->
<g id="edge42" class="edge">
<title>12,13,2,3,4&#45;&gt;12,13,2,3,4</title>
<path fill="none" stroke="black" d="M1728.65,-478.61C1729.88,-490.5 1735.41,-499.35 1745.26,-499.35 1752.02,-499.35 1756.76,-495.16 1759.45,-488.69"/>
<polygon fill="black" stroke="black" points="1762.94,-489.15 1761.87,-478.61 1756.13,-487.52 1762.94,-489.15"/>
<text text-anchor="middle" x="1745.26" y="-503.15" font-family="Times New Roman,serif" font-size="14.00">a</text>
</g>
<!-- 12,13,2,5,8 -->
<g id="node25" class="node">
<title>12,13,2,5,8</title>
<ellipse fill="none" stroke="black" cx="1910.15" cy="-430" rx="51.19" ry="51.19"/>
<text text-anchor="middle" x="1910.15" y="-426.3" font-family="Times New Roman,serif" font-size="14.00">12,13,2,5,8</text>
</g>
<!-- 12,13,2,3,4&#45;&gt;12,13,2,5,8 -->
<g id="edge41" class="edge">
<title>12,13,2,3,4&#45;&gt;12,13,2,5,8</title>
<path fill="none" stroke="black" d="M1796.9,-430C1813.14,-430 1831.3,-430 1848.2,-430"/>
<polygon fill="black" stroke="black" points="1848.53,-433.5 1858.53,-430 1848.53,-426.5 1848.53,-433.5"/>
<text text-anchor="middle" x="1836.8" y="-433.8" font-family="Times New Roman,serif" font-size="14.00">b</text>
</g>
<!-- 11,13,2,5,7,8&#45;&gt;13,2,8,9 -->
<g id="edge43" class="edge">
<title>11,13,2,5,7,8&#45;&gt;13,2,8,9</title>
<path fill="none" stroke="black" d="M1348.01,-243.22C1319.71,-244.14 1285,-245 1253.89,-245 842.06,-245 842.06,-245 842.06,-245 816.24,-245 787.88,-249.57 764.66,-254.55"/>
<polygon fill="black" stroke="black" points="763.71,-251.18 754.71,-256.77 765.24,-258.01 763.71,-251.18"/>
<text text-anchor="middle" x="1055.95" y="-248.8" font-family="Times New Roman,serif" font-size="14.00">b</text>
</g>
<!-- 11,13,2,5,7,8&#45;&gt;10,12,13,2,3,6 -->
<g id="edge44" class="edge">
<title>11,13,2,5,7,8&#45;&gt;10,12,13,2,3,6</title>
<path fill="none" stroke="black" d="M1463.47,-250.09C1474.5,-251.87 1486.19,-253.76 1497.62,-255.6"/>
<polygon fill="black" stroke="black" points="1497.14,-259.07 1507.57,-257.2 1498.25,-252.16 1497.14,-259.07"/>
<text text-anchor="middle" x="1485.42" y="-257.8" font-family="Times New Roman,serif" font-size="14.00">a</text>
</g>
</g>
</svg>
