<?xml version="1.0" encoding="UTF-8" standalone="no"?>
<!DOCTYPE svg PUBLIC "-//W3C//DTD SVG 1.1//EN"
 "http://www.w3.org/Graphics/SVG/1.1/DTD/svg11.dtd">
<!-- Generated by graphviz version 3.0.0 (20220226.1711)
 -->
<!-- Title: NFA to DFA Pages: 1 -->
<svg width="1554pt" height="463pt"
 viewBox="0.00 0.00 1553.52 463.35" xmlns="http://www.w3.org/2000/svg" xmlns:xlink="http://www.w3.org/1999/xlink">
<g id="graph0" class="graph" transform="scale(1 1) rotate(0) translate(4 459.35)">
<title>NFA to DFA</title>
<polygon fill="white" stroke="transparent" points="-4,4 -4,-459.35 1549.52,-459.35 1549.52,4 -4,4"/>
<!-- 0 -->
<g id="node1" class="node">
<title>0</title>
<ellipse fill="black" stroke="black" cx="1.8" cy="-189.35" rx="1.8" ry="1.8"/>
</g>
<!-- 1 -->
<g id="node2" class="node">
<title>1</title>
<ellipse fill="none" stroke="black" cx="58.6" cy="-189.35" rx="18" ry="18"/>
<text text-anchor="middle" x="58.6" y="-185.65" font-family="Times New Roman,serif" font-size="14.00">1</text>
</g>
<!-- 0&#45;&gt;1 -->
<g id="edge1" class="edge">
<title>0&#45;&gt;1</title>
<path fill="none" stroke="black" d="M3.75,-189.35C7.11,-189.35 18.87,-189.35 30.55,-189.35"/>
<polygon fill="black" stroke="black" points="30.58,-192.85 40.58,-189.35 30.58,-185.85 30.58,-192.85"/>
</g>
<!-- 2 -->
<g id="node3" class="node">
<title>2</title>
<ellipse fill="none" stroke="black" cx="152.6" cy="-189.35" rx="18" ry="18"/>
<text text-anchor="middle" x="152.6" y="-185.65" font-family="Times New Roman,serif" font-size="14.00">2</text>
</g>
<!-- 1&#45;&gt;2 -->
<g id="edge2" class="edge">
<title>1&#45;&gt;2</title>
<path fill="none" stroke="black" d="M76.9,-189.35C90.14,-189.35 108.65,-189.35 123.94,-189.35"/>
<polygon fill="black" stroke="black" points="124.37,-192.85 134.37,-189.35 124.37,-185.85 124.37,-192.85"/>
<text text-anchor="middle" x="105.6" y="-193.15" font-family="Times New Roman,serif" font-size="14.00">b, a</text>
</g>
<!-- 2,8 -->
<g id="node4" class="node">
<title>2,8</title>
<ellipse fill="none" stroke="black" cx="236.7" cy="-149.35" rx="22.2" ry="22.2"/>
<text text-anchor="middle" x="236.7" y="-145.65" font-family="Times New Roman,serif" font-size="14.00">2,8</text>
</g>
<!-- 2&#45;&gt;2,8 -->
<g id="edge3" class="edge">
<title>2&#45;&gt;2,8</title>
<path fill="none" stroke="black" d="M169.04,-181.82C179.78,-176.59 194.4,-169.47 207.21,-163.22"/>
<polygon fill="black" stroke="black" points="209.11,-166.19 216.57,-158.67 206.05,-159.9 209.11,-166.19"/>
<text text-anchor="middle" x="192.6" y="-175.15" font-family="Times New Roman,serif" font-size="14.00">b</text>
</g>
<!-- 2,3 -->
<g id="node5" class="node">
<title>2,3</title>
<ellipse fill="none" stroke="black" cx="236.7" cy="-241.35" rx="22.2" ry="22.2"/>
<text text-anchor="middle" x="236.7" y="-237.65" font-family="Times New Roman,serif" font-size="14.00">2,3</text>
</g>
<!-- 2&#45;&gt;2,3 -->
<g id="edge4" class="edge">
<title>2&#45;&gt;2,3</title>
<path fill="none" stroke="black" d="M168.28,-198.64C179.63,-205.83 195.64,-215.97 209.22,-224.57"/>
<polygon fill="black" stroke="black" points="207.39,-227.56 217.71,-229.95 211.13,-221.64 207.39,-227.56"/>
<text text-anchor="middle" x="192.6" y="-219.15" font-family="Times New Roman,serif" font-size="14.00">a</text>
</g>
<!-- 2,8,9 -->
<g id="node6" class="node">
<title>2,8,9</title>
<ellipse fill="none" stroke="black" cx="584.48" cy="-108.35" rx="28.7" ry="28.7"/>
<text text-anchor="middle" x="584.48" y="-104.65" font-family="Times New Roman,serif" font-size="14.00">2,8,9</text>
</g>
<!-- 2,8&#45;&gt;2,8,9 -->
<g id="edge5" class="edge">
<title>2,8&#45;&gt;2,8,9</title>
<path fill="none" stroke="black" d="M254.15,-135.19C283.61,-110.9 348.36,-62.29 413.09,-45.35 447.74,-36.27 459.53,-34.56 493.68,-45.35 516.78,-52.64 539.09,-68.24 555.7,-82.09"/>
<polygon fill="black" stroke="black" points="553.51,-84.82 563.37,-88.7 558.08,-79.52 553.51,-84.82"/>
<text text-anchor="middle" x="391.09" y="-57.15" font-family="Times New Roman,serif" font-size="14.00">b</text>
</g>
<!-- 10,2,3 -->
<g id="node7" class="node">
<title>10,2,3</title>
<ellipse fill="none" stroke="black" cx="335.94" cy="-149.35" rx="33.29" ry="33.29"/>
<text text-anchor="middle" x="335.94" y="-145.65" font-family="Times New Roman,serif" font-size="14.00">10,2,3</text>
</g>
<!-- 2,8&#45;&gt;10,2,3 -->
<g id="edge6" class="edge">
<title>2,8&#45;&gt;10,2,3</title>
<path fill="none" stroke="black" d="M258.8,-149.35C268.74,-149.35 280.96,-149.35 292.68,-149.35"/>
<polygon fill="black" stroke="black" points="292.78,-152.85 302.78,-149.35 292.78,-145.85 292.78,-152.85"/>
<text text-anchor="middle" x="280.8" y="-153.15" font-family="Times New Roman,serif" font-size="14.00">a</text>
</g>
<!-- 2,5,8 -->
<g id="node8" class="node">
<title>2,5,8</title>
<ellipse fill="none" stroke="black" cx="335.94" cy="-241.35" rx="28.7" ry="28.7"/>
<text text-anchor="middle" x="335.94" y="-237.65" font-family="Times New Roman,serif" font-size="14.00">2,5,8</text>
</g>
<!-- 2,3&#45;&gt;2,5,8 -->
<g id="edge7" class="edge">
<title>2,3&#45;&gt;2,5,8</title>
<path fill="none" stroke="black" d="M258.8,-241.35C269.99,-241.35 284.09,-241.35 297.11,-241.35"/>
<polygon fill="black" stroke="black" points="297.23,-244.85 307.23,-241.35 297.23,-237.85 297.23,-244.85"/>
<text text-anchor="middle" x="280.8" y="-245.15" font-family="Times New Roman,serif" font-size="14.00">b</text>
</g>
<!-- 2,3,4 -->
<g id="node9" class="node">
<title>2,3,4</title>
<ellipse fill="none" stroke="black" cx="584.48" cy="-362.35" rx="28.7" ry="28.7"/>
<text text-anchor="middle" x="584.48" y="-358.65" font-family="Times New Roman,serif" font-size="14.00">2,3,4</text>
</g>
<!-- 2,3&#45;&gt;2,3,4 -->
<g id="edge8" class="edge">
<title>2,3&#45;&gt;2,3,4</title>
<path fill="none" stroke="black" d="M254.94,-254.72C285.09,-277.32 350.2,-322.61 413.09,-343.35 456.9,-357.79 510.11,-361.71 545.28,-362.55"/>
<polygon fill="black" stroke="black" points="545.53,-366.06 555.59,-362.72 545.65,-359.06 545.53,-366.06"/>
<text text-anchor="middle" x="391.09" y="-339.15" font-family="Times New Roman,serif" font-size="14.00">a</text>
</g>
<!-- 13,2,8,9 -->
<g id="node10" class="node">
<title>13,2,8,9</title>
<ellipse fill="none" stroke="black" cx="715.57" cy="-265.35" rx="40.09" ry="40.09"/>
<text text-anchor="middle" x="715.57" y="-261.65" font-family="Times New Roman,serif" font-size="14.00">13,2,8,9</text>
</g>
<!-- 2,8,9&#45;&gt;13,2,8,9 -->
<g id="edge9" class="edge">
<title>2,8,9&#45;&gt;13,2,8,9</title>
<path fill="none" stroke="black" d="M603.43,-130.18C623.91,-155.08 657.78,-196.28 682.76,-226.66"/>
<polygon fill="black" stroke="black" points="680.18,-229.03 689.23,-234.53 685.58,-224.58 680.18,-229.03"/>
<text text-anchor="middle" x="653.27" y="-195.15" font-family="Times New Roman,serif" font-size="14.00">b</text>
</g>
<!-- 10,13,2,3 -->
<g id="node11" class="node">
<title>10,13,2,3</title>
<ellipse fill="none" stroke="black" cx="843.06" cy="-189.35" rx="44.39" ry="44.39"/>
<text text-anchor="middle" x="843.06" y="-185.65" font-family="Times New Roman,serif" font-size="14.00">10,13,2,3</text>
</g>
<!-- 2,8,9&#45;&gt;10,13,2,3 -->
<g id="edge10" class="edge">
<title>2,8,9&#45;&gt;10,13,2,3</title>
<path fill="none" stroke="black" d="M611.97,-116.71C654.04,-129.99 736.86,-156.14 790.82,-173.17"/>
<polygon fill="black" stroke="black" points="789.95,-176.56 800.54,-176.24 792.06,-169.89 789.95,-176.56"/>
<text text-anchor="middle" x="715.57" y="-165.15" font-family="Times New Roman,serif" font-size="14.00">a</text>
</g>
<!-- 10,2,3&#45;&gt;2,3,4 -->
<g id="edge12" class="edge">
<title>10,2,3&#45;&gt;2,3,4</title>
<path fill="none" stroke="black" d="M369.31,-149.64C409.67,-150.67 475.57,-154.77 493.68,-170.35 546.68,-215.92 500.43,-262.2 537.68,-321.35 541.75,-327.8 547.12,-333.85 552.74,-339.21"/>
<polygon fill="black" stroke="black" points="550.67,-342.06 560.47,-346.08 555.32,-336.82 550.67,-342.06"/>
<text text-anchor="middle" x="453.39" y="-174.15" font-family="Times New Roman,serif" font-size="14.00">a</text>
</g>
<!-- 11,2,5,8 -->
<g id="node12" class="node">
<title>11,2,5,8</title>
<ellipse fill="none" stroke="black" cx="453.39" cy="-94.35" rx="40.09" ry="40.09"/>
<text text-anchor="middle" x="453.39" y="-90.65" font-family="Times New Roman,serif" font-size="14.00">11,2,5,8</text>
</g>
<!-- 10,2,3&#45;&gt;11,2,5,8 -->
<g id="edge11" class="edge">
<title>10,2,3&#45;&gt;11,2,5,8</title>
<path fill="none" stroke="black" d="M366.07,-135.47C378.56,-129.52 393.43,-122.44 407.28,-115.84"/>
<polygon fill="black" stroke="black" points="409.14,-118.83 416.66,-111.37 406.13,-112.51 409.14,-118.83"/>
<text text-anchor="middle" x="391.09" y="-128.15" font-family="Times New Roman,serif" font-size="14.00">b</text>
</g>
<!-- 2,5,8&#45;&gt;2,8,9 -->
<g id="edge13" class="edge">
<title>2,5,8&#45;&gt;2,8,9</title>
<path fill="none" stroke="black" d="M364.15,-235.92C396.59,-228.66 451.68,-213.79 493.68,-189.35 517.6,-175.42 540.69,-154.36 557.47,-137.21"/>
<polygon fill="black" stroke="black" points="560.33,-139.28 564.72,-129.64 555.27,-134.44 560.33,-139.28"/>
<text text-anchor="middle" x="453.39" y="-226.15" font-family="Times New Roman,serif" font-size="14.00">b</text>
</g>
<!-- 10,2,3,6 -->
<g id="node13" class="node">
<title>10,2,3,6</title>
<ellipse fill="none" stroke="black" cx="453.39" cy="-294.35" rx="40.09" ry="40.09"/>
<text text-anchor="middle" x="453.39" y="-290.65" font-family="Times New Roman,serif" font-size="14.00">10,2,3,6</text>
</g>
<!-- 2,5,8&#45;&gt;10,2,3,6 -->
<g id="edge14" class="edge">
<title>2,5,8&#45;&gt;10,2,3,6</title>
<path fill="none" stroke="black" d="M362.28,-252.98C375.36,-258.98 391.72,-266.49 406.9,-273.46"/>
<polygon fill="black" stroke="black" points="405.61,-276.72 416.16,-277.71 408.53,-270.36 405.61,-276.72"/>
<text text-anchor="middle" x="391.09" y="-271.15" font-family="Times New Roman,serif" font-size="14.00">a</text>
</g>
<!-- 13,2,5,8 -->
<g id="node14" class="node">
<title>13,2,5,8</title>
<ellipse fill="none" stroke="black" cx="1140.35" cy="-395.35" rx="40.09" ry="40.09"/>
<text text-anchor="middle" x="1140.35" y="-391.65" font-family="Times New Roman,serif" font-size="14.00">13,2,5,8</text>
</g>
<!-- 2,3,4&#45;&gt;13,2,5,8 -->
<g id="edge15" class="edge">
<title>2,3,4&#45;&gt;13,2,5,8</title>
<path fill="none" stroke="black" d="M604.74,-383.25C628.23,-406.35 670.32,-440.35 714.57,-440.35 714.57,-440.35 714.57,-440.35 983.61,-440.35 1021.83,-440.35 1063.32,-427.68 1093.86,-415.79"/>
<polygon fill="black" stroke="black" points="1095.4,-418.95 1103.38,-411.97 1092.79,-412.45 1095.4,-418.95"/>
<text text-anchor="middle" x="843.06" y="-444.15" font-family="Times New Roman,serif" font-size="14.00">b</text>
</g>
<!-- 13,2,3,4 -->
<g id="node15" class="node">
<title>13,2,3,4</title>
<ellipse fill="none" stroke="black" cx="982.61" cy="-301.35" rx="40.09" ry="40.09"/>
<text text-anchor="middle" x="982.61" y="-297.65" font-family="Times New Roman,serif" font-size="14.00">13,2,3,4</text>
</g>
<!-- 2,3,4&#45;&gt;13,2,3,4 -->
<g id="edge16" class="edge">
<title>2,3,4&#45;&gt;13,2,3,4</title>
<path fill="none" stroke="black" d="M611.63,-371.46C669.2,-389.92 809.98,-426.17 913.26,-379.35 929.85,-371.83 944,-358.07 955.04,-344.18"/>
<polygon fill="black" stroke="black" points="957.96,-346.13 961.19,-336.04 952.37,-341.91 957.96,-346.13"/>
<text text-anchor="middle" x="777.37" y="-405.15" font-family="Times New Roman,serif" font-size="14.00">a</text>
</g>
<!-- 13,2,8,9&#45;&gt;13,2,8,9 -->
<g id="edge17" class="edge">
<title>13,2,8,9&#45;&gt;13,2,8,9</title>
<path fill="none" stroke="black" d="M704.38,-304.3C704.87,-315.24 708.6,-323.64 715.57,-323.64 720.15,-323.64 723.33,-320.03 725.11,-314.45"/>
<polygon fill="black" stroke="black" points="728.61,-314.74 726.77,-304.3 721.7,-313.61 728.61,-314.74"/>
<text text-anchor="middle" x="715.57" y="-327.44" font-family="Times New Roman,serif" font-size="14.00">b</text>
</g>
<!-- 13,2,8,9&#45;&gt;10,13,2,3 -->
<g id="edge18" class="edge">
<title>13,2,8,9&#45;&gt;10,13,2,3</title>
<path fill="none" stroke="black" d="M750.53,-244.78C764.61,-236.25 781.15,-226.23 796.28,-217.07"/>
<polygon fill="black" stroke="black" points="798.25,-219.97 804.99,-211.8 794.62,-213.98 798.25,-219.97"/>
<text text-anchor="middle" x="777.37" y="-233.15" font-family="Times New Roman,serif" font-size="14.00">a</text>
</g>
<!-- 10,13,2,3&#45;&gt;13,2,3,4 -->
<g id="edge20" class="edge">
<title>10,13,2,3&#45;&gt;13,2,3,4</title>
<path fill="none" stroke="black" d="M878.06,-217.03C897.73,-233.04 922.54,-253.25 942.94,-269.86"/>
<polygon fill="black" stroke="black" points="940.85,-272.67 950.81,-276.27 945.27,-267.24 940.85,-272.67"/>
<text text-anchor="middle" x="909.26" y="-249.15" font-family="Times New Roman,serif" font-size="14.00">a</text>
</g>
<!-- 11,13,2,5,8 -->
<g id="node16" class="node">
<title>11,13,2,5,8</title>
<ellipse fill="none" stroke="black" cx="982.61" cy="-191.35" rx="51.19" ry="51.19"/>
<text text-anchor="middle" x="982.61" y="-187.65" font-family="Times New Roman,serif" font-size="14.00">11,13,2,5,8</text>
</g>
<!-- 10,13,2,3&#45;&gt;11,13,2,5,8 -->
<g id="edge19" class="edge">
<title>10,13,2,3&#45;&gt;11,13,2,5,8</title>
<path fill="none" stroke="black" d="M887.58,-189.98C898.19,-190.13 909.72,-190.3 920.96,-190.46"/>
<polygon fill="black" stroke="black" points="921.12,-193.97 931.17,-190.61 921.22,-186.97 921.12,-193.97"/>
<text text-anchor="middle" x="909.26" y="-194.15" font-family="Times New Roman,serif" font-size="14.00">b</text>
</g>
<!-- 11,2,5,8&#45;&gt;2,8,9 -->
<g id="edge21" class="edge">
<title>11,2,5,8&#45;&gt;2,8,9</title>
<path fill="none" stroke="black" d="M493.47,-98.58C510.03,-100.38 529.25,-102.46 545.67,-104.24"/>
<polygon fill="black" stroke="black" points="545.67,-107.77 555.99,-105.36 546.43,-100.81 545.67,-107.77"/>
<text text-anchor="middle" x="515.68" y="-105.15" font-family="Times New Roman,serif" font-size="14.00">b</text>
</g>
<!-- 10,12,2,3,6 -->
<g id="node17" class="node">
<title>10,12,2,3,6</title>
<ellipse fill="none" stroke="black" cx="1140.35" cy="-51.35" rx="51.19" ry="51.19"/>
<text text-anchor="middle" x="1140.35" y="-47.65" font-family="Times New Roman,serif" font-size="14.00">10,12,2,3,6</text>
</g>
<!-- 11,2,5,8&#45;&gt;10,12,2,3,6 -->
<g id="edge22" class="edge">
<title>11,2,5,8&#45;&gt;10,12,2,3,6</title>
<path fill="none" stroke="black" d="M489.51,-75.86C514.9,-64.21 550.41,-51.35 583.48,-51.35 583.48,-51.35 583.48,-51.35 983.61,-51.35 1014.91,-51.35 1049.76,-51.35 1078.53,-51.35"/>
<polygon fill="black" stroke="black" points="1078.84,-54.85 1088.84,-51.35 1078.84,-47.85 1078.84,-54.85"/>
<text text-anchor="middle" x="777.37" y="-55.15" font-family="Times New Roman,serif" font-size="14.00">a</text>
</g>
<!-- 10,2,3,6&#45;&gt;2,3,4 -->
<g id="edge24" class="edge">
<title>10,2,3,6&#45;&gt;2,3,4</title>
<path fill="none" stroke="black" d="M489.32,-312.75C508.1,-322.64 531.15,-334.78 549.74,-344.58"/>
<polygon fill="black" stroke="black" points="548.27,-347.75 558.74,-349.32 551.53,-341.56 548.27,-347.75"/>
<text text-anchor="middle" x="515.68" y="-332.15" font-family="Times New Roman,serif" font-size="14.00">a</text>
</g>
<!-- 11,2,5,7,8 -->
<g id="node18" class="node">
<title>11,2,5,7,8</title>
<ellipse fill="none" stroke="black" cx="584.48" cy="-265.35" rx="46.59" ry="46.59"/>
<text text-anchor="middle" x="584.48" y="-261.65" font-family="Times New Roman,serif" font-size="14.00">11,2,5,7,8</text>
</g>
<!-- 10,2,3,6&#45;&gt;11,2,5,7,8 -->
<g id="edge23" class="edge">
<title>10,2,3,6&#45;&gt;11,2,5,7,8</title>
<path fill="none" stroke="black" d="M492.77,-285.72C504.03,-283.19 516.58,-280.37 528.66,-277.66"/>
<polygon fill="black" stroke="black" points="529.67,-281.02 538.66,-275.41 528.13,-274.19 529.67,-281.02"/>
<text text-anchor="middle" x="515.68" y="-284.15" font-family="Times New Roman,serif" font-size="14.00">b</text>
</g>
<!-- 13,2,5,8&#45;&gt;13,2,8,9 -->
<g id="edge25" class="edge">
<title>13,2,5,8&#45;&gt;13,2,8,9</title>
<path fill="none" stroke="black" d="M1100.14,-398.17C1057.65,-400.06 988.29,-399.75 931.26,-383.35 865.82,-364.52 798.25,-323.09 756.82,-294.69"/>
<polygon fill="black" stroke="black" points="758.6,-291.66 748.39,-288.84 754.61,-297.41 758.6,-291.66"/>
<text text-anchor="middle" x="909.26" y="-380.15" font-family="Times New Roman,serif" font-size="14.00">b</text>
</g>
<!-- 10,13,2,3,6 -->
<g id="node19" class="node">
<title>10,13,2,3,6</title>
<ellipse fill="none" stroke="black" cx="1316.28" cy="-341.35" rx="51.19" ry="51.19"/>
<text text-anchor="middle" x="1316.28" y="-337.65" font-family="Times New Roman,serif" font-size="14.00">10,13,2,3,6</text>
</g>
<!-- 13,2,5,8&#45;&gt;10,13,2,3,6 -->
<g id="edge26" class="edge">
<title>13,2,5,8&#45;&gt;10,13,2,3,6</title>
<path fill="none" stroke="black" d="M1179.09,-383.63C1201.95,-376.53 1231.57,-367.34 1257.35,-359.33"/>
<polygon fill="black" stroke="black" points="1258.5,-362.64 1267.02,-356.33 1256.43,-355.95 1258.5,-362.64"/>
<text text-anchor="middle" x="1224.74" y="-373.15" font-family="Times New Roman,serif" font-size="14.00">a</text>
</g>
<!-- 13,2,3,4&#45;&gt;13,2,5,8 -->
<g id="edge27" class="edge">
<title>13,2,3,4&#45;&gt;13,2,5,8</title>
<path fill="none" stroke="black" d="M1017.4,-321.74C1040.58,-335.74 1071.54,-354.42 1096.47,-369.46"/>
<polygon fill="black" stroke="black" points="1094.98,-372.66 1105.35,-374.83 1098.6,-366.66 1094.98,-372.66"/>
<text text-anchor="middle" x="1055.95" y="-349.15" font-family="Times New Roman,serif" font-size="14.00">b</text>
</g>
<!-- 13,2,3,4&#45;&gt;13,2,3,4 -->
<g id="edge28" class="edge">
<title>13,2,3,4&#45;&gt;13,2,3,4</title>
<path fill="none" stroke="black" d="M969.13,-339.47C969.54,-350.82 974.03,-359.64 982.61,-359.64 988.37,-359.64 992.29,-355.66 994.36,-349.6"/>
<polygon fill="black" stroke="black" points="997.86,-349.92 996.08,-339.47 990.95,-348.75 997.86,-349.92"/>
<text text-anchor="middle" x="982.61" y="-363.44" font-family="Times New Roman,serif" font-size="14.00">a</text>
</g>
<!-- 11,13,2,5,8&#45;&gt;13,2,8,9 -->
<g id="edge29" class="edge">
<title>11,13,2,5,8&#45;&gt;13,2,8,9</title>
<path fill="none" stroke="black" d="M948.95,-230.63C938.62,-240.44 926.43,-249.75 913.26,-255.35 866.12,-275.37 806.8,-275.38 765.69,-271.95"/>
<polygon fill="black" stroke="black" points="765.94,-268.46 755.65,-271.01 765.28,-275.43 765.94,-268.46"/>
<text text-anchor="middle" x="843.06" y="-277.15" font-family="Times New Roman,serif" font-size="14.00">b</text>
</g>
<!-- 10,12,13,2,3,6 -->
<g id="node20" class="node">
<title>10,12,13,2,3,6</title>
<ellipse fill="none" stroke="black" cx="1140.35" cy="-183.35" rx="62.29" ry="62.29"/>
<text text-anchor="middle" x="1140.35" y="-179.65" font-family="Times New Roman,serif" font-size="14.00">10,12,13,2,3,6</text>
</g>
<!-- 11,13,2,5,8&#45;&gt;10,12,13,2,3,6 -->
<g id="edge30" class="edge">
<title>11,13,2,5,8&#45;&gt;10,12,13,2,3,6</title>
<path fill="none" stroke="black" d="M1034.17,-188.75C1044.85,-188.2 1056.31,-187.61 1067.59,-187.03"/>
<polygon fill="black" stroke="black" points="1068.08,-190.51 1077.88,-186.5 1067.72,-183.52 1068.08,-190.51"/>
<text text-anchor="middle" x="1055.95" y="-191.15" font-family="Times New Roman,serif" font-size="14.00">a</text>
</g>
<!-- 11,12,13,2,5,7,8 -->
<g id="node21" class="node">
<title>11,12,13,2,5,7,8</title>
<ellipse fill="none" stroke="black" cx="1316.28" cy="-190.35" rx="69.59" ry="69.59"/>
<text text-anchor="middle" x="1316.28" y="-186.65" font-family="Times New Roman,serif" font-size="14.00">11,12,13,2,5,7,8</text>
</g>
<!-- 10,12,2,3,6&#45;&gt;11,12,13,2,5,7,8 -->
<g id="edge31" class="edge">
<title>10,12,2,3,6&#45;&gt;11,12,13,2,5,7,8</title>
<path fill="none" stroke="black" d="M1187.51,-72.62C1201.34,-79.91 1216.17,-88.69 1228.74,-98.35 1240.87,-107.66 1252.81,-118.72 1263.77,-129.89"/>
<polygon fill="black" stroke="black" points="1261.37,-132.44 1270.82,-137.23 1266.41,-127.59 1261.37,-132.44"/>
<text text-anchor="middle" x="1224.74" y="-102.15" font-family="Times New Roman,serif" font-size="14.00">b</text>
</g>
<!-- 12,13,2,3,4 -->
<g id="node22" class="node">
<title>12,13,2,3,4</title>
<ellipse fill="none" stroke="black" cx="1316.28" cy="-51.35" rx="51.19" ry="51.19"/>
<text text-anchor="middle" x="1316.28" y="-47.65" font-family="Times New Roman,serif" font-size="14.00">12,13,2,3,4</text>
</g>
<!-- 10,12,2,3,6&#45;&gt;12,13,2,3,4 -->
<g id="edge32" class="edge">
<title>10,12,2,3,6&#45;&gt;12,13,2,3,4</title>
<path fill="none" stroke="black" d="M1192.12,-51.35C1211.68,-51.35 1234.21,-51.35 1254.61,-51.35"/>
<polygon fill="black" stroke="black" points="1254.74,-54.85 1264.74,-51.35 1254.74,-47.85 1254.74,-54.85"/>
<text text-anchor="middle" x="1224.74" y="-55.15" font-family="Times New Roman,serif" font-size="14.00">a</text>
</g>
<!-- 11,2,5,7,8&#45;&gt;13,2,8,9 -->
<g id="edge33" class="edge">
<title>11,2,5,7,8&#45;&gt;13,2,8,9</title>
<path fill="none" stroke="black" d="M631.36,-265.35C642.34,-265.35 654.12,-265.35 665.25,-265.35"/>
<polygon fill="black" stroke="black" points="665.26,-268.85 675.26,-265.35 665.26,-261.85 665.26,-268.85"/>
<text text-anchor="middle" x="653.27" y="-269.15" font-family="Times New Roman,serif" font-size="14.00">b</text>
</g>
<!-- 11,2,5,7,8&#45;&gt;10,12,13,2,3,6 -->
<g id="edge34" class="edge">
<title>11,2,5,7,8&#45;&gt;10,12,13,2,3,6</title>
<path fill="none" stroke="black" d="M619.04,-233.15C658.43,-197.8 727.49,-143.17 798.87,-121.35 835.29,-110.21 1024.58,-128.82 1033.95,-131.35 1048.36,-135.23 1063.13,-141.13 1076.89,-147.59"/>
<polygon fill="black" stroke="black" points="1075.71,-150.91 1086.24,-152.13 1078.77,-144.62 1075.71,-150.91"/>
<text text-anchor="middle" x="843.06" y="-125.15" font-family="Times New Roman,serif" font-size="14.00">a</text>
</g>
<!-- 10,13,2,3,6&#45;&gt;13,2,3,4 -->
<g id="edge36" class="edge">
<title>10,13,2,3,6&#45;&gt;13,2,3,4</title>
<path fill="none" stroke="black" d="M1265.07,-335.29C1202.13,-327.7 1094.97,-314.78 1032.61,-307.26"/>
<polygon fill="black" stroke="black" points="1032.98,-303.77 1022.63,-306.05 1032.14,-310.72 1032.98,-303.77"/>
<text text-anchor="middle" x="1140.35" y="-330.15" font-family="Times New Roman,serif" font-size="14.00">a</text>
</g>
<!-- 11,13,2,5,7,8 -->
<g id="node23" class="node">
<title>11,13,2,5,7,8</title>
<ellipse fill="none" stroke="black" cx="1487.67" cy="-341.35" rx="57.69" ry="57.69"/>
<text text-anchor="middle" x="1487.67" y="-337.65" font-family="Times New Roman,serif" font-size="14.00">11,13,2,5,7,8</text>
</g>
<!-- 10,13,2,3,6&#45;&gt;11,13,2,5,7,8 -->
<g id="edge35" class="edge">
<title>10,13,2,3,6&#45;&gt;11,13,2,5,7,8</title>
<path fill="none" stroke="black" d="M1367.65,-341.35C1383.95,-341.35 1402.3,-341.35 1419.62,-341.35"/>
<polygon fill="black" stroke="black" points="1419.67,-344.85 1429.67,-341.35 1419.67,-337.85 1419.67,-344.85"/>
<text text-anchor="middle" x="1407.83" y="-345.15" font-family="Times New Roman,serif" font-size="14.00">b</text>
</g>
<!-- 10,12,13,2,3,6&#45;&gt;11,12,13,2,5,7,8 -->
<g id="edge37" class="edge">
<title>10,12,13,2,3,6&#45;&gt;11,12,13,2,5,7,8</title>
<path fill="none" stroke="black" d="M1202.86,-189.31C1208.9,-189.73 1214.93,-190.09 1220.74,-190.35 1225.84,-190.57 1231.09,-190.74 1236.38,-190.86"/>
<polygon fill="black" stroke="black" points="1236.53,-194.37 1246.59,-191.05 1236.66,-187.37 1236.53,-194.37"/>
<text text-anchor="middle" x="1224.74" y="-194.15" font-family="Times New Roman,serif" font-size="14.00">b</text>
</g>
<!-- 10,12,13,2,3,6&#45;&gt;12,13,2,3,4 -->
<g id="edge38" class="edge">
<title>10,12,13,2,3,6&#45;&gt;12,13,2,3,4</title>
<path fill="none" stroke="black" d="M1190.72,-145.87C1214.53,-127.8 1243,-106.2 1266.7,-88.22"/>
<polygon fill="black" stroke="black" points="1269.02,-90.85 1274.87,-82.02 1264.79,-85.27 1269.02,-90.85"/>
<text text-anchor="middle" x="1224.74" y="-124.15" font-family="Times New Roman,serif" font-size="14.00">a</text>
</g>
<!-- 11,12,13,2,5,7,8&#45;&gt;10,12,13,2,3,6 -->
<g id="edge40" class="edge">
<title>11,12,13,2,5,7,8&#45;&gt;10,12,13,2,3,6</title>
<path fill="none" stroke="black" d="M1248.94,-172.32C1239.52,-171.14 1229.92,-170.66 1220.74,-171.35 1217.87,-171.56 1214.95,-171.82 1212.01,-172.11"/>
<polygon fill="black" stroke="black" points="1211.48,-168.65 1201.93,-173.23 1212.25,-175.61 1211.48,-168.65"/>
<text text-anchor="middle" x="1224.74" y="-175.15" font-family="Times New Roman,serif" font-size="14.00">a</text>
</g>
<!-- 12,13,2,8,9 -->
<g id="node24" class="node">
<title>12,13,2,8,9</title>
<ellipse fill="none" stroke="black" cx="1487.67" cy="-190.35" rx="51.19" ry="51.19"/>
<text text-anchor="middle" x="1487.67" y="-186.65" font-family="Times New Roman,serif" font-size="14.00">12,13,2,8,9</text>
</g>
<!-- 11,12,13,2,5,7,8&#45;&gt;12,13,2,8,9 -->
<g id="edge39" class="edge">
<title>11,12,13,2,5,7,8&#45;&gt;12,13,2,8,9</title>
<path fill="none" stroke="black" d="M1386.18,-190.35C1399.41,-190.35 1413.17,-190.35 1426.1,-190.35"/>
<polygon fill="black" stroke="black" points="1426.28,-193.85 1436.28,-190.35 1426.28,-186.85 1426.28,-193.85"/>
<text text-anchor="middle" x="1407.83" y="-194.15" font-family="Times New Roman,serif" font-size="14.00">b</text>
</g>
</g>
</svg>
