<?xml version="1.0" encoding="UTF-8" standalone="no"?>
<!DOCTYPE svg PUBLIC "-//W3C//DTD SVG 1.1//EN"
 "http://www.w3.org/Graphics/SVG/1.1/DTD/svg11.dtd">
<!-- Generated by graphviz version 3.0.0 (20220226.1711)
 -->
<!-- Title: NFA to DFA Pages: 1 -->
<svg width="2440pt" height="499pt"
 viewBox="0.00 0.00 2439.76 499.35" xmlns="http://www.w3.org/2000/svg" xmlns:xlink="http://www.w3.org/1999/xlink">
<g id="graph0" class="graph" transform="scale(1 1) rotate(0) translate(4 495.35)">
<title>NFA to DFA</title>
<polygon fill="white" stroke="transparent" points="-4,4 -4,-495.35 2435.76,-495.35 2435.76,4 -4,4"/>
<!-- 0 -->
<g id="node1" class="node">
<title>0</title>
<ellipse fill="black" stroke="black" cx="1.8" cy="-280" rx="1.8" ry="1.8"/>
</g>
<!-- 1 -->
<g id="node2" class="node">
<title>1</title>
<ellipse fill="none" stroke="black" cx="58.6" cy="-280" rx="18" ry="18"/>
<text text-anchor="middle" x="58.6" y="-276.3" font-family="Times New Roman,serif" font-size="14.00">1</text>
</g>
<!-- 0&#45;&gt;1 -->
<g id="edge1" class="edge">
<title>0&#45;&gt;1</title>
<path fill="none" stroke="black" d="M3.75,-280C7.11,-280 18.87,-280 30.55,-280"/>
<polygon fill="black" stroke="black" points="30.58,-283.5 40.58,-280 30.58,-276.5 30.58,-283.5"/>
</g>
<!-- 2 -->
<g id="node3" class="node">
<title>2</title>
<ellipse fill="none" stroke="black" cx="152.6" cy="-280" rx="18" ry="18"/>
<text text-anchor="middle" x="152.6" y="-276.3" font-family="Times New Roman,serif" font-size="14.00">2</text>
</g>
<!-- 1&#45;&gt;2 -->
<g id="edge2" class="edge">
<title>1&#45;&gt;2</title>
<path fill="none" stroke="black" d="M76.9,-280C90.14,-280 108.65,-280 123.94,-280"/>
<polygon fill="black" stroke="black" points="124.37,-283.5 134.37,-280 124.37,-276.5 124.37,-283.5"/>
<text text-anchor="middle" x="105.6" y="-283.8" font-family="Times New Roman,serif" font-size="14.00">b, a</text>
</g>
<!-- 2,8 -->
<g id="node4" class="node">
<title>2,8</title>
<ellipse fill="none" stroke="black" cx="236.7" cy="-343" rx="22.2" ry="22.2"/>
<text text-anchor="middle" x="236.7" y="-339.3" font-family="Times New Roman,serif" font-size="14.00">2,8</text>
</g>
<!-- 2&#45;&gt;2,8 -->
<g id="edge3" class="edge">
<title>2&#45;&gt;2,8</title>
<path fill="none" stroke="black" d="M167.53,-290.69C179.2,-299.64 196.16,-312.66 210.24,-323.46"/>
<polygon fill="black" stroke="black" points="208.5,-326.54 218.57,-329.85 212.76,-320.99 208.5,-326.54"/>
<text text-anchor="middle" x="192.6" y="-315.8" font-family="Times New Roman,serif" font-size="14.00">b</text>
</g>
<!-- 2,3 -->
<g id="node5" class="node">
<title>2,3</title>
<ellipse fill="none" stroke="black" cx="236.7" cy="-240" rx="22.2" ry="22.2"/>
<text text-anchor="middle" x="236.7" y="-236.3" font-family="Times New Roman,serif" font-size="14.00">2,3</text>
</g>
<!-- 2&#45;&gt;2,3 -->
<g id="edge4" class="edge">
<title>2&#45;&gt;2,3</title>
<path fill="none" stroke="black" d="M169.04,-272.48C179.78,-267.25 194.4,-260.12 207.21,-253.88"/>
<polygon fill="black" stroke="black" points="209.11,-256.85 216.57,-249.32 206.05,-250.55 209.11,-256.85"/>
<text text-anchor="middle" x="192.6" y="-266.8" font-family="Times New Roman,serif" font-size="14.00">a</text>
</g>
<!-- 2,8,9 -->
<g id="node6" class="node">
<title>2,8,9</title>
<ellipse fill="none" stroke="black" cx="584.48" cy="-383" rx="28.7" ry="28.7"/>
<text text-anchor="middle" x="584.48" y="-379.3" font-family="Times New Roman,serif" font-size="14.00">2,8,9</text>
</g>
<!-- 2,8&#45;&gt;2,8,9 -->
<g id="edge5" class="edge">
<title>2,8&#45;&gt;2,8,9</title>
<path fill="none" stroke="black" d="M254.79,-356.6C284.73,-379.4 349.51,-424.27 413.09,-439 447.99,-447.08 459.25,-448.86 493.68,-439 515.64,-432.71 537.45,-419.32 554.08,-407.22"/>
<polygon fill="black" stroke="black" points="556.39,-409.86 562.27,-401.04 552.18,-404.26 556.39,-409.86"/>
<text text-anchor="middle" x="391.09" y="-437.8" font-family="Times New Roman,serif" font-size="14.00">b</text>
</g>
<!-- 10,2,3 -->
<g id="node7" class="node">
<title>10,2,3</title>
<ellipse fill="none" stroke="black" cx="335.94" cy="-343" rx="33.29" ry="33.29"/>
<text text-anchor="middle" x="335.94" y="-339.3" font-family="Times New Roman,serif" font-size="14.00">10,2,3</text>
</g>
<!-- 2,8&#45;&gt;10,2,3 -->
<g id="edge6" class="edge">
<title>2,8&#45;&gt;10,2,3</title>
<path fill="none" stroke="black" d="M258.8,-343C268.74,-343 280.96,-343 292.68,-343"/>
<polygon fill="black" stroke="black" points="292.78,-346.5 302.78,-343 292.78,-339.5 292.78,-346.5"/>
<text text-anchor="middle" x="280.8" y="-346.8" font-family="Times New Roman,serif" font-size="14.00">a</text>
</g>
<!-- 2,5,8 -->
<g id="node8" class="node">
<title>2,5,8</title>
<ellipse fill="none" stroke="black" cx="335.94" cy="-240" rx="28.7" ry="28.7"/>
<text text-anchor="middle" x="335.94" y="-236.3" font-family="Times New Roman,serif" font-size="14.00">2,5,8</text>
</g>
<!-- 2,3&#45;&gt;2,5,8 -->
<g id="edge7" class="edge">
<title>2,3&#45;&gt;2,5,8</title>
<path fill="none" stroke="black" d="M258.8,-240C269.99,-240 284.09,-240 297.11,-240"/>
<polygon fill="black" stroke="black" points="297.23,-243.5 307.23,-240 297.23,-236.5 297.23,-243.5"/>
<text text-anchor="middle" x="280.8" y="-243.8" font-family="Times New Roman,serif" font-size="14.00">b</text>
</g>
<!-- 2,3,4 -->
<g id="node9" class="node">
<title>2,3,4</title>
<ellipse fill="none" stroke="black" cx="584.48" cy="-110" rx="28.7" ry="28.7"/>
<text text-anchor="middle" x="584.48" y="-106.3" font-family="Times New Roman,serif" font-size="14.00">2,3,4</text>
</g>
<!-- 2,3&#45;&gt;2,3,4 -->
<g id="edge8" class="edge">
<title>2,3&#45;&gt;2,3,4</title>
<path fill="none" stroke="black" d="M256.15,-229.08C269.15,-221.42 286.98,-210.99 302.8,-202 351.5,-174.32 360.33,-159.82 413.09,-141 457.11,-125.3 510.48,-117.24 545.63,-113.33"/>
<polygon fill="black" stroke="black" points="546.34,-116.77 555.92,-112.24 545.6,-109.81 546.34,-116.77"/>
<text text-anchor="middle" x="391.09" y="-155.8" font-family="Times New Roman,serif" font-size="14.00">a</text>
</g>
<!-- 13,2,8,9 -->
<g id="node10" class="node">
<title>13,2,8,9</title>
<ellipse fill="none" stroke="black" cx="715.57" cy="-269" rx="40.09" ry="40.09"/>
<text text-anchor="middle" x="715.57" y="-265.3" font-family="Times New Roman,serif" font-size="14.00">13,2,8,9</text>
</g>
<!-- 2,8,9&#45;&gt;13,2,8,9 -->
<g id="edge9" class="edge">
<title>2,8,9&#45;&gt;13,2,8,9</title>
<path fill="none" stroke="black" d="M606.51,-364.43C625.64,-347.54 654.31,-322.22 677.31,-301.9"/>
<polygon fill="black" stroke="black" points="679.7,-304.47 684.88,-295.22 675.06,-299.22 679.7,-304.47"/>
<text text-anchor="middle" x="653.27" y="-329.8" font-family="Times New Roman,serif" font-size="14.00">b</text>
</g>
<!-- 10,13,2,3 -->
<g id="node11" class="node">
<title>10,13,2,3</title>
<ellipse fill="none" stroke="black" cx="843.06" cy="-317" rx="44.39" ry="44.39"/>
<text text-anchor="middle" x="843.06" y="-313.3" font-family="Times New Roman,serif" font-size="14.00">10,13,2,3</text>
</g>
<!-- 2,8,9&#45;&gt;10,13,2,3 -->
<g id="edge10" class="edge">
<title>2,8,9&#45;&gt;10,13,2,3</title>
<path fill="none" stroke="black" d="M613,-379.47C647,-374.75 706.41,-365.26 755.87,-351 768.06,-347.48 780.93,-342.91 792.9,-338.25"/>
<polygon fill="black" stroke="black" points="794.27,-341.47 802.27,-334.52 791.68,-334.97 794.27,-341.47"/>
<text text-anchor="middle" x="715.57" y="-373.8" font-family="Times New Roman,serif" font-size="14.00">a</text>
</g>
<!-- 10,2,3&#45;&gt;2,3,4 -->
<g id="edge12" class="edge">
<title>10,2,3&#45;&gt;2,3,4</title>
<path fill="none" stroke="black" d="M368.48,-335C411.58,-323.83 484.58,-303.91 493.68,-295 542.71,-246.98 500.47,-204.65 537.68,-147 541.48,-141.11 546.53,-135.73 551.88,-131"/>
<polygon fill="black" stroke="black" points="554.27,-133.57 559.84,-124.55 549.87,-128.13 554.27,-133.57"/>
<text text-anchor="middle" x="453.39" y="-326.8" font-family="Times New Roman,serif" font-size="14.00">a</text>
</g>
<!-- 11,2,5,8 -->
<g id="node12" class="node">
<title>11,2,5,8</title>
<ellipse fill="none" stroke="black" cx="453.39" cy="-390" rx="40.09" ry="40.09"/>
<text text-anchor="middle" x="453.39" y="-386.3" font-family="Times New Roman,serif" font-size="14.00">11,2,5,8</text>
</g>
<!-- 10,2,3&#45;&gt;11,2,5,8 -->
<g id="edge11" class="edge">
<title>10,2,3&#45;&gt;11,2,5,8</title>
<path fill="none" stroke="black" d="M366.97,-355.23C379.02,-360.13 393.16,-365.89 406.44,-371.3"/>
<polygon fill="black" stroke="black" points="405.34,-374.62 415.92,-375.15 407.98,-368.14 405.34,-374.62"/>
<text text-anchor="middle" x="391.09" y="-370.8" font-family="Times New Roman,serif" font-size="14.00">b</text>
</g>
<!-- 2,5,8&#45;&gt;2,8,9 -->
<g id="edge13" class="edge">
<title>2,5,8&#45;&gt;2,8,9</title>
<path fill="none" stroke="black" d="M364.65,-242.07C397.58,-245.6 453.15,-255.04 493.68,-280 522.34,-297.64 546.82,-327.37 562.94,-350.36"/>
<polygon fill="black" stroke="black" points="560.18,-352.52 568.7,-358.8 565.96,-348.57 560.18,-352.52"/>
<text text-anchor="middle" x="453.39" y="-283.8" font-family="Times New Roman,serif" font-size="14.00">b</text>
</g>
<!-- 10,2,3,6 -->
<g id="node13" class="node">
<title>10,2,3,6</title>
<ellipse fill="none" stroke="black" cx="453.39" cy="-190" rx="40.09" ry="40.09"/>
<text text-anchor="middle" x="453.39" y="-186.3" font-family="Times New Roman,serif" font-size="14.00">10,2,3,6</text>
</g>
<!-- 2,5,8&#45;&gt;10,2,3,6 -->
<g id="edge14" class="edge">
<title>2,5,8&#45;&gt;10,2,3,6</title>
<path fill="none" stroke="black" d="M362.56,-228.9C375.42,-223.33 391.4,-216.41 406.3,-209.96"/>
<polygon fill="black" stroke="black" points="408.1,-212.99 415.89,-205.81 405.32,-206.57 408.1,-212.99"/>
<text text-anchor="middle" x="391.09" y="-221.8" font-family="Times New Roman,serif" font-size="14.00">a</text>
</g>
<!-- 13,2,5,8 -->
<g id="node14" class="node">
<title>13,2,5,8</title>
<ellipse fill="none" stroke="black" cx="1118.25" cy="-172" rx="40.09" ry="40.09"/>
<text text-anchor="middle" x="1118.25" y="-168.3" font-family="Times New Roman,serif" font-size="14.00">13,2,5,8</text>
</g>
<!-- 2,3,4&#45;&gt;13,2,5,8 -->
<g id="edge15" class="edge">
<title>2,3,4&#45;&gt;13,2,5,8</title>
<path fill="none" stroke="black" d="M599.53,-85.59C620.22,-53.18 662.16,0 714.57,0 714.57,0 714.57,0 910.26,0 970.79,0 988.47,-17.05 1033.95,-57 1061.56,-81.25 1056.02,-97.51 1077.95,-127 1079.87,-129.58 1081.9,-132.19 1083.99,-134.8"/>
<polygon fill="black" stroke="black" points="1081.3,-137.04 1090.36,-142.53 1086.7,-132.59 1081.3,-137.04"/>
<text text-anchor="middle" x="843.06" y="-3.8" font-family="Times New Roman,serif" font-size="14.00">b</text>
</g>
<!-- 13,2,3,4 -->
<g id="node15" class="node">
<title>13,2,3,4</title>
<ellipse fill="none" stroke="black" cx="982.61" cy="-106" rx="40.09" ry="40.09"/>
<text text-anchor="middle" x="982.61" y="-102.3" font-family="Times New Roman,serif" font-size="14.00">13,2,3,4</text>
</g>
<!-- 2,3,4&#45;&gt;13,2,3,4 -->
<g id="edge16" class="edge">
<title>2,3,4&#45;&gt;13,2,3,4</title>
<path fill="none" stroke="black" d="M606.78,-91.88C618.55,-82.88 633.88,-72.73 649.27,-67 704.44,-46.46 722.51,-44.29 780.87,-52 834.74,-59.12 894.69,-76.55 934.93,-89.69"/>
<polygon fill="black" stroke="black" points="933.87,-93.03 944.47,-92.85 936.07,-86.38 933.87,-93.03"/>
<text text-anchor="middle" x="777.37" y="-55.8" font-family="Times New Roman,serif" font-size="14.00">a</text>
</g>
<!-- 13,2,8,9&#45;&gt;13,2,8,9 -->
<g id="edge17" class="edge">
<title>13,2,8,9&#45;&gt;13,2,8,9</title>
<path fill="none" stroke="black" d="M704.38,-307.96C704.87,-318.9 708.6,-327.3 715.57,-327.3 720.15,-327.3 723.33,-323.68 725.11,-318.1"/>
<polygon fill="black" stroke="black" points="728.61,-318.39 726.77,-307.96 721.7,-317.26 728.61,-318.39"/>
<text text-anchor="middle" x="715.57" y="-331.1" font-family="Times New Roman,serif" font-size="14.00">b</text>
</g>
<!-- 13,2,8,9&#45;&gt;10,13,2,3 -->
<g id="edge18" class="edge">
<title>13,2,8,9&#45;&gt;10,13,2,3</title>
<path fill="none" stroke="black" d="M753.54,-283.14C765.53,-287.73 779.03,-292.89 791.81,-297.78"/>
<polygon fill="black" stroke="black" points="790.82,-301.15 801.41,-301.45 793.32,-294.61 790.82,-301.15"/>
<text text-anchor="middle" x="777.37" y="-296.8" font-family="Times New Roman,serif" font-size="14.00">a</text>
</g>
<!-- 10,13,2,3&#45;&gt;13,2,3,4 -->
<g id="edge20" class="edge">
<title>10,13,2,3&#45;&gt;13,2,3,4</title>
<path fill="none" stroke="black" d="M871.79,-282.78C884.9,-266.05 900.46,-245.37 913.26,-226 929.36,-201.63 945.62,-173.28 958.23,-150.25"/>
<polygon fill="black" stroke="black" points="961.35,-151.85 963.06,-141.39 955.2,-148.5 961.35,-151.85"/>
<text text-anchor="middle" x="909.26" y="-240.8" font-family="Times New Roman,serif" font-size="14.00">a</text>
</g>
<!-- 11,13,2,5,8 -->
<g id="node16" class="node">
<title>11,13,2,5,8</title>
<ellipse fill="none" stroke="black" cx="982.61" cy="-324" rx="51.19" ry="51.19"/>
<text text-anchor="middle" x="982.61" y="-320.3" font-family="Times New Roman,serif" font-size="14.00">11,13,2,5,8</text>
</g>
<!-- 10,13,2,3&#45;&gt;11,13,2,5,8 -->
<g id="edge19" class="edge">
<title>10,13,2,3&#45;&gt;11,13,2,5,8</title>
<path fill="none" stroke="black" d="M887.21,-319.2C897.82,-319.74 909.39,-320.32 920.67,-320.9"/>
<polygon fill="black" stroke="black" points="920.75,-324.41 930.91,-321.42 921.11,-317.42 920.75,-324.41"/>
<text text-anchor="middle" x="909.26" y="-324.8" font-family="Times New Roman,serif" font-size="14.00">b</text>
</g>
<!-- 11,2,5,8&#45;&gt;2,8,9 -->
<g id="edge21" class="edge">
<title>11,2,5,8&#45;&gt;2,8,9</title>
<path fill="none" stroke="black" d="M493.82,-387.86C510.24,-386.97 529.23,-385.94 545.5,-385.06"/>
<polygon fill="black" stroke="black" points="545.94,-388.54 555.74,-384.5 545.57,-381.55 545.94,-388.54"/>
<text text-anchor="middle" x="515.68" y="-390.8" font-family="Times New Roman,serif" font-size="14.00">b</text>
</g>
<!-- 10,12,2,3,6 -->
<g id="node17" class="node">
<title>10,12,2,3,6</title>
<ellipse fill="none" stroke="black" cx="1569.32" cy="-440" rx="51.19" ry="51.19"/>
<text text-anchor="middle" x="1569.32" y="-436.3" font-family="Times New Roman,serif" font-size="14.00">10,12,2,3,6</text>
</g>
<!-- 11,2,5,8&#45;&gt;10,12,2,3,6 -->
<g id="edge22" class="edge">
<title>11,2,5,8&#45;&gt;10,12,2,3,6</title>
<path fill="none" stroke="black" d="M488.08,-410.91C513.36,-424.62 549.35,-440 583.48,-440 583.48,-440 583.48,-440 1407.08,-440 1440.26,-440 1477.28,-440 1507.47,-440"/>
<polygon fill="black" stroke="black" points="1507.85,-443.5 1517.84,-440 1507.84,-436.5 1507.85,-443.5"/>
<text text-anchor="middle" x="982.61" y="-443.8" font-family="Times New Roman,serif" font-size="14.00">a</text>
</g>
<!-- 10,2,3,6&#45;&gt;2,3,4 -->
<g id="edge24" class="edge">
<title>10,2,3,6&#45;&gt;2,3,4</title>
<path fill="none" stroke="black" d="M487.97,-169.19C507.44,-157.12 531.85,-141.99 551.12,-130.06"/>
<polygon fill="black" stroke="black" points="553.19,-132.89 559.84,-124.65 549.5,-126.94 553.19,-132.89"/>
<text text-anchor="middle" x="515.68" y="-156.8" font-family="Times New Roman,serif" font-size="14.00">a</text>
</g>
<!-- 11,2,5,7,8 -->
<g id="node18" class="node">
<title>11,2,5,7,8</title>
<ellipse fill="none" stroke="black" cx="584.48" cy="-203" rx="46.59" ry="46.59"/>
<text text-anchor="middle" x="584.48" y="-199.3" font-family="Times New Roman,serif" font-size="14.00">11,2,5,7,8</text>
</g>
<!-- 10,2,3,6&#45;&gt;11,2,5,7,8 -->
<g id="edge23" class="edge">
<title>10,2,3,6&#45;&gt;11,2,5,7,8</title>
<path fill="none" stroke="black" d="M493.82,-193.97C504.38,-195.03 516,-196.2 527.28,-197.34"/>
<polygon fill="black" stroke="black" points="527.19,-200.85 537.49,-198.37 527.9,-193.88 527.19,-200.85"/>
<text text-anchor="middle" x="515.68" y="-200.8" font-family="Times New Roman,serif" font-size="14.00">b</text>
</g>
<!-- 13,2,5,8&#45;&gt;13,2,8,9 -->
<g id="edge25" class="edge">
<title>13,2,5,8&#45;&gt;13,2,8,9</title>
<path fill="none" stroke="black" d="M1078.3,-179.7C1064.33,-182.4 1048.45,-185.41 1033.95,-188 918.62,-208.61 882.9,-188.12 773.87,-231 768.04,-233.29 762.19,-236.24 756.57,-239.49"/>
<polygon fill="black" stroke="black" points="754.66,-236.55 747.98,-244.77 758.33,-242.51 754.66,-236.55"/>
<text text-anchor="middle" x="909.26" y="-204.8" font-family="Times New Roman,serif" font-size="14.00">b</text>
</g>
<!-- 10,13,2,3,6 -->
<g id="node19" class="node">
<title>10,13,2,3,6</title>
<ellipse fill="none" stroke="black" cx="1252.89" cy="-166" rx="51.19" ry="51.19"/>
<text text-anchor="middle" x="1252.89" y="-162.3" font-family="Times New Roman,serif" font-size="14.00">10,13,2,3,6</text>
</g>
<!-- 13,2,5,8&#45;&gt;10,13,2,3,6 -->
<g id="edge26" class="edge">
<title>13,2,5,8&#45;&gt;10,13,2,3,6</title>
<path fill="none" stroke="black" d="M1158.68,-170.22C1168.98,-169.75 1180.3,-169.24 1191.41,-168.74"/>
<polygon fill="black" stroke="black" points="1191.69,-172.23 1201.52,-168.28 1191.37,-165.23 1191.69,-172.23"/>
<text text-anchor="middle" x="1180.04" y="-173.8" font-family="Times New Roman,serif" font-size="14.00">a</text>
</g>
<!-- 13,2,3,4&#45;&gt;13,2,5,8 -->
<g id="edge27" class="edge">
<title>13,2,3,4&#45;&gt;13,2,5,8</title>
<path fill="none" stroke="black" d="M1019.07,-123.51C1035.38,-131.57 1054.91,-141.22 1072.25,-149.78"/>
<polygon fill="black" stroke="black" points="1071.1,-153.11 1081.62,-154.4 1074.2,-146.84 1071.1,-153.11"/>
<text text-anchor="middle" x="1055.95" y="-146.8" font-family="Times New Roman,serif" font-size="14.00">b</text>
</g>
<!-- 13,2,3,4&#45;&gt;13,2,3,4 -->
<g id="edge28" class="edge">
<title>13,2,3,4&#45;&gt;13,2,3,4</title>
<path fill="none" stroke="black" d="M969.13,-144.13C969.54,-155.47 974.03,-164.3 982.61,-164.3 988.37,-164.3 992.29,-160.31 994.36,-154.26"/>
<polygon fill="black" stroke="black" points="997.86,-154.57 996.08,-144.13 990.95,-153.4 997.86,-154.57"/>
<text text-anchor="middle" x="982.61" y="-168.1" font-family="Times New Roman,serif" font-size="14.00">a</text>
</g>
<!-- 11,13,2,5,8&#45;&gt;13,2,8,9 -->
<g id="edge29" class="edge">
<title>11,13,2,5,8&#45;&gt;13,2,8,9</title>
<path fill="none" stroke="black" d="M938.62,-350.78C900.52,-370.85 844.08,-391.48 798.87,-370 773.91,-358.14 754.03,-334.6 740.07,-313.23"/>
<polygon fill="black" stroke="black" points="742.91,-311.17 734.63,-304.55 736.97,-314.88 742.91,-311.17"/>
<text text-anchor="middle" x="843.06" y="-383.8" font-family="Times New Roman,serif" font-size="14.00">b</text>
</g>
<!-- 10,12,13,2,3,6 -->
<g id="node20" class="node">
<title>10,12,13,2,3,6</title>
<ellipse fill="none" stroke="black" cx="1569.32" cy="-194" rx="62.29" ry="62.29"/>
<text text-anchor="middle" x="1569.32" y="-190.3" font-family="Times New Roman,serif" font-size="14.00">10,12,13,2,3,6</text>
</g>
<!-- 11,13,2,5,8&#45;&gt;10,12,13,2,3,6 -->
<g id="edge30" class="edge">
<title>11,13,2,5,8&#45;&gt;10,12,13,2,3,6</title>
<path fill="none" stroke="black" d="M1033.26,-315.2C1058.35,-311.49 1089.32,-308 1117.25,-308 1117.25,-308 1117.25,-308 1407.08,-308 1451.64,-308 1492.52,-278.61 1521.97,-249.67"/>
<polygon fill="black" stroke="black" points="1524.67,-251.92 1529.2,-242.35 1519.69,-247 1524.67,-251.92"/>
<text text-anchor="middle" x="1252.89" y="-311.8" font-family="Times New Roman,serif" font-size="14.00">a</text>
</g>
<!-- 11,12,13,2,5,7,8 -->
<g id="node21" class="node">
<title>11,12,13,2,5,7,8</title>
<ellipse fill="none" stroke="black" cx="1745.26" cy="-232" rx="69.59" ry="69.59"/>
<text text-anchor="middle" x="1745.26" y="-228.3" font-family="Times New Roman,serif" font-size="14.00">11,12,13,2,5,7,8</text>
</g>
<!-- 10,12,2,3,6&#45;&gt;11,12,13,2,5,7,8 -->
<g id="edge31" class="edge">
<title>10,12,2,3,6&#45;&gt;11,12,13,2,5,7,8</title>
<path fill="none" stroke="black" d="M1603.04,-400.88C1628.47,-370.46 1664.21,-327.72 1693.37,-292.85"/>
<polygon fill="black" stroke="black" points="1696.14,-295 1699.87,-285.08 1690.77,-290.51 1696.14,-295"/>
<text text-anchor="middle" x="1653.71" y="-346.8" font-family="Times New Roman,serif" font-size="14.00">b</text>
</g>
<!-- 12,13,2,3,4 -->
<g id="node22" class="node">
<title>12,13,2,3,4</title>
<ellipse fill="none" stroke="black" cx="2222.68" cy="-361" rx="51.19" ry="51.19"/>
<text text-anchor="middle" x="2222.68" y="-357.3" font-family="Times New Roman,serif" font-size="14.00">12,13,2,3,4</text>
</g>
<!-- 10,12,2,3,6&#45;&gt;12,13,2,3,4 -->
<g id="edge32" class="edge">
<title>10,12,2,3,6&#45;&gt;12,13,2,3,4</title>
<path fill="none" stroke="black" d="M1620.46,-446.62C1655.15,-450.64 1702.43,-455 1744.26,-455 1744.26,-455 1744.26,-455 2061.39,-455 2105.22,-455 2147.67,-428.53 2177.86,-403.68"/>
<polygon fill="black" stroke="black" points="2180.29,-406.21 2185.66,-397.07 2175.76,-400.87 2180.29,-406.21"/>
<text text-anchor="middle" x="1910.15" y="-458.8" font-family="Times New Roman,serif" font-size="14.00">a</text>
</g>
<!-- 11,2,5,7,8&#45;&gt;13,2,8,9 -->
<g id="edge33" class="edge">
<title>11,2,5,7,8&#45;&gt;13,2,8,9</title>
<path fill="none" stroke="black" d="M626.68,-224.06C640.6,-231.18 656.2,-239.16 670.34,-246.39"/>
<polygon fill="black" stroke="black" points="668.9,-249.58 679.4,-251.02 672.09,-243.35 668.9,-249.58"/>
<text text-anchor="middle" x="653.27" y="-241.8" font-family="Times New Roman,serif" font-size="14.00">b</text>
</g>
<!-- 11,2,5,7,8&#45;&gt;10,12,13,2,3,6 -->
<g id="edge34" class="edge">
<title>11,2,5,7,8&#45;&gt;10,12,13,2,3,6</title>
<path fill="none" stroke="black" d="M624.95,-178.83C703.69,-133 887.13,-38 1054.95,-38 1054.95,-38 1054.95,-38 1407.08,-38 1462.95,-38 1506.83,-86.97 1534.62,-130.04"/>
<polygon fill="black" stroke="black" points="1531.68,-131.95 1539.96,-138.56 1537.61,-128.23 1531.68,-131.95"/>
<text text-anchor="middle" x="1055.95" y="-41.8" font-family="Times New Roman,serif" font-size="14.00">a</text>
</g>
<!-- 10,13,2,3,6&#45;&gt;13,2,3,4 -->
<g id="edge36" class="edge">
<title>10,13,2,3,6&#45;&gt;13,2,3,4</title>
<path fill="none" stroke="black" d="M1211.93,-134.51C1196.21,-123.96 1177.41,-113.5 1158.54,-108 1117.41,-96.01 1068.48,-96.62 1032.85,-99.6"/>
<polygon fill="black" stroke="black" points="1032.34,-96.13 1022.7,-100.53 1032.98,-103.1 1032.34,-96.13"/>
<text text-anchor="middle" x="1118.25" y="-111.8" font-family="Times New Roman,serif" font-size="14.00">a</text>
</g>
<!-- 11,13,2,5,7,8 -->
<g id="node23" class="node">
<title>11,13,2,5,7,8</title>
<ellipse fill="none" stroke="black" cx="1406.08" cy="-194" rx="57.69" ry="57.69"/>
<text text-anchor="middle" x="1406.08" y="-190.3" font-family="Times New Roman,serif" font-size="14.00">11,13,2,5,7,8</text>
</g>
<!-- 10,13,2,3,6&#45;&gt;11,13,2,5,7,8 -->
<g id="edge35" class="edge">
<title>10,13,2,3,6&#45;&gt;11,13,2,5,7,8</title>
<path fill="none" stroke="black" d="M1303.81,-175.25C1315.1,-177.34 1327.26,-179.59 1339.09,-181.78"/>
<polygon fill="black" stroke="black" points="1338.47,-185.22 1348.94,-183.6 1339.74,-178.34 1338.47,-185.22"/>
<text text-anchor="middle" x="1326.23" y="-183.8" font-family="Times New Roman,serif" font-size="14.00">b</text>
</g>
<!-- 10,12,13,2,3,6&#45;&gt;11,12,13,2,5,7,8 -->
<g id="edge37" class="edge">
<title>10,12,13,2,3,6&#45;&gt;11,12,13,2,5,7,8</title>
<path fill="none" stroke="black" d="M1630.67,-207.18C1642.51,-209.77 1655.09,-212.52 1667.39,-215.21"/>
<polygon fill="black" stroke="black" points="1666.66,-218.63 1677.18,-217.34 1668.15,-211.79 1666.66,-218.63"/>
<text text-anchor="middle" x="1653.71" y="-216.8" font-family="Times New Roman,serif" font-size="14.00">b</text>
</g>
<!-- 10,12,13,2,3,6&#45;&gt;12,13,2,3,4 -->
<g id="edge38" class="edge">
<title>10,12,13,2,3,6&#45;&gt;12,13,2,3,4</title>
<path fill="none" stroke="black" d="M1592.37,-252.07C1618.79,-310.49 1669.1,-392 1744.26,-392 1744.26,-392 1744.26,-392 2061.39,-392 2095.51,-392 2132.99,-385.14 2163.12,-377.88"/>
<polygon fill="black" stroke="black" points="2164.18,-381.22 2173.04,-375.41 2162.49,-374.43 2164.18,-381.22"/>
<text text-anchor="middle" x="1910.15" y="-395.8" font-family="Times New Roman,serif" font-size="14.00">a</text>
</g>
<!-- 11,12,13,2,5,7,8&#45;&gt;10,12,13,2,3,6 -->
<g id="edge40" class="edge">
<title>11,12,13,2,5,7,8&#45;&gt;10,12,13,2,3,6</title>
<path fill="none" stroke="black" d="M1682.94,-200.6C1674.64,-197.48 1666.09,-194.8 1657.71,-193 1652.65,-191.91 1647.38,-191.13 1642.06,-190.6"/>
<polygon fill="black" stroke="black" points="1642.01,-187.08 1631.79,-189.85 1641.51,-194.07 1642.01,-187.08"/>
<text text-anchor="middle" x="1653.71" y="-196.8" font-family="Times New Roman,serif" font-size="14.00">a</text>
</g>
<!-- 12,13,2,8,9 -->
<g id="node24" class="node">
<title>12,13,2,8,9</title>
<ellipse fill="none" stroke="black" cx="1910.15" cy="-226" rx="51.19" ry="51.19"/>
<text text-anchor="middle" x="1910.15" y="-222.3" font-family="Times New Roman,serif" font-size="14.00">12,13,2,8,9</text>
</g>
<!-- 11,12,13,2,5,7,8&#45;&gt;12,13,2,8,9 -->
<g id="edge39" class="edge">
<title>11,12,13,2,5,7,8&#45;&gt;12,13,2,8,9</title>
<path fill="none" stroke="black" d="M1814.86,-229.47C1825.93,-229.07 1837.33,-228.65 1848.2,-228.24"/>
<polygon fill="black" stroke="black" points="1848.57,-231.73 1858.44,-227.87 1848.32,-224.74 1848.57,-231.73"/>
<text text-anchor="middle" x="1836.8" y="-232.8" font-family="Times New Roman,serif" font-size="14.00">b</text>
</g>
<!-- 12,13,2,3,4&#45;&gt;12,13,2,3,4 -->
<g id="edge42" class="edge">
<title>12,13,2,3,4&#45;&gt;12,13,2,3,4</title>
<path fill="none" stroke="black" d="M2207.24,-410.24C2208.51,-421.81 2213.65,-430.35 2222.68,-430.35 2228.88,-430.35 2233.25,-426.31 2235.79,-420.03"/>
<polygon fill="black" stroke="black" points="2239.21,-420.78 2238.11,-410.24 2232.4,-419.16 2239.21,-420.78"/>
<text text-anchor="middle" x="2222.68" y="-434.15" font-family="Times New Roman,serif" font-size="14.00">a</text>
</g>
<!-- 12,13,2,5,8 -->
<g id="node25" class="node">
<title>12,13,2,5,8</title>
<ellipse fill="none" stroke="black" cx="2380.42" cy="-224" rx="51.19" ry="51.19"/>
<text text-anchor="middle" x="2380.42" y="-220.3" font-family="Times New Roman,serif" font-size="14.00">12,13,2,5,8</text>
</g>
<!-- 12,13,2,3,4&#45;&gt;12,13,2,5,8 -->
<g id="edge41" class="edge">
<title>12,13,2,3,4&#45;&gt;12,13,2,5,8</title>
<path fill="none" stroke="black" d="M2261.77,-327.49C2283.46,-308.41 2310.76,-284.39 2333.61,-264.29"/>
<polygon fill="black" stroke="black" points="2335.97,-266.88 2341.17,-257.64 2331.35,-261.62 2335.97,-266.88"/>
<text text-anchor="middle" x="2307.07" y="-292.8" font-family="Times New Roman,serif" font-size="14.00">b</text>
</g>
<!-- 11,13,2,5,7,8&#45;&gt;13,2,8,9 -->
<g id="edge43" class="edge">
<title>11,13,2,5,7,8&#45;&gt;13,2,8,9</title>
<path fill="none" stroke="black" d="M1354.37,-220.25C1325.67,-232.74 1288.65,-245 1253.89,-245 842.06,-245 842.06,-245 842.06,-245 816.08,-245 787.59,-250.03 764.34,-255.48"/>
<polygon fill="black" stroke="black" points="763.26,-252.14 754.38,-257.91 764.93,-258.94 763.26,-252.14"/>
<text text-anchor="middle" x="1055.95" y="-248.8" font-family="Times New Roman,serif" font-size="14.00">b</text>
</g>
<!-- 11,13,2,5,7,8&#45;&gt;10,12,13,2,3,6 -->
<g id="edge44" class="edge">
<title>11,13,2,5,7,8&#45;&gt;10,12,13,2,3,6</title>
<path fill="none" stroke="black" d="M1463.93,-194C1474.55,-194 1485.77,-194 1496.77,-194"/>
<polygon fill="black" stroke="black" points="1496.78,-197.5 1506.78,-194 1496.78,-190.5 1496.78,-197.5"/>
<text text-anchor="middle" x="1485.42" y="-197.8" font-family="Times New Roman,serif" font-size="14.00">a</text>
</g>
<!-- 12,13,2,8,9&#45;&gt;12,13,2,8,9 -->
<g id="edge45" class="edge">
<title>12,13,2,8,9&#45;&gt;12,13,2,8,9</title>
<path fill="none" stroke="black" d="M1896.98,-275.87C1898.16,-287.12 1902.55,-295.35 1910.15,-295.35 1915.25,-295.35 1918.9,-291.63 1921.11,-285.78"/>
<polygon fill="black" stroke="black" points="1924.56,-286.39 1923.32,-275.87 1917.73,-284.87 1924.56,-286.39"/>
<text text-anchor="middle" x="1910.15" y="-299.15" font-family="Times New Roman,serif" font-size="14.00">b</text>
</g>
<!-- 10,12,13,2,3 -->
<g id="node26" class="node">
<title>10,12,13,2,3</title>
<ellipse fill="none" stroke="black" cx="2060.39" cy="-308" rx="55.79" ry="55.79"/>
<text text-anchor="middle" x="2060.39" y="-304.3" font-family="Times New Roman,serif" font-size="14.00">10,12,13,2,3</text>
</g>
<!-- 12,13,2,8,9&#45;&gt;10,12,13,2,3 -->
<g id="edge46" class="edge">
<title>12,13,2,8,9&#45;&gt;10,12,13,2,3</title>
<path fill="none" stroke="black" d="M1955.62,-250.6C1970.24,-258.69 1986.69,-267.79 2002.12,-276.32"/>
<polygon fill="black" stroke="black" points="2000.62,-279.49 2011.06,-281.27 2004.01,-273.37 2000.62,-279.49"/>
<text text-anchor="middle" x="1982.99" y="-270.8" font-family="Times New Roman,serif" font-size="14.00">a</text>
</g>
<!-- 12,13,2,5,8&#45;&gt;10,12,13,2,3,6 -->
<g id="edge48" class="edge">
<title>12,13,2,5,8&#45;&gt;10,12,13,2,3,6</title>
<path fill="none" stroke="black" d="M2362.35,-175.9C2347.26,-139.96 2321.88,-92.19 2285.07,-63 2262.69,-45.25 2252.24,-44 2223.68,-44 1744.26,-44 1744.26,-44 1744.26,-44 1687.06,-44 1639.35,-91.09 1608.46,-132.5"/>
<polygon fill="black" stroke="black" points="1605.55,-130.55 1602.5,-140.69 1611.21,-134.66 1605.55,-130.55"/>
<text text-anchor="middle" x="1982.99" y="-47.8" font-family="Times New Roman,serif" font-size="14.00">a</text>
</g>
<!-- 12,13,2,5,8&#45;&gt;12,13,2,8,9 -->
<g id="edge47" class="edge">
<title>12,13,2,5,8&#45;&gt;12,13,2,8,9</title>
<path fill="none" stroke="black" d="M2328.71,-223.87C2279.14,-223.77 2201.52,-223.7 2134.28,-224 2079.29,-224.25 2016.68,-224.83 1971.81,-225.31"/>
<polygon fill="black" stroke="black" points="1971.62,-221.81 1961.66,-225.42 1971.7,-228.81 1971.62,-221.81"/>
<text text-anchor="middle" x="2138.28" y="-227.8" font-family="Times New Roman,serif" font-size="14.00">b</text>
</g>
<!-- 10,12,13,2,3&#45;&gt;12,13,2,3,4 -->
<g id="edge50" class="edge">
<title>10,12,13,2,3&#45;&gt;12,13,2,3,4</title>
<path fill="none" stroke="black" d="M2113.87,-325.35C2129.83,-330.63 2147.45,-336.46 2163.74,-341.84"/>
<polygon fill="black" stroke="black" points="2163.09,-345.31 2173.68,-345.13 2165.29,-338.67 2163.09,-345.31"/>
<text text-anchor="middle" x="2138.28" y="-338.8" font-family="Times New Roman,serif" font-size="14.00">a</text>
</g>
<!-- 11,12,13,2,5,8 -->
<g id="node27" class="node">
<title>11,12,13,2,5,8</title>
<ellipse fill="none" stroke="black" cx="2222.68" cy="-134" rx="62.29" ry="62.29"/>
<text text-anchor="middle" x="2222.68" y="-130.3" font-family="Times New Roman,serif" font-size="14.00">11,12,13,2,5,8</text>
</g>
<!-- 10,12,13,2,3&#45;&gt;11,12,13,2,5,8 -->
<g id="edge49" class="edge">
<title>10,12,13,2,3&#45;&gt;11,12,13,2,5,8</title>
<path fill="none" stroke="black" d="M2106.04,-275.58C2118.36,-265.74 2131.34,-254.47 2142.28,-243 2156.32,-228.28 2169.97,-211.01 2181.88,-194.6"/>
<polygon fill="black" stroke="black" points="2184.97,-196.29 2187.94,-186.12 2179.28,-192.22 2184.97,-196.29"/>
<text text-anchor="middle" x="2138.28" y="-254.8" font-family="Times New Roman,serif" font-size="14.00">b</text>
</g>
<!-- 11,12,13,2,5,8&#45;&gt;10,12,13,2,3,6 -->
<g id="edge52" class="edge">
<title>11,12,13,2,5,8&#45;&gt;10,12,13,2,3,6</title>
<path fill="none" stroke="black" d="M2160.02,-134C2130.22,-134 2093.95,-134 2061.39,-134 1744.26,-134 1744.26,-134 1744.26,-134 1706.32,-134 1666.14,-146.92 1633.97,-160.76"/>
<polygon fill="black" stroke="black" points="1632.41,-157.63 1624.68,-164.88 1635.24,-164.02 1632.41,-157.63"/>
<text text-anchor="middle" x="1910.15" y="-137.8" font-family="Times New Roman,serif" font-size="14.00">a</text>
</g>
<!-- 11,12,13,2,5,8&#45;&gt;12,13,2,8,9 -->
<g id="edge51" class="edge">
<title>11,12,13,2,5,8&#45;&gt;12,13,2,8,9</title>
<path fill="none" stroke="black" d="M2162,-149.95C2118.24,-161.85 2057.48,-178.77 2004.49,-195 1992.88,-198.56 1980.52,-202.53 1968.73,-206.41"/>
<polygon fill="black" stroke="black" points="1967.37,-203.17 1958.98,-209.64 1969.57,-209.82 1967.37,-203.17"/>
<text text-anchor="middle" x="2060.39" y="-198.8" font-family="Times New Roman,serif" font-size="14.00">b</text>
</g>
</g>
</svg>
