<?xml version="1.0" encoding="UTF-8" standalone="no"?>
<!DOCTYPE svg PUBLIC "-//W3C//DTD SVG 1.1//EN"
 "http://www.w3.org/Graphics/SVG/1.1/DTD/svg11.dtd">
<!-- Generated by graphviz version 3.0.0 (20220226.1711)
 -->
<!-- Title: NFA to DFA Pages: 1 -->
<svg width="758pt" height="371pt"
 viewBox="0.00 0.00 757.67 370.59" xmlns="http://www.w3.org/2000/svg" xmlns:xlink="http://www.w3.org/1999/xlink">
<g id="graph0" class="graph" transform="scale(1 1) rotate(0) translate(4 366.59)">
<title>NFA to DFA</title>
<polygon fill="white" stroke="transparent" points="-4,4 -4,-366.59 753.67,-366.59 753.67,4 -4,4"/>
<!-- 0 -->
<g id="node1" class="node">
<title>0</title>
<ellipse fill="black" stroke="black" cx="1.8" cy="-186.3" rx="1.8" ry="1.8"/>
</g>
<!-- 1 -->
<g id="node2" class="node">
<title>1</title>
<ellipse fill="none" stroke="black" cx="58.6" cy="-186.3" rx="18" ry="18"/>
<text text-anchor="middle" x="58.6" y="-182.6" font-family="Times New Roman,serif" font-size="14.00">1</text>
</g>
<!-- 0&#45;&gt;1 -->
<g id="edge1" class="edge">
<title>0&#45;&gt;1</title>
<path fill="none" stroke="black" d="M3.75,-186.3C7.11,-186.3 18.87,-186.3 30.55,-186.3"/>
<polygon fill="black" stroke="black" points="30.58,-189.8 40.58,-186.3 30.58,-182.8 30.58,-189.8"/>
</g>
<!-- 2 -->
<g id="node3" class="node">
<title>2</title>
<ellipse fill="none" stroke="black" cx="152.6" cy="-186.3" rx="18" ry="18"/>
<text text-anchor="middle" x="152.6" y="-182.6" font-family="Times New Roman,serif" font-size="14.00">2</text>
</g>
<!-- 1&#45;&gt;2 -->
<g id="edge2" class="edge">
<title>1&#45;&gt;2</title>
<path fill="none" stroke="black" d="M76.9,-186.3C90.14,-186.3 108.65,-186.3 123.94,-186.3"/>
<polygon fill="black" stroke="black" points="124.37,-189.8 134.37,-186.3 124.37,-182.8 124.37,-189.8"/>
<text text-anchor="middle" x="105.6" y="-190.1" font-family="Times New Roman,serif" font-size="14.00">b, a</text>
</g>
<!-- 2,8 -->
<g id="node4" class="node">
<title>2,8</title>
<ellipse fill="none" stroke="black" cx="236.7" cy="-217.3" rx="22.2" ry="22.2"/>
<text text-anchor="middle" x="236.7" y="-213.6" font-family="Times New Roman,serif" font-size="14.00">2,8</text>
</g>
<!-- 2&#45;&gt;2,8 -->
<g id="edge3" class="edge">
<title>2&#45;&gt;2,8</title>
<path fill="none" stroke="black" d="M169.82,-192.42C180.22,-196.35 194.02,-201.56 206.31,-206.2"/>
<polygon fill="black" stroke="black" points="205.15,-209.5 215.74,-209.76 207.62,-202.95 205.15,-209.5"/>
<text text-anchor="middle" x="192.6" y="-206.1" font-family="Times New Roman,serif" font-size="14.00">b</text>
</g>
<!-- 2,3 -->
<g id="node5" class="node">
<title>2,3</title>
<ellipse fill="none" stroke="black" cx="236.7" cy="-155.3" rx="22.2" ry="22.2"/>
<text text-anchor="middle" x="236.7" y="-151.6" font-family="Times New Roman,serif" font-size="14.00">2,3</text>
</g>
<!-- 2&#45;&gt;2,3 -->
<g id="edge4" class="edge">
<title>2&#45;&gt;2,3</title>
<path fill="none" stroke="black" d="M169.82,-180.17C180.22,-176.25 194.02,-171.03 206.31,-166.39"/>
<polygon fill="black" stroke="black" points="207.62,-169.64 215.74,-162.83 205.15,-163.09 207.62,-169.64"/>
<text text-anchor="middle" x="192.6" y="-177.1" font-family="Times New Roman,serif" font-size="14.00">a</text>
</g>
<!-- 2,8,9 -->
<g id="node6" class="node">
<title>2,8,9</title>
<ellipse fill="none" stroke="black" cx="453.39" cy="-149.3" rx="28.7" ry="28.7"/>
<text text-anchor="middle" x="453.39" y="-145.6" font-family="Times New Roman,serif" font-size="14.00">2,8,9</text>
</g>
<!-- 2,8&#45;&gt;2,8,9 -->
<g id="edge5" class="edge">
<title>2,8&#45;&gt;2,8,9</title>
<path fill="none" stroke="black" d="M258.34,-212.04C284.35,-205.3 330.34,-192.94 369.09,-180.3 384.82,-175.16 401.99,-168.89 416.63,-163.33"/>
<polygon fill="black" stroke="black" points="418.23,-166.47 426.32,-159.62 415.73,-159.93 418.23,-166.47"/>
<text text-anchor="middle" x="335.94" y="-204.1" font-family="Times New Roman,serif" font-size="14.00">b</text>
</g>
<!-- 10,2,3 -->
<g id="node7" class="node">
<title>10,2,3</title>
<ellipse fill="none" stroke="black" cx="335.94" cy="-278.3" rx="33.29" ry="33.29"/>
<text text-anchor="middle" x="335.94" y="-274.6" font-family="Times New Roman,serif" font-size="14.00">10,2,3</text>
</g>
<!-- 2,8&#45;&gt;10,2,3 -->
<g id="edge6" class="edge">
<title>2,8&#45;&gt;10,2,3</title>
<path fill="none" stroke="black" d="M255.99,-228.77C268.02,-236.32 284.17,-246.45 298.73,-255.58"/>
<polygon fill="black" stroke="black" points="297.21,-258.76 307.54,-261.11 300.93,-252.83 297.21,-258.76"/>
<text text-anchor="middle" x="280.8" y="-249.1" font-family="Times New Roman,serif" font-size="14.00">a</text>
</g>
<!-- 2,5,8 -->
<g id="node8" class="node">
<title>2,5,8</title>
<ellipse fill="none" stroke="black" cx="335.94" cy="-96.3" rx="28.7" ry="28.7"/>
<text text-anchor="middle" x="335.94" y="-92.6" font-family="Times New Roman,serif" font-size="14.00">2,5,8</text>
</g>
<!-- 2,3&#45;&gt;2,5,8 -->
<g id="edge7" class="edge">
<title>2,3&#45;&gt;2,5,8</title>
<path fill="none" stroke="black" d="M255.99,-144.2C269.05,-136.27 286.97,-125.4 302.44,-116.01"/>
<polygon fill="black" stroke="black" points="304.48,-118.87 311.21,-110.69 300.85,-112.89 304.48,-118.87"/>
<text text-anchor="middle" x="280.8" y="-135.1" font-family="Times New Roman,serif" font-size="14.00">b</text>
</g>
<!-- 2,3,4 -->
<g id="node9" class="node">
<title>2,3,4</title>
<ellipse fill="none" stroke="black" cx="453.39" cy="-224.3" rx="28.7" ry="28.7"/>
<text text-anchor="middle" x="453.39" y="-220.6" font-family="Times New Roman,serif" font-size="14.00">2,3,4</text>
</g>
<!-- 2,3&#45;&gt;2,3,4 -->
<g id="edge8" class="edge">
<title>2,3&#45;&gt;2,3,4</title>
<path fill="none" stroke="black" d="M258.92,-152.5C285.54,-149.83 332.15,-147.95 369.09,-161.3 380.88,-165.55 404.23,-183.59 423.21,-199.27"/>
<polygon fill="black" stroke="black" points="421.12,-202.08 431.04,-205.81 425.6,-196.71 421.12,-202.08"/>
<text text-anchor="middle" x="335.94" y="-165.1" font-family="Times New Roman,serif" font-size="14.00">a</text>
</g>
<!-- 13,2,8,9 -->
<g id="node10" class="node">
<title>13,2,8,9</title>
<ellipse fill="none" stroke="black" cx="577.98" cy="-40.3" rx="40.09" ry="40.09"/>
<text text-anchor="middle" x="577.98" y="-36.6" font-family="Times New Roman,serif" font-size="14.00">13,2,8,9</text>
</g>
<!-- 2,8,9&#45;&gt;13,2,8,9 -->
<g id="edge9" class="edge">
<title>2,8,9&#45;&gt;13,2,8,9</title>
<path fill="none" stroke="black" d="M475.46,-130.56C493.02,-114.95 518.47,-92.32 539.49,-73.63"/>
<polygon fill="black" stroke="black" points="541.86,-76.2 547.01,-66.94 537.21,-70.97 541.86,-76.2"/>
<text text-anchor="middle" x="515.68" y="-102.1" font-family="Times New Roman,serif" font-size="14.00">b</text>
</g>
<!-- 10,13,2,3 -->
<g id="node11" class="node">
<title>10,13,2,3</title>
<ellipse fill="none" stroke="black" cx="705.47" cy="-95.3" rx="44.39" ry="44.39"/>
<text text-anchor="middle" x="705.47" y="-91.6" font-family="Times New Roman,serif" font-size="14.00">10,13,2,3</text>
</g>
<!-- 2,8,9&#45;&gt;10,13,2,3 -->
<g id="edge10" class="edge">
<title>2,8,9&#45;&gt;10,13,2,3</title>
<path fill="none" stroke="black" d="M481.88,-145.97C514.63,-141.72 570.86,-133.57 618.28,-122.3 629.72,-119.58 641.86,-116.13 653.31,-112.62"/>
<polygon fill="black" stroke="black" points="654.65,-115.86 663.15,-109.53 652.56,-109.18 654.65,-115.86"/>
<text text-anchor="middle" x="577.98" y="-142.1" font-family="Times New Roman,serif" font-size="14.00">a</text>
</g>
<!-- 10,2,3&#45;&gt;2,3,4 -->
<g id="edge12" class="edge">
<title>10,2,3&#45;&gt;2,3,4</title>
<path fill="none" stroke="black" d="M366.37,-264.53C382.01,-257.22 401.32,-248.18 417.69,-240.53"/>
<polygon fill="black" stroke="black" points="419.36,-243.61 426.93,-236.2 416.39,-237.27 419.36,-243.61"/>
<text text-anchor="middle" x="391.09" y="-258.1" font-family="Times New Roman,serif" font-size="14.00">a</text>
</g>
<!-- 11,2,5,8 -->
<g id="node12" class="node">
<title>11,2,5,8</title>
<ellipse fill="none" stroke="black" cx="453.39" cy="-311.3" rx="40.09" ry="40.09"/>
<text text-anchor="middle" x="453.39" y="-307.6" font-family="Times New Roman,serif" font-size="14.00">11,2,5,8</text>
</g>
<!-- 10,2,3&#45;&gt;11,2,5,8 -->
<g id="edge11" class="edge">
<title>10,2,3&#45;&gt;11,2,5,8</title>
<path fill="none" stroke="black" d="M368.18,-287.23C379.46,-290.45 392.46,-294.17 404.81,-297.7"/>
<polygon fill="black" stroke="black" points="403.96,-301.09 414.54,-300.48 405.89,-294.36 403.96,-301.09"/>
<text text-anchor="middle" x="391.09" y="-298.1" font-family="Times New Roman,serif" font-size="14.00">b</text>
</g>
<!-- 2,5,8&#45;&gt;2,8,9 -->
<g id="edge13" class="edge">
<title>2,5,8&#45;&gt;2,8,9</title>
<path fill="none" stroke="black" d="M362.28,-107.93C378.52,-115.38 399.82,-125.16 417.63,-133.34"/>
<polygon fill="black" stroke="black" points="416.56,-136.7 427.11,-137.69 419.48,-130.34 416.56,-136.7"/>
<text text-anchor="middle" x="391.09" y="-127.1" font-family="Times New Roman,serif" font-size="14.00">b</text>
</g>
<!-- 10,2,3,6 -->
<g id="node13" class="node">
<title>10,2,3,6</title>
<ellipse fill="none" stroke="black" cx="453.39" cy="-62.3" rx="40.09" ry="40.09"/>
<text text-anchor="middle" x="453.39" y="-58.6" font-family="Times New Roman,serif" font-size="14.00">10,2,3,6</text>
</g>
<!-- 2,5,8&#45;&gt;10,2,3,6 -->
<g id="edge14" class="edge">
<title>2,5,8&#45;&gt;10,2,3,6</title>
<path fill="none" stroke="black" d="M363.72,-88.41C375.83,-84.84 390.53,-80.52 404.44,-76.42"/>
<polygon fill="black" stroke="black" points="405.78,-79.67 414.39,-73.49 403.8,-72.96 405.78,-79.67"/>
<text text-anchor="middle" x="391.09" y="-86.1" font-family="Times New Roman,serif" font-size="14.00">a</text>
</g>
<!-- 13,2,5,8 -->
<g id="node14" class="node">
<title>13,2,5,8</title>
<ellipse fill="none" stroke="black" cx="577.98" cy="-322.3" rx="40.09" ry="40.09"/>
<text text-anchor="middle" x="577.98" y="-318.6" font-family="Times New Roman,serif" font-size="14.00">13,2,5,8</text>
</g>
<!-- 2,3,4&#45;&gt;13,2,5,8 -->
<g id="edge15" class="edge">
<title>2,3,4&#45;&gt;13,2,5,8</title>
<path fill="none" stroke="black" d="M476.3,-241.82C493.45,-255.52 517.72,-274.93 538.14,-291.25"/>
<polygon fill="black" stroke="black" points="536.05,-294.05 546.04,-297.56 540.42,-288.59 536.05,-294.05"/>
<text text-anchor="middle" x="515.68" y="-279.1" font-family="Times New Roman,serif" font-size="14.00">b</text>
</g>
<!-- 13,2,3,4 -->
<g id="node15" class="node">
<title>13,2,3,4</title>
<ellipse fill="none" stroke="black" cx="577.98" cy="-223.3" rx="40.09" ry="40.09"/>
<text text-anchor="middle" x="577.98" y="-219.6" font-family="Times New Roman,serif" font-size="14.00">13,2,3,4</text>
</g>
<!-- 2,3,4&#45;&gt;13,2,3,4 -->
<g id="edge16" class="edge">
<title>2,3,4&#45;&gt;13,2,3,4</title>
<path fill="none" stroke="black" d="M482.2,-224.07C495.52,-223.96 511.88,-223.83 527.23,-223.7"/>
<polygon fill="black" stroke="black" points="527.68,-227.2 537.65,-223.62 527.62,-220.2 527.68,-227.2"/>
<text text-anchor="middle" x="515.68" y="-228.1" font-family="Times New Roman,serif" font-size="14.00">a</text>
</g>
<!-- 13,2,8,9&#45;&gt;13,2,8,9 -->
<g id="edge17" class="edge">
<title>13,2,8,9&#45;&gt;13,2,8,9</title>
<path fill="none" stroke="black" d="M566.79,-79.25C567.28,-90.2 571.01,-98.59 577.98,-98.59 582.56,-98.59 585.74,-94.98 587.52,-89.4"/>
<polygon fill="black" stroke="black" points="591.02,-89.69 589.17,-79.25 584.11,-88.56 591.02,-89.69"/>
<text text-anchor="middle" x="577.98" y="-102.39" font-family="Times New Roman,serif" font-size="14.00">b</text>
</g>
<!-- 13,2,8,9&#45;&gt;10,13,2,3 -->
<g id="edge18" class="edge">
<title>13,2,8,9&#45;&gt;10,13,2,3</title>
<path fill="none" stroke="black" d="M615.28,-56.2C627.74,-61.67 641.91,-67.88 655.23,-73.72"/>
<polygon fill="black" stroke="black" points="654.18,-77.07 664.74,-77.88 656.99,-70.66 654.18,-77.07"/>
<text text-anchor="middle" x="639.78" y="-72.1" font-family="Times New Roman,serif" font-size="14.00">a</text>
</g>
</g>
</svg>
