<?xml version="1.0" encoding="UTF-8" standalone="no"?>
<!DOCTYPE svg PUBLIC "-//W3C//DTD SVG 1.1//EN"
 "http://www.w3.org/Graphics/SVG/1.1/DTD/svg11.dtd">
<!-- Generated by graphviz version 3.0.0 (20220226.1711)
 -->
<!-- Title: NFA to DFA Pages: 1 -->
<svg width="1584pt" height="603pt"
 viewBox="0.00 0.00 1583.71 603.43" xmlns="http://www.w3.org/2000/svg" xmlns:xlink="http://www.w3.org/1999/xlink">
<g id="graph0" class="graph" transform="scale(1 1) rotate(0) translate(4 599.43)">
<title>NFA to DFA</title>
<polygon fill="white" stroke="transparent" points="-4,4 -4,-599.43 1579.71,-599.43 1579.71,4 -4,4"/>
<!-- 0 -->
<g id="node1" class="node">
<title>0</title>
<ellipse fill="black" stroke="black" cx="1.8" cy="-313.43" rx="1.8" ry="1.8"/>
</g>
<!-- 1 -->
<g id="node2" class="node">
<title>1</title>
<ellipse fill="none" stroke="black" cx="58.6" cy="-313.43" rx="18" ry="18"/>
<text text-anchor="middle" x="58.6" y="-309.73" font-family="Times New Roman,serif" font-size="14.00">1</text>
</g>
<!-- 0&#45;&gt;1 -->
<g id="edge1" class="edge">
<title>0&#45;&gt;1</title>
<path fill="none" stroke="black" d="M3.75,-313.43C7.11,-313.43 18.87,-313.43 30.55,-313.43"/>
<polygon fill="black" stroke="black" points="30.58,-316.93 40.58,-313.43 30.58,-309.93 30.58,-316.93"/>
</g>
<!-- 2 -->
<g id="node3" class="node">
<title>2</title>
<ellipse fill="none" stroke="black" cx="152.6" cy="-313.43" rx="18" ry="18"/>
<text text-anchor="middle" x="152.6" y="-309.73" font-family="Times New Roman,serif" font-size="14.00">2</text>
</g>
<!-- 1&#45;&gt;2 -->
<g id="edge2" class="edge">
<title>1&#45;&gt;2</title>
<path fill="none" stroke="black" d="M76.9,-313.43C90.14,-313.43 108.65,-313.43 123.94,-313.43"/>
<polygon fill="black" stroke="black" points="124.37,-316.93 134.37,-313.43 124.37,-309.93 124.37,-316.93"/>
<text text-anchor="middle" x="105.6" y="-317.23" font-family="Times New Roman,serif" font-size="14.00">b, a</text>
</g>
<!-- 2,8 -->
<g id="node4" class="node">
<title>2,8</title>
<ellipse fill="none" stroke="black" cx="236.7" cy="-273.43" rx="22.2" ry="22.2"/>
<text text-anchor="middle" x="236.7" y="-269.73" font-family="Times New Roman,serif" font-size="14.00">2,8</text>
</g>
<!-- 2&#45;&gt;2,8 -->
<g id="edge3" class="edge">
<title>2&#45;&gt;2,8</title>
<path fill="none" stroke="black" d="M169.04,-305.91C179.78,-300.68 194.4,-293.55 207.21,-287.31"/>
<polygon fill="black" stroke="black" points="209.11,-290.28 216.57,-282.75 206.05,-283.99 209.11,-290.28"/>
<text text-anchor="middle" x="192.6" y="-299.23" font-family="Times New Roman,serif" font-size="14.00">b</text>
</g>
<!-- 2,3 -->
<g id="node5" class="node">
<title>2,3</title>
<ellipse fill="none" stroke="black" cx="236.7" cy="-389.43" rx="22.2" ry="22.2"/>
<text text-anchor="middle" x="236.7" y="-385.73" font-family="Times New Roman,serif" font-size="14.00">2,3</text>
</g>
<!-- 2&#45;&gt;2,3 -->
<g id="edge4" class="edge">
<title>2&#45;&gt;2,3</title>
<path fill="none" stroke="black" d="M166.43,-325.31C178.72,-336.68 197.55,-354.11 212.47,-367.93"/>
<polygon fill="black" stroke="black" points="210.15,-370.55 219.87,-374.78 214.91,-365.42 210.15,-370.55"/>
<text text-anchor="middle" x="192.6" y="-355.23" font-family="Times New Roman,serif" font-size="14.00">a</text>
</g>
<!-- 2,8,9 -->
<g id="node6" class="node">
<title>2,8,9</title>
<ellipse fill="none" stroke="black" cx="589.03" cy="-187.43" rx="28.7" ry="28.7"/>
<text text-anchor="middle" x="589.03" y="-183.73" font-family="Times New Roman,serif" font-size="14.00">2,8,9</text>
</g>
<!-- 2,8&#45;&gt;2,8,9 -->
<g id="edge5" class="edge">
<title>2,8&#45;&gt;2,8,9</title>
<path fill="none" stroke="black" d="M255,-260.68C267.75,-251.68 285.77,-239.79 302.8,-231.43 349.47,-208.52 361.98,-201.96 413.09,-192.43 459.65,-183.76 514.37,-183.79 550.05,-185.15"/>
<polygon fill="black" stroke="black" points="550.34,-188.66 560.48,-185.6 550.64,-181.67 550.34,-188.66"/>
<text text-anchor="middle" x="391.09" y="-201.23" font-family="Times New Roman,serif" font-size="14.00">b</text>
</g>
<!-- 10,2,3 -->
<g id="node7" class="node">
<title>10,2,3</title>
<ellipse fill="none" stroke="black" cx="335.94" cy="-273.43" rx="33.29" ry="33.29"/>
<text text-anchor="middle" x="335.94" y="-269.73" font-family="Times New Roman,serif" font-size="14.00">10,2,3</text>
</g>
<!-- 2,8&#45;&gt;10,2,3 -->
<g id="edge6" class="edge">
<title>2,8&#45;&gt;10,2,3</title>
<path fill="none" stroke="black" d="M258.8,-273.43C268.74,-273.43 280.96,-273.43 292.68,-273.43"/>
<polygon fill="black" stroke="black" points="292.78,-276.93 302.78,-273.43 292.78,-269.93 292.78,-276.93"/>
<text text-anchor="middle" x="280.8" y="-277.23" font-family="Times New Roman,serif" font-size="14.00">a</text>
</g>
<!-- 2,5,8 -->
<g id="node8" class="node">
<title>2,5,8</title>
<ellipse fill="none" stroke="black" cx="335.94" cy="-389.43" rx="28.7" ry="28.7"/>
<text text-anchor="middle" x="335.94" y="-385.73" font-family="Times New Roman,serif" font-size="14.00">2,5,8</text>
</g>
<!-- 2,3&#45;&gt;2,5,8 -->
<g id="edge7" class="edge">
<title>2,3&#45;&gt;2,5,8</title>
<path fill="none" stroke="black" d="M258.8,-389.43C269.99,-389.43 284.09,-389.43 297.11,-389.43"/>
<polygon fill="black" stroke="black" points="297.23,-392.93 307.23,-389.43 297.23,-385.93 297.23,-392.93"/>
<text text-anchor="middle" x="280.8" y="-393.23" font-family="Times New Roman,serif" font-size="14.00">b</text>
</g>
<!-- 2,3,4 -->
<g id="node9" class="node">
<title>2,3,4</title>
<ellipse fill="none" stroke="black" cx="589.03" cy="-509.43" rx="28.7" ry="28.7"/>
<text text-anchor="middle" x="589.03" y="-505.73" font-family="Times New Roman,serif" font-size="14.00">2,3,4</text>
</g>
<!-- 2,3&#45;&gt;2,3,4 -->
<g id="edge8" class="edge">
<title>2,3&#45;&gt;2,3,4</title>
<path fill="none" stroke="black" d="M254.95,-402.71C285.12,-425.14 350.25,-470.05 413.09,-490.43 458.72,-505.23 514.18,-509.02 550.25,-509.74"/>
<polygon fill="black" stroke="black" points="550.29,-513.24 560.33,-509.87 550.38,-506.24 550.29,-513.24"/>
<text text-anchor="middle" x="391.09" y="-486.23" font-family="Times New Roman,serif" font-size="14.00">a</text>
</g>
<!-- 13,2,8,9 -->
<g id="node10" class="node">
<title>13,2,8,9</title>
<ellipse fill="none" stroke="black" cx="753.92" cy="-210.43" rx="40.09" ry="40.09"/>
<text text-anchor="middle" x="753.92" y="-206.73" font-family="Times New Roman,serif" font-size="14.00">13,2,8,9</text>
</g>
<!-- 2,8,9&#45;&gt;13,2,8,9 -->
<g id="edge9" class="edge">
<title>2,8,9&#45;&gt;13,2,8,9</title>
<path fill="none" stroke="black" d="M617.7,-186.23C632.25,-185.99 650.34,-186.32 666.37,-188.43 679.11,-190.11 692.66,-193.01 705.18,-196.16"/>
<polygon fill="black" stroke="black" points="704.39,-199.57 714.95,-198.72 706.17,-192.8 704.39,-199.57"/>
<text text-anchor="middle" x="662.37" y="-192.23" font-family="Times New Roman,serif" font-size="14.00">b</text>
</g>
<!-- 10,13,2,3 -->
<g id="node11" class="node">
<title>10,13,2,3</title>
<ellipse fill="none" stroke="black" cx="910.66" cy="-210.43" rx="44.39" ry="44.39"/>
<text text-anchor="middle" x="910.66" y="-206.73" font-family="Times New Roman,serif" font-size="14.00">10,13,2,3</text>
</g>
<!-- 2,8,9&#45;&gt;10,13,2,3 -->
<g id="edge10" class="edge">
<title>2,8,9&#45;&gt;10,13,2,3</title>
<path fill="none" stroke="black" d="M596.88,-159.84C608.01,-121.72 634.01,-54.38 684.37,-25.43 737.97,5.38 773.6,11.1 823.46,-25.43 874.6,-62.9 835.27,-106.24 866.46,-161.43 868.38,-164.83 870.57,-168.21 872.92,-171.5"/>
<polygon fill="black" stroke="black" points="870.16,-173.66 879.02,-179.48 875.73,-169.41 870.16,-173.66"/>
<text text-anchor="middle" x="753.92" y="-29.23" font-family="Times New Roman,serif" font-size="14.00">a</text>
</g>
<!-- 10,2,3&#45;&gt;2,3,4 -->
<g id="edge12" class="edge">
<title>10,2,3&#45;&gt;2,3,4</title>
<path fill="none" stroke="black" d="M358.23,-298.4C372.48,-313.89 392.37,-333.28 413.09,-346.43 445.49,-367 465.66,-351.21 493.68,-377.43 527.66,-409.22 508.23,-436.41 537.68,-472.43 542.8,-478.69 549.21,-484.44 555.71,-489.45"/>
<polygon fill="black" stroke="black" points="553.77,-492.36 563.93,-495.38 557.87,-486.69 553.77,-492.36"/>
<text text-anchor="middle" x="453.39" y="-381.23" font-family="Times New Roman,serif" font-size="14.00">a</text>
</g>
<!-- 11,2,5,8 -->
<g id="node12" class="node">
<title>11,2,5,8</title>
<ellipse fill="none" stroke="black" cx="453.39" cy="-241.43" rx="40.09" ry="40.09"/>
<text text-anchor="middle" x="453.39" y="-237.73" font-family="Times New Roman,serif" font-size="14.00">11,2,5,8</text>
</g>
<!-- 10,2,3&#45;&gt;11,2,5,8 -->
<g id="edge11" class="edge">
<title>10,2,3&#45;&gt;11,2,5,8</title>
<path fill="none" stroke="black" d="M368.18,-264.77C379.35,-261.68 392.21,-258.11 404.47,-254.71"/>
<polygon fill="black" stroke="black" points="405.42,-258.08 414.12,-252.04 403.55,-251.34 405.42,-258.08"/>
<text text-anchor="middle" x="391.09" y="-262.23" font-family="Times New Roman,serif" font-size="14.00">b</text>
</g>
<!-- 2,5,8&#45;&gt;2,8,9 -->
<g id="edge13" class="edge">
<title>2,5,8&#45;&gt;2,8,9</title>
<path fill="none" stroke="black" d="M358.51,-371.33C373.36,-359.3 393.81,-343.54 413.09,-331.43 447.12,-310.06 461.93,-315.07 493.68,-290.43 517.07,-272.29 517.71,-262.28 537.68,-240.43 545.2,-232.21 553.48,-223.4 561.11,-215.37"/>
<polygon fill="black" stroke="black" points="564.11,-217.3 568.48,-207.65 559.04,-212.47 564.11,-217.3"/>
<text text-anchor="middle" x="453.39" y="-335.23" font-family="Times New Roman,serif" font-size="14.00">b</text>
</g>
<!-- 10,2,3,6 -->
<g id="node13" class="node">
<title>10,2,3,6</title>
<ellipse fill="none" stroke="black" cx="453.39" cy="-441.43" rx="40.09" ry="40.09"/>
<text text-anchor="middle" x="453.39" y="-437.73" font-family="Times New Roman,serif" font-size="14.00">10,2,3,6</text>
</g>
<!-- 2,5,8&#45;&gt;10,2,3,6 -->
<g id="edge14" class="edge">
<title>2,5,8&#45;&gt;10,2,3,6</title>
<path fill="none" stroke="black" d="M362.28,-400.84C375.36,-406.74 391.72,-414.11 406.9,-420.94"/>
<polygon fill="black" stroke="black" points="405.61,-424.2 416.16,-425.11 408.48,-417.82 405.61,-424.2"/>
<text text-anchor="middle" x="391.09" y="-419.23" font-family="Times New Roman,serif" font-size="14.00">a</text>
</g>
<!-- 13,2,5,8 -->
<g id="node14" class="node">
<title>13,2,5,8</title>
<ellipse fill="none" stroke="black" cx="1207.94" cy="-533.43" rx="40.09" ry="40.09"/>
<text text-anchor="middle" x="1207.94" y="-529.73" font-family="Times New Roman,serif" font-size="14.00">13,2,5,8</text>
</g>
<!-- 2,3,4&#45;&gt;13,2,5,8 -->
<g id="edge15" class="edge">
<title>2,3,4&#45;&gt;13,2,5,8</title>
<path fill="none" stroke="black" d="M612.42,-526.26C642.64,-547.25 698.93,-580.43 752.92,-580.43 752.92,-580.43 752.92,-580.43 1051.2,-580.43 1089.68,-580.43 1131.32,-567.12 1161.85,-554.66"/>
<polygon fill="black" stroke="black" points="1163.49,-557.77 1171.35,-550.67 1160.78,-551.31 1163.49,-557.77"/>
<text text-anchor="middle" x="910.66" y="-584.23" font-family="Times New Roman,serif" font-size="14.00">b</text>
</g>
<!-- 13,2,3,4 -->
<g id="node15" class="node">
<title>13,2,3,4</title>
<ellipse fill="none" stroke="black" cx="1050.2" cy="-441.43" rx="40.09" ry="40.09"/>
<text text-anchor="middle" x="1050.2" y="-437.73" font-family="Times New Roman,serif" font-size="14.00">13,2,3,4</text>
</g>
<!-- 2,3,4&#45;&gt;13,2,3,4 -->
<g id="edge16" class="edge">
<title>2,3,4&#45;&gt;13,2,3,4</title>
<path fill="none" stroke="black" d="M618.04,-511.06C679.92,-513.91 832.5,-516.81 954.85,-485.43 972.11,-481.01 990.06,-473.47 1005.61,-465.87"/>
<polygon fill="black" stroke="black" points="1007.6,-468.78 1014.96,-461.16 1004.45,-462.53 1007.6,-468.78"/>
<text text-anchor="middle" x="844.96" y="-508.23" font-family="Times New Roman,serif" font-size="14.00">a</text>
</g>
<!-- 13,2,8,9&#45;&gt;13,2,8,9 -->
<g id="edge17" class="edge">
<title>13,2,8,9&#45;&gt;13,2,8,9</title>
<path fill="none" stroke="black" d="M737.04,-247.15C737.13,-259.16 742.76,-268.73 753.92,-268.73 761.59,-268.73 766.65,-264.21 769.09,-257.48"/>
<polygon fill="black" stroke="black" points="772.62,-257.59 770.79,-247.15 765.71,-256.45 772.62,-257.59"/>
<text text-anchor="middle" x="753.92" y="-272.53" font-family="Times New Roman,serif" font-size="14.00">b</text>
</g>
<!-- 13,2,8,9&#45;&gt;10,13,2,3 -->
<g id="edge18" class="edge">
<title>13,2,8,9&#45;&gt;10,13,2,3</title>
<path fill="none" stroke="black" d="M794.37,-210.43C813.13,-210.43 835.85,-210.43 856.15,-210.43"/>
<polygon fill="black" stroke="black" points="856.2,-213.93 866.2,-210.43 856.2,-206.93 856.2,-213.93"/>
<text text-anchor="middle" x="844.96" y="-214.23" font-family="Times New Roman,serif" font-size="14.00">a</text>
</g>
<!-- 10,13,2,3&#45;&gt;13,2,3,4 -->
<g id="edge20" class="edge">
<title>10,13,2,3&#45;&gt;13,2,3,4</title>
<path fill="none" stroke="black" d="M934.06,-248.06C958.58,-289.24 997.82,-355.13 1023.55,-398.35"/>
<polygon fill="black" stroke="black" points="1020.7,-400.41 1028.82,-407.21 1026.72,-396.83 1020.7,-400.41"/>
<text text-anchor="middle" x="976.85" y="-329.23" font-family="Times New Roman,serif" font-size="14.00">a</text>
</g>
<!-- 11,13,2,5,8 -->
<g id="node16" class="node">
<title>11,13,2,5,8</title>
<ellipse fill="none" stroke="black" cx="1050.2" cy="-210.43" rx="51.19" ry="51.19"/>
<text text-anchor="middle" x="1050.2" y="-206.73" font-family="Times New Roman,serif" font-size="14.00">11,13,2,5,8</text>
</g>
<!-- 10,13,2,3&#45;&gt;11,13,2,5,8 -->
<g id="edge19" class="edge">
<title>10,13,2,3&#45;&gt;11,13,2,5,8</title>
<path fill="none" stroke="black" d="M955.18,-210.43C965.78,-210.43 977.32,-210.43 988.56,-210.43"/>
<polygon fill="black" stroke="black" points="988.76,-213.93 998.76,-210.43 988.76,-206.93 988.76,-213.93"/>
<text text-anchor="middle" x="976.85" y="-214.23" font-family="Times New Roman,serif" font-size="14.00">b</text>
</g>
<!-- 11,2,5,8&#45;&gt;2,8,9 -->
<g id="edge21" class="edge">
<title>11,2,5,8&#45;&gt;2,8,9</title>
<path fill="none" stroke="black" d="M490.9,-226.68C510.12,-218.91 533.58,-209.43 552.63,-201.74"/>
<polygon fill="black" stroke="black" points="554.18,-204.88 562.14,-197.89 551.56,-198.39 554.18,-204.88"/>
<text text-anchor="middle" x="515.68" y="-221.23" font-family="Times New Roman,serif" font-size="14.00">b</text>
</g>
<!-- 10,12,2,3,6 -->
<g id="node17" class="node">
<title>10,12,2,3,6</title>
<ellipse fill="none" stroke="black" cx="589.03" cy="-300.43" rx="51.19" ry="51.19"/>
<text text-anchor="middle" x="589.03" y="-296.73" font-family="Times New Roman,serif" font-size="14.00">10,12,2,3,6</text>
</g>
<!-- 11,2,5,8&#45;&gt;10,12,2,3,6 -->
<g id="edge22" class="edge">
<title>11,2,5,8&#45;&gt;10,12,2,3,6</title>
<path fill="none" stroke="black" d="M490.55,-257.4C503.49,-263.11 518.38,-269.68 532.57,-275.95"/>
<polygon fill="black" stroke="black" points="531.2,-279.17 541.76,-280.01 534.03,-272.77 531.2,-279.17"/>
<text text-anchor="middle" x="515.68" y="-272.23" font-family="Times New Roman,serif" font-size="14.00">a</text>
</g>
<!-- 10,2,3,6&#45;&gt;2,3,4 -->
<g id="edge24" class="edge">
<title>10,2,3,6&#45;&gt;2,3,4</title>
<path fill="none" stroke="black" d="M489.85,-459.48C509.74,-469.6 534.43,-482.16 554.07,-492.16"/>
<polygon fill="black" stroke="black" points="552.49,-495.28 562.99,-496.69 555.66,-489.04 552.49,-495.28"/>
<text text-anchor="middle" x="515.68" y="-476.23" font-family="Times New Roman,serif" font-size="14.00">a</text>
</g>
<!-- 11,2,5,7,8 -->
<g id="node18" class="node">
<title>11,2,5,7,8</title>
<ellipse fill="none" stroke="black" cx="589.03" cy="-416.43" rx="46.59" ry="46.59"/>
<text text-anchor="middle" x="589.03" y="-412.73" font-family="Times New Roman,serif" font-size="14.00">11,2,5,7,8</text>
</g>
<!-- 10,2,3,6&#45;&gt;11,2,5,7,8 -->
<g id="edge23" class="edge">
<title>10,2,3,6&#45;&gt;11,2,5,7,8</title>
<path fill="none" stroke="black" d="M491.69,-428.46C498.29,-426.52 505.14,-424.74 511.68,-423.43 518.26,-422.11 525.2,-421.04 532.12,-420.17"/>
<polygon fill="black" stroke="black" points="532.64,-423.64 542.18,-419.04 531.85,-416.68 532.64,-423.64"/>
<text text-anchor="middle" x="515.68" y="-427.23" font-family="Times New Roman,serif" font-size="14.00">b</text>
</g>
<!-- 13,2,5,8&#45;&gt;13,2,8,9 -->
<g id="edge25" class="edge">
<title>13,2,5,8&#45;&gt;13,2,8,9</title>
<path fill="none" stroke="black" d="M1168.38,-542.06C1123.96,-549.76 1050.48,-555.47 998.85,-523.43 964.7,-502.24 977.8,-477.43 954.85,-444.43 902.95,-369.78 831.71,-290.99 789.77,-246.54"/>
<polygon fill="black" stroke="black" points="792.22,-244.03 782.8,-239.18 787.14,-248.84 792.22,-244.03"/>
<text text-anchor="middle" x="976.85" y="-510.23" font-family="Times New Roman,serif" font-size="14.00">b</text>
</g>
<!-- 10,13,2,3,6 -->
<g id="node19" class="node">
<title>10,13,2,3,6</title>
<ellipse fill="none" stroke="black" cx="1364.68" cy="-466.43" rx="51.19" ry="51.19"/>
<text text-anchor="middle" x="1364.68" y="-462.73" font-family="Times New Roman,serif" font-size="14.00">10,13,2,3,6</text>
</g>
<!-- 13,2,5,8&#45;&gt;10,13,2,3,6 -->
<g id="edge26" class="edge">
<title>13,2,5,8&#45;&gt;10,13,2,3,6</title>
<path fill="none" stroke="black" d="M1245.22,-517.72C1263.89,-509.64 1287.05,-499.61 1307.93,-490.57"/>
<polygon fill="black" stroke="black" points="1309.56,-493.68 1317.34,-486.49 1306.78,-487.26 1309.56,-493.68"/>
<text text-anchor="middle" x="1291.83" y="-501.23" font-family="Times New Roman,serif" font-size="14.00">a</text>
</g>
<!-- 13,2,3,4&#45;&gt;13,2,5,8 -->
<g id="edge27" class="edge">
<title>13,2,3,4&#45;&gt;13,2,5,8</title>
<path fill="none" stroke="black" d="M1085.38,-461.62C1108.5,-475.28 1139.23,-493.44 1164.01,-508.07"/>
<polygon fill="black" stroke="black" points="1162.45,-511.22 1172.84,-513.29 1166.01,-505.19 1162.45,-511.22"/>
<text text-anchor="middle" x="1123.54" y="-488.23" font-family="Times New Roman,serif" font-size="14.00">b</text>
</g>
<!-- 13,2,3,4&#45;&gt;13,2,3,4 -->
<g id="edge28" class="edge">
<title>13,2,3,4&#45;&gt;13,2,3,4</title>
<path fill="none" stroke="black" d="M1036.73,-479.56C1037.13,-490.9 1041.62,-499.73 1050.2,-499.73 1055.96,-499.73 1059.88,-495.74 1061.95,-489.69"/>
<polygon fill="black" stroke="black" points="1065.45,-490 1063.67,-479.56 1058.55,-488.83 1065.45,-490"/>
<text text-anchor="middle" x="1050.2" y="-503.53" font-family="Times New Roman,serif" font-size="14.00">a</text>
</g>
<!-- 11,13,2,5,8&#45;&gt;13,2,8,9 -->
<g id="edge29" class="edge">
<title>11,13,2,5,8&#45;&gt;13,2,8,9</title>
<path fill="none" stroke="black" d="M1012.32,-175.6C996.01,-162.52 975.8,-149.19 954.85,-142.43 917.47,-130.36 904.28,-131.81 866.46,-142.43 840.48,-149.73 814.55,-164.93 794.24,-179.12"/>
<polygon fill="black" stroke="black" points="791.97,-176.44 785.89,-185.11 796.06,-182.12 791.97,-176.44"/>
<text text-anchor="middle" x="910.66" y="-146.23" font-family="Times New Roman,serif" font-size="14.00">b</text>
</g>
<!-- 10,12,13,2,3,6 -->
<g id="node20" class="node">
<title>10,12,13,2,3,6</title>
<ellipse fill="none" stroke="black" cx="1207.94" cy="-352.43" rx="62.29" ry="62.29"/>
<text text-anchor="middle" x="1207.94" y="-348.73" font-family="Times New Roman,serif" font-size="14.00">10,12,13,2,3,6</text>
</g>
<!-- 11,13,2,5,8&#45;&gt;10,12,13,2,3,6 -->
<g id="edge30" class="edge">
<title>11,13,2,5,8&#45;&gt;10,12,13,2,3,6</title>
<path fill="none" stroke="black" d="M1088.9,-244.81C1108.39,-262.57 1132.5,-284.56 1153.84,-304.01"/>
<polygon fill="black" stroke="black" points="1151.51,-306.63 1161.26,-310.78 1156.23,-301.46 1151.51,-306.63"/>
<text text-anchor="middle" x="1123.54" y="-280.23" font-family="Times New Roman,serif" font-size="14.00">a</text>
</g>
<!-- 11,12,13,2,5,7,8 -->
<g id="node21" class="node">
<title>11,12,13,2,5,7,8</title>
<ellipse fill="none" stroke="black" cx="753.92" cy="-371.43" rx="69.59" ry="69.59"/>
<text text-anchor="middle" x="753.92" y="-367.73" font-family="Times New Roman,serif" font-size="14.00">11,12,13,2,5,7,8</text>
</g>
<!-- 10,12,2,3,6&#45;&gt;11,12,13,2,5,7,8 -->
<g id="edge31" class="edge">
<title>10,12,2,3,6&#45;&gt;11,12,13,2,5,7,8</title>
<path fill="none" stroke="black" d="M636.27,-320.59C650.06,-326.6 665.51,-333.33 680.55,-339.89"/>
<polygon fill="black" stroke="black" points="679.27,-343.15 689.83,-343.94 682.07,-336.73 679.27,-343.15"/>
<text text-anchor="middle" x="662.37" y="-335.23" font-family="Times New Roman,serif" font-size="14.00">b</text>
</g>
<!-- 12,13,2,3,4 -->
<g id="node22" class="node">
<title>12,13,2,3,4</title>
<ellipse fill="none" stroke="black" cx="753.92" cy="-100.43" rx="51.19" ry="51.19"/>
<text text-anchor="middle" x="753.92" y="-96.73" font-family="Times New Roman,serif" font-size="14.00">12,13,2,3,4</text>
</g>
<!-- 10,12,2,3,6&#45;&gt;12,13,2,3,4 -->
<g id="edge32" class="edge">
<title>10,12,2,3,6&#45;&gt;12,13,2,3,4</title>
<path fill="none" stroke="black" d="M623.69,-262.48C637.97,-245.22 654.12,-224.07 666.37,-203.43 676.74,-185.97 672.5,-177.91 684.37,-161.43 690.31,-153.19 697.54,-145.27 705.05,-138.03"/>
<polygon fill="black" stroke="black" points="707.66,-140.38 712.62,-131.02 702.9,-135.24 707.66,-140.38"/>
<text text-anchor="middle" x="662.37" y="-218.23" font-family="Times New Roman,serif" font-size="14.00">a</text>
</g>
<!-- 11,2,5,7,8&#45;&gt;13,2,8,9 -->
<g id="edge33" class="edge">
<title>11,2,5,7,8&#45;&gt;13,2,8,9</title>
<path fill="none" stroke="black" d="M622.84,-384C629.2,-376.65 635.42,-368.59 640.37,-360.43 652.2,-340.95 646.4,-331.82 658.37,-312.43 674.05,-287.04 696.63,-262.39 715.79,-243.69"/>
<polygon fill="black" stroke="black" points="718.42,-246.01 723.21,-236.56 713.57,-240.96 718.42,-246.01"/>
<text text-anchor="middle" x="662.37" y="-316.23" font-family="Times New Roman,serif" font-size="14.00">b</text>
</g>
<!-- 11,2,5,7,8&#45;&gt;10,12,13,2,3,6 -->
<g id="edge34" class="edge">
<title>11,2,5,7,8&#45;&gt;10,12,13,2,3,6</title>
<path fill="none" stroke="black" d="M632.38,-435.22C648.35,-441.36 666.88,-447.38 684.37,-450.43 745.27,-461.07 762.57,-461.1 823.46,-450.43 893,-438.25 904.74,-415.01 972.85,-396.43 1026.75,-381.73 1088.94,-370.29 1135.67,-362.77"/>
<polygon fill="black" stroke="black" points="1136.38,-366.2 1145.7,-361.17 1135.28,-359.29 1136.38,-366.2"/>
<text text-anchor="middle" x="910.66" y="-442.23" font-family="Times New Roman,serif" font-size="14.00">a</text>
</g>
<!-- 10,13,2,3,6&#45;&gt;13,2,3,4 -->
<g id="edge36" class="edge">
<title>10,13,2,3,6&#45;&gt;13,2,3,4</title>
<path fill="none" stroke="black" d="M1313.49,-462.42C1254.92,-457.73 1158.7,-450.03 1100.51,-445.38"/>
<polygon fill="black" stroke="black" points="1100.71,-441.88 1090.46,-444.57 1100.15,-448.86 1100.71,-441.88"/>
<text text-anchor="middle" x="1207.94" y="-462.23" font-family="Times New Roman,serif" font-size="14.00">a</text>
</g>
<!-- 11,13,2,5,7,8 -->
<g id="node23" class="node">
<title>11,13,2,5,7,8</title>
<ellipse fill="none" stroke="black" cx="1517.87" cy="-466.43" rx="57.69" ry="57.69"/>
<text text-anchor="middle" x="1517.87" y="-462.73" font-family="Times New Roman,serif" font-size="14.00">11,13,2,5,7,8</text>
</g>
<!-- 10,13,2,3,6&#45;&gt;11,13,2,5,7,8 -->
<g id="edge35" class="edge">
<title>10,13,2,3,6&#45;&gt;11,13,2,5,7,8</title>
<path fill="none" stroke="black" d="M1416.44,-466.43C1427.15,-466.43 1438.6,-466.43 1449.8,-466.43"/>
<polygon fill="black" stroke="black" points="1449.99,-469.93 1459.99,-466.43 1449.99,-462.93 1449.99,-469.93"/>
<text text-anchor="middle" x="1438.02" y="-470.23" font-family="Times New Roman,serif" font-size="14.00">b</text>
</g>
</g>
</svg>
