<?xml version="1.0" encoding="UTF-8" standalone="no"?>
<!DOCTYPE svg PUBLIC "-//W3C//DTD SVG 1.1//EN"
 "http://www.w3.org/Graphics/SVG/1.1/DTD/svg11.dtd">
<!-- Generated by graphviz version 3.0.0 (20220226.1711)
 -->
<!-- Title: NFA to DFA Pages: 1 -->
<svg width="1050pt" height="434pt"
 viewBox="0.00 0.00 1050.05 433.64" xmlns="http://www.w3.org/2000/svg" xmlns:xlink="http://www.w3.org/1999/xlink">
<g id="graph0" class="graph" transform="scale(1 1) rotate(0) translate(4 429.64)">
<title>NFA to DFA</title>
<polygon fill="white" stroke="transparent" points="-4,4 -4,-429.64 1046.05,-429.64 1046.05,4 -4,4"/>
<!-- 0 -->
<g id="node1" class="node">
<title>0</title>
<ellipse fill="black" stroke="black" cx="1.8" cy="-211.3" rx="1.8" ry="1.8"/>
</g>
<!-- 1 -->
<g id="node2" class="node">
<title>1</title>
<ellipse fill="none" stroke="black" cx="58.6" cy="-211.3" rx="18" ry="18"/>
<text text-anchor="middle" x="58.6" y="-207.6" font-family="Times New Roman,serif" font-size="14.00">1</text>
</g>
<!-- 0&#45;&gt;1 -->
<g id="edge1" class="edge">
<title>0&#45;&gt;1</title>
<path fill="none" stroke="black" d="M3.75,-211.3C7.11,-211.3 18.87,-211.3 30.55,-211.3"/>
<polygon fill="black" stroke="black" points="30.58,-214.8 40.58,-211.3 30.58,-207.8 30.58,-214.8"/>
</g>
<!-- 2 -->
<g id="node3" class="node">
<title>2</title>
<ellipse fill="none" stroke="black" cx="152.6" cy="-211.3" rx="18" ry="18"/>
<text text-anchor="middle" x="152.6" y="-207.6" font-family="Times New Roman,serif" font-size="14.00">2</text>
</g>
<!-- 1&#45;&gt;2 -->
<g id="edge2" class="edge">
<title>1&#45;&gt;2</title>
<path fill="none" stroke="black" d="M76.9,-211.3C90.14,-211.3 108.65,-211.3 123.94,-211.3"/>
<polygon fill="black" stroke="black" points="124.37,-214.8 134.37,-211.3 124.37,-207.8 124.37,-214.8"/>
<text text-anchor="middle" x="105.6" y="-215.1" font-family="Times New Roman,serif" font-size="14.00">b, a</text>
</g>
<!-- 2,8 -->
<g id="node4" class="node">
<title>2,8</title>
<ellipse fill="none" stroke="black" cx="236.7" cy="-266.3" rx="22.2" ry="22.2"/>
<text text-anchor="middle" x="236.7" y="-262.6" font-family="Times New Roman,serif" font-size="14.00">2,8</text>
</g>
<!-- 2&#45;&gt;2,8 -->
<g id="edge3" class="edge">
<title>2&#45;&gt;2,8</title>
<path fill="none" stroke="black" d="M167.9,-220.88C179.28,-228.5 195.52,-239.38 209.25,-248.58"/>
<polygon fill="black" stroke="black" points="207.58,-251.67 217.84,-254.33 211.48,-245.86 207.58,-251.67"/>
<text text-anchor="middle" x="192.6" y="-243.1" font-family="Times New Roman,serif" font-size="14.00">b</text>
</g>
<!-- 2,3 -->
<g id="node5" class="node">
<title>2,3</title>
<ellipse fill="none" stroke="black" cx="334.94" cy="-189.3" rx="22.2" ry="22.2"/>
<text text-anchor="middle" x="334.94" y="-185.6" font-family="Times New Roman,serif" font-size="14.00">2,3</text>
</g>
<!-- 2&#45;&gt;2,3 -->
<g id="edge4" class="edge">
<title>2&#45;&gt;2,3</title>
<path fill="none" stroke="black" d="M170.57,-209.23C200.78,-205.54 264.33,-197.79 302.66,-193.11"/>
<polygon fill="black" stroke="black" points="303.25,-196.57 312.75,-191.88 302.4,-189.62 303.25,-196.57"/>
<text text-anchor="middle" x="236.7" y="-208.1" font-family="Times New Roman,serif" font-size="14.00">a</text>
</g>
<!-- 2,8,9 -->
<g id="node6" class="node">
<title>2,8,9</title>
<ellipse fill="none" stroke="black" cx="588.03" cy="-276.3" rx="28.7" ry="28.7"/>
<text text-anchor="middle" x="588.03" y="-272.6" font-family="Times New Roman,serif" font-size="14.00">2,8,9</text>
</g>
<!-- 2,8&#45;&gt;2,8,9 -->
<g id="edge5" class="edge">
<title>2,8&#45;&gt;2,8,9</title>
<path fill="none" stroke="black" d="M254.28,-280.04C266.62,-289.52 284.28,-301.57 301.8,-308.3 388.95,-341.75 417.36,-327.93 510.68,-330.3 514.24,-330.39 515.36,-331.56 518.68,-330.3 528.69,-326.49 528.4,-321.08 536.68,-314.3 542.88,-309.22 549.64,-303.94 556.14,-298.99"/>
<polygon fill="black" stroke="black" points="558.29,-301.76 564.17,-292.94 554.08,-296.16 558.29,-301.76"/>
<text text-anchor="middle" x="390.09" y="-334.1" font-family="Times New Roman,serif" font-size="14.00">b</text>
</g>
<!-- 10,2,3 -->
<g id="node7" class="node">
<title>10,2,3</title>
<ellipse fill="none" stroke="black" cx="334.94" cy="-266.3" rx="33.29" ry="33.29"/>
<text text-anchor="middle" x="334.94" y="-262.6" font-family="Times New Roman,serif" font-size="14.00">10,2,3</text>
</g>
<!-- 2,8&#45;&gt;10,2,3 -->
<g id="edge6" class="edge">
<title>2,8&#45;&gt;10,2,3</title>
<path fill="none" stroke="black" d="M259.06,-266.3C268.64,-266.3 280.3,-266.3 291.54,-266.3"/>
<polygon fill="black" stroke="black" points="291.66,-269.8 301.66,-266.3 291.66,-262.8 291.66,-269.8"/>
<text text-anchor="middle" x="280.3" y="-270.1" font-family="Times New Roman,serif" font-size="14.00">a</text>
</g>
<!-- 2,5,8 -->
<g id="node8" class="node">
<title>2,5,8</title>
<ellipse fill="none" stroke="black" cx="452.39" cy="-189.3" rx="28.7" ry="28.7"/>
<text text-anchor="middle" x="452.39" y="-185.6" font-family="Times New Roman,serif" font-size="14.00">2,5,8</text>
</g>
<!-- 2,3&#45;&gt;2,5,8 -->
<g id="edge7" class="edge">
<title>2,3&#45;&gt;2,5,8</title>
<path fill="none" stroke="black" d="M357.12,-189.3C372.82,-189.3 394.67,-189.3 413.37,-189.3"/>
<polygon fill="black" stroke="black" points="413.38,-192.8 423.38,-189.3 413.38,-185.8 413.38,-192.8"/>
<text text-anchor="middle" x="390.09" y="-193.1" font-family="Times New Roman,serif" font-size="14.00">b</text>
</g>
<!-- 2,3,4 -->
<g id="node9" class="node">
<title>2,3,4</title>
<ellipse fill="none" stroke="black" cx="452.39" cy="-102.3" rx="28.7" ry="28.7"/>
<text text-anchor="middle" x="452.39" y="-98.6" font-family="Times New Roman,serif" font-size="14.00">2,3,4</text>
</g>
<!-- 2,3&#45;&gt;2,3,4 -->
<g id="edge8" class="edge">
<title>2,3&#45;&gt;2,3,4</title>
<path fill="none" stroke="black" d="M352.98,-176.46C370.81,-163.02 399.17,-141.65 420.88,-125.29"/>
<polygon fill="black" stroke="black" points="423.25,-127.88 429.13,-119.07 419.04,-122.29 423.25,-127.88"/>
<text text-anchor="middle" x="390.09" y="-155.1" font-family="Times New Roman,serif" font-size="14.00">a</text>
</g>
<!-- 13,2,8,9 -->
<g id="node10" class="node">
<title>13,2,8,9</title>
<ellipse fill="none" stroke="black" cx="723.67" cy="-167.3" rx="40.09" ry="40.09"/>
<text text-anchor="middle" x="723.67" y="-163.6" font-family="Times New Roman,serif" font-size="14.00">13,2,8,9</text>
</g>
<!-- 2,8,9&#45;&gt;13,2,8,9 -->
<g id="edge9" class="edge">
<title>2,8,9&#45;&gt;13,2,8,9</title>
<path fill="none" stroke="black" d="M611.8,-259.55C620.52,-253.03 630.49,-245.42 639.37,-238.3 654.5,-226.16 670.81,-212.41 684.96,-200.26"/>
<polygon fill="black" stroke="black" points="687.28,-202.88 692.57,-193.7 682.71,-197.58 687.28,-202.88"/>
<text text-anchor="middle" x="661.37" y="-227.1" font-family="Times New Roman,serif" font-size="14.00">b</text>
</g>
<!-- 10,13,2,3 -->
<g id="node11" class="node">
<title>10,13,2,3</title>
<ellipse fill="none" stroke="black" cx="851.16" cy="-167.3" rx="44.39" ry="44.39"/>
<text text-anchor="middle" x="851.16" y="-163.6" font-family="Times New Roman,serif" font-size="14.00">10,13,2,3</text>
</g>
<!-- 2,8,9&#45;&gt;10,13,2,3 -->
<g id="edge10" class="edge">
<title>2,8,9&#45;&gt;10,13,2,3</title>
<path fill="none" stroke="black" d="M616.91,-277.02C652.77,-276.86 716.12,-272.81 763.97,-249.3 783.56,-239.67 801.67,-224.01 816.18,-208.94"/>
<polygon fill="black" stroke="black" points="818.74,-211.32 823,-201.62 813.62,-206.55 818.74,-211.32"/>
<text text-anchor="middle" x="723.67" y="-276.1" font-family="Times New Roman,serif" font-size="14.00">a</text>
</g>
<!-- 10,2,3&#45;&gt;2,3,4 -->
<g id="edge12" class="edge">
<title>10,2,3&#45;&gt;2,3,4</title>
<path fill="none" stroke="black" d="M361.38,-245.91C372.75,-235.66 385.5,-222.43 394.09,-208.3 407.89,-185.6 399.57,-174.73 412.09,-151.3 415.85,-144.26 420.67,-137.25 425.63,-130.82"/>
<polygon fill="black" stroke="black" points="428.37,-133.01 431.93,-123.03 422.92,-128.6 428.37,-133.01"/>
<text text-anchor="middle" x="390.09" y="-224.1" font-family="Times New Roman,serif" font-size="14.00">a</text>
</g>
<!-- 11,2,5,8 -->
<g id="node12" class="node">
<title>11,2,5,8</title>
<ellipse fill="none" stroke="black" cx="452.39" cy="-276.3" rx="40.09" ry="40.09"/>
<text text-anchor="middle" x="452.39" y="-272.6" font-family="Times New Roman,serif" font-size="14.00">11,2,5,8</text>
</g>
<!-- 10,2,3&#45;&gt;11,2,5,8 -->
<g id="edge11" class="edge">
<title>10,2,3&#45;&gt;11,2,5,8</title>
<path fill="none" stroke="black" d="M368.1,-269.08C378.52,-269.98 390.33,-271.01 401.72,-271.99"/>
<polygon fill="black" stroke="black" points="401.74,-275.51 412.01,-272.89 402.34,-268.54 401.74,-275.51"/>
<text text-anchor="middle" x="390.09" y="-275.1" font-family="Times New Roman,serif" font-size="14.00">b</text>
</g>
<!-- 2,5,8&#45;&gt;2,8,9 -->
<g id="edge13" class="edge">
<title>2,5,8&#45;&gt;2,8,9</title>
<path fill="none" stroke="black" d="M476.67,-204.45C498.38,-218.59 530.96,-239.79 555.09,-255.51"/>
<polygon fill="black" stroke="black" points="553.28,-258.5 563.57,-261.02 557.1,-252.63 553.28,-258.5"/>
<text text-anchor="middle" x="514.68" y="-234.1" font-family="Times New Roman,serif" font-size="14.00">b</text>
</g>
<!-- 10,2,3,6 -->
<g id="node13" class="node">
<title>10,2,3,6</title>
<ellipse fill="none" stroke="black" cx="588.03" cy="-189.3" rx="40.09" ry="40.09"/>
<text text-anchor="middle" x="588.03" y="-185.6" font-family="Times New Roman,serif" font-size="14.00">10,2,3,6</text>
</g>
<!-- 2,5,8&#45;&gt;10,2,3,6 -->
<g id="edge14" class="edge">
<title>2,5,8&#45;&gt;10,2,3,6</title>
<path fill="none" stroke="black" d="M481.08,-189.3C497.41,-189.3 518.55,-189.3 537.66,-189.3"/>
<polygon fill="black" stroke="black" points="537.72,-192.8 547.72,-189.3 537.72,-185.8 537.72,-192.8"/>
<text text-anchor="middle" x="514.68" y="-193.1" font-family="Times New Roman,serif" font-size="14.00">a</text>
</g>
<!-- 13,2,5,8 -->
<g id="node14" class="node">
<title>13,2,5,8</title>
<ellipse fill="none" stroke="black" cx="588.03" cy="-90.3" rx="40.09" ry="40.09"/>
<text text-anchor="middle" x="588.03" y="-86.6" font-family="Times New Roman,serif" font-size="14.00">13,2,5,8</text>
</g>
<!-- 2,3,4&#45;&gt;13,2,5,8 -->
<g id="edge15" class="edge">
<title>2,3,4&#45;&gt;13,2,5,8</title>
<path fill="none" stroke="black" d="M481.08,-99.81C497.41,-98.34 518.55,-96.44 537.66,-94.73"/>
<polygon fill="black" stroke="black" points="538.07,-98.21 547.72,-93.83 537.44,-91.23 538.07,-98.21"/>
<text text-anchor="middle" x="514.68" y="-101.1" font-family="Times New Roman,serif" font-size="14.00">b</text>
</g>
<!-- 13,2,3,4 -->
<g id="node15" class="node">
<title>13,2,3,4</title>
<ellipse fill="none" stroke="black" cx="990.7" cy="-40.3" rx="40.09" ry="40.09"/>
<text text-anchor="middle" x="990.7" y="-36.6" font-family="Times New Roman,serif" font-size="14.00">13,2,3,4</text>
</g>
<!-- 2,3,4&#45;&gt;13,2,3,4 -->
<g id="edge16" class="edge">
<title>2,3,4&#45;&gt;13,2,3,4</title>
<path fill="none" stroke="black" d="M472.51,-81.69C496.69,-57.99 540.79,-22.3 587.03,-22.3 587.03,-22.3 587.03,-22.3 852.16,-22.3 881.82,-22.3 914.77,-26.46 940.99,-30.79"/>
<polygon fill="black" stroke="black" points="940.6,-34.27 951.05,-32.51 941.78,-27.37 940.6,-34.27"/>
<text text-anchor="middle" x="723.67" y="-26.1" font-family="Times New Roman,serif" font-size="14.00">a</text>
</g>
<!-- 13,2,8,9&#45;&gt;13,2,8,9 -->
<g id="edge17" class="edge">
<title>13,2,8,9&#45;&gt;13,2,8,9</title>
<path fill="none" stroke="black" d="M712.48,-206.25C712.97,-217.2 716.7,-225.59 723.67,-225.59 728.25,-225.59 731.43,-221.98 733.21,-216.4"/>
<polygon fill="black" stroke="black" points="736.71,-216.69 734.86,-206.25 729.8,-215.56 736.71,-216.69"/>
<text text-anchor="middle" x="723.67" y="-229.39" font-family="Times New Roman,serif" font-size="14.00">b</text>
</g>
<!-- 13,2,8,9&#45;&gt;10,13,2,3 -->
<g id="edge18" class="edge">
<title>13,2,8,9&#45;&gt;10,13,2,3</title>
<path fill="none" stroke="black" d="M764.03,-167.3C774.27,-167.3 785.48,-167.3 796.33,-167.3"/>
<polygon fill="black" stroke="black" points="796.58,-170.8 806.58,-167.3 796.58,-163.8 796.58,-170.8"/>
<text text-anchor="middle" x="785.47" y="-171.1" font-family="Times New Roman,serif" font-size="14.00">a</text>
</g>
<!-- 10,13,2,3&#45;&gt;13,2,3,4 -->
<g id="edge20" class="edge">
<title>10,13,2,3&#45;&gt;13,2,3,4</title>
<path fill="none" stroke="black" d="M884.41,-137.52C904.92,-118.58 931.53,-94.01 952.87,-74.31"/>
<polygon fill="black" stroke="black" points="955.5,-76.64 960.47,-67.29 950.75,-71.5 955.5,-76.64"/>
<text text-anchor="middle" x="917.36" y="-112.1" font-family="Times New Roman,serif" font-size="14.00">a</text>
</g>
<!-- 11,13,2,5,8 -->
<g id="node16" class="node">
<title>11,13,2,5,8</title>
<ellipse fill="none" stroke="black" cx="990.7" cy="-167.3" rx="51.19" ry="51.19"/>
<text text-anchor="middle" x="990.7" y="-163.6" font-family="Times New Roman,serif" font-size="14.00">11,13,2,5,8</text>
</g>
<!-- 10,13,2,3&#45;&gt;11,13,2,5,8 -->
<g id="edge19" class="edge">
<title>10,13,2,3&#45;&gt;11,13,2,5,8</title>
<path fill="none" stroke="black" d="M895.68,-167.3C906.29,-167.3 917.82,-167.3 929.06,-167.3"/>
<polygon fill="black" stroke="black" points="929.27,-170.8 939.27,-167.3 929.27,-163.8 929.27,-170.8"/>
<text text-anchor="middle" x="917.36" y="-171.1" font-family="Times New Roman,serif" font-size="14.00">b</text>
</g>
<!-- 11,2,5,8&#45;&gt;2,8,9 -->
<g id="edge21" class="edge">
<title>11,2,5,8&#45;&gt;2,8,9</title>
<path fill="none" stroke="black" d="M492.76,-276.3C510.49,-276.3 531.33,-276.3 548.91,-276.3"/>
<polygon fill="black" stroke="black" points="549.37,-279.8 559.37,-276.3 549.37,-272.8 549.37,-279.8"/>
<text text-anchor="middle" x="514.68" y="-280.1" font-family="Times New Roman,serif" font-size="14.00">b</text>
</g>
<!-- 10,12,2,3,6 -->
<g id="node17" class="node">
<title>10,12,2,3,6</title>
<ellipse fill="none" stroke="black" cx="588.03" cy="-374.3" rx="51.19" ry="51.19"/>
<text text-anchor="middle" x="588.03" y="-370.6" font-family="Times New Roman,serif" font-size="14.00">10,12,2,3,6</text>
</g>
<!-- 11,2,5,8&#45;&gt;10,12,2,3,6 -->
<g id="edge22" class="edge">
<title>11,2,5,8&#45;&gt;10,12,2,3,6</title>
<path fill="none" stroke="black" d="M485.4,-299.77C501.06,-311.25 520.26,-325.33 537.74,-338.15"/>
<polygon fill="black" stroke="black" points="536.02,-341.23 546.16,-344.33 540.16,-335.59 536.02,-341.23"/>
<text text-anchor="middle" x="514.68" y="-326.1" font-family="Times New Roman,serif" font-size="14.00">a</text>
</g>
</g>
</svg>
