<?xml version="1.0" encoding="UTF-8" standalone="no"?>
<!DOCTYPE svg PUBLIC "-//W3C//DTD SVG 1.1//EN"
 "http://www.w3.org/Graphics/SVG/1.1/DTD/svg11.dtd">
<!-- Generated by graphviz version 3.0.0 (20220226.1711)
 -->
<!-- Title: NFA to DFA Pages: 1 -->
<svg width="377pt" height="161pt"
 viewBox="0.00 0.00 377.09 160.70" xmlns="http://www.w3.org/2000/svg" xmlns:xlink="http://www.w3.org/1999/xlink">
<g id="graph0" class="graph" transform="scale(1 1) rotate(0) translate(4 156.7)">
<title>NFA to DFA</title>
<polygon fill="white" stroke="transparent" points="-4,4 -4,-156.7 373.09,-156.7 373.09,4 -4,4"/>
<!-- 0 -->
<g id="node1" class="node">
<title>0</title>
<ellipse fill="black" stroke="black" cx="1.8" cy="-41.1" rx="1.8" ry="1.8"/>
</g>
<!-- 1 -->
<g id="node2" class="node">
<title>1</title>
<ellipse fill="none" stroke="black" cx="58.6" cy="-41.1" rx="18" ry="18"/>
<text text-anchor="middle" x="58.6" y="-37.4" font-family="Times New Roman,serif" font-size="14.00">1</text>
</g>
<!-- 0&#45;&gt;1 -->
<g id="edge1" class="edge">
<title>0&#45;&gt;1</title>
<path fill="none" stroke="black" d="M3.75,-41.1C7.11,-41.1 18.87,-41.1 30.55,-41.1"/>
<polygon fill="black" stroke="black" points="30.58,-44.6 40.58,-41.1 30.58,-37.6 30.58,-44.6"/>
</g>
<!-- 2 -->
<g id="node3" class="node">
<title>2</title>
<ellipse fill="none" stroke="black" cx="152.6" cy="-41.1" rx="18" ry="18"/>
<text text-anchor="middle" x="152.6" y="-37.4" font-family="Times New Roman,serif" font-size="14.00">2</text>
</g>
<!-- 1&#45;&gt;2 -->
<g id="edge2" class="edge">
<title>1&#45;&gt;2</title>
<path fill="none" stroke="black" d="M76.9,-41.1C90.14,-41.1 108.65,-41.1 123.94,-41.1"/>
<polygon fill="black" stroke="black" points="124.37,-44.6 134.37,-41.1 124.37,-37.6 124.37,-44.6"/>
<text text-anchor="middle" x="105.6" y="-44.9" font-family="Times New Roman,serif" font-size="14.00">b, a</text>
</g>
<!-- 2,8 -->
<g id="node4" class="node">
<title>2,8</title>
<ellipse fill="none" stroke="black" cx="236.7" cy="-84.1" rx="22.2" ry="22.2"/>
<text text-anchor="middle" x="236.7" y="-80.4" font-family="Times New Roman,serif" font-size="14.00">2,8</text>
</g>
<!-- 2&#45;&gt;2,8 -->
<g id="edge3" class="edge">
<title>2&#45;&gt;2,8</title>
<path fill="none" stroke="black" d="M169.04,-49.19C179.96,-54.9 194.89,-62.72 207.86,-69.52"/>
<polygon fill="black" stroke="black" points="206.38,-72.7 216.87,-74.23 209.63,-66.49 206.38,-72.7"/>
<text text-anchor="middle" x="192.6" y="-65.9" font-family="Times New Roman,serif" font-size="14.00">b</text>
</g>
<!-- 2,3 -->
<g id="node5" class="node">
<title>2,3</title>
<ellipse fill="none" stroke="black" cx="236.7" cy="-22.1" rx="22.2" ry="22.2"/>
<text text-anchor="middle" x="236.7" y="-18.4" font-family="Times New Roman,serif" font-size="14.00">2,3</text>
</g>
<!-- 2&#45;&gt;2,3 -->
<g id="edge4" class="edge">
<title>2&#45;&gt;2,3</title>
<path fill="none" stroke="black" d="M170.21,-37.25C180.22,-34.94 193.26,-31.92 205.07,-29.19"/>
<polygon fill="black" stroke="black" points="206.07,-32.55 215.03,-26.88 204.5,-25.73 206.07,-32.55"/>
<text text-anchor="middle" x="192.6" y="-36.9" font-family="Times New Roman,serif" font-size="14.00">a</text>
</g>
<!-- 2,8,9 -->
<g id="node6" class="node">
<title>2,8,9</title>
<ellipse fill="none" stroke="black" cx="335.94" cy="-124.1" rx="28.7" ry="28.7"/>
<text text-anchor="middle" x="335.94" y="-120.4" font-family="Times New Roman,serif" font-size="14.00">2,8,9</text>
</g>
<!-- 2,8&#45;&gt;2,8,9 -->
<g id="edge5" class="edge">
<title>2,8&#45;&gt;2,8,9</title>
<path fill="none" stroke="black" d="M257.38,-92.19C269.46,-97.16 285.3,-103.68 299.51,-109.52"/>
<polygon fill="black" stroke="black" points="298.44,-112.87 309.02,-113.43 301.1,-106.39 298.44,-112.87"/>
<text text-anchor="middle" x="280.8" y="-105.9" font-family="Times New Roman,serif" font-size="14.00">b</text>
</g>
<!-- 10,2,3 -->
<g id="node7" class="node">
<title>10,2,3</title>
<ellipse fill="none" stroke="black" cx="335.94" cy="-44.1" rx="33.29" ry="33.29"/>
<text text-anchor="middle" x="335.94" y="-40.4" font-family="Times New Roman,serif" font-size="14.00">10,2,3</text>
</g>
<!-- 2,8&#45;&gt;10,2,3 -->
<g id="edge6" class="edge">
<title>2,8&#45;&gt;10,2,3</title>
<path fill="none" stroke="black" d="M257.38,-76C268.36,-71.48 282.45,-65.69 295.6,-60.28"/>
<polygon fill="black" stroke="black" points="297.03,-63.48 304.94,-56.44 294.36,-57 297.03,-63.48"/>
<text text-anchor="middle" x="280.8" y="-70.9" font-family="Times New Roman,serif" font-size="14.00">a</text>
</g>
</g>
</svg>
