<?xml version="1.0" encoding="UTF-8" standalone="no"?>
<!DOCTYPE svg PUBLIC "-//W3C//DTD SVG 1.1//EN"
 "http://www.w3.org/Graphics/SVG/1.1/DTD/svg11.dtd">
<!-- Generated by graphviz version 3.0.0 (20220226.1711)
 -->
<!-- Title: NFA to DFA Pages: 1 -->
<svg width="1423pt" height="671pt"
 viewBox="0.00 0.00 1423.02 671.14" xmlns="http://www.w3.org/2000/svg" xmlns:xlink="http://www.w3.org/1999/xlink">
<g id="graph0" class="graph" transform="scale(1 1) rotate(0) translate(4 667.14)">
<title>NFA to DFA</title>
<polygon fill="white" stroke="transparent" points="-4,4 -4,-667.14 1419.02,-667.14 1419.02,4 -4,4"/>
<!-- 0 -->
<g id="node1" class="node">
<title>0</title>
<ellipse fill="black" stroke="black" cx="1.8" cy="-476.35" rx="1.8" ry="1.8"/>
</g>
<!-- 1 -->
<g id="node2" class="node">
<title>1</title>
<ellipse fill="none" stroke="black" cx="58.6" cy="-476.35" rx="18" ry="18"/>
<text text-anchor="middle" x="58.6" y="-472.65" font-family="Times New Roman,serif" font-size="14.00">1</text>
</g>
<!-- 0&#45;&gt;1 -->
<g id="edge1" class="edge">
<title>0&#45;&gt;1</title>
<path fill="none" stroke="black" d="M3.75,-476.35C7.11,-476.35 18.87,-476.35 30.55,-476.35"/>
<polygon fill="black" stroke="black" points="30.58,-479.85 40.58,-476.35 30.58,-472.85 30.58,-479.85"/>
</g>
<!-- 2 -->
<g id="node3" class="node">
<title>2</title>
<ellipse fill="none" stroke="black" cx="152.6" cy="-476.35" rx="18" ry="18"/>
<text text-anchor="middle" x="152.6" y="-472.65" font-family="Times New Roman,serif" font-size="14.00">2</text>
</g>
<!-- 1&#45;&gt;2 -->
<g id="edge2" class="edge">
<title>1&#45;&gt;2</title>
<path fill="none" stroke="black" d="M76.9,-476.35C90.14,-476.35 108.65,-476.35 123.94,-476.35"/>
<polygon fill="black" stroke="black" points="124.37,-479.85 134.37,-476.35 124.37,-472.85 124.37,-479.85"/>
<text text-anchor="middle" x="105.6" y="-480.15" font-family="Times New Roman,serif" font-size="14.00">b, a</text>
</g>
<!-- 2,8 -->
<g id="node4" class="node">
<title>2,8</title>
<ellipse fill="none" stroke="black" cx="236.7" cy="-404.35" rx="22.2" ry="22.2"/>
<text text-anchor="middle" x="236.7" y="-400.65" font-family="Times New Roman,serif" font-size="14.00">2,8</text>
</g>
<!-- 2&#45;&gt;2,8 -->
<g id="edge3" class="edge">
<title>2&#45;&gt;2,8</title>
<path fill="none" stroke="black" d="M166.79,-464.78C178.88,-454.18 197.06,-438.23 211.72,-425.38"/>
<polygon fill="black" stroke="black" points="214.22,-427.84 219.43,-418.61 209.61,-422.57 214.22,-427.84"/>
<text text-anchor="middle" x="192.6" y="-449.15" font-family="Times New Roman,serif" font-size="14.00">b</text>
</g>
<!-- 2,3 -->
<g id="node5" class="node">
<title>2,3</title>
<ellipse fill="none" stroke="black" cx="334.94" cy="-514.35" rx="22.2" ry="22.2"/>
<text text-anchor="middle" x="334.94" y="-510.65" font-family="Times New Roman,serif" font-size="14.00">2,3</text>
</g>
<!-- 2&#45;&gt;2,3 -->
<g id="edge4" class="edge">
<title>2&#45;&gt;2,3</title>
<path fill="none" stroke="black" d="M170.57,-479.92C200.86,-486.3 264.67,-499.75 302.96,-507.82"/>
<polygon fill="black" stroke="black" points="302.53,-511.3 313.04,-509.94 303.98,-504.45 302.53,-511.3"/>
<text text-anchor="middle" x="236.7" y="-502.15" font-family="Times New Roman,serif" font-size="14.00">a</text>
</g>
<!-- 2,8,9 -->
<g id="node6" class="node">
<title>2,8,9</title>
<ellipse fill="none" stroke="black" cx="588.03" cy="-382.35" rx="28.7" ry="28.7"/>
<text text-anchor="middle" x="588.03" y="-378.65" font-family="Times New Roman,serif" font-size="14.00">2,8,9</text>
</g>
<!-- 2,8&#45;&gt;2,8,9 -->
<g id="edge5" class="edge">
<title>2,8&#45;&gt;2,8,9</title>
<path fill="none" stroke="black" d="M254.56,-391.28C267.04,-382.13 284.75,-370.19 301.8,-362.35 387.45,-322.94 416.43,-327.73 510.68,-325.35 514.24,-325.26 515.34,-324.13 518.68,-325.35 534.77,-331.17 549.73,-342.63 561.52,-353.75"/>
<polygon fill="black" stroke="black" points="559.23,-356.4 568.8,-360.94 564.15,-351.42 559.23,-356.4"/>
<text text-anchor="middle" x="390.09" y="-337.15" font-family="Times New Roman,serif" font-size="14.00">b</text>
</g>
<!-- 10,2,3 -->
<g id="node7" class="node">
<title>10,2,3</title>
<ellipse fill="none" stroke="black" cx="334.94" cy="-404.35" rx="33.29" ry="33.29"/>
<text text-anchor="middle" x="334.94" y="-400.65" font-family="Times New Roman,serif" font-size="14.00">10,2,3</text>
</g>
<!-- 2,8&#45;&gt;10,2,3 -->
<g id="edge6" class="edge">
<title>2,8&#45;&gt;10,2,3</title>
<path fill="none" stroke="black" d="M259.06,-404.35C268.64,-404.35 280.3,-404.35 291.54,-404.35"/>
<polygon fill="black" stroke="black" points="291.66,-407.85 301.66,-404.35 291.66,-400.85 291.66,-407.85"/>
<text text-anchor="middle" x="280.3" y="-408.15" font-family="Times New Roman,serif" font-size="14.00">a</text>
</g>
<!-- 2,5,8 -->
<g id="node8" class="node">
<title>2,5,8</title>
<ellipse fill="none" stroke="black" cx="452.39" cy="-514.35" rx="28.7" ry="28.7"/>
<text text-anchor="middle" x="452.39" y="-510.65" font-family="Times New Roman,serif" font-size="14.00">2,5,8</text>
</g>
<!-- 2,3&#45;&gt;2,5,8 -->
<g id="edge7" class="edge">
<title>2,3&#45;&gt;2,5,8</title>
<path fill="none" stroke="black" d="M357.12,-514.35C372.82,-514.35 394.67,-514.35 413.37,-514.35"/>
<polygon fill="black" stroke="black" points="413.38,-517.85 423.38,-514.35 413.38,-510.85 413.38,-517.85"/>
<text text-anchor="middle" x="390.09" y="-518.15" font-family="Times New Roman,serif" font-size="14.00">b</text>
</g>
<!-- 2,3,4 -->
<g id="node9" class="node">
<title>2,3,4</title>
<ellipse fill="none" stroke="black" cx="752.92" cy="-523.35" rx="28.7" ry="28.7"/>
<text text-anchor="middle" x="752.92" y="-519.65" font-family="Times New Roman,serif" font-size="14.00">2,3,4</text>
</g>
<!-- 2,3&#45;&gt;2,3,4 -->
<g id="edge8" class="edge">
<title>2,3&#45;&gt;2,3,4</title>
<path fill="none" stroke="black" d="M354.36,-525.53C369.37,-534.16 391.41,-545.7 412.09,-552.35 516.41,-585.88 547.82,-575.08 657.37,-577.35 660.93,-577.42 662.07,-578.66 665.37,-577.35 675.6,-573.28 674.46,-566.79 683.37,-560.35 693.91,-552.73 706.19,-545.62 717.42,-539.71"/>
<polygon fill="black" stroke="black" points="719.25,-542.71 726.55,-535.04 716.06,-536.48 719.25,-542.71"/>
<text text-anchor="middle" x="514.68" y="-579.15" font-family="Times New Roman,serif" font-size="14.00">a</text>
</g>
<!-- 13,2,8,9 -->
<g id="node10" class="node">
<title>13,2,8,9</title>
<ellipse fill="none" stroke="black" cx="752.92" cy="-383.35" rx="40.09" ry="40.09"/>
<text text-anchor="middle" x="752.92" y="-379.65" font-family="Times New Roman,serif" font-size="14.00">13,2,8,9</text>
</g>
<!-- 2,8,9&#45;&gt;13,2,8,9 -->
<g id="edge9" class="edge">
<title>2,8,9&#45;&gt;13,2,8,9</title>
<path fill="none" stroke="black" d="M616.66,-382.52C640.1,-382.66 674.31,-382.87 702.46,-383.04"/>
<polygon fill="black" stroke="black" points="702.51,-386.54 712.53,-383.1 702.55,-379.54 702.51,-386.54"/>
<text text-anchor="middle" x="661.37" y="-387.15" font-family="Times New Roman,serif" font-size="14.00">b</text>
</g>
<!-- 10,13,2,3 -->
<g id="node11" class="node">
<title>10,13,2,3</title>
<ellipse fill="none" stroke="black" cx="909.66" cy="-383.35" rx="44.39" ry="44.39"/>
<text text-anchor="middle" x="909.66" y="-379.65" font-family="Times New Roman,serif" font-size="14.00">10,13,2,3</text>
</g>
<!-- 2,8,9&#45;&gt;10,13,2,3 -->
<g id="edge10" class="edge">
<title>2,8,9&#45;&gt;10,13,2,3</title>
<path fill="none" stroke="black" d="M609.62,-363.3C627.57,-348.07 655.1,-327.92 683.37,-319.35 742.53,-301.41 763.77,-299.94 822.46,-319.35 839.47,-324.97 855.86,-335.4 869.7,-346.22"/>
<polygon fill="black" stroke="black" points="867.57,-349.01 877.54,-352.61 872,-343.58 867.57,-349.01"/>
<text text-anchor="middle" x="752.92" y="-323.15" font-family="Times New Roman,serif" font-size="14.00">a</text>
</g>
<!-- 10,2,3&#45;&gt;2,3,4 -->
<g id="edge12" class="edge">
<title>10,2,3&#45;&gt;2,3,4</title>
<path fill="none" stroke="black" d="M366.39,-415.14C380.2,-419.73 396.83,-424.82 412.09,-428.35 458.76,-439.13 471.7,-435 518.68,-444.35 572.89,-455.13 587.03,-456.58 639.37,-474.35 666.27,-483.47 695.66,-496.38 717.67,-506.65"/>
<polygon fill="black" stroke="black" points="716.38,-509.91 726.92,-511.02 719.37,-503.58 716.38,-509.91"/>
<text text-anchor="middle" x="514.68" y="-448.15" font-family="Times New Roman,serif" font-size="14.00">a</text>
</g>
<!-- 11,2,5,8 -->
<g id="node12" class="node">
<title>11,2,5,8</title>
<ellipse fill="none" stroke="black" cx="452.39" cy="-379.35" rx="40.09" ry="40.09"/>
<text text-anchor="middle" x="452.39" y="-375.65" font-family="Times New Roman,serif" font-size="14.00">11,2,5,8</text>
</g>
<!-- 10,2,3&#45;&gt;11,2,5,8 -->
<g id="edge11" class="edge">
<title>10,2,3&#45;&gt;11,2,5,8</title>
<path fill="none" stroke="black" d="M367.49,-397.51C378.44,-395.14 390.99,-392.42 402.99,-389.83"/>
<polygon fill="black" stroke="black" points="403.85,-393.22 412.89,-387.68 402.37,-386.38 403.85,-393.22"/>
<text text-anchor="middle" x="390.09" y="-397.15" font-family="Times New Roman,serif" font-size="14.00">b</text>
</g>
<!-- 2,5,8&#45;&gt;2,8,9 -->
<g id="edge13" class="edge">
<title>2,5,8&#45;&gt;2,8,9</title>
<path fill="none" stroke="black" d="M476.39,-498.2C489.35,-488.67 505.52,-476.02 518.68,-463.35 534.94,-447.7 551.3,-428.45 563.94,-412.65"/>
<polygon fill="black" stroke="black" points="566.74,-414.76 570.19,-404.74 561.24,-410.42 566.74,-414.76"/>
<text text-anchor="middle" x="514.68" y="-473.15" font-family="Times New Roman,serif" font-size="14.00">b</text>
</g>
<!-- 10,2,3,6 -->
<g id="node13" class="node">
<title>10,2,3,6</title>
<ellipse fill="none" stroke="black" cx="588.03" cy="-523.35" rx="40.09" ry="40.09"/>
<text text-anchor="middle" x="588.03" y="-519.65" font-family="Times New Roman,serif" font-size="14.00">10,2,3,6</text>
</g>
<!-- 2,5,8&#45;&gt;10,2,3,6 -->
<g id="edge14" class="edge">
<title>2,5,8&#45;&gt;10,2,3,6</title>
<path fill="none" stroke="black" d="M481.08,-516.21C497.41,-517.31 518.55,-518.73 537.66,-520.02"/>
<polygon fill="black" stroke="black" points="537.5,-523.52 547.72,-520.7 537.97,-516.53 537.5,-523.52"/>
<text text-anchor="middle" x="514.68" y="-522.15" font-family="Times New Roman,serif" font-size="14.00">a</text>
</g>
<!-- 13,2,5,8 -->
<g id="node14" class="node">
<title>13,2,5,8</title>
<ellipse fill="none" stroke="black" cx="1206.94" cy="-523.35" rx="40.09" ry="40.09"/>
<text text-anchor="middle" x="1206.94" y="-519.65" font-family="Times New Roman,serif" font-size="14.00">13,2,5,8</text>
</g>
<!-- 2,3,4&#45;&gt;13,2,5,8 -->
<g id="edge15" class="edge">
<title>2,3,4&#45;&gt;13,2,5,8</title>
<path fill="none" stroke="black" d="M779.21,-534.91C822.75,-554.12 915.18,-591.82 997.85,-605.35 1042.9,-612.71 1057.38,-620.16 1100.54,-605.35 1127.33,-596.15 1152.56,-577.06 1171.61,-559.61"/>
<polygon fill="black" stroke="black" points="1174.25,-561.93 1179.12,-552.52 1169.44,-556.84 1174.25,-561.93"/>
<text text-anchor="middle" x="975.85" y="-605.15" font-family="Times New Roman,serif" font-size="14.00">b</text>
</g>
<!-- 13,2,3,4 -->
<g id="node15" class="node">
<title>13,2,3,4</title>
<ellipse fill="none" stroke="black" cx="1049.2" cy="-523.35" rx="40.09" ry="40.09"/>
<text text-anchor="middle" x="1049.2" y="-519.65" font-family="Times New Roman,serif" font-size="14.00">13,2,3,4</text>
</g>
<!-- 2,3,4&#45;&gt;13,2,3,4 -->
<g id="edge16" class="edge">
<title>2,3,4&#45;&gt;13,2,3,4</title>
<path fill="none" stroke="black" d="M781.6,-523.35C831.24,-523.35 936.01,-523.35 998.41,-523.35"/>
<polygon fill="black" stroke="black" points="998.8,-526.85 1008.8,-523.35 998.8,-519.85 998.8,-526.85"/>
<text text-anchor="middle" x="909.66" y="-527.15" font-family="Times New Roman,serif" font-size="14.00">a</text>
</g>
<!-- 13,2,8,9&#45;&gt;13,2,8,9 -->
<g id="edge17" class="edge">
<title>13,2,8,9&#45;&gt;13,2,8,9</title>
<path fill="none" stroke="black" d="M736.04,-420.06C736.13,-432.08 741.76,-441.64 752.92,-441.64 760.59,-441.64 765.65,-437.12 768.09,-430.39"/>
<polygon fill="black" stroke="black" points="771.62,-430.5 769.79,-420.06 764.71,-429.36 771.62,-430.5"/>
<text text-anchor="middle" x="752.92" y="-445.44" font-family="Times New Roman,serif" font-size="14.00">b</text>
</g>
<!-- 13,2,8,9&#45;&gt;10,13,2,3 -->
<g id="edge18" class="edge">
<title>13,2,8,9&#45;&gt;10,13,2,3</title>
<path fill="none" stroke="black" d="M793.37,-383.35C812.13,-383.35 834.85,-383.35 855.15,-383.35"/>
<polygon fill="black" stroke="black" points="855.2,-386.85 865.2,-383.35 855.2,-379.85 855.2,-386.85"/>
<text text-anchor="middle" x="843.96" y="-387.15" font-family="Times New Roman,serif" font-size="14.00">a</text>
</g>
<!-- 10,13,2,3&#45;&gt;13,2,3,4 -->
<g id="edge20" class="edge">
<title>10,13,2,3&#45;&gt;13,2,3,4</title>
<path fill="none" stroke="black" d="M950.99,-399.29C961.09,-404.43 971.43,-410.8 979.85,-418.35 998.61,-435.17 1014.39,-458.27 1026.04,-478.52"/>
<polygon fill="black" stroke="black" points="1023.01,-480.27 1030.94,-487.3 1029.12,-476.86 1023.01,-480.27"/>
<text text-anchor="middle" x="975.85" y="-422.15" font-family="Times New Roman,serif" font-size="14.00">a</text>
</g>
<!-- 11,13,2,5,8 -->
<g id="node16" class="node">
<title>11,13,2,5,8</title>
<ellipse fill="none" stroke="black" cx="1049.2" cy="-341.35" rx="51.19" ry="51.19"/>
<text text-anchor="middle" x="1049.2" y="-337.65" font-family="Times New Roman,serif" font-size="14.00">11,13,2,5,8</text>
</g>
<!-- 10,13,2,3&#45;&gt;11,13,2,5,8 -->
<g id="edge19" class="edge">
<title>10,13,2,3&#45;&gt;11,13,2,5,8</title>
<path fill="none" stroke="black" d="M952.3,-370.63C964.27,-366.97 977.55,-362.92 990.31,-359.02"/>
<polygon fill="black" stroke="black" points="991.4,-362.35 999.94,-356.08 989.36,-355.65 991.4,-362.35"/>
<text text-anchor="middle" x="975.85" y="-368.15" font-family="Times New Roman,serif" font-size="14.00">b</text>
</g>
<!-- 11,2,5,8&#45;&gt;2,8,9 -->
<g id="edge21" class="edge">
<title>11,2,5,8&#45;&gt;2,8,9</title>
<path fill="none" stroke="black" d="M492.76,-380.23C510.49,-380.63 531.33,-381.1 548.91,-381.49"/>
<polygon fill="black" stroke="black" points="549.29,-385 559.37,-381.72 549.45,-378 549.29,-385"/>
<text text-anchor="middle" x="514.68" y="-385.15" font-family="Times New Roman,serif" font-size="14.00">b</text>
</g>
<!-- 10,12,2,3,6 -->
<g id="node17" class="node">
<title>10,12,2,3,6</title>
<ellipse fill="none" stroke="black" cx="588.03" cy="-190.35" rx="51.19" ry="51.19"/>
<text text-anchor="middle" x="588.03" y="-186.65" font-family="Times New Roman,serif" font-size="14.00">10,12,2,3,6</text>
</g>
<!-- 11,2,5,8&#45;&gt;10,12,2,3,6 -->
<g id="edge22" class="edge">
<title>11,2,5,8&#45;&gt;10,12,2,3,6</title>
<path fill="none" stroke="black" d="M476.36,-346.86C497.07,-317.57 527.84,-274.06 551.68,-240.34"/>
<polygon fill="black" stroke="black" points="554.66,-242.18 557.58,-231.99 548.95,-238.14 554.66,-242.18"/>
<text text-anchor="middle" x="514.68" y="-300.15" font-family="Times New Roman,serif" font-size="14.00">a</text>
</g>
<!-- 10,2,3,6&#45;&gt;2,3,4 -->
<g id="edge24" class="edge">
<title>10,2,3,6&#45;&gt;2,3,4</title>
<path fill="none" stroke="black" d="M628.46,-523.35C654.44,-523.35 688.29,-523.35 713.97,-523.35"/>
<polygon fill="black" stroke="black" points="714.07,-526.85 724.07,-523.35 714.07,-519.85 714.07,-526.85"/>
<text text-anchor="middle" x="661.37" y="-527.15" font-family="Times New Roman,serif" font-size="14.00">a</text>
</g>
<!-- 11,2,5,7,8 -->
<g id="node18" class="node">
<title>11,2,5,7,8</title>
<ellipse fill="none" stroke="black" cx="752.92" cy="-616.35" rx="46.59" ry="46.59"/>
<text text-anchor="middle" x="752.92" y="-612.65" font-family="Times New Roman,serif" font-size="14.00">11,2,5,7,8</text>
</g>
<!-- 10,2,3,6&#45;&gt;11,2,5,7,8 -->
<g id="edge23" class="edge">
<title>10,2,3,6&#45;&gt;11,2,5,7,8</title>
<path fill="none" stroke="black" d="M623.57,-543.07C646.71,-556.28 677.52,-573.87 703.14,-588.5"/>
<polygon fill="black" stroke="black" points="701.55,-591.62 711.97,-593.54 705.02,-585.54 701.55,-591.62"/>
<text text-anchor="middle" x="661.37" y="-567.15" font-family="Times New Roman,serif" font-size="14.00">b</text>
</g>
<!-- 13,2,5,8&#45;&gt;13,2,8,9 -->
<g id="edge25" class="edge">
<title>13,2,5,8&#45;&gt;13,2,8,9</title>
<path fill="none" stroke="black" d="M1171.29,-504.28C1151.17,-493.98 1125.04,-481.86 1100.54,-474.35 999.36,-443.3 966.51,-467.82 865.46,-436.35 842.21,-429.1 817.63,-417.85 797.48,-407.58"/>
<polygon fill="black" stroke="black" points="799.04,-404.44 788.55,-402.94 795.81,-410.66 799.04,-404.44"/>
<text text-anchor="middle" x="975.85" y="-459.15" font-family="Times New Roman,serif" font-size="14.00">b</text>
</g>
<!-- 10,13,2,3,6 -->
<g id="node19" class="node">
<title>10,13,2,3,6</title>
<ellipse fill="none" stroke="black" cx="1363.68" cy="-523.35" rx="51.19" ry="51.19"/>
<text text-anchor="middle" x="1363.68" y="-519.65" font-family="Times New Roman,serif" font-size="14.00">10,13,2,3,6</text>
</g>
<!-- 13,2,5,8&#45;&gt;10,13,2,3,6 -->
<g id="edge26" class="edge">
<title>13,2,5,8&#45;&gt;10,13,2,3,6</title>
<path fill="none" stroke="black" d="M1247.39,-523.35C1264.01,-523.35 1283.73,-523.35 1302.12,-523.35"/>
<polygon fill="black" stroke="black" points="1302.18,-526.85 1312.18,-523.35 1302.18,-519.85 1302.18,-526.85"/>
<text text-anchor="middle" x="1290.83" y="-527.15" font-family="Times New Roman,serif" font-size="14.00">a</text>
</g>
<!-- 13,2,3,4&#45;&gt;13,2,5,8 -->
<g id="edge27" class="edge">
<title>13,2,3,4&#45;&gt;13,2,5,8</title>
<path fill="none" stroke="black" d="M1089.5,-523.35C1109.71,-523.35 1134.56,-523.35 1156.1,-523.35"/>
<polygon fill="black" stroke="black" points="1156.38,-526.85 1166.38,-523.35 1156.38,-519.85 1156.38,-526.85"/>
<text text-anchor="middle" x="1122.54" y="-527.15" font-family="Times New Roman,serif" font-size="14.00">b</text>
</g>
<!-- 13,2,3,4&#45;&gt;13,2,3,4 -->
<g id="edge28" class="edge">
<title>13,2,3,4&#45;&gt;13,2,3,4</title>
<path fill="none" stroke="black" d="M1035.73,-561.47C1036.13,-572.82 1040.62,-581.64 1049.2,-581.64 1054.96,-581.64 1058.88,-577.66 1060.95,-571.6"/>
<polygon fill="black" stroke="black" points="1064.45,-571.92 1062.67,-561.47 1057.55,-570.75 1064.45,-571.92"/>
<text text-anchor="middle" x="1049.2" y="-585.44" font-family="Times New Roman,serif" font-size="14.00">a</text>
</g>
<!-- 11,13,2,5,8&#45;&gt;13,2,8,9 -->
<g id="edge29" class="edge">
<title>11,13,2,5,8&#45;&gt;13,2,8,9</title>
<path fill="none" stroke="black" d="M1000.54,-323.95C963.24,-312.86 910.35,-302.74 865.46,-315.35 857.69,-317.53 824.11,-338.29 795.8,-356.3"/>
<polygon fill="black" stroke="black" points="793.76,-353.45 787.22,-361.78 797.53,-359.35 793.76,-353.45"/>
<text text-anchor="middle" x="909.66" y="-319.15" font-family="Times New Roman,serif" font-size="14.00">b</text>
</g>
<!-- 10,12,13,2,3,6 -->
<g id="node20" class="node">
<title>10,12,13,2,3,6</title>
<ellipse fill="none" stroke="black" cx="1206.94" cy="-341.35" rx="62.29" ry="62.29"/>
<text text-anchor="middle" x="1206.94" y="-337.65" font-family="Times New Roman,serif" font-size="14.00">10,12,13,2,3,6</text>
</g>
<!-- 11,13,2,5,8&#45;&gt;10,12,13,2,3,6 -->
<g id="edge30" class="edge">
<title>11,13,2,5,8&#45;&gt;10,12,13,2,3,6</title>
<path fill="none" stroke="black" d="M1100.76,-341.35C1111.44,-341.35 1122.9,-341.35 1134.19,-341.35"/>
<polygon fill="black" stroke="black" points="1134.48,-344.85 1144.48,-341.35 1134.48,-337.85 1134.48,-344.85"/>
<text text-anchor="middle" x="1122.54" y="-345.15" font-family="Times New Roman,serif" font-size="14.00">a</text>
</g>
<!-- 11,12,13,2,5,7,8 -->
<g id="node21" class="node">
<title>11,12,13,2,5,7,8</title>
<ellipse fill="none" stroke="black" cx="752.92" cy="-190.35" rx="69.59" ry="69.59"/>
<text text-anchor="middle" x="752.92" y="-186.65" font-family="Times New Roman,serif" font-size="14.00">11,12,13,2,5,7,8</text>
</g>
<!-- 10,12,2,3,6&#45;&gt;11,12,13,2,5,7,8 -->
<g id="edge31" class="edge">
<title>10,12,2,3,6&#45;&gt;11,12,13,2,5,7,8</title>
<path fill="none" stroke="black" d="M639.67,-190.35C650.37,-190.35 661.89,-190.35 673.33,-190.35"/>
<polygon fill="black" stroke="black" points="673.35,-193.85 683.35,-190.35 673.35,-186.85 673.35,-193.85"/>
<text text-anchor="middle" x="661.37" y="-194.15" font-family="Times New Roman,serif" font-size="14.00">b</text>
</g>
<!-- 12,13,2,3,4 -->
<g id="node22" class="node">
<title>12,13,2,3,4</title>
<ellipse fill="none" stroke="black" cx="752.92" cy="-51.35" rx="51.19" ry="51.19"/>
<text text-anchor="middle" x="752.92" y="-47.65" font-family="Times New Roman,serif" font-size="14.00">12,13,2,3,4</text>
</g>
<!-- 10,12,2,3,6&#45;&gt;12,13,2,3,4 -->
<g id="edge32" class="edge">
<title>10,12,2,3,6&#45;&gt;12,13,2,3,4</title>
<path fill="none" stroke="black" d="M627.63,-157.4C650.98,-137.48 680.89,-111.96 705.51,-90.94"/>
<polygon fill="black" stroke="black" points="707.98,-93.44 713.31,-84.29 703.43,-88.12 707.98,-93.44"/>
<text text-anchor="middle" x="661.37" y="-133.15" font-family="Times New Roman,serif" font-size="14.00">a</text>
</g>
</g>
</svg>
