<?xml version="1.0" encoding="UTF-8" standalone="no"?>
<!DOCTYPE svg PUBLIC "-//W3C//DTD SVG 1.1//EN"
 "http://www.w3.org/Graphics/SVG/1.1/DTD/svg11.dtd">
<!-- Generated by graphviz version 3.0.0 (20220226.1711)
 -->
<!-- Title: NFA to DFA Pages: 1 -->
<svg width="904pt" height="343pt"
 viewBox="0.00 0.00 904.36 342.59" xmlns="http://www.w3.org/2000/svg" xmlns:xlink="http://www.w3.org/1999/xlink">
<g id="graph0" class="graph" transform="scale(1 1) rotate(0) translate(4 338.59)">
<title>NFA to DFA</title>
<polygon fill="white" stroke="transparent" points="-4,4 -4,-338.59 900.36,-338.59 900.36,4 -4,4"/>
<!-- 0 -->
<g id="node1" class="node">
<title>0</title>
<ellipse fill="black" stroke="black" cx="1.8" cy="-164.3" rx="1.8" ry="1.8"/>
</g>
<!-- 1 -->
<g id="node2" class="node">
<title>1</title>
<ellipse fill="none" stroke="black" cx="58.6" cy="-164.3" rx="18" ry="18"/>
<text text-anchor="middle" x="58.6" y="-160.6" font-family="Times New Roman,serif" font-size="14.00">1</text>
</g>
<!-- 0&#45;&gt;1 -->
<g id="edge1" class="edge">
<title>0&#45;&gt;1</title>
<path fill="none" stroke="black" d="M3.75,-164.3C7.11,-164.3 18.87,-164.3 30.55,-164.3"/>
<polygon fill="black" stroke="black" points="30.58,-167.8 40.58,-164.3 30.58,-160.8 30.58,-167.8"/>
</g>
<!-- 2 -->
<g id="node3" class="node">
<title>2</title>
<ellipse fill="none" stroke="black" cx="152.6" cy="-164.3" rx="18" ry="18"/>
<text text-anchor="middle" x="152.6" y="-160.6" font-family="Times New Roman,serif" font-size="14.00">2</text>
</g>
<!-- 1&#45;&gt;2 -->
<g id="edge2" class="edge">
<title>1&#45;&gt;2</title>
<path fill="none" stroke="black" d="M76.9,-164.3C90.14,-164.3 108.65,-164.3 123.94,-164.3"/>
<polygon fill="black" stroke="black" points="124.37,-167.8 134.37,-164.3 124.37,-160.8 124.37,-167.8"/>
<text text-anchor="middle" x="105.6" y="-168.1" font-family="Times New Roman,serif" font-size="14.00">b, a</text>
</g>
<!-- 2,8 -->
<g id="node4" class="node">
<title>2,8</title>
<ellipse fill="none" stroke="black" cx="236.7" cy="-133.3" rx="22.2" ry="22.2"/>
<text text-anchor="middle" x="236.7" y="-129.6" font-family="Times New Roman,serif" font-size="14.00">2,8</text>
</g>
<!-- 2&#45;&gt;2,8 -->
<g id="edge3" class="edge">
<title>2&#45;&gt;2,8</title>
<path fill="none" stroke="black" d="M169.82,-158.17C180.22,-154.25 194.02,-149.03 206.31,-144.39"/>
<polygon fill="black" stroke="black" points="207.62,-147.64 215.74,-140.83 205.15,-141.09 207.62,-147.64"/>
<text text-anchor="middle" x="192.6" y="-155.1" font-family="Times New Roman,serif" font-size="14.00">b</text>
</g>
<!-- 2,3 -->
<g id="node5" class="node">
<title>2,3</title>
<ellipse fill="none" stroke="black" cx="236.7" cy="-195.3" rx="22.2" ry="22.2"/>
<text text-anchor="middle" x="236.7" y="-191.6" font-family="Times New Roman,serif" font-size="14.00">2,3</text>
</g>
<!-- 2&#45;&gt;2,3 -->
<g id="edge4" class="edge">
<title>2&#45;&gt;2,3</title>
<path fill="none" stroke="black" d="M169.82,-170.42C180.22,-174.35 194.02,-179.56 206.31,-184.2"/>
<polygon fill="black" stroke="black" points="205.15,-187.5 215.74,-187.76 207.62,-180.95 205.15,-187.5"/>
<text text-anchor="middle" x="192.6" y="-184.1" font-family="Times New Roman,serif" font-size="14.00">a</text>
</g>
<!-- 2,8,9 -->
<g id="node6" class="node">
<title>2,8,9</title>
<ellipse fill="none" stroke="black" cx="453.39" cy="-202.3" rx="28.7" ry="28.7"/>
<text text-anchor="middle" x="453.39" y="-198.6" font-family="Times New Roman,serif" font-size="14.00">2,8,9</text>
</g>
<!-- 2,8&#45;&gt;2,8,9 -->
<g id="edge5" class="edge">
<title>2,8&#45;&gt;2,8,9</title>
<path fill="none" stroke="black" d="M258.92,-130.5C285.54,-127.83 332.15,-125.95 369.09,-139.3 380.88,-143.55 404.23,-161.59 423.21,-177.27"/>
<polygon fill="black" stroke="black" points="421.12,-180.08 431.04,-183.81 425.6,-174.71 421.12,-180.08"/>
<text text-anchor="middle" x="335.94" y="-143.1" font-family="Times New Roman,serif" font-size="14.00">b</text>
</g>
<!-- 10,2,3 -->
<g id="node7" class="node">
<title>10,2,3</title>
<ellipse fill="none" stroke="black" cx="335.94" cy="-70.3" rx="33.29" ry="33.29"/>
<text text-anchor="middle" x="335.94" y="-66.6" font-family="Times New Roman,serif" font-size="14.00">10,2,3</text>
</g>
<!-- 2,8&#45;&gt;10,2,3 -->
<g id="edge6" class="edge">
<title>2,8&#45;&gt;10,2,3</title>
<path fill="none" stroke="black" d="M255.53,-121.74C267.73,-113.84 284.31,-103.1 299.16,-93.48"/>
<polygon fill="black" stroke="black" points="301.18,-96.34 307.66,-87.97 297.37,-90.47 301.18,-96.34"/>
<text text-anchor="middle" x="280.8" y="-112.1" font-family="Times New Roman,serif" font-size="14.00">a</text>
</g>
<!-- 2,5,8 -->
<g id="node8" class="node">
<title>2,5,8</title>
<ellipse fill="none" stroke="black" cx="335.94" cy="-252.3" rx="28.7" ry="28.7"/>
<text text-anchor="middle" x="335.94" y="-248.6" font-family="Times New Roman,serif" font-size="14.00">2,5,8</text>
</g>
<!-- 2,3&#45;&gt;2,5,8 -->
<g id="edge7" class="edge">
<title>2,3&#45;&gt;2,5,8</title>
<path fill="none" stroke="black" d="M256.45,-206.29C269.37,-213.86 286.88,-224.12 302.08,-233.04"/>
<polygon fill="black" stroke="black" points="300.32,-236.06 310.72,-238.1 303.86,-230.02 300.32,-236.06"/>
<text text-anchor="middle" x="280.8" y="-226.1" font-family="Times New Roman,serif" font-size="14.00">b</text>
</g>
<!-- 2,3,4 -->
<g id="node9" class="node">
<title>2,3,4</title>
<ellipse fill="none" stroke="black" cx="453.39" cy="-127.3" rx="28.7" ry="28.7"/>
<text text-anchor="middle" x="453.39" y="-123.6" font-family="Times New Roman,serif" font-size="14.00">2,3,4</text>
</g>
<!-- 2,3&#45;&gt;2,3,4 -->
<g id="edge8" class="edge">
<title>2,3&#45;&gt;2,3,4</title>
<path fill="none" stroke="black" d="M258.34,-190.04C284.35,-183.3 330.34,-170.94 369.09,-158.3 384.82,-153.16 401.99,-146.89 416.63,-141.33"/>
<polygon fill="black" stroke="black" points="418.23,-144.47 426.32,-137.62 415.73,-137.93 418.23,-144.47"/>
<text text-anchor="middle" x="335.94" y="-182.1" font-family="Times New Roman,serif" font-size="14.00">a</text>
</g>
<!-- 13,2,8,9 -->
<g id="node10" class="node">
<title>13,2,8,9</title>
<ellipse fill="none" stroke="black" cx="577.98" cy="-261.3" rx="40.09" ry="40.09"/>
<text text-anchor="middle" x="577.98" y="-257.6" font-family="Times New Roman,serif" font-size="14.00">13,2,8,9</text>
</g>
<!-- 2,8,9&#45;&gt;13,2,8,9 -->
<g id="edge9" class="edge">
<title>2,8,9&#45;&gt;13,2,8,9</title>
<path fill="none" stroke="black" d="M479.49,-214.38C494.64,-221.67 514.39,-231.17 532.15,-239.72"/>
<polygon fill="black" stroke="black" points="530.69,-242.9 541.22,-244.09 533.73,-236.6 530.69,-242.9"/>
<text text-anchor="middle" x="515.68" y="-237.1" font-family="Times New Roman,serif" font-size="14.00">b</text>
</g>
<!-- 10,13,2,3 -->
<g id="node11" class="node">
<title>10,13,2,3</title>
<ellipse fill="none" stroke="black" cx="705.47" cy="-230.3" rx="44.39" ry="44.39"/>
<text text-anchor="middle" x="705.47" y="-226.6" font-family="Times New Roman,serif" font-size="14.00">10,13,2,3</text>
</g>
<!-- 2,8,9&#45;&gt;10,13,2,3 -->
<g id="edge10" class="edge">
<title>2,8,9&#45;&gt;10,13,2,3</title>
<path fill="none" stroke="black" d="M481.92,-197.93C514.7,-193.53 570.97,-188.55 618.28,-197.3 630.71,-199.6 643.67,-203.61 655.64,-208.07"/>
<polygon fill="black" stroke="black" points="654.42,-211.35 665.01,-211.71 656.96,-204.83 654.42,-211.35"/>
<text text-anchor="middle" x="577.98" y="-201.1" font-family="Times New Roman,serif" font-size="14.00">a</text>
</g>
<!-- 10,2,3&#45;&gt;2,3,4 -->
<g id="edge12" class="edge">
<title>10,2,3&#45;&gt;2,3,4</title>
<path fill="none" stroke="black" d="M366.07,-84.68C381.82,-92.45 401.36,-102.1 417.87,-110.25"/>
<polygon fill="black" stroke="black" points="416.67,-113.56 427.19,-114.85 419.77,-107.29 416.67,-113.56"/>
<text text-anchor="middle" x="391.09" y="-103.1" font-family="Times New Roman,serif" font-size="14.00">a</text>
</g>
<!-- 11,2,5,8 -->
<g id="node12" class="node">
<title>11,2,5,8</title>
<ellipse fill="none" stroke="black" cx="453.39" cy="-40.3" rx="40.09" ry="40.09"/>
<text text-anchor="middle" x="453.39" y="-36.6" font-family="Times New Roman,serif" font-size="14.00">11,2,5,8</text>
</g>
<!-- 10,2,3&#45;&gt;11,2,5,8 -->
<g id="edge11" class="edge">
<title>10,2,3&#45;&gt;11,2,5,8</title>
<path fill="none" stroke="black" d="M368.18,-62.18C379.24,-59.3 391.96,-56 404.1,-52.84"/>
<polygon fill="black" stroke="black" points="405.32,-56.14 414.12,-50.24 403.56,-49.37 405.32,-56.14"/>
<text text-anchor="middle" x="391.09" y="-61.1" font-family="Times New Roman,serif" font-size="14.00">b</text>
</g>
<!-- 2,5,8&#45;&gt;2,8,9 -->
<g id="edge13" class="edge">
<title>2,5,8&#45;&gt;2,8,9</title>
<path fill="none" stroke="black" d="M362.56,-241.2C378.71,-234.21 399.76,-225.09 417.42,-217.44"/>
<polygon fill="black" stroke="black" points="419.05,-220.55 426.84,-213.36 416.27,-214.12 419.05,-220.55"/>
<text text-anchor="middle" x="391.09" y="-234.1" font-family="Times New Roman,serif" font-size="14.00">b</text>
</g>
<!-- 10,2,3,6 -->
<g id="node13" class="node">
<title>10,2,3,6</title>
<ellipse fill="none" stroke="black" cx="453.39" cy="-289.3" rx="40.09" ry="40.09"/>
<text text-anchor="middle" x="453.39" y="-285.6" font-family="Times New Roman,serif" font-size="14.00">10,2,3,6</text>
</g>
<!-- 2,5,8&#45;&gt;10,2,3,6 -->
<g id="edge14" class="edge">
<title>2,5,8&#45;&gt;10,2,3,6</title>
<path fill="none" stroke="black" d="M363.43,-260.78C375.76,-264.74 390.81,-269.56 405.01,-274.11"/>
<polygon fill="black" stroke="black" points="404.06,-277.48 414.65,-277.2 406.19,-270.82 404.06,-277.48"/>
<text text-anchor="middle" x="391.09" y="-274.1" font-family="Times New Roman,serif" font-size="14.00">a</text>
</g>
<!-- 13,2,5,8 -->
<g id="node14" class="node">
<title>13,2,5,8</title>
<ellipse fill="none" stroke="black" cx="577.98" cy="-66.3" rx="40.09" ry="40.09"/>
<text text-anchor="middle" x="577.98" y="-62.6" font-family="Times New Roman,serif" font-size="14.00">13,2,5,8</text>
</g>
<!-- 2,3,4&#45;&gt;13,2,5,8 -->
<g id="edge15" class="edge">
<title>2,3,4&#45;&gt;13,2,5,8</title>
<path fill="none" stroke="black" d="M479.2,-114.95C494.45,-107.36 514.44,-97.42 532.37,-88.49"/>
<polygon fill="black" stroke="black" points="534.13,-91.53 541.52,-83.94 531.01,-85.26 534.13,-91.53"/>
<text text-anchor="middle" x="515.68" y="-103.1" font-family="Times New Roman,serif" font-size="14.00">b</text>
</g>
<!-- 13,2,3,4 -->
<g id="node15" class="node">
<title>13,2,3,4</title>
<ellipse fill="none" stroke="black" cx="845.01" cy="-134.3" rx="40.09" ry="40.09"/>
<text text-anchor="middle" x="845.01" y="-130.6" font-family="Times New Roman,serif" font-size="14.00">13,2,3,4</text>
</g>
<!-- 2,3,4&#45;&gt;13,2,3,4 -->
<g id="edge16" class="edge">
<title>2,3,4&#45;&gt;13,2,3,4</title>
<path fill="none" stroke="black" d="M482.1,-127.79C547.37,-128.97 711.52,-131.92 794.44,-133.41"/>
<polygon fill="black" stroke="black" points="794.56,-136.91 804.62,-133.59 794.68,-129.91 794.56,-136.91"/>
<text text-anchor="middle" x="639.78" y="-135.1" font-family="Times New Roman,serif" font-size="14.00">a</text>
</g>
<!-- 13,2,8,9&#45;&gt;13,2,8,9 -->
<g id="edge17" class="edge">
<title>13,2,8,9&#45;&gt;13,2,8,9</title>
<path fill="none" stroke="black" d="M566.79,-300.25C567.28,-311.2 571.01,-319.59 577.98,-319.59 582.56,-319.59 585.74,-315.98 587.52,-310.4"/>
<polygon fill="black" stroke="black" points="591.02,-310.69 589.17,-300.25 584.11,-309.56 591.02,-310.69"/>
<text text-anchor="middle" x="577.98" y="-323.39" font-family="Times New Roman,serif" font-size="14.00">b</text>
</g>
<!-- 13,2,8,9&#45;&gt;10,13,2,3 -->
<g id="edge18" class="edge">
<title>13,2,8,9&#45;&gt;10,13,2,3</title>
<path fill="none" stroke="black" d="M617.31,-251.83C628.46,-249.07 640.83,-246.02 652.66,-243.09"/>
<polygon fill="black" stroke="black" points="653.57,-246.48 662.44,-240.68 651.89,-239.68 653.57,-246.48"/>
<text text-anchor="middle" x="639.78" y="-250.1" font-family="Times New Roman,serif" font-size="14.00">a</text>
</g>
<!-- 10,13,2,3&#45;&gt;13,2,3,4 -->
<g id="edge20" class="edge">
<title>10,13,2,3&#45;&gt;13,2,3,4</title>
<path fill="none" stroke="black" d="M742.25,-205.32C760.83,-192.35 783.63,-176.45 802.93,-162.97"/>
<polygon fill="black" stroke="black" points="805.04,-165.76 811.24,-157.17 801.04,-160.02 805.04,-165.76"/>
<text text-anchor="middle" x="771.67" y="-189.1" font-family="Times New Roman,serif" font-size="14.00">a</text>
</g>
<!-- 11,13,2,5,8 -->
<g id="node16" class="node">
<title>11,13,2,5,8</title>
<ellipse fill="none" stroke="black" cx="845.01" cy="-244.3" rx="51.19" ry="51.19"/>
<text text-anchor="middle" x="845.01" y="-240.6" font-family="Times New Roman,serif" font-size="14.00">11,13,2,5,8</text>
</g>
<!-- 10,13,2,3&#45;&gt;11,13,2,5,8 -->
<g id="edge19" class="edge">
<title>10,13,2,3&#45;&gt;11,13,2,5,8</title>
<path fill="none" stroke="black" d="M749.61,-234.69C760.46,-235.79 772.3,-237 783.81,-238.17"/>
<polygon fill="black" stroke="black" points="783.51,-241.66 793.81,-239.19 784.22,-234.69 783.51,-241.66"/>
<text text-anchor="middle" x="771.67" y="-241.1" font-family="Times New Roman,serif" font-size="14.00">b</text>
</g>
</g>
</svg>
