<?xml version="1.0" encoding="UTF-8" standalone="no"?>
<!DOCTYPE svg PUBLIC "-//W3C//DTD SVG 1.1//EN"
 "http://www.w3.org/Graphics/SVG/1.1/DTD/svg11.dtd">
<!-- Generated by graphviz version 3.0.0 (20220226.1711)
 -->
<!-- Title: NFA to DFA Pages: 1 -->
<svg width="1554pt" height="479pt"
 viewBox="0.00 0.00 1553.52 478.84" xmlns="http://www.w3.org/2000/svg" xmlns:xlink="http://www.w3.org/1999/xlink">
<g id="graph0" class="graph" transform="scale(1 1) rotate(0) translate(4 474.84)">
<title>NFA to DFA</title>
<polygon fill="white" stroke="transparent" points="-4,4 -4,-474.84 1549.52,-474.84 1549.52,4 -4,4"/>
<!-- 0 -->
<g id="node1" class="node">
<title>0</title>
<ellipse fill="black" stroke="black" cx="1.8" cy="-204.3" rx="1.8" ry="1.8"/>
</g>
<!-- 1 -->
<g id="node2" class="node">
<title>1</title>
<ellipse fill="none" stroke="black" cx="58.6" cy="-204.3" rx="18" ry="18"/>
<text text-anchor="middle" x="58.6" y="-200.6" font-family="Times New Roman,serif" font-size="14.00">1</text>
</g>
<!-- 0&#45;&gt;1 -->
<g id="edge1" class="edge">
<title>0&#45;&gt;1</title>
<path fill="none" stroke="black" d="M3.75,-204.3C7.11,-204.3 18.87,-204.3 30.55,-204.3"/>
<polygon fill="black" stroke="black" points="30.58,-207.8 40.58,-204.3 30.58,-200.8 30.58,-207.8"/>
</g>
<!-- 2 -->
<g id="node3" class="node">
<title>2</title>
<ellipse fill="none" stroke="black" cx="152.6" cy="-204.3" rx="18" ry="18"/>
<text text-anchor="middle" x="152.6" y="-200.6" font-family="Times New Roman,serif" font-size="14.00">2</text>
</g>
<!-- 1&#45;&gt;2 -->
<g id="edge2" class="edge">
<title>1&#45;&gt;2</title>
<path fill="none" stroke="black" d="M76.9,-204.3C90.14,-204.3 108.65,-204.3 123.94,-204.3"/>
<polygon fill="black" stroke="black" points="124.37,-207.8 134.37,-204.3 124.37,-200.8 124.37,-207.8"/>
<text text-anchor="middle" x="105.6" y="-208.1" font-family="Times New Roman,serif" font-size="14.00">b, a</text>
</g>
<!-- 2,8 -->
<g id="node4" class="node">
<title>2,8</title>
<ellipse fill="none" stroke="black" cx="236.7" cy="-280.3" rx="22.2" ry="22.2"/>
<text text-anchor="middle" x="236.7" y="-276.6" font-family="Times New Roman,serif" font-size="14.00">2,8</text>
</g>
<!-- 2&#45;&gt;2,8 -->
<g id="edge3" class="edge">
<title>2&#45;&gt;2,8</title>
<path fill="none" stroke="black" d="M166.43,-216.17C178.72,-227.55 197.55,-244.98 212.47,-258.8"/>
<polygon fill="black" stroke="black" points="210.15,-261.42 219.87,-265.64 214.91,-256.28 210.15,-261.42"/>
<text text-anchor="middle" x="192.6" y="-246.1" font-family="Times New Roman,serif" font-size="14.00">b</text>
</g>
<!-- 2,3 -->
<g id="node5" class="node">
<title>2,3</title>
<ellipse fill="none" stroke="black" cx="236.7" cy="-164.3" rx="22.2" ry="22.2"/>
<text text-anchor="middle" x="236.7" y="-160.6" font-family="Times New Roman,serif" font-size="14.00">2,3</text>
</g>
<!-- 2&#45;&gt;2,3 -->
<g id="edge4" class="edge">
<title>2&#45;&gt;2,3</title>
<path fill="none" stroke="black" d="M169.04,-196.77C179.78,-191.54 194.4,-184.42 207.21,-178.17"/>
<polygon fill="black" stroke="black" points="209.11,-181.14 216.57,-173.62 206.05,-174.85 209.11,-181.14"/>
<text text-anchor="middle" x="192.6" y="-191.1" font-family="Times New Roman,serif" font-size="14.00">a</text>
</g>
<!-- 2,8,9 -->
<g id="node6" class="node">
<title>2,8,9</title>
<ellipse fill="none" stroke="black" cx="584.48" cy="-342.3" rx="28.7" ry="28.7"/>
<text text-anchor="middle" x="584.48" y="-338.6" font-family="Times New Roman,serif" font-size="14.00">2,8,9</text>
</g>
<!-- 2,8&#45;&gt;2,8,9 -->
<g id="edge5" class="edge">
<title>2,8&#45;&gt;2,8,9</title>
<path fill="none" stroke="black" d="M253.47,-295.21C282.36,-321.39 346.93,-374.69 413.09,-394.3 447.43,-404.48 459.09,-403.59 493.68,-394.3 514.82,-388.62 536.12,-376.62 552.67,-365.57"/>
<polygon fill="black" stroke="black" points="555.1,-368.15 561.34,-359.58 551.12,-362.39 555.1,-368.15"/>
<text text-anchor="middle" x="391.09" y="-391.1" font-family="Times New Roman,serif" font-size="14.00">b</text>
</g>
<!-- 10,2,3 -->
<g id="node7" class="node">
<title>10,2,3</title>
<ellipse fill="none" stroke="black" cx="335.94" cy="-280.3" rx="33.29" ry="33.29"/>
<text text-anchor="middle" x="335.94" y="-276.6" font-family="Times New Roman,serif" font-size="14.00">10,2,3</text>
</g>
<!-- 2,8&#45;&gt;10,2,3 -->
<g id="edge6" class="edge">
<title>2,8&#45;&gt;10,2,3</title>
<path fill="none" stroke="black" d="M258.8,-280.3C268.74,-280.3 280.96,-280.3 292.68,-280.3"/>
<polygon fill="black" stroke="black" points="292.78,-283.8 302.78,-280.3 292.78,-276.8 292.78,-283.8"/>
<text text-anchor="middle" x="280.8" y="-284.1" font-family="Times New Roman,serif" font-size="14.00">a</text>
</g>
<!-- 2,5,8 -->
<g id="node8" class="node">
<title>2,5,8</title>
<ellipse fill="none" stroke="black" cx="335.94" cy="-164.3" rx="28.7" ry="28.7"/>
<text text-anchor="middle" x="335.94" y="-160.6" font-family="Times New Roman,serif" font-size="14.00">2,5,8</text>
</g>
<!-- 2,3&#45;&gt;2,5,8 -->
<g id="edge7" class="edge">
<title>2,3&#45;&gt;2,5,8</title>
<path fill="none" stroke="black" d="M258.8,-164.3C269.99,-164.3 284.09,-164.3 297.11,-164.3"/>
<polygon fill="black" stroke="black" points="297.23,-167.8 307.23,-164.3 297.23,-160.8 297.23,-167.8"/>
<text text-anchor="middle" x="280.8" y="-168.1" font-family="Times New Roman,serif" font-size="14.00">b</text>
</g>
<!-- 2,3,4 -->
<g id="node9" class="node">
<title>2,3,4</title>
<ellipse fill="none" stroke="black" cx="584.48" cy="-77.3" rx="28.7" ry="28.7"/>
<text text-anchor="middle" x="584.48" y="-73.6" font-family="Times New Roman,serif" font-size="14.00">2,3,4</text>
</g>
<!-- 2,3&#45;&gt;2,3,4 -->
<g id="edge8" class="edge">
<title>2,3&#45;&gt;2,3,4</title>
<path fill="none" stroke="black" d="M255.28,-152.32C268.01,-144.08 285.9,-133.38 302.8,-126.3 384.87,-91.89 490.21,-81.64 545.58,-78.59"/>
<polygon fill="black" stroke="black" points="545.83,-82.08 555.64,-78.09 545.48,-75.09 545.83,-82.08"/>
<text text-anchor="middle" x="391.09" y="-104.1" font-family="Times New Roman,serif" font-size="14.00">a</text>
</g>
<!-- 13,2,8,9 -->
<g id="node10" class="node">
<title>13,2,8,9</title>
<ellipse fill="none" stroke="black" cx="715.57" cy="-247.3" rx="40.09" ry="40.09"/>
<text text-anchor="middle" x="715.57" y="-243.6" font-family="Times New Roman,serif" font-size="14.00">13,2,8,9</text>
</g>
<!-- 2,8,9&#45;&gt;13,2,8,9 -->
<g id="edge9" class="edge">
<title>2,8,9&#45;&gt;13,2,8,9</title>
<path fill="none" stroke="black" d="M607.97,-325.75C626.28,-312.27 652.61,-292.89 674.52,-276.77"/>
<polygon fill="black" stroke="black" points="676.69,-279.52 682.67,-270.77 672.54,-273.88 676.69,-279.52"/>
<text text-anchor="middle" x="653.27" y="-299.1" font-family="Times New Roman,serif" font-size="14.00">b</text>
</g>
<!-- 10,13,2,3 -->
<g id="node11" class="node">
<title>10,13,2,3</title>
<ellipse fill="none" stroke="black" cx="843.06" cy="-316.3" rx="44.39" ry="44.39"/>
<text text-anchor="middle" x="843.06" y="-312.6" font-family="Times New Roman,serif" font-size="14.00">10,13,2,3</text>
</g>
<!-- 2,8,9&#45;&gt;10,13,2,3 -->
<g id="edge10" class="edge">
<title>2,8,9&#45;&gt;10,13,2,3</title>
<path fill="none" stroke="black" d="M613.28,-340.8C647.06,-338.85 705.75,-334.98 755.87,-329.3 766.69,-328.07 778.24,-326.5 789.25,-324.89"/>
<polygon fill="black" stroke="black" points="789.81,-328.34 799.18,-323.4 788.77,-321.42 789.81,-328.34"/>
<text text-anchor="middle" x="715.57" y="-341.1" font-family="Times New Roman,serif" font-size="14.00">a</text>
</g>
<!-- 10,2,3&#45;&gt;2,3,4 -->
<g id="edge12" class="edge">
<title>10,2,3&#45;&gt;2,3,4</title>
<path fill="none" stroke="black" d="M360.86,-258.37C375.18,-246.14 394.21,-231.39 413.09,-221.3 446.4,-203.48 462.93,-216.24 493.68,-194.3 524.26,-172.48 549.28,-137.24 565.07,-111.14"/>
<polygon fill="black" stroke="black" points="568.21,-112.71 570.27,-102.32 562.18,-109.16 568.21,-112.71"/>
<text text-anchor="middle" x="453.39" y="-225.1" font-family="Times New Roman,serif" font-size="14.00">a</text>
</g>
<!-- 11,2,5,8 -->
<g id="node12" class="node">
<title>11,2,5,8</title>
<ellipse fill="none" stroke="black" cx="453.39" cy="-345.3" rx="40.09" ry="40.09"/>
<text text-anchor="middle" x="453.39" y="-341.6" font-family="Times New Roman,serif" font-size="14.00">11,2,5,8</text>
</g>
<!-- 10,2,3&#45;&gt;11,2,5,8 -->
<g id="edge11" class="edge">
<title>10,2,3&#45;&gt;11,2,5,8</title>
<path fill="none" stroke="black" d="M365.18,-296.2C378.34,-303.6 394.29,-312.59 408.93,-320.83"/>
<polygon fill="black" stroke="black" points="407.41,-323.99 417.84,-325.85 410.85,-317.89 407.41,-323.99"/>
<text text-anchor="middle" x="391.09" y="-317.1" font-family="Times New Roman,serif" font-size="14.00">b</text>
</g>
<!-- 2,5,8&#45;&gt;2,8,9 -->
<g id="edge13" class="edge">
<title>2,5,8&#45;&gt;2,8,9</title>
<path fill="none" stroke="black" d="M355.11,-185.8C369.65,-202.12 391.17,-224.4 413.09,-240.3 445.62,-263.89 459.08,-260.85 493.68,-281.3 513.72,-293.13 535.32,-307.74 552.31,-319.7"/>
<polygon fill="black" stroke="black" points="550.56,-322.75 560.74,-325.68 554.61,-317.04 550.56,-322.75"/>
<text text-anchor="middle" x="453.39" y="-285.1" font-family="Times New Roman,serif" font-size="14.00">b</text>
</g>
<!-- 10,2,3,6 -->
<g id="node13" class="node">
<title>10,2,3,6</title>
<ellipse fill="none" stroke="black" cx="453.39" cy="-145.3" rx="40.09" ry="40.09"/>
<text text-anchor="middle" x="453.39" y="-141.6" font-family="Times New Roman,serif" font-size="14.00">10,2,3,6</text>
</g>
<!-- 2,5,8&#45;&gt;10,2,3,6 -->
<g id="edge14" class="edge">
<title>2,5,8&#45;&gt;10,2,3,6</title>
<path fill="none" stroke="black" d="M364.3,-159.79C375.99,-157.87 390,-155.56 403.38,-153.36"/>
<polygon fill="black" stroke="black" points="404.13,-156.79 413.43,-151.71 402.99,-149.88 404.13,-156.79"/>
<text text-anchor="middle" x="391.09" y="-160.1" font-family="Times New Roman,serif" font-size="14.00">a</text>
</g>
<!-- 13,2,5,8 -->
<g id="node14" class="node">
<title>13,2,5,8</title>
<ellipse fill="none" stroke="black" cx="1140.35" cy="-40.3" rx="40.09" ry="40.09"/>
<text text-anchor="middle" x="1140.35" y="-36.6" font-family="Times New Roman,serif" font-size="14.00">13,2,5,8</text>
</g>
<!-- 2,3,4&#45;&gt;13,2,5,8 -->
<g id="edge15" class="edge">
<title>2,3,4&#45;&gt;13,2,5,8</title>
<path fill="none" stroke="black" d="M605.47,-57.62C629.34,-36.3 671.46,-5.3 714.57,-5.3 714.57,-5.3 714.57,-5.3 983.61,-5.3 1020.7,-5.3 1061.59,-14.87 1092.16,-24"/>
<polygon fill="black" stroke="black" points="1091.52,-27.46 1102.11,-27.06 1093.58,-20.78 1091.52,-27.46"/>
<text text-anchor="middle" x="843.06" y="-9.1" font-family="Times New Roman,serif" font-size="14.00">b</text>
</g>
<!-- 13,2,3,4 -->
<g id="node15" class="node">
<title>13,2,3,4</title>
<ellipse fill="none" stroke="black" cx="982.61" cy="-111.3" rx="40.09" ry="40.09"/>
<text text-anchor="middle" x="982.61" y="-107.6" font-family="Times New Roman,serif" font-size="14.00">13,2,3,4</text>
</g>
<!-- 2,3,4&#45;&gt;13,2,3,4 -->
<g id="edge16" class="edge">
<title>2,3,4&#45;&gt;13,2,3,4</title>
<path fill="none" stroke="black" d="M613.02,-79.66C679.21,-85.34 847.98,-99.83 932.22,-107.06"/>
<polygon fill="black" stroke="black" points="932.04,-110.55 942.3,-107.92 932.64,-103.58 932.04,-110.55"/>
<text text-anchor="middle" x="777.37" y="-98.1" font-family="Times New Roman,serif" font-size="14.00">a</text>
</g>
<!-- 13,2,8,9&#45;&gt;13,2,8,9 -->
<g id="edge17" class="edge">
<title>13,2,8,9&#45;&gt;13,2,8,9</title>
<path fill="none" stroke="black" d="M704.38,-286.25C704.87,-297.2 708.6,-305.59 715.57,-305.59 720.15,-305.59 723.33,-301.98 725.11,-296.4"/>
<polygon fill="black" stroke="black" points="728.61,-296.69 726.77,-286.25 721.7,-295.56 728.61,-296.69"/>
<text text-anchor="middle" x="715.57" y="-309.39" font-family="Times New Roman,serif" font-size="14.00">b</text>
</g>
<!-- 13,2,8,9&#45;&gt;10,13,2,3 -->
<g id="edge18" class="edge">
<title>13,2,8,9&#45;&gt;10,13,2,3</title>
<path fill="none" stroke="black" d="M751.19,-266.33C764.77,-273.8 780.57,-282.48 795.14,-290.5"/>
<polygon fill="black" stroke="black" points="793.58,-293.63 804.03,-295.38 796.95,-287.5 793.58,-293.63"/>
<text text-anchor="middle" x="777.37" y="-286.1" font-family="Times New Roman,serif" font-size="14.00">a</text>
</g>
<!-- 10,13,2,3&#45;&gt;13,2,3,4 -->
<g id="edge20" class="edge">
<title>10,13,2,3&#45;&gt;13,2,3,4</title>
<path fill="none" stroke="black" d="M870.5,-281.62C876.13,-274.01 881.97,-265.94 887.26,-258.3 911.11,-223.83 936.7,-183.74 955.21,-154.14"/>
<polygon fill="black" stroke="black" points="958.4,-155.64 960.72,-145.3 952.46,-151.94 958.4,-155.64"/>
<text text-anchor="middle" x="909.26" y="-235.1" font-family="Times New Roman,serif" font-size="14.00">a</text>
</g>
<!-- 11,13,2,5,8 -->
<g id="node16" class="node">
<title>11,13,2,5,8</title>
<ellipse fill="none" stroke="black" cx="982.61" cy="-291.3" rx="51.19" ry="51.19"/>
<text text-anchor="middle" x="982.61" y="-287.6" font-family="Times New Roman,serif" font-size="14.00">11,13,2,5,8</text>
</g>
<!-- 10,13,2,3&#45;&gt;11,13,2,5,8 -->
<g id="edge19" class="edge">
<title>10,13,2,3&#45;&gt;11,13,2,5,8</title>
<path fill="none" stroke="black" d="M886.83,-308.52C897.81,-306.53 909.82,-304.34 921.5,-302.22"/>
<polygon fill="black" stroke="black" points="922.43,-305.61 931.64,-300.38 921.17,-298.72 922.43,-305.61"/>
<text text-anchor="middle" x="909.26" y="-309.1" font-family="Times New Roman,serif" font-size="14.00">b</text>
</g>
<!-- 11,2,5,8&#45;&gt;2,8,9 -->
<g id="edge21" class="edge">
<title>11,2,5,8&#45;&gt;2,8,9</title>
<path fill="none" stroke="black" d="M493.82,-344.38C510.24,-344 529.23,-343.56 545.5,-343.18"/>
<polygon fill="black" stroke="black" points="545.82,-346.67 555.74,-342.94 545.66,-339.67 545.82,-346.67"/>
<text text-anchor="middle" x="515.68" y="-348.1" font-family="Times New Roman,serif" font-size="14.00">b</text>
</g>
<!-- 10,12,2,3,6 -->
<g id="node17" class="node">
<title>10,12,2,3,6</title>
<ellipse fill="none" stroke="black" cx="1140.35" cy="-399.3" rx="51.19" ry="51.19"/>
<text text-anchor="middle" x="1140.35" y="-395.6" font-family="Times New Roman,serif" font-size="14.00">10,12,2,3,6</text>
</g>
<!-- 11,2,5,8&#45;&gt;10,12,2,3,6 -->
<g id="edge22" class="edge">
<title>11,2,5,8&#45;&gt;10,12,2,3,6</title>
<path fill="none" stroke="black" d="M487.33,-367.57C512.53,-382.45 548.74,-399.3 583.48,-399.3 583.48,-399.3 583.48,-399.3 983.61,-399.3 1014.91,-399.3 1049.76,-399.3 1078.53,-399.3"/>
<polygon fill="black" stroke="black" points="1078.84,-402.8 1088.84,-399.3 1078.84,-395.8 1078.84,-402.8"/>
<text text-anchor="middle" x="777.37" y="-403.1" font-family="Times New Roman,serif" font-size="14.00">a</text>
</g>
<!-- 10,2,3,6&#45;&gt;2,3,4 -->
<g id="edge24" class="edge">
<title>10,2,3,6&#45;&gt;2,3,4</title>
<path fill="none" stroke="black" d="M489.32,-126.89C508.1,-117 531.15,-104.86 549.74,-95.07"/>
<polygon fill="black" stroke="black" points="551.53,-98.08 558.74,-90.33 548.27,-91.89 551.53,-98.08"/>
<text text-anchor="middle" x="515.68" y="-118.1" font-family="Times New Roman,serif" font-size="14.00">a</text>
</g>
<!-- 11,2,5,7,8 -->
<g id="node18" class="node">
<title>11,2,5,7,8</title>
<ellipse fill="none" stroke="black" cx="584.48" cy="-242.3" rx="46.59" ry="46.59"/>
<text text-anchor="middle" x="584.48" y="-238.6" font-family="Times New Roman,serif" font-size="14.00">11,2,5,7,8</text>
</g>
<!-- 10,2,3,6&#45;&gt;11,2,5,7,8 -->
<g id="edge23" class="edge">
<title>10,2,3,6&#45;&gt;11,2,5,7,8</title>
<path fill="none" stroke="black" d="M485.97,-169.03C501.62,-180.79 520.81,-195.2 538.01,-208.13"/>
<polygon fill="black" stroke="black" points="536.17,-211.13 546.27,-214.34 540.38,-205.53 536.17,-211.13"/>
<text text-anchor="middle" x="515.68" y="-198.1" font-family="Times New Roman,serif" font-size="14.00">b</text>
</g>
<!-- 13,2,5,8&#45;&gt;13,2,8,9 -->
<g id="edge25" class="edge">
<title>13,2,5,8&#45;&gt;13,2,8,9</title>
<path fill="none" stroke="black" d="M1099.82,-38.1C1056.76,-37.15 986.63,-39.82 931.26,-62.3 854.49,-93.46 785.83,-163.67 747.82,-208.07"/>
<polygon fill="black" stroke="black" points="745.09,-205.88 741.31,-215.78 750.44,-210.4 745.09,-205.88"/>
<text text-anchor="middle" x="909.26" y="-78.1" font-family="Times New Roman,serif" font-size="14.00">b</text>
</g>
<!-- 10,13,2,3,6 -->
<g id="node19" class="node">
<title>10,13,2,3,6</title>
<ellipse fill="none" stroke="black" cx="1316.28" cy="-101.3" rx="51.19" ry="51.19"/>
<text text-anchor="middle" x="1316.28" y="-97.6" font-family="Times New Roman,serif" font-size="14.00">10,13,2,3,6</text>
</g>
<!-- 13,2,5,8&#45;&gt;10,13,2,3,6 -->
<g id="edge26" class="edge">
<title>13,2,5,8&#45;&gt;10,13,2,3,6</title>
<path fill="none" stroke="black" d="M1178.66,-53.38C1201.67,-61.45 1231.66,-71.97 1257.68,-81.09"/>
<polygon fill="black" stroke="black" points="1256.84,-84.51 1267.43,-84.52 1259.16,-77.9 1256.84,-84.51"/>
<text text-anchor="middle" x="1224.74" y="-75.1" font-family="Times New Roman,serif" font-size="14.00">a</text>
</g>
<!-- 13,2,3,4&#45;&gt;13,2,5,8 -->
<g id="edge27" class="edge">
<title>13,2,3,4&#45;&gt;13,2,5,8</title>
<path fill="none" stroke="black" d="M1019.73,-94.83C1041.94,-84.7 1070.58,-71.64 1094.27,-60.84"/>
<polygon fill="black" stroke="black" points="1095.77,-64.01 1103.42,-56.67 1092.87,-57.64 1095.77,-64.01"/>
<text text-anchor="middle" x="1055.95" y="-84.1" font-family="Times New Roman,serif" font-size="14.00">b</text>
</g>
<!-- 13,2,3,4&#45;&gt;13,2,3,4 -->
<g id="edge28" class="edge">
<title>13,2,3,4&#45;&gt;13,2,3,4</title>
<path fill="none" stroke="black" d="M969.13,-149.42C969.54,-160.77 974.03,-169.59 982.61,-169.59 988.37,-169.59 992.29,-165.61 994.36,-159.55"/>
<polygon fill="black" stroke="black" points="997.86,-159.87 996.08,-149.42 990.95,-158.7 997.86,-159.87"/>
<text text-anchor="middle" x="982.61" y="-173.39" font-family="Times New Roman,serif" font-size="14.00">a</text>
</g>
<!-- 11,13,2,5,8&#45;&gt;13,2,8,9 -->
<g id="edge29" class="edge">
<title>11,13,2,5,8&#45;&gt;13,2,8,9</title>
<path fill="none" stroke="black" d="M937.36,-266.48C921.99,-259.13 904.31,-252.05 887.26,-248.3 847.13,-239.46 800.4,-239.9 765.99,-242.16"/>
<polygon fill="black" stroke="black" points="765.44,-238.69 755.73,-242.92 765.96,-245.68 765.44,-238.69"/>
<text text-anchor="middle" x="843.06" y="-252.1" font-family="Times New Roman,serif" font-size="14.00">b</text>
</g>
<!-- 10,12,13,2,3,6 -->
<g id="node20" class="node">
<title>10,12,13,2,3,6</title>
<ellipse fill="none" stroke="black" cx="1140.35" cy="-266.3" rx="62.29" ry="62.29"/>
<text text-anchor="middle" x="1140.35" y="-262.6" font-family="Times New Roman,serif" font-size="14.00">10,12,13,2,3,6</text>
</g>
<!-- 11,13,2,5,8&#45;&gt;10,12,13,2,3,6 -->
<g id="edge30" class="edge">
<title>11,13,2,5,8&#45;&gt;10,12,13,2,3,6</title>
<path fill="none" stroke="black" d="M1033.74,-283.25C1044.81,-281.47 1056.75,-279.56 1068.47,-277.67"/>
<polygon fill="black" stroke="black" points="1069.37,-281.07 1078.68,-276.03 1068.26,-274.16 1069.37,-281.07"/>
<text text-anchor="middle" x="1055.95" y="-284.1" font-family="Times New Roman,serif" font-size="14.00">a</text>
</g>
<!-- 11,12,13,2,5,7,8 -->
<g id="node21" class="node">
<title>11,12,13,2,5,7,8</title>
<ellipse fill="none" stroke="black" cx="1316.28" cy="-401.3" rx="69.59" ry="69.59"/>
<text text-anchor="middle" x="1316.28" y="-397.6" font-family="Times New Roman,serif" font-size="14.00">11,12,13,2,5,7,8</text>
</g>
<!-- 10,12,2,3,6&#45;&gt;11,12,13,2,5,7,8 -->
<g id="edge31" class="edge">
<title>10,12,2,3,6&#45;&gt;11,12,13,2,5,7,8</title>
<path fill="none" stroke="black" d="M1192.12,-399.88C1205.97,-400.04 1221.31,-400.22 1236.33,-400.39"/>
<polygon fill="black" stroke="black" points="1236.62,-403.89 1246.66,-400.51 1236.7,-396.89 1236.62,-403.89"/>
<text text-anchor="middle" x="1224.74" y="-404.1" font-family="Times New Roman,serif" font-size="14.00">b</text>
</g>
<!-- 12,13,2,3,4 -->
<g id="node22" class="node">
<title>12,13,2,3,4</title>
<ellipse fill="none" stroke="black" cx="1316.28" cy="-262.3" rx="51.19" ry="51.19"/>
<text text-anchor="middle" x="1316.28" y="-258.6" font-family="Times New Roman,serif" font-size="14.00">12,13,2,3,4</text>
</g>
<!-- 10,12,2,3,6&#45;&gt;12,13,2,3,4 -->
<g id="edge32" class="edge">
<title>10,12,2,3,6&#45;&gt;12,13,2,3,4</title>
<path fill="none" stroke="black" d="M1182.6,-369.33C1197.29,-358.47 1213.88,-345.99 1228.74,-334.3 1241.84,-323.99 1255.82,-312.55 1268.64,-301.89"/>
<polygon fill="black" stroke="black" points="1271.02,-304.46 1276.45,-295.37 1266.53,-299.09 1271.02,-304.46"/>
<text text-anchor="middle" x="1224.74" y="-344.1" font-family="Times New Roman,serif" font-size="14.00">a</text>
</g>
<!-- 11,2,5,7,8&#45;&gt;13,2,8,9 -->
<g id="edge33" class="edge">
<title>11,2,5,7,8&#45;&gt;13,2,8,9</title>
<path fill="none" stroke="black" d="M631.36,-244.07C642.34,-244.5 654.12,-244.95 665.25,-245.39"/>
<polygon fill="black" stroke="black" points="665.13,-248.88 675.26,-245.77 665.4,-241.89 665.13,-248.88"/>
<text text-anchor="middle" x="653.27" y="-249.1" font-family="Times New Roman,serif" font-size="14.00">b</text>
</g>
<!-- 11,2,5,7,8&#45;&gt;10,12,13,2,3,6 -->
<g id="edge34" class="edge">
<title>11,2,5,7,8&#45;&gt;10,12,13,2,3,6</title>
<path fill="none" stroke="black" d="M624.7,-218.26C639.92,-210.25 657.86,-202.33 675.27,-198.3 814.57,-166 981.12,-210.01 1072,-240.83"/>
<polygon fill="black" stroke="black" points="1071.03,-244.2 1081.62,-244.15 1073.31,-237.58 1071.03,-244.2"/>
<text text-anchor="middle" x="843.06" y="-199.1" font-family="Times New Roman,serif" font-size="14.00">a</text>
</g>
<!-- 10,13,2,3,6&#45;&gt;13,2,3,4 -->
<g id="edge36" class="edge">
<title>10,13,2,3,6&#45;&gt;13,2,3,4</title>
<path fill="none" stroke="black" d="M1264.9,-102.82C1202.18,-104.71 1095.73,-107.92 1033.33,-109.8"/>
<polygon fill="black" stroke="black" points="1032.85,-106.31 1022.96,-110.11 1033.06,-113.31 1032.85,-106.31"/>
<text text-anchor="middle" x="1140.35" y="-113.1" font-family="Times New Roman,serif" font-size="14.00">a</text>
</g>
<!-- 11,13,2,5,7,8 -->
<g id="node23" class="node">
<title>11,13,2,5,7,8</title>
<ellipse fill="none" stroke="black" cx="1487.67" cy="-101.3" rx="57.69" ry="57.69"/>
<text text-anchor="middle" x="1487.67" y="-97.6" font-family="Times New Roman,serif" font-size="14.00">11,13,2,5,7,8</text>
</g>
<!-- 10,13,2,3,6&#45;&gt;11,13,2,5,7,8 -->
<g id="edge35" class="edge">
<title>10,13,2,3,6&#45;&gt;11,13,2,5,7,8</title>
<path fill="none" stroke="black" d="M1367.65,-101.3C1383.95,-101.3 1402.3,-101.3 1419.62,-101.3"/>
<polygon fill="black" stroke="black" points="1419.67,-104.8 1429.67,-101.3 1419.67,-97.8 1419.67,-104.8"/>
<text text-anchor="middle" x="1407.83" y="-105.1" font-family="Times New Roman,serif" font-size="14.00">b</text>
</g>
<!-- 10,12,13,2,3,6&#45;&gt;11,12,13,2,5,7,8 -->
<g id="edge37" class="edge">
<title>10,12,13,2,3,6&#45;&gt;11,12,13,2,5,7,8</title>
<path fill="none" stroke="black" d="M1195.23,-296.49C1206.59,-303.54 1218.3,-311.33 1228.74,-319.3 1239.1,-327.2 1249.6,-336.18 1259.54,-345.22"/>
<polygon fill="black" stroke="black" points="1257.3,-347.92 1267.02,-352.13 1262.05,-342.77 1257.3,-347.92"/>
<text text-anchor="middle" x="1224.74" y="-323.1" font-family="Times New Roman,serif" font-size="14.00">b</text>
</g>
<!-- 10,12,13,2,3,6&#45;&gt;12,13,2,3,4 -->
<g id="edge38" class="edge">
<title>10,12,13,2,3,6&#45;&gt;12,13,2,3,4</title>
<path fill="none" stroke="black" d="M1203.16,-264.87C1219.9,-264.49 1238,-264.07 1254.67,-263.69"/>
<polygon fill="black" stroke="black" points="1254.92,-267.19 1264.84,-263.46 1254.76,-260.19 1254.92,-267.19"/>
<text text-anchor="middle" x="1224.74" y="-269.1" font-family="Times New Roman,serif" font-size="14.00">a</text>
</g>
</g>
</svg>
