<?xml version="1.0" encoding="UTF-8" standalone="no"?>
<!DOCTYPE svg PUBLIC "-//W3C//DTD SVG 1.1//EN"
 "http://www.w3.org/Graphics/SVG/1.1/DTD/svg11.dtd">
<!-- Generated by graphviz version 3.0.0 (20220226.1711)
 -->
<!-- Title: Test4 Pages: 1 -->
<svg width="681pt" height="230pt"
 viewBox="0.00 0.00 681.38 230.00" xmlns="http://www.w3.org/2000/svg" xmlns:xlink="http://www.w3.org/1999/xlink">
<g id="graph0" class="graph" transform="scale(1 1) rotate(0) translate(4 226)">
<title>Test4</title>
<polygon fill="white" stroke="transparent" points="-4,4 -4,-226 677.38,-226 677.38,4 -4,4"/>
<!-- 0 -->
<g id="node1" class="node">
<title>0</title>
<ellipse fill="black" stroke="black" cx="1.8" cy="-93" rx="1.8" ry="1.8"/>
</g>
<!-- 1 -->
<g id="node2" class="node">
<title>1</title>
<ellipse fill="none" stroke="black" cx="58.6" cy="-93" rx="18" ry="18"/>
<text text-anchor="middle" x="58.6" y="-89.3" font-family="Times New Roman,serif" font-size="14.00">1</text>
</g>
<!-- 0&#45;&gt;1 -->
<g id="edge1" class="edge">
<title>0&#45;&gt;1</title>
<path fill="none" stroke="black" d="M3.75,-93C7.11,-93 18.87,-93 30.55,-93"/>
<polygon fill="black" stroke="black" points="30.58,-96.5 40.58,-93 30.58,-89.5 30.58,-96.5"/>
</g>
<!-- 2 -->
<g id="node3" class="node">
<title>2</title>
<ellipse fill="none" stroke="black" cx="152.6" cy="-93" rx="18" ry="18"/>
<text text-anchor="middle" x="152.6" y="-89.3" font-family="Times New Roman,serif" font-size="14.00">2</text>
</g>
<!-- 1&#45;&gt;2 -->
<g id="edge2" class="edge">
<title>1&#45;&gt;2</title>
<path fill="none" stroke="black" d="M76.9,-93C90.14,-93 108.65,-93 123.94,-93"/>
<polygon fill="black" stroke="black" points="124.37,-96.5 134.37,-93 124.37,-89.5 124.37,-96.5"/>
<text text-anchor="middle" x="105.6" y="-96.8" font-family="Times New Roman,serif" font-size="14.00">b, a</text>
</g>
<!-- 2&#45;&gt;2 -->
<g id="edge3" class="edge">
<title>2&#45;&gt;2</title>
<path fill="none" stroke="black" d="M145.57,-109.66C144.01,-119.62 146.35,-129 152.6,-129 156.6,-129 159,-125.15 159.8,-119.77"/>
<polygon fill="black" stroke="black" points="163.3,-119.6 159.63,-109.66 156.3,-119.72 163.3,-119.6"/>
<text text-anchor="middle" x="152.6" y="-132.8" font-family="Times New Roman,serif" font-size="14.00">b, a</text>
</g>
<!-- 8 -->
<g id="node4" class="node">
<title>8</title>
<ellipse fill="none" stroke="black" cx="232.6" cy="-122" rx="18" ry="18"/>
<text text-anchor="middle" x="232.6" y="-118.3" font-family="Times New Roman,serif" font-size="14.00">8</text>
</g>
<!-- 2&#45;&gt;8 -->
<g id="edge4" class="edge">
<title>2&#45;&gt;8</title>
<path fill="none" stroke="black" d="M169.76,-99.01C180.22,-102.9 194.06,-108.04 206,-112.48"/>
<polygon fill="black" stroke="black" points="204.87,-115.79 215.46,-116 207.31,-109.23 204.87,-115.79"/>
<text text-anchor="middle" x="192.6" y="-111.8" font-family="Times New Roman,serif" font-size="14.00">b</text>
</g>
<!-- 3 -->
<g id="node5" class="node">
<title>3</title>
<ellipse fill="none" stroke="black" cx="232.6" cy="-64" rx="18" ry="18"/>
<text text-anchor="middle" x="232.6" y="-60.3" font-family="Times New Roman,serif" font-size="14.00">3</text>
</g>
<!-- 2&#45;&gt;3 -->
<g id="edge5" class="edge">
<title>2&#45;&gt;3</title>
<path fill="none" stroke="black" d="M169.76,-86.99C180.22,-83.1 194.06,-77.96 206,-73.52"/>
<polygon fill="black" stroke="black" points="207.31,-76.77 215.46,-70 204.87,-70.21 207.31,-76.77"/>
<text text-anchor="middle" x="192.6" y="-82.8" font-family="Times New Roman,serif" font-size="14.00">a</text>
</g>
<!-- 9 -->
<g id="node11" class="node">
<title>9</title>
<ellipse fill="none" stroke="black" cx="490.99" cy="-204" rx="18" ry="18"/>
<text text-anchor="middle" x="490.99" y="-200.3" font-family="Times New Roman,serif" font-size="14.00">9</text>
</g>
<!-- 8&#45;&gt;9 -->
<g id="edge12" class="edge">
<title>8&#45;&gt;9</title>
<path fill="none" stroke="black" d="M248.66,-131.01C260.73,-137.89 278.27,-147.15 294.6,-153 353.33,-174.03 424.81,-190.46 462.95,-198.53"/>
<polygon fill="black" stroke="black" points="462.72,-202.06 473.22,-200.67 464.15,-195.21 462.72,-202.06"/>
<text text-anchor="middle" x="316.7" y="-170.8" font-family="Times New Roman,serif" font-size="14.00">b</text>
</g>
<!-- 0,1 -->
<g id="node12" class="node">
<title>0,1</title>
<ellipse fill="none" stroke="black" cx="316.7" cy="-122" rx="22.2" ry="22.2"/>
<text text-anchor="middle" x="316.7" y="-118.3" font-family="Times New Roman,serif" font-size="14.00">0,1</text>
</g>
<!-- 8&#45;&gt;0,1 -->
<g id="edge13" class="edge">
<title>8&#45;&gt;0,1</title>
<path fill="none" stroke="black" d="M250.61,-122C260.32,-122 272.8,-122 284.23,-122"/>
<polygon fill="black" stroke="black" points="284.32,-125.5 294.32,-122 284.32,-118.5 284.32,-125.5"/>
<text text-anchor="middle" x="272.6" y="-125.8" font-family="Times New Roman,serif" font-size="14.00">a</text>
</g>
<!-- 5 -->
<g id="node6" class="node">
<title>5</title>
<ellipse fill="none" stroke="black" cx="316.7" cy="-64" rx="18" ry="18"/>
<text text-anchor="middle" x="316.7" y="-60.3" font-family="Times New Roman,serif" font-size="14.00">5</text>
</g>
<!-- 3&#45;&gt;5 -->
<g id="edge6" class="edge">
<title>3&#45;&gt;5</title>
<path fill="none" stroke="black" d="M250.61,-64C261.44,-64 275.7,-64 288.12,-64"/>
<polygon fill="black" stroke="black" points="288.43,-67.5 298.43,-64 288.43,-60.5 288.43,-67.5"/>
<text text-anchor="middle" x="272.6" y="-67.8" font-family="Times New Roman,serif" font-size="14.00">b</text>
</g>
<!-- 4 -->
<g id="node7" class="node">
<title>4</title>
<ellipse fill="none" stroke="black" cx="374.8" cy="-18" rx="18" ry="18"/>
<text text-anchor="middle" x="374.8" y="-14.3" font-family="Times New Roman,serif" font-size="14.00">4</text>
</g>
<!-- 3&#45;&gt;4 -->
<g id="edge7" class="edge">
<title>3&#45;&gt;4</title>
<path fill="none" stroke="black" d="M248.61,-55C254.68,-51.59 261.84,-47.84 268.6,-45 294.29,-34.2 325.39,-26.87 347.08,-22.6"/>
<polygon fill="black" stroke="black" points="347.73,-26.04 356.91,-20.75 346.43,-19.16 347.73,-26.04"/>
<text text-anchor="middle" x="272.6" y="-48.8" font-family="Times New Roman,serif" font-size="14.00">a</text>
</g>
<!-- 6 -->
<g id="node9" class="node">
<title>6</title>
<ellipse fill="none" stroke="black" cx="432.89" cy="-64" rx="18" ry="18"/>
<text text-anchor="middle" x="432.89" y="-60.3" font-family="Times New Roman,serif" font-size="14.00">6</text>
</g>
<!-- 5&#45;&gt;6 -->
<g id="edge9" class="edge">
<title>5&#45;&gt;6</title>
<path fill="none" stroke="black" d="M335.04,-64C353.51,-64 382.99,-64 404.58,-64"/>
<polygon fill="black" stroke="black" points="404.76,-67.5 414.76,-64 404.76,-60.5 404.76,-67.5"/>
<text text-anchor="middle" x="374.8" y="-67.8" font-family="Times New Roman,serif" font-size="14.00">a</text>
</g>
<!-- 1,3 -->
<g id="node8" class="node">
<title>1,3</title>
<ellipse fill="none" stroke="black" cx="651.29" cy="-103" rx="22.2" ry="22.2"/>
<text text-anchor="middle" x="651.29" y="-99.3" font-family="Times New Roman,serif" font-size="14.00">1,3</text>
</g>
<!-- 4&#45;&gt;1,3 -->
<g id="edge8" class="edge">
<title>4&#45;&gt;1,3</title>
<path fill="none" stroke="black" d="M392.81,-16.39C427.77,-13.78 509.56,-11.22 571.19,-37 593.53,-46.34 614.36,-64.27 629.04,-79.08"/>
<polygon fill="black" stroke="black" points="626.68,-81.68 636.12,-86.48 631.74,-76.84 626.68,-81.68"/>
<text text-anchor="middle" x="490.99" y="-24.8" font-family="Times New Roman,serif" font-size="14.00">b, a</text>
</g>
<!-- 1,3&#45;&gt;1,3 -->
<g id="edge19" class="edge">
<title>1,3&#45;&gt;1,3</title>
<path fill="none" stroke="black" d="M642.24,-123.22C640.85,-133.67 643.86,-143.1 651.29,-143.1 656.16,-143.1 659.13,-139.04 660.2,-133.29"/>
<polygon fill="black" stroke="black" points="663.71,-133.26 660.33,-123.22 656.71,-133.17 663.71,-133.26"/>
<text text-anchor="middle" x="651.29" y="-146.9" font-family="Times New Roman,serif" font-size="14.00">b, a</text>
</g>
<!-- 7 -->
<g id="node10" class="node">
<title>7</title>
<ellipse fill="none" stroke="black" cx="549.09" cy="-64" rx="18" ry="18"/>
<text text-anchor="middle" x="549.09" y="-60.3" font-family="Times New Roman,serif" font-size="14.00">7</text>
</g>
<!-- 6&#45;&gt;7 -->
<g id="edge10" class="edge">
<title>6&#45;&gt;7</title>
<path fill="none" stroke="black" d="M451.24,-64C469.71,-64 499.19,-64 520.78,-64"/>
<polygon fill="black" stroke="black" points="520.96,-67.5 530.96,-64 520.96,-60.5 520.96,-67.5"/>
<text text-anchor="middle" x="490.99" y="-67.8" font-family="Times New Roman,serif" font-size="14.00">b</text>
</g>
<!-- 7&#45;&gt;1,3 -->
<g id="edge11" class="edge">
<title>7&#45;&gt;1,3</title>
<path fill="none" stroke="black" d="M566.19,-70.27C580.94,-76.01 603.13,-84.65 621.02,-91.61"/>
<polygon fill="black" stroke="black" points="619.85,-94.91 630.43,-95.27 622.39,-88.38 619.85,-94.91"/>
<text text-anchor="middle" x="600.19" y="-89.8" font-family="Times New Roman,serif" font-size="14.00">b, a</text>
</g>
<!-- 9&#45;&gt;1,3 -->
<g id="edge14" class="edge">
<title>9&#45;&gt;1,3</title>
<path fill="none" stroke="black" d="M509.09,-202.97C525.86,-201.33 551.69,-197.07 571.19,-186 595.95,-171.94 617.75,-147.66 632.15,-128.99"/>
<polygon fill="black" stroke="black" points="635.05,-130.96 638.23,-120.86 629.44,-126.77 635.05,-130.96"/>
<text text-anchor="middle" x="549.09" y="-203.8" font-family="Times New Roman,serif" font-size="14.00">b, a</text>
</g>
<!-- 1,1 -->
<g id="node13" class="node">
<title>1,1</title>
<ellipse fill="none" stroke="black" cx="432.89" cy="-122" rx="22.2" ry="22.2"/>
<text text-anchor="middle" x="432.89" y="-118.3" font-family="Times New Roman,serif" font-size="14.00">1,1</text>
</g>
<!-- 0,1&#45;&gt;1,1 -->
<g id="edge15" class="edge">
<title>0,1&#45;&gt;1,1</title>
<path fill="none" stroke="black" d="M338.91,-122C356.3,-122 381.15,-122 400.79,-122"/>
<polygon fill="black" stroke="black" points="400.8,-125.5 410.8,-122 400.8,-118.5 400.8,-125.5"/>
<text text-anchor="middle" x="374.8" y="-125.8" font-family="Times New Roman,serif" font-size="14.00">b</text>
</g>
<!-- 1,2 -->
<g id="node14" class="node">
<title>1,2</title>
<ellipse fill="none" stroke="black" cx="549.09" cy="-122" rx="22.2" ry="22.2"/>
<text text-anchor="middle" x="549.09" y="-118.3" font-family="Times New Roman,serif" font-size="14.00">1,2</text>
</g>
<!-- 1,1&#45;&gt;1,2 -->
<g id="edge16" class="edge">
<title>1,1&#45;&gt;1,2</title>
<path fill="none" stroke="black" d="M455.11,-122C472.49,-122 497.34,-122 516.98,-122"/>
<polygon fill="black" stroke="black" points="516.99,-125.5 526.99,-122 516.99,-118.5 516.99,-125.5"/>
<text text-anchor="middle" x="490.99" y="-125.8" font-family="Times New Roman,serif" font-size="14.00">a</text>
</g>
<!-- 1,2&#45;&gt;1,3 -->
<g id="edge18" class="edge">
<title>1,2&#45;&gt;1,3</title>
<path fill="none" stroke="black" d="M570.85,-118.06C584.86,-115.41 603.6,-111.85 619.36,-108.86"/>
<polygon fill="black" stroke="black" points="620.03,-112.3 629.21,-107 618.73,-105.42 620.03,-112.3"/>
<text text-anchor="middle" x="600.19" y="-117.8" font-family="Times New Roman,serif" font-size="14.00">b, a</text>
</g>
<!-- 1,2&#45;&gt;1,2 -->
<g id="edge17" class="edge">
<title>1,2&#45;&gt;1,2</title>
<path fill="none" stroke="black" d="M540.04,-142.22C538.65,-152.67 541.67,-162.1 549.09,-162.1 553.96,-162.1 556.93,-158.04 558.01,-152.29"/>
<polygon fill="black" stroke="black" points="561.51,-152.26 558.14,-142.22 554.51,-152.17 561.51,-152.26"/>
<text text-anchor="middle" x="549.09" y="-165.9" font-family="Times New Roman,serif" font-size="14.00">b, a</text>
</g>
</g>
</svg>
