<?xml version="1.0" encoding="UTF-8" standalone="no"?>
<!DOCTYPE svg PUBLIC "-//W3C//DTD SVG 1.1//EN"
 "http://www.w3.org/Graphics/SVG/1.1/DTD/svg11.dtd">
<!-- Generated by graphviz version 3.0.0 (20220226.1711)
 -->
<!-- Title: G Pages: 1 -->
<svg width="403pt" height="268pt"
 viewBox="0.00 0.00 402.69 268.45" xmlns="http://www.w3.org/2000/svg" xmlns:xlink="http://www.w3.org/1999/xlink">
<g id="graph0" class="graph" transform="scale(1 1) rotate(0) translate(4 264.45)">
<title>G</title>
<polygon fill="white" stroke="transparent" points="-4,4 -4,-264.45 398.69,-264.45 398.69,4 -4,4"/>
<!-- 0 -->
<g id="node1" class="node">
<title>0</title>
<ellipse fill="black" stroke="black" cx="1.8" cy="-43.95" rx="1.8" ry="1.8"/>
</g>
<!-- 1 -->
<g id="node2" class="node">
<title>1</title>
<ellipse fill="none" stroke="black" cx="62.6" cy="-43.95" rx="18" ry="18"/>
<ellipse fill="none" stroke="black" cx="62.6" cy="-43.95" rx="22" ry="22"/>
<text text-anchor="middle" x="62.6" y="-40.25" font-family="Times New Roman,serif" font-size="14.00">1</text>
</g>
<!-- 0&#45;&gt;1 -->
<g id="edge1" class="edge">
<title>0&#45;&gt;1</title>
<path fill="none" stroke="black" d="M3.82,-43.95C7.19,-43.95 18.44,-43.95 30.12,-43.95"/>
<polygon fill="black" stroke="black" points="30.31,-47.45 40.31,-43.95 30.31,-40.45 30.31,-47.45"/>
</g>
<!-- 12 -->
<g id="node3" class="node">
<title>12</title>
<ellipse fill="none" stroke="black" cx="152.1" cy="-165.95" rx="19.5" ry="19.5"/>
<ellipse fill="none" stroke="black" cx="152.1" cy="-165.95" rx="23.5" ry="23.5"/>
<text text-anchor="middle" x="152.1" y="-162.25" font-family="Times New Roman,serif" font-size="14.00">12</text>
</g>
<!-- 1&#45;&gt;12 -->
<g id="edge2" class="edge">
<title>1&#45;&gt;12</title>
<path fill="none" stroke="black" d="M76.14,-61.43C90.7,-81.74 114.89,-115.46 131.84,-139.1"/>
<polygon fill="black" stroke="black" points="129.05,-141.22 137.72,-147.31 134.74,-137.14 129.05,-141.22"/>
<text text-anchor="middle" x="106.6" y="-112.75" font-family="Times New Roman,serif" font-size="14.00">a</text>
</g>
<!-- 2 -->
<g id="node4" class="node">
<title>2</title>
<ellipse fill="none" stroke="black" cx="211.6" cy="-43.95" rx="18" ry="18"/>
<text text-anchor="middle" x="211.6" y="-40.25" font-family="Times New Roman,serif" font-size="14.00">2</text>
</g>
<!-- 1&#45;&gt;2 -->
<g id="edge3" class="edge">
<title>1&#45;&gt;2</title>
<path fill="none" stroke="black" d="M84.66,-43.95C110.57,-43.95 154.6,-43.95 183.14,-43.95"/>
<polygon fill="black" stroke="black" points="183.25,-47.45 193.25,-43.95 183.25,-40.45 183.25,-47.45"/>
<text text-anchor="middle" x="106.6" y="-47.75" font-family="Times New Roman,serif" font-size="14.00">b</text>
</g>
<!-- 123 -->
<g id="node5" class="node">
<title>123</title>
<ellipse fill="none" stroke="black" cx="275.64" cy="-104.95" rx="24.09" ry="24.09"/>
<ellipse fill="none" stroke="black" cx="275.64" cy="-104.95" rx="28.1" ry="28.1"/>
<text text-anchor="middle" x="275.64" y="-101.25" font-family="Times New Roman,serif" font-size="14.00">123</text>
</g>
<!-- 12&#45;&gt;123 -->
<g id="edge4" class="edge">
<title>12&#45;&gt;123</title>
<path fill="none" stroke="black" d="M173.44,-155.74C191.81,-146.52 219.19,-132.78 240.85,-121.92"/>
<polygon fill="black" stroke="black" points="242.67,-124.92 250.03,-117.3 239.53,-118.66 242.67,-124.92"/>
<text text-anchor="middle" x="211.6" y="-148.75" font-family="Times New Roman,serif" font-size="14.00">a</text>
</g>
<!-- 23 -->
<g id="node6" class="node">
<title>23</title>
<ellipse fill="none" stroke="black" cx="275.64" cy="-203.95" rx="19.5" ry="19.5"/>
<text text-anchor="middle" x="275.64" y="-200.25" font-family="Times New Roman,serif" font-size="14.00">23</text>
</g>
<!-- 12&#45;&gt;23 -->
<g id="edge5" class="edge">
<title>12&#45;&gt;23</title>
<path fill="none" stroke="black" d="M174.83,-172.75C194.99,-179.05 225.09,-188.46 246.96,-195.3"/>
<polygon fill="black" stroke="black" points="246.07,-198.69 256.66,-198.33 248.16,-192.01 246.07,-198.69"/>
<text text-anchor="middle" x="211.6" y="-193.75" font-family="Times New Roman,serif" font-size="14.00">b</text>
</g>
<!-- 3 -->
<g id="node7" class="node">
<title>3</title>
<ellipse fill="none" stroke="black" cx="371.19" cy="-43.95" rx="18" ry="18"/>
<text text-anchor="middle" x="371.19" y="-40.25" font-family="Times New Roman,serif" font-size="14.00">3</text>
</g>
<!-- 2&#45;&gt;3 -->
<g id="edge6" class="edge">
<title>2&#45;&gt;3</title>
<path fill="none" stroke="black" d="M229.76,-43.95C257,-43.95 310.35,-43.95 342.88,-43.95"/>
<polygon fill="black" stroke="black" points="343.05,-47.45 353.05,-43.95 343.05,-40.45 343.05,-47.45"/>
<text text-anchor="middle" x="275.64" y="-47.75" font-family="Times New Roman,serif" font-size="14.00">a,b</text>
</g>
<!-- 123&#45;&gt;123 -->
<g id="edge7" class="edge">
<title>123&#45;&gt;123</title>
<path fill="none" stroke="black" d="M266.33,-131.45C265.8,-142.08 268.91,-151 275.64,-151 280.07,-151 282.92,-147.16 284.22,-141.51"/>
<polygon fill="black" stroke="black" points="287.71,-141.68 284.96,-131.45 280.73,-141.17 287.71,-141.68"/>
<text text-anchor="middle" x="275.64" y="-154.8" font-family="Times New Roman,serif" font-size="14.00">a,b</text>
</g>
<!-- 23&#45;&gt;3 -->
<g id="edge8" class="edge">
<title>23&#45;&gt;3</title>
<path fill="none" stroke="black" d="M290.42,-190.77C294.96,-186.03 299.83,-180.48 303.69,-174.95 327.51,-140.88 347.96,-97.1 359.67,-69.78"/>
<polygon fill="black" stroke="black" points="362.92,-71.08 363.58,-60.5 356.47,-68.36 362.92,-71.08"/>
<text text-anchor="middle" x="325.69" y="-148.75" font-family="Times New Roman,serif" font-size="14.00">a</text>
</g>
<!-- 13 -->
<g id="node8" class="node">
<title>13</title>
<ellipse fill="none" stroke="black" cx="371.19" cy="-236.95" rx="19.5" ry="19.5"/>
<ellipse fill="none" stroke="black" cx="371.19" cy="-236.95" rx="23.5" ry="23.5"/>
<text text-anchor="middle" x="371.19" y="-233.25" font-family="Times New Roman,serif" font-size="14.00">13</text>
</g>
<!-- 23&#45;&gt;13 -->
<g id="edge9" class="edge">
<title>23&#45;&gt;13</title>
<path fill="none" stroke="black" d="M294.24,-210.16C306.8,-214.59 324.02,-220.67 338.9,-225.91"/>
<polygon fill="black" stroke="black" points="338.14,-229.36 348.73,-229.38 340.47,-222.76 338.14,-229.36"/>
<text text-anchor="middle" x="325.69" y="-226.75" font-family="Times New Roman,serif" font-size="14.00">b</text>
</g>
<!-- 3&#45;&gt;1 -->
<g id="edge10" class="edge">
<title>3&#45;&gt;1</title>
<path fill="none" stroke="black" d="M354.76,-36.08C324.26,-21.46 253.99,7.56 193.6,-1.95 157.81,-7.59 118.46,-21.45 92.53,-31.71"/>
<polygon fill="black" stroke="black" points="90.91,-28.59 82.95,-35.58 93.54,-35.08 90.91,-28.59"/>
<text text-anchor="middle" x="211.6" y="-5.75" font-family="Times New Roman,serif" font-size="14.00">b</text>
</g>
<!-- 13&#45;&gt;12 -->
<g id="edge11" class="edge">
<title>13&#45;&gt;12</title>
<path fill="none" stroke="black" d="M347.53,-240.25C341.73,-240.96 335.49,-241.6 329.69,-241.95 293,-244.21 283.04,-241.7 247.6,-231.95 222.44,-225.04 214.99,-223.88 193.6,-208.95 186.74,-204.17 180.14,-198.07 174.33,-191.97"/>
<polygon fill="black" stroke="black" points="176.74,-189.42 167.43,-184.36 171.55,-194.12 176.74,-189.42"/>
<text text-anchor="middle" x="275.64" y="-245.75" font-family="Times New Roman,serif" font-size="14.00">a,b</text>
</g>
</g>
</svg>
