<?xml version="1.0" encoding="UTF-8" standalone="no"?>
<!DOCTYPE svg PUBLIC "-//W3C//DTD SVG 1.1//EN"
 "http://www.w3.org/Graphics/SVG/1.1/DTD/svg11.dtd">
<!-- Generated by graphviz version 3.0.0 (20220226.1711)
 -->
<!-- Title: G Pages: 1 -->
<svg width="172pt" height="85pt"
 viewBox="0.00 0.00 171.60 85.00" xmlns="http://www.w3.org/2000/svg" xmlns:xlink="http://www.w3.org/1999/xlink">
<g id="graph0" class="graph" transform="scale(1 1) rotate(0) translate(4 81)">
<title>G</title>
<polygon fill="white" stroke="transparent" points="-4,4 -4,-81 167.6,-81 167.6,4 -4,4"/>
<!-- 0 -->
<g id="node1" class="node">
<title>0</title>
<ellipse fill="black" stroke="black" cx="1.8" cy="-22" rx="1.8" ry="1.8"/>
</g>
<!-- 1 -->
<g id="node2" class="node">
<title>1</title>
<ellipse fill="none" stroke="black" cx="58.6" cy="-22" rx="18" ry="18"/>
<text text-anchor="middle" x="58.6" y="-18.3" font-family="Times New Roman,serif" font-size="14.00">1</text>
</g>
<!-- 0&#45;&gt;1 -->
<g id="edge1" class="edge">
<title>0&#45;&gt;1</title>
<path fill="none" stroke="black" d="M3.75,-22C7.11,-22 18.87,-22 30.55,-22"/>
<polygon fill="black" stroke="black" points="30.58,-25.5 40.58,-22 30.58,-18.5 30.58,-25.5"/>
</g>
<!-- 1&#45;&gt;1 -->
<g id="edge2" class="edge">
<title>1&#45;&gt;1</title>
<path fill="none" stroke="black" d="M52.22,-39.04C50.92,-48.86 53.05,-58 58.6,-58 62.07,-58 64.2,-54.43 65,-49.35"/>
<polygon fill="black" stroke="black" points="68.5,-49.03 64.98,-39.04 61.5,-49.04 68.5,-49.03"/>
<text text-anchor="middle" x="58.6" y="-61.8" font-family="Times New Roman,serif" font-size="14.00">a,b</text>
</g>
<!-- 2 -->
<g id="node3" class="node">
<title>2</title>
<ellipse fill="none" stroke="black" cx="141.6" cy="-22" rx="18" ry="18"/>
<ellipse fill="none" stroke="black" cx="141.6" cy="-22" rx="22" ry="22"/>
<text text-anchor="middle" x="141.6" y="-18.3" font-family="Times New Roman,serif" font-size="14.00">2</text>
</g>
<!-- 1&#45;&gt;2 -->
<g id="edge3" class="edge">
<title>1&#45;&gt;2</title>
<path fill="none" stroke="black" d="M76.78,-22C86.21,-22 98.2,-22 109.24,-22"/>
<polygon fill="black" stroke="black" points="109.41,-25.5 119.41,-22 109.41,-18.5 109.41,-25.5"/>
<text text-anchor="middle" x="98.1" y="-25.8" font-family="Times New Roman,serif" font-size="14.00">c</text>
</g>
<!-- 2&#45;&gt;2 -->
<g id="edge4" class="edge">
<title>2&#45;&gt;2</title>
<path fill="none" stroke="black" d="M133.92,-42.99C132.97,-53.09 135.53,-62 141.6,-62 145.49,-62 147.94,-58.34 148.95,-53.06"/>
<polygon fill="black" stroke="black" points="152.45,-53.1 149.28,-42.99 145.45,-52.87 152.45,-53.1"/>
<text text-anchor="middle" x="141.6" y="-65.8" font-family="Times New Roman,serif" font-size="14.00">a,b</text>
</g>
</g>
</svg>
