<?xml version="1.0" encoding="UTF-8" standalone="no"?>
<!DOCTYPE svg PUBLIC "-//W3C//DTD SVG 1.1//EN"
 "http://www.w3.org/Graphics/SVG/1.1/DTD/svg11.dtd">
<!-- Generated by graphviz version 3.0.0 (20220226.1711)
 -->
<!-- Title: G Pages: 1 -->
<svg width="421pt" height="408pt"
 viewBox="0.00 0.00 420.60 408.00" xmlns="http://www.w3.org/2000/svg" xmlns:xlink="http://www.w3.org/1999/xlink">
<g id="graph0" class="graph" transform="scale(1 1) rotate(0) translate(4 404)">
<title>G</title>
<polygon fill="white" stroke="transparent" points="-4,4 -4,-404 416.6,-404 416.6,4 -4,4"/>
<!-- 0 -->
<g id="node1" class="node">
<title>0</title>
<ellipse fill="black" stroke="black" cx="1.8" cy="-22" rx="1.8" ry="1.8"/>
</g>
<!-- 1 -->
<g id="node2" class="node">
<title>1</title>
<ellipse fill="none" stroke="black" cx="58.6" cy="-22" rx="18" ry="18"/>
</g>
<!-- 0&#45;&gt;1 -->
<g id="edge1" class="edge">
<title>0&#45;&gt;1</title>
<path fill="none" stroke="black" d="M3.75,-22C7.11,-22 18.87,-22 30.55,-22"/>
<polygon fill="black" stroke="black" points="30.58,-25.5 40.58,-22 30.58,-18.5 30.58,-25.5"/>
</g>
<!-- 1&#45;&gt;1 -->
<g id="edge2" class="edge">
<title>1&#45;&gt;1</title>
<path fill="none" stroke="black" d="M52.22,-39.04C50.92,-48.86 53.05,-58 58.6,-58 62.07,-58 64.2,-54.43 65,-49.35"/>
<polygon fill="black" stroke="black" points="68.5,-49.03 64.98,-39.04 61.5,-49.04 68.5,-49.03"/>
<text text-anchor="middle" x="58.6" y="-61.8" font-family="Times New Roman,serif" font-size="14.00">b</text>
</g>
<!-- 2 -->
<g id="node3" class="node">
<title>2</title>
<ellipse fill="none" stroke="black" cx="138.6" cy="-22" rx="18" ry="18"/>
</g>
<!-- 1&#45;&gt;2 -->
<g id="edge3" class="edge">
<title>1&#45;&gt;2</title>
<path fill="none" stroke="black" d="M76.91,-22C86.71,-22 99.18,-22 110.27,-22"/>
<polygon fill="black" stroke="black" points="110.34,-25.5 120.34,-22 110.34,-18.5 110.34,-25.5"/>
<text text-anchor="middle" x="98.6" y="-25.8" font-family="Times New Roman,serif" font-size="14.00">a</text>
</g>
<!-- 2&#45;&gt;2 -->
<g id="edge4" class="edge">
<title>2&#45;&gt;2</title>
<path fill="none" stroke="black" d="M131.57,-38.66C130.01,-48.62 132.35,-58 138.6,-58 142.6,-58 145,-54.15 145.8,-48.77"/>
<polygon fill="black" stroke="black" points="149.3,-48.6 145.63,-38.66 142.3,-48.72 149.3,-48.6"/>
<text text-anchor="middle" x="138.6" y="-61.8" font-family="Times New Roman,serif" font-size="14.00">b</text>
</g>
<!-- 3 -->
<g id="node4" class="node">
<title>3</title>
<ellipse fill="none" stroke="black" cx="222.6" cy="-22" rx="18" ry="18"/>
<ellipse fill="none" stroke="black" cx="222.6" cy="-22" rx="22" ry="22"/>
</g>
<!-- 2&#45;&gt;3 -->
<g id="edge5" class="edge">
<title>2&#45;&gt;3</title>
<path fill="none" stroke="black" d="M156.99,-22C166.71,-22 179.11,-22 190.45,-22"/>
<polygon fill="black" stroke="black" points="190.45,-25.5 200.45,-22 190.45,-18.5 190.45,-25.5"/>
<text text-anchor="middle" x="178.6" y="-25.8" font-family="Times New Roman,serif" font-size="14.00">a</text>
</g>
<!-- 3&#45;&gt;3 -->
<g id="edge6" class="edge">
<title>3&#45;&gt;3</title>
<path fill="none" stroke="black" d="M214.59,-42.58C213.49,-52.84 216.15,-62 222.6,-62 226.73,-62 229.31,-58.24 230.34,-52.84"/>
<polygon fill="black" stroke="black" points="233.84,-52.67 230.61,-42.58 226.85,-52.49 233.84,-52.67"/>
<text text-anchor="middle" x="222.6" y="-65.8" font-family="Times New Roman,serif" font-size="14.00">a,b</text>
</g>
<!-- 00 -->
<g id="node5" class="node">
<title>00</title>
<ellipse fill="black" stroke="black" cx="1.8" cy="-117" rx="1.8" ry="1.8"/>
</g>
<!-- 4 -->
<g id="node6" class="node">
<title>4</title>
<ellipse fill="none" stroke="black" cx="58.6" cy="-117" rx="18" ry="18"/>
</g>
<!-- 00&#45;&gt;4 -->
<g id="edge7" class="edge">
<title>00&#45;&gt;4</title>
<path fill="none" stroke="black" d="M3.75,-117C7.11,-117 18.87,-117 30.55,-117"/>
<polygon fill="black" stroke="black" points="30.58,-120.5 40.58,-117 30.58,-113.5 30.58,-120.5"/>
</g>
<!-- 4&#45;&gt;4 -->
<g id="edge8" class="edge">
<title>4&#45;&gt;4</title>
<path fill="none" stroke="black" d="M52.22,-134.04C50.92,-143.86 53.05,-153 58.6,-153 62.07,-153 64.2,-149.43 65,-144.35"/>
<polygon fill="black" stroke="black" points="68.5,-144.03 64.98,-134.04 61.5,-144.04 68.5,-144.03"/>
<text text-anchor="middle" x="58.6" y="-156.8" font-family="Times New Roman,serif" font-size="14.00">a</text>
</g>
<!-- 5 -->
<g id="node7" class="node">
<title>5</title>
<ellipse fill="none" stroke="black" cx="138.6" cy="-117" rx="18" ry="18"/>
</g>
<!-- 4&#45;&gt;5 -->
<g id="edge9" class="edge">
<title>4&#45;&gt;5</title>
<path fill="none" stroke="black" d="M76.91,-117C86.71,-117 99.18,-117 110.27,-117"/>
<polygon fill="black" stroke="black" points="110.34,-120.5 120.34,-117 110.34,-113.5 110.34,-120.5"/>
<text text-anchor="middle" x="98.6" y="-120.8" font-family="Times New Roman,serif" font-size="14.00">b</text>
</g>
<!-- 5&#45;&gt;5 -->
<g id="edge10" class="edge">
<title>5&#45;&gt;5</title>
<path fill="none" stroke="black" d="M131.57,-133.66C130.01,-143.62 132.35,-153 138.6,-153 142.6,-153 145,-149.15 145.8,-143.77"/>
<polygon fill="black" stroke="black" points="149.3,-143.6 145.63,-133.66 142.3,-143.72 149.3,-143.6"/>
<text text-anchor="middle" x="138.6" y="-156.8" font-family="Times New Roman,serif" font-size="14.00">a</text>
</g>
<!-- 6 -->
<g id="node8" class="node">
<title>6</title>
<ellipse fill="none" stroke="black" cx="222.6" cy="-117" rx="18" ry="18"/>
<ellipse fill="none" stroke="black" cx="222.6" cy="-117" rx="22" ry="22"/>
</g>
<!-- 5&#45;&gt;6 -->
<g id="edge11" class="edge">
<title>5&#45;&gt;6</title>
<path fill="none" stroke="black" d="M156.99,-117C166.71,-117 179.11,-117 190.45,-117"/>
<polygon fill="black" stroke="black" points="190.45,-120.5 200.45,-117 190.45,-113.5 190.45,-120.5"/>
<text text-anchor="middle" x="178.6" y="-120.8" font-family="Times New Roman,serif" font-size="14.00">b</text>
</g>
<!-- 6&#45;&gt;6 -->
<g id="edge12" class="edge">
<title>6&#45;&gt;6</title>
<path fill="none" stroke="black" d="M214.59,-137.58C213.49,-147.84 216.15,-157 222.6,-157 226.73,-157 229.31,-153.24 230.34,-147.84"/>
<polygon fill="black" stroke="black" points="233.84,-147.67 230.61,-137.58 226.85,-147.49 233.84,-147.67"/>
<text text-anchor="middle" x="222.6" y="-160.8" font-family="Times New Roman,serif" font-size="14.00">a,b</text>
</g>
<!-- 000 -->
<g id="node9" class="node">
<title>000</title>
<ellipse fill="black" stroke="black" cx="1.8" cy="-278" rx="1.8" ry="1.8"/>
</g>
<!-- 14 -->
<g id="node10" class="node">
<title>14</title>
<ellipse fill="none" stroke="black" cx="58.6" cy="-278" rx="18" ry="18"/>
</g>
<!-- 000&#45;&gt;14 -->
<g id="edge13" class="edge">
<title>000&#45;&gt;14</title>
<path fill="none" stroke="black" d="M3.75,-278C7.11,-278 18.87,-278 30.55,-278"/>
<polygon fill="black" stroke="black" points="30.58,-281.5 40.58,-278 30.58,-274.5 30.58,-281.5"/>
</g>
<!-- 15 -->
<g id="node11" class="node">
<title>15</title>
<ellipse fill="none" stroke="black" cx="138.6" cy="-305" rx="18" ry="18"/>
</g>
<!-- 14&#45;&gt;15 -->
<g id="edge15" class="edge">
<title>14&#45;&gt;15</title>
<path fill="none" stroke="black" d="M75.76,-283.59C86.22,-287.21 100.06,-292.01 112,-296.14"/>
<polygon fill="black" stroke="black" points="110.86,-299.45 121.46,-299.41 113.15,-292.83 110.86,-299.45"/>
<text text-anchor="middle" x="98.6" y="-296.8" font-family="Times New Roman,serif" font-size="14.00">b</text>
</g>
<!-- 24 -->
<g id="node13" class="node">
<title>24</title>
<ellipse fill="none" stroke="black" cx="138.6" cy="-251" rx="18" ry="18"/>
</g>
<!-- 14&#45;&gt;24 -->
<g id="edge14" class="edge">
<title>14&#45;&gt;24</title>
<path fill="none" stroke="black" d="M75.52,-271.29C81.46,-268.88 88.3,-266.21 94.6,-264 100.03,-262.1 105.9,-260.21 111.5,-258.49"/>
<polygon fill="black" stroke="black" points="112.58,-261.82 121.16,-255.61 110.57,-255.12 112.58,-261.82"/>
<text text-anchor="middle" x="98.6" y="-267.8" font-family="Times New Roman,serif" font-size="14.00">a</text>
</g>
<!-- 16 -->
<g id="node12" class="node">
<title>16</title>
<ellipse fill="none" stroke="black" cx="222.6" cy="-349" rx="18" ry="18"/>
</g>
<!-- 15&#45;&gt;16 -->
<g id="edge17" class="edge">
<title>15&#45;&gt;16</title>
<path fill="none" stroke="black" d="M155.02,-313.28C166.94,-319.67 183.64,-328.63 197.34,-335.98"/>
<polygon fill="black" stroke="black" points="195.78,-339.12 206.25,-340.76 199.09,-332.95 195.78,-339.12"/>
<text text-anchor="middle" x="178.6" y="-330.8" font-family="Times New Roman,serif" font-size="14.00">b</text>
</g>
<!-- 25 -->
<g id="node14" class="node">
<title>25</title>
<ellipse fill="none" stroke="black" cx="222.6" cy="-295" rx="18" ry="18"/>
</g>
<!-- 15&#45;&gt;25 -->
<g id="edge16" class="edge">
<title>15&#45;&gt;25</title>
<path fill="none" stroke="black" d="M156.59,-302.93C167.59,-301.59 182.14,-299.81 194.68,-298.28"/>
<polygon fill="black" stroke="black" points="195.13,-301.75 204.63,-297.07 194.28,-294.81 195.13,-301.75"/>
<text text-anchor="middle" x="178.6" y="-304.8" font-family="Times New Roman,serif" font-size="14.00">a</text>
</g>
<!-- 16&#45;&gt;16 -->
<g id="edge19" class="edge">
<title>16&#45;&gt;16</title>
<path fill="none" stroke="black" d="M214.93,-365.29C213.08,-375.39 215.64,-385 222.6,-385 227.06,-385 229.71,-381.06 230.55,-375.57"/>
<polygon fill="black" stroke="black" points="234.05,-375.19 230.27,-365.29 227.05,-375.38 234.05,-375.19"/>
<text text-anchor="middle" x="222.6" y="-388.8" font-family="Times New Roman,serif" font-size="14.00">b</text>
</g>
<!-- 26 -->
<g id="node15" class="node">
<title>26</title>
<ellipse fill="none" stroke="black" cx="306.6" cy="-323" rx="18" ry="18"/>
</g>
<!-- 16&#45;&gt;26 -->
<g id="edge18" class="edge">
<title>16&#45;&gt;26</title>
<path fill="none" stroke="black" d="M240.19,-343.74C251.49,-340.16 266.68,-335.34 279.58,-331.25"/>
<polygon fill="black" stroke="black" points="280.84,-334.52 289.31,-328.16 278.72,-327.85 280.84,-334.52"/>
<text text-anchor="middle" x="266.6" y="-339.8" font-family="Times New Roman,serif" font-size="14.00">a</text>
</g>
<!-- 24&#45;&gt;25 -->
<g id="edge21" class="edge">
<title>24&#45;&gt;25</title>
<path fill="none" stroke="black" d="M155.02,-259.28C166.94,-265.67 183.64,-274.63 197.34,-281.98"/>
<polygon fill="black" stroke="black" points="195.78,-285.12 206.25,-286.76 199.09,-278.95 195.78,-285.12"/>
<text text-anchor="middle" x="178.6" y="-276.8" font-family="Times New Roman,serif" font-size="14.00">b</text>
</g>
<!-- 34 -->
<g id="node16" class="node">
<title>34</title>
<ellipse fill="none" stroke="black" cx="222.6" cy="-208" rx="18" ry="18"/>
</g>
<!-- 24&#45;&gt;34 -->
<g id="edge20" class="edge">
<title>24&#45;&gt;34</title>
<path fill="none" stroke="black" d="M151.56,-238.42C157.9,-232.39 166.12,-225.51 174.6,-221 180.68,-217.76 187.65,-215.27 194.32,-213.38"/>
<polygon fill="black" stroke="black" points="195.53,-216.68 204.39,-210.87 193.84,-209.89 195.53,-216.68"/>
<text text-anchor="middle" x="178.6" y="-224.8" font-family="Times New Roman,serif" font-size="14.00">a</text>
</g>
<!-- 25&#45;&gt;26 -->
<g id="edge23" class="edge">
<title>25&#45;&gt;26</title>
<path fill="none" stroke="black" d="M239.8,-300.53C251.14,-304.41 266.54,-309.66 279.59,-314.12"/>
<polygon fill="black" stroke="black" points="278.84,-317.56 289.43,-317.48 281.1,-310.94 278.84,-317.56"/>
<text text-anchor="middle" x="266.6" y="-314.8" font-family="Times New Roman,serif" font-size="14.00">b</text>
</g>
<!-- 35 -->
<g id="node17" class="node">
<title>35</title>
<ellipse fill="none" stroke="black" cx="306.6" cy="-236" rx="18" ry="18"/>
</g>
<!-- 25&#45;&gt;35 -->
<g id="edge22" class="edge">
<title>25&#45;&gt;35</title>
<path fill="none" stroke="black" d="M237.88,-284.72C250.35,-275.76 268.65,-262.59 283.08,-252.2"/>
<polygon fill="black" stroke="black" points="285.41,-254.84 291.48,-246.16 281.32,-249.16 285.41,-254.84"/>
<text text-anchor="middle" x="266.6" y="-269.8" font-family="Times New Roman,serif" font-size="14.00">a</text>
</g>
<!-- 26&#45;&gt;26 -->
<g id="edge25" class="edge">
<title>26&#45;&gt;26</title>
<path fill="none" stroke="black" d="M299.57,-339.66C298.01,-349.62 300.35,-359 306.6,-359 310.6,-359 313,-355.15 313.8,-349.77"/>
<polygon fill="black" stroke="black" points="317.3,-349.6 313.63,-339.66 310.3,-349.72 317.3,-349.6"/>
<text text-anchor="middle" x="306.6" y="-362.8" font-family="Times New Roman,serif" font-size="14.00">b</text>
</g>
<!-- 36 -->
<g id="node18" class="node">
<title>36</title>
<ellipse fill="none" stroke="black" cx="390.6" cy="-279" rx="18" ry="18"/>
<ellipse fill="none" stroke="black" cx="390.6" cy="-279" rx="22" ry="22"/>
</g>
<!-- 26&#45;&gt;36 -->
<g id="edge24" class="edge">
<title>26&#45;&gt;36</title>
<path fill="none" stroke="black" d="M323.02,-314.72C333.92,-308.87 348.84,-300.87 361.79,-293.92"/>
<polygon fill="black" stroke="black" points="363.63,-296.91 370.79,-289.09 360.32,-290.74 363.63,-296.91"/>
<text text-anchor="middle" x="346.6" y="-307.8" font-family="Times New Roman,serif" font-size="14.00">a</text>
</g>
<!-- 34&#45;&gt;34 -->
<g id="edge26" class="edge">
<title>34&#45;&gt;34</title>
<path fill="none" stroke="black" d="M214.93,-224.29C213.08,-234.39 215.64,-244 222.6,-244 227.06,-244 229.71,-240.06 230.55,-234.57"/>
<polygon fill="black" stroke="black" points="234.05,-234.19 230.27,-224.29 227.05,-234.38 234.05,-234.19"/>
<text text-anchor="middle" x="222.6" y="-247.8" font-family="Times New Roman,serif" font-size="14.00">a</text>
</g>
<!-- 34&#45;&gt;35 -->
<g id="edge27" class="edge">
<title>34&#45;&gt;35</title>
<path fill="none" stroke="black" d="M240.3,-212.03C249.36,-214.37 260.69,-217.53 270.6,-221 273.78,-222.12 277.08,-223.38 280.33,-224.7"/>
<polygon fill="black" stroke="black" points="279.18,-228.01 289.75,-228.67 281.9,-221.56 279.18,-228.01"/>
<text text-anchor="middle" x="266.6" y="-224.8" font-family="Times New Roman,serif" font-size="14.00">b</text>
</g>
<!-- 35&#45;&gt;35 -->
<g id="edge28" class="edge">
<title>35&#45;&gt;35</title>
<path fill="none" stroke="black" d="M299.57,-252.66C298.01,-262.62 300.35,-272 306.6,-272 310.6,-272 313,-268.15 313.8,-262.77"/>
<polygon fill="black" stroke="black" points="317.3,-262.6 313.63,-252.66 310.3,-262.72 317.3,-262.6"/>
<text text-anchor="middle" x="306.6" y="-275.8" font-family="Times New Roman,serif" font-size="14.00">a</text>
</g>
<!-- 35&#45;&gt;36 -->
<g id="edge29" class="edge">
<title>35&#45;&gt;36</title>
<path fill="none" stroke="black" d="M323.02,-244.09C333.92,-249.8 348.84,-257.63 361.79,-264.42"/>
<polygon fill="black" stroke="black" points="360.31,-267.59 370.79,-269.14 363.56,-261.39 360.31,-267.59"/>
<text text-anchor="middle" x="346.6" y="-261.8" font-family="Times New Roman,serif" font-size="14.00">b</text>
</g>
<!-- 36&#45;&gt;36 -->
<g id="edge30" class="edge">
<title>36&#45;&gt;36</title>
<path fill="none" stroke="black" d="M382.59,-299.58C381.49,-309.84 384.15,-319 390.6,-319 394.73,-319 397.31,-315.24 398.34,-309.84"/>
<polygon fill="black" stroke="black" points="401.84,-309.67 398.61,-299.58 394.85,-309.49 401.84,-309.67"/>
<text text-anchor="middle" x="390.6" y="-322.8" font-family="Times New Roman,serif" font-size="14.00">a,b</text>
</g>
</g>
</svg>
