<?xml version="1.0" encoding="UTF-8" standalone="no"?>
<!DOCTYPE svg PUBLIC "-//W3C//DTD SVG 1.1//EN"
 "http://www.w3.org/Graphics/SVG/1.1/DTD/svg11.dtd">
<!-- Generated by graphviz version 3.0.0 (20220226.1711)
 -->
<!-- Title: G Pages: 1 -->
<svg width="473pt" height="179pt"
 viewBox="0.00 0.00 472.59 179.50" xmlns="http://www.w3.org/2000/svg" xmlns:xlink="http://www.w3.org/1999/xlink">
<g id="graph0" class="graph" transform="scale(1 1) rotate(0) translate(4 175.5)">
<title>G</title>
<polygon fill="white" stroke="transparent" points="-4,4 -4,-175.5 468.59,-175.5 468.59,4 -4,4"/>
<!-- 0 -->
<g id="node1" class="node">
<title>0</title>
<ellipse fill="black" stroke="black" cx="1.8" cy="-22" rx="1.8" ry="1.8"/>
</g>
<!-- 1 -->
<g id="node2" class="node">
<title>1</title>
<ellipse fill="none" stroke="black" cx="60.1" cy="-22" rx="18" ry="18"/>
<text text-anchor="middle" x="60.1" y="-18.3" font-family="Times New Roman,serif" font-size="14.00">1</text>
</g>
<!-- 0&#45;&gt;1 -->
<g id="edge1" class="edge">
<title>0&#45;&gt;1</title>
<path fill="none" stroke="black" d="M3.78,-22C7.26,-22 19.47,-22 31.54,-22"/>
<polygon fill="black" stroke="black" points="31.89,-25.5 41.89,-22 31.89,-18.5 31.89,-25.5"/>
</g>
<!-- 2 -->
<g id="node3" class="node">
<title>2</title>
<ellipse fill="none" stroke="black" cx="155.6" cy="-22" rx="18" ry="18"/>
<text text-anchor="middle" x="155.6" y="-18.3" font-family="Times New Roman,serif" font-size="14.00">2</text>
</g>
<!-- 1&#45;&gt;2 -->
<g id="edge2" class="edge">
<title>1&#45;&gt;2</title>
<path fill="none" stroke="black" d="M78.25,-22C91.95,-22 111.43,-22 127.28,-22"/>
<polygon fill="black" stroke="black" points="127.56,-25.5 137.56,-22 127.56,-18.5 127.56,-25.5"/>
<text text-anchor="middle" x="106.6" y="-25.8" font-family="Times New Roman,serif" font-size="14.00">a,b</text>
</g>
<!-- 3 -->
<g id="node4" class="node">
<title>3</title>
<ellipse fill="none" stroke="black" cx="251.09" cy="-22" rx="18" ry="18"/>
<text text-anchor="middle" x="251.09" y="-18.3" font-family="Times New Roman,serif" font-size="14.00">3</text>
</g>
<!-- 2&#45;&gt;3 -->
<g id="edge3" class="edge">
<title>2&#45;&gt;3</title>
<path fill="none" stroke="black" d="M173.75,-22C187.45,-22 206.93,-22 222.78,-22"/>
<polygon fill="black" stroke="black" points="223.05,-25.5 233.05,-22 223.05,-18.5 223.05,-25.5"/>
<text text-anchor="middle" x="204.6" y="-25.8" font-family="Times New Roman,serif" font-size="14.00">a,b</text>
</g>
<!-- 4 -->
<g id="node5" class="node">
<title>4</title>
<ellipse fill="none" stroke="black" cx="348.09" cy="-22" rx="18" ry="18"/>
<ellipse fill="none" stroke="black" cx="348.09" cy="-22" rx="22" ry="22"/>
<text text-anchor="middle" x="348.09" y="-18.3" font-family="Times New Roman,serif" font-size="14.00">4</text>
</g>
<!-- 3&#45;&gt;4 -->
<g id="edge4" class="edge">
<title>3&#45;&gt;4</title>
<path fill="none" stroke="black" d="M269.52,-22C282.4,-22 300.3,-22 315.65,-22"/>
<polygon fill="black" stroke="black" points="315.79,-25.5 325.79,-22 315.79,-18.5 315.79,-25.5"/>
<text text-anchor="middle" x="297.59" y="-25.8" font-family="Times New Roman,serif" font-size="14.00">a,b</text>
</g>
<!-- 4&#45;&gt;4 -->
<g id="edge5" class="edge">
<title>4&#45;&gt;4</title>
<path fill="none" stroke="black" d="M339.05,-42.17C337.65,-52.6 340.67,-62 348.09,-62 352.96,-62 355.93,-57.95 357.01,-52.22"/>
<polygon fill="black" stroke="black" points="360.51,-52.21 357.14,-42.17 353.51,-52.12 360.51,-52.21"/>
<text text-anchor="middle" x="348.09" y="-65.8" font-family="Times New Roman,serif" font-size="14.00">a,b</text>
</g>
<!-- 00 -->
<g id="node6" class="node">
<title>00</title>
<ellipse fill="black" stroke="black" cx="1.8" cy="-89" rx="1.8" ry="1.8"/>
</g>
<!-- 5 -->
<g id="node7" class="node">
<title>5</title>
<ellipse fill="none" stroke="black" cx="60.1" cy="-89" rx="18" ry="18"/>
<text text-anchor="middle" x="60.1" y="-85.3" font-family="Times New Roman,serif" font-size="14.00">5</text>
</g>
<!-- 00&#45;&gt;5 -->
<g id="edge6" class="edge">
<title>00&#45;&gt;5</title>
<path fill="none" stroke="black" d="M3.78,-89C7.26,-89 19.47,-89 31.54,-89"/>
<polygon fill="black" stroke="black" points="31.89,-92.5 41.89,-89 31.89,-85.5 31.89,-92.5"/>
</g>
<!-- 6 -->
<g id="node8" class="node">
<title>6</title>
<ellipse fill="none" stroke="black" cx="155.6" cy="-80" rx="18" ry="18"/>
<ellipse fill="none" stroke="black" cx="155.6" cy="-80" rx="22" ry="22"/>
<text text-anchor="middle" x="155.6" y="-76.3" font-family="Times New Roman,serif" font-size="14.00">6</text>
</g>
<!-- 5&#45;&gt;6 -->
<g id="edge7" class="edge">
<title>5&#45;&gt;6</title>
<path fill="none" stroke="black" d="M78.32,-88.99C89.07,-88.83 103.17,-88.34 115.6,-87 118.17,-86.72 120.83,-86.38 123.49,-85.99"/>
<polygon fill="black" stroke="black" points="124.32,-89.4 133.62,-84.32 123.19,-82.49 124.32,-89.4"/>
<text text-anchor="middle" x="106.6" y="-92.8" font-family="Times New Roman,serif" font-size="14.00">a,b</text>
</g>
<!-- 6&#45;&gt;5 -->
<g id="edge8" class="edge">
<title>6&#45;&gt;5</title>
<path fill="none" stroke="black" d="M135.21,-71.4C124.13,-67.61 110,-64.69 97.6,-68 93.02,-69.22 88.43,-71.17 84.12,-73.4"/>
<polygon fill="black" stroke="black" points="82.13,-70.5 75.24,-78.55 85.65,-76.55 82.13,-70.5"/>
<text text-anchor="middle" x="106.6" y="-71.8" font-family="Times New Roman,serif" font-size="14.00">a,b</text>
</g>
<!-- 000 -->
<g id="node9" class="node">
<title>000</title>
<ellipse fill="black" stroke="black" cx="1.8" cy="-148" rx="1.8" ry="1.8"/>
</g>
<!-- 15 -->
<g id="node10" class="node">
<title>15</title>
<ellipse fill="none" stroke="black" cx="60.1" cy="-148" rx="19.5" ry="19.5"/>
<text text-anchor="middle" x="60.1" y="-144.3" font-family="Times New Roman,serif" font-size="14.00">15</text>
</g>
<!-- 000&#45;&gt;15 -->
<g id="edge9" class="edge">
<title>000&#45;&gt;15</title>
<path fill="none" stroke="black" d="M3.78,-148C7.14,-148 18.69,-148 30.37,-148"/>
<polygon fill="black" stroke="black" points="30.46,-151.5 40.46,-148 30.46,-144.5 30.46,-151.5"/>
</g>
<!-- 26 -->
<g id="node11" class="node">
<title>26</title>
<ellipse fill="none" stroke="black" cx="155.6" cy="-148" rx="19.5" ry="19.5"/>
<text text-anchor="middle" x="155.6" y="-144.3" font-family="Times New Roman,serif" font-size="14.00">26</text>
</g>
<!-- 15&#45;&gt;26 -->
<g id="edge10" class="edge">
<title>15&#45;&gt;26</title>
<path fill="none" stroke="black" d="M80.02,-148C93.16,-148 110.91,-148 125.8,-148"/>
<polygon fill="black" stroke="black" points="126.02,-151.5 136.02,-148 126.02,-144.5 126.02,-151.5"/>
<text text-anchor="middle" x="106.6" y="-151.8" font-family="Times New Roman,serif" font-size="14.00">a,b</text>
</g>
<!-- 35 -->
<g id="node12" class="node">
<title>35</title>
<ellipse fill="none" stroke="black" cx="251.09" cy="-148" rx="19.5" ry="19.5"/>
<text text-anchor="middle" x="251.09" y="-144.3" font-family="Times New Roman,serif" font-size="14.00">35</text>
</g>
<!-- 26&#45;&gt;35 -->
<g id="edge11" class="edge">
<title>26&#45;&gt;35</title>
<path fill="none" stroke="black" d="M175.52,-148C188.66,-148 206.41,-148 221.29,-148"/>
<polygon fill="black" stroke="black" points="221.52,-151.5 231.52,-148 221.52,-144.5 221.52,-151.5"/>
<text text-anchor="middle" x="204.6" y="-151.8" font-family="Times New Roman,serif" font-size="14.00">a,b</text>
</g>
<!-- 46 -->
<g id="node14" class="node">
<title>46</title>
<ellipse fill="none" stroke="black" cx="348.09" cy="-148" rx="19.5" ry="19.5"/>
<ellipse fill="none" stroke="black" cx="348.09" cy="-148" rx="23.5" ry="23.5"/>
<text text-anchor="middle" x="348.09" y="-144.3" font-family="Times New Roman,serif" font-size="14.00">46</text>
</g>
<!-- 35&#45;&gt;46 -->
<g id="edge12" class="edge">
<title>35&#45;&gt;46</title>
<path fill="none" stroke="black" d="M270.86,-148C283.22,-148 299.73,-148 314.23,-148"/>
<polygon fill="black" stroke="black" points="314.34,-151.5 324.34,-148 314.34,-144.5 314.34,-151.5"/>
<text text-anchor="middle" x="297.59" y="-151.8" font-family="Times New Roman,serif" font-size="14.00">a,b</text>
</g>
<!-- 45 -->
<g id="node13" class="node">
<title>45</title>
<ellipse fill="none" stroke="black" cx="445.09" cy="-148" rx="19.5" ry="19.5"/>
<text text-anchor="middle" x="445.09" y="-144.3" font-family="Times New Roman,serif" font-size="14.00">45</text>
</g>
<!-- 45&#45;&gt;46 -->
<g id="edge13" class="edge">
<title>45&#45;&gt;46</title>
<path fill="none" stroke="black" d="M427.97,-138.07C421.83,-134.83 414.61,-131.64 407.59,-130 397.84,-127.73 387.33,-129.57 377.96,-132.8"/>
<polygon fill="black" stroke="black" points="376.63,-129.56 368.67,-136.56 379.25,-136.05 376.63,-129.56"/>
<text text-anchor="middle" x="398.59" y="-133.8" font-family="Times New Roman,serif" font-size="14.00">a,b</text>
</g>
<!-- 46&#45;&gt;45 -->
<g id="edge14" class="edge">
<title>46&#45;&gt;45</title>
<path fill="none" stroke="black" d="M371.6,-148C384.72,-148 401.39,-148 415.44,-148"/>
<polygon fill="black" stroke="black" points="415.56,-151.5 425.56,-148 415.56,-144.5 415.56,-151.5"/>
<text text-anchor="middle" x="398.59" y="-151.8" font-family="Times New Roman,serif" font-size="14.00">a,b</text>
</g>
</g>
</svg>
