<?xml version="1.0" encoding="UTF-8" standalone="no"?>
<!DOCTYPE svg PUBLIC "-//W3C//DTD SVG 1.1//EN"
 "http://www.w3.org/Graphics/SVG/1.1/DTD/svg11.dtd">
<!-- Generated by graphviz version 3.0.0 (20220226.1711)
 -->
<!-- Title: G Pages: 1 -->
<svg width="412pt" height="73pt"
 viewBox="0.00 0.00 411.60 73.00" xmlns="http://www.w3.org/2000/svg" xmlns:xlink="http://www.w3.org/1999/xlink">
<g id="graph0" class="graph" transform="scale(1 1) rotate(0) translate(4 69)">
<title>G</title>
<polygon fill="white" stroke="transparent" points="-4,4 -4,-69 407.6,-69 407.6,4 -4,4"/>
<!-- 0 -->
<g id="node1" class="node">
<title>0</title>
<ellipse fill="black" stroke="black" cx="1.8" cy="-22" rx="1.8" ry="1.8"/>
</g>
<!-- 1 -->
<g id="node2" class="node">
<title>1</title>
<ellipse fill="none" stroke="black" cx="58.6" cy="-22" rx="18" ry="18"/>
</g>
<!-- 0&#45;&gt;1 -->
<g id="edge1" class="edge">
<title>0&#45;&gt;1</title>
<path fill="none" stroke="black" d="M3.75,-22C7.11,-22 18.87,-22 30.55,-22"/>
<polygon fill="black" stroke="black" points="30.58,-25.5 40.58,-22 30.58,-18.5 30.58,-25.5"/>
</g>
<!-- 2 -->
<g id="node3" class="node">
<title>2</title>
<ellipse fill="none" stroke="black" cx="141.6" cy="-22" rx="18" ry="18"/>
<ellipse fill="none" stroke="black" cx="141.6" cy="-22" rx="22" ry="22"/>
</g>
<!-- 1&#45;&gt;2 -->
<g id="edge2" class="edge">
<title>1&#45;&gt;2</title>
<path fill="none" stroke="black" d="M76.78,-22C86.21,-22 98.2,-22 109.24,-22"/>
<polygon fill="black" stroke="black" points="109.41,-25.5 119.41,-22 109.41,-18.5 109.41,-25.5"/>
<text text-anchor="middle" x="98.1" y="-25.8" font-family="Times New Roman,serif" font-size="14.00">a</text>
</g>
<!-- 5 -->
<g id="node6" class="node">
<title>5</title>
<ellipse fill="none" stroke="black" cx="225.6" cy="-47" rx="18" ry="18"/>
</g>
<!-- 2&#45;&gt;5 -->
<g id="edge3" class="edge">
<title>2&#45;&gt;5</title>
<path fill="none" stroke="black" d="M162.18,-30.85C168.32,-33.4 175.16,-36.02 181.6,-38 186.75,-39.58 192.34,-40.98 197.73,-42.17"/>
<polygon fill="black" stroke="black" points="197.18,-45.63 207.67,-44.2 198.58,-38.77 197.18,-45.63"/>
<text text-anchor="middle" x="185.6" y="-42.8" font-family="Times New Roman,serif" font-size="14.00">a</text>
</g>
<!-- 3 -->
<g id="node4" class="node">
<title>3</title>
<ellipse fill="none" stroke="black" cx="385.6" cy="-22" rx="18" ry="18"/>
</g>
<!-- 3&#45;&gt;2 -->
<g id="edge8" class="edge">
<title>3&#45;&gt;2</title>
<path fill="none" stroke="black" d="M368.03,-16.83C362.26,-15.27 355.7,-13.77 349.6,-13 275.52,-3.63 255.79,-4.55 181.6,-13 178.85,-13.31 176.01,-13.75 173.17,-14.26"/>
<polygon fill="black" stroke="black" points="172.17,-10.89 163.09,-16.35 173.6,-17.74 172.17,-10.89"/>
<text text-anchor="middle" x="265.6" y="-9.8" font-family="Times New Roman,serif" font-size="14.00">b</text>
</g>
<!-- 4 -->
<g id="node5" class="node">
<title>4</title>
<ellipse fill="none" stroke="black" cx="305.6" cy="-47" rx="18" ry="18"/>
</g>
<!-- 3&#45;&gt;4 -->
<g id="edge7" class="edge">
<title>3&#45;&gt;4</title>
<path fill="none" stroke="black" d="M367.85,-17.78C359.72,-16.49 349.93,-16.08 341.6,-19 336.18,-20.9 330.98,-24.03 326.33,-27.52"/>
<polygon fill="black" stroke="black" points="324,-24.9 318.59,-34.01 328.5,-30.26 324,-24.9"/>
<text text-anchor="middle" x="345.6" y="-22.8" font-family="Times New Roman,serif" font-size="14.00">a</text>
</g>
<!-- 4&#45;&gt;3 -->
<g id="edge6" class="edge">
<title>4&#45;&gt;3</title>
<path fill="none" stroke="black" d="M323.57,-44.35C331.58,-42.87 341.19,-40.76 349.6,-38 353,-36.88 356.52,-35.53 359.95,-34.09"/>
<polygon fill="black" stroke="black" points="361.53,-37.22 369.22,-29.93 358.66,-30.83 361.53,-37.22"/>
<text text-anchor="middle" x="345.6" y="-43.8" font-family="Times New Roman,serif" font-size="14.00">b</text>
</g>
<!-- 5&#45;&gt;2 -->
<g id="edge5" class="edge">
<title>5&#45;&gt;2</title>
<path fill="none" stroke="black" d="M212.61,-34.01C206.38,-28.23 198.26,-22.04 189.6,-19 184.52,-17.22 178.95,-16.55 173.47,-16.54"/>
<polygon fill="black" stroke="black" points="172.96,-13.07 163.21,-17.22 173.42,-20.05 172.96,-13.07"/>
<text text-anchor="middle" x="185.6" y="-22.8" font-family="Times New Roman,serif" font-size="14.00">b</text>
</g>
<!-- 5&#45;&gt;4 -->
<g id="edge4" class="edge">
<title>5&#45;&gt;4</title>
<path fill="none" stroke="black" d="M243.91,-47C253.71,-47 266.18,-47 277.27,-47"/>
<polygon fill="black" stroke="black" points="277.34,-50.5 287.34,-47 277.34,-43.5 277.34,-50.5"/>
<text text-anchor="middle" x="265.6" y="-50.8" font-family="Times New Roman,serif" font-size="14.00">a</text>
</g>
</g>
</svg>
