<?xml version="1.0" encoding="UTF-8" standalone="no"?>
<!DOCTYPE svg PUBLIC "-//W3C//DTD SVG 1.1//EN"
 "http://www.w3.org/Graphics/SVG/1.1/DTD/svg11.dtd">
<!-- Generated by graphviz version 3.0.0 (20220226.1711)
 -->
<!-- Title: G Pages: 1 -->
<svg width="1005pt" height="288pt"
 viewBox="0.00 0.00 1004.60 287.54" xmlns="http://www.w3.org/2000/svg" xmlns:xlink="http://www.w3.org/1999/xlink">
<g id="graph0" class="graph" transform="scale(1 1) rotate(0) translate(4 283.54)">
<title>G</title>
<polygon fill="white" stroke="transparent" points="-4,4 -4,-283.54 1000.6,-283.54 1000.6,4 -4,4"/>
<!-- 000 -->
<g id="node1" class="node">
<title>000</title>
<ellipse fill="black" stroke="black" cx="1.8" cy="-95.54" rx="1.8" ry="1.8"/>
</g>
<!-- 17 -->
<g id="node7" class="node">
<title>17</title>
<ellipse fill="none" stroke="black" cx="58.6" cy="-95.54" rx="18" ry="18"/>
</g>
<!-- 000&#45;&gt;17 -->
<g id="edge1" class="edge">
<title>000&#45;&gt;17</title>
<path fill="none" stroke="black" d="M3.75,-95.54C7.11,-95.54 18.87,-95.54 30.55,-95.54"/>
<polygon fill="black" stroke="black" points="30.58,-99.04 40.58,-95.54 30.58,-92.04 30.58,-99.04"/>
</g>
<!-- 211 -->
<g id="node2" class="node">
<title>211</title>
<ellipse fill="none" stroke="black" cx="302.6" cy="-156.54" rx="18" ry="18"/>
<ellipse fill="none" stroke="black" cx="302.6" cy="-156.54" rx="22" ry="22"/>
</g>
<!-- 510 -->
<g id="node17" class="node">
<title>510</title>
<ellipse fill="none" stroke="black" cx="386.6" cy="-173.54" rx="18" ry="18"/>
</g>
<!-- 211&#45;&gt;510 -->
<g id="edge12" class="edge">
<title>211&#45;&gt;510</title>
<path fill="none" stroke="black" d="M324.88,-155.18C333.02,-155.13 342.33,-155.65 350.6,-157.54 354.09,-158.34 357.66,-159.51 361.11,-160.85"/>
<polygon fill="black" stroke="black" points="359.84,-164.12 370.4,-164.96 362.67,-157.72 359.84,-164.12"/>
<text text-anchor="middle" x="346.6" y="-161.34" font-family="Times New Roman,serif" font-size="14.00">a</text>
</g>
<!-- 310 -->
<g id="node18" class="node">
<title>310</title>
<ellipse fill="none" stroke="black" cx="554.6" cy="-133.54" rx="18" ry="18"/>
</g>
<!-- 211&#45;&gt;310 -->
<g id="edge13" class="edge">
<title>211&#45;&gt;310</title>
<path fill="none" stroke="black" d="M323.4,-148.59C346.69,-139.7 386.73,-125.85 422.6,-120.54 458.57,-115.22 500.42,-121.53 526.95,-127.08"/>
<polygon fill="black" stroke="black" points="526.47,-130.55 536.99,-129.29 527.98,-123.72 526.47,-130.55"/>
<text text-anchor="middle" x="426.6" y="-124.34" font-family="Times New Roman,serif" font-size="14.00">b</text>
</g>
<!-- 311 -->
<g id="node3" class="node">
<title>311</title>
<ellipse fill="none" stroke="black" cx="806.6" cy="-46.54" rx="18" ry="18"/>
<ellipse fill="none" stroke="black" cx="806.6" cy="-46.54" rx="22" ry="22"/>
</g>
<!-- 110 -->
<g id="node14" class="node">
<title>110</title>
<ellipse fill="none" stroke="black" cx="890.6" cy="-131.54" rx="18" ry="18"/>
</g>
<!-- 311&#45;&gt;110 -->
<g id="edge19" class="edge">
<title>311&#45;&gt;110</title>
<path fill="none" stroke="black" d="M822.64,-62.13C836.11,-76.09 855.92,-96.63 870.5,-111.74"/>
<polygon fill="black" stroke="black" points="868.12,-114.32 877.59,-119.09 873.16,-109.46 868.12,-114.32"/>
<text text-anchor="middle" x="850.6" y="-97.34" font-family="Times New Roman,serif" font-size="14.00">b</text>
</g>
<!-- 610 -->
<g id="node19" class="node">
<title>610</title>
<ellipse fill="none" stroke="black" cx="890.6" cy="-58.54" rx="18" ry="18"/>
</g>
<!-- 311&#45;&gt;610 -->
<g id="edge18" class="edge">
<title>311&#45;&gt;610</title>
<path fill="none" stroke="black" d="M828.81,-43.57C836.94,-42.97 846.26,-42.94 854.6,-44.54 857.88,-45.17 861.24,-46.11 864.52,-47.2"/>
<polygon fill="black" stroke="black" points="863.37,-50.51 873.96,-50.81 865.87,-43.97 863.37,-50.51"/>
<text text-anchor="middle" x="850.6" y="-48.34" font-family="Times New Roman,serif" font-size="14.00">a</text>
</g>
<!-- 411 -->
<g id="node4" class="node">
<title>411</title>
<ellipse fill="none" stroke="black" cx="974.6" cy="-158.54" rx="18" ry="18"/>
<ellipse fill="none" stroke="black" cx="974.6" cy="-158.54" rx="22" ry="22"/>
</g>
<!-- 411&#45;&gt;110 -->
<g id="edge24" class="edge">
<title>411&#45;&gt;110</title>
<path fill="none" stroke="black" d="M953.36,-151.88C942.5,-148.3 929,-143.86 917.4,-140.04"/>
<polygon fill="black" stroke="black" points="918.39,-136.68 907.8,-136.88 916.2,-143.33 918.39,-136.68"/>
<text text-anchor="middle" x="930.6" y="-148.34" font-family="Times New Roman,serif" font-size="14.00">a</text>
</g>
<!-- 411&#45;&gt;510 -->
<g id="edge25" class="edge">
<title>411&#45;&gt;510</title>
<path fill="none" stroke="black" d="M955.4,-169.37C939.23,-177.97 914.64,-188.54 891.6,-188.54 513.6,-188.54 513.6,-188.54 513.6,-188.54 479.29,-188.54 440.09,-182.99 414.65,-178.64"/>
<polygon fill="black" stroke="black" points="415.1,-175.17 404.64,-176.87 413.88,-182.06 415.1,-175.17"/>
<text text-anchor="middle" x="682.6" y="-192.34" font-family="Times New Roman,serif" font-size="14.00">b</text>
</g>
<!-- 511 -->
<g id="node5" class="node">
<title>511</title>
<ellipse fill="none" stroke="black" cx="638.6" cy="-41.54" rx="18" ry="18"/>
<ellipse fill="none" stroke="black" cx="638.6" cy="-41.54" rx="22" ry="22"/>
</g>
<!-- 210 -->
<g id="node13" class="node">
<title>210</title>
<ellipse fill="none" stroke="black" cx="722.6" cy="-62.54" rx="18" ry="18"/>
</g>
<!-- 511&#45;&gt;210 -->
<g id="edge30" class="edge">
<title>511&#45;&gt;210</title>
<path fill="none" stroke="black" d="M659.15,-50.07C665.28,-52.47 672.14,-54.87 678.6,-56.54 683.54,-57.82 688.87,-58.84 694.05,-59.65"/>
<polygon fill="black" stroke="black" points="693.89,-63.16 704.27,-61.04 694.83,-56.23 693.89,-63.16"/>
<text text-anchor="middle" x="682.6" y="-61.34" font-family="Times New Roman,serif" font-size="14.00">a</text>
</g>
<!-- 511&#45;&gt;610 -->
<g id="edge31" class="edge">
<title>511&#45;&gt;610</title>
<path fill="none" stroke="black" d="M654.33,-57.6C666.45,-69.41 684.81,-84.28 704.6,-89.54 769.12,-106.7 793.63,-124.75 854.6,-97.54 862.31,-94.1 869.03,-88.03 874.47,-81.69"/>
<polygon fill="black" stroke="black" points="877.3,-83.74 880.64,-73.69 871.76,-79.47 877.3,-83.74"/>
<text text-anchor="middle" x="762.6" y="-110.34" font-family="Times New Roman,serif" font-size="14.00">b</text>
</g>
<!-- 611 -->
<g id="node6" class="node">
<title>611</title>
<ellipse fill="none" stroke="black" cx="470.6" cy="-74.54" rx="18" ry="18"/>
<ellipse fill="none" stroke="black" cx="470.6" cy="-74.54" rx="22" ry="22"/>
</g>
<!-- 410 -->
<g id="node12" class="node">
<title>410</title>
<ellipse fill="none" stroke="black" cx="554.6" cy="-52.54" rx="18" ry="18"/>
</g>
<!-- 611&#45;&gt;410 -->
<g id="edge35" class="edge">
<title>611&#45;&gt;410</title>
<path fill="none" stroke="black" d="M483.32,-56.06C490.09,-47.16 499.47,-37.4 510.6,-32.54 517.66,-29.47 525.29,-31.3 532.15,-34.88"/>
<polygon fill="black" stroke="black" points="530.58,-38.03 540.88,-40.53 534.39,-32.16 530.58,-38.03"/>
<text text-anchor="middle" x="514.6" y="-36.34" font-family="Times New Roman,serif" font-size="14.00">b</text>
</g>
<!-- 611&#45;&gt;310 -->
<g id="edge34" class="edge">
<title>611&#45;&gt;310</title>
<path fill="none" stroke="black" d="M493.01,-75.75C501.52,-77.05 511.06,-79.61 518.6,-84.54 527.78,-90.56 535.32,-99.88 541.02,-108.79"/>
<polygon fill="black" stroke="black" points="538.01,-110.58 546.09,-117.42 544.04,-107.03 538.01,-110.58"/>
<text text-anchor="middle" x="514.6" y="-88.34" font-family="Times New Roman,serif" font-size="14.00">a</text>
</g>
<!-- 48 -->
<g id="node8" class="node">
<title>48</title>
<ellipse fill="none" stroke="black" cx="138.6" cy="-122.54" rx="18" ry="18"/>
</g>
<!-- 17&#45;&gt;48 -->
<g id="edge2" class="edge">
<title>17&#45;&gt;48</title>
<path fill="none" stroke="black" d="M75.76,-101.14C86.22,-104.76 100.06,-109.55 112,-113.68"/>
<polygon fill="black" stroke="black" points="110.86,-116.99 121.46,-116.96 113.15,-110.38 110.86,-116.99"/>
<text text-anchor="middle" x="98.6" y="-113.34" font-family="Times New Roman,serif" font-size="14.00">a</text>
</g>
<!-- 28 -->
<g id="node9" class="node">
<title>28</title>
<ellipse fill="none" stroke="black" cx="138.6" cy="-68.54" rx="18" ry="18"/>
</g>
<!-- 17&#45;&gt;28 -->
<g id="edge3" class="edge">
<title>17&#45;&gt;28</title>
<path fill="none" stroke="black" d="M75.76,-89.95C86.22,-86.33 100.06,-81.54 112,-77.41"/>
<polygon fill="black" stroke="black" points="113.15,-80.71 121.46,-74.13 110.86,-74.09 113.15,-80.71"/>
<text text-anchor="middle" x="98.6" y="-86.34" font-family="Times New Roman,serif" font-size="14.00">b</text>
</g>
<!-- 19 -->
<g id="node10" class="node">
<title>19</title>
<ellipse fill="none" stroke="black" cx="218.6" cy="-156.54" rx="18" ry="18"/>
</g>
<!-- 48&#45;&gt;19 -->
<g id="edge22" class="edge">
<title>48&#45;&gt;19</title>
<path fill="none" stroke="black" d="M155.38,-129.42C166.06,-134.08 180.39,-140.32 192.61,-145.65"/>
<polygon fill="black" stroke="black" points="191.27,-148.89 201.84,-149.67 194.07,-142.47 191.27,-148.89"/>
<text text-anchor="middle" x="178.6" y="-144.34" font-family="Times New Roman,serif" font-size="14.00">a</text>
</g>
<!-- 59 -->
<g id="node15" class="node">
<title>59</title>
<ellipse fill="none" stroke="black" cx="218.6" cy="-93.54" rx="18" ry="18"/>
</g>
<!-- 48&#45;&gt;59 -->
<g id="edge23" class="edge">
<title>48&#45;&gt;59</title>
<path fill="none" stroke="black" d="M155.76,-116.53C166.22,-112.65 180.06,-107.5 192,-103.06"/>
<polygon fill="black" stroke="black" points="193.31,-106.31 201.46,-99.54 190.87,-99.75 193.31,-106.31"/>
<text text-anchor="middle" x="178.6" y="-112.34" font-family="Times New Roman,serif" font-size="14.00">b</text>
</g>
<!-- 28&#45;&gt;59 -->
<g id="edge10" class="edge">
<title>28&#45;&gt;59</title>
<path fill="none" stroke="black" d="M156.57,-71.2C164.58,-72.67 174.19,-74.78 182.6,-77.54 186,-78.66 189.52,-80.01 192.95,-81.45"/>
<polygon fill="black" stroke="black" points="191.66,-84.71 202.22,-85.61 194.53,-78.33 191.66,-84.71"/>
<text text-anchor="middle" x="178.6" y="-81.34" font-family="Times New Roman,serif" font-size="14.00">a</text>
</g>
<!-- 39 -->
<g id="node16" class="node">
<title>39</title>
<ellipse fill="none" stroke="black" cx="386.6" cy="-39.54" rx="18" ry="18"/>
</g>
<!-- 28&#45;&gt;39 -->
<g id="edge11" class="edge">
<title>28&#45;&gt;39</title>
<path fill="none" stroke="black" d="M156.51,-66.55C198.46,-61.6 307.63,-48.74 358.62,-42.72"/>
<polygon fill="black" stroke="black" points="359.05,-46.2 368.57,-41.55 358.23,-39.25 359.05,-46.2"/>
<text text-anchor="middle" x="258.6" y="-59.34" font-family="Times New Roman,serif" font-size="14.00">b</text>
</g>
<!-- 19&#45;&gt;211 -->
<g id="edge5" class="edge">
<title>19&#45;&gt;211</title>
<path fill="none" stroke="black" d="M236.99,-156.54C246.71,-156.54 259.11,-156.54 270.45,-156.54"/>
<polygon fill="black" stroke="black" points="270.45,-160.04 280.45,-156.54 270.45,-153.04 270.45,-160.04"/>
<text text-anchor="middle" x="258.6" y="-160.34" font-family="Times New Roman,serif" font-size="14.00">b</text>
</g>
<!-- 19&#45;&gt;411 -->
<g id="edge4" class="edge">
<title>19&#45;&gt;411</title>
<path fill="none" stroke="black" d="M224.08,-173.9C233.12,-204.42 256.63,-264.54 301.6,-264.54 301.6,-264.54 301.6,-264.54 891.6,-264.54 930.02,-264.54 952.99,-220.44 964.46,-189.13"/>
<polygon fill="black" stroke="black" points="967.84,-190.08 967.79,-179.49 961.22,-187.8 967.84,-190.08"/>
<text text-anchor="middle" x="594.6" y="-268.34" font-family="Times New Roman,serif" font-size="14.00">a</text>
</g>
<!-- 111 -->
<g id="node11" class="node">
<title>111</title>
<ellipse fill="none" stroke="black" cx="638.6" cy="-102.54" rx="18" ry="18"/>
</g>
<!-- 111&#45;&gt;410 -->
<g id="edge6" class="edge">
<title>111&#45;&gt;410</title>
<path fill="none" stroke="black" d="M621.45,-96.11C612.14,-92.13 600.39,-86.63 590.6,-80.54 585.93,-77.64 581.17,-74.2 576.72,-70.75"/>
<polygon fill="black" stroke="black" points="578.65,-67.81 568.68,-64.23 574.24,-73.25 578.65,-67.81"/>
<text text-anchor="middle" x="594.6" y="-88.34" font-family="Times New Roman,serif" font-size="14.00">a</text>
</g>
<!-- 111&#45;&gt;210 -->
<g id="edge7" class="edge">
<title>111&#45;&gt;210</title>
<path fill="none" stroke="black" d="M655.02,-95.02C666.75,-89.3 683.11,-81.32 696.68,-74.7"/>
<polygon fill="black" stroke="black" points="698.51,-77.7 705.97,-70.17 695.44,-71.41 698.51,-77.7"/>
<text text-anchor="middle" x="682.6" y="-86.34" font-family="Times New Roman,serif" font-size="14.00">b</text>
</g>
<!-- 410&#45;&gt;511 -->
<g id="edge27" class="edge">
<title>410&#45;&gt;511</title>
<path fill="none" stroke="black" d="M568.15,-40.66C574.39,-35.57 582.35,-30.19 590.6,-27.54 596.77,-25.57 603.43,-26 609.74,-27.59"/>
<polygon fill="black" stroke="black" points="608.65,-30.92 619.24,-30.86 610.92,-24.3 608.65,-30.92"/>
<text text-anchor="middle" x="594.6" y="-31.34" font-family="Times New Roman,serif" font-size="14.00">b</text>
</g>
<!-- 410&#45;&gt;111 -->
<g id="edge26" class="edge">
<title>410&#45;&gt;111</title>
<path fill="none" stroke="black" d="M572.76,-53.75C580.99,-54.91 590.74,-57.16 598.6,-61.54 606.99,-66.22 614.66,-73.3 620.93,-80.27"/>
<polygon fill="black" stroke="black" points="618.51,-82.83 627.62,-88.25 623.88,-78.34 618.51,-82.83"/>
<text text-anchor="middle" x="594.6" y="-65.34" font-family="Times New Roman,serif" font-size="14.00">a</text>
</g>
<!-- 210&#45;&gt;311 -->
<g id="edge15" class="edge">
<title>210&#45;&gt;311</title>
<path fill="none" stroke="black" d="M740.59,-59.23C750.53,-57.29 763.38,-54.78 775.03,-52.51"/>
<polygon fill="black" stroke="black" points="775.71,-55.94 784.85,-50.59 774.36,-49.07 775.71,-55.94"/>
<text text-anchor="middle" x="762.6" y="-59.34" font-family="Times New Roman,serif" font-size="14.00">b</text>
</g>
<!-- 210&#45;&gt;511 -->
<g id="edge14" class="edge">
<title>210&#45;&gt;511</title>
<path fill="none" stroke="black" d="M707.76,-51.87C701.63,-47.79 694.11,-43.62 686.6,-41.54 681.52,-40.14 676.01,-39.44 670.61,-39.18"/>
<polygon fill="black" stroke="black" points="670.52,-35.68 660.51,-39.17 670.51,-42.68 670.52,-35.68"/>
<text text-anchor="middle" x="682.6" y="-45.34" font-family="Times New Roman,serif" font-size="14.00">a</text>
</g>
<!-- 110&#45;&gt;211 -->
<g id="edge9" class="edge">
<title>110&#45;&gt;211</title>
<path fill="none" stroke="black" d="M883.82,-148.53C873.32,-175.85 848.34,-226.54 807.6,-226.54 385.6,-226.54 385.6,-226.54 385.6,-226.54 358.04,-226.54 335.06,-203.4 320.51,-183.72"/>
<polygon fill="black" stroke="black" points="323.22,-181.49 314.61,-175.3 317.48,-185.5 323.22,-181.49"/>
<text text-anchor="middle" x="594.6" y="-230.34" font-family="Times New Roman,serif" font-size="14.00">b</text>
</g>
<!-- 110&#45;&gt;411 -->
<g id="edge8" class="edge">
<title>110&#45;&gt;411</title>
<path fill="none" stroke="black" d="M907.07,-123.5C915.41,-120.26 925.77,-118.02 934.6,-121.54 941.63,-124.35 948.12,-129.09 953.71,-134.26"/>
<polygon fill="black" stroke="black" points="951.24,-136.74 960.74,-141.44 956.24,-131.84 951.24,-136.74"/>
<text text-anchor="middle" x="930.6" y="-125.34" font-family="Times New Roman,serif" font-size="14.00">a</text>
</g>
<!-- 59&#45;&gt;211 -->
<g id="edge28" class="edge">
<title>59&#45;&gt;211</title>
<path fill="none" stroke="black" d="M233.51,-104.23C245.35,-113.33 262.65,-126.62 276.85,-137.52"/>
<polygon fill="black" stroke="black" points="274.72,-140.31 284.78,-143.62 278.98,-134.75 274.72,-140.31"/>
<text text-anchor="middle" x="258.6" y="-128.34" font-family="Times New Roman,serif" font-size="14.00">a</text>
</g>
<!-- 59&#45;&gt;611 -->
<g id="edge29" class="edge">
<title>59&#45;&gt;611</title>
<path fill="none" stroke="black" d="M236.78,-92.24C278.38,-89.08 384.96,-80.98 438.26,-76.93"/>
<polygon fill="black" stroke="black" points="438.78,-80.4 448.48,-76.15 438.25,-73.42 438.78,-80.4"/>
<text text-anchor="middle" x="346.6" y="-87.34" font-family="Times New Roman,serif" font-size="14.00">b</text>
</g>
<!-- 39&#45;&gt;611 -->
<g id="edge16" class="edge">
<title>39&#45;&gt;611</title>
<path fill="none" stroke="black" d="M403.61,-45.63C411.74,-48.78 421.74,-52.75 430.6,-56.54 434.02,-58.01 437.6,-59.59 441.13,-61.18"/>
<polygon fill="black" stroke="black" points="439.71,-64.38 450.25,-65.36 442.62,-58.01 439.71,-64.38"/>
<text text-anchor="middle" x="426.6" y="-60.34" font-family="Times New Roman,serif" font-size="14.00">a</text>
</g>
<!-- 39&#45;&gt;111 -->
<g id="edge17" class="edge">
<title>39&#45;&gt;111</title>
<path fill="none" stroke="black" d="M402.93,-31.93C440.83,-14.31 540.06,24.29 598.6,-22.54 617.04,-37.3 605.73,-51.57 616.6,-72.54 617.94,-75.14 619.48,-77.76 621.1,-80.33"/>
<polygon fill="black" stroke="black" points="618.25,-82.37 626.75,-88.69 624.05,-78.44 618.25,-82.37"/>
<text text-anchor="middle" x="514.6" y="-5.34" font-family="Times New Roman,serif" font-size="14.00">b</text>
</g>
<!-- 510&#45;&gt;211 -->
<g id="edge32" class="edge">
<title>510&#45;&gt;211</title>
<path fill="none" stroke="black" d="M368.28,-174.57C360.37,-174.68 350.93,-174.29 342.6,-172.54 339.13,-171.82 335.57,-170.79 332.09,-169.61"/>
<polygon fill="black" stroke="black" points="333.19,-166.28 322.6,-165.96 330.68,-172.81 333.19,-166.28"/>
<text text-anchor="middle" x="346.6" y="-177.34" font-family="Times New Roman,serif" font-size="14.00">a</text>
</g>
<!-- 510&#45;&gt;611 -->
<g id="edge33" class="edge">
<title>510&#45;&gt;611</title>
<path fill="none" stroke="black" d="M402.25,-163.98C411.13,-157.72 422.31,-148.98 430.6,-139.54 440.13,-128.7 448.65,-115.22 455.28,-103.35"/>
<polygon fill="black" stroke="black" points="458.52,-104.72 460.18,-94.25 452.35,-101.4 458.52,-104.72"/>
<text text-anchor="middle" x="426.6" y="-150.34" font-family="Times New Roman,serif" font-size="14.00">b</text>
</g>
<!-- 310&#45;&gt;611 -->
<g id="edge20" class="edge">
<title>310&#45;&gt;611</title>
<path fill="none" stroke="black" d="M539.5,-123.4C527.92,-115.06 511.2,-103.03 497.25,-93"/>
<polygon fill="black" stroke="black" points="499.15,-90.06 488.99,-87.06 495.06,-95.74 499.15,-90.06"/>
<text text-anchor="middle" x="514.6" y="-111.34" font-family="Times New Roman,serif" font-size="14.00">a</text>
</g>
<!-- 310&#45;&gt;111 -->
<g id="edge21" class="edge">
<title>310&#45;&gt;111</title>
<path fill="none" stroke="black" d="M572.01,-128.05C580.06,-125.3 589.88,-121.85 598.6,-118.54 603.03,-116.86 607.72,-115.01 612.24,-113.18"/>
<polygon fill="black" stroke="black" points="613.82,-116.31 621.74,-109.28 611.16,-109.84 613.82,-116.31"/>
<text text-anchor="middle" x="594.6" y="-124.34" font-family="Times New Roman,serif" font-size="14.00">b</text>
</g>
<!-- 610&#45;&gt;311 -->
<g id="edge36" class="edge">
<title>610&#45;&gt;311</title>
<path fill="none" stroke="black" d="M879.34,-44.25C873.12,-36.86 864.49,-28.56 854.6,-24.54 847.2,-21.54 839.3,-23.25 832.12,-26.77"/>
<polygon fill="black" stroke="black" points="830.26,-23.81 823.51,-31.98 833.88,-29.8 830.26,-23.81"/>
<text text-anchor="middle" x="850.6" y="-28.34" font-family="Times New Roman,serif" font-size="14.00">a</text>
</g>
<!-- 610&#45;&gt;411 -->
<g id="edge37" class="edge">
<title>610&#45;&gt;411</title>
<path fill="none" stroke="black" d="M904.71,-70.04C913.61,-78.14 925.38,-89.48 934.6,-100.54 942.65,-110.21 950.57,-121.55 957.15,-131.63"/>
<polygon fill="black" stroke="black" points="954.23,-133.55 962.56,-140.09 960.12,-129.78 954.23,-133.55"/>
<text text-anchor="middle" x="930.6" y="-104.34" font-family="Times New Roman,serif" font-size="14.00">b</text>
</g>
</g>
</svg>
