<?xml version="1.0" encoding="UTF-8" standalone="no"?>
<!DOCTYPE svg PUBLIC "-//W3C//DTD SVG 1.1//EN"
 "http://www.w3.org/Graphics/SVG/1.1/DTD/svg11.dtd">
<!-- Generated by graphviz version 3.0.0 (20220226.1711)
 -->
<!-- Title: G Pages: 1 -->
<svg width="344pt" height="130pt"
 viewBox="0.00 0.00 343.60 130.00" xmlns="http://www.w3.org/2000/svg" xmlns:xlink="http://www.w3.org/1999/xlink">
<g id="graph0" class="graph" transform="scale(1 1) rotate(0) translate(4 126)">
<title>G</title>
<polygon fill="white" stroke="transparent" points="-4,4 -4,-126 339.6,-126 339.6,4 -4,4"/>
<!-- 0 -->
<g id="node1" class="node">
<title>0</title>
<ellipse fill="black" stroke="black" cx="1.8" cy="-64" rx="1.8" ry="1.8"/>
</g>
<!-- 1 -->
<g id="node2" class="node">
<title>1</title>
<ellipse fill="none" stroke="black" cx="58.6" cy="-64" rx="18" ry="18"/>
<text text-anchor="middle" x="58.6" y="-60.3" font-family="Times New Roman,serif" font-size="14.00">1</text>
</g>
<!-- 0&#45;&gt;1 -->
<g id="edge1" class="edge">
<title>0&#45;&gt;1</title>
<path fill="none" stroke="black" d="M3.75,-64C7.11,-64 18.87,-64 30.55,-64"/>
<polygon fill="black" stroke="black" points="30.58,-67.5 40.58,-64 30.58,-60.5 30.58,-67.5"/>
</g>
<!-- 2 -->
<g id="node3" class="node">
<title>2</title>
<ellipse fill="none" stroke="black" cx="153.6" cy="-64" rx="18" ry="18"/>
<ellipse fill="none" stroke="black" cx="153.6" cy="-64" rx="22" ry="22"/>
<text text-anchor="middle" x="153.6" y="-60.3" font-family="Times New Roman,serif" font-size="14.00">2</text>
</g>
<!-- 1&#45;&gt;2 -->
<g id="edge2" class="edge">
<title>1&#45;&gt;2</title>
<path fill="none" stroke="black" d="M76.66,-64C89.06,-64 106.22,-64 121.09,-64"/>
<polygon fill="black" stroke="black" points="121.41,-67.5 131.41,-64 121.41,-60.5 121.41,-67.5"/>
<text text-anchor="middle" x="104.1" y="-67.8" font-family="Times New Roman,serif" font-size="14.00">b,c</text>
</g>
<!-- 2&#45;&gt;2 -->
<g id="edge7" class="edge">
<title>2&#45;&gt;2</title>
<path fill="none" stroke="black" d="M145.59,-84.58C144.49,-94.84 147.15,-104 153.6,-104 157.73,-104 160.31,-100.24 161.34,-94.84"/>
<polygon fill="black" stroke="black" points="164.84,-94.67 161.61,-84.58 157.85,-94.49 164.84,-94.67"/>
<text text-anchor="middle" x="153.6" y="-107.8" font-family="Times New Roman,serif" font-size="14.00">c</text>
</g>
<!-- 3 -->
<g id="node4" class="node">
<title>3</title>
<ellipse fill="none" stroke="black" cx="237.6" cy="-77" rx="18" ry="18"/>
<text text-anchor="middle" x="237.6" y="-73.3" font-family="Times New Roman,serif" font-size="14.00">3</text>
</g>
<!-- 2&#45;&gt;3 -->
<g id="edge3" class="edge">
<title>2&#45;&gt;3</title>
<path fill="none" stroke="black" d="M175.72,-67.35C186.07,-68.99 198.66,-70.99 209.7,-72.74"/>
<polygon fill="black" stroke="black" points="209.26,-76.21 219.68,-74.32 210.36,-69.3 209.26,-76.21"/>
<text text-anchor="middle" x="197.6" y="-74.8" font-family="Times New Roman,serif" font-size="14.00">a</text>
</g>
<!-- 4 -->
<g id="node6" class="node">
<title>4</title>
<ellipse fill="none" stroke="black" cx="237.6" cy="-18" rx="18" ry="18"/>
<text text-anchor="middle" x="237.6" y="-14.3" font-family="Times New Roman,serif" font-size="14.00">4</text>
</g>
<!-- 2&#45;&gt;4 -->
<g id="edge8" class="edge">
<title>2&#45;&gt;4</title>
<path fill="none" stroke="black" d="M173.21,-53.56C184.88,-47.01 200.05,-38.51 212.62,-31.45"/>
<polygon fill="black" stroke="black" points="214.61,-34.35 221.62,-26.4 211.19,-28.24 214.61,-34.35"/>
<text text-anchor="middle" x="197.6" y="-44.8" font-family="Times New Roman,serif" font-size="14.00">b</text>
</g>
<!-- 5 -->
<g id="node5" class="node">
<title>5</title>
<ellipse fill="none" stroke="black" cx="317.6" cy="-101" rx="18" ry="18"/>
<text text-anchor="middle" x="317.6" y="-97.3" font-family="Times New Roman,serif" font-size="14.00">5</text>
</g>
<!-- 3&#45;&gt;5 -->
<g id="edge4" class="edge">
<title>3&#45;&gt;5</title>
<path fill="none" stroke="black" d="M255.14,-82.09C265.38,-85.24 278.75,-89.35 290.4,-92.94"/>
<polygon fill="black" stroke="black" points="289.49,-96.32 300.08,-95.92 291.55,-89.63 289.49,-96.32"/>
<text text-anchor="middle" x="277.6" y="-92.8" font-family="Times New Roman,serif" font-size="14.00">b</text>
</g>
<!-- 5&#45;&gt;2 -->
<g id="edge6" class="edge">
<title>5&#45;&gt;2:ne</title>
<path fill="none" stroke="black" d="M299.97,-105.02C294.19,-106.24 287.64,-107.4 281.6,-108 278.06,-108.35 277.15,-108.13 273.6,-108 249.55,-107.11 243.14,-109.01 219.6,-104 199.57,-99.74 188.05,-102.97 174.83,-88.16"/>
<polygon fill="black" stroke="black" points="177.45,-85.82 168.6,-80 171.89,-90.07 177.45,-85.82"/>
<text text-anchor="middle" x="237.6" y="-110.8" font-family="Times New Roman,serif" font-size="14.00">c</text>
</g>
<!-- 5&#45;&gt;3 -->
<g id="edge5" class="edge">
<title>5&#45;&gt;3</title>
<path fill="none" stroke="black" d="M305.87,-87.2C299.63,-80.32 291.12,-72.69 281.6,-69 276.2,-66.9 270.21,-66.77 264.45,-67.61"/>
<polygon fill="black" stroke="black" points="263.43,-64.25 254.51,-69.96 265.05,-71.06 263.43,-64.25"/>
<text text-anchor="middle" x="277.6" y="-72.8" font-family="Times New Roman,serif" font-size="14.00">a</text>
</g>
<!-- 4&#45;&gt;2 -->
<g id="edge9" class="edge">
<title>4&#45;&gt;2</title>
<path fill="none" stroke="black" d="M219.54,-15.29C211.33,-14.74 201.57,-15.25 193.6,-19 185.13,-22.99 177.77,-29.79 171.8,-36.91"/>
<polygon fill="black" stroke="black" points="168.71,-35.19 165.44,-45.26 174.28,-39.43 168.71,-35.19"/>
<text text-anchor="middle" x="197.6" y="-22.8" font-family="Times New Roman,serif" font-size="14.00">a</text>
</g>
</g>
</svg>
