<?xml version="1.0" encoding="UTF-8" standalone="no"?>
<!DOCTYPE svg PUBLIC "-//W3C//DTD SVG 1.1//EN"
 "http://www.w3.org/Graphics/SVG/1.1/DTD/svg11.dtd">
<!-- Generated by graphviz version 3.0.0 (20220226.1711)
 -->
<!-- Title: G Pages: 1 -->
<svg width="551pt" height="407pt"
 viewBox="0.00 0.00 550.58 407.50" xmlns="http://www.w3.org/2000/svg" xmlns:xlink="http://www.w3.org/1999/xlink">
<g id="graph0" class="graph" transform="scale(1 1) rotate(0) translate(4 403.5)">
<title>G</title>
<polygon fill="white" stroke="transparent" points="-4,4 -4,-403.5 546.58,-403.5 546.58,4 -4,4"/>
<!-- 0 -->
<g id="node1" class="node">
<title>0</title>
<ellipse fill="black" stroke="black" cx="1.8" cy="-22" rx="1.8" ry="1.8"/>
</g>
<!-- 1 -->
<g id="node2" class="node">
<title>1</title>
<ellipse fill="none" stroke="black" cx="64.1" cy="-22" rx="18" ry="18"/>
<ellipse fill="none" stroke="black" cx="64.1" cy="-22" rx="22" ry="22"/>
<text text-anchor="middle" x="64.1" y="-18.3" font-family="Times New Roman,serif" font-size="14.00">1</text>
</g>
<!-- 0&#45;&gt;1 -->
<g id="edge1" class="edge">
<title>0&#45;&gt;1</title>
<path fill="none" stroke="black" d="M3.85,-22C7.39,-22 19.4,-22 31.69,-22"/>
<polygon fill="black" stroke="black" points="31.9,-25.5 41.9,-22 31.9,-18.5 31.9,-25.5"/>
</g>
<!-- 1&#45;&gt;1 -->
<g id="edge2" class="edge">
<title>1&#45;&gt;1</title>
<path fill="none" stroke="black" d="M56.78,-42.99C55.88,-53.09 58.32,-62 64.1,-62 67.8,-62 70.13,-58.34 71.09,-53.06"/>
<polygon fill="black" stroke="black" points="74.59,-53.1 71.42,-42.99 67.6,-52.87 74.59,-53.1"/>
<text text-anchor="middle" x="64.1" y="-65.8" font-family="Times New Roman,serif" font-size="14.00">b</text>
</g>
<!-- 2 -->
<g id="node3" class="node">
<title>2</title>
<ellipse fill="none" stroke="black" cx="155.09" cy="-22" rx="18" ry="18"/>
<ellipse fill="none" stroke="black" cx="155.09" cy="-22" rx="22" ry="22"/>
<text text-anchor="middle" x="155.09" y="-18.3" font-family="Times New Roman,serif" font-size="14.00">2</text>
</g>
<!-- 1&#45;&gt;2 -->
<g id="edge3" class="edge">
<title>1&#45;&gt;2</title>
<path fill="none" stroke="black" d="M86.19,-22C97.08,-22 110.59,-22 122.69,-22"/>
<polygon fill="black" stroke="black" points="122.85,-25.5 132.85,-22 122.85,-18.5 122.85,-25.5"/>
<text text-anchor="middle" x="109.6" y="-25.8" font-family="Times New Roman,serif" font-size="14.00">a</text>
</g>
<!-- 2&#45;&gt;2 -->
<g id="edge4" class="edge">
<title>2&#45;&gt;2</title>
<path fill="none" stroke="black" d="M147.09,-42.58C145.98,-52.84 148.65,-62 155.09,-62 159.22,-62 161.8,-58.24 162.83,-52.84"/>
<polygon fill="black" stroke="black" points="166.34,-52.67 163.1,-42.58 159.34,-52.49 166.34,-52.67"/>
<text text-anchor="middle" x="155.09" y="-65.8" font-family="Times New Roman,serif" font-size="14.00">b</text>
</g>
<!-- 3 -->
<g id="node4" class="node">
<title>3</title>
<ellipse fill="none" stroke="black" cx="246.09" cy="-22" rx="18" ry="18"/>
<ellipse fill="none" stroke="black" cx="246.09" cy="-22" rx="22" ry="22"/>
<text text-anchor="middle" x="246.09" y="-18.3" font-family="Times New Roman,serif" font-size="14.00">3</text>
</g>
<!-- 2&#45;&gt;3 -->
<g id="edge5" class="edge">
<title>2&#45;&gt;3</title>
<path fill="none" stroke="black" d="M177.19,-22C188.08,-22 201.59,-22 213.68,-22"/>
<polygon fill="black" stroke="black" points="213.84,-25.5 223.84,-22 213.84,-18.5 213.84,-25.5"/>
<text text-anchor="middle" x="200.59" y="-25.8" font-family="Times New Roman,serif" font-size="14.00">a</text>
</g>
<!-- 3&#45;&gt;3 -->
<g id="edge6" class="edge">
<title>3&#45;&gt;3</title>
<path fill="none" stroke="black" d="M238.09,-42.58C236.98,-52.84 239.65,-62 246.09,-62 250.22,-62 252.8,-58.24 253.83,-52.84"/>
<polygon fill="black" stroke="black" points="257.33,-52.67 254.1,-42.58 250.34,-52.49 257.33,-52.67"/>
<text text-anchor="middle" x="246.09" y="-65.8" font-family="Times New Roman,serif" font-size="14.00">b</text>
</g>
<!-- 7 -->
<g id="node5" class="node">
<title>7</title>
<ellipse fill="none" stroke="black" cx="337.09" cy="-22" rx="18" ry="18"/>
<text text-anchor="middle" x="337.09" y="-18.3" font-family="Times New Roman,serif" font-size="14.00">7</text>
</g>
<!-- 3&#45;&gt;7 -->
<g id="edge7" class="edge">
<title>3&#45;&gt;7</title>
<path fill="none" stroke="black" d="M268.18,-22C280.31,-22 295.68,-22 308.73,-22"/>
<polygon fill="black" stroke="black" points="309.02,-25.5 319.02,-22 309.02,-18.5 309.02,-25.5"/>
<text text-anchor="middle" x="291.59" y="-25.8" font-family="Times New Roman,serif" font-size="14.00">a</text>
</g>
<!-- 7&#45;&gt;7 -->
<g id="edge8" class="edge">
<title>7&#45;&gt;7</title>
<path fill="none" stroke="black" d="M329.42,-38.29C327.57,-48.39 330.13,-58 337.09,-58 341.55,-58 344.2,-54.06 345.04,-48.57"/>
<polygon fill="black" stroke="black" points="348.53,-48.19 344.76,-38.29 341.54,-48.38 348.53,-48.19"/>
<text text-anchor="middle" x="337.09" y="-61.8" font-family="Times New Roman,serif" font-size="14.00">a,b</text>
</g>
<!-- 00 -->
<g id="node6" class="node">
<title>00</title>
<ellipse fill="black" stroke="black" cx="1.8" cy="-117" rx="1.8" ry="1.8"/>
</g>
<!-- 4 -->
<g id="node7" class="node">
<title>4</title>
<ellipse fill="none" stroke="black" cx="64.1" cy="-117" rx="18" ry="18"/>
<text text-anchor="middle" x="64.1" y="-113.3" font-family="Times New Roman,serif" font-size="14.00">4</text>
</g>
<!-- 00&#45;&gt;4 -->
<g id="edge9" class="edge">
<title>00&#45;&gt;4</title>
<path fill="none" stroke="black" d="M3.85,-117C7.78,-117 22.18,-117 35.8,-117"/>
<polygon fill="black" stroke="black" points="35.87,-120.5 45.87,-117 35.87,-113.5 35.87,-120.5"/>
</g>
<!-- 4&#45;&gt;4 -->
<g id="edge11" class="edge">
<title>4&#45;&gt;4</title>
<path fill="none" stroke="black" d="M57.07,-133.66C55.5,-143.62 57.85,-153 64.1,-153 68.1,-153 70.5,-149.15 71.3,-143.77"/>
<polygon fill="black" stroke="black" points="74.8,-143.6 71.13,-133.66 67.8,-143.72 74.8,-143.6"/>
<text text-anchor="middle" x="64.1" y="-156.8" font-family="Times New Roman,serif" font-size="14.00">a</text>
</g>
<!-- 5 -->
<g id="node8" class="node">
<title>5</title>
<ellipse fill="none" stroke="black" cx="155.09" cy="-117" rx="18" ry="18"/>
<text text-anchor="middle" x="155.09" y="-113.3" font-family="Times New Roman,serif" font-size="14.00">5</text>
</g>
<!-- 4&#45;&gt;5 -->
<g id="edge10" class="edge">
<title>4&#45;&gt;5</title>
<path fill="none" stroke="black" d="M82.26,-117C94.82,-117 112.12,-117 126.59,-117"/>
<polygon fill="black" stroke="black" points="126.99,-120.5 136.99,-117 126.99,-113.5 126.99,-120.5"/>
<text text-anchor="middle" x="109.6" y="-120.8" font-family="Times New Roman,serif" font-size="14.00">b</text>
</g>
<!-- 5&#45;&gt;5 -->
<g id="edge13" class="edge">
<title>5&#45;&gt;5</title>
<path fill="none" stroke="black" d="M147.43,-133.29C145.58,-143.39 148.13,-153 155.09,-153 159.55,-153 162.21,-149.06 163.05,-143.57"/>
<polygon fill="black" stroke="black" points="166.54,-143.19 162.76,-133.29 159.54,-143.38 166.54,-143.19"/>
<text text-anchor="middle" x="155.09" y="-156.8" font-family="Times New Roman,serif" font-size="14.00">a</text>
</g>
<!-- 6 -->
<g id="node9" class="node">
<title>6</title>
<ellipse fill="none" stroke="black" cx="246.09" cy="-117" rx="18" ry="18"/>
<ellipse fill="none" stroke="black" cx="246.09" cy="-117" rx="22" ry="22"/>
<text text-anchor="middle" x="246.09" y="-113.3" font-family="Times New Roman,serif" font-size="14.00">6</text>
</g>
<!-- 5&#45;&gt;6 -->
<g id="edge12" class="edge">
<title>5&#45;&gt;6</title>
<path fill="none" stroke="black" d="M173.25,-117C184.65,-117 199.96,-117 213.51,-117"/>
<polygon fill="black" stroke="black" points="213.9,-120.5 223.9,-117 213.9,-113.5 213.9,-120.5"/>
<text text-anchor="middle" x="200.59" y="-120.8" font-family="Times New Roman,serif" font-size="14.00">b</text>
</g>
<!-- 6&#45;&gt;6 -->
<g id="edge14" class="edge">
<title>6&#45;&gt;6</title>
<path fill="none" stroke="black" d="M238.09,-137.58C236.98,-147.84 239.65,-157 246.09,-157 250.22,-157 252.8,-153.24 253.83,-147.84"/>
<polygon fill="black" stroke="black" points="257.33,-147.67 254.1,-137.58 250.34,-147.49 257.33,-147.67"/>
<text text-anchor="middle" x="246.09" y="-160.8" font-family="Times New Roman,serif" font-size="14.00">a,b</text>
</g>
<!-- 000 -->
<g id="node10" class="node">
<title>000</title>
<ellipse fill="black" stroke="black" cx="1.8" cy="-280" rx="1.8" ry="1.8"/>
</g>
<!-- 14 -->
<g id="node11" class="node">
<title>14</title>
<ellipse fill="none" stroke="black" cx="64.1" cy="-280" rx="19.5" ry="19.5"/>
<ellipse fill="none" stroke="black" cx="64.1" cy="-280" rx="23.5" ry="23.5"/>
<text text-anchor="middle" x="64.1" y="-276.3" font-family="Times New Roman,serif" font-size="14.00">14</text>
</g>
<!-- 000&#45;&gt;14 -->
<g id="edge15" class="edge">
<title>000&#45;&gt;14</title>
<path fill="none" stroke="black" d="M3.85,-280C7.23,-280 18.36,-280 30.06,-280"/>
<polygon fill="black" stroke="black" points="30.32,-283.5 40.32,-280 30.32,-276.5 30.32,-283.5"/>
</g>
<!-- 15 -->
<g id="node12" class="node">
<title>15</title>
<ellipse fill="none" stroke="black" cx="155.09" cy="-313" rx="19.5" ry="19.5"/>
<ellipse fill="none" stroke="black" cx="155.09" cy="-313" rx="23.5" ry="23.5"/>
<text text-anchor="middle" x="155.09" y="-309.3" font-family="Times New Roman,serif" font-size="14.00">15</text>
</g>
<!-- 14&#45;&gt;15 -->
<g id="edge17" class="edge">
<title>14&#45;&gt;15</title>
<path fill="none" stroke="black" d="M86.64,-287.99C97.57,-292.04 111.05,-297.04 123.08,-301.5"/>
<polygon fill="black" stroke="black" points="122.16,-304.89 132.75,-305.09 124.59,-298.33 122.16,-304.89"/>
<text text-anchor="middle" x="109.6" y="-300.8" font-family="Times New Roman,serif" font-size="14.00">b</text>
</g>
<!-- 24 -->
<g id="node14" class="node">
<title>24</title>
<ellipse fill="none" stroke="black" cx="155.09" cy="-248" rx="19.5" ry="19.5"/>
<ellipse fill="none" stroke="black" cx="155.09" cy="-248" rx="23.5" ry="23.5"/>
<text text-anchor="middle" x="155.09" y="-244.3" font-family="Times New Roman,serif" font-size="14.00">24</text>
</g>
<!-- 14&#45;&gt;24 -->
<g id="edge16" class="edge">
<title>14&#45;&gt;24</title>
<path fill="none" stroke="black" d="M86.64,-272.25C97.57,-268.32 111.05,-263.48 123.08,-259.15"/>
<polygon fill="black" stroke="black" points="124.52,-262.35 132.75,-255.67 122.16,-255.77 124.52,-262.35"/>
<text text-anchor="middle" x="109.6" y="-267.8" font-family="Times New Roman,serif" font-size="14.00">a</text>
</g>
<!-- 16 -->
<g id="node13" class="node">
<title>16</title>
<ellipse fill="none" stroke="black" cx="246.09" cy="-343" rx="19.5" ry="19.5"/>
<ellipse fill="none" stroke="black" cx="246.09" cy="-343" rx="23.5" ry="23.5"/>
<text text-anchor="middle" x="246.09" y="-339.3" font-family="Times New Roman,serif" font-size="14.00">16</text>
</g>
<!-- 15&#45;&gt;16 -->
<g id="edge19" class="edge">
<title>15&#45;&gt;16</title>
<path fill="none" stroke="black" d="M177.64,-320.26C188.49,-323.92 201.85,-328.42 213.81,-332.45"/>
<polygon fill="black" stroke="black" points="212.84,-335.82 223.44,-335.7 215.08,-329.19 212.84,-335.82"/>
<text text-anchor="middle" x="200.59" y="-331.8" font-family="Times New Roman,serif" font-size="14.00">b</text>
</g>
<!-- 25 -->
<g id="node15" class="node">
<title>25</title>
<ellipse fill="none" stroke="black" cx="246.09" cy="-278" rx="19.5" ry="19.5"/>
<ellipse fill="none" stroke="black" cx="246.09" cy="-278" rx="23.5" ry="23.5"/>
<text text-anchor="middle" x="246.09" y="-274.3" font-family="Times New Roman,serif" font-size="14.00">25</text>
</g>
<!-- 15&#45;&gt;25 -->
<g id="edge18" class="edge">
<title>15&#45;&gt;25</title>
<path fill="none" stroke="black" d="M177.19,-304.71C188.3,-300.33 202.13,-294.89 214.41,-290.07"/>
<polygon fill="black" stroke="black" points="215.82,-293.27 223.84,-286.36 213.26,-286.76 215.82,-293.27"/>
<text text-anchor="middle" x="200.59" y="-299.8" font-family="Times New Roman,serif" font-size="14.00">a</text>
</g>
<!-- 16&#45;&gt;16 -->
<g id="edge21" class="edge">
<title>16&#45;&gt;16</title>
<path fill="none" stroke="black" d="M238,-365.2C237.12,-375.5 239.82,-384.5 246.09,-384.5 250.11,-384.5 252.66,-380.81 253.74,-375.44"/>
<polygon fill="black" stroke="black" points="257.25,-375.34 254.18,-365.2 250.26,-375.04 257.25,-375.34"/>
<text text-anchor="middle" x="246.09" y="-388.3" font-family="Times New Roman,serif" font-size="14.00">b</text>
</g>
<!-- 26 -->
<g id="node16" class="node">
<title>26</title>
<ellipse fill="none" stroke="black" cx="337.09" cy="-332" rx="19.5" ry="19.5"/>
<ellipse fill="none" stroke="black" cx="337.09" cy="-332" rx="23.5" ry="23.5"/>
<text text-anchor="middle" x="337.09" y="-328.3" font-family="Times New Roman,serif" font-size="14.00">26</text>
</g>
<!-- 16&#45;&gt;26 -->
<g id="edge20" class="edge">
<title>16&#45;&gt;26</title>
<path fill="none" stroke="black" d="M269.55,-340.22C279.88,-338.95 292.33,-337.41 303.65,-336.01"/>
<polygon fill="black" stroke="black" points="304.14,-339.48 313.64,-334.77 303.28,-332.53 304.14,-339.48"/>
<text text-anchor="middle" x="291.59" y="-340.8" font-family="Times New Roman,serif" font-size="14.00">a</text>
</g>
<!-- 24&#45;&gt;25 -->
<g id="edge23" class="edge">
<title>24&#45;&gt;25</title>
<path fill="none" stroke="black" d="M177.64,-255.26C188.49,-258.92 201.85,-263.42 213.81,-267.45"/>
<polygon fill="black" stroke="black" points="212.84,-270.82 223.44,-270.7 215.08,-264.19 212.84,-270.82"/>
<text text-anchor="middle" x="200.59" y="-266.8" font-family="Times New Roman,serif" font-size="14.00">b</text>
</g>
<!-- 34 -->
<g id="node17" class="node">
<title>34</title>
<ellipse fill="none" stroke="black" cx="246.09" cy="-213" rx="19.5" ry="19.5"/>
<ellipse fill="none" stroke="black" cx="246.09" cy="-213" rx="23.5" ry="23.5"/>
<text text-anchor="middle" x="246.09" y="-209.3" font-family="Times New Roman,serif" font-size="14.00">34</text>
</g>
<!-- 24&#45;&gt;34 -->
<g id="edge22" class="edge">
<title>24&#45;&gt;34</title>
<path fill="none" stroke="black" d="M177.19,-239.71C188.3,-235.33 202.13,-229.89 214.41,-225.07"/>
<polygon fill="black" stroke="black" points="215.82,-228.27 223.84,-221.36 213.26,-221.76 215.82,-228.27"/>
<text text-anchor="middle" x="200.59" y="-235.8" font-family="Times New Roman,serif" font-size="14.00">a</text>
</g>
<!-- 25&#45;&gt;26 -->
<g id="edge25" class="edge">
<title>25&#45;&gt;26</title>
<path fill="none" stroke="black" d="M266.84,-289.98C278.91,-297.31 294.53,-306.79 307.89,-314.89"/>
<polygon fill="black" stroke="black" points="306.33,-318.04 316.7,-320.23 309.96,-312.06 306.33,-318.04"/>
<text text-anchor="middle" x="291.59" y="-309.8" font-family="Times New Roman,serif" font-size="14.00">b</text>
</g>
<!-- 35 -->
<g id="node18" class="node">
<title>35</title>
<ellipse fill="none" stroke="black" cx="337.09" cy="-267" rx="19.5" ry="19.5"/>
<ellipse fill="none" stroke="black" cx="337.09" cy="-267" rx="23.5" ry="23.5"/>
<text text-anchor="middle" x="337.09" y="-263.3" font-family="Times New Roman,serif" font-size="14.00">35</text>
</g>
<!-- 25&#45;&gt;35 -->
<g id="edge24" class="edge">
<title>25&#45;&gt;35</title>
<path fill="none" stroke="black" d="M268.78,-271.71C274.82,-270.21 281.42,-268.82 287.59,-268 292.55,-267.35 297.81,-266.94 302.98,-266.7"/>
<polygon fill="black" stroke="black" points="303.41,-270.19 313.31,-266.43 303.22,-263.2 303.41,-270.19"/>
<text text-anchor="middle" x="291.59" y="-271.8" font-family="Times New Roman,serif" font-size="14.00">a</text>
</g>
<!-- 26&#45;&gt;26 -->
<g id="edge27" class="edge">
<title>26&#45;&gt;26</title>
<path fill="none" stroke="black" d="M329,-354.2C328.12,-364.5 330.81,-373.5 337.09,-373.5 341.11,-373.5 343.66,-369.81 344.74,-364.44"/>
<polygon fill="black" stroke="black" points="348.25,-364.34 345.17,-354.2 341.25,-364.04 348.25,-364.34"/>
<text text-anchor="middle" x="337.09" y="-377.3" font-family="Times New Roman,serif" font-size="14.00">b</text>
</g>
<!-- 36 -->
<g id="node19" class="node">
<title>36</title>
<ellipse fill="none" stroke="black" cx="428.08" cy="-302" rx="19.5" ry="19.5"/>
<ellipse fill="none" stroke="black" cx="428.08" cy="-302" rx="23.5" ry="23.5"/>
<text text-anchor="middle" x="428.08" y="-298.3" font-family="Times New Roman,serif" font-size="14.00">36</text>
</g>
<!-- 26&#45;&gt;36 -->
<g id="edge26" class="edge">
<title>26&#45;&gt;36</title>
<path fill="none" stroke="black" d="M359.63,-324.74C370.48,-321.08 383.84,-316.58 395.8,-312.55"/>
<polygon fill="black" stroke="black" points="397.07,-315.81 405.43,-309.3 394.84,-309.18 397.07,-315.81"/>
<text text-anchor="middle" x="382.59" y="-320.8" font-family="Times New Roman,serif" font-size="14.00">a</text>
</g>
<!-- 34&#45;&gt;35 -->
<g id="edge29" class="edge">
<title>34&#45;&gt;35</title>
<path fill="none" stroke="black" d="M266.84,-224.98C278.91,-232.31 294.53,-241.79 307.89,-249.89"/>
<polygon fill="black" stroke="black" points="306.33,-253.04 316.7,-255.23 309.96,-247.06 306.33,-253.04"/>
<text text-anchor="middle" x="291.59" y="-245.8" font-family="Times New Roman,serif" font-size="14.00">b</text>
</g>
<!-- 74 -->
<g id="node20" class="node">
<title>74</title>
<ellipse fill="none" stroke="black" cx="337.09" cy="-173" rx="19.5" ry="19.5"/>
<text text-anchor="middle" x="337.09" y="-169.3" font-family="Times New Roman,serif" font-size="14.00">74</text>
</g>
<!-- 34&#45;&gt;74 -->
<g id="edge28" class="edge">
<title>34&#45;&gt;74</title>
<path fill="none" stroke="black" d="M264.69,-198.07C271.48,-192.95 279.54,-187.61 287.59,-184 293.79,-181.21 300.77,-179.1 307.45,-177.51"/>
<polygon fill="black" stroke="black" points="308.49,-180.87 317.57,-175.42 307.07,-174.02 308.49,-180.87"/>
<text text-anchor="middle" x="291.59" y="-187.8" font-family="Times New Roman,serif" font-size="14.00">a</text>
</g>
<!-- 35&#45;&gt;36 -->
<g id="edge31" class="edge">
<title>35&#45;&gt;36</title>
<path fill="none" stroke="black" d="M359.18,-275.29C370.29,-279.67 384.13,-285.11 396.41,-289.93"/>
<polygon fill="black" stroke="black" points="395.25,-293.24 405.84,-293.64 397.81,-286.73 395.25,-293.24"/>
<text text-anchor="middle" x="382.59" y="-288.8" font-family="Times New Roman,serif" font-size="14.00">b</text>
</g>
<!-- 75 -->
<g id="node21" class="node">
<title>75</title>
<ellipse fill="none" stroke="black" cx="428.08" cy="-208" rx="19.5" ry="19.5"/>
<text text-anchor="middle" x="428.08" y="-204.3" font-family="Times New Roman,serif" font-size="14.00">75</text>
</g>
<!-- 35&#45;&gt;75 -->
<g id="edge30" class="edge">
<title>35&#45;&gt;75</title>
<path fill="none" stroke="black" d="M357.4,-254.2C370.78,-245.33 388.68,-233.46 403,-223.97"/>
<polygon fill="black" stroke="black" points="404.97,-226.86 411.37,-218.42 401.1,-221.03 404.97,-226.86"/>
<text text-anchor="middle" x="382.59" y="-243.8" font-family="Times New Roman,serif" font-size="14.00">a</text>
</g>
<!-- 36&#45;&gt;36 -->
<g id="edge33" class="edge">
<title>36&#45;&gt;36</title>
<path fill="none" stroke="black" d="M420,-324.2C419.12,-334.5 421.81,-343.5 428.08,-343.5 432.1,-343.5 434.65,-339.81 435.74,-334.44"/>
<polygon fill="black" stroke="black" points="439.24,-334.34 436.17,-324.2 432.25,-334.04 439.24,-334.34"/>
<text text-anchor="middle" x="428.08" y="-347.3" font-family="Times New Roman,serif" font-size="14.00">b</text>
</g>
<!-- 76 -->
<g id="node22" class="node">
<title>76</title>
<ellipse fill="none" stroke="black" cx="519.08" cy="-255" rx="19.5" ry="19.5"/>
<ellipse fill="none" stroke="black" cx="519.08" cy="-255" rx="23.5" ry="23.5"/>
<text text-anchor="middle" x="519.08" y="-251.3" font-family="Times New Roman,serif" font-size="14.00">76</text>
</g>
<!-- 36&#45;&gt;76 -->
<g id="edge32" class="edge">
<title>36&#45;&gt;76</title>
<path fill="none" stroke="black" d="M449.28,-291.33C461,-285.15 475.96,-277.24 488.94,-270.39"/>
<polygon fill="black" stroke="black" points="490.76,-273.39 497.97,-265.62 487.49,-267.2 490.76,-273.39"/>
<text text-anchor="middle" x="473.58" y="-282.8" font-family="Times New Roman,serif" font-size="14.00">a</text>
</g>
<!-- 74&#45;&gt;74 -->
<g id="edge34" class="edge">
<title>74&#45;&gt;74</title>
<path fill="none" stroke="black" d="M329.23,-191.13C327.77,-201.22 330.38,-210.5 337.09,-210.5 341.38,-210.5 344,-206.69 344.94,-201.3"/>
<polygon fill="black" stroke="black" points="348.44,-201.14 344.94,-191.13 341.44,-201.13 348.44,-201.14"/>
<text text-anchor="middle" x="337.09" y="-214.3" font-family="Times New Roman,serif" font-size="14.00">a</text>
</g>
<!-- 74&#45;&gt;75 -->
<g id="edge35" class="edge">
<title>74&#45;&gt;75</title>
<path fill="none" stroke="black" d="M355.67,-179.91C368.35,-184.9 385.69,-191.72 400.11,-197.39"/>
<polygon fill="black" stroke="black" points="398.95,-200.7 409.54,-201.1 401.51,-194.18 398.95,-200.7"/>
<text text-anchor="middle" x="382.59" y="-195.8" font-family="Times New Roman,serif" font-size="14.00">b</text>
</g>
<!-- 75&#45;&gt;75 -->
<g id="edge36" class="edge">
<title>75&#45;&gt;75</title>
<path fill="none" stroke="black" d="M420.23,-226.13C418.76,-236.22 421.38,-245.5 428.08,-245.5 432.38,-245.5 435,-241.69 435.94,-236.3"/>
<polygon fill="black" stroke="black" points="439.44,-236.14 435.94,-226.13 432.44,-236.13 439.44,-236.14"/>
<text text-anchor="middle" x="428.08" y="-249.3" font-family="Times New Roman,serif" font-size="14.00">a</text>
</g>
<!-- 75&#45;&gt;76 -->
<g id="edge37" class="edge">
<title>75&#45;&gt;76</title>
<path fill="none" stroke="black" d="M445.82,-216.84C457.97,-223.25 474.7,-232.09 489.01,-239.65"/>
<polygon fill="black" stroke="black" points="487.51,-242.81 497.99,-244.39 490.78,-236.62 487.51,-242.81"/>
<text text-anchor="middle" x="473.58" y="-236.8" font-family="Times New Roman,serif" font-size="14.00">b</text>
</g>
<!-- 76&#45;&gt;76 -->
<g id="edge38" class="edge">
<title>76&#45;&gt;76</title>
<path fill="none" stroke="black" d="M510.99,-277.2C510.11,-287.5 512.81,-296.5 519.08,-296.5 523.1,-296.5 525.65,-292.81 526.73,-287.44"/>
<polygon fill="black" stroke="black" points="530.24,-287.34 527.17,-277.2 523.25,-287.04 530.24,-287.34"/>
<text text-anchor="middle" x="519.08" y="-300.3" font-family="Times New Roman,serif" font-size="14.00">a,b</text>
</g>
</g>
</svg>
