<?xml version="1.0" encoding="UTF-8" standalone="no"?>
<!DOCTYPE svg PUBLIC "-//W3C//DTD SVG 1.1//EN"
 "http://www.w3.org/Graphics/SVG/1.1/DTD/svg11.dtd">
<!-- Generated by graphviz version 3.0.0 (20220226.1711)
 -->
<!-- Title: G Pages: 1 -->
<svg width="340pt" height="83pt"
 viewBox="0.00 0.00 339.60 83.00" xmlns="http://www.w3.org/2000/svg" xmlns:xlink="http://www.w3.org/1999/xlink">
<g id="graph0" class="graph" transform="scale(1 1) rotate(0) translate(4 79)">
<title>G</title>
<polygon fill="white" stroke="transparent" points="-4,4 -4,-79 335.6,-79 335.6,4 -4,4"/>
<!-- 0 -->
<g id="node1" class="node">
<title>0</title>
<ellipse fill="black" stroke="black" cx="1.8" cy="-22" rx="1.8" ry="1.8"/>
</g>
<!-- 1 -->
<g id="node2" class="node">
<title>1</title>
<ellipse fill="none" stroke="black" cx="58.6" cy="-22" rx="18" ry="18"/>
</g>
<!-- 0&#45;&gt;1 -->
<g id="edge1" class="edge">
<title>0&#45;&gt;1</title>
<path fill="none" stroke="black" d="M3.75,-22C7.11,-22 18.87,-22 30.55,-22"/>
<polygon fill="black" stroke="black" points="30.58,-25.5 40.58,-22 30.58,-18.5 30.58,-25.5"/>
</g>
<!-- 2 -->
<g id="node3" class="node">
<title>2</title>
<ellipse fill="none" stroke="black" cx="141.6" cy="-22" rx="18" ry="18"/>
<ellipse fill="none" stroke="black" cx="141.6" cy="-22" rx="22" ry="22"/>
</g>
<!-- 1&#45;&gt;2 -->
<g id="edge2" class="edge">
<title>1&#45;&gt;2</title>
<path fill="none" stroke="black" d="M76.78,-22C86.21,-22 98.2,-22 109.24,-22"/>
<polygon fill="black" stroke="black" points="109.41,-25.5 119.41,-22 109.41,-18.5 109.41,-25.5"/>
<text text-anchor="middle" x="98.1" y="-25.8" font-family="Times New Roman,serif" font-size="14.00">a</text>
</g>
<!-- 3 -->
<g id="node4" class="node">
<title>3</title>
<ellipse fill="none" stroke="black" cx="225.6" cy="-57" rx="18" ry="18"/>
</g>
<!-- 2&#45;&gt;3 -->
<g id="edge3" class="edge">
<title>2&#45;&gt;3</title>
<path fill="none" stroke="black" d="M162.03,-30.29C173.21,-35.06 187.37,-41.11 199.39,-46.24"/>
<polygon fill="black" stroke="black" points="198.3,-49.58 208.88,-50.29 201.05,-43.14 198.3,-49.58"/>
<text text-anchor="middle" x="185.6" y="-44.8" font-family="Times New Roman,serif" font-size="14.00">b</text>
</g>
<!-- 4 -->
<g id="node5" class="node">
<title>4</title>
<ellipse fill="none" stroke="black" cx="309.6" cy="-39" rx="18" ry="18"/>
<ellipse fill="none" stroke="black" cx="309.6" cy="-39" rx="22" ry="22"/>
</g>
<!-- 3&#45;&gt;4 -->
<g id="edge4" class="edge">
<title>3&#45;&gt;4</title>
<path fill="none" stroke="black" d="M243.94,-57.54C251.84,-57.44 261.28,-56.84 269.6,-55 273.06,-54.23 276.61,-53.18 280.09,-51.98"/>
<polygon fill="black" stroke="black" points="281.51,-55.19 289.58,-48.33 278.99,-48.66 281.51,-55.19"/>
<text text-anchor="middle" x="265.6" y="-59.8" font-family="Times New Roman,serif" font-size="14.00">a</text>
</g>
<!-- 4&#45;&gt;2 -->
<g id="edge5" class="edge">
<title>4&#45;&gt;2</title>
<path fill="none" stroke="black" d="M289.48,-29.9C276.79,-24.38 259.59,-17.86 243.6,-15 220.28,-10.83 193.52,-12.99 173.41,-15.97"/>
<polygon fill="black" stroke="black" points="172.57,-12.56 163.26,-17.63 173.7,-19.47 172.57,-12.56"/>
<text text-anchor="middle" x="225.6" y="-18.8" font-family="Times New Roman,serif" font-size="14.00">a</text>
</g>
<!-- 4&#45;&gt;3 -->
<g id="edge6" class="edge">
<title>4&#45;&gt;3</title>
<path fill="none" stroke="black" d="M287.7,-34.73C279.45,-33.8 269.95,-33.69 261.6,-36 257.37,-37.17 253.15,-39 249.17,-41.11"/>
<polygon fill="black" stroke="black" points="247.22,-38.19 240.44,-46.33 250.82,-44.2 247.22,-38.19"/>
<text text-anchor="middle" x="265.6" y="-39.8" font-family="Times New Roman,serif" font-size="14.00">b</text>
</g>
</g>
</svg>
