<?xml version="1.0" encoding="UTF-8" standalone="no"?>
<!DOCTYPE svg PUBLIC "-//W3C//DTD SVG 1.1//EN"
 "http://www.w3.org/Graphics/SVG/1.1/DTD/svg11.dtd">
<!-- Generated by graphviz version 3.0.0 (20220226.1711)
 -->
<!-- Title: G Pages: 1 -->
<svg width="510pt" height="486pt"
 viewBox="0.00 0.00 509.58 486.00" xmlns="http://www.w3.org/2000/svg" xmlns:xlink="http://www.w3.org/1999/xlink">
<g id="graph0" class="graph" transform="scale(1 1) rotate(0) translate(4 482)">
<title>G</title>
<polygon fill="white" stroke="transparent" points="-4,4 -4,-482 505.58,-482 505.58,4 -4,4"/>
<!-- 0 -->
<g id="node1" class="node">
<title>0</title>
<ellipse fill="black" stroke="black" cx="1.8" cy="-23" rx="1.8" ry="1.8"/>
</g>
<!-- 1 -->
<g id="node2" class="node">
<title>1</title>
<ellipse fill="none" stroke="black" cx="64.1" cy="-23" rx="18" ry="18"/>
<ellipse fill="none" stroke="black" cx="64.1" cy="-23" rx="22" ry="22"/>
<text text-anchor="middle" x="64.1" y="-19.3" font-family="Times New Roman,serif" font-size="14.00">1</text>
</g>
<!-- 0&#45;&gt;1 -->
<g id="edge1" class="edge">
<title>0&#45;&gt;1</title>
<path fill="none" stroke="black" d="M3.85,-23C7.39,-23 19.4,-23 31.69,-23"/>
<polygon fill="black" stroke="black" points="31.9,-26.5 41.9,-23 31.9,-19.5 31.9,-26.5"/>
</g>
<!-- 1&#45;&gt;1 -->
<g id="edge2" class="edge">
<title>1&#45;&gt;1</title>
<path fill="none" stroke="black" d="M56.78,-43.99C55.88,-54.09 58.32,-63 64.1,-63 67.8,-63 70.13,-59.34 71.09,-54.06"/>
<polygon fill="black" stroke="black" points="74.59,-54.1 71.42,-43.99 67.6,-53.87 74.59,-54.1"/>
<text text-anchor="middle" x="64.1" y="-66.8" font-family="Times New Roman,serif" font-size="14.00">b</text>
</g>
<!-- 2 -->
<g id="node3" class="node">
<title>2</title>
<ellipse fill="none" stroke="black" cx="151.09" cy="-18" rx="18" ry="18"/>
<text text-anchor="middle" x="151.09" y="-14.3" font-family="Times New Roman,serif" font-size="14.00">2</text>
</g>
<!-- 1&#45;&gt;2 -->
<g id="edge3" class="edge">
<title>1&#45;&gt;2</title>
<path fill="none" stroke="black" d="M86.11,-21.76C97.17,-21.11 110.88,-20.31 122.76,-19.61"/>
<polygon fill="black" stroke="black" points="123.26,-23.08 133.03,-19 122.85,-16.1 123.26,-23.08"/>
<text text-anchor="middle" x="109.6" y="-24.8" font-family="Times New Roman,serif" font-size="14.00">a</text>
</g>
<!-- 2&#45;&gt;1 -->
<g id="edge5" class="edge">
<title>2&#45;&gt;1</title>
<path fill="none" stroke="black" d="M135.5,-8.13C126.93,-3.51 115.81,0.49 105.6,-2 101.06,-3.11 96.46,-4.82 92.08,-6.8"/>
<polygon fill="black" stroke="black" points="90.26,-3.79 82.91,-11.42 93.42,-10.04 90.26,-3.79"/>
<text text-anchor="middle" x="109.6" y="-5.8" font-family="Times New Roman,serif" font-size="14.00">a</text>
</g>
<!-- 2&#45;&gt;2 -->
<g id="edge4" class="edge">
<title>2&#45;&gt;2</title>
<path fill="none" stroke="black" d="M144.06,-34.66C142.5,-44.62 144.84,-54 151.09,-54 155.1,-54 157.5,-50.15 158.3,-44.77"/>
<polygon fill="black" stroke="black" points="161.79,-44.6 158.13,-34.66 154.8,-44.72 161.79,-44.6"/>
<text text-anchor="middle" x="151.09" y="-57.8" font-family="Times New Roman,serif" font-size="14.00">b</text>
</g>
<!-- 00 -->
<g id="node4" class="node">
<title>00</title>
<ellipse fill="black" stroke="black" cx="1.8" cy="-120" rx="1.8" ry="1.8"/>
</g>
<!-- 3 -->
<g id="node5" class="node">
<title>3</title>
<ellipse fill="none" stroke="black" cx="64.1" cy="-120" rx="18" ry="18"/>
<ellipse fill="none" stroke="black" cx="64.1" cy="-120" rx="22" ry="22"/>
<text text-anchor="middle" x="64.1" y="-116.3" font-family="Times New Roman,serif" font-size="14.00">3</text>
</g>
<!-- 00&#45;&gt;3 -->
<g id="edge6" class="edge">
<title>00&#45;&gt;3</title>
<path fill="none" stroke="black" d="M3.85,-120C7.39,-120 19.4,-120 31.69,-120"/>
<polygon fill="black" stroke="black" points="31.9,-123.5 41.9,-120 31.9,-116.5 31.9,-123.5"/>
</g>
<!-- 3&#45;&gt;3 -->
<g id="edge7" class="edge">
<title>3&#45;&gt;3</title>
<path fill="none" stroke="black" d="M56.78,-140.99C55.88,-151.09 58.32,-160 64.1,-160 67.8,-160 70.13,-156.34 71.09,-151.06"/>
<polygon fill="black" stroke="black" points="74.59,-151.1 71.42,-140.99 67.6,-150.87 74.59,-151.1"/>
<text text-anchor="middle" x="64.1" y="-163.8" font-family="Times New Roman,serif" font-size="14.00">a</text>
</g>
<!-- 4 -->
<g id="node6" class="node">
<title>4</title>
<ellipse fill="none" stroke="black" cx="151.09" cy="-163" rx="18" ry="18"/>
<text text-anchor="middle" x="151.09" y="-159.3" font-family="Times New Roman,serif" font-size="14.00">4</text>
</g>
<!-- 3&#45;&gt;4 -->
<g id="edge8" class="edge">
<title>3&#45;&gt;4</title>
<path fill="none" stroke="black" d="M83.96,-129.54C96.24,-135.76 112.38,-143.92 125.64,-150.63"/>
<polygon fill="black" stroke="black" points="124.19,-153.82 134.69,-155.21 127.35,-147.57 124.19,-153.82"/>
<text text-anchor="middle" x="109.6" y="-148.8" font-family="Times New Roman,serif" font-size="14.00">b</text>
</g>
<!-- 4&#45;&gt;4 -->
<g id="edge9" class="edge">
<title>4&#45;&gt;4</title>
<path fill="none" stroke="black" d="M144.06,-179.66C142.5,-189.62 144.84,-199 151.09,-199 155.1,-199 157.5,-195.15 158.3,-189.77"/>
<polygon fill="black" stroke="black" points="161.79,-189.6 158.13,-179.66 154.8,-189.72 161.79,-189.6"/>
<text text-anchor="middle" x="151.09" y="-202.8" font-family="Times New Roman,serif" font-size="14.00">a</text>
</g>
<!-- 5 -->
<g id="node7" class="node">
<title>5</title>
<ellipse fill="none" stroke="black" cx="234.09" cy="-144" rx="18" ry="18"/>
<text text-anchor="middle" x="234.09" y="-140.3" font-family="Times New Roman,serif" font-size="14.00">5</text>
</g>
<!-- 4&#45;&gt;5 -->
<g id="edge10" class="edge">
<title>4&#45;&gt;5</title>
<path fill="none" stroke="black" d="M168.88,-159.06C179.74,-156.52 194.11,-153.14 206.51,-150.24"/>
<polygon fill="black" stroke="black" points="207.39,-153.62 216.33,-147.93 205.8,-146.81 207.39,-153.62"/>
<text text-anchor="middle" x="192.59" y="-158.8" font-family="Times New Roman,serif" font-size="14.00">b</text>
</g>
<!-- 5&#45;&gt;3 -->
<g id="edge12" class="edge">
<title>5&#45;&gt;3</title>
<path fill="none" stroke="black" d="M217.59,-136.59C205.19,-131.09 187.2,-124.04 170.59,-121 145.93,-116.49 117.49,-116.51 96.35,-117.52"/>
<polygon fill="black" stroke="black" points="96.1,-114.02 86.32,-118.09 96.5,-121.01 96.1,-114.02"/>
<text text-anchor="middle" x="151.09" y="-124.8" font-family="Times New Roman,serif" font-size="14.00">b</text>
</g>
<!-- 5&#45;&gt;5 -->
<g id="edge11" class="edge">
<title>5&#45;&gt;5</title>
<path fill="none" stroke="black" d="M227.06,-160.66C225.5,-170.62 227.84,-180 234.09,-180 238.1,-180 240.5,-176.15 241.29,-170.77"/>
<polygon fill="black" stroke="black" points="244.79,-170.6 241.12,-160.66 237.79,-170.72 244.79,-170.6"/>
<text text-anchor="middle" x="234.09" y="-183.8" font-family="Times New Roman,serif" font-size="14.00">a</text>
</g>
<!-- 000 -->
<g id="node8" class="node">
<title>000</title>
<ellipse fill="black" stroke="black" cx="1.8" cy="-326" rx="1.8" ry="1.8"/>
</g>
<!-- 13 -->
<g id="node9" class="node">
<title>13</title>
<ellipse fill="none" stroke="black" cx="64.1" cy="-326" rx="19.5" ry="19.5"/>
<ellipse fill="none" stroke="black" cx="64.1" cy="-326" rx="23.5" ry="23.5"/>
<text text-anchor="middle" x="64.1" y="-322.3" font-family="Times New Roman,serif" font-size="14.00">13</text>
</g>
<!-- 000&#45;&gt;13 -->
<g id="edge13" class="edge">
<title>000&#45;&gt;13</title>
<path fill="none" stroke="black" d="M3.85,-326C7.23,-326 18.36,-326 30.06,-326"/>
<polygon fill="black" stroke="black" points="30.32,-329.5 40.32,-326 30.32,-322.5 30.32,-329.5"/>
</g>
<!-- 14 -->
<g id="node10" class="node">
<title>14</title>
<ellipse fill="none" stroke="black" cx="151.09" cy="-407" rx="19.5" ry="19.5"/>
<text text-anchor="middle" x="151.09" y="-403.3" font-family="Times New Roman,serif" font-size="14.00">14</text>
</g>
<!-- 13&#45;&gt;14 -->
<g id="edge15" class="edge">
<title>13&#45;&gt;14</title>
<path fill="none" stroke="black" d="M81.89,-342C95.36,-354.84 114.35,-372.94 128.87,-386.78"/>
<polygon fill="black" stroke="black" points="126.77,-389.6 136.42,-393.97 131.59,-384.54 126.77,-389.6"/>
<text text-anchor="middle" x="109.6" y="-374.8" font-family="Times New Roman,serif" font-size="14.00">b</text>
</g>
<!-- 23 -->
<g id="node12" class="node">
<title>23</title>
<ellipse fill="none" stroke="black" cx="399.08" cy="-308" rx="19.5" ry="19.5"/>
<text text-anchor="middle" x="399.08" y="-304.3" font-family="Times New Roman,serif" font-size="14.00">23</text>
</g>
<!-- 13&#45;&gt;23 -->
<g id="edge14" class="edge">
<title>13&#45;&gt;23</title>
<path fill="none" stroke="black" d="M76.67,-305.78C90.89,-283.87 117.23,-252 150.09,-252 150.09,-252 150.09,-252 317.09,-252 341.69,-252 364.23,-269.7 379.25,-285.19"/>
<polygon fill="black" stroke="black" points="377.05,-287.98 386.39,-292.99 382.22,-283.25 377.05,-287.98"/>
<text text-anchor="middle" x="234.09" y="-255.8" font-family="Times New Roman,serif" font-size="14.00">a</text>
</g>
<!-- 15 -->
<g id="node11" class="node">
<title>15</title>
<ellipse fill="none" stroke="black" cx="234.09" cy="-360" rx="19.5" ry="19.5"/>
<text text-anchor="middle" x="234.09" y="-356.3" font-family="Times New Roman,serif" font-size="14.00">15</text>
</g>
<!-- 14&#45;&gt;15 -->
<g id="edge17" class="edge">
<title>14&#45;&gt;15</title>
<path fill="none" stroke="black" d="M167.5,-396.36C173.92,-392.05 181.52,-387.14 188.59,-383 194.41,-379.6 200.77,-376.15 206.83,-373"/>
<polygon fill="black" stroke="black" points="208.65,-376 215.96,-368.33 205.46,-369.76 208.65,-376"/>
<text text-anchor="middle" x="192.59" y="-386.8" font-family="Times New Roman,serif" font-size="14.00">b</text>
</g>
<!-- 24 -->
<g id="node13" class="node">
<title>24</title>
<ellipse fill="none" stroke="black" cx="482.08" cy="-389" rx="19.5" ry="19.5"/>
<text text-anchor="middle" x="482.08" y="-385.3" font-family="Times New Roman,serif" font-size="14.00">24</text>
</g>
<!-- 14&#45;&gt;24 -->
<g id="edge16" class="edge">
<title>14&#45;&gt;24</title>
<path fill="none" stroke="black" d="M163.79,-422.01C178.16,-438.59 204.2,-463 233.09,-463 233.09,-463 233.09,-463 400.08,-463 429.42,-463 452.77,-436.22 466.72,-414.88"/>
<polygon fill="black" stroke="black" points="469.83,-416.51 472.12,-406.16 463.88,-412.83 469.83,-416.51"/>
<text text-anchor="middle" x="316.09" y="-466.8" font-family="Times New Roman,serif" font-size="14.00">a</text>
</g>
<!-- 15&#45;&gt;13 -->
<g id="edge19" class="edge">
<title>15&#45;&gt;13</title>
<path fill="none" stroke="black" d="M214.82,-356.3C186.71,-350.61 132.47,-339.63 97.57,-332.57"/>
<polygon fill="black" stroke="black" points="97.9,-329.07 87.41,-330.51 96.51,-335.93 97.9,-329.07"/>
<text text-anchor="middle" x="151.09" y="-350.8" font-family="Times New Roman,serif" font-size="14.00">b</text>
</g>
<!-- 25 -->
<g id="node14" class="node">
<title>25</title>
<ellipse fill="none" stroke="black" cx="316.09" cy="-354" rx="19.5" ry="19.5"/>
<text text-anchor="middle" x="316.09" y="-350.3" font-family="Times New Roman,serif" font-size="14.00">25</text>
</g>
<!-- 15&#45;&gt;25 -->
<g id="edge18" class="edge">
<title>15&#45;&gt;25</title>
<path fill="none" stroke="black" d="M253.65,-358.61C263.44,-357.87 275.67,-356.96 286.63,-356.13"/>
<polygon fill="black" stroke="black" points="286.92,-359.62 296.63,-355.38 286.4,-352.64 286.92,-359.62"/>
<text text-anchor="middle" x="275.09" y="-361.8" font-family="Times New Roman,serif" font-size="14.00">a</text>
</g>
<!-- 23&#45;&gt;13 -->
<g id="edge20" class="edge">
<title>23&#45;&gt;13</title>
<path fill="none" stroke="black" d="M379.45,-306.19C363.04,-304.76 338.5,-303 317.09,-303 150.09,-303 150.09,-303 150.09,-303 131.66,-303 111.73,-308.1 95.81,-313.5"/>
<polygon fill="black" stroke="black" points="94.2,-310.36 85.98,-317.04 96.58,-316.95 94.2,-310.36"/>
<text text-anchor="middle" x="234.09" y="-306.8" font-family="Times New Roman,serif" font-size="14.00">a</text>
</g>
<!-- 23&#45;&gt;24 -->
<g id="edge21" class="edge">
<title>23&#45;&gt;24</title>
<path fill="none" stroke="black" d="M416.29,-317.45C425.19,-323.07 436.1,-330.7 444.58,-339 452.22,-346.47 459.44,-355.69 465.4,-364.16"/>
<polygon fill="black" stroke="black" points="462.62,-366.3 471.13,-372.62 468.42,-362.38 462.62,-366.3"/>
<text text-anchor="middle" x="440.58" y="-342.8" font-family="Times New Roman,serif" font-size="14.00">b</text>
</g>
<!-- 24&#45;&gt;14 -->
<g id="edge22" class="edge">
<title>24&#45;&gt;14</title>
<path fill="none" stroke="black" d="M464.1,-396.79C447.98,-403.46 422.89,-412 400.08,-412 233.09,-412 233.09,-412 233.09,-412 215.69,-412 196.23,-410.84 180.74,-409.63"/>
<polygon fill="black" stroke="black" points="180.99,-406.14 170.73,-408.81 180.41,-413.12 180.99,-406.14"/>
<text text-anchor="middle" x="316.09" y="-415.8" font-family="Times New Roman,serif" font-size="14.00">a</text>
</g>
<!-- 24&#45;&gt;25 -->
<g id="edge23" class="edge">
<title>24&#45;&gt;25</title>
<path fill="none" stroke="black" d="M462.82,-385.1C434.33,-379.02 379.06,-367.23 345.38,-360.04"/>
<polygon fill="black" stroke="black" points="345.77,-356.54 335.26,-357.88 344.31,-363.39 345.77,-356.54"/>
<text text-anchor="middle" x="399.08" y="-378.8" font-family="Times New Roman,serif" font-size="14.00">b</text>
</g>
<!-- 25&#45;&gt;15 -->
<g id="edge24" class="edge">
<title>25&#45;&gt;15</title>
<path fill="none" stroke="black" d="M299.58,-343.28C291.37,-338.88 281.05,-335.37 271.59,-338 267.34,-339.18 263.09,-341.01 259.07,-343.11"/>
<polygon fill="black" stroke="black" points="257.04,-340.25 250.22,-348.36 260.6,-346.27 257.04,-340.25"/>
<text text-anchor="middle" x="275.09" y="-341.8" font-family="Times New Roman,serif" font-size="14.00">a</text>
</g>
<!-- 25&#45;&gt;23 -->
<g id="edge25" class="edge">
<title>25&#45;&gt;23</title>
<path fill="none" stroke="black" d="M333.48,-344.69C344.79,-338.27 360.04,-329.61 372.88,-322.31"/>
<polygon fill="black" stroke="black" points="374.75,-325.28 381.72,-317.29 371.29,-319.19 374.75,-325.28"/>
<text text-anchor="middle" x="357.59" y="-336.8" font-family="Times New Roman,serif" font-size="14.00">b</text>
</g>
</g>
</svg>
