<?xml version="1.0" encoding="UTF-8" standalone="no"?>
<!DOCTYPE svg PUBLIC "-//W3C//DTD SVG 1.1//EN"
 "http://www.w3.org/Graphics/SVG/1.1/DTD/svg11.dtd">
<!-- Generated by graphviz version 3.0.0 (20220226.1711)
 -->
<!-- Title: G Pages: 1 -->
<svg width="332pt" height="160pt"
 viewBox="0.00 0.00 331.60 160.00" xmlns="http://www.w3.org/2000/svg" xmlns:xlink="http://www.w3.org/1999/xlink">
<g id="graph0" class="graph" transform="scale(1 1) rotate(0) translate(4 156)">
<title>G</title>
<polygon fill="white" stroke="transparent" points="-4,4 -4,-156 327.6,-156 327.6,4 -4,4"/>
<!-- 0 -->
<g id="node1" class="node">
<title>0</title>
<ellipse fill="black" stroke="black" cx="1.8" cy="-54" rx="1.8" ry="1.8"/>
</g>
<!-- 1 -->
<g id="node2" class="node">
<title>1</title>
<ellipse fill="none" stroke="black" cx="58.6" cy="-54" rx="18" ry="18"/>
<text text-anchor="middle" x="58.6" y="-50.3" font-family="Times New Roman,serif" font-size="14.00">1</text>
</g>
<!-- 0&#45;&gt;1 -->
<g id="edge1" class="edge">
<title>0&#45;&gt;1</title>
<path fill="none" stroke="black" d="M3.75,-54C7.11,-54 18.87,-54 30.55,-54"/>
<polygon fill="black" stroke="black" points="30.58,-57.5 40.58,-54 30.58,-50.5 30.58,-57.5"/>
</g>
<!-- 2 -->
<g id="node3" class="node">
<title>2</title>
<ellipse fill="none" stroke="black" cx="142.6" cy="-112" rx="18" ry="18"/>
<ellipse fill="none" stroke="black" cx="142.6" cy="-112" rx="22" ry="22"/>
<text text-anchor="middle" x="142.6" y="-108.3" font-family="Times New Roman,serif" font-size="14.00">2</text>
</g>
<!-- 1&#45;&gt;2 -->
<g id="edge2" class="edge">
<title>1&#45;&gt;2</title>
<path fill="none" stroke="black" d="M73.88,-64.1C85.44,-72.27 102,-83.99 115.85,-93.79"/>
<polygon fill="black" stroke="black" points="113.87,-96.68 124.06,-99.59 117.92,-90.96 113.87,-96.68"/>
<text text-anchor="middle" x="98.6" y="-86.8" font-family="Times New Roman,serif" font-size="14.00">b</text>
</g>
<!-- 3 -->
<g id="node4" class="node">
<title>3</title>
<ellipse fill="none" stroke="black" cx="142.6" cy="-54" rx="18" ry="18"/>
<text text-anchor="middle" x="142.6" y="-50.3" font-family="Times New Roman,serif" font-size="14.00">3</text>
</g>
<!-- 1&#45;&gt;3 -->
<g id="edge3" class="edge">
<title>1&#45;&gt;3</title>
<path fill="none" stroke="black" d="M76.99,-54C87.83,-54 102,-54 114.31,-54"/>
<polygon fill="black" stroke="black" points="114.52,-57.5 124.52,-54 114.52,-50.5 114.52,-57.5"/>
<text text-anchor="middle" x="98.6" y="-57.8" font-family="Times New Roman,serif" font-size="14.00">a</text>
</g>
<!-- 5 -->
<g id="node6" class="node">
<title>5</title>
<ellipse fill="none" stroke="black" cx="225.6" cy="-134" rx="18" ry="18"/>
<text text-anchor="middle" x="225.6" y="-130.3" font-family="Times New Roman,serif" font-size="14.00">5</text>
</g>
<!-- 2&#45;&gt;5 -->
<g id="edge6" class="edge">
<title>2&#45;&gt;5</title>
<path fill="none" stroke="black" d="M164.04,-117.55C174.34,-120.35 186.95,-123.78 198,-126.78"/>
<polygon fill="black" stroke="black" points="197.41,-130.24 207.98,-129.49 199.25,-123.49 197.41,-130.24"/>
<text text-anchor="middle" x="186.1" y="-127.8" font-family="Times New Roman,serif" font-size="14.00">a</text>
</g>
<!-- 4 -->
<g id="node5" class="node">
<title>4</title>
<ellipse fill="none" stroke="black" cx="225.6" cy="-18" rx="18" ry="18"/>
<text text-anchor="middle" x="225.6" y="-14.3" font-family="Times New Roman,serif" font-size="14.00">4</text>
</g>
<!-- 3&#45;&gt;4 -->
<g id="edge4" class="edge">
<title>3&#45;&gt;4</title>
<path fill="none" stroke="black" d="M159.22,-47.06C170.57,-42.01 186.19,-35.07 199.32,-29.24"/>
<polygon fill="black" stroke="black" points="201.04,-32.3 208.75,-25.04 198.19,-25.91 201.04,-32.3"/>
<text text-anchor="middle" x="186.1" y="-39.8" font-family="Times New Roman,serif" font-size="14.00">a</text>
</g>
<!-- 4&#45;&gt;1 -->
<g id="edge5" class="edge">
<title>4&#45;&gt;1</title>
<path fill="none" stroke="black" d="M207.95,-13.5C187.04,-8.65 150.3,-2.76 120.6,-12 105.73,-16.62 91.27,-26.28 80.17,-35.16"/>
<polygon fill="black" stroke="black" points="77.78,-32.6 72.38,-41.71 82.29,-37.95 77.78,-32.6"/>
<text text-anchor="middle" x="142.6" y="-15.8" font-family="Times New Roman,serif" font-size="14.00">b</text>
</g>
<!-- 6 -->
<g id="node7" class="node">
<title>6</title>
<ellipse fill="none" stroke="black" cx="305.6" cy="-99" rx="18" ry="18"/>
<text text-anchor="middle" x="305.6" y="-95.3" font-family="Times New Roman,serif" font-size="14.00">6</text>
</g>
<!-- 5&#45;&gt;6 -->
<g id="edge7" class="edge">
<title>5&#45;&gt;6</title>
<path fill="none" stroke="black" d="M242.38,-126.92C253.06,-122.13 267.39,-115.7 279.61,-110.22"/>
<polygon fill="black" stroke="black" points="281.15,-113.36 288.84,-106.07 278.28,-106.97 281.15,-113.36"/>
<text text-anchor="middle" x="265.6" y="-120.8" font-family="Times New Roman,serif" font-size="14.00">b</text>
</g>
<!-- 6&#45;&gt;2 -->
<g id="edge8" class="edge">
<title>6&#45;&gt;2</title>
<path fill="none" stroke="black" d="M287.69,-95.51C268.26,-92.02 235.47,-87.75 207.6,-92 196.09,-93.76 183.8,-97.19 173.1,-100.73"/>
<polygon fill="black" stroke="black" points="171.71,-97.51 163.41,-104.1 174,-104.12 171.71,-97.51"/>
<text text-anchor="middle" x="225.6" y="-95.8" font-family="Times New Roman,serif" font-size="14.00">a</text>
</g>
</g>
</svg>
