<?xml version="1.0" encoding="UTF-8" standalone="no"?>
<!DOCTYPE svg PUBLIC "-//W3C//DTD SVG 1.1//EN"
 "http://www.w3.org/Graphics/SVG/1.1/DTD/svg11.dtd">
<!-- Generated by graphviz version 3.0.0 (20220226.1711)
 -->
<!-- Title: G Pages: 1 -->
<svg width="542pt" height="235pt"
 viewBox="0.00 0.00 541.58 235.00" xmlns="http://www.w3.org/2000/svg" xmlns:xlink="http://www.w3.org/1999/xlink">
<g id="graph0" class="graph" transform="scale(1 1) rotate(0) translate(4 231)">
<title>G</title>
<polygon fill="white" stroke="transparent" points="-4,4 -4,-231 537.58,-231 537.58,4 -4,4"/>
<!-- 000 -->
<g id="node1" class="node">
<title>000</title>
<ellipse fill="black" stroke="black" cx="1.8" cy="-74" rx="1.8" ry="1.8"/>
</g>
<!-- 13 -->
<g id="node2" class="node">
<title>13</title>
<ellipse fill="none" stroke="black" cx="60.1" cy="-74" rx="19.5" ry="19.5"/>
<text text-anchor="middle" x="60.1" y="-70.3" font-family="Times New Roman,serif" font-size="14.00">13</text>
</g>
<!-- 000&#45;&gt;13 -->
<g id="edge1" class="edge">
<title>000&#45;&gt;13</title>
<path fill="none" stroke="black" d="M3.78,-74C7.14,-74 18.69,-74 30.37,-74"/>
<polygon fill="black" stroke="black" points="30.46,-77.5 40.46,-74 30.46,-70.5 30.46,-77.5"/>
</g>
<!-- 14 -->
<g id="node3" class="node">
<title>14</title>
<ellipse fill="none" stroke="black" cx="147.09" cy="-157" rx="19.5" ry="19.5"/>
<ellipse fill="none" stroke="black" cx="147.09" cy="-157" rx="23.5" ry="23.5"/>
<text text-anchor="middle" x="147.09" y="-153.3" font-family="Times New Roman,serif" font-size="14.00">14</text>
</g>
<!-- 13&#45;&gt;14 -->
<g id="edge3" class="edge">
<title>13&#45;&gt;14</title>
<path fill="none" stroke="black" d="M74.51,-87.81C81.36,-94.82 89.87,-103.42 97.6,-111 105.43,-118.68 114.08,-126.96 121.89,-134.34"/>
<polygon fill="black" stroke="black" points="119.68,-137.07 129.35,-141.38 124.48,-131.97 119.68,-137.07"/>
<text text-anchor="middle" x="101.6" y="-121.8" font-family="Times New Roman,serif" font-size="14.00">b</text>
</g>
<!-- 23 -->
<g id="node5" class="node">
<title>23</title>
<ellipse fill="none" stroke="black" cx="419.08" cy="-56" rx="19.5" ry="19.5"/>
<ellipse fill="none" stroke="black" cx="419.08" cy="-56" rx="23.5" ry="23.5"/>
<text text-anchor="middle" x="419.08" y="-52.3" font-family="Times New Roman,serif" font-size="14.00">23</text>
</g>
<!-- 13&#45;&gt;23 -->
<g id="edge2" class="edge">
<title>13&#45;&gt;23</title>
<path fill="none" stroke="black" d="M70.49,-57.21C84.09,-35.38 111.46,0 146.09,0 146.09,0 146.09,0 329.09,0 354.5,0 378.6,-16.56 395.29,-31.67"/>
<polygon fill="black" stroke="black" points="393.21,-34.53 402.86,-38.89 398.04,-29.46 393.21,-34.53"/>
<text text-anchor="middle" x="238.09" y="-3.8" font-family="Times New Roman,serif" font-size="14.00">a</text>
</g>
<!-- 15 -->
<g id="node4" class="node">
<title>15</title>
<ellipse fill="none" stroke="black" cx="238.09" cy="-109" rx="19.5" ry="19.5"/>
<ellipse fill="none" stroke="black" cx="238.09" cy="-109" rx="23.5" ry="23.5"/>
<text text-anchor="middle" x="238.09" y="-105.3" font-family="Times New Roman,serif" font-size="14.00">15</text>
</g>
<!-- 14&#45;&gt;15 -->
<g id="edge5" class="edge">
<title>14&#45;&gt;15</title>
<path fill="none" stroke="black" d="M167.2,-144.61C173.88,-140.44 181.48,-135.87 188.59,-132 194.4,-128.85 200.7,-125.67 206.79,-122.74"/>
<polygon fill="black" stroke="black" points="208.52,-125.79 216.07,-118.35 205.53,-119.46 208.52,-125.79"/>
<text text-anchor="middle" x="192.59" y="-135.8" font-family="Times New Roman,serif" font-size="14.00">b</text>
</g>
<!-- 24 -->
<g id="node6" class="node">
<title>24</title>
<ellipse fill="none" stroke="black" cx="510.08" cy="-140" rx="19.5" ry="19.5"/>
<ellipse fill="none" stroke="black" cx="510.08" cy="-140" rx="23.5" ry="23.5"/>
<text text-anchor="middle" x="510.08" y="-136.3" font-family="Times New Roman,serif" font-size="14.00">24</text>
</g>
<!-- 14&#45;&gt;24 -->
<g id="edge4" class="edge">
<title>14&#45;&gt;24</title>
<path fill="none" stroke="black" d="M163.68,-174.1C180.19,-190.25 207.85,-212 237.09,-212 237.09,-212 237.09,-212 420.08,-212 449.43,-212 474.53,-188.05 490.52,-167.77"/>
<polygon fill="black" stroke="black" points="493.4,-169.77 496.6,-159.67 487.8,-165.57 493.4,-169.77"/>
<text text-anchor="middle" x="328.09" y="-215.8" font-family="Times New Roman,serif" font-size="14.00">a</text>
</g>
<!-- 15&#45;&gt;13 -->
<g id="edge7" class="edge">
<title>15&#45;&gt;13</title>
<path fill="none" stroke="black" d="M214.9,-104.59C183.01,-98.25 124.22,-86.55 89.29,-79.61"/>
<polygon fill="black" stroke="black" points="89.76,-76.13 79.27,-77.61 88.39,-83 89.76,-76.13"/>
<text text-anchor="middle" x="147.09" y="-98.8" font-family="Times New Roman,serif" font-size="14.00">b</text>
</g>
<!-- 25 -->
<g id="node7" class="node">
<title>25</title>
<ellipse fill="none" stroke="black" cx="328.09" cy="-102" rx="19.5" ry="19.5"/>
<ellipse fill="none" stroke="black" cx="328.09" cy="-102" rx="23.5" ry="23.5"/>
<text text-anchor="middle" x="328.09" y="-98.3" font-family="Times New Roman,serif" font-size="14.00">25</text>
</g>
<!-- 15&#45;&gt;25 -->
<g id="edge6" class="edge">
<title>15&#45;&gt;25</title>
<path fill="none" stroke="black" d="M261.75,-107.2C271.71,-106.41 283.59,-105.46 294.47,-104.59"/>
<polygon fill="black" stroke="black" points="294.81,-108.08 304.5,-103.8 294.26,-101.1 294.81,-108.08"/>
<text text-anchor="middle" x="283.09" y="-108.8" font-family="Times New Roman,serif" font-size="14.00">a</text>
</g>
<!-- 23&#45;&gt;13 -->
<g id="edge8" class="edge">
<title>23&#45;&gt;13</title>
<path fill="none" stroke="black" d="M395.43,-54.02C377.45,-52.63 351.68,-51 329.09,-51 146.09,-51 146.09,-51 146.09,-51 126.09,-51 104.33,-57.01 87.84,-62.88"/>
<polygon fill="black" stroke="black" points="86.44,-59.67 78.31,-66.47 88.9,-66.22 86.44,-59.67"/>
<text text-anchor="middle" x="238.09" y="-54.8" font-family="Times New Roman,serif" font-size="14.00">a</text>
</g>
<!-- 23&#45;&gt;24 -->
<g id="edge9" class="edge">
<title>23&#45;&gt;24</title>
<path fill="none" stroke="black" d="M440.02,-67.12C449.23,-72.74 459.99,-80.06 468.58,-88 476.4,-95.22 483.88,-104.06 490.24,-112.39"/>
<polygon fill="black" stroke="black" points="487.44,-114.49 496.19,-120.46 493.07,-110.34 487.44,-114.49"/>
<text text-anchor="middle" x="464.58" y="-91.8" font-family="Times New Roman,serif" font-size="14.00">b</text>
</g>
<!-- 24&#45;&gt;14 -->
<g id="edge10" class="edge">
<title>24&#45;&gt;14</title>
<path fill="none" stroke="black" d="M487.83,-147.94C470.01,-153.89 443.74,-161 420.08,-161 237.09,-161 237.09,-161 237.09,-161 218.57,-161 197.9,-160.12 181.14,-159.19"/>
<polygon fill="black" stroke="black" points="180.95,-155.68 170.76,-158.58 180.54,-162.66 180.95,-155.68"/>
<text text-anchor="middle" x="328.09" y="-164.8" font-family="Times New Roman,serif" font-size="14.00">a</text>
</g>
<!-- 24&#45;&gt;25 -->
<g id="edge11" class="edge">
<title>24&#45;&gt;25</title>
<path fill="none" stroke="black" d="M486.83,-135.3C455.29,-128.64 397.39,-116.42 361.2,-108.78"/>
<polygon fill="black" stroke="black" points="361.67,-105.3 351.16,-106.66 360.22,-112.15 361.67,-105.3"/>
<text text-anchor="middle" x="419.08" y="-128.8" font-family="Times New Roman,serif" font-size="14.00">b</text>
</g>
<!-- 25&#45;&gt;15 -->
<g id="edge12" class="edge">
<title>25&#45;&gt;15</title>
<path fill="none" stroke="black" d="M307.39,-89.94C298.91,-86.17 288.84,-83.56 279.59,-86 275.16,-87.17 270.71,-88.95 266.46,-91.01"/>
<polygon fill="black" stroke="black" points="264.69,-87.99 257.57,-95.84 268.03,-94.14 264.69,-87.99"/>
<text text-anchor="middle" x="283.09" y="-89.8" font-family="Times New Roman,serif" font-size="14.00">a</text>
</g>
<!-- 25&#45;&gt;23 -->
<g id="edge13" class="edge">
<title>25&#45;&gt;23</title>
<path fill="none" stroke="black" d="M349.28,-91.56C361,-85.5 375.97,-77.77 388.95,-71.06"/>
<polygon fill="black" stroke="black" points="390.69,-74.1 397.97,-66.4 387.48,-67.88 390.69,-74.1"/>
<text text-anchor="middle" x="373.59" y="-83.8" font-family="Times New Roman,serif" font-size="14.00">b</text>
</g>
</g>
</svg>
