<?xml version="1.0" encoding="UTF-8" standalone="no"?>
<!DOCTYPE svg PUBLIC "-//W3C//DTD SVG 1.1//EN"
 "http://www.w3.org/Graphics/SVG/1.1/DTD/svg11.dtd">
<!-- Generated by graphviz version 3.0.0 (20220226.1711)
 -->
<!-- Title: G Pages: 1 -->
<svg width="583pt" height="256pt"
 viewBox="0.00 0.00 582.60 256.00" xmlns="http://www.w3.org/2000/svg" xmlns:xlink="http://www.w3.org/1999/xlink">
<g id="graph0" class="graph" transform="scale(1 1) rotate(0) translate(4 252)">
<title>G</title>
<polygon fill="white" stroke="transparent" points="-4,4 -4,-252 578.6,-252 578.6,4 -4,4"/>
<!-- 0 -->
<g id="node1" class="node">
<title>0</title>
<ellipse fill="black" stroke="black" cx="1.8" cy="-117" rx="1.8" ry="1.8"/>
</g>
<!-- 1 -->
<g id="node2" class="node">
<title>1</title>
<ellipse fill="none" stroke="black" cx="58.6" cy="-117" rx="18" ry="18"/>
</g>
<!-- 0&#45;&gt;1 -->
<g id="edge1" class="edge">
<title>0&#45;&gt;1</title>
<path fill="none" stroke="black" d="M3.75,-117C7.11,-117 18.87,-117 30.55,-117"/>
<polygon fill="black" stroke="black" points="30.58,-120.5 40.58,-117 30.58,-113.5 30.58,-120.5"/>
</g>
<!-- 2 -->
<g id="node3" class="node">
<title>2</title>
<ellipse fill="none" stroke="black" cx="148.6" cy="-117" rx="18" ry="18"/>
</g>
<!-- 1&#45;&gt;2 -->
<g id="edge2" class="edge">
<title>1&#45;&gt;2</title>
<path fill="none" stroke="black" d="M76.99,-117C89.36,-117 106.23,-117 120.38,-117"/>
<polygon fill="black" stroke="black" points="120.55,-120.5 130.55,-117 120.55,-113.5 120.55,-120.5"/>
<text text-anchor="middle" x="103.6" y="-120.8" font-family="Times New Roman,serif" font-size="14.00">a,b</text>
</g>
<!-- 3 -->
<g id="node4" class="node">
<title>3</title>
<ellipse fill="none" stroke="black" cx="228.6" cy="-151" rx="18" ry="18"/>
</g>
<!-- 2&#45;&gt;3 -->
<g id="edge3" class="edge">
<title>2&#45;&gt;3</title>
<path fill="none" stroke="black" d="M165.38,-123.88C176.06,-128.53 190.39,-134.78 202.61,-140.11"/>
<polygon fill="black" stroke="black" points="201.27,-143.34 211.84,-144.13 204.07,-136.93 201.27,-143.34"/>
<text text-anchor="middle" x="188.6" y="-138.8" font-family="Times New Roman,serif" font-size="14.00">a</text>
</g>
<!-- 4 -->
<g id="node5" class="node">
<title>4</title>
<ellipse fill="none" stroke="black" cx="228.6" cy="-84" rx="18" ry="18"/>
</g>
<!-- 2&#45;&gt;4 -->
<g id="edge4" class="edge">
<title>2&#45;&gt;4</title>
<path fill="none" stroke="black" d="M165.38,-110.32C176.06,-105.8 190.39,-99.74 202.61,-94.57"/>
<polygon fill="black" stroke="black" points="203.99,-97.79 211.84,-90.67 201.27,-91.34 203.99,-97.79"/>
<text text-anchor="middle" x="188.6" y="-104.8" font-family="Times New Roman,serif" font-size="14.00">b</text>
</g>
<!-- 5 -->
<g id="node6" class="node">
<title>5</title>
<ellipse fill="none" stroke="black" cx="468.6" cy="-215" rx="18" ry="18"/>
</g>
<!-- 3&#45;&gt;5 -->
<g id="edge5" class="edge">
<title>3&#45;&gt;5</title>
<path fill="none" stroke="black" d="M244.02,-160.74C268.68,-176.78 321.11,-208.26 370.6,-221 397.32,-227.88 405.23,-227.46 432.6,-224 435.36,-223.65 438.22,-223.15 441.06,-222.56"/>
<polygon fill="black" stroke="black" points="442.12,-225.91 451.03,-220.17 440.49,-219.1 442.12,-225.91"/>
<text text-anchor="middle" x="348.6" y="-218.8" font-family="Times New Roman,serif" font-size="14.00">a</text>
</g>
<!-- 6 -->
<g id="node7" class="node">
<title>6</title>
<ellipse fill="none" stroke="black" cx="308.6" cy="-151" rx="18" ry="18"/>
</g>
<!-- 3&#45;&gt;6 -->
<g id="edge6" class="edge">
<title>3&#45;&gt;6</title>
<path fill="none" stroke="black" d="M246.91,-151C256.71,-151 269.18,-151 280.27,-151"/>
<polygon fill="black" stroke="black" points="280.34,-154.5 290.34,-151 280.34,-147.5 280.34,-154.5"/>
<text text-anchor="middle" x="268.6" y="-154.8" font-family="Times New Roman,serif" font-size="14.00">b</text>
</g>
<!-- 7 -->
<g id="node8" class="node">
<title>7</title>
<ellipse fill="none" stroke="black" cx="308.6" cy="-84" rx="18" ry="18"/>
</g>
<!-- 4&#45;&gt;7 -->
<g id="edge7" class="edge">
<title>4&#45;&gt;7</title>
<path fill="none" stroke="black" d="M246.91,-84C256.71,-84 269.18,-84 280.27,-84"/>
<polygon fill="black" stroke="black" points="280.34,-87.5 290.34,-84 280.34,-80.5 280.34,-87.5"/>
<text text-anchor="middle" x="268.6" y="-87.8" font-family="Times New Roman,serif" font-size="14.00">a</text>
</g>
<!-- 8 -->
<g id="node9" class="node">
<title>8</title>
<ellipse fill="none" stroke="black" cx="468.6" cy="-72" rx="18" ry="18"/>
</g>
<!-- 4&#45;&gt;8 -->
<g id="edge8" class="edge">
<title>4&#45;&gt;8</title>
<path fill="none" stroke="black" d="M243.5,-73.88C267.81,-56.88 320.25,-23.26 370.6,-11 397.96,-4.34 411.11,-5.81 432.6,-24 437.27,-27.96 445.14,-38.57 452.24,-48.81"/>
<polygon fill="black" stroke="black" points="449.41,-50.88 457.93,-57.18 455.2,-46.94 449.41,-50.88"/>
<text text-anchor="middle" x="348.6" y="-22.8" font-family="Times New Roman,serif" font-size="14.00">b</text>
</g>
<!-- 14 -->
<g id="node14" class="node">
<title>14</title>
<ellipse fill="none" stroke="black" cx="552.6" cy="-120" rx="18" ry="18"/>
<ellipse fill="none" stroke="black" cx="552.6" cy="-120" rx="22" ry="22"/>
</g>
<!-- 5&#45;&gt;14 -->
<g id="edge9" class="edge">
<title>5&#45;&gt;14</title>
<path fill="none" stroke="black" d="M482.87,-226.12C491.84,-232.21 503.63,-237.36 512.6,-231 537.5,-213.36 546.62,-178.5 549.9,-152.53"/>
<polygon fill="black" stroke="black" points="553.4,-152.67 550.95,-142.37 546.44,-151.96 553.4,-152.67"/>
<text text-anchor="middle" x="508.6" y="-236.8" font-family="Times New Roman,serif" font-size="14.00">a</text>
</g>
<!-- 5&#45;&gt;14 -->
<g id="edge10" class="edge">
<title>5&#45;&gt;14</title>
<path fill="none" stroke="black" d="M483.12,-204.11C491.98,-196.66 503.55,-186.29 512.6,-176 520.51,-167.01 528.25,-156.39 534.72,-146.83"/>
<polygon fill="black" stroke="black" points="537.69,-148.69 540.28,-138.42 531.85,-144.83 537.69,-148.69"/>
<text text-anchor="middle" x="508.6" y="-187.8" font-family="Times New Roman,serif" font-size="14.00">b</text>
</g>
<!-- 6&#45;&gt;8 -->
<g id="edge12" class="edge">
<title>6&#45;&gt;8</title>
<path fill="none" stroke="black" d="M325.79,-145.33C345.37,-138.25 379.13,-125.3 406.6,-111 419.8,-104.13 433.83,-95.28 445.1,-87.74"/>
<polygon fill="black" stroke="black" points="447.18,-90.56 453.49,-82.04 443.25,-84.77 447.18,-90.56"/>
<text text-anchor="middle" x="388.6" y="-130.8" font-family="Times New Roman,serif" font-size="14.00">b</text>
</g>
<!-- 9 -->
<g id="node10" class="node">
<title>9</title>
<ellipse fill="none" stroke="black" cx="388.6" cy="-194" rx="18" ry="18"/>
</g>
<!-- 6&#45;&gt;9 -->
<g id="edge11" class="edge">
<title>6&#45;&gt;9</title>
<path fill="none" stroke="black" d="M324.64,-159.29C335.65,-165.36 350.81,-173.72 363.5,-180.71"/>
<polygon fill="black" stroke="black" points="362.16,-183.97 372.61,-185.73 365.54,-177.84 362.16,-183.97"/>
<text text-anchor="middle" x="348.6" y="-176.8" font-family="Times New Roman,serif" font-size="14.00">a</text>
</g>
<!-- 7&#45;&gt;5 -->
<g id="edge13" class="edge">
<title>7&#45;&gt;5</title>
<path fill="none" stroke="black" d="M326.39,-80.63C347.2,-77.44 382.81,-75.31 406.6,-92 445.03,-118.95 428.27,-146.72 450.6,-188 451.22,-189.15 451.88,-190.32 452.55,-191.49"/>
<polygon fill="black" stroke="black" points="449.73,-193.6 457.89,-200.36 455.72,-189.98 449.73,-193.6"/>
<text text-anchor="middle" x="388.6" y="-95.8" font-family="Times New Roman,serif" font-size="14.00">a</text>
</g>
<!-- 10 -->
<g id="node11" class="node">
<title>10</title>
<ellipse fill="none" stroke="black" cx="388.6" cy="-38" rx="18" ry="18"/>
</g>
<!-- 7&#45;&gt;10 -->
<g id="edge14" class="edge">
<title>7&#45;&gt;10</title>
<path fill="none" stroke="black" d="M324.56,-74.96C330.75,-71.24 338.01,-66.89 344.6,-63 350.79,-59.34 357.51,-55.42 363.75,-51.79"/>
<polygon fill="black" stroke="black" points="365.55,-54.79 372.45,-46.74 362.04,-48.73 365.55,-54.79"/>
<text text-anchor="middle" x="348.6" y="-66.8" font-family="Times New Roman,serif" font-size="14.00">b</text>
</g>
<!-- 8&#45;&gt;14 -->
<g id="edge15" class="edge">
<title>8&#45;&gt;14</title>
<path fill="none" stroke="black" d="M484.64,-80.8C495.76,-87.31 511.21,-96.36 524.46,-104.12"/>
<polygon fill="black" stroke="black" points="522.81,-107.2 533.21,-109.24 526.35,-101.16 522.81,-107.2"/>
<text text-anchor="middle" x="508.6" y="-99.8" font-family="Times New Roman,serif" font-size="14.00">a</text>
</g>
<!-- 8&#45;&gt;14 -->
<g id="edge16" class="edge">
<title>8&#45;&gt;14</title>
<path fill="none" stroke="black" d="M486.73,-70.24C494.95,-70.11 504.7,-71.05 512.6,-75 520.98,-79.18 528.31,-86.04 534.28,-93.15"/>
<polygon fill="black" stroke="black" points="531.8,-95.66 540.66,-101.48 537.36,-91.41 531.8,-95.66"/>
<text text-anchor="middle" x="508.6" y="-78.8" font-family="Times New Roman,serif" font-size="14.00">b</text>
</g>
<!-- 9&#45;&gt;5 -->
<g id="edge17" class="edge">
<title>9&#45;&gt;5</title>
<path fill="none" stroke="black" d="M406.14,-198.45C416.38,-201.21 429.75,-204.81 441.4,-207.95"/>
<polygon fill="black" stroke="black" points="440.52,-211.33 451.08,-210.55 442.34,-204.57 440.52,-211.33"/>
<text text-anchor="middle" x="428.6" y="-208.8" font-family="Times New Roman,serif" font-size="14.00">a</text>
</g>
<!-- 12 -->
<g id="node12" class="node">
<title>12</title>
<ellipse fill="none" stroke="black" cx="468.6" cy="-161" rx="18" ry="18"/>
</g>
<!-- 9&#45;&gt;12 -->
<g id="edge18" class="edge">
<title>9&#45;&gt;12</title>
<path fill="none" stroke="black" d="M405.38,-187.32C416.06,-182.8 430.39,-176.74 442.61,-171.57"/>
<polygon fill="black" stroke="black" points="443.99,-174.79 451.84,-167.67 441.27,-168.34 443.99,-174.79"/>
<text text-anchor="middle" x="428.6" y="-181.8" font-family="Times New Roman,serif" font-size="14.00">b</text>
</g>
<!-- 10&#45;&gt;8 -->
<g id="edge20" class="edge">
<title>10&#45;&gt;8</title>
<path fill="none" stroke="black" d="M405.38,-44.88C416.06,-49.53 430.39,-55.78 442.61,-61.11"/>
<polygon fill="black" stroke="black" points="441.27,-64.34 451.84,-65.13 444.07,-57.93 441.27,-64.34"/>
<text text-anchor="middle" x="428.6" y="-60.8" font-family="Times New Roman,serif" font-size="14.00">b</text>
</g>
<!-- 13 -->
<g id="node13" class="node">
<title>13</title>
<ellipse fill="none" stroke="black" cx="468.6" cy="-18" rx="18" ry="18"/>
</g>
<!-- 10&#45;&gt;13 -->
<g id="edge19" class="edge">
<title>10&#45;&gt;13</title>
<path fill="none" stroke="black" d="M406.14,-33.76C416.28,-31.16 429.48,-27.77 441.05,-24.81"/>
<polygon fill="black" stroke="black" points="442.26,-28.11 451.08,-22.24 440.53,-21.33 442.26,-28.11"/>
<text text-anchor="middle" x="428.6" y="-32.8" font-family="Times New Roman,serif" font-size="14.00">a</text>
</g>
<!-- 12&#45;&gt;14 -->
<g id="edge21" class="edge">
<title>12&#45;&gt;14</title>
<path fill="none" stroke="black" d="M487,-160.89C495.1,-160.26 504.67,-158.68 512.6,-155 518.77,-152.13 524.67,-147.95 529.92,-143.47"/>
<polygon fill="black" stroke="black" points="532.66,-145.7 537.59,-136.33 527.89,-140.58 532.66,-145.7"/>
<text text-anchor="middle" x="508.6" y="-160.8" font-family="Times New Roman,serif" font-size="14.00">a</text>
</g>
<!-- 12&#45;&gt;14 -->
<g id="edge22" class="edge">
<title>12&#45;&gt;14</title>
<path fill="none" stroke="black" d="M482.97,-150.05C489.26,-145.27 497.03,-139.89 504.6,-136 509.78,-133.34 515.49,-130.98 521.1,-128.93"/>
<polygon fill="black" stroke="black" points="522.59,-132.12 530.94,-125.6 520.35,-125.49 522.59,-132.12"/>
<text text-anchor="middle" x="508.6" y="-139.8" font-family="Times New Roman,serif" font-size="14.00">b</text>
</g>
<!-- 13&#45;&gt;14 -->
<g id="edge23" class="edge">
<title>13&#45;&gt;14</title>
<path fill="none" stroke="black" d="M483.84,-27.96C492.77,-34.66 504.16,-44.05 512.6,-54 522.21,-65.32 530.85,-79.31 537.54,-91.49"/>
<polygon fill="black" stroke="black" points="534.48,-93.19 542.26,-100.38 540.66,-89.9 534.48,-93.19"/>
<text text-anchor="middle" x="508.6" y="-57.8" font-family="Times New Roman,serif" font-size="14.00">a</text>
</g>
<!-- 13&#45;&gt;14 -->
<g id="edge24" class="edge">
<title>13&#45;&gt;14</title>
<path fill="none" stroke="black" d="M486.73,-18.4C495.34,-19.43 505.44,-21.98 512.6,-28 530.69,-43.21 540.57,-68.29 545.86,-88.43"/>
<polygon fill="black" stroke="black" points="542.52,-89.5 548.22,-98.43 549.33,-87.89 542.52,-89.5"/>
<text text-anchor="middle" x="508.6" y="-31.8" font-family="Times New Roman,serif" font-size="14.00">b</text>
</g>
<!-- 14&#45;&gt;14 -->
<g id="edge25" class="edge">
<title>14:w&#45;&gt;14:w</title>
<path fill="none" stroke="black" d="M530.6,-120C523.27,-129 508.6,-129 508.6,-120 508.6,-113.81 515.53,-111.88 522.25,-114.2"/>
<polygon fill="black" stroke="black" points="520.39,-117.17 530.6,-120 524.38,-111.42 520.39,-117.17"/>
<text text-anchor="middle" x="497.6" y="-116.3" font-family="Times New Roman,serif" font-size="14.00">a,b </text>
</g>
</g>
</svg>
