<?xml version="1.0" encoding="UTF-8" standalone="no"?>
<!DOCTYPE svg PUBLIC "-//W3C//DTD SVG 1.1//EN"
 "http://www.w3.org/Graphics/SVG/1.1/DTD/svg11.dtd">
<!-- Generated by graphviz version 3.0.0 (20220226.1711)
 -->
<!-- Title: Test1 Pages: 1 -->
<svg width="243pt" height="77pt"
 viewBox="0.00 0.00 242.60 77.00" xmlns="http://www.w3.org/2000/svg" xmlns:xlink="http://www.w3.org/1999/xlink">
<g id="graph0" class="graph" transform="scale(1 1) rotate(0) translate(4 73)">
<title>Test1</title>
<polygon fill="white" stroke="transparent" points="-4,4 -4,-73 238.6,-73 238.6,4 -4,4"/>
<!-- 0 -->
<g id="node1" class="node">
<title>0</title>
<ellipse fill="black" stroke="black" cx="1.8" cy="-18" rx="1.8" ry="1.8"/>
</g>
<!-- 1 -->
<g id="node2" class="node">
<title>1</title>
<ellipse fill="none" stroke="black" cx="58.6" cy="-18" rx="18" ry="18"/>
<text text-anchor="middle" x="58.6" y="-14.3" font-family="Times New Roman,serif" font-size="14.00">1</text>
</g>
<!-- 0&#45;&gt;1 -->
<g id="edge1" class="edge">
<title>0&#45;&gt;1</title>
<path fill="none" stroke="black" d="M3.75,-18C7.11,-18 18.87,-18 30.55,-18"/>
<polygon fill="black" stroke="black" points="30.58,-21.5 40.58,-18 30.58,-14.5 30.58,-21.5"/>
</g>
<!-- 1&#45;&gt;1 -->
<g id="edge2" class="edge">
<title>1&#45;&gt;1</title>
<path fill="none" stroke="black" d="M52.22,-35.04C50.92,-44.86 53.05,-54 58.6,-54 62.07,-54 64.2,-50.43 65,-45.35"/>
<polygon fill="black" stroke="black" points="68.5,-45.03 64.98,-35.04 61.5,-45.04 68.5,-45.03"/>
<text text-anchor="middle" x="58.6" y="-57.8" font-family="Times New Roman,serif" font-size="14.00">b</text>
</g>
<!-- 2 -->
<g id="node3" class="node">
<title>2</title>
<ellipse fill="none" stroke="black" cx="137.6" cy="-18" rx="18" ry="18"/>
<text text-anchor="middle" x="137.6" y="-14.3" font-family="Times New Roman,serif" font-size="14.00">2</text>
</g>
<!-- 1&#45;&gt;2 -->
<g id="edge3" class="edge">
<title>1&#45;&gt;2</title>
<path fill="none" stroke="black" d="M76.69,-18C86.26,-18 98.42,-18 109.28,-18"/>
<polygon fill="black" stroke="black" points="109.56,-21.5 119.56,-18 109.56,-14.5 109.56,-21.5"/>
<text text-anchor="middle" x="98.1" y="-21.8" font-family="Times New Roman,serif" font-size="14.00">a</text>
</g>
<!-- 2&#45;&gt;2 -->
<g id="edge4" class="edge">
<title>2&#45;&gt;2</title>
<path fill="none" stroke="black" d="M130.87,-35.04C129.49,-44.86 131.74,-54 137.6,-54 141.26,-54 143.52,-50.43 144.35,-45.35"/>
<polygon fill="black" stroke="black" points="147.85,-45.03 144.33,-35.04 140.85,-45.04 147.85,-45.03"/>
<text text-anchor="middle" x="137.6" y="-57.8" font-family="Times New Roman,serif" font-size="14.00">b</text>
</g>
<!-- 3 -->
<g id="node4" class="node">
<title>3</title>
<ellipse fill="none" stroke="black" cx="216.6" cy="-18" rx="18" ry="18"/>
<text text-anchor="middle" x="216.6" y="-14.3" font-family="Times New Roman,serif" font-size="14.00">3</text>
</g>
<!-- 2&#45;&gt;3 -->
<g id="edge5" class="edge">
<title>2&#45;&gt;3</title>
<path fill="none" stroke="black" d="M155.69,-18C165.26,-18 177.42,-18 188.28,-18"/>
<polygon fill="black" stroke="black" points="188.56,-21.5 198.56,-18 188.56,-14.5 188.56,-21.5"/>
<text text-anchor="middle" x="177.1" y="-21.8" font-family="Times New Roman,serif" font-size="14.00">a</text>
</g>
<!-- 3&#45;&gt;3 -->
<g id="edge6" class="edge">
<title>3&#45;&gt;3</title>
<path fill="none" stroke="black" d="M209.87,-35.04C208.49,-44.86 210.74,-54 216.6,-54 220.26,-54 222.52,-50.43 223.35,-45.35"/>
<polygon fill="black" stroke="black" points="226.85,-45.03 223.33,-35.04 219.85,-45.04 226.85,-45.03"/>
<text text-anchor="middle" x="216.6" y="-57.8" font-family="Times New Roman,serif" font-size="14.00">b, a</text>
</g>
</g>
</svg>
