<?xml version="1.0" encoding="UTF-8" standalone="no"?>
<!DOCTYPE svg PUBLIC "-//W3C//DTD SVG 1.1//EN"
 "http://www.w3.org/Graphics/SVG/1.1/DTD/svg11.dtd">
<!-- Generated by graphviz version 3.0.0 (20220226.1711)
 -->
<!-- Title: Test2 Pages: 1 -->
<svg width="245pt" height="77pt"
 viewBox="0.00 0.00 244.60 77.00" xmlns="http://www.w3.org/2000/svg" xmlns:xlink="http://www.w3.org/1999/xlink">
<g id="graph0" class="graph" transform="scale(1 1) rotate(0) translate(4 73)">
<title>Test2</title>
<polygon fill="white" stroke="transparent" points="-4,4 -4,-73 240.6,-73 240.6,4 -4,4"/>
<!-- 0 -->
<g id="node1" class="node">
<title>0</title>
<ellipse fill="black" stroke="black" cx="1.8" cy="-18" rx="1.8" ry="1.8"/>
</g>
<!-- 4 -->
<g id="node2" class="node">
<title>4</title>
<ellipse fill="none" stroke="black" cx="58.6" cy="-18" rx="18" ry="18"/>
<text text-anchor="middle" x="58.6" y="-14.3" font-family="Times New Roman,serif" font-size="14.00">4</text>
</g>
<!-- 0&#45;&gt;4 -->
<g id="edge1" class="edge">
<title>0&#45;&gt;4</title>
<path fill="none" stroke="black" d="M3.75,-18C7.11,-18 18.87,-18 30.55,-18"/>
<polygon fill="black" stroke="black" points="30.58,-21.5 40.58,-18 30.58,-14.5 30.58,-21.5"/>
</g>
<!-- 4&#45;&gt;4 -->
<g id="edge3" class="edge">
<title>4&#45;&gt;4</title>
<path fill="none" stroke="black" d="M52.22,-35.04C50.92,-44.86 53.05,-54 58.6,-54 62.07,-54 64.2,-50.43 65,-45.35"/>
<polygon fill="black" stroke="black" points="68.5,-45.03 64.98,-35.04 61.5,-45.04 68.5,-45.03"/>
<text text-anchor="middle" x="58.6" y="-57.8" font-family="Times New Roman,serif" font-size="14.00">a</text>
</g>
<!-- 5 -->
<g id="node3" class="node">
<title>5</title>
<ellipse fill="none" stroke="black" cx="138.6" cy="-18" rx="18" ry="18"/>
<text text-anchor="middle" x="138.6" y="-14.3" font-family="Times New Roman,serif" font-size="14.00">5</text>
</g>
<!-- 4&#45;&gt;5 -->
<g id="edge2" class="edge">
<title>4&#45;&gt;5</title>
<path fill="none" stroke="black" d="M76.91,-18C86.71,-18 99.18,-18 110.27,-18"/>
<polygon fill="black" stroke="black" points="110.34,-21.5 120.34,-18 110.34,-14.5 110.34,-21.5"/>
<text text-anchor="middle" x="98.6" y="-21.8" font-family="Times New Roman,serif" font-size="14.00">b</text>
</g>
<!-- 5&#45;&gt;5 -->
<g id="edge5" class="edge">
<title>5&#45;&gt;5</title>
<path fill="none" stroke="black" d="M131.57,-34.66C130.01,-44.62 132.35,-54 138.6,-54 142.6,-54 145,-50.15 145.8,-44.77"/>
<polygon fill="black" stroke="black" points="149.3,-44.6 145.63,-34.66 142.3,-44.72 149.3,-44.6"/>
<text text-anchor="middle" x="138.6" y="-57.8" font-family="Times New Roman,serif" font-size="14.00">a</text>
</g>
<!-- 6 -->
<g id="node4" class="node">
<title>6</title>
<ellipse fill="none" stroke="black" cx="218.6" cy="-18" rx="18" ry="18"/>
<text text-anchor="middle" x="218.6" y="-14.3" font-family="Times New Roman,serif" font-size="14.00">6</text>
</g>
<!-- 5&#45;&gt;6 -->
<g id="edge4" class="edge">
<title>5&#45;&gt;6</title>
<path fill="none" stroke="black" d="M156.91,-18C166.71,-18 179.18,-18 190.27,-18"/>
<polygon fill="black" stroke="black" points="190.34,-21.5 200.34,-18 190.34,-14.5 190.34,-21.5"/>
<text text-anchor="middle" x="178.6" y="-21.8" font-family="Times New Roman,serif" font-size="14.00">b</text>
</g>
<!-- 6&#45;&gt;6 -->
<g id="edge6" class="edge">
<title>6&#45;&gt;6</title>
<path fill="none" stroke="black" d="M211.57,-34.66C210.01,-44.62 212.35,-54 218.6,-54 222.6,-54 225,-50.15 225.8,-44.77"/>
<polygon fill="black" stroke="black" points="229.3,-44.6 225.63,-34.66 222.3,-44.72 229.3,-44.6"/>
<text text-anchor="middle" x="218.6" y="-57.8" font-family="Times New Roman,serif" font-size="14.00">b, a</text>
</g>
</g>
</svg>
