<?xml version="1.0" encoding="UTF-8" standalone="no"?>
<!DOCTYPE svg PUBLIC "-//W3C//DTD SVG 1.1//EN"
 "http://www.w3.org/Graphics/SVG/1.1/DTD/svg11.dtd">
<!-- Generated by graphviz version 3.0.0 (20220226.1711)
 -->
<!-- Title: Test1 difference Test2 Pages: 1 -->
<svg width="462pt" height="250pt"
 viewBox="0.00 0.00 461.58 250.20" xmlns="http://www.w3.org/2000/svg" xmlns:xlink="http://www.w3.org/1999/xlink">
<g id="graph0" class="graph" transform="scale(1 1) rotate(0) translate(4 246.2)">
<title>Test1 difference Test2</title>
<polygon fill="white" stroke="transparent" points="-4,4 -4,-246.2 457.58,-246.2 457.58,4 -4,4"/>
<!-- 0 -->
<g id="node1" class="node">
<title>0</title>
<ellipse fill="black" stroke="black" cx="1.8" cy="-115.1" rx="1.8" ry="1.8"/>
</g>
<!-- 1,4 -->
<g id="node2" class="node">
<title>1,4</title>
<ellipse fill="none" stroke="black" cx="62.7" cy="-115.1" rx="22.2" ry="22.2"/>
<text text-anchor="middle" x="62.7" y="-111.4" font-family="Times New Roman,serif" font-size="14.00">1,4</text>
</g>
<!-- 0&#45;&gt;1,4 -->
<g id="edge1" class="edge">
<title>0&#45;&gt;1,4</title>
<path fill="none" stroke="black" d="M3.82,-115.1C7.2,-115.1 18.46,-115.1 30.17,-115.1"/>
<polygon fill="black" stroke="black" points="30.38,-118.6 40.38,-115.1 30.38,-111.6 30.38,-118.6"/>
</g>
<!-- 1,5 -->
<g id="node3" class="node">
<title>1,5</title>
<ellipse fill="none" stroke="black" cx="150.89" cy="-146.1" rx="22.2" ry="22.2"/>
<text text-anchor="middle" x="150.89" y="-142.4" font-family="Times New Roman,serif" font-size="14.00">1,5</text>
</g>
<!-- 1,4&#45;&gt;1,5 -->
<g id="edge2" class="edge">
<title>1,4&#45;&gt;1,5</title>
<path fill="none" stroke="black" d="M83.69,-122.29C94.49,-126.17 108.04,-131.05 120.07,-135.37"/>
<polygon fill="black" stroke="black" points="119.12,-138.75 129.71,-138.84 121.49,-132.16 119.12,-138.75"/>
<text text-anchor="middle" x="106.8" y="-134.9" font-family="Times New Roman,serif" font-size="14.00">b</text>
</g>
<!-- 2,4 -->
<g id="node5" class="node">
<title>2,4</title>
<ellipse fill="none" stroke="black" cx="150.89" cy="-84.1" rx="22.2" ry="22.2"/>
<text text-anchor="middle" x="150.89" y="-80.4" font-family="Times New Roman,serif" font-size="14.00">2,4</text>
</g>
<!-- 1,4&#45;&gt;2,4 -->
<g id="edge3" class="edge">
<title>1,4&#45;&gt;2,4</title>
<path fill="none" stroke="black" d="M83.69,-107.91C94.49,-104.02 108.04,-99.15 120.07,-94.83"/>
<polygon fill="black" stroke="black" points="121.49,-98.03 129.71,-91.36 119.12,-91.45 121.49,-98.03"/>
<text text-anchor="middle" x="106.8" y="-103.9" font-family="Times New Roman,serif" font-size="14.00">a</text>
</g>
<!-- 1,6 -->
<g id="node4" class="node">
<title>1,6</title>
<ellipse fill="none" stroke="black" cx="243.09" cy="-187.1" rx="22.2" ry="22.2"/>
<text text-anchor="middle" x="243.09" y="-183.4" font-family="Times New Roman,serif" font-size="14.00">1,6</text>
</g>
<!-- 1,5&#45;&gt;1,6 -->
<g id="edge4" class="edge">
<title>1,5&#45;&gt;1,6</title>
<path fill="none" stroke="black" d="M171.47,-154.99C183.64,-160.53 199.51,-167.74 213.13,-173.93"/>
<polygon fill="black" stroke="black" points="212.01,-177.27 222.56,-178.22 214.9,-170.89 212.01,-177.27"/>
<text text-anchor="middle" x="194.99" y="-169.9" font-family="Times New Roman,serif" font-size="14.00">b</text>
</g>
<!-- 2,5 -->
<g id="node6" class="node">
<title>2,5</title>
<ellipse fill="none" stroke="black" cx="243.09" cy="-125.1" rx="22.2" ry="22.2"/>
<text text-anchor="middle" x="243.09" y="-121.4" font-family="Times New Roman,serif" font-size="14.00">2,5</text>
</g>
<!-- 1,5&#45;&gt;2,5 -->
<g id="edge5" class="edge">
<title>1,5&#45;&gt;2,5</title>
<path fill="none" stroke="black" d="M172.81,-141.23C184.31,-138.55 198.79,-135.18 211.53,-132.21"/>
<polygon fill="black" stroke="black" points="212.34,-135.62 221.28,-129.94 210.75,-128.8 212.34,-135.62"/>
<text text-anchor="middle" x="194.99" y="-139.9" font-family="Times New Roman,serif" font-size="14.00">a</text>
</g>
<!-- 1,6&#45;&gt;1,6 -->
<g id="edge6" class="edge">
<title>1,6&#45;&gt;1,6</title>
<path fill="none" stroke="black" d="M234.36,-207.73C233.15,-218.02 236.06,-227.2 243.09,-227.2 247.59,-227.2 250.41,-223.43 251.53,-218.02"/>
<polygon fill="black" stroke="black" points="255.04,-217.83 251.82,-207.73 248.04,-217.63 255.04,-217.83"/>
<text text-anchor="middle" x="243.09" y="-231" font-family="Times New Roman,serif" font-size="14.00">b</text>
</g>
<!-- 2,6 -->
<g id="node7" class="node">
<title>2,6</title>
<ellipse fill="none" stroke="black" cx="339.29" cy="-150.1" rx="22.2" ry="22.2"/>
<text text-anchor="middle" x="339.29" y="-146.4" font-family="Times New Roman,serif" font-size="14.00">2,6</text>
</g>
<!-- 1,6&#45;&gt;2,6 -->
<g id="edge7" class="edge">
<title>1,6&#45;&gt;2,6</title>
<path fill="none" stroke="black" d="M264.07,-179.25C277.05,-174.15 294.22,-167.41 308.77,-161.69"/>
<polygon fill="black" stroke="black" points="310.31,-164.85 318.34,-157.93 307.75,-158.33 310.31,-164.85"/>
<text text-anchor="middle" x="291.19" y="-172.9" font-family="Times New Roman,serif" font-size="14.00">a</text>
</g>
<!-- 2,4&#45;&gt;2,5 -->
<g id="edge8" class="edge">
<title>2,4&#45;&gt;2,5</title>
<path fill="none" stroke="black" d="M171.47,-92.99C183.64,-98.53 199.51,-105.74 213.13,-111.93"/>
<polygon fill="black" stroke="black" points="212.01,-115.27 222.56,-116.22 214.9,-108.89 212.01,-115.27"/>
<text text-anchor="middle" x="194.99" y="-107.9" font-family="Times New Roman,serif" font-size="14.00">b</text>
</g>
<!-- 3,4 -->
<g id="node8" class="node">
<title>3,4</title>
<ellipse fill="none" stroke="black" cx="243.09" cy="-26.1" rx="22.18" ry="22.18"/>
<ellipse fill="none" stroke="black" cx="243.09" cy="-26.1" rx="26.2" ry="26.2"/>
<text text-anchor="middle" x="243.09" y="-22.4" font-family="Times New Roman,serif" font-size="14.00">3,4</text>
</g>
<!-- 2,4&#45;&gt;3,4 -->
<g id="edge9" class="edge">
<title>2,4&#45;&gt;3,4</title>
<path fill="none" stroke="black" d="M170.15,-72.36C182.14,-64.65 198.11,-54.38 211.96,-45.47"/>
<polygon fill="black" stroke="black" points="214.18,-48.21 220.69,-39.86 210.39,-42.32 214.18,-48.21"/>
<text text-anchor="middle" x="194.99" y="-62.9" font-family="Times New Roman,serif" font-size="14.00">a</text>
</g>
<!-- 2,5&#45;&gt;2,6 -->
<g id="edge10" class="edge">
<title>2,5&#45;&gt;2,6</title>
<path fill="none" stroke="black" d="M264.53,-130.52C277.16,-133.87 293.59,-138.24 307.75,-141.99"/>
<polygon fill="black" stroke="black" points="307,-145.42 317.56,-144.6 308.79,-138.65 307,-145.42"/>
<text text-anchor="middle" x="291.19" y="-141.9" font-family="Times New Roman,serif" font-size="14.00">b</text>
</g>
<!-- 3,5 -->
<g id="node9" class="node">
<title>3,5</title>
<ellipse fill="none" stroke="black" cx="339.29" cy="-51.1" rx="22.18" ry="22.18"/>
<ellipse fill="none" stroke="black" cx="339.29" cy="-51.1" rx="26.2" ry="26.2"/>
<text text-anchor="middle" x="339.29" y="-47.4" font-family="Times New Roman,serif" font-size="14.00">3,5</text>
</g>
<!-- 2,5&#45;&gt;3,5 -->
<g id="edge11" class="edge">
<title>2,5&#45;&gt;3,5</title>
<path fill="none" stroke="black" d="M260.93,-111.87C274.63,-101.11 294.25,-85.69 310.3,-73.08"/>
<polygon fill="black" stroke="black" points="312.62,-75.71 318.32,-66.78 308.3,-70.21 312.62,-75.71"/>
<text text-anchor="middle" x="291.19" y="-93.9" font-family="Times New Roman,serif" font-size="14.00">a</text>
</g>
<!-- 2,6&#45;&gt;2,6 -->
<g id="edge12" class="edge">
<title>2,6&#45;&gt;2,6</title>
<path fill="none" stroke="black" d="M330.55,-170.73C329.34,-181.02 332.26,-190.2 339.29,-190.2 343.79,-190.2 346.6,-186.43 347.73,-181.02"/>
<polygon fill="black" stroke="black" points="351.23,-180.83 348.02,-170.73 344.24,-180.63 351.23,-180.83"/>
<text text-anchor="middle" x="339.29" y="-194" font-family="Times New Roman,serif" font-size="14.00">b</text>
</g>
<!-- 3,6 -->
<g id="node10" class="node">
<title>3,6</title>
<ellipse fill="none" stroke="black" cx="431.48" cy="-100.1" rx="22.2" ry="22.2"/>
<text text-anchor="middle" x="431.48" y="-96.4" font-family="Times New Roman,serif" font-size="14.00">3,6</text>
</g>
<!-- 2,6&#45;&gt;3,6 -->
<g id="edge13" class="edge">
<title>2,6&#45;&gt;3,6</title>
<path fill="none" stroke="black" d="M358.97,-139.74C371.67,-132.7 388.68,-123.27 402.93,-115.37"/>
<polygon fill="black" stroke="black" points="404.77,-118.35 411.82,-110.44 401.37,-112.23 404.77,-118.35"/>
<text text-anchor="middle" x="387.38" y="-128.9" font-family="Times New Roman,serif" font-size="14.00">a</text>
</g>
<!-- 3,4&#45;&gt;3,4 -->
<g id="edge15" class="edge">
<title>3,4&#45;&gt;3,4</title>
<path fill="none" stroke="black" d="M234.17,-51.03C233.55,-61.4 236.53,-70.2 243.09,-70.2 247.29,-70.2 250.03,-66.59 251.28,-61.27"/>
<polygon fill="black" stroke="black" points="254.79,-61.25 252.01,-51.03 247.81,-60.76 254.79,-61.25"/>
<text text-anchor="middle" x="243.09" y="-74" font-family="Times New Roman,serif" font-size="14.00">a</text>
</g>
<!-- 3,4&#45;&gt;3,5 -->
<g id="edge14" class="edge">
<title>3,4&#45;&gt;3,5</title>
<path fill="none" stroke="black" d="M268.84,-32.67C279.55,-35.51 292.26,-38.88 303.87,-41.96"/>
<polygon fill="black" stroke="black" points="303.14,-45.39 313.7,-44.57 304.94,-38.63 303.14,-45.39"/>
<text text-anchor="middle" x="291.19" y="-43.9" font-family="Times New Roman,serif" font-size="14.00">b</text>
</g>
<!-- 3,5&#45;&gt;3,5 -->
<g id="edge17" class="edge">
<title>3,5&#45;&gt;3,5</title>
<path fill="none" stroke="black" d="M330.37,-76.03C329.75,-86.4 332.72,-95.2 339.29,-95.2 343.49,-95.2 346.22,-91.59 347.48,-86.27"/>
<polygon fill="black" stroke="black" points="350.99,-86.25 348.21,-76.03 344.01,-85.76 350.99,-86.25"/>
<text text-anchor="middle" x="339.29" y="-99" font-family="Times New Roman,serif" font-size="14.00">a</text>
</g>
<!-- 3,5&#45;&gt;3,6 -->
<g id="edge16" class="edge">
<title>3,5&#45;&gt;3,6</title>
<path fill="none" stroke="black" d="M362.58,-63.21C374.76,-69.82 389.94,-78.07 402.86,-85.09"/>
<polygon fill="black" stroke="black" points="401.33,-88.24 411.79,-89.94 404.67,-82.09 401.33,-88.24"/>
<text text-anchor="middle" x="387.38" y="-82.9" font-family="Times New Roman,serif" font-size="14.00">b</text>
</g>
<!-- 3,6&#45;&gt;3,6 -->
<g id="edge18" class="edge">
<title>3,6&#45;&gt;3,6</title>
<path fill="none" stroke="black" d="M423.48,-120.73C422.37,-131.02 425.04,-140.2 431.48,-140.2 435.61,-140.2 438.19,-136.43 439.22,-131.02"/>
<polygon fill="black" stroke="black" points="442.73,-130.82 439.49,-120.73 435.73,-130.63 442.73,-130.82"/>
<text text-anchor="middle" x="431.48" y="-144" font-family="Times New Roman,serif" font-size="14.00">b, a</text>
</g>
</g>
</svg>
