<?xml version="1.0" encoding="UTF-8" standalone="no"?>
<!DOCTYPE svg PUBLIC "-//W3C//DTD SVG 1.1//EN"
 "http://www.w3.org/Graphics/SVG/1.1/DTD/svg11.dtd">
<!-- Generated by graphviz version 3.0.0 (20220226.1711)
 -->
<!-- Title: Test1 intersection Test2 Pages: 1 -->
<svg width="445pt" height="242pt"
 viewBox="0.00 0.00 444.58 242.20" xmlns="http://www.w3.org/2000/svg" xmlns:xlink="http://www.w3.org/1999/xlink">
<g id="graph0" class="graph" transform="scale(1 1) rotate(0) translate(4 238.2)">
<title>Test1 intersection Test2</title>
<polygon fill="white" stroke="transparent" points="-4,4 -4,-238.2 440.58,-238.2 440.58,4 -4,4"/>
<!-- 0 -->
<g id="node1" class="node">
<title>0</title>
<ellipse fill="black" stroke="black" cx="1.8" cy="-104.1" rx="1.8" ry="1.8"/>
</g>
<!-- 1,4 -->
<g id="node2" class="node">
<title>1,4</title>
<ellipse fill="none" stroke="black" cx="62.7" cy="-104.1" rx="22.2" ry="22.2"/>
<text text-anchor="middle" x="62.7" y="-100.4" font-family="Times New Roman,serif" font-size="14.00">1,4</text>
</g>
<!-- 0&#45;&gt;1,4 -->
<g id="edge1" class="edge">
<title>0&#45;&gt;1,4</title>
<path fill="none" stroke="black" d="M3.82,-104.1C7.2,-104.1 18.46,-104.1 30.17,-104.1"/>
<polygon fill="black" stroke="black" points="30.38,-107.6 40.38,-104.1 30.38,-100.6 30.38,-107.6"/>
</g>
<!-- 1,5 -->
<g id="node3" class="node">
<title>1,5</title>
<ellipse fill="none" stroke="black" cx="150.89" cy="-135.1" rx="22.2" ry="22.2"/>
<text text-anchor="middle" x="150.89" y="-131.4" font-family="Times New Roman,serif" font-size="14.00">1,5</text>
</g>
<!-- 1,4&#45;&gt;1,5 -->
<g id="edge2" class="edge">
<title>1,4&#45;&gt;1,5</title>
<path fill="none" stroke="black" d="M83.69,-111.29C94.49,-115.17 108.04,-120.05 120.07,-124.37"/>
<polygon fill="black" stroke="black" points="119.12,-127.75 129.71,-127.84 121.49,-121.16 119.12,-127.75"/>
<text text-anchor="middle" x="106.8" y="-123.9" font-family="Times New Roman,serif" font-size="14.00">b</text>
</g>
<!-- 2,4 -->
<g id="node4" class="node">
<title>2,4</title>
<ellipse fill="none" stroke="black" cx="150.89" cy="-73.1" rx="22.2" ry="22.2"/>
<text text-anchor="middle" x="150.89" y="-69.4" font-family="Times New Roman,serif" font-size="14.00">2,4</text>
</g>
<!-- 1,4&#45;&gt;2,4 -->
<g id="edge3" class="edge">
<title>1,4&#45;&gt;2,4</title>
<path fill="none" stroke="black" d="M83.69,-96.91C94.49,-93.02 108.04,-88.15 120.07,-83.83"/>
<polygon fill="black" stroke="black" points="121.49,-87.03 129.71,-80.36 119.12,-80.45 121.49,-87.03"/>
<text text-anchor="middle" x="106.8" y="-93.9" font-family="Times New Roman,serif" font-size="14.00">a</text>
</g>
<!-- 1,6 -->
<g id="node5" class="node">
<title>1,6</title>
<ellipse fill="none" stroke="black" cx="239.09" cy="-179.1" rx="22.2" ry="22.2"/>
<text text-anchor="middle" x="239.09" y="-175.4" font-family="Times New Roman,serif" font-size="14.00">1,6</text>
</g>
<!-- 1,5&#45;&gt;1,6 -->
<g id="edge4" class="edge">
<title>1,5&#45;&gt;1,6</title>
<path fill="none" stroke="black" d="M171.02,-144.86C182.41,-150.67 197.06,-158.15 209.76,-164.64"/>
<polygon fill="black" stroke="black" points="208.52,-167.93 219.01,-169.36 211.7,-161.7 208.52,-167.93"/>
<text text-anchor="middle" x="194.99" y="-161.9" font-family="Times New Roman,serif" font-size="14.00">b</text>
</g>
<!-- 2,5 -->
<g id="node6" class="node">
<title>2,5</title>
<ellipse fill="none" stroke="black" cx="239.09" cy="-117.1" rx="22.2" ry="22.2"/>
<text text-anchor="middle" x="239.09" y="-113.4" font-family="Times New Roman,serif" font-size="14.00">2,5</text>
</g>
<!-- 1,5&#45;&gt;2,5 -->
<g id="edge5" class="edge">
<title>1,5&#45;&gt;2,5</title>
<path fill="none" stroke="black" d="M172.76,-130.74C183.14,-128.57 195.88,-125.91 207.35,-123.52"/>
<polygon fill="black" stroke="black" points="208.34,-126.89 217.42,-121.42 206.91,-120.03 208.34,-126.89"/>
<text text-anchor="middle" x="194.99" y="-129.9" font-family="Times New Roman,serif" font-size="14.00">a</text>
</g>
<!-- 2,4&#45;&gt;2,5 -->
<g id="edge8" class="edge">
<title>2,4&#45;&gt;2,5</title>
<path fill="none" stroke="black" d="M171.02,-82.86C182.41,-88.67 197.06,-96.15 209.76,-102.64"/>
<polygon fill="black" stroke="black" points="208.52,-105.93 219.01,-107.36 211.7,-99.7 208.52,-105.93"/>
<text text-anchor="middle" x="194.99" y="-100.9" font-family="Times New Roman,serif" font-size="14.00">b</text>
</g>
<!-- 3,4 -->
<g id="node8" class="node">
<title>3,4</title>
<ellipse fill="none" stroke="black" cx="239.09" cy="-22.1" rx="22.2" ry="22.2"/>
<text text-anchor="middle" x="239.09" y="-18.4" font-family="Times New Roman,serif" font-size="14.00">3,4</text>
</g>
<!-- 2,4&#45;&gt;3,4 -->
<g id="edge9" class="edge">
<title>2,4&#45;&gt;3,4</title>
<path fill="none" stroke="black" d="M170.17,-62.28C181.98,-55.3 197.55,-46.08 210.81,-38.24"/>
<polygon fill="black" stroke="black" points="212.72,-41.18 219.54,-33.07 209.15,-35.15 212.72,-41.18"/>
<text text-anchor="middle" x="194.99" y="-53.9" font-family="Times New Roman,serif" font-size="14.00">a</text>
</g>
<!-- 1,6&#45;&gt;1,6 -->
<g id="edge6" class="edge">
<title>1,6&#45;&gt;1,6</title>
<path fill="none" stroke="black" d="M231.08,-199.73C229.98,-210.02 232.64,-219.2 239.09,-219.2 243.22,-219.2 245.8,-215.43 246.83,-210.02"/>
<polygon fill="black" stroke="black" points="250.33,-209.82 247.1,-199.73 243.34,-209.63 250.33,-209.82"/>
<text text-anchor="middle" x="239.09" y="-223" font-family="Times New Roman,serif" font-size="14.00">b</text>
</g>
<!-- 2,6 -->
<g id="node7" class="node">
<title>2,6</title>
<ellipse fill="none" stroke="black" cx="327.29" cy="-144.1" rx="22.2" ry="22.2"/>
<text text-anchor="middle" x="327.29" y="-140.4" font-family="Times New Roman,serif" font-size="14.00">2,6</text>
</g>
<!-- 1,6&#45;&gt;2,6 -->
<g id="edge7" class="edge">
<title>1,6&#45;&gt;2,6</title>
<path fill="none" stroke="black" d="M260.08,-170.98C271.07,-166.52 284.9,-160.9 297.08,-155.96"/>
<polygon fill="black" stroke="black" points="298.45,-159.18 306.4,-152.17 295.82,-152.69 298.45,-159.18"/>
<text text-anchor="middle" x="283.19" y="-165.9" font-family="Times New Roman,serif" font-size="14.00">a</text>
</g>
<!-- 2,5&#45;&gt;2,6 -->
<g id="edge10" class="edge">
<title>2,5&#45;&gt;2,6</title>
<path fill="none" stroke="black" d="M260.52,-123.5C271.14,-126.83 284.34,-130.96 296.12,-134.65"/>
<polygon fill="black" stroke="black" points="295.42,-138.1 306.01,-137.75 297.51,-131.42 295.42,-138.1"/>
<text text-anchor="middle" x="283.19" y="-134.9" font-family="Times New Roman,serif" font-size="14.00">b</text>
</g>
<!-- 3,5 -->
<g id="node9" class="node">
<title>3,5</title>
<ellipse fill="none" stroke="black" cx="327.29" cy="-75.1" rx="22.2" ry="22.2"/>
<text text-anchor="middle" x="327.29" y="-71.4" font-family="Times New Roman,serif" font-size="14.00">3,5</text>
</g>
<!-- 2,5&#45;&gt;3,5 -->
<g id="edge11" class="edge">
<title>2,5&#45;&gt;3,5</title>
<path fill="none" stroke="black" d="M259.22,-107.78C270.6,-102.23 285.26,-95.09 297.96,-88.9"/>
<polygon fill="black" stroke="black" points="299.75,-91.92 307.21,-84.39 296.69,-85.63 299.75,-91.92"/>
<text text-anchor="middle" x="283.19" y="-101.9" font-family="Times New Roman,serif" font-size="14.00">a</text>
</g>
<!-- 2,6&#45;&gt;2,6 -->
<g id="edge12" class="edge">
<title>2,6&#45;&gt;2,6</title>
<path fill="none" stroke="black" d="M319.6,-165.14C318.66,-175.26 321.22,-184.2 327.29,-184.2 331.18,-184.2 333.62,-180.53 334.63,-175.23"/>
<polygon fill="black" stroke="black" points="338.13,-175.25 334.97,-165.14 331.14,-175.02 338.13,-175.25"/>
<text text-anchor="middle" x="327.29" y="-188" font-family="Times New Roman,serif" font-size="14.00">b</text>
</g>
<!-- 3,6 -->
<g id="node10" class="node">
<title>3,6</title>
<ellipse fill="none" stroke="black" cx="414.48" cy="-144.1" rx="22.2" ry="22.2"/>
<text text-anchor="middle" x="414.48" y="-140.4" font-family="Times New Roman,serif" font-size="14.00">3,6</text>
</g>
<!-- 2,6&#45;&gt;3,6 -->
<g id="edge13" class="edge">
<title>2,6&#45;&gt;3,6</title>
<path fill="none" stroke="black" d="M349.78,-144.1C359.55,-144.1 371.28,-144.1 382.01,-144.1"/>
<polygon fill="black" stroke="black" points="382.29,-147.6 392.29,-144.1 382.29,-140.6 382.29,-147.6"/>
<text text-anchor="middle" x="370.88" y="-147.9" font-family="Times New Roman,serif" font-size="14.00">a</text>
</g>
<!-- 3,4&#45;&gt;3,4 -->
<g id="edge15" class="edge">
<title>3,4&#45;&gt;3,4</title>
<path fill="none" stroke="black" d="M231.08,-42.73C229.98,-53.02 232.64,-62.2 239.09,-62.2 243.22,-62.2 245.8,-58.43 246.83,-53.02"/>
<polygon fill="black" stroke="black" points="250.33,-52.82 247.1,-42.73 243.34,-52.63 250.33,-52.82"/>
<text text-anchor="middle" x="239.09" y="-66" font-family="Times New Roman,serif" font-size="14.00">a</text>
</g>
<!-- 3,4&#45;&gt;3,5 -->
<g id="edge14" class="edge">
<title>3,4&#45;&gt;3,5</title>
<path fill="none" stroke="black" d="M258.37,-33.34C270.26,-40.65 285.96,-50.3 299.27,-58.49"/>
<polygon fill="black" stroke="black" points="297.68,-61.62 308.03,-63.87 301.35,-55.65 297.68,-61.62"/>
<text text-anchor="middle" x="283.19" y="-54.9" font-family="Times New Roman,serif" font-size="14.00">b</text>
</g>
</g>
</svg>
