<?xml version="1.0" encoding="UTF-8" standalone="no"?>
<!DOCTYPE svg PUBLIC "-//W3C//DTD SVG 1.1//EN"
 "http://www.w3.org/Graphics/SVG/1.1/DTD/svg11.dtd">
<!-- Generated by graphviz version 3.0.0 (20220226.1711)
 -->
<!-- Title: Test1 intersection Test2 Pages: 1 -->
<svg width="356pt" height="209pt"
 viewBox="0.00 0.00 356.38 209.20" xmlns="http://www.w3.org/2000/svg" xmlns:xlink="http://www.w3.org/1999/xlink">
<g id="graph0" class="graph" transform="scale(1 1) rotate(0) translate(4 205.2)">
<title>Test1 intersection Test2</title>
<polygon fill="white" stroke="transparent" points="-4,4 -4,-205.2 352.38,-205.2 352.38,4 -4,4"/>
<!-- 0 -->
<g id="node1" class="node">
<title>0</title>
<ellipse fill="black" stroke="black" cx="1.8" cy="-85.1" rx="1.8" ry="1.8"/>
</g>
<!-- 1,4 -->
<g id="node2" class="node">
<title>1,4</title>
<ellipse fill="none" stroke="black" cx="62.7" cy="-85.1" rx="22.2" ry="22.2"/>
<text text-anchor="middle" x="62.7" y="-81.4" font-family="Times New Roman,serif" font-size="14.00">1,4</text>
</g>
<!-- 0&#45;&gt;1,4 -->
<g id="edge1" class="edge">
<title>0&#45;&gt;1,4</title>
<path fill="none" stroke="black" d="M3.82,-85.1C7.2,-85.1 18.46,-85.1 30.17,-85.1"/>
<polygon fill="black" stroke="black" points="30.38,-88.6 40.38,-85.1 30.38,-81.6 30.38,-88.6"/>
</g>
<!-- 1,5 -->
<g id="node3" class="node">
<title>1,5</title>
<ellipse fill="none" stroke="black" cx="150.89" cy="-116.1" rx="22.2" ry="22.2"/>
<text text-anchor="middle" x="150.89" y="-112.4" font-family="Times New Roman,serif" font-size="14.00">1,5</text>
</g>
<!-- 1,4&#45;&gt;1,5 -->
<g id="edge2" class="edge">
<title>1,4&#45;&gt;1,5</title>
<path fill="none" stroke="black" d="M83.69,-92.29C94.49,-96.17 108.04,-101.05 120.07,-105.37"/>
<polygon fill="black" stroke="black" points="119.12,-108.75 129.71,-108.84 121.49,-102.16 119.12,-108.75"/>
<text text-anchor="middle" x="106.8" y="-105.9" font-family="Times New Roman,serif" font-size="14.00">b</text>
</g>
<!-- 2,4 -->
<g id="node4" class="node">
<title>2,4</title>
<ellipse fill="none" stroke="black" cx="150.89" cy="-54.1" rx="22.2" ry="22.2"/>
<text text-anchor="middle" x="150.89" y="-50.4" font-family="Times New Roman,serif" font-size="14.00">2,4</text>
</g>
<!-- 1,4&#45;&gt;2,4 -->
<g id="edge3" class="edge">
<title>1,4&#45;&gt;2,4</title>
<path fill="none" stroke="black" d="M83.69,-77.91C94.49,-74.02 108.04,-69.15 120.07,-64.83"/>
<polygon fill="black" stroke="black" points="121.49,-68.03 129.71,-61.36 119.12,-61.45 121.49,-68.03"/>
<text text-anchor="middle" x="106.8" y="-74.9" font-family="Times New Roman,serif" font-size="14.00">a</text>
</g>
<!-- 1,6 -->
<g id="node5" class="node">
<title>1,6</title>
<ellipse fill="none" stroke="black" cx="239.09" cy="-146.1" rx="22.2" ry="22.2"/>
<text text-anchor="middle" x="239.09" y="-142.4" font-family="Times New Roman,serif" font-size="14.00">1,6</text>
</g>
<!-- 1,5&#45;&gt;1,6 -->
<g id="edge4" class="edge">
<title>1,5&#45;&gt;1,6</title>
<path fill="none" stroke="black" d="M171.89,-123.06C182.69,-126.82 196.24,-131.53 208.26,-135.72"/>
<polygon fill="black" stroke="black" points="207.31,-139.09 217.91,-139.07 209.61,-132.48 207.31,-139.09"/>
<text text-anchor="middle" x="194.99" y="-135.9" font-family="Times New Roman,serif" font-size="14.00">b</text>
</g>
<!-- 2,5 -->
<g id="node6" class="node">
<title>2,5</title>
<ellipse fill="none" stroke="black" cx="239.09" cy="-84.1" rx="22.2" ry="22.2"/>
<text text-anchor="middle" x="239.09" y="-80.4" font-family="Times New Roman,serif" font-size="14.00">2,5</text>
</g>
<!-- 1,5&#45;&gt;2,5 -->
<g id="edge5" class="edge">
<title>1,5&#45;&gt;2,5</title>
<path fill="none" stroke="black" d="M171.89,-108.68C182.76,-104.64 196.43,-99.56 208.52,-95.08"/>
<polygon fill="black" stroke="black" points="210.05,-98.24 218.21,-91.48 207.61,-91.68 210.05,-98.24"/>
<text text-anchor="middle" x="194.99" y="-104.9" font-family="Times New Roman,serif" font-size="14.00">a</text>
</g>
<!-- 2,4&#45;&gt;2,5 -->
<g id="edge8" class="edge">
<title>2,4&#45;&gt;2,5</title>
<path fill="none" stroke="black" d="M172.67,-59.79C180.92,-62.18 190.46,-65.09 198.99,-68.1 202.27,-69.25 205.68,-70.53 209.06,-71.84"/>
<polygon fill="black" stroke="black" points="207.76,-75.1 218.35,-75.57 210.37,-68.6 207.76,-75.1"/>
<text text-anchor="middle" x="194.99" y="-71.9" font-family="Times New Roman,serif" font-size="14.00">b</text>
</g>
<!-- 3,4 -->
<g id="node8" class="node">
<title>3,4</title>
<ellipse fill="none" stroke="black" cx="239.09" cy="-22.1" rx="22.2" ry="22.2"/>
<text text-anchor="middle" x="239.09" y="-18.4" font-family="Times New Roman,serif" font-size="14.00">3,4</text>
</g>
<!-- 2,4&#45;&gt;3,4 -->
<g id="edge9" class="edge">
<title>2,4&#45;&gt;3,4</title>
<path fill="none" stroke="black" d="M171.89,-46.68C182.76,-42.64 196.43,-37.56 208.52,-33.08"/>
<polygon fill="black" stroke="black" points="210.05,-36.24 218.21,-29.48 207.61,-29.68 210.05,-36.24"/>
<text text-anchor="middle" x="194.99" y="-42.9" font-family="Times New Roman,serif" font-size="14.00">a</text>
</g>
<!-- 1,6&#45;&gt;1,6 -->
<g id="edge6" class="edge">
<title>1,6&#45;&gt;1,6</title>
<path fill="none" stroke="black" d="M231.41,-167.14C230.46,-177.26 233.02,-186.2 239.09,-186.2 242.98,-186.2 245.43,-182.53 246.44,-177.23"/>
<polygon fill="black" stroke="black" points="249.94,-177.25 246.77,-167.14 242.94,-177.02 249.94,-177.25"/>
<text text-anchor="middle" x="239.09" y="-190" font-family="Times New Roman,serif" font-size="14.00">b</text>
</g>
<!-- 2,6 -->
<g id="node7" class="node">
<title>2,6</title>
<ellipse fill="none" stroke="black" cx="326.29" cy="-146.1" rx="22.2" ry="22.2"/>
<text text-anchor="middle" x="326.29" y="-142.4" font-family="Times New Roman,serif" font-size="14.00">2,6</text>
</g>
<!-- 1,6&#45;&gt;2,6 -->
<g id="edge7" class="edge">
<title>1,6&#45;&gt;2,6</title>
<path fill="none" stroke="black" d="M261.59,-146.1C271.35,-146.1 283.09,-146.1 293.81,-146.1"/>
<polygon fill="black" stroke="black" points="294.09,-149.6 304.09,-146.1 294.09,-142.6 294.09,-149.6"/>
<text text-anchor="middle" x="282.69" y="-149.9" font-family="Times New Roman,serif" font-size="14.00">a</text>
</g>
</g>
</svg>
