<?xml version="1.0" encoding="UTF-8" standalone="no"?>
<!DOCTYPE svg PUBLIC "-//W3C//DTD SVG 1.1//EN"
 "http://www.w3.org/Graphics/SVG/1.1/DTD/svg11.dtd">
<!-- Generated by graphviz version 3.0.0 (20220226.1711)
 -->
<!-- Title: Test1 intersection Test2 Pages: 1 -->
<svg width="356pt" height="184pt"
 viewBox="0.00 0.00 356.38 184.20" xmlns="http://www.w3.org/2000/svg" xmlns:xlink="http://www.w3.org/1999/xlink">
<g id="graph0" class="graph" transform="scale(1 1) rotate(0) translate(4 180.2)">
<title>Test1 intersection Test2</title>
<polygon fill="white" stroke="transparent" points="-4,4 -4,-180.2 352.38,-180.2 352.38,4 -4,4"/>
<!-- 0 -->
<g id="node1" class="node">
<title>0</title>
<ellipse fill="black" stroke="black" cx="1.8" cy="-41.1" rx="1.8" ry="1.8"/>
</g>
<!-- 1,4 -->
<g id="node2" class="node">
<title>1,4</title>
<ellipse fill="none" stroke="black" cx="62.7" cy="-41.1" rx="22.2" ry="22.2"/>
<text text-anchor="middle" x="62.7" y="-37.4" font-family="Times New Roman,serif" font-size="14.00">1,4</text>
</g>
<!-- 0&#45;&gt;1,4 -->
<g id="edge1" class="edge">
<title>0&#45;&gt;1,4</title>
<path fill="none" stroke="black" d="M3.82,-41.1C7.2,-41.1 18.46,-41.1 30.17,-41.1"/>
<polygon fill="black" stroke="black" points="30.38,-44.6 40.38,-41.1 30.38,-37.6 30.38,-44.6"/>
</g>
<!-- 1,5 -->
<g id="node3" class="node">
<title>1,5</title>
<ellipse fill="none" stroke="black" cx="150.89" cy="-84.1" rx="22.2" ry="22.2"/>
<text text-anchor="middle" x="150.89" y="-80.4" font-family="Times New Roman,serif" font-size="14.00">1,5</text>
</g>
<!-- 1,4&#45;&gt;1,5 -->
<g id="edge2" class="edge">
<title>1,4&#45;&gt;1,5</title>
<path fill="none" stroke="black" d="M82.83,-50.64C94.21,-56.32 108.86,-63.63 121.57,-69.97"/>
<polygon fill="black" stroke="black" points="120.31,-73.25 130.82,-74.58 123.43,-66.99 120.31,-73.25"/>
<text text-anchor="middle" x="106.8" y="-66.9" font-family="Times New Roman,serif" font-size="14.00">b</text>
</g>
<!-- 2,4 -->
<g id="node4" class="node">
<title>2,4</title>
<ellipse fill="none" stroke="black" cx="150.89" cy="-22.1" rx="22.2" ry="22.2"/>
<text text-anchor="middle" x="150.89" y="-18.4" font-family="Times New Roman,serif" font-size="14.00">2,4</text>
</g>
<!-- 1,4&#45;&gt;2,4 -->
<g id="edge3" class="edge">
<title>1,4&#45;&gt;2,4</title>
<path fill="none" stroke="black" d="M84.56,-36.5C94.94,-34.21 107.68,-31.4 119.15,-28.87"/>
<polygon fill="black" stroke="black" points="120.21,-32.23 129.22,-26.66 118.7,-25.39 120.21,-32.23"/>
<text text-anchor="middle" x="106.8" y="-36.9" font-family="Times New Roman,serif" font-size="14.00">a</text>
</g>
<!-- 1,6 -->
<g id="node5" class="node">
<title>1,6</title>
<ellipse fill="none" stroke="black" cx="239.09" cy="-121.1" rx="22.2" ry="22.2"/>
<text text-anchor="middle" x="239.09" y="-117.4" font-family="Times New Roman,serif" font-size="14.00">1,6</text>
</g>
<!-- 1,5&#45;&gt;1,6 -->
<g id="edge4" class="edge">
<title>1,5&#45;&gt;1,6</title>
<path fill="none" stroke="black" d="M171.45,-92.49C182.58,-97.27 196.74,-103.35 209.13,-108.67"/>
<polygon fill="black" stroke="black" points="208.04,-112.01 218.61,-112.74 210.8,-105.57 208.04,-112.01"/>
<text text-anchor="middle" x="194.99" y="-106.9" font-family="Times New Roman,serif" font-size="14.00">b</text>
</g>
<!-- 2,5 -->
<g id="node6" class="node">
<title>2,5</title>
<ellipse fill="none" stroke="black" cx="239.09" cy="-59.1" rx="22.2" ry="22.2"/>
<text text-anchor="middle" x="239.09" y="-55.4" font-family="Times New Roman,serif" font-size="14.00">2,5</text>
</g>
<!-- 1,5&#45;&gt;2,5 -->
<g id="edge5" class="edge">
<title>1,5&#45;&gt;2,5</title>
<path fill="none" stroke="black" d="M172.15,-77.76C178.2,-75.9 184.86,-73.89 190.99,-72.1 196.39,-70.53 202.14,-68.9 207.71,-67.35"/>
<polygon fill="black" stroke="black" points="208.71,-70.7 217.42,-64.67 206.85,-63.95 208.71,-70.7"/>
<text text-anchor="middle" x="194.99" y="-75.9" font-family="Times New Roman,serif" font-size="14.00">a</text>
</g>
<!-- 1,6&#45;&gt;1,6 -->
<g id="edge6" class="edge">
<title>1,6&#45;&gt;1,6</title>
<path fill="none" stroke="black" d="M231.41,-142.14C230.46,-152.26 233.02,-161.2 239.09,-161.2 242.98,-161.2 245.43,-157.53 246.44,-152.23"/>
<polygon fill="black" stroke="black" points="249.94,-152.25 246.77,-142.14 242.94,-152.02 249.94,-152.25"/>
<text text-anchor="middle" x="239.09" y="-165" font-family="Times New Roman,serif" font-size="14.00">b</text>
</g>
<!-- 2,6 -->
<g id="node7" class="node">
<title>2,6</title>
<ellipse fill="none" stroke="black" cx="326.29" cy="-121.1" rx="22.2" ry="22.2"/>
<text text-anchor="middle" x="326.29" y="-117.4" font-family="Times New Roman,serif" font-size="14.00">2,6</text>
</g>
<!-- 1,6&#45;&gt;2,6 -->
<g id="edge7" class="edge">
<title>1,6&#45;&gt;2,6</title>
<path fill="none" stroke="black" d="M261.59,-121.1C271.35,-121.1 283.09,-121.1 293.81,-121.1"/>
<polygon fill="black" stroke="black" points="294.09,-124.6 304.09,-121.1 294.09,-117.6 294.09,-124.6"/>
<text text-anchor="middle" x="282.69" y="-124.9" font-family="Times New Roman,serif" font-size="14.00">a</text>
</g>
</g>
</svg>
