<?xml version="1.0" encoding="UTF-8" standalone="no"?>
<!DOCTYPE svg PUBLIC "-//W3C//DTD SVG 1.1//EN"
 "http://www.w3.org/Graphics/SVG/1.1/DTD/svg11.dtd">
<!-- Generated by graphviz version 3.0.0 (20220226.1711)
 -->
<!-- Title: Test1 intersection Test2 Pages: 1 -->
<svg width="269pt" height="145pt"
 viewBox="0.00 0.00 269.19 145.20" xmlns="http://www.w3.org/2000/svg" xmlns:xlink="http://www.w3.org/1999/xlink">
<g id="graph0" class="graph" transform="scale(1 1) rotate(0) translate(4 141.2)">
<title>Test1 intersection Test2</title>
<polygon fill="white" stroke="transparent" points="-4,4 -4,-141.2 265.19,-141.2 265.19,4 -4,4"/>
<!-- 0 -->
<g id="node1" class="node">
<title>0</title>
<ellipse fill="black" stroke="black" cx="1.8" cy="-41.1" rx="1.8" ry="1.8"/>
</g>
<!-- 1,4 -->
<g id="node2" class="node">
<title>1,4</title>
<ellipse fill="none" stroke="black" cx="62.7" cy="-41.1" rx="22.2" ry="22.2"/>
<text text-anchor="middle" x="62.7" y="-37.4" font-family="Times New Roman,serif" font-size="14.00">1,4</text>
</g>
<!-- 0&#45;&gt;1,4 -->
<g id="edge1" class="edge">
<title>0&#45;&gt;1,4</title>
<path fill="none" stroke="black" d="M3.82,-41.1C7.2,-41.1 18.46,-41.1 30.17,-41.1"/>
<polygon fill="black" stroke="black" points="30.38,-44.6 40.38,-41.1 30.38,-37.6 30.38,-44.6"/>
</g>
<!-- 1,5 -->
<g id="node3" class="node">
<title>1,5</title>
<ellipse fill="none" stroke="black" cx="150.89" cy="-84.1" rx="22.2" ry="22.2"/>
<text text-anchor="middle" x="150.89" y="-80.4" font-family="Times New Roman,serif" font-size="14.00">1,5</text>
</g>
<!-- 1,4&#45;&gt;1,5 -->
<g id="edge2" class="edge">
<title>1,4&#45;&gt;1,5</title>
<path fill="none" stroke="black" d="M82.83,-50.64C94.21,-56.32 108.86,-63.63 121.57,-69.97"/>
<polygon fill="black" stroke="black" points="120.31,-73.25 130.82,-74.58 123.43,-66.99 120.31,-73.25"/>
<text text-anchor="middle" x="106.8" y="-66.9" font-family="Times New Roman,serif" font-size="14.00">b</text>
</g>
<!-- 2,4 -->
<g id="node4" class="node">
<title>2,4</title>
<ellipse fill="none" stroke="black" cx="150.89" cy="-22.1" rx="22.2" ry="22.2"/>
<text text-anchor="middle" x="150.89" y="-18.4" font-family="Times New Roman,serif" font-size="14.00">2,4</text>
</g>
<!-- 1,4&#45;&gt;2,4 -->
<g id="edge3" class="edge">
<title>1,4&#45;&gt;2,4</title>
<path fill="none" stroke="black" d="M84.56,-36.5C94.94,-34.21 107.68,-31.4 119.15,-28.87"/>
<polygon fill="black" stroke="black" points="120.21,-32.23 129.22,-26.66 118.7,-25.39 120.21,-32.23"/>
<text text-anchor="middle" x="106.8" y="-36.9" font-family="Times New Roman,serif" font-size="14.00">a</text>
</g>
<!-- 1,6 -->
<g id="node5" class="node">
<title>1,6</title>
<ellipse fill="none" stroke="black" cx="239.09" cy="-115.1" rx="22.2" ry="22.2"/>
<text text-anchor="middle" x="239.09" y="-111.4" font-family="Times New Roman,serif" font-size="14.00">1,6</text>
</g>
<!-- 1,5&#45;&gt;1,6 -->
<g id="edge4" class="edge">
<title>1,5&#45;&gt;1,6</title>
<path fill="none" stroke="black" d="M171.89,-91.29C182.69,-95.17 196.24,-100.05 208.26,-104.37"/>
<polygon fill="black" stroke="black" points="207.31,-107.75 217.91,-107.84 209.68,-101.16 207.31,-107.75"/>
<text text-anchor="middle" x="194.99" y="-103.9" font-family="Times New Roman,serif" font-size="14.00">b</text>
</g>
<!-- 2,5 -->
<g id="node6" class="node">
<title>2,5</title>
<ellipse fill="none" stroke="black" cx="239.09" cy="-53.1" rx="22.2" ry="22.2"/>
<text text-anchor="middle" x="239.09" y="-49.4" font-family="Times New Roman,serif" font-size="14.00">2,5</text>
</g>
<!-- 1,5&#45;&gt;2,5 -->
<g id="edge5" class="edge">
<title>1,5&#45;&gt;2,5</title>
<path fill="none" stroke="black" d="M171.89,-76.91C182.69,-73.02 196.24,-68.15 208.26,-63.83"/>
<polygon fill="black" stroke="black" points="209.68,-67.03 217.91,-60.36 207.31,-60.45 209.68,-67.03"/>
<text text-anchor="middle" x="194.99" y="-72.9" font-family="Times New Roman,serif" font-size="14.00">a</text>
</g>
</g>
</svg>
