<?xml version="1.0" encoding="UTF-8" standalone="no"?>
<!DOCTYPE svg PUBLIC "-//W3C//DTD SVG 1.1//EN"
 "http://www.w3.org/Graphics/SVG/1.1/DTD/svg11.dtd">
<!-- Generated by graphviz version 3.0.0 (20220226.1711)
 -->
<!-- Title: Test1 intersection Test2 Pages: 1 -->
<svg width="446pt" height="242pt"
 viewBox="0.00 0.00 445.58 242.20" xmlns="http://www.w3.org/2000/svg" xmlns:xlink="http://www.w3.org/1999/xlink">
<g id="graph0" class="graph" transform="scale(1 1) rotate(0) translate(4 238.2)">
<title>Test1 intersection Test2</title>
<polygon fill="white" stroke="transparent" points="-4,4 -4,-238.2 441.58,-238.2 441.58,4 -4,4"/>
<!-- 0 -->
<g id="node1" class="node">
<title>0</title>
<ellipse fill="black" stroke="black" cx="1.8" cy="-107.1" rx="1.8" ry="1.8"/>
</g>
<!-- 1,4 -->
<g id="node2" class="node">
<title>1,4</title>
<ellipse fill="none" stroke="black" cx="62.7" cy="-107.1" rx="22.2" ry="22.2"/>
<text text-anchor="middle" x="62.7" y="-103.4" font-family="Times New Roman,serif" font-size="14.00">1,4</text>
</g>
<!-- 0&#45;&gt;1,4 -->
<g id="edge1" class="edge">
<title>0&#45;&gt;1,4</title>
<path fill="none" stroke="black" d="M3.82,-107.1C7.2,-107.1 18.46,-107.1 30.17,-107.1"/>
<polygon fill="black" stroke="black" points="30.38,-110.6 40.38,-107.1 30.38,-103.6 30.38,-110.6"/>
</g>
<!-- 1,5 -->
<g id="node3" class="node">
<title>1,5</title>
<ellipse fill="none" stroke="black" cx="150.89" cy="-138.1" rx="22.2" ry="22.2"/>
<text text-anchor="middle" x="150.89" y="-134.4" font-family="Times New Roman,serif" font-size="14.00">1,5</text>
</g>
<!-- 1,4&#45;&gt;1,5 -->
<g id="edge2" class="edge">
<title>1,4&#45;&gt;1,5</title>
<path fill="none" stroke="black" d="M83.69,-114.29C94.49,-118.17 108.04,-123.05 120.07,-127.37"/>
<polygon fill="black" stroke="black" points="119.12,-130.75 129.71,-130.84 121.49,-124.16 119.12,-130.75"/>
<text text-anchor="middle" x="106.8" y="-126.9" font-family="Times New Roman,serif" font-size="14.00">b</text>
</g>
<!-- 2,4 -->
<g id="node4" class="node">
<title>2,4</title>
<ellipse fill="none" stroke="black" cx="150.89" cy="-76.1" rx="22.2" ry="22.2"/>
<text text-anchor="middle" x="150.89" y="-72.4" font-family="Times New Roman,serif" font-size="14.00">2,4</text>
</g>
<!-- 1,4&#45;&gt;2,4 -->
<g id="edge3" class="edge">
<title>1,4&#45;&gt;2,4</title>
<path fill="none" stroke="black" d="M83.69,-99.91C94.49,-96.02 108.04,-91.15 120.07,-86.83"/>
<polygon fill="black" stroke="black" points="121.49,-90.03 129.71,-83.36 119.12,-83.45 121.49,-90.03"/>
<text text-anchor="middle" x="106.8" y="-95.9" font-family="Times New Roman,serif" font-size="14.00">a</text>
</g>
<!-- 1,6 -->
<g id="node5" class="node">
<title>1,6</title>
<ellipse fill="none" stroke="black" cx="239.09" cy="-179.1" rx="22.2" ry="22.2"/>
<text text-anchor="middle" x="239.09" y="-175.4" font-family="Times New Roman,serif" font-size="14.00">1,6</text>
</g>
<!-- 1,5&#45;&gt;1,6 -->
<g id="edge4" class="edge">
<title>1,5&#45;&gt;1,6</title>
<path fill="none" stroke="black" d="M171.45,-147.4C182.77,-152.79 197.22,-159.66 209.77,-165.62"/>
<polygon fill="black" stroke="black" points="208.37,-168.84 218.91,-169.97 211.38,-162.52 208.37,-168.84"/>
<text text-anchor="middle" x="194.99" y="-162.9" font-family="Times New Roman,serif" font-size="14.00">b</text>
</g>
<!-- 2,5 -->
<g id="node6" class="node">
<title>2,5</title>
<ellipse fill="none" stroke="black" cx="239.09" cy="-117.1" rx="22.2" ry="22.2"/>
<text text-anchor="middle" x="239.09" y="-113.4" font-family="Times New Roman,serif" font-size="14.00">2,5</text>
</g>
<!-- 1,5&#45;&gt;2,5 -->
<g id="edge5" class="edge">
<title>1,5&#45;&gt;2,5</title>
<path fill="none" stroke="black" d="M172.76,-133.01C183.24,-130.46 196.14,-127.32 207.7,-124.5"/>
<polygon fill="black" stroke="black" points="208.53,-127.9 217.42,-122.13 206.87,-121.1 208.53,-127.9"/>
<text text-anchor="middle" x="194.99" y="-131.9" font-family="Times New Roman,serif" font-size="14.00">a</text>
</g>
<!-- 2,4&#45;&gt;2,5 -->
<g id="edge8" class="edge">
<title>2,4&#45;&gt;2,5</title>
<path fill="none" stroke="black" d="M171.45,-85.4C182.77,-90.79 197.22,-97.66 209.77,-103.62"/>
<polygon fill="black" stroke="black" points="208.37,-106.84 218.91,-107.97 211.38,-100.52 208.37,-106.84"/>
<text text-anchor="middle" x="194.99" y="-100.9" font-family="Times New Roman,serif" font-size="14.00">b</text>
</g>
<!-- 3,4 -->
<g id="node8" class="node">
<title>3,4</title>
<ellipse fill="none" stroke="black" cx="239.09" cy="-22.1" rx="22.2" ry="22.2"/>
<text text-anchor="middle" x="239.09" y="-18.4" font-family="Times New Roman,serif" font-size="14.00">3,4</text>
</g>
<!-- 2,4&#45;&gt;3,4 -->
<g id="edge9" class="edge">
<title>2,4&#45;&gt;3,4</title>
<path fill="none" stroke="black" d="M170.17,-64.65C182.06,-57.2 197.76,-47.36 211.08,-39.02"/>
<polygon fill="black" stroke="black" points="213.22,-41.81 219.84,-33.53 209.5,-35.88 213.22,-41.81"/>
<text text-anchor="middle" x="194.99" y="-54.9" font-family="Times New Roman,serif" font-size="14.00">a</text>
</g>
<!-- 1,6&#45;&gt;1,6 -->
<g id="edge6" class="edge">
<title>1,6&#45;&gt;1,6</title>
<path fill="none" stroke="black" d="M231.08,-199.73C229.98,-210.02 232.64,-219.2 239.09,-219.2 243.22,-219.2 245.8,-215.43 246.83,-210.02"/>
<polygon fill="black" stroke="black" points="250.33,-209.82 247.1,-199.73 243.34,-209.63 250.33,-209.82"/>
<text text-anchor="middle" x="239.09" y="-223" font-family="Times New Roman,serif" font-size="14.00">b</text>
</g>
<!-- 2,6 -->
<g id="node7" class="node">
<title>2,6</title>
<ellipse fill="none" stroke="black" cx="327.29" cy="-143.1" rx="22.2" ry="22.2"/>
<text text-anchor="middle" x="327.29" y="-139.4" font-family="Times New Roman,serif" font-size="14.00">2,6</text>
</g>
<!-- 1,6&#45;&gt;2,6 -->
<g id="edge7" class="edge">
<title>1,6&#45;&gt;2,6</title>
<path fill="none" stroke="black" d="M259.65,-170.93C270.7,-166.31 284.73,-160.45 297.07,-155.3"/>
<polygon fill="black" stroke="black" points="298.63,-158.44 306.51,-151.36 295.93,-151.98 298.63,-158.44"/>
<text text-anchor="middle" x="283.19" y="-165.9" font-family="Times New Roman,serif" font-size="14.00">a</text>
</g>
<!-- 2,5&#45;&gt;2,6 -->
<g id="edge10" class="edge">
<title>2,5&#45;&gt;2,6</title>
<path fill="none" stroke="black" d="M260.52,-123.26C271.14,-126.47 284.34,-130.45 296.12,-134"/>
<polygon fill="black" stroke="black" points="295.42,-137.44 306.01,-136.98 297.44,-130.74 295.42,-137.44"/>
<text text-anchor="middle" x="283.19" y="-133.9" font-family="Times New Roman,serif" font-size="14.00">b</text>
</g>
<!-- 3,5 -->
<g id="node9" class="node">
<title>3,5</title>
<ellipse fill="none" stroke="black" cx="327.29" cy="-48.1" rx="22.2" ry="22.2"/>
<text text-anchor="middle" x="327.29" y="-44.4" font-family="Times New Roman,serif" font-size="14.00">3,5</text>
</g>
<!-- 2,5&#45;&gt;3,5 -->
<g id="edge11" class="edge">
<title>2,5&#45;&gt;3,5</title>
<path fill="none" stroke="black" d="M257.12,-103.47C269.83,-93.29 287.4,-79.23 301.64,-67.83"/>
<polygon fill="black" stroke="black" points="303.97,-70.45 309.59,-61.47 299.59,-64.98 303.97,-70.45"/>
<text text-anchor="middle" x="283.19" y="-87.9" font-family="Times New Roman,serif" font-size="14.00">a</text>
</g>
<!-- 2,6&#45;&gt;2,6 -->
<g id="edge12" class="edge">
<title>2,6&#45;&gt;2,6</title>
<path fill="none" stroke="black" d="M319.28,-163.73C318.17,-174.02 320.84,-183.2 327.29,-183.2 331.42,-183.2 333.99,-179.43 335.02,-174.02"/>
<polygon fill="black" stroke="black" points="338.53,-173.82 335.29,-163.73 331.53,-173.63 338.53,-173.82"/>
<text text-anchor="middle" x="327.29" y="-187" font-family="Times New Roman,serif" font-size="14.00">b</text>
</g>
<!-- 3,6 -->
<g id="node10" class="node">
<title>3,6</title>
<ellipse fill="none" stroke="black" cx="415.48" cy="-95.1" rx="22.2" ry="22.2"/>
<text text-anchor="middle" x="415.48" y="-91.4" font-family="Times New Roman,serif" font-size="14.00">3,6</text>
</g>
<!-- 2,6&#45;&gt;3,6 -->
<g id="edge13" class="edge">
<title>2,6&#45;&gt;3,6</title>
<path fill="none" stroke="black" d="M346.99,-132.68C358.62,-126.2 373.79,-117.76 386.8,-110.51"/>
<polygon fill="black" stroke="black" points="388.78,-113.42 395.82,-105.49 385.38,-107.3 388.78,-113.42"/>
<text text-anchor="middle" x="371.38" y="-123.9" font-family="Times New Roman,serif" font-size="14.00">a</text>
</g>
<!-- 3,4&#45;&gt;3,4 -->
<g id="edge15" class="edge">
<title>3,4&#45;&gt;3,4</title>
<path fill="none" stroke="black" d="M231.08,-42.73C229.98,-53.02 232.64,-62.2 239.09,-62.2 243.22,-62.2 245.8,-58.43 246.83,-53.02"/>
<polygon fill="black" stroke="black" points="250.33,-52.82 247.1,-42.73 243.34,-52.63 250.33,-52.82"/>
<text text-anchor="middle" x="239.09" y="-66" font-family="Times New Roman,serif" font-size="14.00">a</text>
</g>
<!-- 3,4&#45;&gt;3,5 -->
<g id="edge14" class="edge">
<title>3,4&#45;&gt;3,5</title>
<path fill="none" stroke="black" d="M260.52,-28.26C271.14,-31.47 284.34,-35.45 296.12,-39"/>
<polygon fill="black" stroke="black" points="295.42,-42.44 306.01,-41.98 297.44,-35.74 295.42,-42.44"/>
<text text-anchor="middle" x="283.19" y="-39.9" font-family="Times New Roman,serif" font-size="14.00">b</text>
</g>
<!-- 3,5&#45;&gt;3,5 -->
<g id="edge17" class="edge">
<title>3,5&#45;&gt;3,5</title>
<path fill="none" stroke="black" d="M319.28,-68.73C318.17,-79.02 320.84,-88.2 327.29,-88.2 331.42,-88.2 333.99,-84.43 335.02,-79.02"/>
<polygon fill="black" stroke="black" points="338.53,-78.82 335.29,-68.73 331.53,-78.63 338.53,-78.82"/>
<text text-anchor="middle" x="327.29" y="-92" font-family="Times New Roman,serif" font-size="14.00">a</text>
</g>
<!-- 3,5&#45;&gt;3,6 -->
<g id="edge16" class="edge">
<title>3,5&#45;&gt;3,6</title>
<path fill="none" stroke="black" d="M346.99,-58.3C358.62,-64.64 373.79,-72.91 386.8,-80.01"/>
<polygon fill="black" stroke="black" points="385.36,-83.21 395.82,-84.92 388.71,-77.06 385.36,-83.21"/>
<text text-anchor="middle" x="371.38" y="-76.9" font-family="Times New Roman,serif" font-size="14.00">b</text>
</g>
</g>
</svg>
