<?xml version="1.0" encoding="UTF-8" standalone="no"?>
<!DOCTYPE svg PUBLIC "-//W3C//DTD SVG 1.1//EN"
 "http://www.w3.org/Graphics/SVG/1.1/DTD/svg11.dtd">
<!-- Generated by graphviz version 3.0.0 (20220226.1711)
 -->
<!-- Title: Test1 intersection Test2 Pages: 1 -->
<svg width="181pt" height="114pt"
 viewBox="0.00 0.00 180.99 114.20" xmlns="http://www.w3.org/2000/svg" xmlns:xlink="http://www.w3.org/1999/xlink">
<g id="graph0" class="graph" transform="scale(1 1) rotate(0) translate(4 110.2)">
<title>Test1 intersection Test2</title>
<polygon fill="white" stroke="transparent" points="-4,4 -4,-110.2 176.99,-110.2 176.99,4 -4,4"/>
<!-- 0 -->
<g id="node1" class="node">
<title>0</title>
<ellipse fill="black" stroke="black" cx="1.8" cy="-53.1" rx="1.8" ry="1.8"/>
</g>
<!-- 1,4 -->
<g id="node2" class="node">
<title>1,4</title>
<ellipse fill="none" stroke="black" cx="62.7" cy="-53.1" rx="22.2" ry="22.2"/>
<text text-anchor="middle" x="62.7" y="-49.4" font-family="Times New Roman,serif" font-size="14.00">1,4</text>
</g>
<!-- 0&#45;&gt;1,4 -->
<g id="edge1" class="edge">
<title>0&#45;&gt;1,4</title>
<path fill="none" stroke="black" d="M3.82,-53.1C7.2,-53.1 18.46,-53.1 30.17,-53.1"/>
<polygon fill="black" stroke="black" points="30.38,-56.6 40.38,-53.1 30.38,-49.6 30.38,-56.6"/>
</g>
<!-- 1,5 -->
<g id="node3" class="node">
<title>1,5</title>
<ellipse fill="none" stroke="black" cx="150.89" cy="-84.1" rx="22.2" ry="22.2"/>
<text text-anchor="middle" x="150.89" y="-80.4" font-family="Times New Roman,serif" font-size="14.00">1,5</text>
</g>
<!-- 1,4&#45;&gt;1,5 -->
<g id="edge2" class="edge">
<title>1,4&#45;&gt;1,5</title>
<path fill="none" stroke="black" d="M83.69,-60.29C94.49,-64.17 108.04,-69.05 120.07,-73.37"/>
<polygon fill="black" stroke="black" points="119.12,-76.75 129.71,-76.84 121.49,-70.16 119.12,-76.75"/>
<text text-anchor="middle" x="106.8" y="-72.9" font-family="Times New Roman,serif" font-size="14.00">b</text>
</g>
<!-- 2,4 -->
<g id="node4" class="node">
<title>2,4</title>
<ellipse fill="none" stroke="black" cx="150.89" cy="-22.1" rx="22.2" ry="22.2"/>
<text text-anchor="middle" x="150.89" y="-18.4" font-family="Times New Roman,serif" font-size="14.00">2,4</text>
</g>
<!-- 1,4&#45;&gt;2,4 -->
<g id="edge3" class="edge">
<title>1,4&#45;&gt;2,4</title>
<path fill="none" stroke="black" d="M83.69,-45.91C94.49,-42.02 108.04,-37.15 120.07,-32.83"/>
<polygon fill="black" stroke="black" points="121.49,-36.03 129.71,-29.36 119.12,-29.45 121.49,-36.03"/>
<text text-anchor="middle" x="106.8" y="-41.9" font-family="Times New Roman,serif" font-size="14.00">a</text>
</g>
</g>
</svg>
