<?xml version="1.0" encoding="UTF-8" standalone="no"?>
<!DOCTYPE svg PUBLIC "-//W3C//DTD SVG 1.1//EN"
 "http://www.w3.org/Graphics/SVG/1.1/DTD/svg11.dtd">
<!-- Generated by graphviz version 3.0.0 (20220226.1711)
 -->
<!-- Title: Test1 union Test2 Pages: 1 -->
<svg width="470pt" height="258pt"
 viewBox="0.00 0.00 469.58 258.20" xmlns="http://www.w3.org/2000/svg" xmlns:xlink="http://www.w3.org/1999/xlink">
<g id="graph0" class="graph" transform="scale(1 1) rotate(0) translate(4 254.2)">
<title>Test1 union Test2</title>
<polygon fill="white" stroke="transparent" points="-4,4 -4,-254.2 465.58,-254.2 465.58,4 -4,4"/>
<!-- 0 -->
<g id="node1" class="node">
<title>0</title>
<ellipse fill="black" stroke="black" cx="1.8" cy="-117.1" rx="1.8" ry="1.8"/>
</g>
<!-- 1,4 -->
<g id="node2" class="node">
<title>1,4</title>
<ellipse fill="none" stroke="black" cx="62.7" cy="-117.1" rx="22.2" ry="22.2"/>
<text text-anchor="middle" x="62.7" y="-113.4" font-family="Times New Roman,serif" font-size="14.00">1,4</text>
</g>
<!-- 0&#45;&gt;1,4 -->
<g id="edge1" class="edge">
<title>0&#45;&gt;1,4</title>
<path fill="none" stroke="black" d="M3.82,-117.1C7.2,-117.1 18.46,-117.1 30.17,-117.1"/>
<polygon fill="black" stroke="black" points="30.38,-120.6 40.38,-117.1 30.38,-113.6 30.38,-120.6"/>
</g>
<!-- 1,5 -->
<g id="node3" class="node">
<title>1,5</title>
<ellipse fill="none" stroke="black" cx="150.89" cy="-148.1" rx="22.2" ry="22.2"/>
<text text-anchor="middle" x="150.89" y="-144.4" font-family="Times New Roman,serif" font-size="14.00">1,5</text>
</g>
<!-- 1,4&#45;&gt;1,5 -->
<g id="edge2" class="edge">
<title>1,4&#45;&gt;1,5</title>
<path fill="none" stroke="black" d="M83.69,-124.29C94.49,-128.17 108.04,-133.05 120.07,-137.37"/>
<polygon fill="black" stroke="black" points="119.12,-140.75 129.71,-140.84 121.49,-134.16 119.12,-140.75"/>
<text text-anchor="middle" x="106.8" y="-136.9" font-family="Times New Roman,serif" font-size="14.00">b</text>
</g>
<!-- 2,4 -->
<g id="node5" class="node">
<title>2,4</title>
<ellipse fill="none" stroke="black" cx="150.89" cy="-86.1" rx="22.2" ry="22.2"/>
<text text-anchor="middle" x="150.89" y="-82.4" font-family="Times New Roman,serif" font-size="14.00">2,4</text>
</g>
<!-- 1,4&#45;&gt;2,4 -->
<g id="edge3" class="edge">
<title>1,4&#45;&gt;2,4</title>
<path fill="none" stroke="black" d="M83.69,-109.91C94.49,-106.02 108.04,-101.15 120.07,-96.83"/>
<polygon fill="black" stroke="black" points="121.49,-100.03 129.71,-93.36 119.12,-93.45 121.49,-100.03"/>
<text text-anchor="middle" x="106.8" y="-105.9" font-family="Times New Roman,serif" font-size="14.00">a</text>
</g>
<!-- 1,6 -->
<g id="node4" class="node">
<title>1,6</title>
<ellipse fill="none" stroke="black" cx="243.09" cy="-191.1" rx="22.18" ry="22.18"/>
<ellipse fill="none" stroke="black" cx="243.09" cy="-191.1" rx="26.2" ry="26.2"/>
<text text-anchor="middle" x="243.09" y="-187.4" font-family="Times New Roman,serif" font-size="14.00">1,6</text>
</g>
<!-- 1,5&#45;&gt;1,6 -->
<g id="edge4" class="edge">
<title>1,5&#45;&gt;1,6</title>
<path fill="none" stroke="black" d="M171.47,-157.43C182.72,-162.79 197.14,-169.67 210.02,-175.81"/>
<polygon fill="black" stroke="black" points="208.51,-178.97 219.05,-180.11 211.53,-172.65 208.51,-178.97"/>
<text text-anchor="middle" x="194.99" y="-172.9" font-family="Times New Roman,serif" font-size="14.00">b</text>
</g>
<!-- 2,5 -->
<g id="node6" class="node">
<title>2,5</title>
<ellipse fill="none" stroke="black" cx="243.09" cy="-125.1" rx="22.2" ry="22.2"/>
<text text-anchor="middle" x="243.09" y="-121.4" font-family="Times New Roman,serif" font-size="14.00">2,5</text>
</g>
<!-- 1,5&#45;&gt;2,5 -->
<g id="edge5" class="edge">
<title>1,5&#45;&gt;2,5</title>
<path fill="none" stroke="black" d="M172.81,-142.76C184.39,-139.81 198.99,-136.09 211.8,-132.82"/>
<polygon fill="black" stroke="black" points="212.77,-136.19 221.6,-130.32 211.04,-129.4 212.77,-136.19"/>
<text text-anchor="middle" x="194.99" y="-140.9" font-family="Times New Roman,serif" font-size="14.00">a</text>
</g>
<!-- 1,6&#45;&gt;1,6 -->
<g id="edge6" class="edge">
<title>1,6&#45;&gt;1,6</title>
<path fill="none" stroke="black" d="M234.17,-216.03C233.55,-226.4 236.53,-235.2 243.09,-235.2 247.29,-235.2 250.03,-231.59 251.28,-226.27"/>
<polygon fill="black" stroke="black" points="254.79,-226.25 252.01,-216.03 247.81,-225.76 254.79,-226.25"/>
<text text-anchor="middle" x="243.09" y="-239" font-family="Times New Roman,serif" font-size="14.00">b</text>
</g>
<!-- 2,6 -->
<g id="node7" class="node">
<title>2,6</title>
<ellipse fill="none" stroke="black" cx="339.29" cy="-154.1" rx="22.18" ry="22.18"/>
<ellipse fill="none" stroke="black" cx="339.29" cy="-154.1" rx="26.2" ry="26.2"/>
<text text-anchor="middle" x="339.29" y="-150.4" font-family="Times New Roman,serif" font-size="14.00">2,6</text>
</g>
<!-- 1,6&#45;&gt;2,6 -->
<g id="edge7" class="edge">
<title>1,6&#45;&gt;2,6</title>
<path fill="none" stroke="black" d="M267.86,-181.76C279.21,-177.3 292.99,-171.89 305.33,-167.04"/>
<polygon fill="black" stroke="black" points="306.82,-170.22 314.85,-163.3 304.26,-163.7 306.82,-170.22"/>
<text text-anchor="middle" x="291.19" y="-176.9" font-family="Times New Roman,serif" font-size="14.00">a</text>
</g>
<!-- 2,4&#45;&gt;2,5 -->
<g id="edge8" class="edge">
<title>2,4&#45;&gt;2,5</title>
<path fill="none" stroke="black" d="M171.47,-94.56C183.64,-99.82 199.51,-106.69 213.13,-112.58"/>
<polygon fill="black" stroke="black" points="211.99,-115.9 222.56,-116.65 214.77,-109.47 211.99,-115.9"/>
<text text-anchor="middle" x="194.99" y="-108.9" font-family="Times New Roman,serif" font-size="14.00">b</text>
</g>
<!-- 3,4 -->
<g id="node8" class="node">
<title>3,4</title>
<ellipse fill="none" stroke="black" cx="243.09" cy="-26.1" rx="22.18" ry="22.18"/>
<ellipse fill="none" stroke="black" cx="243.09" cy="-26.1" rx="26.2" ry="26.2"/>
<text text-anchor="middle" x="243.09" y="-22.4" font-family="Times New Roman,serif" font-size="14.00">3,4</text>
</g>
<!-- 2,4&#45;&gt;3,4 -->
<g id="edge9" class="edge">
<title>2,4&#45;&gt;3,4</title>
<path fill="none" stroke="black" d="M169.71,-74.24C181.87,-66.16 198.27,-55.25 212.38,-45.86"/>
<polygon fill="black" stroke="black" points="214.43,-48.7 220.82,-40.25 210.55,-42.87 214.43,-48.7"/>
<text text-anchor="middle" x="194.99" y="-63.9" font-family="Times New Roman,serif" font-size="14.00">a</text>
</g>
<!-- 2,5&#45;&gt;2,6 -->
<g id="edge10" class="edge">
<title>2,5&#45;&gt;2,6</title>
<path fill="none" stroke="black" d="M264.53,-131.39C276.17,-134.97 291.05,-139.56 304.4,-143.66"/>
<polygon fill="black" stroke="black" points="303.63,-147.09 314.22,-146.69 305.69,-140.4 303.63,-147.09"/>
<text text-anchor="middle" x="291.19" y="-143.9" font-family="Times New Roman,serif" font-size="14.00">b</text>
</g>
<!-- 3,5 -->
<g id="node9" class="node">
<title>3,5</title>
<ellipse fill="none" stroke="black" cx="339.29" cy="-51.1" rx="22.18" ry="22.18"/>
<ellipse fill="none" stroke="black" cx="339.29" cy="-51.1" rx="26.2" ry="26.2"/>
<text text-anchor="middle" x="339.29" y="-47.4" font-family="Times New Roman,serif" font-size="14.00">3,5</text>
</g>
<!-- 2,5&#45;&gt;3,5 -->
<g id="edge11" class="edge">
<title>2,5&#45;&gt;3,5</title>
<path fill="none" stroke="black" d="M260.93,-111.87C274.63,-101.11 294.25,-85.69 310.3,-73.08"/>
<polygon fill="black" stroke="black" points="312.62,-75.71 318.32,-66.78 308.3,-70.21 312.62,-75.71"/>
<text text-anchor="middle" x="291.19" y="-93.9" font-family="Times New Roman,serif" font-size="14.00">a</text>
</g>
<!-- 2,6&#45;&gt;2,6 -->
<g id="edge12" class="edge">
<title>2,6&#45;&gt;2,6</title>
<path fill="none" stroke="black" d="M330.37,-179.03C329.75,-189.4 332.72,-198.2 339.29,-198.2 343.49,-198.2 346.22,-194.59 347.48,-189.27"/>
<polygon fill="black" stroke="black" points="350.99,-189.25 348.21,-179.03 344.01,-188.76 350.99,-189.25"/>
<text text-anchor="middle" x="339.29" y="-202" font-family="Times New Roman,serif" font-size="14.00">b</text>
</g>
<!-- 3,6 -->
<g id="node10" class="node">
<title>3,6</title>
<ellipse fill="none" stroke="black" cx="435.48" cy="-102.1" rx="22.18" ry="22.18"/>
<ellipse fill="none" stroke="black" cx="435.48" cy="-102.1" rx="26.2" ry="26.2"/>
<text text-anchor="middle" x="435.48" y="-98.4" font-family="Times New Roman,serif" font-size="14.00">3,6</text>
</g>
<!-- 2,6&#45;&gt;3,6 -->
<g id="edge13" class="edge">
<title>2,6&#45;&gt;3,6</title>
<path fill="none" stroke="black" d="M362.61,-141.77C374.81,-135.04 390.11,-126.59 403.46,-119.23"/>
<polygon fill="black" stroke="black" points="405.26,-122.23 412.32,-114.33 401.87,-116.1 405.26,-122.23"/>
<text text-anchor="middle" x="387.38" y="-132.9" font-family="Times New Roman,serif" font-size="14.00">a</text>
</g>
<!-- 3,4&#45;&gt;3,4 -->
<g id="edge15" class="edge">
<title>3,4&#45;&gt;3,4</title>
<path fill="none" stroke="black" d="M234.17,-51.03C233.55,-61.4 236.53,-70.2 243.09,-70.2 247.29,-70.2 250.03,-66.59 251.28,-61.27"/>
<polygon fill="black" stroke="black" points="254.79,-61.25 252.01,-51.03 247.81,-60.76 254.79,-61.25"/>
<text text-anchor="middle" x="243.09" y="-74" font-family="Times New Roman,serif" font-size="14.00">a</text>
</g>
<!-- 3,4&#45;&gt;3,5 -->
<g id="edge14" class="edge">
<title>3,4&#45;&gt;3,5</title>
<path fill="none" stroke="black" d="M268.84,-32.67C279.55,-35.51 292.26,-38.88 303.87,-41.96"/>
<polygon fill="black" stroke="black" points="303.14,-45.39 313.7,-44.57 304.94,-38.63 303.14,-45.39"/>
<text text-anchor="middle" x="291.19" y="-43.9" font-family="Times New Roman,serif" font-size="14.00">b</text>
</g>
<!-- 3,5&#45;&gt;3,5 -->
<g id="edge17" class="edge">
<title>3,5&#45;&gt;3,5</title>
<path fill="none" stroke="black" d="M330.37,-76.03C329.75,-86.4 332.72,-95.2 339.29,-95.2 343.49,-95.2 346.22,-91.59 347.48,-86.27"/>
<polygon fill="black" stroke="black" points="350.99,-86.25 348.21,-76.03 344.01,-85.76 350.99,-86.25"/>
<text text-anchor="middle" x="339.29" y="-99" font-family="Times New Roman,serif" font-size="14.00">a</text>
</g>
<!-- 3,5&#45;&gt;3,6 -->
<g id="edge16" class="edge">
<title>3,5&#45;&gt;3,6</title>
<path fill="none" stroke="black" d="M362.61,-63.18C374.72,-69.74 389.89,-77.95 403.16,-85.14"/>
<polygon fill="black" stroke="black" points="401.53,-88.24 411.99,-89.92 404.87,-82.08 401.53,-88.24"/>
<text text-anchor="middle" x="387.38" y="-82.9" font-family="Times New Roman,serif" font-size="14.00">b</text>
</g>
<!-- 3,6&#45;&gt;3,6 -->
<g id="edge18" class="edge">
<title>3,6&#45;&gt;3,6</title>
<path fill="none" stroke="black" d="M426.56,-127.03C425.95,-137.4 428.92,-146.2 435.48,-146.2 439.69,-146.2 442.42,-142.59 443.68,-137.27"/>
<polygon fill="black" stroke="black" points="447.19,-137.25 444.4,-127.03 440.2,-136.76 447.19,-137.25"/>
<text text-anchor="middle" x="435.48" y="-150" font-family="Times New Roman,serif" font-size="14.00">b, a</text>
</g>
</g>
</svg>
